ply
format ascii 1.0
comment Written with hapPLY (https://github.com/nmwsharp/happly)
element vertex 153
property double x
property double y
property double z
property uchar red
property uchar green
property uchar blue
property float ix
property float iy
property uchar octave
end_header
-0.75539287006118228 -1.5732752291054359 4.811064284630608 217 232 255 325 163 0
-0.29074040349971697 0.5179221469863835 1.353212054083297 128 148 255 301 436 0
-1.0247912060012507 0.017901340078688488 1.7885357994297308 138 255 90 166 292 0
-0.69087721492864507 -2.0368166949811775 4.9343526420213681 223 255 176 330 127.200005 1
-0.96708752076940208 -1.9127921006223696 4.3953087930248467 222 255 172 298.800018 121.200005 1
1.1027663375929309 -0.67943731419677811 2.6303605921117059 255 222 229 543.600037 189.600006 1
1.4877243722940863 -0.6882254188992869 1.790699710154573 255 223 227 703.200012 139.200012 1
1.4769391484492982 -0.67264624376120608 1.7156082240321471 231 255 215 714 135.600006 1
-1.3475721466811037 -1.3071891871168135 1.9722881931529992 132 163 201 120.000008 31.2000008 1
-1.2628265030257393 0.32836760464981035 1.771067526263252 255 236 217 111.600006 361.200012 1
-0.27712635943113972 0.52313518333617293 2.0192126153634402 255 234 235 331.200012 387.600006 1
-1.1676250661605749 -0.70036584375168909 1.9046950601335841 206 215 226 148.800003 147.600006 1
-0.43407128323769717 -0.33227508987543797 1.9731765638551155 236 243 255 297.600006 223.200012 1
-0.0204182105813977 -0.026010330233736251 6.1210832099737793 120 141 255 385.200012 286.800018 1
-1.2406843445011284 0.33737987260612584 1.7397881032552438 236 217 185 112.320007 361.440002 2
1.3791448339082493 0.51307121482671092 1.52181342310951 177 177 168 732.960022 420.480011 2
1.3785430396690364 0.51255775200268072 1.5248644090168879 144 148 139 732.960022 414.720032 2
1.4607675506024909 -0.55093182658729289 1.7462429826476158 222 228 236 704.160034 169.920013 2
-1.4487556379845152 -0.057791128707098238 3.4044307228626272 70 81 100 220.320007 279.360016 2
-1.1716026707095972 -0.37711947817084673 2.601038010260706 255 90 109 211.680008 234.720016 2
-1.0988280793357075 -0.44445600268710095 1.8875144848382952 126 255 85 162.720001 197.280014 2
-1.3334380141166178 -0.76977542493387729 1.947587505553785 229 255 210 118.080002 135.360001 2
1.2633063970954888 0.36969073988914741 1.5954961260596208 106 117 255 689.76001 377.280029 2
-1.1591900359547997 0.33696211364174827 2.3572160170112859 73 90 255 193.536011 343.87204 3
-1.1551864970594981 0.31537314941518102 2.0964250515597347 255 95 112 171.072021 343.87204 3
0.93000444453518094 -0.47573547064414168 3.1372536866325866 239 245 255 497.664062 228.096024 3
-0.66158344285897552 -1.4275082869087476 4.2415431505786181 255 201 217 323.136017 160.70401 3
1.0707555630656445 0.42140046391126917 2.7321815398819975 92 96 255 533.952026 350.784027 3
-1.3465284427580015 -0.20397786720905747 1.9941460810199514 241 243 245 124.416016 247.104019 3
-1.1520583276032728 -0.24701332537824461 1.9387230994897999 131 152 255 157.248016 238.46402 3
-1.3713252406140715 -0.25516738883668438 2.0353791585220629 242 243 245 124.416016 236.736023 3
-1.1213733434553701 0.19424968312260932 2.7888396285446646 255 111 114 231.552017 312.768036 3
1.1378027614643376 0.50313652791305907 2.4535083431430422 81 66 255 561.600037 364.608032 3
-0.98269293858878326 0.39478364337018607 1.6941710671293264 162 255 215 162.432022 378.432037 3
-0.82463414289836079 0.32570147901816443 1.612772750831676 19 255 46 190.080017 364.608032 3
-0.74855301382856254 -0.24485102967236316 1.6049834654778712 255 79 99 207.360016 231.552017 3
-0.29253454846239135 -0.032257113560385159 3.5185631316476833 104 123 143 352.512024 286.848022 3
-0.29983047546082719 -0.16702382622348383 1.3631882975038621 239 245 255 297.216034 241.920029 3
-1.1190754295250094 -0.44523123101842965 1.8904601457368404 83 101 126 160.70401 196.99202 3
-1.317667085194639 -0.54031187067029274 1.9344832254882451 238 239 241 120.960014 179.712021 3
-1.160319856385891 -0.13578786067097992 1.9613413587645994 255 125 138 155.52002 259.200012 3
-0.67203974942019773 -1.9780157607727835 4.7764584848081979 223 255 176 330.048035 127.872009 3
-1.3460312683411928 -0.86089709786286206 1.9716666999982531 255 207 215 119.23201 119.23201 3
0.52515468065296367 0.5201299114722151 1.1525874287972471 165 255 130 558.144043 459.648041 3
0.49131851958340667 0.53255584859503136 1.3023921476509019 155 255 119 530.496033 447.552032 3
-1.5252138415286387 -0.15773818748068003 3.542303003710793 255 68 88 215.654434 269.568024 4
-1.3111323338185064 -0.24861351140900612 1.9329495884541834 242 243 245 124.416016 238.464035 4
-1.1213733434553701 0.19424968312260932 2.7888396285446646 127 255 108 230.169632 313.113647 4
1.1953881752756352 0.25489356139621921 2.6573166380690267 142 158 255 557.798462 327.628845 4
-1.0354271027622604 0.36251487258714121 1.8604340965340476 255 25 29 167.961624 360.806458 4
-0.63133083338222207 -0.48827819947886253 2.0095655969933031 255 230 230 263.347229 196.992035 4
-0.62660629754161645 -0.56202551560417424 1.9920087463665657 230 230 255 261.273651 180.403229 4
-0.47857279894211935 -0.25282420994302546 2.0826096661645361 235 239 245 296.524841 240.537628 4
-1.3536527456645242 -0.40002210296038399 1.9932643593346682 236 239 242 120.268814 211.507233 4
-1.3360243521893196 -0.62942568068573834 1.973157426280316 238 255 232 126.489616 165.888031 4
-1.1846937247876856 -0.39257903389728732 2.5778946853811693 255 87 106 207.360031 232.243225 4
-0.65555413397978546 -0.8711392555913674 2.5993131108378718 197 214 230 288.230438 155.52002 4
-0.89375362391374757 -1.7272024804966204 3.9579839402401316 222 255 172 294.451233 122.342415 4
-1.3026096600644048 -0.98569766518528867 1.9148584750375588 199 209 222 124.416016 91.2384109 4
-1.0918083648004817 -1.1169972773237273 1.8542685268195966 255 80 99 159.667221 60.134407 4
-1.2739393497916573 -0.74388294078905415 1.860260243888443 210 218 229 120.268814 134.784012 4
-1.3150562519861499 -0.93756183297426454 1.9266452241117289 218 222 229 120.268814 103.680016 4
-1.1054186027687178 -0.67250253529882098 1.8685773119020119 255 75 98 159.667221 151.372818 4
-1.1011250369714043 -0.83285955297825676 1.8805942094575627 92 120 255 161.740829 120.268814 4
0.95667056806153883 -0.49869649266858462 3.253152859938826 255 237 240 495.590485 230.169632 4
1.5156467259299111 -0.70593846396121429 1.8500144261232485 234 255 223 702.9505 138.931213 4
-1.0306357335439453 0.47998445238687359 1.2018196680806899 92 113 255 53.9136086 437.529663 4
-0.85030403251618436 0.43422428103849892 2.5157871678847998 255 218 219 255.052841 352.512054 4
-0.25764467095131849 0.3998312165380869 1.6794309868409387 164 182 255 325.555237 379.468842 4
0.46494833859191997 0.49750769242874338 1.2070903197532905 121 135 158 528.768066 447.897675 4
0.32702338518425678 0.39414214337623593 1.1075205228452409 222 219 255 497.664062 425.088074 4
1.5989706904297252 0.13071320732724151 2.353096482719307 73 143 171 640.742493 311.040039 4
-1.6312080190373379 0.36847577387021269 2.4657356034689109 172 174 178 124.416016 345.876526 5
0.078867102511915865 0.52367551398020296 1.7244816830550089 255 202 213 403.10791 405.596222 5
-0.45697420579235404 0.20830182548749221 2.1104908131890765 214 216 255 301.086761 325.969971 5
-0.2837640665188137 0.45098769404147299 1.8769686519128399 168 183 255 325.969971 378.224701 5
-0.4079488636969737 0.41499052125511454 1.9115438193535521 155 176 255 301.086761 370.759735 5
-0.40223627506610615 0.35587005668345312 2.0589003733710736 218 217 218 308.551727 353.341492 5
-1.1171517806310454 0.4019669643434392 1.6672335110429075 233 234 235 124.416016 380.713013 5
-1.6377952465040417 0.75775284892654926 3.6129078402841541 255 13 16 211.507233 370.759735 5
-1.1213733434553701 0.19424968312260932 2.7888396285446646 114 117 131 228.925476 313.528351 5
-1.0186822095306516 -1.9471551793024187 4.5502289905487547 222 255 172 298.59845 121.927696 5
-1.1396811186652869 -0.99012832700200049 1.9327344246415659 103 119 147 156.764175 92.0678558 5
-1.3026096600644048 -0.98569766518528867 1.9148584750375588 192 204 220 124.416016 89.5795288 5
0.88749113807231883 -0.59828240856448633 3.1282890777118002 255 233 237 487.710785 213.995544 5
-1.0428839417294435 -0.14023522295268426 1.7350431402471211 120 134 151 156.764175 258.785309 5
-1.3031113590056025 -0.2829742841973375 2.2073208936134714 123 135 156 156.764175 238.878754 5
-1.3396535989580642 -0.401739065788288 1.9788827722177444 239 242 255 121.927696 209.018906 5
-0.65847570809252698 -0.083465604377354452 1.9701983291450746 223 223 255 253.80867 268.738586 5
-0.4798203257565179 -0.25068375349955929 2.0954196916842203 235 240 245 296.110107 238.878754 5
0.8926189001521907 -0.50175363056444544 4.2669376911299439 255 245 245 467.80423 241.367081 5
1.231932642453385 0.36728107759066908 1.5564541099278024 132 255 119 686.776428 378.224701 5
-0.41868007761504389 0.41348102650541463 1.7111711823030054 176 178 179 288.645172 375.736359 5
-1.1798550493598863 0.30340894160724113 1.9067187011377924 143 255 154 146.810898 348.364838 5
-0.9727648135748872 0.39404577864862744 1.6478716079832245 152 150 255 161.740829 375.736359 5
-0.41710505938344999 0.36292472199554632 2.1760778261873188 255 225 225 307.556396 352.346191 6
-1.0501443925320828 0.40256476959577381 1.7853123889817084 203 202 255 161.243164 376.23407 6
-1.2124028851238555 0.30624973689197893 1.9699745564414113 154 255 180 146.313248 349.360199 6
-0.29438283329586401 -0.017658559547493013 3.4042597453992354 104 123 143 352.346191 286.65451 6
-1.1535086581641618 -0.96614084492694441 1.9119653794021803 255 111 128 155.271194 92.5655212 6
-1.326830615389476 -1.006676358395511 1.9681840313005985 209 222 255 125.411354 92.5655212 6
0.59607976816477626 -0.69982199710124648 4.190727658204958 255 127 154 435.953735 223.948837 6
0.0031307525902439792 0.52070902301694288 1.4000478311501086 172 184 255 385.192017 429.981781 6
-1.0186822095306516 -1.9471551793024187 4.5502289905487547 222 255 172 298.59845 122.425369 6
0.86664031636059302 -0.58126156573857501 3.0502304886509908 243 255 235 486.715485 217.976868 6
-0.45018997996794097 -0.33230396212154523 2.0068333552909481 255 229 236 295.612457 223.948837 6
-0.43451790988132455 -0.45757096867083835 1.9108275729141768 255 225 232 295.612457 197.074982 6
-0.71875365349271192 -1.4631465884148376 4.317799586734238 231 255 200 322.486328 158.257187 6
-0.67910972048726936 -2.0115493078160673 4.8572956248449062 177 201 223 328.458313 128.397339 6
-1.0736855785578205 0.19323238163551054 2.6466404327412931 110 125 255 229.920807 313.528381 6
-1.0598328415089728 -0.11686738658219875 1.9391840980976371 125 148 255 173.187103 265.752625 6
-1.3503966285236819 -0.41318183215091941 2.9484608427340575 131 255 86 206.032928 232.906799 6
-1.1536012186469033 -0.24647824701546345 1.9383009649741298 255 128 140 155.271194 238.878769 6
-0.70103552314559803 -0.09274011487785383 2.0681992007594623 223 223 255 253.808685 268.738617 6
-1.0564218457018599 0.4868258580130389 1.2364207949657189 51 82 104 56.7337074 438.939728 6
-1.6248985747446403 0.3555059609261681 3.7713511801665911 101 255 56 214.990891 325.472321 6
-1.2489598090921477 0.31438404949636195 2.2791712259211323 126 255 90 170.201126 340.402252 6
0.75178833039498161 0.51420081411431018 1.193206088310959 141 255 102 630.042725 453.869659 6
0.19916010821139762 0.19427588425420619 4.8318834651483904 121 143 255 397.135956 307.556396 6
-0.40215121208203586 0.4150401005525392 1.877242391601925 175 255 142 298.59845 370.262085 6
1.0298069569261656 0.5142855845017642 2.4009406230533843 255 123 139 543.449219 370.262085 6
1.1282148063625994 0.45857932789312678 2.4913097536364353 67 255 28 558.379089 355.332153 6
1.1204844152273805 0.23035257975272305 2.4291075216177545 138 255 108 558.379089 325.472321 6
-1.177952993507692 0.42870039635158058 2.3289076709164025 255 52 61 191.103012 358.318146 6
-0.26608527251134362 0.48862973828122708 1.9636724459053418 255 184 196 331.444275 382.206024 6
-1.2465996170299736 -0.19384527938689616 1.8426722432839515 245 255 241 122.425369 244.850739 6
-0.74526262360757789 -1.1028332726828958 4.9032783954570212 241 255 232 322.486328 206.032928 6
0.30414486821706621 -0.53020812430036512 4.3810034956866506 128 137 147 404.899536 243.656357 7
-0.061244047315584638 0.50468333178146896 1.6383437244221821 237 236 255 369.067719 404.899536 7
-0.60687845370132987 -0.63458280360551556 1.9664197225808824 228 227 255 261.572266 164.826355 7
27.733537389812753 -29.169776220501056 72.518922617235319 228 255 200 526.727722 136.160904 7
-0.43180134765667111 -0.46044878004697853 1.8955189001059689 231 239 255 293.820892 197.074982 7
-1.3506491953886721 -0.19404351275416815 3.162329988643477 105 255 69 218.574081 268.738617 7
-1.3773236942552689 -0.45100516594503881 3.0158744387688934 255 87 106 207.824539 232.906799 7
0.89283680490831707 -0.51924872158246171 3.2970899963754983 255 241 243 487.312714 229.323624 7
-0.65755102595868165 -1.4030464240694984 4.1363091570538257 231 255 199 322.486359 157.659988 7
-0.6364559616038914 -1.8820911237353783 4.5644387033620308 201 223 255 329.65271 128.994537 7
-0.42083476888748317 -0.24835257520817083 1.9084295967592362 239 245 255 293.820892 240.073166 7
-1.3343066971381496 0.18295380808927314 1.8456583263765562 255 135 95 107.495445 333.235901 7
-1.8464264143889002 0.41436272373163646 4.2694709453833575 82 255 53 214.990891 326.069519 7
-1.0706855798897825 0.27298363657940033 1.925200627595788 255 95 111 171.992722 340.402252 7
-1.0942586228559135 0.1887792994772135 2.6729043939464505 112 126 255 229.323624 315.319977 7
-1.0731510325760745 0.38627512991144414 1.5816948529122521 235 236 236 128.994537 379.817261 7
-1.7986990684095607 0.4963323678914669 2.5962341575201329 146 255 184 114.661812 365.484528 7
0.46958667602364734 0.53226863827237225 1.3145684066990801 255 133 145 523.144531 444.314514 7
0.88429259770926427 0.73245377360201724 2.1509329214725241 174 180 190 544.643616 422.81543 7
-1.0501443925320828 0.40256476959577381 1.7853123889817084 203 202 255 161.243179 376.23407 7
1.1403429965538707 0.22889436669684765 2.5404522091250064 141 255 101 558.976318 322.486359 7
-0.28156215361464221 0.50217154368622463 2.0516146913633388 165 178 255 329.65271 379.817261 7
-0.39173248563247709 0.34241988404480161 2.0342944768904201 219 219 220 308.153625 351.151794 7
-0.31887480320184602 0.51959383623564404 1.3432683100734253 115 255 71 286.654541 440.731354 7
-1.270000691915588 -0.83150817441614011 1.8398525948526152 215 227 255 121.828178 118.244995 7
-1.2949586956247403 -0.23856356280082869 1.9404053670723318 242 245 255 125.411354 243.656357 7
