ply
format ascii 1.0
comment Written with hapPLY (https://github.com/nmwsharp/happly)
element vertex 57
property double x
property double y
property double z
property uchar red
property uchar green
property uchar blue
property float ix
property float iy
property uchar octave
end_header
0.063214338165997974 0.178781647031788 1.6186529958620026 255 243 247 399.600006 328.800018 1
-0.68948279128731516 0.78363550291876027 2.6821934731741397 255 167 165 283.680023 400.320007 2
1.5875520291252689 0.83436043201940024 3.4117458564816516 173 190 255 561.600037 381.600006 2
0.071119004473076508 0.19490708377951771 1.789431762741005 243 247 251 400.320007 328.320007 2
-0.87998322030933407 0.80114045543647405 2.6911435823416969 255 177 175 259.200012 402.624023 3
-0.30673931104258667 -0.17835651432521793 0.33569300046394535 58 147 159 32.8320045 84.6720047 3
0.08293670343810744 0.22722050639608016 2.1484144659429791 243 247 251 400.896027 328.320038 3
-0.72870698406916157 0.74690856610581546 2.1012531427617294 107 139 145 252.288025 423.360046 3
-0.27633009080549087 0.78974057082739302 2.2166608192055257 255 66 71 335.232025 426.81604 3
-0.73786443945427527 0.7507230123747366 2.1312489815923463 107 139 145 252.979233 423.014465 4
0.16792452837974214 0.19568315701900274 1.6195309743858752 255 243 248 423.014465 333.84964 4
-0.26099990167249576 0.35144602597196695 0.75956311493456941 255 219 219 255.052841 468.633667 4
0.49086872568323159 0.65616927791877089 1.2515307292587003 95 114 130 532.915283 491.443268 4
-0.21696644525714337 0.77264878177501117 2.8265442421165545 104 109 107 356.659241 393.98407 4
-0.47607013322591829 0.65710866516926414 2.3341822794074325 207 208 206 304.819244 396.057648 4
-0.32764662078794649 0.12721520960352839 0.37258779826017019 157 168 255 45.6192055 418.867249 4
19.797961858435166 -31.084033017992372 57.692353965665937 171 193 218 516.326477 82.9440155 4
-0.72773663602976457 0.82547322262852463 2.7314340358895794 172 172 171 276.203552 405.596222 5
-0.36004025476948609 0.77905933196950805 1.6826904369411588 146 149 255 301.086761 467.80423 5
-0.35880948156336778 0.78164319217433897 1.708277923125042 157 166 255 301.086761 460.339264 5
0.17952437898171114 0.21642201884306878 1.8884586228955857 251 255 244 418.037811 330.946594 5
0.085060910736870055 0.22394551452126144 2.1589675907317094 255 243 247 403.10791 328.458282 5
-0.23900412977918695 0.76223384871118238 1.2565698616889431 255 13 18 311.040039 525.035583 5
-0.25291331971631958 0.78340845356806277 1.3217582964056751 255 24 29 311.040039 512.593994 5
0.38947971279640892 0.70710306573038562 1.3104622811152318 157 255 128 502.640717 495.175751 5
-0.20473152804247352 0.74352611273060143 2.6786347591552691 255 93 99 355.829803 395.642944 5
-0.39239092372983642 0.77119988435203446 1.8719565502074023 255 195 199 303.575073 445.409332 5
-0.29791383237732161 0.82761950812762963 2.2105728900521129 94 255 76 330.946594 432.967743 5
-0.27200193961277774 0.78282674776368921 2.1619459364603841 255 55 58 335.923248 425.502777 5
-0.62744915143566127 0.69918697135540375 2.3586469688780074 137 255 148 286.15683 400.619568 5
-0.53787831416841581 0.748926301694818 2.7007829332237367 202 255 205 306.063416 393.154602 5
0.075752680376103942 0.20352951423011789 1.8476451350851404 243 247 251 400.121918 328.458313 6
-9.7751369563470192e-05 0.27912448942652479 1.3380530784496205 238 245 255 385.192017 367.276093 6
-0.51166752049320419 0.74560712358984427 2.669862395159905 202 255 205 310.542389 394.149963 6
0.024822316163672919 0.59226550518704268 1.023344318447168 255 156 157 391.163971 513.589355 6
-0.68196754109214508 0.75857934101918323 2.6692653499898764 255 167 165 283.668549 400.121918 6
-0.73892439007017829 0.62004954751873864 2.1938226430108116 255 195 195 259.78067 394.149963 6
28.018622052429073 -28.226940389898985 70.436016388803807 229 255 204 534.491211 134.369308 6
-0.24442598557451056 0.78039618206508088 1.2991803734036091 255 27 35 307.556396 516.575317 6
2.3961732090649872 1.2479056235608506 5.1007047405617403 255 150 168 567.337097 385.192017 6
0.1777060049685284 0.2809380520093181 1.3171554098418481 255 238 238 435.953735 367.276093 6
-0.45459509886988148 0.67067937799286836 2.3197951554881016 208 209 207 308.153625 394.149963 7
0.35416491307246956 0.69533467331063314 1.1977282490930063 166 255 130 498.062256 505.228607 7
-0.19491746932708587 0.71072439276351673 2.0774709204508923 255 71 76 351.151794 415.649078 7
-0.38064691296806474 0.75749262510998516 1.8456887800274169 194 197 201 304.570435 447.897705 7
-0.50537686139652527 0.91474063701871078 2.4977768849082373 212 214 217 304.570435 433.564972 7
-0.3478326259811082 0.75912882018066075 1.4809966444743088 171 255 147 290.237701 480.146332 7
-0.36763105184695144 0.75736883438092173 1.6602470174786141 176 173 171 300.987244 469.39679 7
-0.87397354946047656 0.80368247859030584 3.0983521365863904 255 165 151 275.904999 390.566803 7
0.50480178560056332 0.61930977948462473 1.8314760555575766 255 157 170 487.312714 419.232239 7
0.089278834650920125 0.22994172689640568 2.0609270532221409 248 251 255 397.733154 333.235901 7
0.14031975956793019 0.25001743433636769 2.3443722479009708 247 251 255 401.316345 329.65271 7
0.020601528633437782 0.55808002161095915 0.95131242986614506 165 255 167 390.566803 505.228607 7
-0.86529960991241506 0.73712851388543976 2.6735668984318099 194 190 255 257.989075 394.149963 7
-0.19847514210489203 0.74315705274752686 2.6705521540579245 94 255 77 354.734985 397.733154 7
-0.35574699893838213 0.75389012678180256 2.3736915631634847 82 255 75 326.069519 408.482697 7
0.20917256140949991 0.29349074383944584 1.5458152748270511 239 245 255 433.564972 365.484528 7
