ply
format ascii 1.0
comment Written with hapPLY (https://github.com/nmwsharp/happly)
element vertex 102
property double x
property double y
property double z
property uchar red
property uchar green
property uchar blue
property float ix
property float iy
property uchar octave
end_header
0.96852370833740986 0.42052742849537295 1.2672422029718218 255 69 81 679 415 0
-2.3941894634383871 -1.5735685719555408 3.8183911415943452 214 255 190 142 130 0
0.39753629784903843 0.28535649659129947 0.57589084001681956 212 210 255 649 478 0
-2.292250054674378 -1.1257339618021474 3.6648534089513873 226 255 213 142 169 0
-2.1134555636849233 -0.66311121223989644 3.6572943140631682 255 226 230 163 220 0
-2.1568629948762474 -1.0844844088997412 3.7093794426959912 208 215 225 160 175 0
-2.0735203288258002 -1.2003917307223224 3.6029244026212428 255 195 206 163 160 0
0.29190858245282131 0.42638895861558718 0.69832832366485875 207 211 209 544 523 0
-2.1488509041456334 -2.2819620099524012 6.8337225147439451 255 185 201 263 160 0
-2.1620916757422322 -0.27943691502021967 3.66631527187484 238 240 255 157 259 0
-2.1730806108450631 -1.6140859370161293 3.7481016503410456 255 195 203 163 124 0
-1.9508225712026968 -2.053523766210585 6.2149765632440577 218 255 182 262.800018 159.600006 1
-2.0683034846785127 -1.3402482566504184 3.7170179032796224 255 189 201 171.600006 151.200012 1
0.23222471800214084 -0.05832470740537847 1.1381102703179209 145 255 122 462.000031 267.600006 1
-2.2912446480143611 -2.3255245383712349 3.7269554747183347 101 135 179 148.800003 49.2000008 1
1.2146029806187544 0.16730898267285269 1.4007468516368202 255 101 108 715.200012 333.600006 1
0.50789004128455384 0.22178134682189443 0.66921101457038357 71 90 255 673.200012 415.200012 1
0.14867343654570364 -0.25169838349542439 1.1673825301234591 233 255 221 430.800018 204.000015 1
0.14852942915854228 -0.29506581673248761 1.1729554727027649 217 228 255 433.200012 189.600006 1
-2.0740437072160014 0.092148765566335444 4.4765491735750391 255 70 89 207.600006 295.200012 1
1.556366382015034 0.37706801368351928 2.7518535778888928 108 130 255 601.200012 339.600006 1
-1.553527349201234 -0.7493406097135773 3.657449317431761 255 68 87 219.600006 208.800003 1
-2.2853706351107692 -0.97938492129190147 3.6529313492447089 225 231 255 141.600006 184.800003 1
-2.309523590495103 -0.37345134466684593 3.6878637125044582 233 235 239 144 249.600006 1
1.15718801902376 -0.15362435389692874 1.5897309053257034 134 147 255 661.200012 252.000015 1
1.0094557451715647 -0.9118776569455016 3.3972079743011325 255 214 220 499.200012 184.800003 1
1.1188491961471956 -0.42847524031170464 3.4160173242129757 114 255 64 510.000031 241.200012 1
0.27577580532414747 0.35938288114235639 0.7113462857267443 255 209 213 535.200012 482.400024 1
-2.0413036015449473 -0.23875036289798218 3.6814795031743888 255 238 239 171.360001 264.960022 2
1.1422136904032114 -0.80793687718095164 3.5007533877322987 213 226 255 509.76001 198.720001 2
1.3445157575716156 -0.12852547037689144 1.464186512250182 240 242 255 737.280029 254.880005 2
1.2107930981766128 -0.083142014120538579 1.3966329571751954 243 255 241 714.240051 264.960022 2
1.5250315609206373 0.17828433171807434 4.1894903175449372 255 94 107 527.040039 303.840027 2
-2.2761004013055492 -1.5168365184316772 3.6464892629383767 214 255 190 142.560013 129.600006 2
0.1462536801037756 -0.2468396138647061 1.1392408359084576 233 255 221 430.560028 204.480011 2
0.23775053471581198 0.27619697316539749 0.76530898191387386 214 213 255 505.440033 429.120026 2
-1.2550950537762144 0.059132366291362204 2.7659087941785074 255 70 89 207.360016 295.200012 2
0.24808245811898055 0.28191195240645983 0.92026240212280896 213 255 211 486.720032 403.200012 2
-2.1523541083315387 -1.0955267019661603 3.6909256124400169 255 207 215 159.840012 174.240005 2
-2.320104900801983 -2.2054370071219518 3.7858012294990275 150 187 255 149.76001 63.3600006 2
-2.1527142874243479 -1.6030568890167602 3.7067898801648846 214 255 193 162.720001 122.400002 2
-2.3318468595941222 -1.8776382723322245 3.8091578523489718 150 171 199 148.320007 97.9200058 2
0.23711703352330249 -0.52536519955353755 1.2005610048603563 255 168 185 459.360016 120.960007 2
1.3442144138654939 0.10403691478673477 1.4611805765235428 152 255 205 738.720032 318.240021 2
1.1206401529491059 0.086784615410206795 1.5625179762353598 255 65 78 659.52002 309.600006 2
0.44579852761430061 0.38974001943351311 1.7843209720364062 255 71 76 479.52002 371.52002 2
-2.4611970453853149 0.16483476557079407 3.7854200653274259 228 255 223 134.784012 302.400024 3
-2.187255302361947 0.098462815314717789 4.0819832697247422 237 242 255 177.984024 297.216034 3
-1.4494156156219455 -0.84796645313303498 4.0068227556300453 197 199 255 245.376022 209.088013 3
-2.300444899913777 -2.113974757783355 3.6960713845036812 152 188 255 145.152008 67.3920059 3
1.069500794650573 -0.12556789557438766 1.4730498633001177 115 129 141 660.096069 255.744019 3
0.26495045772534948 -0.41618193332242365 1.1893311458638303 216 255 176 470.016052 152.064011 3
1.1142641294886857 0.087823617768190559 1.5496589081972871 95 255 52 658.368042 309.312042 3
1.2015365903945123 0.36444581807605453 1.4792484258289185 84 96 116 696.384094 383.616028 3
0.12721269358080134 0.18615626417624831 0.74995149795334537 36 46 255 449.280029 381.888031 3
-1.9998458677216213 -2.0760785382037894 6.334753346485658 255 192 204 263.347229 161.740829 4
-1.6587433446188671 -0.20432433243771081 3.7553535860526588 61 81 255 213.580826 267.494446 4
-1.4330531014904579 -0.59809678698131918 3.7126324508584707 218 219 219 236.390427 226.02243 4
-2.2020135214551964 -1.1343972098803841 3.7520470238769299 255 205 213 159.667221 172.108826 4
-1.9958056449704644 -1.8610967392705369 3.5897385661651993 195 255 140 170.035217 89.1648102 4
-2.2631290750276127 -1.8461644562376538 3.701178948494793 166 198 255 149.299225 95.3856125 4
-2.2890067123308802 -2.1910069993662793 3.7342919361438729 150 186 255 149.299225 62.2080078 4
-2.0848356590391335 -1.3387820755655322 3.750170671110844 188 201 217 172.108826 151.372818 4
-2.3749698108067845 -1.8383810380599583 3.7933925205149794 180 203 255 145.152023 103.680016 4
0.14396640473415723 -0.25417769133468582 1.1687090105227431 255 223 228 431.308868 205.286423 4
1.6043884398710591 -0.17055714892582213 4.4584918406767891 56 93 120 520.473694 269.568024 4
0.24649017850386357 -0.49384626332188264 1.1741240594425006 168 185 209 464.48645 124.416016 4
-2.5499272236363901 0.16941705627347553 3.9221722937343886 228 255 223 134.784012 302.745636 4
1.1190843542253581 0.074760863983384968 1.5753481215908061 68 85 255 657.331299 308.966431 4
1.1674896124903804 0.34413405820256565 1.6515557988408298 85 102 255 657.331299 364.953644 4
-2.2065641007099401 -1.1357481969976848 3.7554059875838175 255 204 213 159.252502 171.694107 5
1.1359158729594228 -0.78905228574953301 3.4777024001072263 120 151 177 512.593994 199.065628 5
1.146009491163936 -0.13707601858578305 1.6093514674549176 127 139 255 661.893188 256.296997 5
1.244362699654626 0.050480263534618201 1.4311924808579242 255 236 239 719.124573 298.59845 5
0.14648407547444964 -0.26009564225316228 1.1945580163330014 255 218 224 435.456055 204.042267 5
0.24202169626280334 -0.51158081051297866 1.1938172168376349 187 209 255 465.315918 126.904335 5
0.046080760327496639 -0.5113336521401064 1.2049156621682919 148 175 206 400.619568 126.904335 5
-2.1809775291590192 -0.35148878266618666 3.5448688586350361 238 255 233 146.810898 248.832031 5
0.86119109232275637 0.1750543659093946 2.4421960182807885 131 255 96 522.547302 313.528351 5
0.1440910708547819 -0.25719902824231344 1.1555378092506459 216 223 232 432.967773 203.046951 6
0.14439645563554937 -0.29679523427197141 1.1559243449147032 210 219 229 432.967773 191.103012 6
-2.2759976916383953 -1.1338289119171727 3.6636807031730103 255 213 218 143.327255 170.201126 6
1.1266669041929787 -0.79391609188894785 3.4414012645892731 201 255 204 510.603363 200.060959 6
1.1096623404077151 0.06691951435522267 1.5933322343080354 59 73 90 656.916626 307.556396 6
0.011996236492467283 -0.45776879749036942 1.2367357431670778 211 255 164 394.149963 143.327255 6
-2.1091997868357359 -1.9599618585839003 4.0424164327751342 192 255 150 182.145065 101.523476 6
-2.3450368596150022 -1.9183542120976975 3.8074662769707528 166 198 255 149.299225 95.551506 6
0.87518099435692287 -0.25192409312130803 3.0946716740340912 94 126 163 492.687439 256.794678 6
0.1299216294530664 0.016342211094771131 0.90103088540887777 115 255 83 438.939728 295.612457 6
-2.1731145764552386 -0.26363287794300627 3.9172936425874036 240 255 237 170.201126 259.78067 6
-2.1727004632290683 -0.35148406895508727 3.5615118078920598 236 239 255 149.299225 250.822708 6
1.1383332774411854 -0.13260201571513083 1.5817555866492725 255 113 126 659.30542 257.989075 7
1.1072654391538832 0.077077580695435757 1.5612416857779858 255 69 81 655.722229 304.570435 7
1.2083608283382095 -0.20724599098189381 3.5083323603764707 255 55 103 515.978149 257.989075 7
1.0987973022362072 -0.76642156005709339 3.3871767535512638 206 216 227 508.811798 200.658173 7
0.26980865414774746 0.17617304565894665 2.049368049520452 124 255 122 426.398621 318.903168 7
-2.0787149657437713 -0.45763791056927083 4.2394754762407887 99 117 255 193.491806 240.073166 7
-3.0106094310809133 0.18322742055172431 4.5270324383092309 233 237 242 128.994537 297.404083 7
0.24021654213164056 0.28092012166852542 0.77153145673169499 214 213 255 505.228607 429.981781 7
1.6243163369964126 0.13818350893531517 4.3267783057037974 129 255 95 526.727722 300.987244 7
-1.5119344033257964 -0.70448638456233625 3.5505892880737671 107 255 59 218.574081 211.407715 7
-2.2128787938533341 -1.1399018210973022 3.7571143394504376 213 224 255 157.659988 171.992722 7
