ply
format ascii 1.0
comment Written with hapPLY (https://github.com/nmwsharp/happly)
element vertex 128
property double x
property double y
property double z
property uchar red
property uchar green
property uchar blue
property float ix
property float iy
property uchar octave
end_header
-2.4295336963571574 -1.8863529975502309 3.8720271501753674 174 200 255 145 100 0
-2.3656606228369466 -0.98101430561842107 3.6919613885776985 222 225 230 136 187 0
0.053287454380968047 -0.28431944543211596 1.1924855556155796 208 218 229 400 196 0
-2.1885435450052197 -1.216720662248806 3.6902501538433548 207 220 255 157 163 0
-2.1531154093480729 -0.42550985299312527 3.639499631441828 234 238 255 157 244 0
0.91367392298606753 -0.91642266617884371 3.4273637483443484 255 65 95 487 186 0
-2.2895792711934129 -0.28941102603289354 3.7720289476659423 255 236 237 151 259 0
0.043109845617289588 0.016266761475852938 0.95303725702764353 206 211 218 400 295 0
1.1031043924418906 -0.18503620408734461 3.5269300726943595 121 255 46 506 268 0
-2.1977740672991191 -2.3388664200195564 3.6550042649518875 255 96 130 151 43 0
1.0254261437999905 0.28471508129370376 1.6062731374725445 86 95 114 628 355 0
1.6642518079949977 0.17998895647811874 4.7821830596273891 143 255 99 518 304 0
-1.4430721188318874 -0.71504008331608693 3.9611171359577559 211 219 226 244 220 0
-0.028155157120233865 -0.53249037757209838 1.2833277704339088 146 173 204 376 127 0
0.053494748038853013 0.25868834194338403 1.0164391605962195 211 255 210 406 385 0
-0.025442675263566583 -0.53057578987317655 1.2719008114540953 255 146 173 375.600006 127.200005 1
-1.6805257047913784 -0.59982717740806268 3.786550862474221 145 255 86 214.800003 225.600006 1
0.012592772420680687 0.39145854105899358 0.57551626052576144 207 205 255 393.600006 547.200012 1
1.0155556854405681 -0.430005504115682 3.4035097927347433 145 255 66 498.000031 241.200012 1
1.1202893999288375 -0.085043550637762297 1.4569067693325617 255 240 240 679.200012 265.200012 1
-2.2539551439007055 -1.6130302105636762 3.7854561106352267 199 205 216 156 123.600006 1
-0.032419526400553345 0.12761865879332079 0.2090651448780409 206 205 255 325.200012 523.200012 1
-1.6364013725004005 -1.5049977767629015 5.7732169380411422 219 228 255 273.600006 189.600006 1
1.1185916052349003 0.16464894763658311 1.4503485115074617 255 62 76 679.200012 331.200012 1
-2.32401812458364 -2.1389518214206484 3.7109090969173812 123 149 186 144 67.2000046 1
-2.0199375843182694 -2.0373735789844112 6.2031367989873925 217 255 179 258 160.800003 1
1.0472191409976539 -0.81575143594825417 3.5511189689483502 255 66 103 499.200012 198.000015 1
-1.6360864188041857 -0.75154819875387069 3.6951539906030879 98 119 255 213.600006 207.600006 1
0.51821445265147903 0.2364897929743035 0.64135994045082922 38 38 255 693.600037 430.800018 1
1.5751850973734585 -0.18627744507779986 4.7766898189065214 255 50 86 511.200012 272.400024 1
-2.4133205712673416 0.15969624638388741 3.6769435059378583 216 225 255 129.600006 303.600006 1
0.05472027873105878 -0.25309075105991957 1.2267931077719165 255 212 221 399.600006 207.600006 1
-2.2688719785417626 -2.5135008775542298 3.747288717180953 255 96 129 151.200012 31.2000008 1
0.35356973268409186 0.38653328797583608 1.8277530385487957 96 113 255 457.200012 367.200012 1
1.6036110144211142 0.16243880948126349 4.5701813430718401 112 132 255 517.200012 303.600006 1
-2.2895792711934129 -0.28941102603289354 3.7720289476659423 255 236 237 151.200012 259.200012 1
-2.361645537418537 -0.37478104780767602 3.6905749745543761 238 255 232 138 249.600006 1
1.0497318380494736 -0.81265942919715473 3.5592756231612328 132 255 66 498.240021 198.720001 2
-1.346717978849798 -0.6724238665644019 3.6360297280102736 255 211 216 243.360016 218.880005 2
0.20024569007791249 0.41886533071003795 0.75061251073776947 255 177 183 483.840027 502.560028 2
-2.2604944254540253 -1.0958069175617831 3.7789983609326634 226 255 212 154.080002 177.12001 2
-2.3630356029595019 -1.1304224328215158 3.7025571164542619 255 215 219 139.680008 171.360001 2
0.6439080881997632 0.41475047434554735 1.5069932448956522 75 93 255 545.76001 391.680023 2
0.24103656117133754 0.26744803058312816 1.2755444408530892 84 96 113 456.480011 367.200012 2
-1.4461456697456798 -0.57383928589746436 3.6201576751973135 216 218 217 228.960007 226.080002 2
-2.2784944419227426 -0.93236461523048508 3.8138576579883807 255 223 226 155.520004 194.400009 2
-0.02930764385780682 -0.53407083045423076 1.2830226215206415 255 148 174 375.840027 126.720001 2
-2.1634166578885337 -1.3470141610551436 3.7755606412617579 187 200 216 164.160004 151.200012 2
-2.2691724539062688 -1.6242754493332621 3.7940956319484078 255 200 206 155.520004 123.840004 2
-2.3041565262013579 -1.8017054196980338 3.6725576309714141 199 255 156 142.560013 99.3600006 2
0.89411725919515828 -0.90179899175447664 3.3673695422281313 123 255 64 486.720032 187.200012 2
1.2657074831417625 0.097884438221115977 1.5366973923841503 133 141 255 701.280029 315.360016 2
0.4689016800954523 0.20772883372097684 0.65016869744264105 41 47 70 660.096069 409.536041 3
-1.9996459444590293 -0.23243809084342687 4.2909646229983327 255 43 63 207.360016 267.840027 3
-2.36597900288892 -1.1388829217885128 3.7152074344112194 255 215 219 139.968018 171.072021 3
-2.4945226907317299 -2.4709763046043594 3.8999589052183508 255 98 132 139.968018 46.6560059 3
-1.9265827355777323 -1.5121466736893132 3.0908882712822963 255 153 172 143.424011 98.4960098 3
0.98888238178444909 -0.12996027481327782 1.5508153891896799 61 68 77 628.992065 255.744019 3
0.57005527298597736 -0.56192666175852279 3.4190049768109714 229 236 255 445.824036 228.096024 3
0.14589017373954194 -0.51851381344403635 1.2277671981742013 205 255 151 426.81604 126.144012 3
0.052304674319304412 0.37248322172526227 0.99550277126826558 210 255 208 406.080048 432.000031 3
0.18681391839599892 0.35371703125237625 0.75853780464613141 177 185 183 476.92804 466.560059 3
1.1157529020215711 0.042748707213091264 1.4411989250064869 255 52 71 679.104065 297.216034 3
1.1089742769824831 0.3604044553117845 1.5372930748276568 97 118 255 661.824036 378.432037 3
-2.0697800731857394 -0.23512358103971637 3.6435291992548611 238 240 255 165.888031 263.347229 4
-2.4387772030691566 0.15507525729268787 3.6961733500868288 222 217 226 128.563217 302.745636 4
-1.514924572592967 -0.60066080385186527 3.7499996557772324 216 218 217 228.096039 226.02243 4
-2.2899226040166192 -1.139211955011477 3.8003036600737778 215 224 255 153.446426 174.182419 4
-2.3953800917237338 -2.1328202819062354 3.7437312706906245 185 255 117 138.931213 70.5024109 4
-2.2196509959776254 -2.0733024850639699 3.5666704887852858 255 125 149 143.078415 64.2816086 4
-2.3548197099968919 -1.8486335324812757 3.7540842014921405 255 152 171 143.078415 97.4592133 4
1.2758018023400579 -0.038398697737545062 1.5643772868125547 243 255 240 698.803284 277.862427 4
1.3298078529221602 -0.1409858468315851 1.6356928845776724 239 240 242 700.876892 255.052841 4
0.050022792614164757 -0.25592186969709885 1.2282165110385777 231 255 213 402.278442 207.360031 4
0.71336877266836307 -0.81114474371494905 3.1397125952916554 202 212 224 472.780853 188.697632 4
0.041383427877985657 -0.036315910876191862 1.3226552197842403 233 234 236 400.204865 275.788849 4
0.049597264165454069 0.37541232032371924 1.0109971577674215 208 212 210 404.352051 433.382446 4
1.2877043694613519 0.098395545449524682 1.5690142337410757 123 133 142 700.876892 315.187256 4
-2.6552864108509167 0.16708157412107358 4.0003499550859356 219 228 255 129.392654 301.086761 5
-2.3544107930146181 -1.1654990882864555 3.8877536002175077 255 211 216 151.787537 174.182419 5
-0.037580006327922799 -0.54070593845926429 1.2926127270158312 255 152 175 375.736359 124.416016 5
0.17385423219961776 -0.4178123346984528 1.2467549865712142 201 218 255 437.944397 159.252502 5
0.15277925821751059 -0.52319923888303355 1.2644723714761472 152 176 206 432.967743 129.392654 5
0.048535533485683624 -0.27449306894746672 1.3231397700636993 255 212 221 403.10791 206.530594 5
1.2633924930333285 0.089727440777232589 1.5184929135719674 136 155 255 701.70636 313.528351 5
1.1618708720046902 0.047259492422341252 1.5093198297772916 50 66 255 681.799805 298.59845 5
1.035210979683475 -0.8003417020190885 3.508344880807126 61 94 122 500.152405 199.065628 5
0.87867653936019119 -0.86741045528503169 3.2553765627855573 255 66 103 487.710785 191.600662 5
1.1096287794879602 -0.1958740069969101 3.5428868060770817 100 126 255 505.129028 266.250275 5
0.84698765062339665 -0.28886481281822096 3.5340064757628862 53 99 129 480.245819 256.296997 5
1.0290531986742539 -0.11736876473856364 1.491256352565232 255 32 44 651.939941 258.785309 5
0.045324056826061998 0.42423920027264667 0.86898459293309283 255 207 211 403.10791 475.269196 5
-2.3394703086613973 -0.28776654930091694 4.0932481502896483 240 255 237 166.717468 261.273651 5
-2.260194168183721 -0.35525015889287237 3.5835713250413535 255 231 234 139.345947 248.832031 5
0.44854182681502475 0.15717199576160576 2.3951946865266196 95 117 255 457.850952 313.528351 5
0.74175545135336618 0.1652682982899126 2.3781850877964126 134 255 99 502.640717 313.528351 5
1.0221317320777297 0.072474622040297421 1.6194592338589862 77 90 110 624.56842 303.575073 5
1.0461873614133235 -0.13533130890399295 1.6403190891292216 34 38 46 632.033386 256.296997 5
-2.4462035784531553 -1.9284997443858953 3.873025270957096 171 198 255 141.834259 97.0444946 5
-2.1021761059926876 -1.4598708101022693 3.6643930015801733 185 197 213 164.229156 137.355286 6
-2.2355410307657504 -1.1168878361840182 3.7132362983787748 209 215 224 152.285217 173.187103 6
-0.014976006721739821 -0.57776649178724038 1.2879312673008101 255 144 169 379.220032 113.467415 6
1.1999978673524769 0.081669935926733467 1.4325273353579298 136 155 255 701.70636 313.528381 6
1.0642750281023123 -0.82672430550960707 3.6465441281161262 125 255 63 498.659424 200.060959 6
0.054677796186079819 -0.25637078331419688 1.2019275182791735 211 220 231 400.121918 206.032928 6
1.1069176898351436 -0.19495029473765735 3.5363102269045847 52 103 129 504.631378 265.752625 6
-2.184422145187122 -1.9536514166656032 4.0690659375991043 143 162 188 176.173096 104.50946 6
1.2491034876363645 -0.056637351219841828 1.5245502075830217 243 255 241 698.720398 268.738617 6
0.041821010886567533 0.015857929788451297 0.94289205772869855 166 178 255 397.135956 295.612457 6
0.1511768108556909 0.41408105879433821 0.74446956198085745 187 191 185 456.855652 501.645416 6
0.12739430457239975 0.42094680249179095 0.83150915469880882 198 202 199 444.911713 480.7435 6
1.2689512284211071 0.33273940313192318 1.5267568417544701 208 205 255 701.70636 376.23407 6
-2.5173244857502697 -0.39324926325468407 3.9725426366085461 255 232 234 143.327255 250.822708 6
1.0221317320777297 0.072474622040297421 1.6194592338589862 77 91 110 624.070801 304.570435 6
-2.9550252831863828 0.17494833140840235 4.3869857683662596 223 219 228 128.397339 301.584442 6
0.2274702226711568 0.29368851268290064 0.76864179352064432 126 136 147 492.687439 438.939728 6
-0.026279803169171889 0.12799620060090561 0.27532770870783096 209 208 255 349.360199 471.785553 6
1.0547520749554768 -0.14008054154201938 1.6731012101778799 46 255 34 630.042725 256.794678 6
0.035942317158937587 0.017916849388503256 0.94725047671252161 153 255 113 394.149963 297.404083 7
0.056252910048905869 -0.29439322411626845 1.1990753947822503 215 227 255 401.316345 193.491806 7
1.1113314068136755 -0.21156816295189218 3.539414136622371 96 121 255 501.645416 261.572266 7
-1.936705393455854 -0.41426183400284078 3.8909196023444137 111 255 75 186.325439 247.239532 7
1.0057919704577232 0.073971954655055544 1.5901378463662599 255 88 100 623.473572 304.570435 7
0.76245521307234165 0.39814789478198687 1.1224431057761834 210 212 213 644.972717 422.81543 7
1.4997012340356388 0.11780724674303107 4.1722759188914198 255 148 155 515.978149 297.404083 7
0.90031768301823711 -0.83579996835617321 3.3085068129210273 255 65 105 487.312714 193.491806 7
-0.019194879871103243 -0.546058123676192 1.2567515422430451 255 145 169 379.817261 114.661812 7
-2.2478854733174209 -1.1042384958051763 3.7189645173398302 224 255 208 150.493622 171.992722 7
