ply
format ascii 1.0
comment Written with hapPLY (https://github.com/nmwsharp/happly)
element vertex 168
property double x
property double y
property double z
property uchar red
property uchar green
property uchar blue
property float ix
property float iy
property uchar octave
end_header
-0.44371073202239009 -0.38018319184794691 1.1070868795324502 217 230 255 229 157 0
-0.47355330012103902 0.086261018912486498 7.8671500555044425 113 133 255 361 292 0
-0.95011028471636738 0.22607556396760592 2.0190367849454978 124 136 255 205 331 0
2.4105322238399558 -0.038338631853664151 2.565629284509245 140 176 255 745 280 0
0.37205037367510974 0.45076025267651554 0.97502258965592237 255 177 177 531.600037 468.000031 1
-0.10090289860938695 0.51750933890015016 1.4196307491323368 255 23 48 355.200012 427.200012 1
1.2865184362015332 -0.25060790389415255 1.8356236994346693 255 119 158 651.600037 235.200012 1
-0.94703230227172019 -0.77106153341852157 1.1902892031784034 255 54 71 79.2000046 39.6000023 1
0.66328673708566122 0.56020770002919607 3.3297869869587728 176 255 137 462.000031 354 1
-0.42699137083872474 -0.36681264994282337 1.0652367905758391 217 230 255 229.200012 157.200012 1
-0.50735948425170063 -0.5070539119596611 1.271840225084941 210 226 255 229.200012 135.600006 1
1.1017369950937188 -0.70249313030762894 2.1280658019243885 255 228 231 583.200012 163.200012 1
2.4552152252951069 -0.047309489514907654 2.625573594800418 61 141 176 744 279.600006 1
1.3671640484377847 -0.061849283011116335 1.8625971171144498 106 143 186 664.800049 274.800018 1
0.44446424702362175 -0.51536029843084508 3.7658800499827141 255 137 158 427.200012 235.200012 1
0.36772410077552853 0.35864820418943022 0.53942516668558138 220 219 215 648 543.600037 1
-1.0361009452404035 0.13844222761188513 1.2138530115054471 117 255 81 54.7200012 334.080017 2
0.18432121619789488 0.52444676620397579 1.0107642322671633 176 177 173 456.480011 485.280029 2
-0.96710617187965608 -0.40118233406944293 1.2193253248575346 80 101 126 76.3199997 162.720001 2
-0.57251659187374848 -1.4067029205026291 3.7153725793388324 165 255 114 326.880005 144 2
1.1255636357946583 -0.46781855723846133 2.6497142506425879 230 236 242 548.640015 220.320007 2
-0.99092698975094473 -0.066575113747145337 1.2241449313565393 113 135 255 73.4400024 266.400024 2
-0.23734015431077893 0.37205210739120803 1.1596472534388629 255 52 80 303.840027 408.960022 2
-1.013683146933269 -0.63910423824029383 1.1863302809366054 52 81 112 56.1600037 80.6399994 2
-0.94972382770694619 0.40849351677376278 1.2501766313512608 20 4 255 89.2800064 414.720032 2
-0.92148694937921194 0.34612757333517608 1.209610583143633 4 255 0 90.7200012 397.440002 2
-0.94703230227172019 -0.77106153341852157 1.1902892031784034 255 52 68 79.2000046 40.3199997 2
1.4069450917315232 -0.066422185098659658 1.9253725515547666 255 110 143 663.840027 275.040009 2
0.52508253636534552 -0.62641999721789665 3.6422559339368945 255 113 142 439.200012 220.320007 2
-0.37468281514988533 0.26110519544594529 1.1732536854750766 236 255 236 262.080017 374.400024 2
-0.9556762246982764 0.1600156742112443 1.1978353554112506 255 29 50 79.2000046 339.840027 2
0.3644405374307218 0.35179344634055193 0.5300338565708187 220 220 215 648 544.320007 2
1.1493964410775632 0.45067098409428791 1.8967185846605563 126 143 168 616.320007 380.160004 2
-0.53239890077945962 0.48444186666862282 0.90963334099278548 255 142 157 159.840012 492.480011 2
-0.99292431814140292 0.3371544624949786 1.1552126567533429 255 13 26 55.2960052 397.440033 3
-0.89280199903112445 -1.9180145487048952 3.8905458045526604 255 168 191 295.488037 95.0400085 3
0.89311768117924784 -0.33071991450606303 2.7526879418401498 239 242 245 504.57605 241.920029 3
-0.54407652961185571 -1.3812379343607513 3.5770105119451028 165 255 113 326.592041 143.424011 3
-0.91433266775727207 0.47782047637821101 1.3910048085794515 46 42 255 129.600006 418.176025 3
-0.39744145836386835 -0.10703583826860436 1.0578992332138295 106 134 255 241.920029 248.832031 3
-1.0075800042887888 -0.34992449864243758 1.2822251355908185 255 63 80 79.4880066 183.168015 3
-1.5944383036138583 -0.52579805382331823 3.0432252577813301 227 255 227 186.624023 222.912018 3
-0.93429754037429324 -0.60344287186700563 1.1613118868494383 66 95 255 77.7600098 88.128006 3
-0.93439700326641395 -0.53497253180873017 1.1678698954143143 255 38 61 79.4880066 110.59201 3
1.3613679675863173 -0.26397051416785144 1.9797017558224628 158 197 255 649.728088 235.008026 3
1.3571473898119544 -0.065997582149941225 1.8436419100803265 255 108 143 663.552063 274.752014 3
1.1284614939296138 -0.36314158518958695 2.4308382552221248 255 237 240 559.87207 229.82402 3
-0.96211931460245692 0.02020019517919755 1.150679699129991 255 53 78 63.9360046 293.76004 3
-1.0336286593213728 0.24087598334085991 2.2267628783517566 255 106 109 203.904022 331.776031 3
-0.96745116959546262 0.30514600968302141 1.2887843398585455 22 0 255 93.3120117 378.432037 3
1.1405547037941637 0.44836584297592708 1.8931343742043207 255 124 141 615.16803 380.160034 3
1.1559548426282393 0.56548876774583978 2.0149968896487493 85 80 255 605.491272 398.131256 4
-0.6906473300477316 0.21327836917269161 1.6146442635294713 255 161 173 223.948837 337.996857 4
1.1405547037941637 0.44836584297592708 1.8931343742043207 255 133 150 615.859314 379.468842 4
1.1118599268993097 0.38380089825853997 1.9158419160803897 255 157 169 607.56488 367.027252 4
1.0791527568636234 0.53156155886249967 2.4658778829062706 255 70 75 551.577698 375.321655 4
-0.37943692910477367 0.41419233175708248 1.0979351195747729 137 146 161 252.979233 429.23526 4
-0.93506973413640448 0.40024168659538584 1.2104036034292984 20 4 255 89.1648102 414.720062 4
-0.91739188814614003 0.47079200137895805 1.3847141069200775 71 72 68 128.563217 418.867249 4
1.1102324977203089 0.35632806329652067 2.1705442943580406 132 149 178 580.608093 354.585663 4
1.1896495034872974 0.23758268052176396 2.4427418889118213 141 255 108 570.240051 321.408051 4
-1.1496725150836626 -0.36250722613153463 2.2310164240168868 227 255 227 186.624023 221.875229 4
-0.98034047275789593 -0.70638847331151366 1.2097094806685269 47 70 99 76.7232132 64.2816086 4
1.3402438959138459 -0.064774714549004686 1.8395416728039224 255 110 143 663.552124 275.788849 4
1.2707486522683671 -0.23792505254988389 1.8291960231445108 158 197 255 649.036865 234.316833 4
-0.35226643737991337 -0.42696015689308464 1.2991231770229006 255 203 217 279.936035 161.740829 4
-0.40899964952701673 0.27546971326909497 1.2973242167558547 255 234 236 263.347229 369.100861 4
0.44170198523068782 0.34144530501381365 0.55424247751118516 210 255 218 686.361694 524.62085 4
1.1088057793267221 -0.63030379452876018 2.121903284036601 235 255 219 582.681702 170.035217 4
-0.55565064230845485 -1.9608051589059818 4.1919278569983289 186 216 255 333.84964 103.680016 4
0.85626546652855517 -0.52040216880650758 2.8436502548241664 238 242 255 497.664062 217.728027 4
-0.51429441935249631 -0.051278737094278465 1.2457611203236096 255 106 116 223.948837 271.641632 4
-0.98876504102861595 -0.15519163294014282 1.2084506657352065 22 28 52 68.4288101 238.464035 4
-1.0495557948370249 0.16931699739101358 1.3046111044506632 88 255 46 78.796814 337.996857 4
-0.16310670294324159 0.01582433000234662 2.8001721316098287 91 113 134 360.806458 292.377655 4
1.2915621575257605 -0.29834255383118713 1.8939381933690171 119 159 198 644.889709 230.169632 4
0.088959306659802895 0.0016004206499855567 5.7228232271028663 117 138 255 389.836853 288.230438 4
-0.95316459147273802 0.013934060887119903 1.5155441935859342 205 205 255 141.004822 292.377655 4
0.029184485496742907 0.53917523177288895 1.0513901644249013 216 215 255 393.98407 487.296082 4
1.1902715743065924 0.40831588987265766 1.6601043866182197 255 84 96 659.404907 383.616058 4
-1.0338402299071277 0.35054867445937521 1.2096140153453305 45 39 255 53.9136086 398.131256 4
-0.53838411676122844 0.48392813358849146 0.91366517914400536 157 177 255 157.593628 491.443268 4
19.160880897365796 -31.298220621872325 59.045310521908846 191 216 255 505.958466 85.0176086 4
1.3392363816347821 -0.74542247390341576 2.2898127214678379 255 217 224 611.712097 159.667221 4
1.2141221644114828 0.45055497266104744 1.6554647669028393 128 255 117 666.869873 393.154602 5
1.0946299695662658 0.35354359042045086 2.1202688861101491 176 255 131 582.266968 353.341492 5
-0.26655826117601444 0.39760814965785107 1.3049188235417093 95 255 42 306.063416 405.596222 5
-0.23357509068784488 0.36974680072727106 1.5183678580496487 255 53 78 323.481659 385.689667 5
0.11972346144289503 0.49661339251334957 1.0263326210995682 194 207 205 432.967743 470.292542 5
-0.96165782567227787 -0.25211902525594343 1.1849145507503529 79 103 255 77.1379318 206.530594 5
0.72612826023605859 -0.26664831827521612 2.2590415928632579 255 239 242 507.61734 241.367081 5
0.68413867533356587 -0.58148173753491683 3.1027462128564292 243 255 237 470.292542 216.483871 5
-0.98013118676142241 -0.62991716281269727 1.1948015385441382 105 255 59 74.6496124 87.0912094 5
-1.0049372105688441 -0.72313609791429678 1.2441634752248967 108 255 61 74.6496124 62.2080078 5
0.42111578368141767 -0.49335978491956844 3.7027554988872211 255 131 153 427.991089 233.902115 5
-0.32172613042604281 0.28935209851640437 1.446528648073595 160 255 146 298.59845 363.294769 5
-0.58565658508607488 -1.601659354627714 4.1097434323070976 135 160 255 325.969971 141.834259 5
-0.5436865243934923 -1.9126561778910895 4.068054873106659 187 216 255 333.434937 104.509453 5
0.44143681194321682 0.34143153297677731 0.55363446649282677 206 255 213 686.776428 522.547302 5
-0.55271022285917493 -0.044703623103236112 1.3329320887009097 255 106 116 223.948837 271.226929 5
-0.38027197645039434 -0.22365977163587436 1.5436717838597529 236 243 255 293.621796 231.413788 5
-0.15648525400495061 0.49348707462378971 1.2385270269699049 255 42 66 335.923248 445.409332 5
-1.0196259219327697 -0.16101391339364618 1.2476284775092177 28 53 255 69.6729736 238.878754 5
-1.494168897052135 -0.12772297243235869 3.0038568168623208 224 255 223 194.088989 271.226929 5
-1.4855956729822988 -0.4504638339890954 2.9192550300252114 255 226 227 191.600662 228.925476 5
1.3839949400067308 0.11347634892659617 1.855755404212986 172 255 113 674.334839 308.551727 5
-0.91109779303401295 0.46653241805296819 1.3752577703486644 85 79 255 129.392654 415.5495 5
-0.53677593440684035 0.47582769201193065 1.2667840723076056 130 148 255 221.46051 427.991089 5
-1.0390641685917461 0.13990691888827339 1.2125484177579322 116 255 81 54.7430496 330.946594 5
-1.0293602088360578 -0.72866573344334973 1.2678538171539104 255 58 82 71.6636276 62.705677 6
31.076424660211341 -30.994274824091661 60.806842099707843 151 181 213 576.295044 86.5935516 6
-1.0426833857672126 -0.20267729532008788 1.2803788014086366 34 42 70 68.6776428 223.948837 6
1.2441220772240196 -0.44045123377638173 1.9018593560999095 255 225 232 639.000671 203.046951 6
0.93764394873407919 -0.36149244387720691 3.0384390754496096 239 242 245 504.631378 238.878769 6
-0.32538599537923618 -0.29627378392932147 1.3291957165550632 231 238 255 289.640503 200.060959 6
-0.98062178991477333 -0.55956437901372991 1.1951595285879453 255 38 63 71.6636276 110.48143 6
-1.3723378264647383 -0.10087734644719465 2.7932417375941938 224 255 223 194.088989 271.724609 6
1.2492712127044907 -0.67477030369422775 2.15884941799494 218 232 255 609.140869 167.215134 6
-0.58807246776544142 -1.4082157706248664 3.6640038012508835 132 156 255 325.472321 140.341278 6
-0.9472385033586197 -0.0053455934562068042 1.2729478944184511 74 255 28 98.5374908 286.65451 6
-1.0542309658289177 -0.11755612415145933 1.2498264780419879 72 95 121 56.7337074 250.822708 6
1.1535665872018384 -0.16166999008360278 1.9043390627787842 175 255 109 618.098816 256.794678 6
1.0986578871115174 -0.35812779374897907 2.2943755225591724 240 244 255 561.365112 229.920807 6
0.86857426879308697 -0.53542130404504396 2.9144201608970794 255 234 238 495.673431 217.976868 6
-0.55271022285917493 -0.044703623103236112 1.3329320887009097 255 106 116 223.948837 271.724609 6
1.3096732536222975 -0.090543364748920996 1.8187174297379469 129 152 181 656.916626 268.738617 6
1.3669680968827518 0.18542100864741098 1.6581050668325306 109 129 159 704.692383 325.472321 6
1.3454782636741696 0.11576632036190021 1.7804913428795377 255 104 131 671.846497 310.542389 6
-0.89082275466091909 0.020722069424151057 1.2173308924688024 255 57 70 107.495445 292.626495 6
0.3328637589209873 0.32258352041700322 4.3393707333789546 255 153 165 415.051849 316.514374 6
-0.21985004902080885 0.22528210212648109 2.5640453184112824 117 136 255 349.360199 316.514374 6
-0.53157487603944542 0.44083333246455814 1.0091522112930242 232 255 231 182.145065 459.841614 6
1.0929189109026018 0.28664470787290475 1.6085650555398434 120 143 255 641.986694 355.332153 6
0.11293843076512533 0.50658946262648308 0.86495345110384081 218 215 255 429.981781 510.603363 6
-0.64965291000827863 0.56618130259219734 1.5549004832072182 133 151 255 217.976868 429.981781 6
-1.1534504089621231 0.37167236312679758 2.1370158631111789 211 213 214 176.173096 355.332153 6
-1.0124411854998487 0.2386968880623685 2.1466151533639186 89 94 111 200.060959 334.430267 6
1.0890033844295801 0.43587057240489469 1.8335412020885169 174 255 131 618.098816 379.220032 6
1.3124424057097279 0.60729211594134225 2.9558510064622325 96 255 79 558.379089 367.276093 6
-0.27427227629404705 0.40491623430569579 1.357358139900863 46 71 96 304.570435 406.093903 6
-0.14832385062069631 0.57300016544147525 1.3251767301218877 176 179 179 340.402252 453.869659 6
-0.96431586697146709 0.41641954460461295 1.2671470174752764 9 255 13 86.5935516 415.051849 6
0.42111578368141767 -0.49335978491956844 3.7027554988872211 177 255 140 426.995789 235.892776 6
-1.0021794096082233 -0.092875724828733797 1.2194539728041871 61 82 106 68.080452 257.989075 7
-0.31593519991265318 -0.41680002919279291 1.2435787734731032 215 230 255 293.820892 161.243179 7
1.2507011953935558 -0.22588621572727902 1.8160670050693284 115 156 196 648.555847 240.073166 7
-0.56756723311853374 -0.05402222979928531 1.3475571539904907 136 255 110 222.157257 268.738617 7
-0.93618321731856469 0.018568712849918401 1.3075483846431948 255 57 70 107.495445 293.820892 7
-0.28777726840600071 0.45379024907518795 1.1879637037468891 156 255 121 290.237701 440.731354 7
0.30806705452214023 0.27911623830864729 3.669632290575346 153 167 167 412.065887 315.319977 7
-1.0124411854998487 0.2386968880623685 2.1466151533639186 90 94 112 200.658173 333.235901 7
-0.76862699948905044 0.12984243858136479 1.3470463948578053 204 207 207 164.826355 322.486359 7
-0.14463515717725284 0.5584196353651858 1.3007750581238549 71 76 76 340.402252 451.480896 7
-0.22788556561211548 0.36185463213903279 1.1492888271744754 43 70 95 308.153625 404.899536 7
-0.89202068167924775 0.38963146351271694 1.1485695540661003 13 0 255 85.9963608 419.232239 7
-0.53698412324364009 0.46011099866712568 1.0487678126522852 230 255 229 182.742264 458.647247 7
0.080359345604858134 0.41375581595305017 2.1488315790171244 132 159 255 397.733154 358.318176 7
-0.29086084697358361 0.24981963704303592 1.2854648867984024 164 171 255 297.404083 369.067719 7
-0.5969866249883431 0.15229791987697522 1.4371056717020338 122 255 106 222.157257 326.069519 7
1.097332711422808 -0.67814845196485041 2.1112573857248949 223 228 236 580.475403 168.409531 7
0.97334038446785842 -0.42638882326656447 3.1810826645527461 241 245 255 505.228607 236.48999 7
0.41873566325995171 -0.48749658520742978 3.8445293943758143 173 255 136 426.398621 236.48999 7
1.0104927016280301 -0.47519685532501443 2.5233182360633224 242 255 231 530.310852 218.574081 7
0.73628719990760771 -0.66087401203727281 3.546790562044305 237 255 225 462.230438 218.574081 7
-0.99742891912047416 -0.6380385320271118 1.2222251365327277 255 50 72 71.6636353 85.9963608 7
-0.5436865243934923 -1.9126561778910895 4.068054873106659 186 216 255 333.235901 103.91227 7
-0.62114473406002269 -1.3470649961440313 2.6442384888479245 191 217 255 293.820892 100.329086 7
-1.0426833857672126 -0.20267729532008788 1.2803788014086366 24 31 52 68.080452 225.740448 7
