ply
format ascii 1.0
comment Written with hapPLY (https://github.com/nmwsharp/happly)
element vertex 141
property double x
property double y
property double z
property uchar red
property uchar green
property uchar blue
property float ix
property float iy
property uchar octave
end_header
-0.14577208887199089 -0.53289488441141086 1.3276542804704514 255 143 171 343 133 0
-0.037430282493281286 0.060547083985451777 1.2263621620480876 88 110 255 373 307 0
-2.5390019457888924 -2.2232136992989551 3.9142396902055951 112 142 181 136 70 0
-2.3056995066769845 -0.675867394395676 3.7484405658941098 224 228 233 148 220 0
-0.10151955414290581 0.3770233905278868 0.61358334781384671 255 151 159 319 523 0
-2.5931154950048265 -1.1124399108464911 3.9006513500968882 230 255 223 130 178 0
-0.060780307793718236 -0.2843190363264802 1.2225349945924817 94 120 144 364 199 0
0.035816951035646416 0.419086525852776 0.60359461747419929 115 255 81 406 556 0
-2.2774298567073039 -1.3503324789314224 3.7145747233432078 255 190 200 147 148 0
-2.3594965892599475 -1.6084569936899298 3.8258499768083452 191 199 212 148 127 0
-2.3916182358412326 -0.29239313910285408 3.8118384644392722 239 255 235 142 259 0
0.85941412873905776 0.39882222818371788 0.96869439282479308 59 60 82 724 445 0
0.9855422728494323 -0.18450809506204593 3.5816408279021452 115 255 28 490 268 0
-2.6908310197665823 0.16623099685569098 3.952955267379874 212 198 206 124 304 0
-1.8192730163457735 -0.7804185072810893 3.8789447457533299 196 199 255 205.200012 208.800003 1
-2.2385315390148661 -1.3266332265597545 3.6459446755676583 255 190 200 147.600006 147.600006 1
0.23757785470140536 0.21305149362245557 1.6568118727294503 178 188 197 436.800018 337.200012 1
0.97136743418668825 -0.10067441063097599 1.5092233266512012 255 32 46 631.200012 261.600006 1
-2.4804115885667315 -0.38129338627040621 3.753861519769905 233 237 255 129.600006 250.800003 1
-2.3110149756960991 -1.0729392289487283 3.7514399564583369 219 226 255 145.200012 177.600006 1
-2.4202120420113427 -1.1106877629063687 3.6864940348801865 222 228 255 129.600006 171.600006 1
0.98595895777236087 -0.18515505590443929 3.5847515829211063 116 255 28 490.800018 267.600006 1
-2.4250456941957137 -2.2758281553492465 3.7484171956172134 133 176 255 133.200012 55.2000008 1
-0.050095251385869122 -0.29260696017299359 1.2351695950208581 83 114 139 368.400024 198.000015 1
0.53219921492892686 -0.2450637627133867 3.6131284610331025 122 255 72 442.800018 261.600006 1
-2.3945898863684807 -0.30714389429351108 3.6302503783893676 238 255 234 130.800003 255.600006 1
-0.088638365415229958 0.4188393837632321 0.73845895414713636 183 255 185 338.400024 505.200012 1
-0.14315256144349642 -0.53154404544261391 1.3160569994889995 255 143 171 343.200012 133.200012 1
-2.4601685410640566 -1.833255926181611 3.7905724995002017 255 159 175 135.600006 103.200005 1
0.79091344080752013 -0.8936468527886513 3.4289648686398881 255 40 96 471.600006 186 1
0.45890515793768838 -0.56596586426982309 3.4588124161416847 255 173 187 435.600006 226.800003 1
0.88220855638932849 0.080538949850933045 1.6056840530956846 98 255 77 594 307.200012 1
1.3871713946624835 -0.17234588227932429 4.5314278819113394 85 112 255 501.120026 273.600006 2
0.89333006973253637 -0.14661727624881341 1.0231768570014472 230 236 255 717.120056 233.280014 2
-2.0633478036197546 -1.9779240435079135 6.0903924876075584 187 200 217 252.000015 162.720001 2
0.027806789981287383 -0.51686849540223656 1.2688705847778212 170 203 255 393.120026 132.480011 2
-0.062360441107558007 0.3577181304633813 1.0191606448492081 193 199 194 360 421.920013 2
-0.05494588683831958 -0.63350002918415549 1.3771582111666831 255 142 167 367.200012 112.320007 2
0.84830808639675248 0.32275342062706336 1.6227154900900036 255 115 123 583.200012 361.440002 2
0.39342822556646206 0.22752248667092725 0.68418459081667538 128 255 94 606.240051 416.160004 2
-2.9562129291299026 0.17163467132586296 4.2983078029092754 213 255 214 122.400002 303.840027 2
1.1953004879142526 0.16205362630465947 3.9688703455309549 98 255 30 502.560028 305.279999 2
1.5956374166656353 0.18838389287727597 5.0264633646751005 27 80 108 508.320007 303.840027 2
-0.069711320938146359 0.40737912457044134 0.87920015295990572 255 174 180 351.360016 468.000031 2
-0.0631797327821354 -0.24935755352189626 1.2327271569030347 255 73 116 367.200012 210.240005 2
-2.3747760429530929 -0.75864194819274255 3.8355221256571723 231 255 220 146.880005 211.680008 2
-0.14634385405948691 -0.5339536640569007 1.3258777017730168 203 255 142 342.720001 132.480011 2
-2.6285902623223789 -2.2905922113619597 4.0426572968078691 255 110 140 135.360001 69.1200027 2
-2.4837874452477338 -1.8674307296694683 3.8352538865150749 255 157 174 135.360001 102.240005 2
0.77062408429334028 -0.88502356856832542 3.3651140466222222 130 255 38 470.880005 185.76001 2
0.93584880276857541 -0.82091739658938656 3.6369718420073505 255 26 68 483.840027 204.480011 2
0.45273400154228166 -0.57454922185707669 3.5204756716983443 201 255 215 434.880005 227.520004 2
0.87186022474471936 0.3258485764523813 0.95581294633283953 255 89 99 735.840027 417.600006 2
0.064194153062079706 0.40226180933127043 0.80612174517103052 81 93 115 412.992035 478.656036 3
0.018472705727295646 0.38606771201322027 0.8093455616465095 55 69 92 392.256042 473.472046 3
0.34488722367335334 0.19949745865212121 0.69450412162127728 94 124 255 577.152039 399.16803 3
1.131358158876155 0.36667440869508483 2.6615814962439357 89 122 128 544.320068 340.416046 3
-0.15383500942634598 0.085503737428699988 0.63305512277821829 129 148 157 292.032013 340.416046 3
-2.5006875568258708 -1.1500303621000723 3.8026013649394459 255 219 221 131.328018 171.072021 3
-2.2379714365506715 -0.24244769656302609 3.7785436432984505 238 240 255 157.248016 262.656036 3
-0.15942222765031944 -0.50908509902232046 1.29316884337604 146 173 205 336.960022 136.512009 3
-2.4309084031442243 -1.6559466769372655 3.9223942732180834 212 255 191 146.88002 126.144012 3
0.93181745807554262 -0.1432807891300894 1.7226808930075657 118 131 138 592.704041 255.744019 3
0.9240378831264453 -0.15152495345654576 1.0715769880882919 230 236 255 717.120056 233.280029 3
0.46978615286733005 -0.93870994364219862 3.5691434384444123 255 173 187 435.456055 188.35202 3
0.90502559956786288 -0.89489083925046464 3.3691955350487595 87 123 255 485.568054 183.168015 3
-0.074480375891995521 0.41378564668241496 0.89928197497378826 166 174 167 352.512024 463.104034 3
-0.15588021358803394 0.035831335459188381 0.63574599897190176 28 54 76 292.032013 309.312042 3
0.84649685365428728 0.39478594241127024 0.95799562395429771 88 255 64 722.304077 444.096039 3
0.31477932489949856 0.26092225863734447 0.41356776425778685 119 140 255 677.376038 527.040039 3
0.89303842724181115 0.080658435417639077 1.6321368579972895 86 97 115 592.704041 305.856018 3
0.23273989633361369 0.37695979785316197 1.8401587420339489 177 185 190 432.000031 364.608032 3
1.5247791162505617 0.17120282461620667 4.7774443320276871 82 110 255 501.811279 302.745636 4
-1.8102468448364673 -0.7738178892263976 3.8738008440960305 197 200 255 205.286423 209.433624 4
-1.9322083778728434 -0.20965272150496633 3.3338677181241216 238 240 255 157.593628 263.347229 4
-2.5755613998896858 -2.4510461159325745 3.9200423514180818 173 255 96 130.636826 49.766407 4
0.92780318636385462 -0.14209494435511355 1.7100181508942767 124 132 255 593.049683 257.126434 4
0.89492758864978872 -0.14554511413903665 1.0245934955444156 230 236 255 717.465698 234.316833 4
0.45915192084504558 -0.91235793070963278 3.4916228716161979 255 173 187 435.456055 188.697632 4
0.97109666755801383 -0.19022548836559197 3.4690631306266906 89 120 255 489.369659 267.494446 4
-0.07734254612066338 0.41786098410383876 0.91151858549158238 166 173 167 352.512054 464.48645 4
0.8574468430175044 0.39544313140771897 0.97091624232883 69 88 255 721.612915 443.750458 4
0.88854215544787851 0.068121381501010519 1.6355673095786807 121 255 96 590.976074 304.819244 4
0.98926558495521733 0.4022436134819703 1.5068765701975197 88 255 72 638.668884 389.836853 4
1.0043989570737311 0.39809083102172754 1.4696008829897345 182 255 175 646.963318 389.836853 4
0.30791612900197496 0.13453770436635373 2.1439473187721272 255 197 197 435.456055 313.113647 4
-0.069545884714522277 -0.25915915837330833 1.2744362938673148 123 149 255 365.783081 209.018906 5
-2.4168762802646815 -1.1478477488449135 3.8780801795049546 212 216 224 144.322586 174.182419 5
0.76036328764120664 -0.86924436601096078 3.3046542533909276 48 89 121 472.780853 189.11235 5
0.98935971515323495 -0.19378115536537033 3.5916103087166125 116 255 28 490.199097 266.250275 5
0.91882406238366088 -0.14114764042769579 1.6852935630351591 123 255 110 594.708557 256.296997 5
-2.6135736621935233 -1.9674576517844491 4.0076694487808711 197 255 153 134.369293 99.532814 5
-2.5754917336250904 -2.452930126862686 3.9167589156057128 255 95 129 131.880981 47.2780876 5
-0.087597942865965339 0.0085539128480495025 1.030737248405849 255 84 99 355.829803 293.621796 5
-1.7772214864523725 -0.64633767998265246 4.0935068635729852 215 215 255 221.46051 226.437149 5
0.88103083204854893 0.064253284548545536 1.6149260176962745 85 97 115 592.220215 303.575073 5
0.92799056973142258 -0.15021515953734227 1.0745300718086592 255 226 230 719.124573 233.902115 5
1.2307156072075314 0.47287458342763766 1.7756267997448569 200 255 197 654.428223 390.66629 5
0.90420671072040015 0.067459520453101551 1.0422422886435276 255 195 143 719.124573 316.016693 5
1.0897361466858182 0.069309577700853456 1.484657172002785 86 105 120 664.381531 311.040039 5
-0.14029739101162142 0.11697460265623175 0.32131198753822549 199 195 255 213.995544 432.967743 5
1.2379552321841945 0.10753033819608214 3.6439534268824092 255 22 84 515.082336 301.086761 5
0.98935971515323495 -0.19378115536537033 3.5916103087166125 90 120 255 489.701477 265.752625 6
0.91938546753484662 -0.80365724439529318 3.5737544074905165 255 23 61 483.729492 203.046951 6
0.8005096335377373 -0.85930985301421525 3.4445311776875505 255 55 91 471.785553 191.103012 6
-0.059550595803765427 -0.25717858500966712 1.2331941171549037 97 125 150 364.290131 209.018921 6
-1.6939915203851741 -0.73170887706589582 3.6425371699089775 199 255 194 206.032928 209.018921 6
-2.3075655410489446 -1.1020711520759949 3.7135964691767418 255 211 216 143.327255 173.187103 6
-0.078885241670144546 0.012060604007269229 0.98213585599458075 85 100 120 352.346191 292.626495 6
-0.13199294142589346 -0.57585334436742053 1.3305283769875629 198 255 138 346.374207 119.439384 6
-0.16859328201932777 -0.51220785405116898 1.3128409405150012 174 205 255 337.41626 137.355286 6
1.2194122425500189 0.47324554488376613 1.7932399790884315 208 255 208 650.944641 391.163971 6
0.91882406238366088 -0.14114764042769579 1.6852935630351591 123 255 110 594.210938 256.794678 6
-0.064181461361900727 0.40247578862111832 0.88549523490771742 166 173 167 352.346191 462.827606 6
-0.063834963720867832 0.35604652854308744 1.0149063709233086 200 195 255 361.304138 421.023834 6
0.93877705553493729 0.33861337755438531 1.5105238498112767 96 115 255 621.084778 373.248077 6
1.0332938301957042 0.072743728156339144 1.4014443110872437 82 255 42 662.88855 310.542389 6
0.32184740937478051 0.12762277539926875 2.3137746359441227 255 197 197 435.953735 313.528381 6
-0.13948814160115375 0.30696319437322384 0.55108361604324818 173 166 255 289.640503 504.631378 6
0.87622762500084383 0.069788070384721873 1.6184667467242615 255 92 104 591.224915 304.570435 6
0.11069850987638963 -0.10361056540185057 1.4354830778991532 241 255 237 418.037842 259.78067 6
0.5370513132407142 -0.28872633905854111 3.5457729720511115 105 133 255 441.92572 256.794678 6
-0.14966005473389488 0.086458197713971119 0.62719083186066582 183 184 255 289.640503 340.402252 6
-0.15130353470178481 0.033481304814708811 0.62923327480057756 53 75 255 289.640503 307.556396 6
0.039653613778986241 -0.48439572766101252 1.2489667680833929 178 206 255 397.135956 140.341278 6
-2.4486496836906038 -2.0705907201111993 3.7015325782354291 109 140 180 128.397339 71.6636276 6
-0.072406818099688297 0.41582914407507271 0.91362727414512501 165 255 160 354.734985 462.230438 7
0.87657098916521259 -0.75245875651953276 3.4096635134609516 38 78 107 480.146332 204.241348 7
0.76433796928339537 -0.831825795158464 3.2911948357768077 52 104 136 472.97998 197.074982 7
0.72825501438483187 -0.27795006881042661 3.5782326011814707 134 255 49 462.230438 254.405899 7
0.91820743621078904 -0.13757719252905498 1.6738554646082453 123 255 110 594.808167 257.989075 7
-2.3641745515563781 -1.1088291454351893 3.7813839334204444 255 214 218 143.327271 175.575897 7
0.8864769724435968 0.06096903558460217 1.6760713717966682 255 78 92 587.641785 300.987244 7
0.98025971851595495 0.3439667118373001 1.602092114665187 255 103 104 619.890442 372.650879 7
0.85281263220636783 0.28183461159390183 1.5811780983488937 255 87 98 587.641785 358.318176 7
-1.9937410346081137 -0.40647688308575997 3.8519404205719794 104 255 64 182.742264 247.239532 7
0.030783854462621163 0.26851992838977901 0.86364323888051231 92 112 255 397.733154 408.482697 7
-0.055279178108569194 0.23657294702952458 1.0194888859268261 201 198 255 361.901337 379.817261 7
-0.15516270390027476 0.3610780713633423 0.62161803617829037 172 255 173 290.237701 505.228607 7
1.001965489124222 -0.21289117829688747 3.6361408233156625 116 255 28 490.895874 265.155426 7
-2.7685672874419112 -2.3190919312211165 4.1769707542178356 109 140 180 128.994537 71.6636353 7
