ply
format ascii 1.0
comment Written with hapPLY (https://github.com/nmwsharp/happly)
element vertex 153
property double x
property double y
property double z
property uchar red
property uchar green
property uchar blue
property float ix
property float iy
property uchar octave
end_header
-1.0620129758241168 -0.089239667142888335 1.5089405095729616 255 68 97 115 265 0
0.18880436335868245 0.2154145032098046 2.7355546302921026 150 164 176 412 319 0
-1.1174218452601803 -0.88050197093649984 1.3199232543237724 204 255 157 58.8000031 33.6000023 1
-0.9321921114494085 -1.9333275303303878 4.1117017863824223 165 191 218 296.400024 105.600006 1
-0.52853065394617449 0.065594146761804195 7.9058196103963638 118 138 255 361.200012 291.600006 1
-1.0688751019743998 -0.44701392739343726 1.5547222303299182 112 255 61 118.800003 175.200012 1
0.24567262617600916 0.4019605383019299 3.1626774600349989 131 147 149 412.800018 337.200012 1
2.3096264810700311 -0.055141935071214343 2.702465442351925 255 80 149 711.600037 279.600006 1
-0.69974615979757493 0.4047410343643254 1.6646563654641917 210 255 214 222.000015 379.200012 1
1.3620478041817163 -0.084916565136548328 2.1687648187198363 185 255 127 626.400024 273.600006 2
1.1096490171979272 0.43242482333367305 2.1317684345761574 125 140 164 584.640015 367.200012 2
-1.0135789462743516 0.21122050501355183 2.3038570760101109 160 165 255 217.440002 325.440002 2
-1.0150679723737763 -0.35552183514047719 1.4582752113392541 85 97 121 116.640007 195.840012 2
-1.246852075334639 -0.18133732445689676 1.5055472429221517 255 241 242 63.3600006 241.920013 2
-1.0403974537226466 -0.97461781281292015 1.4954707351754437 255 48 57 119.520004 36 2
-1.1961833310093946 -0.71567541087687836 1.3998328625539824 202 218 255 57.6000023 93.6000061 2
-1.0043928395869104 -0.57633788960824139 1.4328524166620134 255 46 77 115.200005 135.360001 2
2.3096264810700311 -0.055141935071214343 2.702465442351925 255 80 149 711.360046 279.360016 2
0.43816181504117613 -0.544258785766777 3.9538834498750584 255 134 156 427.680023 237.600006 2
-0.40415758187315687 0.54959661391339476 1.5575217842657749 199 255 160 286.559998 421.920013 2
0.20662877570339044 0.52939501258347377 1.1356885897449689 227 224 255 453.600006 468.000031 2
0.85536554411965637 -0.34730527190262261 2.9895974294447232 240 242 245 492.480042 243.648026 3
0.99391359645029498 -0.49921270347226188 3.1208039084429444 243 255 233 506.304047 224.640015 3
1.3488958821599963 0.10042545141799267 2.0898111803693178 115 137 166 632.448059 309.312042 3
1.1024327073354487 0.43438954747807679 2.1196371217284211 129 144 168 584.064026 366.336029 3
-0.33509657524081193 0.41918089763599808 1.7222064292269881 255 154 167 307.584015 383.616028 3
-1.0076554026511673 -0.4184985319034995 1.432325460279253 86 114 255 117.504013 174.528015 3
-0.48768520423320139 -0.75202769446721929 1.8455606601370418 255 174 200 279.936035 129.600006 3
-0.63534157480209386 -1.44263514875635 4.0047801153022142 209 227 255 321.40802 148.608017 3
-1.2241837162225293 -0.81367643118721156 1.4482350931731518 210 255 159 58.7520065 72.576004 3
-1.0397795297595289 -0.90520466686857315 1.4472009190616517 255 53 63 107.136009 48.3840027 3
-0.96139731001682982 -0.54729214867759257 1.3776254052216079 255 47 78 115.776009 134.784012 3
-1.1035367083633938 -0.68881317133551478 1.4973434367621361 138 255 88 98.4960098 108.864014 3
1.3366941798201804 -0.28316127036229632 2.2302777242992251 155 180 255 613.440063 238.46402 3
0.99894389362139535 -0.48228766018906177 2.8815589858304413 234 238 243 516.672058 222.912018 3
-0.44942770408345067 0.26190402660025325 1.5355620577391451 208 209 255 273.024017 352.512024 3
-0.20673718886083847 0.00094240382792265542 3.0508187703910288 255 96 118 359.424042 290.304016 3
-1.0733963397461164 0.12270858685876562 1.4388822029896788 143 255 107 98.4960098 321.40802 3
-1.0626778673894801 0.33149406067673648 1.4233699682965453 82 98 95 96.7680054 376.704041 3
-1.0540848898005333 0.43134785910290652 1.8934159418787306 255 109 106 167.616013 376.704041 3
-1.0406904220510445 -0.97096056321975177 1.4896291227326022 57 83 255 117.504013 36.288002 3
-0.99568615692373896 0.3899944840429117 1.1121626736584762 255 217 220 39.398407 425.088074 4
-1.0435697659496759 0.36361003214197818 1.836760151685132 255 61 67 163.814423 364.953644 4
-1.0730883231926613 0.34256829018600898 1.6499704313662926 35 255 22 130.636826 367.027252 4
1.0847665367359305 0.41882373295674352 2.0507181607403977 125 140 164 584.75531 367.027252 4
1.9489654231435174 0.19516845253101783 2.2681845227296247 137 173 255 713.318481 321.408051 4
-1.048487751448286 0.22328557254674131 2.3618500728906175 255 143 149 215.654434 325.555237 4
1.0698067018672899 0.50715377173954079 2.4142539969616488 255 54 61 555.724854 369.100861 4
-1.0017774614763653 0.47436591472087497 1.6996654745469817 42 22 255 157.593628 396.057648 4
-1.0175367205499266 0.40113273726258147 1.5127154163008756 19 255 34 126.489616 391.910461 4
-0.37971986085490572 -0.32868533906233766 1.6363724369434474 240 255 223 294.451233 209.433624 4
-0.56981357122207754 -0.064857865985730401 1.5208076732498332 192 255 217 238.464035 271.641632 4
-1.2370704324416044 -0.022690159962474699 1.4665994029694001 244 245 246 60.134407 282.009644 4
-1.0474073845803389 -0.17572418790985278 1.4726905932043297 255 40 44 107.827217 242.611237 4
-1.2197200490535907 -0.1723260291175106 1.4729623262554532 240 242 244 64.2816086 242.611237 4
-1.2059214880640594 -0.72520949595798867 1.4275115163099166 219 255 189 58.0608063 93.3120117 4
0.9955499054669068 -0.42990625512047298 2.573611287488208 234 238 243 528.768066 223.948837 4
0.049493653496508028 0.011102551678661809 5.7768813878709917 115 135 255 385.689667 286.15683 4
-0.18416178524762206 0.55951264777941956 1.5565351264107101 234 235 235 340.070435 425.088074 4
-0.19164752468006219 0.47579259409160934 1.4681352675136385 98 117 255 333.84964 416.793671 4
-0.43190617861825409 0.45155014848021024 0.75296158923879464 255 161 182 167.961624 516.326477 4
-0.35951428078791015 0.27484567219522726 1.6793154050589787 99 110 126 300.672028 348.364838 4
-0.36065830911786012 0.47174183233481015 1.544187480985352 190 255 177 294.451233 408.499268 4
0.32899095190151617 0.33051855272922714 0.73326807242640024 228 225 255 553.651306 460.339264 4
2.4098927215182284 -0.064089058416882894 2.8566929199423488 255 80 149 711.244873 279.936035 4
1.0566823413550304 0.43444273171775338 2.1225281785523284 73 93 255 577.290344 368.271423 5
1.3153728839697414 0.10879441454950131 2.0281598496244762 159 255 107 634.521667 308.551727 5
-0.27245736175430357 0.35691493885366232 1.7581318389159932 84 105 255 325.969971 365.783081 5
-1.1254011941607569 0.33476378584968214 1.5151563857004118 100 102 255 97.0444946 375.736359 5
-0.41096154304237364 -0.67490987201860619 2.7413486001550149 138 156 255 325.969971 194.088989 5
-1.0146212630890301 -0.27498630072964358 1.4228083891827521 115 255 67 114.462738 216.483871 5
-1.1980064704636915 -0.50400815913413144 1.4283138416876482 236 255 229 62.2080078 151.787537 5
-1.0155616435055994 -0.64688698271261025 1.419100557301801 255 51 80 111.974419 114.462738 5
-0.36004512228070418 -0.31113160487378333 1.5527532068512118 223 232 240 296.110107 209.018906 5
0.036270356319104025 -0.01468700872646278 5.6337454703719718 115 135 255 385.689667 286.15683 5
0.36326896367074779 -0.47773500499252641 3.5602799556993991 255 146 161 423.014465 236.390427 5
-1.0975958298432071 -0.94142797940796163 1.5326451371027954 59 85 255 109.486099 49.766407 5
-1.2175871514431265 -0.90692681196253822 1.460872537415987 156 178 206 64.6963272 47.2780876 5
1.0621220599167458 -0.47387583704284997 2.8457035213748556 243 255 233 530.012207 221.46051 5
0.76206099736044308 -0.48219882235116018 2.7753034056550661 238 243 255 485.222473 221.46051 5
-1.053899799758288 -0.17651862495136883 1.4675471020803101 70 255 38 106.997772 241.367081 5
-1.2197200490535907 -0.1723260291175106 1.4729623262554532 240 241 244 64.6963272 241.367081 5
-0.54386044326481198 -0.52945092272738581 1.5548266416177103 230 255 202 246.343719 154.275864 5
-0.59041632345193973 -1.9367718338018904 4.320574935311245 193 219 255 333.434937 114.462738 5
0.89889879466370826 -0.37852946232449902 3.2752391477699945 240 242 245 492.687439 241.367081 5
-0.21030146064758948 0.61655764409885327 1.7858643685178821 222 224 225 340.899902 423.014465 5
0.28469986739426689 0.28986500074969601 4.1399580269707261 175 255 156 410.572845 313.528351 5
-0.38457434778369004 0.28263337564013602 1.8130814349638076 123 135 255 301.086761 348.364838 5
0.31282855703230128 0.50914157351839395 1.0520707759331946 131 147 255 497.664062 472.780853 5
-1.4277084939125158 -0.11655524337123757 3.0554800981939758 213 213 213 204.042267 271.226929 5
-0.94646266268099843 0.38775181951352655 1.3984733651571952 33 42 20 124.416016 390.66629 5
1.1691091695935212 0.43243955201121315 1.8439723090661655 255 31 35 627.056702 378.224701 5
2.445383980676112 -0.064970072347599161 2.9028251682434547 255 81 149 711.659607 278.691895 5
0.041120654602393003 0.39730622345307831 2.3681510804018107 44 67 89 388.177979 349.360199 6
-1.1321127329211684 -0.38721531889680483 1.6182042100009504 101 125 255 113.467415 194.088989 6
-1.2718340405503983 -0.37400004980243229 1.5463029204193206 240 255 237 62.705677 194.088989 6
0.6513052675309583 -0.58586920954396793 3.2703130943755117 154 173 255 453.869659 220.96286 6
-0.32244730945056777 0.43897363269862577 1.3959436687394664 202 255 206 298.59845 409.079895 6
-1.231359262846194 -0.52661960715947131 1.4844500135872232 236 255 228 62.705677 152.285217 6
0.032025407117067139 0.0020467697093311532 5.8783574683028927 115 135 255 385.192017 286.65451 6
0.37574418670735876 -0.50601538751094888 4.0961747556514592 164 161 255 421.023834 235.892776 6
1.0632072477395316 -0.37215523700618536 2.5301301097052473 245 255 238 546.435181 232.906799 6
-0.69686351680019465 -1.0879332894470839 4.5893070256303519 138 156 255 325.472321 194.088989 6
-0.63248321974117161 0.13680059866029026 1.6597748416993974 255 133 135 235.892776 319.500336 6
-0.54770957860112768 -0.53662279384194878 1.559693796641052 202 216 230 244.850739 155.271194 6
-0.52156840183141551 -0.60952103819746251 1.5194831853319735 224 255 181 250.822708 134.369308 6
1.2071028179901808 0.26192599844584447 1.9837399976864454 134 255 77 618.098816 343.388214 6
0.75988182335446242 -0.48897248863822806 2.7436777983387888 255 235 238 483.729492 220.96286 6
-0.58925482188322054 -0.058768959761788642 1.5575870728696972 192 255 217 238.878769 271.724609 6
0.26103671190954003 0.26108108874315838 3.7877040236517194 170 179 255 409.079895 313.528381 6
-0.55684278542100785 -0.46346518684142035 1.5863666161869303 255 225 230 247.836716 173.187103 6
-0.61450115603123034 -1.4085693161518822 3.8349746876486623 255 189 209 319.500336 149.299225 6
-0.59150777274790212 0.46825043669542388 1.1672214610747225 255 226 228 191.103012 438.939728 6
-0.26042014796239021 0.20966217768849593 2.795959412069319 117 137 255 349.360199 313.528381 6
-0.17441426732303067 0.53773074908412022 1.4895308769228697 234 236 235 340.402252 424.009796 6
-0.76286856606022901 0.44800407072102533 1.0093101461495673 255 145 160 95.551506 453.869659 6
-1.126870019787618 0.44970302763971293 1.3146035407236987 114 126 145 56.7337074 415.051849 6
-1.0555989385540601 0.54595351551282367 2.4612128344772692 164 169 172 220.96286 373.248077 6
-1.048487751448286 0.22328557254674131 2.3618500728906175 156 163 167 212.004898 328.458313 6
-0.26453394972029454 0.34910337922188051 1.3837774840832537 172 255 155 310.542389 382.206024 6
-1.0204270589696383 0.34598785006947996 1.6074957520894388 13 13 0 140.341278 373.248077 6
1.2036837921535923 0.51434806205916139 1.92020175053519 255 87 89 627.056763 394.149963 6
-1.0587705673853223 0.031757265967106374 1.5835540349646595 85 110 255 125.411354 292.626495 6
2.356790196514714 -0.062013087916623411 2.793016396540275 255 89 151 707.678345 277.696564 6
-1.0557061563851855 -0.10816622273855248 1.4683417173513345 255 67 89 107.495445 261.572266 7
-1.0761633950702647 -0.21985566809778789 1.4999584347565853 255 46 51 107.495445 240.073166 7
-0.35383369468953907 -0.30301392944094996 1.5295011512068521 233 240 255 293.820892 211.407715 7
-0.34473355742129197 -0.43045563963355837 1.4559002773749299 228 236 255 293.820892 175.575897 7
-0.53047033477016248 -0.44466316132249117 1.53463717073743 255 228 232 247.239532 175.575897 7
-0.34919898594326515 0.23662170383985659 1.5873885093298616 113 138 255 297.404083 351.151794 7
0.27241989732488014 0.24812478582873787 4.4844251380208053 156 170 180 408.482697 311.736786 7
0.84463517634418306 -0.56779545057926273 3.3447623822316128 255 235 238 483.729523 222.157257 7
-0.60546658297452183 -0.0689386728833421 1.5748849981167137 219 221 222 236.48999 268.738617 7
0.032219894564545326 0.55891835866393569 1.2660693279388959 204 255 185 394.149963 465.813599 7
1.3933137374336488 -0.066529309805026721 2.2759057205418829 255 115 148 623.473572 279.488159 7
-0.5444577283324894 -1.8292988907898056 4.0644344201514118 196 220 255 329.65271 118.244995 7
-0.74289963885812504 0.42733912565147536 0.96879883618722262 144 158 178 96.745903 455.064056 7
-0.56474459138373989 0.44774237859308474 1.1064143238559963 166 184 255 189.90863 444.314514 7
1.0609672692287351 -0.6942898195105569 2.3457258720060992 236 255 217 558.976318 182.742264 7
-0.27550676056801482 0.36240674381548299 1.466506169561947 154 167 175 308.153625 383.400421 7
-1.0715824711649526 0.48262270379197081 1.7034582352089753 0 0 0 136.160904 401.316345 7
1.2947479769424097 0.16407905492214073 1.8148864718260418 255 98 138 659.30542 318.903168 7
-0.95469189435624369 0.41721449537607125 1.5936001743547923 42 22 255 157.659988 394.149963 7
1.1577032612872993 0.44449441218476726 1.82803537337072 255 110 112 619.890442 383.400421 7
-0.18978395903003697 0.52643689159311868 1.5777252775003037 210 212 214 340.402252 422.81543 7
0.16837644011925224 0.37785669592814286 1.0882253313077288 184 196 196 440.731354 415.649078 7
-0.99972042098518799 0.2222768542691087 2.2175927953611909 255 164 170 211.407715 329.65271 7
0.93402914056356978 -0.44067491827708039 3.4064185604136989 245 255 240 490.895874 240.073166 7
0.01430081430331942 0.022719329890688589 5.8596158480671683 255 94 116 383.400421 286.654541 7
0.68610150465835584 -0.66156160108185458 3.6983214078825863 255 83 128 451.480896 222.157257 7
-1.0037595340827892 -0.57220060457859301 1.3967192845847469 255 67 92 107.495445 132.577713 7
-1.068217077995083 -0.74671337642492497 1.4959617420897162 255 67 91 111.078629 93.1627197 7
-0.65912493610953327 -1.3620717338167125 2.8603951549335616 193 218 255 297.404083 111.078629 7
