ply
format ascii 1.0
comment Written with hapPLY (https://github.com/nmwsharp/happly)
element vertex 136
property double x
property double y
property double z
property uchar red
property uchar green
property uchar blue
property float ix
property float iy
property uchar octave
end_header
0.45576484625773084 -0.50441881514952525 3.6870895175500893 171 255 128 430 235 0
0.79730016761752109 -0.65637634184891414 3.5024250277276892 236 239 243 472 214 0
1.3789383953930185 -0.053195876611377757 1.7834925485690656 177 255 120 682 277 0
-0.93910365646995597 0.22984396509301019 1.9374533851921578 255 184 185 199 334 0
-0.4941071672416224 -0.5039968766848586 1.1922919680080803 255 177 201 223 127 0
0.13976695068100531 0.0039396575114405419 5.5015675075977395 124 143 255 393.600006 289.200012 1
-1.0228191455419262 0.24493265822885801 2.1450793658927862 255 176 179 199.200012 333.600006 1
0.38336897242764101 0.45512001012835146 0.89396190305551571 255 111 122 547.200012 483.600006 1
-0.93311752585464758 -0.7691853061984697 1.1110036874539508 56 81 255 61.2000008 22.8000011 1
1.2987410332272691 -0.24219796445502428 1.7568900699448937 197 255 117 666 235.200012 1
0.53425236511732832 -0.64397484475634714 3.6787389867652882 117 144 255 441.600006 219.600006 1
-1.0242606719419682 0.14016636023636009 1.1324061253828583 82 105 255 37.4400024 336.960022 2
-0.95405045400134725 -0.39928672368388574 1.1391734172518673 59 83 255 61.920002 151.200012 2
0.1184132945329881 0.034160260317433133 5.2864089382984645 124 143 255 393.120026 289.440002 2
-0.93852298104649812 0.41049514773919715 1.1681763305771407 0 255 28 74.8800049 424.800018 2
1.4186801338210564 -0.05753450147528727 1.8463094923854699 144 175 255 681.120056 276.480011 2
0.53673152165638172 -0.61557959935511408 3.5637843486464451 146 255 79 442.080017 220.320007 2
0.49321918454971758 -0.51359103533385109 3.5229868417603027 155 179 255 437.76001 228.960007 2
1.042319303659818 -0.42113446297528967 2.4551530675212083 236 242 255 545.76001 221.76001 2
-0.52110226552485583 0.4866048226122035 0.82778649626651202 154 175 255 141.12001 514.080017 2
1.1599858068150244 0.4589074244105994 1.8162646422304185 168 255 120 630.720032 385.920013 2
1.1661912942372346 0.57401123315523661 1.9342837020996644 86 255 79 618.624084 402.624023 3
0.67376414585528366 0.72078151366222976 2.535155347025893 223 219 255 485.568054 400.896027 3
0.44634802117587768 -0.49223397980046157 3.5569938731047692 131 152 172 428.544037 235.008026 3
-0.55915812060282422 -1.3981738561820074 3.6378348235736304 255 112 131 323.136017 141.696014 3
1.2128303090801453 0.40392252313201438 1.6203694723216735 125 142 168 672.192078 385.344025 3
2.5658882683781035 1.1491557857408901 5.3696555365554026 112 136 255 565.05603 368.064026 3
-0.91011318322660184 0.34810020217022219 1.1277759509649625 10 255 30 74.3040085 404.352051 3
-1.0000633793664386 -0.63738859398221259 1.106689088512355 55 80 111 36.288002 67.3920059 3
-0.94035046816883971 -0.4822830121691899 1.1258616836485196 37 60 85 60.4800072 126.144012 3
-0.92099831424760348 -0.53312045611583558 1.0880514408589752 72 255 28 58.7520065 100.224007 3
1.36894609920554 -0.057410373134411774 1.7645390862731842 117 144 175 680.832092 276.480042 3
-0.36308971537172763 0.26423190313182987 1.09204325780961 232 232 255 257.472015 380.160034 3
-0.98148714195653675 0.33884050985227954 1.0733428287379603 68 255 16 34.5600052 407.808044 3
0.04024392856051362 0.54293425327389655 0.96985719763985712 204 215 215 400.896027 501.120056 3
0.25115741016693627 0.54580982957943092 0.82301676491135112 133 144 255 501.120056 540.864075 3
1.164319768664809 0.45931389592136684 1.8326139350966502 120 138 167 628.992065 385.344025 3
19.198105578232642 -31.117750499182293 59.051813643588353 169 191 215 508.032043 84.6720047 3
-0.53066654381761458 -1.3729625850984122 3.499436898983852 255 112 131 323.481659 141.004822 4
0.13089863721842465 0.50051990735378915 0.94496856721666989 255 203 214 439.603271 487.296082 4
1.4445973600283726 0.56879197229252121 1.6116728891103547 13 22 255 725.760132 427.161652 4
-0.9499620937388058 0.021947168543408724 1.0695628953323566 87 114 255 45.6192055 296.524841 4
-0.9128635772840652 0.084870152929624076 2.0260338105090074 255 233 237 207.360031 300.672028 4
0.097548195499622681 0.016231564335426274 5.6425594421851812 119 140 255 389.836853 288.230438 4
1.1511521341266449 0.45657405439529608 1.8126788132416412 120 138 167 628.300903 385.689667 4
1.1208192165965292 0.36510558280310346 2.0902757928448104 168 255 121 590.976074 356.659241 4
-0.90339976573948855 0.48022541973961874 1.308872404968898 101 255 86 118.195213 427.161652 4
-0.97642804416983431 -0.6300392142301221 1.5396695364932862 228 228 255 141.004822 126.489616 4
-0.96658713335593838 -0.70454331912291623 1.130249078886008 37 58 88 60.134407 49.766407 4
-0.32125334839541342 -0.29937559553134241 1.2966547159708153 198 255 218 290.304047 194.918427 4
0.90479896546656735 -0.32109240984401821 2.6738274704576321 239 242 245 512.17926 242.611237 4
1.1404693373475854 -0.35372098306421507 2.3522377564384973 245 255 238 570.240051 228.096039 4
0.86830391355635139 -0.51064804642648809 2.765196821070349 238 243 255 501.811279 217.728027 4
-1.0186557565502516 -0.092382000748672866 1.1918206309035146 7 26 49 60.134407 259.200043 4
1.3520431241677533 -0.056235178700594801 1.7604228002852658 175 255 120 678.067322 277.862427 4
1.3735068838083395 -0.25506008881862618 1.9010570933525717 255 117 156 663.552124 236.390427 4
-0.15224330952175924 0.023169372160390944 2.7196867500899389 135 255 93 362.880066 294.451233 4
-0.50205190311937287 -0.048299681006745976 1.1651594073447273 127 146 255 217.728027 271.641632 4
-0.31656004217374756 0.50426643079786837 1.138081349321495 131 153 255 277.862427 460.339264 4
1.2011432634832326 0.41610133672169525 1.579780583900197 255 25 31 675.993713 389.836853 4
0.61816119651398393 0.39621744232883649 1.2436192979743117 216 218 217 576.460876 410.572845 4
1.1225854890670868 0.39199669845350626 1.835512270158012 199 205 255 617.932861 371.174438 4
1.0996762295625593 0.44382527635722968 1.753074146740822 166 255 119 622.080078 385.689667 5
-0.90012695649189212 0.46890855527689612 1.293153906914827 85 88 82 116.951057 425.502777 5
-0.33139411230845273 -0.30952910287682656 1.3303232374524816 255 177 186 291.133484 194.088989 5
-1.0301243934833524 -0.20081342299002536 1.1997109948505718 40 66 255 49.766407 221.46051 5
1.1107621485287438 -0.34908821634211951 2.2157405395776122 239 241 245 572.31366 228.925476 5
0.73805465411076243 -0.25853327824089667 2.1799043641797553 245 255 239 510.105682 241.367081 5
-0.97625680623634103 -0.15337129071145728 1.1277161357011121 26 47 255 49.766407 236.390427 5
-0.99117312221785969 -0.72126733965951928 1.1647222051829349 255 33 56 59.7196884 49.766407 5
-0.52708948401037325 0.4860868146806645 0.83181481266949175 255 139 154 139.345947 512.593994 5
-0.35867055263692826 -0.65355905529325442 2.4306261590558442 94 117 255 325.969971 186.624023 5
0.69611127767424108 -0.57152139166715776 3.0242975566129235 236 239 243 472.780853 213.995544 5
-0.33921716311409122 -0.42348993781694255 1.219512216188225 197 213 229 276.203552 154.275864 5
-0.31041265264312212 0.29322641299385799 1.3652939593733375 103 255 53 298.59845 370.759735 5
-0.63931584790732687 0.42740121609446402 0.76308234144362563 224 255 227 62.2080078 505.129028 5
-1.361201666769388 -0.09628358677718829 2.7120769598822543 255 223 224 191.600662 271.226929 5
1.3215472561987327 -0.082120713573796578 1.7396339155292324 184 255 131 674.334839 271.226929 5
1.3038466470424535 -0.28978695918082109 1.8153181142306725 255 119 158 659.404907 228.925476 5
-0.54055123823249618 -0.041611216547896568 1.2522848868355965 141 255 118 218.972198 271.226929 5
1.1216614140640009 -0.62163615479847578 2.0439026613378006 234 255 217 594.708557 166.717468 5
-0.52946256092551458 -1.9032488612478926 3.9917021537251616 172 192 255 333.434937 102.021133 5
-1.0378568904630141 0.17121907278104564 1.2230824035940029 42 69 255 57.231369 335.923248 5
1.390924841147948 0.15308701284081844 1.7162493627023583 255 62 133 699.218018 320.993317 5
1.2249019535816856 0.45838350297260377 1.575062539079104 176 255 173 686.776428 398.131256 5
-0.92381889359903635 0.40218512510724214 1.1284338823596638 29 34 3 72.161293 425.502777 5
-0.96718890350723719 -0.55775405580245807 1.1153613137278073 46 66 97 56.7337074 98.5374908 6
-0.96653896878372336 -0.6281061873508913 1.1151654921101848 40 63 89 56.7337074 74.6496124 6
-1.4831378698692723 -0.12292076961191167 2.9226576577504026 255 223 224 191.103012 271.724609 6
-0.27933100681717749 0.25339389643563037 1.204345776918351 103 255 53 298.59845 370.262085 6
-0.39753681639009653 0.27880379358851792 1.2160534908882741 233 235 235 256.794678 376.23407 6
-0.54055123823249618 -0.041611216547896568 1.2522848868355965 127 146 255 217.976868 271.724609 6
-0.36787518079345416 -0.21969204361040351 1.4635706379978002 232 239 255 289.640503 229.920807 6
1.3569159076380346 0.12418107633246023 1.7009615773037208 142 171 255 689.762451 316.514374 6
1.1461880860569837 0.55750082378245014 1.5740866847022215 7 16 25 668.860535 426.995789 6
-0.17146128521804194 0.027091527400097126 2.9069183076029814 92 114 135 364.290131 295.612457 6
-0.23026693512391461 -0.52384788589512965 1.1295250579683023 255 135 159 307.556396 110.48143 6
0.31764786478502094 0.28952383476078047 3.5889081638118343 156 171 168 412.065857 316.514374 6
1.2750427097699029 0.2913222081411071 1.7072001717244678 187 255 139 674.83252 355.332153 6
-0.63904984043390378 0.56956124463790081 1.4727718521981359 116 125 142 212.004898 438.939728 6
-0.22250029863652765 0.37398521891452319 1.4370171727417818 98 255 53 322.486328 391.163971 6
-0.87871950492819417 0.022783505245935753 1.1362685721669017 199 201 204 92.5655212 295.612457 6
1.1558096568397289 0.48632864196980863 2.2158031289577833 134 150 174 588.238953 376.23407 6
-0.25537795344731729 0.4012813303820344 1.2234788504486653 255 38 64 307.556396 415.051849 6
-1.0015635703483579 0.24261734760238207 2.0649534964843461 150 255 121 194.088989 334.430267 6
-0.9531462867746554 0.41842711385680453 1.1851170025645383 19 26 0 68.6776428 424.009796 6
31.111538229367277 -30.782798922195948 60.821980322048724 255 152 182 579.281006 92.5655212 6
-0.3126559751094713 -0.29267432268369564 1.249305209447289 226 234 255 289.640503 194.088989 6
-0.20927372466433924 0.23195509686169724 2.4830344954361188 255 92 115 351.151794 318.903168 7
-0.19904097372829344 0.032410421684742508 3.2617868572626243 115 136 255 361.901337 293.820892 7
-0.26314984230598837 0.40869241954034141 1.2758951592835581 38 64 90 304.570435 415.649078 7
-0.5553986778417217 -0.050929784160506086 1.266919692928421 153 255 131 214.990891 268.738617 7
-0.13381548498546914 0.56235831940575953 1.2190608583305105 255 180 183 343.985443 465.813599 7
0.94916922019274874 -0.35110743279280865 2.9596834190326442 239 241 245 508.811798 240.073166 7
-0.46433353262305976 -0.072848983882406015 1.2587417256432034 96 107 131 240.073166 265.155426 7
-0.3028651753864362 -0.41337529182858423 1.1639730894812774 194 255 185 290.237701 150.493622 7
-0.50846491633486535 -0.44467608088765775 1.2818054512480792 215 229 255 225.740448 150.493622 7
-0.50515573035796146 -0.52027294658339196 1.2639874477266564 222 255 178 222.157257 128.994537 7
1.3136435131924502 -0.031500646944996435 1.6741916977204845 147 175 255 677.221313 283.07135 7
1.2628834353208942 -0.21760238095889572 1.7372485106192421 196 255 117 662.888611 240.073166 7
1.3947572890722326 0.12068199342420255 1.7676017292805799 255 65 142 687.970886 315.319977 7
-0.92414615002276701 0.02073483201480375 1.2264551951910776 210 211 255 93.1627197 297.404083 7
-0.52574160002209203 0.47880145570497512 1.1849525453757814 255 123 133 211.407715 440.731354 7
1.1953444099835919 0.30313587569420763 1.581767201821549 165 185 255 673.638123 354.734985 7
0.34181781300284242 0.33458593080600529 4.2585640959977935 156 171 167 412.065887 315.319977 7
-0.95707063883595334 0.24133986628501081 1.9311645502123405 120 134 255 193.491806 336.819061 7
-0.75687313851382365 0.13247784652946626 1.2658285326105321 165 170 255 157.659988 326.069519 7
-0.33976355977428785 0.30446908499364378 1.524407625421742 81 104 255 297.404083 372.650879 7
-0.27755805116741117 0.45680181349752602 0.93758450041192543 161 178 200 268.738617 469.39679 7
-0.2662855379883835 0.4593303041348602 1.1267967667153846 85 255 56 290.237701 451.480896 7
1.2621978229076085 -0.66569972594320947 2.0810610358897321 255 209 220 619.890442 161.243179 7
0.43241651656590796 -0.48261629167580855 3.6238962613776833 170 255 130 426.398621 236.48999 7
0.74808879340711809 -0.64977493321222202 3.4685640305999499 240 243 255 465.813599 214.990891 7
-0.57467000234879606 -1.3998399305869418 3.586457484437326 160 255 114 322.486359 139.74408 7
-0.60707583741019455 -1.3411075336242799 2.566528656781883 193 217 255 293.820892 93.1627197 7
-0.62142234064284185 -1.0431209699575743 4.1802757834993551 108 255 73 322.486359 189.90863 7
