ply
format ascii 1.0
comment Written with hapPLY (https://github.com/nmwsharp/happly)
element vertex 72
property double x
property double y
property double z
property uchar red
property uchar green
property uchar blue
property float ix
property float iy
property uchar octave
end_header
0.13461513580531781 0.12221297784578211 1.2272909431449008 252 255 245 426 325 0
0.50979026653338133 -0.293874773545866 0.72098496335390472 216 232 255 649 133 0
0.48439628721864914 0.62199401315564451 1.4555533035108752 255 152 170 511.200012 451.200012 1
-0.30615444466022979 0.64892468140575099 2.5387348841218405 255 202 214 335.52002 385.920013 2
0.43479371204868 0.67551360935209059 1.0181282313489177 17 21 33 548.640015 545.76001 2
-0.18678461500325572 0.73269292745719294 3.018473805409311 113 255 110 362.880005 381.600006 2
-0.20604821435040588 0.72374259704866883 1.4845474183892593 235 233 255 329.76001 476.640015 2
0.48736125895202642 -0.28276373375066366 0.53180523624950737 255 206 215 735.840027 83.5200043 2
0.54699722612299584 0.61008000541226903 1.3461554762418455 118 147 165 540 463.680023 2
0.45588005420245503 0.58865033106323361 1.3709775144520817 179 255 152 514.944031 452.736053 3
-0.24699816727648027 0.74946418905202927 2.4278674653701469 255 169 174 343.87204 407.808044 3
0.44502543190713939 -0.26600371149862623 0.63401651991741304 231 255 202 646.272034 129.600006 3
-0.37792553249212268 0.69655440337061547 1.1036113956778637 1 105 112 252.288025 530.496033 3
0.58844869185399751 0.66561348224957162 1.4767428802045659 255 127 152 539.136047 463.104034 3
-0.38775236425620729 0.84493957483388371 3.3972043212150513 255 202 214 335.923248 385.689667 4
-0.26081726275009975 0.8130068358237339 2.6181266443563516 187 190 195 344.217651 408.499268 4
0.033612068532271389 0.70087463916886628 1.3130327236086954 30 27 34 396.057648 495.590485 4
0.50726694506408432 -0.21645097009238579 0.67706652554142988 255 217 227 671.846497 165.888031 4
-0.284899149828306 0.64176133925109324 1.6324644533034114 137 157 255 317.260834 435.456055 4
-0.27921759055822193 0.78969121652057828 3.3332962278832134 177 255 196 350.438446 381.54245 4
0.54041721064768944 0.61775596796021737 1.3474555453677226 255 124 152 539.136047 464.48645 4
0.5762606222854918 0.59898333549616778 1.6852349157088327 124 126 135 512.17926 423.014465 4
0.10502133288208659 0.1840096551480197 2.151073715211071 245 249 252 400.204865 319.334442 4
20.058852011246003 -30.927237838358447 58.003817067302926 180 201 223 516.326477 82.9440155 4
-0.20865958190322553 0.70894312763853362 1.4488086608115847 235 235 233 328.458282 475.269196 5
-0.16975531130338783 0.69114584360536924 2.7920851744290118 255 125 132 363.294769 385.689667 5
-0.55378530812942461 0.62545111855978863 2.4247329236062107 182 222 221 296.110107 385.689667 5
0.53123986003150203 -0.3080883719738654 0.75708633519677893 231 255 201 654.428223 129.392654 5
-0.24961032154526253 0.74089919926991676 2.2448258770761438 166 172 184 340.899902 413.061188 5
-0.30015146603899856 0.30329276806492889 0.62195687646667963 136 170 255 201.553955 472.780853 5
-0.16580608490371018 0.67879303612612274 2.7354938986653252 255 112 114 363.294769 380.713013 5
-0.45544386550619675 0.68465192294136923 2.7398441789600856 175 172 169 320.993317 380.713013 5
0.4899008274140686 0.30942450437736446 0.58201093724592567 107 255 73 706.682983 495.175751 5
0.04928469293156823 0.56774874507732886 1.267114136682209 255 95 101 395.642944 457.850952 5
0.51274595776284038 0.61678666115860015 1.5124181839824722 167 181 255 517.570618 442.921021 5
0.520917758869756 0.014835073900390849 0.70054530184929931 255 246 248 671.846497 298.59845 5
0.095846653713091312 0.16623995405626113 1.9111113764768168 245 249 252 400.619568 318.505005 5
0.35122332176814997 0.3918871957741088 1.5726254737333143 165 255 188 470.292542 383.201324 5
-0.34242134668517243 0.76585141411632396 1.8661181148605275 163 181 255 313.528381 450.883667 6
0.51167124179747159 0.73828104760532764 1.6496006964546694 155 173 188 504.631378 462.827606 6
-0.33765613908948033 0.71819948233635333 1.8754218049733469 149 150 170 316.514374 435.953735 6
-0.27584270200767369 0.72996036853932633 2.28627934274318 198 202 255 337.41626 415.051849 6
-0.3178013619238631 0.69191605653033461 2.4520388364522372 188 255 162 334.430267 394.149963 6
-0.34350079098703867 0.51493140068678445 1.972563109018374 255 182 185 319.500336 382.206024 6
-0.21847973700725376 0.73262931268431375 1.5015471418896862 233 230 255 325.472321 477.757538 6
0.52374230539900468 -0.19202634389023054 0.72901987636386067 255 229 235 659.902588 188.117035 6
0.5132086257995343 -0.21970179381890631 0.64194500403606192 231 234 240 692.748413 158.257187 6
0.54477965895192959 -0.3149698429355976 0.72545779609898453 214 230 255 677.818481 119.439384 6
28.34280417770557 -27.904303691953192 70.545239776532881 233 255 210 534.491211 134.369308 6
0.61961285915828435 0.65270657104277929 1.838185717672709 126 135 255 513.589355 424.009796 6
0.49725716766527572 0.79046910407675508 1.5490534107345493 255 147 162 507.617371 489.701477 6
0.025408145301402341 0.24578438175160433 1.5610849786110945 241 246 255 385.192017 349.360199 6
-0.16545611840271235 0.74768627061744075 1.3317522024511472 211 211 208 336.819061 505.228607 7
-0.25720101221149205 0.71021346031395627 1.2873842745268069 224 224 221 308.153625 501.645416 7
0.46717869892369834 0.77037855083360096 1.488925135687035 163 175 255 505.228607 487.312714 7
0.28228265116670048 0.61012472348436053 1.1589568394819016 139 152 173 472.97998 483.729523 7
0.49123253371584896 0.73415677788185962 1.5903417014536361 180 198 255 501.645416 465.813599 7
0.31169460019761641 0.35064079025130845 1.3942631243059038 135 140 255 465.813599 386.983612 7
-0.51892758252980853 -0.23493037249062754 0.92075688227535224 101 112 128 164.826355 189.90863 7
-0.15409801395755318 0.60151961950045107 2.3308541183050977 145 255 153 358.318176 383.400421 7
0.44386933229198222 -0.2629224832983903 0.5723493603898504 214 230 255 677.221313 118.244995 7
0.53123986003150203 -0.3080883719738654 0.75708633519677893 255 201 216 655.722229 128.994537 7
0.49197938023806942 -0.098054969355563237 0.70469556208518291 245 245 248 648.555847 240.073166 7
0.069894997218845623 0.48789503734050621 1.7545315891215072 110 255 118 394.149963 397.733154 7
0.23761219532895472 0.26187285393272264 1.8105538767782727 246 250 255 429.981781 347.568604 7
-0.34350079098703867 0.51493140068678445 1.972563109018374 179 255 178 318.903168 383.400421 7
0.39251466091898557 0.54438699758535503 1.5328036024294489 255 164 174 483.729523 422.81543 7
0.5143519855494576 0.72621099470310302 1.3278932974997666 114 133 255 533.894043 498.062256 7
-0.26905250945989945 0.56344907623280527 1.4355156987963023 255 155 159 315.319977 437.148163 7
-0.55974883507683026 -0.23849854737120824 1.1748854225596528 172 191 255 197.074982 211.407715 7
-0.37588781492446399 -0.13288575117889234 0.59836682199761881 71 255 32 146.910446 204.241348 7
0.04713577648569367 0.70437887284389666 1.3179975357495008 13 28 255 397.733154 490.895874 7
