ply
format ascii 1.0
comment Written with hapPLY (https://github.com/nmwsharp/happly)
element vertex 109
property double x
property double y
property double z
property uchar red
property uchar green
property uchar blue
property float ix
property float iy
property uchar octave
end_header
0.41335933211528664 -0.074976553602307039 2.5925143342954415 114 143 255 445 277 0
0.15608374395869729 0.4146369973331584 2.2974482850888034 255 129 150 411.600006 355.200012 1
0.82883666115908761 0.50809719917241858 1.9704032320203684 255 151 160 543.600037 385.200012 1
0.79021356661500697 -0.24363989545486553 2.388933645172588 247 255 242 510.000031 249.600006 1
1.075720786193858 0.56492494651379943 1.5577092775954879 42 255 13 646.800049 427.200012 1
1.2058812711098275 -0.51162048296305984 2.2027701900448449 222 232 240 596.400024 199.200012 1
0.92519716616925107 0.45227293974331484 1.7092014958890038 153 181 255 589.200012 388.800018 1
0.82406350608666479 0.38347135956960027 2.7179599115262887 152 255 126 502.800018 343.200012 1
0.66256617255013661 0.38598843438406627 2.5831103111249494 109 125 255 481.200012 346.800018 1
-0.37070791745747167 -0.089150509630210151 0.55574069041382934 52 80 101 128.400009 225.600006 1
1.2142741399844528 -0.04243688624429176 1.4650832970098779 255 134 158 703.200012 277.200012 1
1.0401592931009209 -0.011185607620217197 1.9278961909250105 255 125 133 591.840027 285.120026 2
1.1689103809913233 0.31044976057776696 1.4452393619874249 112 130 151 696.960022 370.080017 2
0.49837500684253011 -0.42950698156806189 2.5179733218336722 255 199 212 459.360016 221.76001 2
0.76137815597856062 0.58383484742597003 2.3144994961609484 255 116 129 511.200012 383.040009 2
0.83532201934741312 0.69285788057635844 2.8753404215341316 140 154 171 496.800018 381.600006 2
1.0360390552115137 0.36841371999074168 1.8130246790180049 255 130 149 603.360046 367.200012 2
0.97534863123175319 0.33381924378205408 1.8823788299359405 106 123 143 584.640015 354.240021 2
0.74780133163576279 0.34886934561360528 2.4528102494113444 142 161 255 501.120026 342.720001 2
1.1404520268533154 -0.040263007894490443 1.3649424482364516 188 255 134 702.720032 276.480011 2
0.54275102569217237 -0.41986187983681178 2.8199270649826866 255 214 223 459.648041 229.82402 3
0.60111901522751343 -0.58853545003685037 4.0694534927636878 56 113 144 444.096039 231.552017 3
0.39785816300404075 -0.35340300599958252 1.9998732679517754 200 204 255 457.920044 219.456024 3
1.193637988721991 -0.61518847992125414 1.3423794122760038 201 223 255 725.760071 112.320007 3
1.1958024056153567 -0.67700216725682738 1.4336649763893581 204 223 255 705.024048 108.864014 3
0.70427811850789812 0.58292447446247375 2.4043841932917571 157 175 255 497.664062 380.160034 3
-0.46941288652688185 -1.3487175516648662 2.9688232178705833 255 146 156 319.680023 114.048012 3
0.1723890394017904 0.60973773643959506 2.0056676436038314 175 255 139 414.720032 404.352051 3
0.33462249692814527 0.14197987987853239 4.0274718882542162 187 255 151 414.720032 300.672028 3
0.39199493898556037 0.66077552984459897 2.1520779951432036 187 255 156 454.46405 407.808044 3
0.2207405057548093 0.64007804021006842 1.7627236683094738 31 36 52 432.000031 428.544037 3
-0.39582428406923453 -0.034107094052844622 0.54219199413259611 255 193 199 103.680008 264.384033 3
-0.2527688679752762 -0.029215500399851824 0.52564948381508847 116 136 164 200.448013 267.840027 3
-0.36877559819484151 -0.2731129828105347 0.55148412488814813 255 41 69 127.872009 98.4960098 3
1.1991360469162742 -0.46045439944514654 1.34305629589372 255 205 218 727.488098 153.792007 3
1.1493387326870936 -0.44133899196802906 1.9919141738418586 234 241 255 601.344055 205.286423 4
1.2163838608694941 -0.62708831282600042 1.3739923359111881 201 223 255 725.760132 111.974419 4
1.1892561203415455 -0.41286372117161974 1.870176736606707 228 234 240 628.300903 203.21283 4
0.66344563924402022 0.66262176024330632 1.295530290157183 107 110 109 580.608093 487.296082 4
0.21216080769169876 0.61277628218504687 1.6676625703766819 255 31 38 431.308868 429.23526 4
1.0682320118868891 0.60590853800708899 1.5588271019302429 13 22 255 649.036865 437.529663 4
1.1187021351091482 0.57958387920103838 1.6361242554263011 136 164 255 649.036865 423.014465 4
-0.15468155252156257 0.47956559146388494 2.2754125781031531 160 175 173 360.806458 369.100861 4
0.81490468038976926 -0.27982807443758129 2.4894467044893265 242 244 247 508.032074 248.832031 4
1.1497244349291087 -0.044762977975853269 1.3653134316418214 255 128 153 707.097717 275.788849 4
0.85460664274580167 -0.60541019395098783 2.7553364372434297 234 241 255 501.811279 203.21283 4
-0.33090749594641977 -0.33678748519447199 0.52878001795784968 66 88 255 145.152023 43.5456047 4
-0.25983211329520062 -0.031799373738737591 0.54175510620013245 255 117 137 199.065628 267.494446 4
0.9740468405238385 0.34779154161138925 1.6998516520051092 255 130 149 603.417664 367.027252 4
-0.25478939333716344 -0.24660486363235234 0.53636683765381887 255 105 126 199.065628 109.900818 4
0.76254915523864208 0.57728396475833721 2.3333966013086904 124 137 155 512.593994 383.201324 5
0.16458965590875652 0.64565045867338067 2.1730448290035502 255 142 155 415.5495 405.596222 5
1.1968517428620693 -0.42298386787748765 1.9366539753626864 227 233 240 624.56842 204.042267 5
1.0086218136866432 -0.39136351670368497 1.7307685180461485 255 224 233 607.150146 201.553955 5
1.0732487336211975 0.55381220942105391 1.5646322778203201 144 173 255 649.451599 420.526154 5
0.98389516297884627 0.45635568590285136 1.9169913872358988 147 161 184 584.75531 378.224701 5
-0.51627250332046781 -0.88221059576019556 3.0579642295531348 150 163 177 320.993317 171.694107 5
0.54304054905724319 -0.50497566838348751 2.9210764272871357 204 207 255 457.850952 218.972198 5
19.205457136984499 -31.147251966377624 58.455612196916348 219 255 173 510.105682 84.60289 5
1.0858440035483794 -0.42644887734424153 1.2594086701262235 255 218 226 711.659607 159.252502 5
-0.44252500920094162 -1.8372359283321975 3.2374015451327383 118 255 60 330.946594 69.6729736 5
-0.20991790007163669 -0.24694664051084875 0.53456550607024989 255 112 133 231.413788 109.486099 5
-0.1987152099843783 -0.064756048107435848 0.55069082411934644 166 255 119 246.343719 238.878754 5
1.1648734775342298 0.39754238786876928 1.393153560863909 132 149 174 704.194641 395.642944 5
0.35884752926794983 0.40390590332060916 3.7728785096546247 115 136 158 420.526154 323.481659 5
0.15384622952607252 0.048226724264488319 5.2118092217240406 255 124 143 395.642944 291.133484 5
0.81490468038976926 -0.27982807443758129 2.4894467044893265 255 242 244 507.61734 248.832031 5
1.1206316329486659 -0.52184195015528823 1.9616547423554795 240 255 229 606.154846 191.103012 6
1.0881209119544795 -0.53025953711649909 1.8609631917934282 237 255 217 606.154846 182.145065 6
-0.12259202505348754 0.67032371988039596 1.7711579439495537 150 163 157 352.346191 435.953735 6
0.30472860460255391 0.53636036133146092 1.6557020370263373 175 190 255 453.869659 406.093903 6
-0.41537180827582931 -0.89896842143481615 2.9977545501139113 255 93 106 331.444275 170.201126 6
1.1579899107862941 0.54608813677587675 1.6493471739679704 129 145 169 656.916626 418.037842 6
0.19930448230462572 0.59631267705002811 1.6198606800327333 78 255 69 426.995789 429.981781 6
-0.24696488986732223 -0.24784321276254867 0.51974130422039355 105 126 154 200.060959 110.48143 6
1.0119538488987541 -0.22588658438251452 1.7767539343838639 255 117 133 603.168884 238.878769 6
-0.42719522804578691 -1.8154192210640128 3.1688730247569241 255 91 107 331.444275 68.6776428 6
0.78916517620277826 -0.57807332226894292 2.6276006137645584 234 241 255 501.645416 203.046951 6
0.44494220428914666 0.64518897156364297 1.8739536145798299 111 255 79 474.771545 421.023834 6
-0.26331995579162193 -0.034194196301708057 0.55383876406533172 120 140 168 200.060959 265.752625 6
-0.20940653007260002 -0.02421167100418628 0.49084820137852736 255 115 135 223.948837 265.752625 6
0.55745258802791953 -0.49331165589706649 2.9343604933158787 169 192 199 456.855652 217.976868 6
-0.36078402286851219 0.31479773865937977 0.55052181114439103 255 22 38 131.383316 510.603363 6
-0.49652837621671253 -1.3711522854905738 2.9603145754818563 32 37 255 313.528381 113.467415 6
1.1867829306349236 0.40844705544181081 1.4290971257139544 153 180 255 701.70636 397.135956 6
-0.070437207734700413 0.069736741122256307 1.9230057841863548 169 255 167 370.262085 307.556396 6
0.15855082221532424 0.56819322555927665 2.2812248773616943 255 78 100 415.051849 385.192017 6
1.0529873158081329 0.25123778466290497 1.9204143112819025 131 151 255 597.196899 340.402252 6
0.79382042875316827 -0.28012442684435634 2.3981274720432912 255 241 244 507.617371 244.850739 6
0.49051222394985516 -0.45095212382214422 3.1815849456975336 112 143 255 441.92572 232.906799 6
-0.38924938259420827 -0.028292881676771436 0.53342754821370697 255 195 200 103.91227 265.155426 7
0.32483617144490418 0.59257661506526038 1.7353481472389038 255 95 106 455.064056 422.81543 7
0.19635064408551406 0.6161991681238832 1.7017404473690672 78 255 69 426.398621 429.981781 7
0.080696226203941901 0.73393284514805823 1.8400424082440603 137 158 255 397.733154 444.314514 7
-0.2413361607530935 -0.11462901725359043 0.53758914068734143 255 113 130 211.407715 204.241348 7
0.77567754984391102 -0.28494666811973207 2.3371904841059319 241 243 246 508.811798 243.656357 7
0.53607201419836392 -0.49256297861706855 3.2661752714104084 67 119 149 444.314514 229.323624 7
-0.59823424912654444 -1.039900089699032 3.6609907763772815 147 255 153 322.486359 171.992722 7
0.9837877802205045 -0.51663730824997123 2.4095535374406802 225 233 241 544.643616 204.241348 7
0.80611657614484167 -0.60126801185070822 2.7733959320216153 241 255 227 498.062256 204.241348 7
-0.076002292222190571 0.073810088586904965 1.9551716114908881 178 170 255 369.067719 308.153625 7
-0.52909325186005152 -1.3912276820070089 3.0288273472431602 255 11 16 311.736786 111.078629 7
0.14943302765747468 0.059264553539394055 5.0331606150496135 169 255 128 394.149963 293.820892 7
0.09046006167804066 0.64401368835913486 1.4169259170983306 185 182 180 404.899536 462.230438 7
-0.24559328515390266 0.65235977709436144 3.297206927888003 170 255 127 354.734985 365.484528 7
1.0820994936028019 0.57814460064970774 1.6001921337272584 90 109 255 641.389526 422.81543 7
0.1831719929340232 0.62327439127605566 2.5582621575781488 255 88 108 415.649078 386.983612 7
-0.44808932820683811 -0.24006767631922554 0.54962831000816514 255 206 215 71.6636353 118.244995 7
-0.25213559837893218 -0.24263316915399991 0.52906581604492242 105 125 154 200.658173 111.078629 7
