ply
format ascii 1.0
comment Written with hapPLY (https://github.com/nmwsharp/happly)
element vertex 149
property double x
property double y
property double z
property uchar red
property uchar green
property uchar blue
property float ix
property float iy
property uchar octave
end_header
-2.0107434445346364 -0.89589460389863973 3.4415997807663845 227 231 236 160 187 0
-1.0779102398678093 0.2838697513422343 1.2609539389184816 255 50 75 55 376 0
-1.686299059213483 -0.29760547401738779 2.9294407938960978 239 241 243 164 250 0
-1.6598686825375362 -0.91800564363593629 3.1806392583991032 217 223 232 184 175 0
0.28397570772251934 0.43998337603230026 0.78842811163210902 0 13 255 521 502 0
-1.7541753248830263 -1.7360686323627126 3.2917394078090227 170 204 255 181 85 0
-1.6262271947325093 0.03551512569680542 3.0811387356557045 242 245 255 181 292 0
-1.9380724073741016 -1.3437996241144521 3.3352279355843373 200 210 223 160 133 0
-0.61265781990626067 0.32340452235290273 0.64885084701650309 54 255 34 22 478 0
-1.737905642744487 0.11293271396323216 4.17996875444494 134 255 98 226 298 0
-1.7432872775822905 0.28462146749252043 2.9975565449806858 255 216 212 163 325 0
-1.7334313307314924 -0.08558504341444316 3.3297425622990704 242 243 245 184 277 0
-0.072348885663592544 0.47240509137791042 2.7064885791311575 210 209 207 376 355 0
-1.0487844423245019 -0.43011105237348379 3.403161569469078 222 222 255 265 241 0
-0.18137897897659938 0.36944190952239297 0.60000372310187577 173 175 180 268 523 0
-0.48813676698905617 -0.065579627152355241 6.3575482528707976 85 106 127 352.800018 283.200012 1
-1.7170345076888394 -1.5239057648247962 3.2651593101293903 194 215 255 181.200012 109.200005 1
-1.9104255377457671 -1.5360247759239416 3.2753573465082155 193 203 218 160.800003 109.200005 1
-0.77887172699521834 0.34087623003708994 1.4425052161966496 98 22 255 177.600006 379.200012 1
-0.70192080109210786 0.35933628910401633 0.87364690363738928 194 255 203 74.4000015 445.200012 1
0.48451723652487433 -0.21668444553069752 0.76743753110990931 226 234 255 625.200012 181.200012 1
-0.68854447346175518 0.29260569133092268 0.76627768016960585 255 60 88 39.6000023 436.800018 1
-0.68275702050815301 0.31887562071413478 0.72732425019085256 136 255 98 22.8000011 457.200012 1
-0.07686752113464812 0.47534431879351208 2.7287877530078011 210 255 217 374.400024 355.200012 1
-0.18579132216126237 0.4157292095645157 0.65797903206424824 101 118 145 276 529.200012 1
-0.11865233794786123 0.47186921095759171 2.8369425531993588 255 217 216 367.200012 351.600006 1
-1.7546098187130639 -0.24936386896648743 3.2526355413733308 241 242 244 176.400009 259.200012 1
-1.847521520739992 -0.33444613467414297 3.2048686528493708 255 239 240 163.200012 249.600006 1
0.49940394377584374 -0.0070983200971690627 0.79362481304023302 92 117 255 625.200012 285.600006 1
0.48816738188330722 -0.69913994694409032 3.6083598576569882 255 227 233 435.600006 213.600006 1
0.48459940654345346 -0.34371404360805263 0.76845791186614143 193 215 255 625.200012 117.600006 1
-0.2198903176079281 0.43217929399987776 0.86752268462531479 205 205 255 285.120026 479.52002 2
-2.3506840807327816 -0.28531358675395935 5.3801396950382134 114 134 255 217.440002 267.839996 2
-1.9044311408468428 -0.85200297494158217 3.26469887183837 255 228 231 159.840012 187.200012 2
-1.7557587248199118 -1.0984408256866061 3.3233917064832581 227 255 203 182.880005 159.840012 2
-1.922612943339582 -1.0931550761025466 3.3058010956339783 227 255 205 162.720001 159.840012 2
0.49640747012133435 -0.22229516212855377 0.79711791618054728 234 255 219 626.400024 181.440002 2
-0.17525109094453795 0.43570708712546041 2.1869485370644171 255 131 142 355.680023 364.320007 2
-1.5920564871545135 0.30530754483365136 3.0492873255553832 200 255 189 182.880005 326.880005 2
-1.5014027387043569 0.24409860651113002 2.6083435004732261 206 255 212 162.720001 324 2
-1.7546098187130639 -0.24936386896648743 3.2526355413733308 255 241 242 175.680008 259.200012 2
-1.3619201569937989 -2.2304904141749491 6.6029639812332208 206 224 255 305.279999 156.960007 2
-1.6303456754970953 -0.6753707896384501 3.1090808300399395 229 232 237 180 204.480011 2
-1.5028316472357068 -0.12968269044608277 1.6826682859674165 149 152 148 40.3199997 259.200012 2
-1.847521520739992 -0.33444613467414297 3.2048686528493708 239 241 243 164.160004 250.560013 2
-1.8751787004712122 -1.7775150579069483 3.3053257910735505 255 139 169 167.040009 80.6399994 2
-1.9399430193884206 -1.4900229929018971 3.3380431098112542 255 203 210 159.840012 116.640007 2
0.49771380012958621 -0.18416477962194883 0.79747167960491949 226 231 237 624.960022 197.280014 2
0.49940394377584374 -0.0070983200971690627 0.79362481304023302 75 89 115 624.960022 285.120026 2
0.49961557856379979 -0.35409208501344974 0.79201843878880474 255 175 194 623.52002 118.080002 2
-0.18579132216126237 0.4157292095645157 0.65797903206424824 102 118 145 276.480011 528.480042 2
-0.45887229340948466 0.14588575206741422 1.8334076118060971 200 255 177 286.559998 319.680023 2
-1.5714362620302058 -1.9990891484437618 5.801530074325866 255 210 217 279.360016 154.080002 2
0.51286487341878484 -0.22190685634673363 0.7959475746620317 230 255 202 634.176086 179.712021 3
0.51417888692905311 -0.26314961652050983 0.79289432197023202 226 255 196 634.176086 158.976013 3
-1.6944246889015977 0.11724102301619833 4.0357821251468549 118 135 255 221.184021 298.944031 3
-1.4957906007045656 0.28239505584930819 2.6528472184989971 255 210 201 167.616013 328.320038 3
-1.6457671269201848 -0.21060078018832801 3.2806274972284242 245 255 242 190.080017 264.384033 3
-1.000924608444874 -0.54195661590750555 3.2250893514665995 225 227 227 264.384033 222.912018 3
-1.1629737717634905 -0.55335658918597053 3.2538146531712595 255 92 106 243.648026 222.912018 3
-1.1108344823100396 -0.44496170360172843 3.5450889654190512 221 223 223 264.384033 240.192017 3
-0.65179080639482168 -0.12630827227580285 7.468948157448545 85 106 127 352.512024 283.392029 3
-1.6205507916760493 -0.14000272602066061 1.8128981644815836 255 149 152 39.7440033 259.200012 3
-1.877871953837241 -2.0351848460996544 3.2653626395137874 194 255 117 162.432022 48.3840027 3
0.55868370684088187 -0.81960257703210659 4.3074531869128991 255 227 233 435.456055 212.544022 3
0.58773914705564811 -0.037139017562179008 0.78442898226519908 88 98 115 668.736084 271.296021 3
-1.184500994083816 -0.16143829281657526 3.1867614321402806 105 255 69 238.464035 265.420837 4
-1.5245648971141388 0.11373131904567424 3.6951054610412539 116 134 255 221.875229 300.672028 4
-1.0444018264813453 -0.56062072132823304 3.3078142021103258 255 224 226 263.347229 223.948837 4
-1.0517210901509872 -0.43083590993012905 3.3770316263563993 255 222 223 263.347229 242.611237 4
-1.5581965943870602 -0.19531964428723544 3.1511301205234612 245 255 242 190.771225 263.347229 4
-1.7635724687528542 -0.34302431578523396 3.3140709939606143 238 240 243 180.403229 250.90564 4
-1.7471076169896174 -1.6337493427823602 3.0687615346007595 175 206 255 161.740829 85.0176086 4
-1.7139732443484821 -1.3086965389228764 3.2437639054934939 221 255 197 178.32962 132.710419 4
-1.900226372239195 -1.0967043161852033 3.2966449826930027 215 227 255 161.740829 159.667221 4
-1.7315605229883646 -1.5328559633114109 3.2728953257590732 175 192 214 180.403229 107.827217 4
0.49764454207899278 -0.18589418346570166 0.78693114528891495 236 255 226 626.227295 196.992035 4
0.4995604852896034 -0.22407605933003183 0.79863037460161546 233 255 217 626.227295 180.403229 4
0.54648173322886029 -0.853903014333947 4.5534103993625097 233 239 255 433.382446 213.580826 4
0.40715900336363142 -0.4442768258555147 0.81374435895045516 202 255 126 578.534485 76.7232132 4
0.58797451573489123 -0.49569981898066828 0.84480860524284318 160 199 255 649.036865 62.2080078 4
0.49408166809256637 -0.3525737191138914 0.79560551662565349 170 191 215 624.153687 116.121613 4
-0.21839332951997026 0.40907275106162072 0.98600241427178892 213 214 213 300.672028 449.971252 4
-0.06123987820385679 0.44281245190084562 1.1864390446383419 124 255 98 362.880066 431.308868 4
-0.38900615274950856 0.27853015101955536 0.56763056357234376 79 255 53 118.195213 472.780853 4
-0.17012231992266069 0.28404853763974791 2.6933238908306754 192 201 208 356.659241 331.776062 4
0.042831503346038469 0.4665058134672585 1.0453778580496669 197 197 194 396.057648 462.412872 4
0.61212447187617558 0.037416772264742257 0.78016045266016643 111 137 158 688.435303 306.892853 4
0.39576614852664571 0.17402998810441447 0.84191199706843811 4 10 23 568.166504 369.100861 4
0.22258919208507866 0.46707686271872323 1.7677115620025794 209 212 255 433.382446 387.763245 4
-1.1516261781137391 -1.8792928481452009 5.6442992631960474 191 208 225 304.819244 159.667221 4
-0.049922789814350388 0.46132453153312747 1.1086105355758475 107 255 87 370.759735 450.385986 5
-1.3418476791463312 0.08373808003846224 3.26020118871216 255 101 117 223.948837 298.59845 5
-0.18984607506517248 0.41185630517138089 1.7856859434928558 99 119 255 345.876526 378.224701 5
-0.11133888812695458 0.4520243904855879 2.6511929267122385 207 255 211 370.759735 353.341492 5
-1.7723233906494005 -1.0755753282018334 3.306532256751566 255 204 215 179.159058 161.740829 5
-1.900226372239195 -1.0967043161852033 3.2966449826930027 205 215 227 164.229141 159.252502 5
-1.5524381616613501 -1.9581399237477026 5.7309908756446513 222 255 220 278.691895 154.275864 5
0.50032662886318269 -0.01014835892487384 0.79959465238202765 141 151 255 629.545044 283.668518 5
0.50534959280332381 -0.25796200254558821 0.79124306651580034 255 196 211 627.056702 161.740829 5
-1.8079421566181457 -0.24168600792410722 3.5651349904082625 255 241 242 191.600662 261.273651 5
-1.5052445163419548 -0.44499897810048911 3.3756139573436625 255 112 125 211.507233 241.367081 5
-1.8490375234910914 -0.32708010726328846 3.2362858642336092 239 240 243 164.229141 248.832031 5
-1.5460013818130358 -1.7824284985108794 6.5179536404436318 222 232 255 293.621796 181.647385 5
-1.0215646953965218 -0.41362497516623487 3.2955992394694302 255 222 223 263.761963 241.367081 5
0.62392362259652745 0.038297765619442863 0.78083842687860172 135 156 255 689.264709 306.063416 5
0.31336645180498135 -0.5752462970382819 4.6323855498643765 183 255 140 410.572845 236.390427 5
-0.56342565163560709 0.27236832516779935 0.65630072217886637 199 196 255 49.766407 450.385986 5
-1.092676615561337 0.28142035199723059 1.2650804686379329 103 119 121 52.2547264 373.248047 5
-0.21394968084538579 0.3118104849968163 3.0345804021725216 205 255 187 358.318115 330.946594 5
-1.283220289979945 -2.0912078347155325 6.2148131642198612 255 191 209 303.575073 159.252502 5
-0.10623830385584254 0.41108719206520877 2.588999722534632 255 213 212 367.276093 352.346191 6
-0.63025762173244582 0.28579971406481897 1.738243047926622 255 191 192 247.836716 349.360199 6
0.50785120912536907 -0.2249978113297959 0.79740753709970003 233 255 217 630.042725 182.145065 6
-1.9185408238982906 -1.8397229266340767 3.3703348453393143 173 204 255 161.243164 83.6075668 6
-1.8833534486517425 -1.7962221223576442 3.3300656788702216 255 138 168 167.215134 77.6355972 6
0.60322145825285645 -0.47187781011949836 0.83411136648933004 201 255 130 662.88855 68.6776428 6
-1.8660763571681267 -0.48267288988200929 4.1453814057388234 104 118 138 212.004898 241.864746 6
0.22485733284672993 0.45807600968397333 1.1124849682102265 227 225 255 465.813599 450.883667 6
-0.23778948661377264 0.43163657289644913 0.88697467572522792 255 189 193 283.668549 477.757538 6
-0.63681885267484262 0.4034502915305283 0.76414788737370909 167 255 182 62.705677 489.701477 6
-0.23152956405599845 0.42382596077272866 1.0340196005994555 213 255 215 298.59845 447.897675 6
-1.2466232101021122 -0.17446511808441656 3.3081384483930938 105 255 69 238.878769 265.752625 6
-0.03579350427385064 0.43978845129862626 1.0570637354452554 107 255 87 370.262085 450.883667 6
-1.6534438158130111 0.12517037918762575 3.9059444704683139 90 106 123 220.96286 304.570435 6
-0.43563132953224515 0.29813996718814501 0.94179756025107131 188 255 194 206.032928 403.10791 6
-1.7723233906494005 -1.0755753282018334 3.306532256751566 207 217 228 176.173096 164.229156 6
-1.1516261781137391 -1.8792928481452009 5.6442992631960474 209 226 255 301.584442 161.243164 6
-1.780212926446552 -1.0787180294243346 3.3068585471428631 255 205 216 175.575897 161.243179 7
0.50453515908260305 -0.22929706649338943 0.79198133629433642 231 255 208 630.639954 179.159088 7
0.60054144471478943 -0.46631868729980769 0.82247180258337749 201 255 130 662.888611 68.080452 7
-1.4448609144527023 -2.1835830210904379 6.7028286001795978 192 209 226 300.987244 161.243179 7
-1.9224192535876741 0.34334529916859119 2.4590348324455213 156 255 126 78.8299942 340.402252 7
-1.0884640426632606 -0.16440764904173083 2.9047271434681439 72 93 114 236.48999 265.155426 7
-1.0848342158712088 -0.40410684079697956 3.4318874596083502 223 224 255 261.572266 243.656357 7
-0.22612250704530168 0.42284259562451348 1.0210507692087147 216 213 211 300.987244 447.897705 7
-0.34016452812970077 0.38090079344119576 0.91198746388229512 255 114 127 243.656357 444.314514 7
-0.36648178556819078 0.35527369571036455 1.0629563672721782 219 255 219 250.822708 415.649078 7
0.21919181792563358 0.43088758863459664 0.91605207806458311 220 221 219 472.97998 469.39679 7
-0.34888057458533805 -0.018085529056595613 3.9569472879246979 255 84 105 347.568604 286.654541 7
-1.8472572865655383 -0.32924833747606719 3.2664415720449109 240 241 244 168.409531 250.822708 7
-0.053588729549862713 0.47158616265171249 1.1536140983526684 86 106 255 369.067719 451.480896 7
-0.10807356971775683 0.47475192978059949 2.0807653456141755 216 202 255 369.067719 379.817261 7
-0.18696362679992773 0.39315843611328871 1.4147885026031222 166 102 255 333.235901 390.566803 7
-1.21095565119876 0.2519372287962946 4.1896018092929967 130 133 141 272.321808 311.736786 7
-1.0921881094011794 0.2082509405216591 2.0217802169933408 210 207 202 168.409531 326.069519 7
-2.4126823281890317 0.18101095565335062 3.8593243278408105 245 255 237 146.910446 300.987244 7
-0.50617485853388855 0.24261084167023389 1.4236451261761274 255 193 196 247.239532 347.568604 7
-0.47482850384821518 0.31558860988622706 1.0102961743832402 194 204 195 204.241348 401.316345 7
