ply
format ascii 1.0
comment Written with hapPLY (https://github.com/nmwsharp/happly)
element vertex 172
property double x
property double y
property double z
property uchar red
property uchar green
property uchar blue
property float ix
property float iy
property uchar octave
end_header
-1.2511692728103503 -0.91052202747346578 1.7450349397012546 209 222 255 109 88 0
-0.48644115059771487 0.23211836501485461 1.7785974899659336 186 189 191 280 340 0
-0.42246939002945805 -0.61950450806716961 1.7173136671990243 212 229 255 289 151 0
0.61754267347619352 -0.6709242885777682 4.0022207131932577 57 115 143 444.000031 223.200012 1
0.23728806119385348 0.30942943968016279 5.1114369752845672 255 121 139 403.200012 313.200012 1
-1.1450752735075018 -0.36983050729408518 2.4802967622874714 178 186 195 208.800003 229.200012 1
1.0316695577908868 0.41080492910591071 2.4118958341385168 130 131 130 548.400024 354 1
-0.2544490027178532 0.46098973503420554 1.8109764319493613 255 165 170 331.200012 387.600006 1
-0.99523903606116182 0.34995980546168237 1.6909265585117734 4 255 0 158.400009 367.200012 1
-1.1968752256390296 -0.34498054577633208 1.6412436895435571 240 243 255 105.600006 207.600006 1
-1.2632280122308397 -0.52510214690513279 1.7527808778411438 241 255 238 106.800003 174 1
1.4872743665372328 -0.67246221916352156 1.6095181442332831 180 203 224 740.400024 127.200005 1
1.2724705874626234 0.39070640877664697 1.4507975859897164 222 219 255 721.440002 394.560028 2
1.0237089119362934 0.41115635390436694 2.3978655382381282 95 98 101 548.640015 352.800018 2
0.95177077497912699 -0.45386023202666892 2.9842203436674595 244 255 236 506.880005 228.960007 2
-0.45314460763404885 -0.35119427455698232 2.0264447837971193 228 235 242 296.640015 220.320007 2
-0.55358950985475186 -0.99013689871425137 4.3022852193184073 239 255 232 334.080017 201.600006 2
-1.1011637893240236 -1.2275165742490877 1.8355224240544792 255 66 86 151.200012 30.2400017 2
-1.0706113100848285 0.18875363412568494 2.6251437887062146 180 255 167 226.080002 315.360016 2
-1.1466257389320655 -0.6994663229798318 1.7956509309979776 143 255 106 138.240005 136.800003 2
-0.7097480439679611 -1.4861215763623785 4.4062160497663658 198 215 230 324 156.960007 2
-1.9711531452811988 -0.64699219743647429 4.1583686932951789 255 90 110 203.040009 228.960007 2
-0.98791954130510451 -1.9615997215905741 4.4521253323567205 221 255 170 298.080017 118.080002 2
-1.1057921146007352 -0.995017294746116 1.8281545193899498 255 28 38 151.200012 79.2000046 2
-1.1009874117745015 -0.92791615420810336 1.7804406404241662 110 255 77 146.880005 89.2800064 2
1.2585882665506851 -0.098616073803882653 2.4011462654964886 97 138 170 584.640015 273.600006 2
2.1558075933030638 -0.065294934026200152 2.8872762801278231 74 140 168 668.160034 277.920013 2
0.50845700214284317 0.52646741742435488 1.1146226306115952 147 170 255 561.600037 469.440033 2
-1.2492140352457666 -0.73385979557562186 1.7241931697270401 215 227 255 105.120003 123.840004 2
-1.1076467766380578 0.34244399966435091 2.1707316258021629 9 255 13 186.624023 349.05603 3
-0.87290786643335139 -1.8291512001764074 4.3587507047798288 255 175 200 307.584015 126.144012 3
-1.1087528199553072 -0.98429236353087424 1.8083822693137752 62 255 28 150.336014 79.4880066 3
-1.1018268137906184 0.20178256602076045 2.6744307631621842 149 150 161 224.640015 316.22403 3
1.0738114648448791 0.42845736858585964 2.5470024385276018 255 128 129 547.776062 354.240021 3
2.4376936266472145 1.161549288816663 6.293983584725515 255 147 173 535.680054 361.152039 3
-1.1343877543287686 -0.13130794995545958 1.8373611445992557 98 119 255 145.152008 259.200012 3
-1.0798908192783365 -0.66991883276610831 1.7569770200725232 65 87 115 148.608017 141.696014 3
0.95970253657001459 -0.5265719722598754 3.3937982232635022 234 238 243 492.480042 224.640015 3
-0.57654823529968491 -0.53943888583737587 1.8146984623423004 255 222 223 259.200012 174.528015 3
-0.65126964155628464 -0.077788746352710159 1.8897735739627821 217 219 219 252.288025 269.568024 3
-0.26805986319511788 -0.019172286274671463 3.3910554866824292 99 121 141 352.512024 286.848022 3
-1.2502466846051261 -0.27025926888196727 2.0417218062503499 86 110 255 145.152008 236.736023 3
-0.65095618920621545 -1.9724437822384182 4.6843327433154673 223 255 175 330.048035 124.416016 3
-1.0632988844448441 -1.1134163818267504 1.7372238794699726 124 255 74 150.336014 44.9280052 3
-1.2201712187558234 -0.57595415594978772 1.6851023293708911 230 232 236 108.864014 157.248016 3
-1.3164724988652039 -0.85603418852700397 1.8478657503662843 227 255 210 110.59201 108.864014 3
1.2870494232245613 -0.10052050688788863 2.4985073274685661 97 138 170 584.064026 273.024017 3
1.1731606196888957 -0.70512383641771059 2.7611420058951177 229 238 255 549.504028 190.080017 3
-0.017869537313996098 -0.012850891802313108 6.577944523484291 255 97 119 383.616028 285.120026 3
-0.2391118211792771 0.52162920812959324 1.8328958911392972 255 233 235 335.232025 395.712036 3
-0.94843323938031565 0.40056297122073004 1.5529664273414401 13 255 13 150.336014 387.072021 3
-1.1414657687234415 0.31156781089538504 1.7685686384150729 150 157 157 136.512009 355.968048 3
0.49103095776885564 0.50296164843722146 1.0664092796648283 255 141 155 559.87207 468.288055 3
0.94755395503938733 -0.50564560165415506 4.294746060055993 242 244 246 472.780853 244.68483 4
-1.3377130674291138 -0.39621936738598462 1.883628811159527 255 239 240 107.827217 207.360031 4
-1.0660326947391621 0.37408619813856414 1.4508181610320348 191 189 255 101.606415 383.616058 4
-1.1018268137906184 0.20178256602076045 2.6744307631621842 255 131 133 223.948837 315.187256 4
1.2170248181430194 0.088955219079796768 2.2743334642015878 96 124 147 588.902466 300.672028 4
1.1657864347229578 0.51894988049328039 2.3301781753808557 72 255 50 578.534485 375.321655 4
1.1286185142291512 0.43675569635712541 2.2586589838176172 91 255 57 578.534485 360.806458 4
-1.2835752905014024 -0.53439582349461334 1.8013805448797768 238 241 255 109.900818 174.182419 4
-1.2758357274726149 -0.23778038880038904 1.7924051859272323 255 242 244 111.974419 236.390427 4
-1.3049688854380053 -0.42815041745403715 2.7988045593022033 120 143 255 205.286423 230.169632 4
-1.1261615850659918 -0.24189531365598088 1.8167578447116002 86 110 255 145.152023 236.390427 4
-0.97887574660553778 -1.9227725486714511 4.3928683771647865 221 255 170 294.451233 118.195213 4
-0.62663308104096371 -1.4077724618751084 4.0865231907522475 255 199 215 323.481659 157.593628 4
-0.66244340505463528 -2.0209003982574938 4.807953256634427 200 223 255 329.702454 124.416016 4
1.152191544958526 -0.82824147160074979 3.1271242258630947 238 255 223 526.694458 190.771225 4
-0.24929457847038239 0.50654514315836241 1.1567454275960536 149 255 95 302.745636 456.192078 4
-0.76988101748300064 0.24623742930446765 2.195698106303607 127 130 141 252.979233 327.628845 4
-0.38339621348632091 0.41682989565561168 1.5540925808124424 233 255 231 290.304047 387.763245 4
-1.2098662639913429 0.32582426145120547 2.5778853311825323 255 60 74 199.065628 337.996857 4
-1.1574017735866491 0.32905390944354246 2.0242832981811016 107 120 255 161.740829 348.364838 4
-1.0137979573000329 0.36940768147754344 1.7413972699117348 13 0 255 157.593628 367.027252 4
0.97098149255924193 0.53304804256431415 1.4002503100953159 129 147 255 649.036865 435.456055 4
0.1039675505183637 0.53427302710002389 1.5992803121235215 209 255 197 410.572845 418.867249 4
0.26686032332830356 0.5077510467808557 0.99734053421612945 219 217 255 485.222473 481.075256 4
1.4146428205209105 0.33696923831844883 1.5943935639422682 133 155 255 721.612915 369.100861 4
0.70451258233874337 -0.62774224426719449 4.004620923537467 169 189 203 452.044861 223.948837 4
-1.2778197140245728 -0.98318249351833642 1.7995096391734307 255 161 185 111.974419 78.796814 4
-0.26369729751145821 -0.15643040970303079 1.2118638245199604 235 239 245 296.524841 240.537628 4
-0.39326179488809299 0.37083103422610253 2.0691095189995758 255 129 98 311.040039 360.806458 5
1.4551181341389823 0.54131510576069053 2.5533439315447009 180 255 170 602.173523 370.759735 5
0.62521603450951591 -0.67558760613659752 3.9891473531250217 141 255 42 442.921021 223.948837 5
-1.0639780944209987 -0.59333862476751853 1.726724901791155 118 255 71 146.810898 156.764175 5
-1.0980502507049708 -0.76098169566738361 1.7945909288657718 91 117 255 149.299225 124.416016 5
-1.2855100468057659 -0.24403615734505923 1.8109715830695485 255 242 244 111.974419 236.390427 5
-1.0656444706412951 -1.0533653249654451 1.7494496598266212 255 79 97 151.787537 59.7196884 5
0.95076265719939079 0.5280889782905136 1.3654249847568982 101 119 255 649.451599 432.967743 5
-0.87822064242851994 -1.7294175498807896 3.8797039627475263 221 255 171 298.59845 119.439377 5
-0.32198767863837263 -0.02055265603991932 3.8271450046829116 121 141 255 353.341492 286.15683 5
-1.2778197140245728 -0.98318249351833642 1.7995096391734307 255 158 184 111.974419 77.1379318 5
-1.2341805429733981 -1.0192772187301922 1.7062889512978971 175 208 255 109.486099 59.7196884 5
0.80810530764182387 0.52969132740418412 1.0475228511374688 111 129 148 676.82312 477.757507 5
-1.3008190003171531 -0.6201584364944015 1.8341236160096028 236 255 230 106.997772 156.764175 5
-0.64558465167430157 -1.9943009344626703 4.7193931697158984 223 255 176 330.946594 126.904335 5
0.95258031319512393 -0.61714516299871858 3.2268576128811493 236 242 255 497.664062 213.995544 5
0.65123567220895273 -0.46339556829864836 2.7537995268571231 245 255 240 470.292542 226.437149 5
0.20198506658440518 0.2370710347074961 4.0532613567917224 255 121 139 403.10791 311.040039 5
-0.57697090554915187 -0.11047863052092866 1.901604639557652 113 122 141 268.738586 263.761963 5
-0.65126964155628464 -0.077788746352710159 1.8897735739627821 186 188 190 248.832031 276.203552 5
-0.45044472973656724 -0.24443344825991553 1.9567196259691571 236 239 244 296.110107 238.878754 5
-1.311691419454025 -0.39677573040338265 1.8542355028837942 241 243 255 109.486099 206.530594 5
-0.59718958417142076 -0.55445487659715198 1.8673884151590756 224 255 220 258.785309 174.182419 5
1.0445804161800321 -0.5169750639439612 3.3688068697763134 239 245 255 497.664062 228.925476 5
0.35413949029632485 0.39852196621024605 0.9629767981792825 255 126 134 527.523926 447.897675 5
-0.038441034513293504 0.59286864826112651 1.7708623321901338 237 237 255 373.248047 418.037811 5
-1.4909454630594685 -0.1409937992618196 3.3933344345099306 255 206 207 211.507233 268.738586 5
-0.72771354948478084 -1.0949875438267396 4.8158156314849387 240 255 231 330.946594 199.065628 5
-1.1018268137906184 0.20178256602076045 2.6744307631621842 255 130 131 223.948837 316.016693 5
-1.0667143013354599 0.42039164088186576 1.7419886868839334 13 13 255 149.299225 385.689667 5
-0.8067981873441652 0.33662707169158523 1.5080019796694635 22 0 255 181.647385 370.759735 5
-1.0693519582149542 0.3215606400566306 1.9143670585681276 51 63 255 169.20578 353.341492 5
-0.23682101676830669 0.49639379779773296 1.8269640304528925 255 214 220 335.923248 393.154602 5
1.1495632409337659 0.46875143467238328 2.3443155073494095 13 22 42 576.295044 364.290131 6
0.31951434950731339 -0.52590040521007286 4.4032384533360229 142 155 158 412.065857 244.850739 6
-0.30266708023518163 -0.0015016751932860339 3.8715497545231417 99 121 141 352.346191 286.65451 6
0.42784032272291528 -0.66181811363147292 4.1693296820114671 164 183 255 421.023834 226.93483 6
0.76583496222465242 0.5299206201267691 1.2310486092263959 135 158 255 621.084778 453.869659 6
1.0226681976104723 0.84165400405820789 2.2186299574125501 187 189 195 564.351074 435.953735 6
-0.28567929212372789 0.51995702661913734 1.1804261914847305 255 87 119 295.612457 456.855652 6
-1.299790742575345 -1.0029031394679038 1.8487461876142017 212 255 158 110.48143 77.6355972 6
-1.1272946051893999 -0.76802853524424319 1.8224755395514673 121 255 78 146.313248 125.411354 6
-1.1389411811295584 -0.96731467125886028 1.8133877443825832 255 71 87 143.327255 77.6355972 6
0.22340276700921025 0.26065028237044374 4.0053341754297227 104 125 145 400.121918 310.542389 6
-0.64306631995721464 -1.4037087807929836 4.0636546488098215 230 255 197 322.486328 155.271194 6
-0.59670002316297177 -1.8520793495797607 4.388917207933039 255 175 200 331.444275 125.411354 6
0.49804528866398345 0.52560764008024685 1.1495362417696642 255 137 152 555.393127 468.799591 6
-1.3108825296126372 0.18806758628246251 1.7234270451873388 255 191 77 95.551506 334.430267 6
-1.2542392097765171 0.11285025748723426 1.6540527970196139 248 255 238 98.5374908 310.542389 6
-1.0552830939801114 0.20112501445791431 2.5344711031038782 255 130 131 223.948837 316.514374 6
-0.030813531036228525 0.53823716363051755 1.5893119322437652 237 237 255 373.248077 418.037842 6
-1.0808469590644103 0.39496440704548474 1.5073560346450643 255 205 205 107.495445 385.192017 6
-1.8032393711162844 0.50631101534364809 2.5087198979831387 217 194 255 101.523476 367.276093 6
-1.2275568178602225 0.32223479690854862 2.1617757658013605 110 122 255 161.243164 346.374207 6
1.0245300314743004 -0.56603228892353596 2.6621659162352449 226 234 240 528.519287 206.032928 6
-0.76434747684444382 -0.2469322740927441 1.5701219212931186 255 97 118 203.046951 229.920807 6
-1.1306767477258037 -0.24219024102305975 1.8200671192267301 255 98 109 143.327255 235.892776 6
-0.54963097645850612 0.38744004417152184 1.5486874811472053 63 255 61 250.822708 379.220032 6
-0.9658250827039776 0.40324840376460014 1.5576828194261814 13 13 255 149.299225 385.192017 6
-1.1307704039282909 0.45997176535280881 2.0283042065638179 255 13 13 167.215134 376.23407 6
-0.37130768587162111 0.36274385963391276 1.9191628475482094 114 255 129 310.542389 361.304138 6
0.10517292834008507 0.35748385946935152 1.4098793411993338 233 234 235 412.065857 382.206024 6
-0.040383427615179546 0.005465554605768641 6.151824002724025 255 98 120 383.400421 286.654541 7
0.31951434950731339 -0.52590040521007286 4.4032384533360229 118 131 145 408.482697 243.656357 7
0.6163902480513137 -0.67507480348311577 4.0254204054083225 56 110 139 440.731354 225.740448 7
0.082064416290712483 0.53961599245928471 0.99707486256901134 255 217 217 415.649078 494.479065 7
-1.3292560544430931 -0.87540668661327392 1.8678221317681709 255 212 218 111.078629 107.495445 7
-1.299790742575345 -1.0029031394679038 1.8487461876142017 255 161 185 111.078629 78.8299942 7
-1.1389411811295584 -0.96731467125886028 1.8133877443825832 255 73 89 143.327271 78.8299942 7
1.3079952428576214 -0.08274172074258701 2.5461590729994841 94 133 163 584.058594 275.904999 7
-0.031202450955725602 0.50826863037215286 1.4850667886184947 236 236 236 372.650879 419.232239 7
-0.40541972110859481 -0.31896789187506758 1.834069793742366 236 242 255 293.820892 222.157257 7
-0.4031483862405616 -0.45274598250034215 1.7723011375820565 233 239 255 293.820892 193.491806 7
-0.62408005802583988 -0.57744897259004169 1.9562035335905015 227 228 255 261.572266 175.575897 7
-1.0533028170092305 0.1952224370701221 2.5122063051970311 146 255 113 222.157257 315.319977 7
-0.47771179286294441 0.48444983852374179 1.9036283530935005 224 255 220 286.654541 386.983612 7
-0.65750707537183795 0.45238562897806067 1.9151966679686385 63 255 61 250.822708 379.817261 7
-1.3285913722932907 -0.1862752646682076 3.0432327888244339 255 206 207 211.407715 268.738617 7
-1.3162155102266739 -0.40587305939829033 2.8093996762759943 99 118 141 204.241348 232.906799 7
-1.1306767477258037 -0.24219024102305975 1.8200671192267301 255 96 107 143.327271 236.48999 7
-0.66962247971888234 -0.083548096803077398 1.9336027025743707 226 255 225 250.822708 268.738617 7
0.20640813031152283 0.22377040761621564 4.9400423524096775 126 145 255 401.316345 308.153625 7
0.91917232364645707 -0.50181987114480209 3.1771192949119342 245 255 236 494.479065 229.323624 7
1.1488181795116286 0.2472292362422287 2.3256077413214093 128 149 255 573.309082 329.65271 7
4.7669346174082214 0.50598518599473263 8.6864474662138491 143 165 255 601.974487 308.153625 7
0.033572661424465577 0.5301474923371825 1.257859965371563 219 255 206 394.149963 444.314514 7
-0.37169819218789923 0.42171088556757086 1.7364796060103118 69 78 92 304.570435 379.817261 7
-0.36000481392369732 0.34965128951759972 1.8902860982774641 255 129 98 311.736786 361.901337 7
-1.1663193199649262 0.43405624275581861 2.238828183117227 10 255 22 182.742264 365.484528 7
-1.04984340213952 0.27953318761109175 1.8082777990765981 109 121 255 161.243179 347.568604 7
-1.2855100468057659 -0.24403615734505923 1.8109715830695485 255 242 243 111.078629 240.073166 7
