ply
format ascii 1.0
comment Written with hapPLY (https://github.com/nmwsharp/happly)
element vertex 147
property double x
property double y
property double z
property uchar red
property uchar green
property uchar blue
property float ix
property float iy
property uchar octave
end_header
-0.67504471027381818 -1.0166470408672468 4.7722013102186995 255 232 236 331 205 0
-0.5074972223125962 -0.35041592901177898 2.2387362005219322 255 229 236 295 227 0
-1.55906225608277 -1.1235278341552033 2.4900847990218065 219 228 255 145 115 0
-1.181367398548574 -0.54169815299125856 1.8624181652447329 240 255 236 142.800003 177.600006 1
-1.4662065408534977 -0.2833602342824656 2.3482122913404098 242 245 255 141.600006 241.200012 1
-1.1824836843191666 -0.46961980849874152 2.1915524699620201 236 240 255 177.600006 205.200012 1
-0.86182615731413836 -1.5385652892605308 4.9709369773217968 255 203 219 319.200012 169.200012 1
-1.4310322103665052 -1.3339366758577742 2.2841449040314359 209 255 152 142.800003 61.2000008 1
-1.2271617935618711 -1.0325000204342718 2.2791402254108744 210 224 255 177.600006 115.200005 1
0.78721289912444148 0.55638364555986097 0.94315971611352145 255 57 99 703.200012 513.600037 1
-1.1665315770154896 -0.54551752127437458 2.1449104219632109 234 239 255 177.12001 192.960007 2
1.5086730294979434 -0.71892683703557503 1.6639246403677039 175 199 222 732.960022 123.840004 2
-1.4379736322871262 -0.23049637987387206 2.3081210381195167 245 255 241 142.560013 249.12001 2
-0.36686112889525968 0.50603802138294851 2.3245705094710818 236 236 255 325.440002 371.52002 2
-0.49951051170126437 0.38936503609463102 2.1732752867507381 255 196 200 295.200012 358.560028 2
-1.1186294093119344 0.3374825656479723 2.155014897187399 100 255 151 182.880005 347.040009 2
-0.71951987570675602 -0.88307260978196045 2.953941235306206 222 229 236 288 171.360001 2
-0.78196687530150477 -1.4706958667661314 4.7420718444398 255 203 218 319.680023 168.480011 2
-1.229494395045525 -0.40080635716566637 2.7872478720994955 104 131 255 213.12001 233.280014 2
-1.4061497175823998 -0.56703948116011227 2.2473925837783288 235 236 240 144 190.080002 2
-1.0538103618186376 -1.9195783306544278 4.7119149647700969 177 202 223 296.640015 131.040009 2
-1.374620721179197 -1.3672972052804004 2.1885408060891409 204 255 134 142.560013 48.9600029 2
1.7728795718474248 -0.61019008666061714 4.7308682962475608 255 238 241 527.040039 239.040009 2
-1.1429077400943948 0.33643611497443016 1.8261527931895092 227 225 221 144 358.560028 2
0.27903126046675153 0.43748689804861496 1.6647938430450822 194 255 172 450.720032 390.240021 2
1.3646818642918126 -0.84774217526402562 2.0561442386819291 255 194 209 639.360046 129.600006 2
0.97362999256264493 0.51864474357046653 1.1524806944640531 201 255 211 710.208069 463.104034 3
0.87040995553246125 0.49715450982438592 1.1146233904296223 217 255 218 686.016052 459.648041 3
-1.3939261729316206 -0.27363827680502639 2.2320350423363093 245 255 241 146.88002 240.192017 3
-0.98880917337471752 0.41566469636291958 2.0045005660460697 229 227 255 193.536011 364.608032 3
-1.4686885990448966 0.23660639594070132 2.252928140067298 108 255 197 134.784012 324.864044 3
-1.2136204726571505 0.17687767898124795 3.0986904075244865 255 46 63 231.552017 309.312042 3
-0.9344179752681061 0.33545423281598663 1.9452328453404486 13 16 13 200.448013 352.512024 3
-1.2881227790373151 0.29280762927077697 2.4833259285184566 136 255 115 186.624023 331.776031 3
-0.70302363054591499 -0.85849205740922485 2.8578172932659731 236 255 227 286.848022 171.072021 3
-0.73762459456894236 -1.4237173905420704 4.5152204654480679 218 232 255 317.952026 167.616013 3
-1.6271514696114413 -0.17206733736142665 3.8727153032253749 70 90 112 224.640015 273.024017 3
-0.5621987293820836 -0.27252362102587591 2.3953273232322809 255 237 240 295.488037 247.104019 3
-1.4356703246172859 -0.42464962219834468 2.2928371592367758 255 235 238 143.424011 217.728027 3
-1.2042096687042076 -0.70435645830048177 2.2042436390460747 255 213 222 171.072021 164.160019 3
-1.2364089953693131 -0.15948739038439275 2.2515994976311475 244 245 246 172.800018 259.200012 3
-1.2568920431063524 -0.18483511245586293 2.2187564871392422 244 245 255 165.888016 255.744019 3
-1.2219926500941076 -1.2486713408403458 2.2360236577231443 211 255 149 174.528015 76.0320053 3
-1.246136485201335 -1.4742131959696245 2.2774216785258949 202 255 128 174.528015 39.7440033 3
-1.2103713558311893 -0.79200432186339564 2.2247787364210314 209 219 231 176.256012 153.792007 3
-1.4283177112229479 -0.8862400031671791 2.2767566862343593 218 229 255 141.696014 138.240021 3
-1.2169311295209 -1.0134751640155493 2.2330385182400758 209 224 255 177.984024 114.048012 3
-1.4187741332709995 -0.97166000631473159 2.2660629486101564 222 230 255 145.152008 120.960014 3
1.5503832588421385 -0.8512011209727709 1.9479265075018994 255 212 219 691.200073 119.23201 3
-0.7655343210018497 0.49068889626815015 0.85258955987479279 97 255 72 38.0160027 506.304047 3
-0.45938389692622428 0.36954389001432963 1.8535539732767199 225 255 219 290.304016 361.152039 3
-0.95995912938971228 0.28433148594686586 1.5319913281356086 255 224 221 143.424011 357.696045 3
0.79340819802456863 -0.59935119816476912 3.3873528927887282 255 235 238 471.744049 219.456024 3
-1.3013710381854469 0.30894685801995914 1.9913740270761409 239 224 204 136.85762 350.438446 4
-1.2136204726571505 0.17687767898124795 3.0986904075244865 52 68 96 232.243225 311.040039 4
0.14304766368201105 0.38327861225691029 1.758217703100406 216 255 205 414.720062 373.248047 4
-0.0043790418882878601 0.49882765311450306 2.020327119634997 220 220 255 385.689667 383.616058 4
-0.47625174488849709 0.33087769427448177 2.3289507692182845 200 202 207 304.819244 342.144043 4
-0.54672265445939683 0.18564728297412914 2.4278743475626507 190 255 155 298.59845 321.408051 4
1.0417218282984022 0.22546738736660696 2.7179688790727603 129 255 96 530.841675 319.334442 4
-0.90087101324729524 -0.12490632039717209 2.6956843951607645 255 195 196 255.052841 269.568024 4
-1.4953903349585045 -0.525630012579826 2.4170833510011964 238 241 255 145.152023 205.286423 4
-1.1743440901735354 -0.62395337835387599 2.1530153979089874 223 229 236 176.256027 178.32962 4
-1.4961178190388766 -0.68625221154437599 2.4028289872812465 237 240 255 145.152023 178.32962 4
-1.3266534503799576 -0.21939063969276684 2.1381960762883692 243 245 255 145.152023 248.832031 4
-1.2398123766745162 -1.2530486975529105 2.2502512503998919 210 255 149 174.182419 74.6496124 4
-1.246136485201335 -1.4742131959696245 2.2774216785258949 202 255 128 174.182419 39.398407 4
-1.422007786846367 -1.4116084183720086 2.2786364008427826 255 135 168 143.078415 49.766407 4
-1.1761628838485163 -0.85604448335219652 2.1703791687303067 207 217 229 176.256027 138.931213 4
-1.3844402998278635 -1.0115403298458543 2.2210199497612333 217 227 255 145.152023 114.048019 4
0.93613987782255181 -0.44255509430641871 3.5277492218678077 255 241 243 487.296082 238.464035 4
-1.0468542186433978 0.36643920414546649 1.9237945318983254 233 234 233 176.256027 362.880066 4
-1.1661208171990722 0.34007343544130497 1.8551163292230459 255 227 227 143.078415 358.732849 4
1.2992865848876498 0.49074937170705524 1.8343047755238961 142 137 255 657.331299 391.910461 4
0.39298084193764415 0.51105046071772209 1.6667724675186286 225 255 227 474.854462 402.278442 4
-0.97867843944184818 -1.7355560874169409 4.2644395687951153 223 255 177 294.451233 130.636826 4
1.0373031928485492 0.2140448809479088 2.7399231667939183 140 255 114 530.012207 318.505005 5
-0.74132561750810133 -0.10697018523257307 2.2702230429622703 210 211 212 256.296997 268.738586 5
-1.4345243226751854 -0.20954109413696265 3.4565707386006252 98 122 255 221.46051 268.738586 5
-1.1536258097566585 0.24828099303894613 2.2199783907435662 135 255 112 186.624023 330.946594 5
-1.1698442252069685 0.17503626190477273 2.965619782672742 255 47 64 231.413788 311.040039 5
-1.5876243495383586 0.37090459773174156 2.5105222706669208 237 225 209 136.85762 348.364838 5
-0.48089663036425812 0.33718008384616838 2.4125946136506933 226 255 220 306.063416 340.899902 5
-1.1031763226805902 -1.9495631233525326 4.8600268939807538 177 202 223 296.110107 131.880981 5
-1.4112959904164657 -1.410468291159787 2.2630692736571016 133 167 204 144.322586 47.2780876 5
-0.75367135899187332 -1.4198965892529387 4.485425928914859 232 255 202 318.505005 166.717468 5
-1.2425467342021506 -0.79964813912166899 2.2561857245199883 231 255 209 174.182419 151.787537 5
-0.52189395280111084 -0.48292663910391376 2.2254630361897236 232 240 255 293.621796 206.530594 5
-0.77306419997274478 -0.93979888421164448 3.1065259505611058 235 255 224 286.15683 169.20578 5
-1.1434482640194448 -0.14127792773535519 2.2388603052132381 159 255 134 186.624023 263.761963 5
-1.239234027839434 -0.27189212447896505 2.2418029154077628 255 241 243 171.694107 246.343719 5
0.73716385592144795 0.52001658583974486 0.84722797857553722 255 39 65 719.124573 520.05896 5
-0.77372169259524615 0.48908764430076712 0.88998974799619557 255 80 87 47.2780876 502.640717 5
-0.91427972770612875 0.48052003166342694 2.7960962214588783 72 74 74 256.296997 355.829803 5
-1.1275866080334636 0.37614539253327728 2.0694178261906422 223 223 223 176.670746 358.318115 5
-1.1810057954909663 0.3627018612892623 1.9161088108584505 255 181 189 151.787537 363.294769 5
-0.35374209284434954 0.34998694191234642 0.57976475036251074 61 13 255 149.299225 520.05896 5
0.8823602240909536 0.49400604841828832 1.081501490020055 217 217 216 696.729675 465.315918 5
-0.53460234768895321 -0.35577657373536065 2.3155387618863283 236 243 255 293.621796 228.925476 5
-1.4182560935226238 -0.42923652549576063 3.217993640354349 104 131 255 213.995544 233.902115 5
1.2936213337915761 0.4888528419887917 1.8268006868516662 255 143 144 659.404907 390.66629 5
1.0639777667848946 0.48325401464960405 2.1447374729064599 70 85 255 577.290344 378.224701 5
0.1277552584471171 0.20037397319914213 3.6487775515396841 134 161 255 393.154602 306.063416 5
-0.77837639510622614 -2.0049551064864604 5.1769631423717977 204 224 255 325.969971 136.85762 5
-1.1988928929211053 0.1344991147533191 3.5056955172487996 144 255 114 250.822708 304.570435 6
1.04979477580129 -0.7411146989025198 3.2247833499938725 239 255 224 510.603363 197.074982 6
0.21887738241736665 -0.52674399087556367 4.6256682728697696 130 139 148 400.121918 244.850739 6
-0.51377626572721846 -0.48412460339464847 2.1990433386729089 223 232 240 292.626495 206.032928 6
-0.95526259292051119 -1.1007419246701708 3.7664257922129991 255 225 227 283.668549 170.201126 6
-0.48629928031137348 0.39210601352046015 2.1756980452339092 236 255 233 298.59845 358.318146 6
1.1644010478301685 0.44878693382664353 1.3928039348379291 13 28 255 701.70636 412.065857 6
-0.51406020689976817 -0.34926022633268683 2.2609314805721201 229 236 243 292.626495 229.920807 6
1.2466398437376269 0.46494890592127264 1.7336137911739913 255 144 144 659.902588 391.163971 6
1.7483565371111618 -0.63212283739802244 4.7821493141066105 238 241 245 528.519287 235.892776 6
0.80006765314394523 -0.5183823871772788 3.4978710091692919 243 244 246 468.799591 229.920807 6
-1.4409720883025066 0.23048045829622232 2.1887249996474094 101 255 194 134.369308 325.472321 6
0.79502720149929396 0.71075758679793721 2.4379299499060751 180 187 198 504.631378 397.135956 6
-1.2533447388204024 0.39420081154287945 2.300191476823334 223 223 223 176.173096 358.318146 6
-0.35003856520026355 0.41809915699351763 2.0911312906032129 222 228 255 325.472321 367.276093 6
0.50794221194404843 -0.70631538346579004 4.5163203172866355 183 255 141 426.995789 226.93483 6
0.81734095734481715 0.47864934106140011 1.0595002296989549 220 220 220 680.804504 458.647247 7
0.93001339617099155 -0.59471226517773368 3.1414092759098073 242 255 233 494.479065 214.990891 7
-1.2898731219594053 -0.17384403919682345 2.5000173116883726 155 255 131 186.325439 261.572266 7
-1.4539468649458085 -0.46575790030250663 3.2985765696106473 255 88 108 211.407715 236.48999 7
-1.370894353297742 -0.26351754100608094 2.2300554159707562 245 255 240 146.910446 243.656357 7
-0.8856758177441395 0.4571212267594027 2.7078066631704996 65 255 66 254.405899 358.318176 7
0.54880267134990057 0.093566163444899486 0.71414972633808826 100 116 255 673.638123 336.819061 7
-0.69312026049767228 -0.6610390523869103 2.2778792184632155 214 215 255 265.155426 175.575897 7
-0.8567657130581936 0.45848595133534853 1.0510396071073935 187 184 182 68.080452 458.647247 7
0.80305100505385063 -0.51885809073205869 3.4866932186222668 244 246 255 469.39679 232.906799 7
1.0508978552800052 0.21219161309522269 2.8315443474631792 148 255 115 526.727722 318.903168 7
0.69433579115945276 0.38335818438793745 2.6584790181806532 255 144 152 483.729523 340.402252 7
-0.77535858970454052 -0.11736978581939683 2.3262417876419641 210 255 205 254.405899 268.738617 7
-1.007726126150728 0.25141814970406018 2.2584794879866688 255 97 115 207.824539 329.65271 7
0.12339651842952715 0.18924104734227692 4.8975517363288006 148 255 104 390.566803 304.570435 7
-0.48424241673053947 0.32069086450455642 2.3600025608063291 206 206 209 304.570435 340.402252 7
-0.24879966780351559 0.076701642336303666 5.270433673467342 119 140 255 369.067719 297.404083 7
-0.13532496136979333 0.45473211086807869 1.8136287697873512 236 255 236 354.734985 383.400421 7
-0.36470332643717729 0.47940901916306078 2.3435766126974222 220 255 220 326.069519 365.484528 7
-0.50801570698602205 0.19178223834005081 2.2014789050166383 174 194 255 297.404083 322.486359 7
-1.0835586847756047 0.17813658723594772 2.7254283703432129 60 90 255 229.323624 311.736786 7
0.26001924187022052 0.41223669518799533 1.5060968779683583 255 218 219 451.480896 394.149963 7
-0.39549624728241972 0.48804457781281357 1.6337983600428059 125 255 75 290.237701 404.899536 7
-1.2363508008920259 -0.99197935733415665 2.2205292816804754 255 203 213 171.992722 118.244995 7
-1.4016225228528287 -1.0293030860295949 2.2648488696193496 227 255 211 146.910446 114.661812 7
-0.81748284937467597 -1.4820777322012124 4.6711059093709517 232 255 201 318.903168 164.826355 7
-1.0883698697312179 -1.9100038451079011 4.8072951783089604 204 225 255 297.404083 136.160904 7
