ply
format ascii 1.0
comment Written with hapPLY (https://github.com/nmwsharp/happly)
element vertex 155
property double x
property double y
property double z
property uchar red
property uchar green
property uchar blue
property float ix
property float iy
property uchar octave
end_header
0.71106439475302086 -0.42688373549915726 3.4773311965515927 255 26 75 463 241 0
0.25246414685219665 -0.68473224393437004 3.6778506482713809 59 95 127 412 217 0
1.4100359681046337 -0.19194860195610502 5.0056684670783804 77 108 255 493 274 0
0.8958698152872363 -0.183768780503858 3.5630427825287194 99 255 28 482 268 0
0.94829787242171837 -0.11940899969259897 1.4346319553709659 98 105 255 637 256 0
0.77766765301710628 -0.13725227423056172 1.0023188774547485 237 255 232 682 235 0
-2.5099305334624242 -2.275959034595143 3.784394269067489 174 255 101 130 58 0
-2.5991428217531851 -0.30728954771413569 4.0164524887966424 234 235 238 136 259 0
-0.22761333558302588 -0.53252147230396363 1.3435796610536395 255 145 171 319 136 0
-2.4645166913958714 -1.6218117380022037 3.8890471105285336 209 255 184 142 127 0
0.37601410696893867 -0.56464474166789269 3.4657436903980496 57 91 120 424 226 0
-0.20509356575457416 0.10839295642673205 0.39646813846843465 255 188 193 183.600006 391.200012 1
-0.12718662765289279 -0.24652679277562206 1.2366339914330786 100 123 145 344.400024 211.200012 1
-0.14916493466711755 -0.28792516899523335 1.2584596780014357 255 40 101 339.600006 200.400009 1
0.090455474156312943 0.36870837086959768 0.53664731728578963 255 181 179 451.200012 552 1
-0.13505332738836162 0.0048650415647631673 0.94696454360158033 255 84 97 327.600006 291.600006 1
-2.4157756381719366 -1.072209284617885 3.5882325845466436 255 223 224 123.600006 171.600006 1
0.19569865963588678 -0.25293876353594347 3.7385882575579763 255 187 195 403.200012 261.600006 1
0.78057446848391265 0.2249923324588427 1.5997870210083445 109 122 141 572.400024 343.200012 1
0.55194064822180811 0.40279345460278088 0.60111531097580162 255 74 85 735.600037 546 1
-0.038072650713070033 0.40381601968502367 0.61407428542348264 80 93 113 360 538.800049 1
-2.5271519055736773 -0.97260201908058819 3.7352237846224501 219 222 228 124.800003 187.200012 1
-2.593772719260051 -0.38646333374536113 3.8259551608608273 229 232 236 124.800003 249.600006 1
-0.22266272296237632 -0.52847197183587769 1.3291800489232335 255 144 170 319.200012 135.600006 1
-2.5838982138088671 -1.8632796779019836 3.8774117577570282 165 178 200 128.400009 104.400002 1
0.83391696518442449 -0.14201173813494489 1.7028201984180451 255 46 63 571.200012 255.600006 1
0.37024079442296043 -0.562921098536457 3.4527086218146139 255 58 96 423.600006 225.600006 1
0.89937192688038681 -0.18526959079269859 3.5861936836513189 73 99 255 481.200012 268.800018 1
-0.15145218150644424 0.40814902016568111 0.98083145827442708 75 95 255 325.200012 447.600006 1
-0.22985888932250187 0.031917833694389025 0.64837362401903098 204 205 255 249.600006 307.200012 1
0.76893220329625211 0.36089580288545581 0.98352519833054841 34 46 255 685.200012 427.200012 1
0.76623508004390117 0.069264727456753813 1.5566583933183566 112 255 90 574.800049 303.600006 1
0.24367782571116642 0.1891327362393361 0.47644007378130737 74 86 105 580.320007 439.200012 2
-0.15331016360624927 -0.25424027035722951 1.2714268755598908 255 68 106 339.840027 211.680008 2
-0.050857851198396864 0.26035177270809778 0.84308697952628209 96 117 255 361.440002 407.52002 2
-2.3248655003402652 -1.1028830870315287 3.7007143657109141 213 222 255 141.12001 171.360001 2
-2.5205164882494953 -1.1162654777783021 3.7414826094686147 223 228 255 125.280006 171.360001 2
-0.040191371073847404 0.39314127465328452 0.79030435671013222 110 255 78 362.880005 480.960022 2
-2.4845365612534147 -0.93971264288624734 3.9175299151803396 223 229 255 141.12001 195.840012 2
-2.5617253011633436 -2.174339660146277 3.8622887636039378 106 137 178 128.160004 72 2
-2.5715793848580941 -1.6875389871194444 4.0359388769813815 195 209 255 141.12001 126.720001 2
-2.5640540895907726 -1.8526855493822356 3.8558024658531909 164 177 199 128.160004 103.680008 2
0.25158530077077729 -0.76463634026787564 3.4912612272419783 121 255 59 410.400024 201.600006 2
0.37143764150138059 -0.92472184910556143 3.1725542119758301 255 41 86 427.680023 175.680008 2
0.18636527549422782 -0.2454986399751248 3.6379879831858108 233 236 255 401.76001 260.640015 2
0.88560473887980784 -0.19120476288252566 3.4773310986238792 27 76 103 480.960022 267.839996 2
0.78820358330393026 0.077416116482865838 1.5995246650766839 102 120 255 573.119995 303.840027 2
0.9250706104003672 0.37161559900813829 1.4212320662290541 145 148 152 632.160034 390.240021 2
0.66703103357007743 0.33079407173133191 1.3384758569984536 76 95 255 573.119995 381.600006 2
0.77496600588905284 0.17868604663095539 0.9132029496188051 103 125 255 709.920044 362.880005 2
0.26028448674287663 0.19264378649593794 0.70699405334680354 97 125 255 525.312073 392.256042 3
1.405709351520307 0.16059422702752751 4.6563992962756267 255 27 67 499.392059 302.400024 3
-0.20764737515458642 0.21232086416861554 0.43394136781299586 174 178 170 200.448013 476.92804 3
-0.20843140466591548 0.19273581792432279 0.43522240975754922 174 255 175 198.720016 459.648041 3
0.52527976075451577 0.30463383969590085 2.3986829995573999 103 255 22 466.560059 335.232025 3
-0.15842373326850057 -0.2648559106265192 1.3126798812460201 63 111 136 340.416046 210.816025 3
-2.584871249243494 -1.195481900914277 4.0414464992423413 226 255 217 138.240021 176.256012 3
-2.3346206290221416 -0.24460586659621619 3.8299077259363541 239 255 236 150.336014 264.384033 3
-2.6936876572885673 -0.40168159743776344 3.9695648720123593 229 232 236 124.416016 250.560028 3
-0.038281263979653757 -0.47665743122034177 1.2486774944526802 174 204 255 373.248047 141.696014 3
-0.23582628609264933 -0.50321539517949576 1.2998362411609299 146 173 203 312.768036 138.240021 3
-2.7498634709877567 -2.3217424434032647 4.127370991495698 255 107 137 127.872009 70.8480072 3
-2.3076869448374109 -1.3259894834419674 3.7895660661238093 213 255 186 150.336014 153.792007 3
0.82906884774465683 -0.14063570123547559 1.6861938817227791 255 46 63 571.968079 255.744019 3
0.8016083688870983 -0.14649548693569625 1.0355308099377516 231 233 236 680.832092 233.280029 3
0.24815289422491976 -0.83622796754054307 3.6867797898924497 255 57 89 411.264038 202.176025 3
0.68298676921784374 -0.87890532935461785 3.3467159378206102 255 28 77 459.648041 186.624023 3
0.38666542822763256 -0.93422293758571773 3.5328325601863488 133 255 53 426.81604 190.080017 3
0.17809427722150617 -0.25643440056826561 3.6365836079014122 202 255 231 402.624023 260.92804 3
-0.18176304917818176 0.39730269597539231 0.62935842465975289 169 174 170 276.480042 530.496033 3
-0.16366945752407402 0.40655007914329089 0.7587079842409935 152 162 160 300.672028 494.208038 3
-0.23179184801935115 0.030114742869175308 0.65071276761947061 198 201 202 248.832031 305.856018 3
-0.13763430329046111 0.0047327175128304699 0.94581318410077064 119 255 85 326.592041 292.032013 3
-2.732573520519197 0.15714605492765343 3.9122050282962277 255 217 209 115.776009 302.400024 3
0.24362583082201048 0.18820578023373721 0.47191111562878407 60 70 89 580.608032 440.640045 3
0.80638471209437457 0.061862868946835979 1.6659309159227509 255 67 81 571.968079 302.400024 3
0.78196542157634963 0.2735064321314214 0.97399956127553056 74 84 104 696.384094 395.712036 3
0.45864665421676054 0.32729257212025586 1.8593471378640678 56 77 255 481.075256 352.512054 4
1.2066454258784778 0.26014038868738298 3.316253412846526 56 74 92 520.473694 321.408051 4
-0.22796715606247253 0.080923510055183528 0.64579386933801552 203 203 201 248.832031 337.996857 4
-2.5225870292602286 -1.1599764627199125 3.9419375451696066 226 255 217 138.931213 176.256027 4
-2.4506204670571323 -0.36068973669143833 3.6629758484206514 236 255 229 126.489616 250.90564 4
-0.24177353422938386 -0.51090257818325679 1.3184150787249678 173 203 255 313.113647 138.931213 4
-2.6236142835434628 -2.4105217592079855 3.8982667451390016 93 127 171 124.416016 49.766407 4
0.80019364497386802 -0.13725622898547601 1.600847777944201 63 82 89 572.31366 257.126434 4
0.76363413482899767 -0.094143505812058798 0.90835900831464234 235 238 255 709.171326 246.758438 4
0.79325289373765473 -0.1437921254474572 1.0133152679614887 231 233 236 680.140869 234.316833 4
0.25607044006753621 -0.75911276802669958 3.4631197055466245 121 255 59 410.572845 201.139221 4
0.89725887654543557 -0.187831901767535 3.5746089309403928 76 103 255 481.075256 267.494446 4
-0.14946997242936888 0.40236040203163809 0.90468267661710478 255 66 78 319.334442 460.339264 4
-0.11280209365782046 0.31612860421535849 0.92097407801814901 84 106 255 333.84964 420.940857 4
-0.22638063288848043 0.02989316976715737 0.64312164054312748 202 205 206 248.832031 306.892853 4
0.75669143795513438 0.37613111390617449 0.89797875558255191 130 150 255 709.171326 452.044861 4
0.74968110088041295 0.38234459762221107 0.95772132163055623 36 44 61 684.288086 437.529663 4
0.21180864234829916 0.17862552012174793 0.5502000238281024 122 125 124 532.915283 416.793671 4
0.79757074888906021 0.064639976369270158 1.639629573903171 93 255 57 570.240051 302.745636 4
0.77932309758400609 0.32165741366331269 0.9611515723841848 188 255 183 694.656128 414.720062 4
0.54289312888270214 0.30291993140291046 2.4421918484980725 103 255 22 466.560059 335.923248 4
-2.5368139748484579 -1.1338999329475006 3.7722157876634519 224 226 230 124.416016 174.182419 5
0.88374770949820125 -0.20063817615670682 3.4587076701263268 108 255 28 482.734161 266.250275 5
-1.8157139635495727 -0.73191865180738047 3.7474322665528366 255 191 194 199.065628 209.018906 5
-2.7377069594347514 -1.2461085748306906 4.2459133828403921 255 213 217 139.345947 174.182419 5
-2.7622575704971544 -2.5408441111935427 4.087880925336326 93 127 171 124.416016 49.766407 5
-0.14151326119356489 0.38140400489384979 0.76576656240294816 184 190 185 308.551727 477.757507 5
0.74884602296683411 -0.023065456507601972 0.88672140090088358 241 255 238 706.682983 278.691895 5
0.26450009607044483 0.21412923161883415 0.47846550269667421 255 219 220 599.685181 460.339264 5
0.67719150271340045 -0.87373394021958972 3.32909498356736 25 70 106 460.339264 186.624023 5
0.42868356110359684 -1.1025173578245271 4.191369343817712 99 131 255 425.502777 191.600662 5
0.78365235978040881 0.067411275810140281 1.6164678817638793 78 89 104 572.31366 301.086761 5
0.57126633866612075 0.33854303329050606 2.6797369413681498 255 22 75 467.80423 333.434937 5
0.81801760460519368 -0.1234850906545954 1.5557891794952805 120 128 255 589.731934 258.785309 5
0.80375118484534469 -0.13397481022181729 1.6246047029073427 120 255 79 574.802002 256.296997 5
0.17801321696604927 -0.26385304510198448 3.7908868572504475 231 233 237 400.619568 258.785309 5
-1.7361634601293261 -0.69661484399520179 4.2439027892846202 215 255 206 226.437149 218.972198 5
-2.5663186749209004 -0.5434799825505614 4.7795418042059605 86 109 255 181.647385 241.367081 5
-0.15534216593060624 0.40896650084681974 0.92368808931057644 67 79 98 320.993317 457.850952 5
-0.12937560410398397 0.3392173471044892 0.98434278765878691 81 102 255 333.434937 418.037811 5
0.22284765308643811 0.36049320669223361 1.1980162147061153 32 55 69 452.874298 403.10791 5
-2.727194011905711 -1.9889523133596394 4.0817394732158112 170 195 255 129.392654 99.532814 5
-0.14790135385588954 -0.25574414451541805 1.2740809033811384 46 108 134 340.402252 209.018921 6
-2.417627049487685 -1.1167574603227428 3.7828140726784918 220 226 255 137.355286 176.173096 6
-0.13766865764227898 0.0036054618851190769 0.94866691097884237 98 118 255 325.472321 292.626495 6
0.86497299018448048 -0.19804592698168832 3.3641600347760785 28 83 112 480.7435 265.752625 6
-0.2407373751088886 -0.50319467234057302 1.309920067413384 177 205 255 313.528381 143.327255 6
-0.091677935001607258 -0.59870860367409828 1.389510963065818 169 199 255 361.304138 122.425369 6
0.85495908038115043 -0.11974069179259131 1.6378054453627162 107 121 130 588.238953 259.78067 6
0.82461601786060812 -0.14172142889701375 1.6802691909857184 98 105 255 573.309021 256.794678 6
0.37572858049092972 -0.8750571522589905 3.3546494738574251 59 98 127 424.009796 194.088989 6
0.77908932148455523 0.39982143462182074 0.96558367071893492 121 140 255 689.762451 444.911713 6
0.37905987295693355 -0.21640551651031162 2.6590970226382074 42 98 126 432.967773 256.794678 6
-0.048086493749761539 0.26036017888617125 0.87422709508626717 96 117 255 361.304138 406.093903 6
-0.15740130687582088 0.28310023154467995 1.1153055890793697 106 255 59 334.430267 385.192017 6
-0.022827187500154056 0.25847545196556987 1.1846812193122953 255 180 187 379.220032 367.276093 6
-0.12695769849181593 0.22607780439851533 1.0147729412426107 107 255 75 334.430267 376.23407 6
-0.06606726832906662 0.38363652184056052 0.8330596921766763 79 90 112 352.346191 462.827606 6
-0.14411357875848774 0.39674097344630588 0.90367987954854367 100 255 66 322.486328 456.855652 6
-0.15075535383396077 0.3595242533193968 1.0542277569265157 104 255 66 334.430267 418.037842 6
0.84471604403945943 0.33019152373965305 1.5099664929910774 93 95 114 600.182922 370.262085 6
-2.7104913412846825 -0.66091360148508205 5.1572405506104095 89 255 46 182.145065 244.850739 6
-2.5368139748484579 -1.1338999329475006 3.7722157876634519 225 229 255 125.411354 173.187103 6
-2.8891929763541953 -2.3486000727875678 4.2608815624873824 179 255 111 122.425369 74.6496124 6
-0.13031706598549508 0.33739859078367224 0.98631989204281689 82 104 255 333.235901 419.232239 7
0.3741665824692908 -0.97712560450219521 3.7942594980852746 124 255 59 422.81543 193.491806 7
0.24210350845243128 0.11582264215165251 2.2329016267786836 194 255 175 422.81543 311.736786 7
0.80243765633999908 0.058309911778746566 1.7067067693531541 71 84 255 569.725891 300.987244 7
-1.8057200367644803 -0.35823725763605052 3.4249029630601973 255 55 73 179.159088 243.656357 7
0.71699126118720535 0.25495623012357094 1.4563977821750178 124 141 255 569.725891 354.734985 7
-0.89179713477303846 0.10433138626902091 1.4423682153216437 255 156 116 139.74408 311.736786 7
-0.14868091411295248 0.0071190284936732962 0.97449345284215827 116 255 81 322.486359 293.820892 7
0.77890609838839342 -0.73081899919280879 3.3258534406397926 36 77 110 472.97998 204.241348 7
0.96574581993262021 -0.12385299490470814 1.470555517826073 82 255 50 634.223145 261.572266 7
0.80866286971401768 -0.13460579117604768 1.6188083562271578 98 105 255 573.309082 257.989075 7
-2.6961442708373422 -0.39655440201776376 4.0346641228374827 229 232 236 128.994537 250.822708 7
-2.4969813122286166 -1.1290378065292503 3.8824681792959894 217 220 226 136.160904 175.575897 7
-2.5584467389647711 -2.0916891497290706 3.7686204666913965 140 179 255 121.828178 75.2468109 7
