ply
format ascii 1.0
comment Written with hapPLY (https://github.com/nmwsharp/happly)
element vertex 127
property double x
property double y
property double z
property uchar red
property uchar green
property uchar blue
property float ix
property float iy
property uchar octave
end_header
-0.23494237498432469 -0.048076595270201639 0.87988263880627615 45 72 94 280 267 0
1.2052345150914179 0.59334069360353092 1.7249091389885312 102 103 101 652 420 0
-0.46475217065735874 -0.48456734332219165 0.96472019682798926 255 166 190 199 97 0
1.2148617315872317 0.33644652648790002 1.5928426544335945 255 100 114 679 370 0
-0.54802570819521534 -2.1533586196142531 4.2446035847869918 133 157 255 333.600006 92.4000015 1
1.4168355609667977 -0.043458074766287907 1.5844755698526702 160 255 93 726 277.200012 1
1.2208717876692863 0.48334278860038427 1.6599676775240653 255 112 130 667.200012 399.600006 1
0.16162912860211698 0.66461685875000065 3.3909731476102776 168 255 162 402.000031 362.400024 1
-0.6415653756110995 -1.5955086540341545 4.1481511359585435 87 113 255 325.200012 138 1
-0.27743033136930872 -0.14996959617239064 0.92353836123745969 119 138 161 268.800018 225.600006 1
-0.32901491521991133 -0.43363181566453624 2.8916937657378607 255 116 134 339.600006 231.600006 1
0.57086121279275814 -0.64027505669775941 3.4726800348559443 255 46 104 447.600006 216.000015 1
0.83130366593158789 -0.6511866469815899 3.2609858895788539 255 234 237 483.600006 211.200012 1
0.77706651536449534 -0.30354094978349155 2.881622911898793 255 241 244 487.200012 248.400009 1
0.84683469537329548 0.37012273309363736 3.4024652934982438 122 255 117 478.800018 331.200012 1
0.91836064976513121 -0.4312548263732916 2.0609253033083759 255 222 231 555.840027 204.480011 2
1.1808232973091641 -0.6717760590303008 1.8909708726719376 255 216 224 623.52002 154.080002 2
-0.94940989764468631 -0.59859291029028638 1.3362857283531859 230 231 255 109.440002 113.760002 2
1.1954291597755473 0.47157041830695007 1.6170663389320143 147 255 104 666.720032 400.320007 2
0.32151591395814094 0.52043915210047342 1.0351742719581076 195 197 255 505.440033 479.52002 2
1.2013174890322913 0.58744431268203412 1.7352888236120529 101 255 99 650.880005 420.480011 2
0.38159169868370135 0.33445195668935379 3.6567186006931207 126 145 165 424.800018 321.120026 2
-0.50852624166327764 -1.357172429264526 3.3080020352097019 50 80 103 324 132.480011 2
1.4559632997363321 -0.047954436525317334 1.6460418834671007 93 152 178 724.320007 277.920013 2
1.349267912260524 -0.1110641029540374 1.6220927601713928 117 162 190 704.160034 262.080017 2
-0.81915817981510308 0.53063383393277641 1.1936974132473708 88 88 64 120.960007 456.480011 2
-0.4596197282552219 -1.8401018471464696 3.5903396807977828 163 255 119 334.080017 90.7200012 2
-0.94277954815975029 0.2475703178497955 1.796587177776825 143 166 255 181.440002 338.400024 2
-0.46439095347275261 -0.4807111469798212 0.95918857674899538 216 255 165 198.720001 96.4800034 2
0.75469918660381619 -0.30221154986852039 2.7944082292119967 246 255 241 486.720032 247.680008 2
-0.92601538670310202 0.21328630698844253 1.2133509029680392 202 203 255 89.2800064 355.680023 2
1.4330103389583231 -0.050360954438944561 1.6210885693494683 152 179 255 725.760071 276.480042 3
0.14224964857836531 0.53709231759446041 3.5950861689858051 255 135 155 399.16803 347.328033 3
0.52908688563240092 -0.57564212572579332 3.5674009489310565 45 106 136 444.096039 226.368027 3
0.26416513123190377 0.53137053659094735 2.0129411555377388 111 115 255 433.728027 387.072021 3
0.334209352696758 0.53876299469721189 1.077830165602319 180 185 191 504.57605 478.656036 3
-0.5286082334824469 -1.3930285989187798 3.4171917244386103 255 50 81 323.136017 131.328018 3
1.0327761029524407 0.54231585896964152 1.9960974473190989 159 255 156 582.33606 390.528046 3
1.7414914959482781 0.75992061589866233 2.5562976826973909 46 255 23 646.272034 404.352051 3
-0.91298955764333201 0.41938918086134802 1.1093579962986779 105 101 255 69.1200104 433.728027 3
-0.29039624378369844 -0.27846430090521251 0.9738539597686735 255 111 129 267.840027 179.712021 3
-0.48495512770375981 -0.066702374285690813 1.1471686430784032 93 107 131 224.640015 266.11203 3
-0.26188792338362932 -0.14339193354773905 0.86264747062719582 255 119 138 267.840027 224.640015 3
-0.42519777068577369 -0.10788160746228059 0.96549107683340463 135 255 92 214.272018 245.376022 3
-1.1460417169693704 -0.35954066344181146 2.0147404341697994 239 243 255 169.344009 221.184021 3
-0.31153461594107146 -0.40637633746026414 0.99694646260846076 65 92 114 264.384033 129.600006 3
1.3995893715591623 -0.24745411783223925 1.6727312001150176 240 244 255 705.024048 229.82402 3
0.75490055655210764 -0.61670654903068578 3.079557031080463 234 237 243 480.384033 212.544022 3
0.75345322223061761 -0.30878928668918276 2.8071142265218887 255 240 243 487.296051 245.376022 3
-0.31864974826559056 0.4397350326450255 0.94747345081366774 255 181 179 255.744019 466.560059 3
1.1865106081325241 0.47042783908737423 1.6087202053644107 255 104 121 667.008057 400.896027 3
19.340347199664912 -31.295286783495605 58.697188393991297 169 191 216 508.032043 84.6720047 3
1.1699567139288316 0.50589196117640278 1.4415680222024498 187 255 189 694.656128 423.014465 4
1.1488313958572705 -0.61545277619206618 1.8293885954808111 233 255 216 622.080078 155.52002 4
0.13589584971150548 0.64393786182547652 2.7585532330640952 163 255 155 402.278442 379.468842 4
0.11492946985117469 0.47181509101973262 2.3076786627839274 168 255 162 402.278442 364.953644 4
-0.92222366401869804 0.42503660769327112 1.1220832803296563 94 97 93 68.4288101 433.382446 4
-0.28575024295769946 -0.15519745736736407 0.94605146827579878 255 119 138 267.494446 223.948837 4
1.3245445622970706 0.095283449867018588 1.4913308305545661 139 168 255 725.760132 313.113647 4
0.52358868090621513 -0.50906021413856362 3.3074181751510441 255 52 107 443.750458 226.02243 4
-0.48959302739131205 -0.035086058767238359 0.99341449905320989 245 255 245 190.771225 273.71524 4
-0.9695020718355325 0.25195140162267393 1.8410149112716683 161 255 125 182.476822 340.070435 4
1.4099474634666422 -0.24667849331175867 1.6998772977939147 240 244 255 705.024109 230.169632 4
1.2394551151473463 0.43095453550991131 1.3841911373821763 50 61 255 725.760132 406.425659 4
1.1897627961737014 0.46956885416299887 1.6076955239704525 255 53 64 667.69928 402.278442 4
-0.096267911386492599 0.56139266905020468 0.95197789960408086 226 227 226 344.217651 514.252869 4
-0.17811297335454679 0.41827662540806843 0.99494683411399709 72 94 255 317.260834 449.971252 4
1.3884034197654735 -0.73151484609903528 2.0106343902761585 255 198 213 651.110474 149.299225 4
0.98395407993043404 -0.33869837048333429 2.6542541170667828 255 239 241 527.523926 238.878754 5
0.71166530313521292 -0.30660322359291653 2.6411341387639728 255 240 243 487.710785 243.855392 5
-0.29300863946036948 0.30368550846555192 1.1978424985826726 49 74 98 288.645172 390.66629 5
-0.25728073754969927 0.45964155084695102 1.1357960623852561 38 64 85 296.110107 445.409332 5
-0.268259050437897 -0.046776328347591156 0.80634238224283905 245 255 245 258.785309 266.250275 5
-0.41237245151492674 -0.10808751118556714 0.9333798629718304 108 136 255 213.995544 243.855392 5
-0.9695020718355325 0.25195140162267393 1.8410149112716683 133 158 255 181.647385 340.899902 5
-0.31877530869109982 -0.4172227554933664 1.0289077678243275 255 76 100 263.761963 129.392654 5
0.52681158293298558 0.58308260243901699 3.672332369129462 77 120 150 440.432709 348.364838 5
-0.90579799131613825 0.21047288554672056 1.1751216697115456 202 204 255 89.5795288 358.318115 5
1.356438195757399 -0.071841350305354601 1.5370545788937129 255 91 149 719.124573 271.226929 5
1.3196065760711493 -0.22163649849325534 1.5507086012816904 244 255 237 706.682983 228.925476 5
1.1573818217173706 0.40484148909563034 1.6359747098422757 175 255 156 654.428223 383.201324 5
1.2526494190969975 0.34371605652732173 1.5118086013234473 146 158 176 704.194641 373.248047 5
-0.12270407665080052 0.030521683618839668 2.5026947939284971 116 136 255 365.783081 296.110107 5
0.14063229850372427 0.54849726479587679 2.7324193597622104 255 161 173 403.10791 363.294769 5
-0.81485429099914164 0.52575030682946533 1.1877248053203688 99 75 255 121.927696 455.36261 5
-0.89051498892922343 0.49980846446565202 1.1232843372618615 39 34 255 77.1379318 455.36261 5
-0.45032303419161268 -0.46956716391809161 0.92139469646279215 171 193 217 196.577301 97.0444946 5
-0.8930306479444603 0.4920695383264026 1.1153955948617109 30 23 255 77.6355972 453.869659 6
27.92008064685178 -28.887073930889756 71.664516316257675 255 201 213 531.505249 137.355286 6
1.18299638532814 -0.66974748396157768 1.9271459375659257 224 233 255 621.084778 155.271194 6
0.91857540089963974 -0.52508014993692742 2.6587672092223436 241 255 231 510.603363 212.004898 6
0.7311133829699541 -0.58638088927760734 2.9172071960796133 238 243 255 477.757538 212.004898 6
-0.36643702087124685 0.29027643711825324 0.98692400998119778 221 222 255 241.864746 400.121918 6
0.57788141754827071 -0.61679277202364047 3.3622045266792444 255 52 111 447.897675 217.976868 6
-0.29441682488802901 -0.29187629352276168 1.07292304367206 57 81 103 280.682556 179.159073 6
0.96395209544820104 -0.34274969629514784 2.6576211661992808 241 245 255 525.533264 238.878769 6
1.2872575082965889 -0.65858305775080361 1.8526936002382239 229 255 198 650.944641 149.299225 6
-0.42132333942521294 -0.054991256797677246 1.0147395936226582 255 92 106 223.948837 265.752625 6
-0.14039344802638332 0.034210907314669498 2.6811303140625702 95 118 138 364.290131 295.612457 6
-0.51242748772787383 -0.029498828437025892 1.0317222208012176 255 243 244 191.103012 271.724609 6
1.3403301666792478 -0.28313408053645445 1.6151920783547435 243 255 236 698.720398 223.948837 6
0.26668386680690315 0.28980139169399144 3.3081315636643227 154 171 182 412.065857 319.500336 6
0.1106418677182055 0.043361185853583534 5.3027259629004728 255 171 183 391.163971 289.640503 6
-0.097283469508362863 0.56332784367692001 0.96894895373291412 255 202 203 343.388214 513.589355 6
-0.11081045410707868 0.5277261286812549 0.94006117925965382 19 19 255 337.41626 507.617371 6
-0.43358435083278435 -0.38379598371506074 0.88827624526440729 186 205 224 200.060959 125.411354 6
-0.22289542706038468 0.25484086436238634 0.91366491435661157 80 255 38 286.654541 394.149963 7
-0.35987174660896137 0.28129862924153659 0.95389030042403666 217 219 220 240.073166 401.316345 7
-0.45978785550759982 0.50709618290226399 0.91765684984667839 121 141 255 197.074982 505.228607 7
1.1720849063104457 0.4599830043810984 1.5648082557045235 112 255 79 670.054993 401.316345 7
-0.52694254075054037 -0.039131334381031113 1.0454813641253216 245 247 255 189.90863 272.321808 7
-0.1987179596691282 0.2402744939745981 2.4557395329839782 255 93 116 351.151794 318.903168 7
-0.16881962837196962 0.038693207214439834 3.0488531325102555 115 135 255 365.484528 297.404083 7
0.37776907993003594 0.35098439336266135 4.3795612599073976 255 154 173 415.649078 318.903168 7
0.13296241981547108 0.023852731227402113 5.2385062560181037 191 255 167 390.566803 290.237701 7
0.32651012502909138 0.515624060185782 1.0253026614657581 220 220 216 512.394958 480.146332 7
-0.32758395731477785 -0.20408818254951649 1.205036042474287 255 61 86 279.488159 222.157257 7
-0.29304194226888347 -0.2828841879197031 1.046147183506184 255 59 83 279.488159 179.159088 7
0.92937758723849018 -0.53341058515403139 2.7427904395694611 233 237 242 512.394958 214.990891 7
0.78825983623149609 -0.65804610947864173 3.328913159375988 235 238 243 476.563141 211.407715 7
-0.25166366603196533 -0.39559884719645955 0.9431755235757211 255 46 78 279.488159 128.994537 7
-0.31351221244619998 -0.41212498084525651 1.0152875761878892 99 123 255 261.572266 128.994537 7
-0.9695020718355325 0.25195140162267393 1.8410149112716683 255 206 207 179.159088 343.985443 7
1.1475558691254739 -0.33979644617394611 2.024695227511752 160 184 255 601.974487 225.740448 7
-0.88443363544379672 0.4864194392870243 1.1028125334101513 40 255 35 78.8299942 455.064056 7
1.1420071506067431 -0.65494073530495989 1.8289814940263165 255 217 223 619.890442 150.493622 7
0.96384172811310176 -0.32344579697641923 2.5979889305289374 255 239 241 523.144531 236.48999 7
