ply
format ascii 1.0
comment Written with hapPLY (https://github.com/nmwsharp/happly)
element vertex 82
property double x
property double y
property double z
property uchar red
property uchar green
property uchar blue
property float ix
property float iy
property uchar octave
end_header
0.54427194061423201 -0.32892433795458531 0.94530617726474819 233 236 240 604.800049 154.800003 1
0.049393734887664076 0.72074669039535044 1.7737603685645134 41 255 22 394.800018 445.200012 1
-0.16493331959076318 0.67321080196615424 3.1370311511866014 218 255 136 362.400024 369.600006 1
0.5874679569886907 -0.37324863529712604 0.66238995187311822 168 194 220 724.800049 73.2000046 1
-0.29775373673976224 0.60847065912863596 0.91557353678863418 161 255 119 258 543.600037 1
0.1780018711482747 0.14166710084125489 2.0300313246785056 249 252 255 417.600006 314.400024 1
0.52448081636988642 0.53502165907994226 0.80169409025166694 226 224 255 633.600037 544.320007 2
0.56237673401538579 -0.33172743935352367 0.90075982681819866 219 227 236 624.960022 144 2
0.54544134990595339 -0.35005173144519208 0.86857028625875543 255 201 216 623.52002 133.919998 2
-0.14131624304634416 0.59287819657484231 2.711059066260745 222 223 255 365.76001 370.080017 2
-0.29568657012286392 0.60149039588322339 0.90072486091195714 133 160 255 257.76001 544.320007 2
0.60286300776754875 0.08849581338413659 0.65965625466067568 252 255 244 734.400024 339.840027 2
0.49749442210385708 0.29148312417530897 0.91575208139811437 255 116 145 591.840027 410.400024 2
0.50706417596305542 0.59390081150689578 1.8128252333001349 206 207 208 492.480042 414.720032 3
0.59076356290635323 0.02004162389585773 0.81221087595073627 255 246 248 667.008057 298.944031 3
-0.18269185704042901 0.77984768497141177 3.2436894292534753 255 111 202 359.424042 380.160034 3
-0.23658574971915503 0.70082938470423928 3.2619668840534324 189 255 68 354.240021 369.792023 3
0.5812999437714983 -0.050384583089040147 0.72090459304954546 248 249 250 696.384094 260.92804 3
0.60788666010659931 -0.4488499888746551 0.77689856632844823 166 193 219 680.832092 67.3920059 3
-0.29568657012286392 0.60149039588322339 0.90072486091195714 134 157 255 257.472015 540.864075 3
0.4661428892879611 0.10290025381097645 0.96231703179626837 243 247 251 568.512024 330.048035 3
0.30943195130342493 0.23816207375657283 1.5513555843294364 241 247 255 461.376038 345.600037 3
0.04582576761707613 0.27107686897130401 1.1418634525397353 78 79 80 400.896027 381.888031 3
-0.15253184832975597 0.63871796789375068 2.9308651416066152 153 219 220 364.953644 371.174438 4
-0.258644047214593 0.68640701332529885 2.5070519865608629 154 255 22 346.29126 396.057648 4
-0.19620271930276889 0.68511817011664267 1.7574509824088533 124 255 22 342.144043 439.603271 4
-0.34990887231662171 0.72470088775603214 1.3250414967314272 118 255 69 282.009644 499.737671 4
0.57298601880077116 0.30778080312112388 0.7104684054720698 168 255 128 694.656128 456.192078 4
0.082955742284090084 0.66204826071550582 1.3000596360865675 95 255 90 406.425659 481.075256 4
0.52238317827595337 0.74556571776971459 1.2533592267467037 255 205 203 547.430481 518.400085 4
0.36647075844607624 0.71804494932335872 1.2700070966785191 189 180 255 493.516876 503.884857 4
0.46428259300245411 0.035686663697806487 0.97203479895548028 245 248 251 568.166504 302.745636 4
0.56157734589063835 0.03220753878045679 0.69337673712079884 251 255 245 694.656128 304.819244 4
0.4946169020119533 0.29029769622485002 0.91649679498196335 158 255 114 590.976074 410.572845 4
-0.1096534995177918 0.76410549057550403 3.0790753561568334 207 255 187 370.759735 383.201324 5
-0.4074396637642077 0.91448944247471542 4.1217119344677258 255 48 126 343.388214 378.224701 5
0.61253111171887209 -0.28506190044181146 0.81225740350669273 226 231 238 676.82312 151.787537 5
0.57617924360403361 -0.31078671680970327 0.81881879354900455 255 205 218 651.939941 141.834259 5
0.44950925551152521 -0.27746147684933575 0.92710990057543352 255 228 233 567.337036 171.694107 5
0.032292111356586606 0.231405698049161 1.9165107761123767 252 255 245 390.66629 333.434937 5
0.54131887244563814 0.21611400837827999 0.6710757093228219 207 255 202 694.241394 410.572845 5
-0.22048081998710689 0.72836513519198198 1.7196032438934621 255 139 156 335.923248 452.874298 5
0.57313522600879452 0.43151919865993282 0.71028544515582315 227 255 228 694.241394 520.05896 5
0.33366595809467214 0.3424282013869866 1.8170748199927971 191 190 255 457.850952 360.806458 5
0.37427191011714589 0.74230407662251596 1.1822806448992109 255 130 132 507.61734 525.035583 5
0.42504462236704921 0.71189757979734525 1.4170149227154516 135 136 133 500.152405 477.757507 5
0.49742783404197666 -0.11494037314375138 1.0495386044473358 255 247 248 567.337097 244.850739 6
-0.34178203743546431 0.75010009157036261 1.372930304469044 255 97 108 283.668549 501.645416 6
0.644026287848114 -0.30050401617382683 0.86228599836788256 237 255 223 674.83252 152.285217 6
0.52162802636284189 0.044806509444853204 1.0749991367213525 255 245 248 567.337097 301.584442 6
0.077128821460370922 0.64283270097120615 1.254295989533972 97 255 90 406.093903 480.7435 6
0.53558544862869661 -0.33903908828036622 1.147383408948552 255 228 233 567.337097 170.201126 6
0.56962065871310408 0.30916558037181507 0.71060572846425618 134 145 164 692.748413 453.869659 6
0.55928064729843019 -0.32925646975084588 0.88313604182690231 255 218 226 627.056763 143.327255 6
0.62788582541212223 -0.37836303131181215 1.221176711213241 240 255 230 582.266968 167.215134 6
0.38808698553335996 0.51456691237178964 1.8278361364135511 147 146 143 468.799591 394.149963 6
0.56788125331350447 0.39088725306814776 0.71803033007239581 113 124 145 692.748413 498.659424 6
0.553804144369342 0.3388914117150712 0.68628791165369396 231 231 231 692.748413 477.757538 6
0.048813775715376373 0.52227571702633102 1.6257665499768672 101 107 105 400.121918 406.093903 6
0.56740334727226371 -0.04938480090836761 0.7054937441966258 248 249 250 692.748413 262.766632 6
-0.2322971484387768 0.71949401378537847 1.7067192198866126 173 255 137 334.430267 453.869659 6
-0.27403753883852078 0.58763703119463839 1.9391063197594605 156 184 203 328.458313 409.079895 6
0.56930383072538882 0.14293234345450978 0.71041156940330108 166 167 160 692.748413 367.276093 6
0.35825836512429832 0.69750017391126151 1.2299972183340682 255 186 186 495.673431 504.631378 6
27.944521859283956 -28.280088557759456 70.783570445455055 233 255 209 534.491211 134.369308 6
0.56603190192456521 -0.11600475873523053 0.74423902370534201 245 247 255 673.638123 229.323624 7
0.67040121092507743 0.30731136116464997 1.6205354018958813 139 158 179 548.226807 354.734985 7
-0.31486918074725079 0.69249813788399051 1.2297054655521134 255 97 108 283.07135 501.645416 7
0.56555099222015492 0.14135745080938888 0.70487218686597863 255 201 148 691.554077 365.484528 7
0.57256967845597639 0.12643265754742572 0.7760031152502318 246 255 240 666.471802 351.151794 7
0.46622677507046517 0.44412474025619553 1.8425760178759738 142 128 138 476.563141 376.23407 7
0.55254143409206513 0.3366722616234582 0.68852560910284577 255 231 231 691.554077 476.563141 7
0.55860734314954397 0.051256779268783359 0.73867318765786205 252 255 245 670.054993 315.319977 7
0.54262630031290393 0.036916900078913351 0.76772680920856828 255 245 248 655.722229 304.570435 7
0.010024249967857779 0.18854087983690704 1.5335215839974108 252 255 245 386.983612 333.235901 7
-0.20560595658902825 0.71450236482889506 1.815589743417652 255 24 105 343.985443 440.731354 7
0.58254433933097771 0.29654429651333958 0.78730412719676846 169 255 151 666.471802 433.564972 7
0.53120917391139555 0.271847189355644 0.74633374574293487 255 153 156 655.722229 422.81543 7
0.076272324342757436 0.45141010122479408 1.9662095984324246 71 72 74 404.899536 379.817261 7
0.34877215599062961 0.27953166526697892 1.9022424933873774 246 255 241 458.647247 347.568604 7
0.070695485375122713 0.34443444525015909 1.6501538878441515 142 140 255 397.733154 369.067719 7
-0.12908563388546934 0.59720126929638229 2.6855875651830257 214 215 255 361.901337 372.650879 7
