ply
format ascii 1.0
comment Written with hapPLY (https://github.com/nmwsharp/happly)
element vertex 115
property double x
property double y
property double z
property uchar red
property uchar green
property uchar blue
property float ix
property float iy
property uchar octave
end_header
-0.242460896288339 -0.084474818298861498 1.4824129533961141 249 255 248 322 265 0
-0.24393004763678139 -0.44638753532076403 1.5096092783876687 237 255 215 322 175 0
-0.30066435342541142 -0.26939940708998111 1.2642061345484015 243 255 229 294 207.600006 1
0.42009982753151642 0.66127823171510247 1.1964103085794839 255 105 119 519.600037 499.200012 1
0.5742555013956061 0.048630605989085807 2.1363374226756546 255 246 248 487.200012 297.600006 1
0.88098275143732097 -0.065027520457696719 1.8414143886624839 251 255 249 570 273.600006 1
0.5839166866717127 -0.054003276017470014 2.6719393125098367 251 255 249 470.400024 279.600006 1
0.47529709868150927 -0.38135900809987799 2.2896231864592185 244 247 255 465.600006 223.200012 1
0.92957974619826278 -0.21512601189688207 1.9900326227087328 248 249 255 561.600037 246.000015 1
0.17189642611673372 0.64764945441680399 1.0519772360957704 119 131 152 444.960022 524.160034 2
0.61680288433381003 -0.17978618359247517 2.3317375662844064 250 255 247 486.720032 259.200012 2
0.78363496520312359 0.50655233453157011 1.6016136959174689 149 255 112 570.240051 407.52002 2
0.47708419190194773 0.66808642494438142 2.625173256389508 255 230 230 455.040009 385.920013 2
0.22234775046090038 0.091751452720884696 4.0950202287816442 255 152 173 403.200012 295.200012 2
0.80951109610009797 0.62966119547567723 1.5805960123211733 255 138 150 583.200012 442.080017 2
1.0131395099938714 0.51557541713302335 1.1174467535892072 255 120 140 731.52002 466.560028 2
0.97891003086341233 0.50937608652510113 1.1819779676871125 142 172 255 701.280029 453.600006 2
-1.9838465396215681 -0.56114268212713658 2.6812847811530487 255 151 149 99.3600006 204.480011 2
-0.2182604840105018 -0.081517877093912672 1.3057363819387575 248 250 255 321.120026 264.960022 2
1.0333696300056534 -0.2406342482942595 1.5648100077961971 114 131 154 636.480042 228.960007 2
0.82828952334021011 -0.51226882353238945 1.8518645348186347 255 229 235 555.840027 181.440002 2
0.51030258262640316 -0.39868381537988606 2.3245964078897741 244 247 255 465.120026 223.200012 2
0.28859622165333643 0.63873167159369715 1.5116082952670773 255 134 149 459.360016 447.840027 2
0.79280079147450455 0.61596639094318362 1.7594102312368589 111 255 91 558.720032 423.360016 2
0.46345014520921435 0.646960600536858 1.0385277986729085 108 119 136 552.960022 525.600037 2
0.47042271083101905 0.66201893356554709 1.0778075958002962 108 119 136 552.960083 525.312073 3
-0.2845666163882159 0.070456033814114694 1.8306320743824847 248 251 255 321.40802 304.128021 3
0.71722535463757797 0.34837378490696841 2.007551920900867 141 157 178 520.128052 354.240021 3
1.1609721166613989 -0.3173900259798178 1.2881551859952092 137 178 255 729.216064 190.080017 3
0.78869461539422847 0.61623052953634139 1.5291304393731089 140 152 166 584.064026 442.368042 3
1.0007296994214352 0.5235379068264725 1.2168925821749177 141 171 255 701.568054 452.736053 3
-0.55557162266891424 -1.32458027438295 2.2779972139590949 218 255 161 290.304016 65.6640091 3
1.0042929585952505 0.50805379811754003 1.2703198137047433 255 206 209 687.74408 444.096039 3
0.97516106991793383 -0.44255529482307288 1.5056818046964802 229 234 240 628.992065 176.256012 3
-0.1653992638527928 0.65633755164029328 1.0151862808380612 255 114 134 319.334442 534.988892 4
0.85120708922098043 0.5413286258994765 1.8070249670678109 106 124 139 568.166504 406.425659 4
-0.097955777974866542 0.50262721314428527 1.6551103696975238 84 255 30 358.732849 404.352051 4
0.8382606459555233 0.33300558013925818 1.9428967762046927 170 189 255 549.504089 352.512054 4
-0.42648792068927843 0.33918626856269862 1.6140842712378651 177 255 143 282.009644 369.100861 4
-1.9727606467024965 -0.55362151998380205 2.6670551958740436 116 124 255 97.4592133 207.360031 4
-0.57773020569266542 -1.3531506085544329 2.342593780731848 218 255 161 290.304047 66.3552094 4
1.0080179064688499 -0.4549685433096875 1.5741307141682768 229 234 240 628.300903 176.256027 4
0.83626007001795988 -0.5195752879989608 1.8834674799916487 255 229 234 555.724854 180.403229 4
0.55356274299373309 -0.22197410823166785 2.4621494915124549 249 255 246 470.707275 252.979233 4
0.71359130238761836 -0.080652900980508202 2.0145084756964335 250 255 249 518.400085 273.71524 4
0.74435437442395269 0.63348297943644283 1.6961120613734755 153 168 255 549.504089 431.308868 4
0.42397578386713541 0.66650888634231353 1.2276856431059135 146 255 108 518.400085 497.664062 4
1.1019078299344116 0.035883371896692717 1.2552914160498609 100 122 255 721.612915 300.672028 4
1.0041767465016416 0.3933532024981517 1.2300473390131952 129 255 101 698.803284 410.572845 4
0.49139193038927242 0.014489339753401553 2.1692403928303516 251 255 248 470.707275 292.377655 4
0.55392437690704677 0.00096514883278453478 2.0253929397144175 255 249 250 487.296082 288.230438 4
0.57839988250501717 0.63552984434485704 2.3279801054748015 104 109 255 481.075256 393.98407 4
-0.22911096607531034 -0.3182513648138966 1.4351532198184627 237 243 255 321.408051 205.286423 4
0.49170042840456119 0.69396396102538949 1.1322727838015112 108 119 136 552.407104 525.035583 5
-0.3758833210061705 -0.0019545465813883833 2.2766516003964803 244 246 247 320.993317 291.133484 5
0.17262050091875358 0.65545814124565793 1.0554069480514068 131 152 255 445.409332 522.547302 5
0.26965312410617059 0.16319781377552101 3.7771837053949495 162 255 88 410.572845 303.575073 5
0.54654001612937075 0.57360064733839844 2.1380126169699292 107 255 100 482.734161 393.154602 5
0.86095912095102034 0.66331199017374765 1.6729660067959271 164 255 135 582.266968 442.921021 5
0.77915924918097845 0.60172511648709892 1.7383338794971177 96 110 255 557.383789 420.526154 5
-0.21494965526848997 -0.087826264327402259 1.2761518015688722 246 248 249 320.993317 261.273651 5
-1.9727606467024965 -0.55362151998380205 2.6670551958740436 120 128 255 97.0444946 206.530594 5
-0.44440015002004873 -1.299923366297939 2.2723567938545077 219 255 168 306.063416 69.6729736 5
0.97516106991793383 -0.44255529482307288 1.5056818046964802 234 240 255 629.545044 176.670746 5
1.0571587358140022 -0.25411376602044999 1.6143339354788155 255 109 128 639.498352 226.437149 5
0.8718637706748722 -0.23486155729427016 1.8492957229656923 249 255 247 562.360413 243.855392 5
0.52503370990634268 -0.41825514897108751 2.4400898265385118 246 255 241 470.292542 218.972198 5
0.56571188540148443 -0.42671958445532365 2.0846832426787767 255 237 240 487.710785 209.018906 5
0.82131113055606253 -0.51612213458324052 1.8515647664755148 241 255 230 554.895447 181.647385 5
0.63513886009891452 -0.54389232197983262 2.17578582093559 255 231 235 495.175751 191.600662 5
-0.39774882323185645 0.066464754032796725 1.643003474740806 255 151 168 291.133484 303.575073 5
-0.33169145801926536 0.65474358717820935 2.8387834172415003 58 255 40 338.41156 375.736359 5
0.98158345636836231 0.51438376620995263 1.1877699869276368 143 172 255 701.70636 455.36261 5
0.35472166356760426 0.67017957196454547 1.483405868071535 255 133 149 475.269196 460.339264 5
0.27417506036848427 0.25219442752686638 2.200384221531249 255 67 125 427.991089 330.946594 5
0.74876322165418907 0.48629515461093209 2.1837231971211173 105 118 139 516.575317 376.23407 6
-0.36343905246437824 0.69605774978865764 4.8752920662888464 128 155 255 349.360199 340.402252 6
1.0103046511017593 0.54566621021406569 1.234146392358018 171 255 123 698.720398 456.855652 6
0.98551264512497205 0.49740502573584588 1.2329621740560341 173 192 255 689.762451 441.92572 6
0.1682417554236959 0.11023637178660339 4.4661798297432789 160 179 199 400.121918 295.612457 6
0.89831113287423392 -0.091116666830984572 1.8885247090912882 255 249 249 567.337097 271.724609 6
1.0374366866817328 0.61989569330320671 1.2228753979080613 255 118 135 707.678345 480.7435 6
0.99067279613456927 0.61114440736695219 1.320696399975362 255 120 136 671.846497 468.799591 6
1.0080179064688499 -0.4549685433096875 1.5741307141682768 255 229 234 627.056763 176.173096 6
0.88554345010460667 -0.55469339451073685 2.0306259754446554 230 235 241 552.407166 182.145065 6
0.6280599457429239 -0.52481309850608449 2.11681214545552 255 233 237 495.673431 194.088989 6
1.04324903220649 -0.32179976042612224 1.2628729023771612 179 203 255 701.70636 188.117035 6
0.41529297691343259 0.652422707655262 1.20932095494463 103 116 136 516.575317 498.659424 6
-0.15107891369375226 0.63001350670701151 2.0630833219162312 82 255 28 358.318146 403.10791 6
-0.30689172856096558 0.68081290799595762 2.6563218884381072 126 142 255 337.41626 385.192017 6
0.57812429627489581 0.65074806411641872 2.3989893583778388 114 117 120 480.7435 394.149963 6
0.80104321252855692 0.62360921666276825 1.5919188338834385 255 127 138 579.281006 441.92572 6
-0.47120960256847821 -1.3176836158702443 2.3020302186564345 166 192 219 304.570435 68.6776428 6
0.86245261023790776 -0.44552782416014813 1.6113341960341625 255 216 228 587.641785 179.159088 7
0.81685939548556474 -0.52381971702415453 1.886964476326833 255 230 235 551.809998 182.742264 7
0.80356908927732729 0.68943432599530197 1.8917761781111446 255 131 142 551.809998 429.981781 7
0.78783887838583566 0.5556227926954973 1.8205929505291873 255 135 146 551.809998 404.899536 7
0.19205535422003872 0.12128985220477706 4.0536588972662386 178 199 255 401.316345 297.404083 7
-0.36841705516217038 -0.84054621152792475 2.2522565354633688 230 255 192 322.486359 139.74408 7
0.78544565368141117 0.045555757338414715 2.0373703648434986 170 186 255 537.477234 300.987244 7
-0.3638112219775862 -0.68505641874022649 1.6710440006561207 209 229 255 297.404083 128.994537 7
-0.73631735220419836 0.68645712220027166 6.2618361338345192 23 94 120 340.402252 329.65271 7
-1.9244821089882334 -0.54550100033829974 2.5798596625277437 117 116 123 96.745903 207.824539 7
0.4143156458852526 0.66260786233322155 1.2224916708352422 123 139 156 508.811798 494.479065 7
0.55407493882011716 -0.44075396648800369 2.5706952723225429 243 246 255 469.39679 218.574081 7
0.63077615248176255 -0.52825612643921371 2.1667955839596971 243 255 234 494.479065 193.491806 7
0.41013838363765021 0.66777795094692705 2.5940082930720481 255 184 196 447.897705 386.983612 7
0.81229436171329894 0.42284258016860055 1.6062289349486978 152 167 255 573.309082 386.983612 7
0.63351258271049682 0.44543098869469711 1.842660867113195 255 100 114 515.978149 376.23407 7
0.94333541452010417 0.59661735922466197 1.4758902035244255 183 255 143 630.639954 444.314514 7
0.98267642458310345 -0.43786932280166324 1.5290589159570578 255 228 233 627.056763 175.575897 7
0.81229879502222579 0.62714232609797183 1.6145208742131789 133 146 161 580.475403 437.148163 7
-0.3418219717519464 0.68163030581206463 3.262897013083192 38 47 56 336.819061 369.067719 7
0.33924384231081084 0.80085589799706769 2.0988586494940948 255 153 171 447.897705 440.731354 7
-0.47374904374134985 -1.325162700872359 2.2806641306398934 166 192 219 304.570435 68.080452 7
