ply
format ascii 1.0
comment Written with hapPLY (https://github.com/nmwsharp/happly)
element vertex 84
property double x
property double y
property double z
property uchar red
property uchar green
property uchar blue
property float ix
property float iy
property uchar octave
end_header
1.1365276420968615 0.51990240613479322 1.4659628744946769 209 255 206 682 423 0
0.42783423260036435 -0.063838712031205891 2.4794652808071627 178 255 79 450.000031 277.200012 1
1.1962469608489343 -0.41532585545597056 1.7179603309182419 255 228 234 651.600037 198.000015 1
-0.35626861884162242 -0.079788136427407563 0.41177173403956147 255 17 28 51.6000023 213.600006 1
1.1257855459407362 -0.4962654419958995 1.7875889306314781 255 233 236 627.600037 182.400009 1
1.185667809695564 0.31923199219777976 1.3096150092906935 118 134 149 732.960022 380.160004 2
0.5982540898875699 -0.56351649666180015 3.8253214973570451 145 255 54 446.400024 230.400009 2
0.17885131967926937 0.61376922905223785 1.8420300039818889 140 154 173 420.480011 414.720032 2
1.1418982523208667 -0.37790182265957151 1.733033299659164 255 148 173 639.360046 205.920013 2
0.2280527330136406 0.63568787460726106 1.5693109443688904 27 36 53 440.640015 444.960022 2
-0.48932428458410993 -1.3816912663835033 2.9207778637936945 172 170 255 321.120026 108.000008 2
1.2368706403538008 -0.033993494375626793 1.3386301706739525 183 255 119 738.720032 277.920013 2
0.97160528649175815 0.33836697350049644 1.7044137903135521 95 118 255 601.920044 361.440002 2
0.86018489822565103 0.53203935166186245 1.880900009622021 61 71 255 557.280029 394.560028 2
0.58193138682914358 -0.44014916719207586 2.8772036379214967 255 242 244 463.104034 228.096024 3
-0.49136118640929061 -1.3540066973289551 2.858305647414662 160 158 255 317.952026 108.864014 3
-0.076384118841940074 0.6544222679787105 1.5340800495939879 161 155 255 361.152039 452.736053 3
-0.7535825768586748 -1.7952376793312084 2.8215522741623174 79 98 255 281.664032 43.2000046 3
0.79874857984687475 -0.56181514238382191 2.458537481976653 255 230 236 511.488037 200.448013 3
0.84874966948327457 0.70345125383825102 2.7365068507406951 170 255 132 502.848053 388.800049 3
19.084079050065839 -31.095648137203199 58.44956955197047 198 221 255 509.76004 84.6720047 3
0.71445255604113433 0.58908931185100122 2.2430593764269773 153 173 255 505.958466 387.763245 4
0.57170901540574381 0.62614933886820801 3.0800514606923164 152 173 193 456.192078 367.027252 4
0.99531009940766735 0.3458166597456257 1.7572093915923208 99 120 255 601.344055 362.880066 4
0.53905228083453882 -0.45201501943008315 2.5629657410307836 216 223 232 460.339264 219.801636 4
0.61247172164729635 -0.57649628519781682 2.7024502650675641 245 255 240 466.560059 207.360031 4
0.80173140830343348 0.60689599767844427 2.2651652095851427 132 148 166 520.473694 391.910461 4
-0.14260853761618764 0.49291007161222355 2.1425112133207413 153 255 147 358.732849 375.321655 4
-0.3721122077195802 -0.89479086038508093 2.8782077384794205 255 174 184 331.776062 170.035217 4
-0.46893441531210511 -1.3456626283911004 2.8659492030025406 174 173 255 321.408051 103.680016 4
0.33232380324119948 0.62088403174173323 1.6568578340510971 178 255 141 462.412872 435.456055 4
0.37181799142835281 0.60726319025082143 1.7451379160337925 158 167 184 464.48645 420.940857 4
-0.42220435269283518 -1.803904963795022 3.0357575671872592 181 179 255 329.702454 60.134407 4
-0.35463376401974278 -0.2630737102910935 0.40772981525449481 255 61 79 51.8400078 41.4720078 4
1.2054523749171013 -0.4092089249615084 1.7448287483753742 235 241 255 649.036865 199.065628 4
1.0673985286923684 0.3840590657098768 1.7140675397689806 134 153 183 624.153687 375.321655 4
1.0068226533076403 0.3632330370825026 1.6039796222580991 129 148 179 624.56842 373.248047 5
1.1380522295247593 0.59163421602237709 1.5049222899822698 125 142 171 676.82312 435.456055 5
1.1722416464218126 0.55709281443699021 1.5113697297586741 145 172 255 681.799805 427.991089 5
1.1312134709747976 -0.51345669400168625 1.8189730758171772 255 232 236 627.056702 181.647385 5
1.0869185232090572 0.61777660081821373 1.4262556748563036 255 9 13 679.311462 452.874298 5
0.68407362459406373 0.59015363064291182 0.96948972536697209 107 107 103 656.916565 525.035583 5
0.22868850941351471 0.63354499763156602 1.5587398072778011 22 42 255 437.944397 445.409332 5
0.54924378445999222 -0.48477884034594509 2.708559338697242 216 223 231 460.339264 218.972198 5
0.86050667151759175 -0.59095906053264846 2.5909203683119255 230 236 242 512.593994 199.065628 5
0.4577095663228159 0.65479196023175534 1.7302238836493 255 132 145 487.710785 432.967743 5
-0.2393938079738116 -0.019994076692324281 0.38414731994840912 160 255 113 146.810898 268.738586 5
-0.060057226167252065 0.081437035992793949 1.7916395768870634 150 255 0 370.759735 308.551727 5
0.16484973792004554 0.063910183477803972 5.0156599318648816 255 130 152 395.642944 291.133484 5
-0.48770748782944473 -1.3566023558872384 2.8235152141283733 150 160 158 316.514374 107.495445 6
-0.24114230949761684 -0.23700503325585665 0.3937481303071646 155 255 109 146.313248 56.7337074 6
0.57589901582020087 0.63472365896662541 3.1427551972983139 152 173 193 456.855652 367.276093 6
0.41381037859710257 0.52294769611991376 1.7917518913085457 155 166 181 468.799591 394.149963 6
0.33863440927021582 0.60374115398659123 1.5964660071828574 255 146 159 459.841614 429.981781 6
-0.23822556596318423 0.33359078876196374 2.9191532102526114 180 171 255 349.360199 337.41626 6
1.0909582368201298 0.56478116632654218 1.430535406297694 171 255 127 674.83252 435.953735 6
-0.11052522116882457 0.6899693059745462 1.6546899125572967 141 255 136 358.318146 450.883667 6
27.716020978574914 -28.647588818457116 71.331293636435035 255 204 217 531.505249 134.369308 6
0.56667327214347463 -0.48187750367710169 2.7805513301358573 255 196 207 459.841614 217.976868 6
0.77863603381036328 -0.53514890403716553 2.3284699335710668 242 255 230 510.603363 200.060959 6
0.60921937339043497 -0.56813461042032043 2.7393087764690138 239 241 245 468.799591 209.018921 6
-0.19011662739147317 0.21160526953360892 0.39442654253252662 84 105 127 200.060959 492.687439 6
1.0259674168911723 -0.21843275328583112 1.6423035084667266 128 157 180 624.070801 235.892776 6
-0.47761560962011362 -0.83509960610825607 2.7562879232113557 155 165 163 316.514374 167.215134 6
-0.19844284742072293 -0.24179684001913726 0.40190163545449753 255 13 22 191.103012 56.7337074 6
-0.43155270934918999 -1.8149065928837551 3.0767141955556472 171 182 180 328.458313 59.7196922 6
-0.24583625755685867 -0.02258420898779645 0.39853056918355012 160 255 113 146.313248 268.738617 6
-0.18011922950689074 -0.053617113875265854 0.38935572970262733 88 99 255 209.018921 229.920807 6
0.17247251819680476 0.55050364579031075 1.9736159355456806 99 120 255 421.023834 394.149963 6
0.79575274957718811 0.60862167047042037 2.2824974121650019 255 132 148 519.56134 391.163971 6
-0.691418852039825 -1.7280058934449631 2.9208029619109199 179 187 190 292.626495 56.7337074 6
0.15776737114150396 0.073945745681309849 4.9362713457380565 174 255 124 394.149963 293.820892 7
-0.25067998926447377 -0.024952028508301305 0.41417505664141929 160 255 113 146.910446 268.738617 7
-0.27443411120202299 0.70725890058209329 3.4527111724337995 255 167 177 347.568604 365.484528 7
1.0556965410336678 0.26216565084836624 1.7511874897406656 98 121 141 616.307251 347.568604 7
0.32600218021983363 0.55593877842799455 1.5603413657195224 186 255 158 462.230438 419.232239 7
0.10431223577034721 0.6540464760024115 1.2747568152927853 216 215 212 408.482697 483.729523 7
0.096203902098932481 0.74722148582261305 1.7065843362367188 119 133 158 404.899536 458.647247 7
0.79050593353367016 -0.27944091688418427 2.2124687531810734 255 241 244 515.978149 243.656357 7
30.628601795986992 -30.625820473424 60.041961339220158 161 192 220 580.475403 93.1627197 7
0.79292336955809839 -0.56046826177637787 2.4716130847145887 230 236 242 508.811798 200.658173 7
1.2103199775567841 -0.41546766679070757 1.8022729489358946 234 241 255 641.389526 200.658173 7
0.18336543642975434 0.55595342783370461 1.9978249331024385 255 75 99 419.232239 394.149963 7
0.98297509760223667 -0.49526715198871285 2.1785777510014315 241 255 224 558.976318 200.658173 7
