ply
format ascii 1.0
comment Written with hapPLY (https://github.com/nmwsharp/happly)
element vertex 82
property double x
property double y
property double z
property uchar red
property uchar green
property uchar blue
property float ix
property float iy
property uchar octave
end_header
0.42283878938878061 -0.38307077953857971 2.4015915793395139 160 176 255 453 226 0
0.79414339509840559 -0.238639704957608 2.2946906985147812 243 245 248 516 249.600006 1
0.41682357631433242 -0.069421284498938696 2.4969440395957951 255 64 117 447.600006 277.200012 1
1.1073881260024043 0.50614847407119501 1.4705396049148911 208 213 255 673.200012 418.800018 1
-0.082787071017049962 0.65162854956806837 1.5846966654186261 149 255 149 362.880005 447.840027 2
0.82770395918399542 0.38852140130108104 2.6236515779170251 157 255 126 502.560028 345.600006 2
-0.27898535061486074 -0.38949225036520096 2.2666331427261426 173 255 164 334.080017 221.76001 2
-0.36034957019067715 -0.083150566550062199 0.45752674543269034 60 255 34 82.0800018 217.440002 2
1.2215995847105634 -0.038262313540553872 1.372226799061476 255 110 139 727.200012 277.920013 2
0.95801875624469202 0.3313828196143257 1.735718369372397 94 105 127 596.160034 360 2
0.54498849351903589 -0.41441106769138358 2.7248923934030715 242 245 255 461.376038 228.096024 3
0.59889604238058713 -0.58280051295889124 3.9746575563051953 110 141 255 445.824036 231.552017 3
-0.46889819256834731 -1.3418895287228725 2.8706187143600692 255 168 178 319.680023 110.59201 3
0.98175644647817939 0.3384287261032789 1.7886025575731965 91 103 126 596.160034 359.424042 3
0.21966962786744415 0.61832886685594868 1.5712196275361379 38 255 16 438.912048 438.912048 3
-0.21203427692542132 -0.25124474014710219 0.46476444884945511 255 116 137 207.360016 77.7600098 3
-0.81170192814683562 -1.8665245305402904 3.0498602048946806 255 80 107 283.392029 50.1120033 3
1.1481204482103409 -0.036020109550929047 1.2718355179923373 144 180 255 729.216064 276.480042 3
0.50162411104934534 -0.42408490594320825 2.4227926164867046 239 243 255 461.376038 219.456024 3
1.0459574893381929 -0.0066480384729024067 1.8344375763772947 255 108 122 603.072083 288.576019 3
1.0427272843843327 0.37292319189117629 1.7194448206742443 184 255 139 618.624084 373.248047 3
0.85681649007014871 -0.60038868041616966 2.6614126507261631 255 229 235 503.884857 201.139221 4
0.76665147484805152 0.58885076337738085 2.2199239004471858 166 255 131 518.400085 389.836853 4
-0.49765566942015882 -1.3603030882148393 2.8947976419432129 255 169 178 319.334442 109.900818 4
1.0760952125310492 0.61030197053861168 1.465290374044689 13 30 255 669.772888 447.897675 4
0.66041899950076588 0.54914076429056524 2.4633374536314907 208 211 255 485.222473 373.248047 4
1.1440933084644067 0.49519366810009813 1.306517875110667 144 171 255 717.465698 433.382446 4
-0.1494070588670624 0.48577706724581016 2.1777597487249043 166 176 170 356.659241 369.100861 4
0.22796286717143666 0.64564675071959887 1.6663015160811305 22 34 255 437.529663 439.603271 4
-0.24223023765595642 -0.023379667385442227 0.42781869848243392 255 111 130 167.961624 269.568024 4
-0.79940943672761611 -1.8253417573148787 2.9842511223828438 124 255 51 282.009644 51.8400078 4
-0.42797452352298082 -1.8085886080815081 3.0709432594089678 164 161 255 329.702454 62.2080078 4
-0.35864534569834561 -0.26711664467712781 0.45332906398408968 63 83 103 80.8704147 64.2816086 4
2.0232306318666868 -0.47932747509442486 2.7802273133901272 156 184 255 661.478516 226.02243 4
0.70924577735264416 0.58804156917110051 2.3096146659406704 255 137 151 499.737671 385.689667 4
18.978377988876662 -31.15029030568348 58.432294164319103 220 255 178 510.105682 85.0176086 4
0.14859143687349285 0.054880187258192548 5.1153085904228242 255 128 148 395.642944 291.133484 5
-0.38534725698688055 -0.028078028096541141 0.44387728678239746 89 111 255 49.766407 263.761963 5
-0.49601422171238108 -1.3642909790915145 2.8620245290441089 176 255 172 318.505005 109.486099 5
0.20695380086217918 0.60186840790096474 1.5233790872770667 52 59 255 437.944397 435.456055 5
1.1262681488982631 0.58393317345263251 1.5427657524878153 140 168 255 669.358154 430.479431 5
1.1543520207411579 -0.43692636273171359 1.898947811276547 255 231 236 619.591797 199.065628 5
0.17042815690336499 0.65141163253867107 2.0764282757910859 255 135 148 415.5495 410.572845 5
-0.41436268679866117 -0.89220364829394438 2.8996053015242422 255 158 169 323.481659 169.20578 5
0.54482276762324355 -0.49949594746172421 2.8260663552830012 213 221 230 460.339264 218.972198 5
-0.69833380398733125 -1.7371534942615847 2.9635289692801789 161 176 255 293.621796 59.7196884 5
-0.44356537426479692 -1.8303653100410888 3.1394255923799701 164 255 154 330.946594 62.2080078 5
-0.19874356424269246 -0.018443015554899078 0.39316327080532831 165 255 124 194.088989 268.738586 5
-0.24935146369703265 -0.025949582473445809 0.4439010055468473 133 163 255 169.20578 268.738586 5
-0.064508384355441262 0.075735843866992947 1.8257572511782012 151 255 134 370.759735 306.063416 5
1.0588751036230539 -0.46706173425403774 1.7175743176944422 255 236 239 619.591797 186.624023 5
0.76774974195455048 0.58230380158718098 2.2388267311610841 134 150 167 520.05896 388.177979 5
0.98109211368053895 0.35235001268301602 1.6060680427899374 255 129 147 619.591797 370.759735 5
0.56699315541759665 0.63106665876690293 3.2008978552606893 143 167 188 456.855652 361.304138 6
0.40037962293844132 0.50793457623545224 1.7965184644455396 155 176 255 465.813599 391.163971 6
1.0810235344966457 0.55820075789189338 1.4711273446837163 141 169 255 665.874573 432.967773 6
0.55920503565237878 -0.48784709474233368 2.8393959113822298 255 191 203 459.841614 217.976868 6
-0.19414421279443461 0.207667261232371 0.43843604935502833 133 255 88 214.990891 468.799591 6
-0.2445736813937871 -0.24076307309155703 0.4385909470016891 255 106 125 167.215134 77.6355972 6
0.45179258785880694 0.65049445285926855 1.7782898192917305 138 151 172 480.7435 429.981781 6
1.0179817812500753 -0.22135531055821422 1.6832615679725809 171 255 118 618.098816 235.892776 6
0.99248941561869386 -0.29931499875479628 2.0738055319882864 248 255 245 570.323059 235.892776 6
0.78645187139387307 -0.57218085116951434 2.5228640444940797 229 235 242 504.631378 203.046951 6
0.81844575450775325 -0.27483134900965855 2.3952972158900598 241 244 247 516.575317 244.850739 6
0.33208806408045688 0.59800033526225749 1.6392927318915067 146 255 118 458.647247 426.398621 7
0.31217663543928587 0.54178762017283955 1.5595948630514913 255 146 158 455.064056 415.649078 7
1.2020763250772886 -0.41864980479824565 1.8438438675725966 212 255 185 630.639954 204.241348 7
0.087781023051305862 0.73970828275113909 1.7431181209074724 147 170 255 401.316345 455.064056 7
-0.18830871723928411 -0.058984156861520365 0.45305333971976181 19 255 0 222.157257 232.906799 7
0.79767095545543132 -0.27512629894110585 2.3039070797789609 255 241 244 515.978149 243.656357 7
-0.19969682702184377 -0.24116448037867227 0.4369419187875585 117 138 161 204.241348 78.8299942 7
-0.070177150464479032 0.079825807999600928 1.8579028593193616 152 157 255 369.067719 308.153625 7
0.80827095787402214 -0.59617740926234764 2.6793063944043825 235 241 255 501.645416 200.658173 7
-0.528837703717147 -1.3843036721705588 2.9304321601322503 255 179 189 315.319977 107.495445 7
-0.25288342114562301 -0.028336318470658206 0.45597344461011957 112 130 160 168.409531 265.155426 7
0.39770975354064353 0.37281370933789726 3.4335925291972824 171 193 255 429.981781 322.486359 7
0.18767443171596332 0.62912235622526813 2.4617127756453225 255 73 94 415.649078 390.566803 7
-0.11535611926277389 0.6763471200520188 1.6735626229444751 255 158 170 351.151794 444.314514 7
1.1707635182899871 0.56216502771986343 1.5958336423042301 168 255 123 662.888611 429.981781 7
1.0591567542610907 0.25575605207600871 1.8269246360650557 115 145 255 609.140869 343.985443 7
0.53670026130609139 -0.4869744259154809 3.1711360465318448 49 111 142 444.314514 232.906799 7
0.28005571129683604 -0.22589207435095759 1.3486315974571861 217 255 168 458.647247 218.574081 7
