ply
format ascii 1.0
comment Written with hapPLY (https://github.com/nmwsharp/happly)
element vertex 186
property double x
property double y
property double z
property uchar red
property uchar green
property uchar blue
property float ix
property float iy
property uchar octave
end_header
0.23226543280076578 -0.68628342704863388 3.6823548440475609 99 127 255 409 217 0
0.22122749312448969 -0.75398584499497812 3.3733241167002417 106 135 255 409 202 0
-2.5379631806455389 -2.5669340336839865 3.9182914274288891 88 121 167 136 37 0
-2.462539524047215 -2.2645496329551653 3.6556434900278023 91 126 170 124 49 0
0.17570592574370941 -0.25447178581310592 3.7431554920509438 255 85 106 403 262 0
0.76020349319358005 -0.14340474644219267 0.89800341631231584 228 234 255 709 229 0
0.74505306528932569 0.38646085916826084 0.9777993569237553 122 133 151 676 439 0
0.75852827474713314 0.31670082861228349 0.96845767593025922 173 175 255 685 412 0
0.87591605819967766 -0.18561265188877674 3.5676432832847675 94 255 22 478 268 0
-0.22048670751675337 0.23935832834826176 0.39441693310452092 150 141 255 169 520 0
-2.619170499010484 -0.30751824951041773 4.0209202824311783 233 235 237 136 259 0
0.81149643641585001 0.10519440696640769 0.91090296409345894 255 98 104 727 331 0
0.76088184142598059 0.22349897198831181 1.6044452790794388 114 133 255 565 343 0
-0.14971411756553343 -0.24921234412430304 1.2550085277871883 99 120 145 340 211 0
-0.22450531555558861 0.13108722221924041 0.36995585942330206 255 177 182 151 425 0
0.79371516406014231 0.34538138445786504 0.90482137850508337 185 188 255 721 433 0
0.53236636267407633 0.40156026553858976 0.60579287059921461 55 64 81 720 544 0
0.070866936115580592 0.36770713746190226 0.54130468825435474 255 181 180 435.600006 549.600037 1
-2.530898781260936 -2.2761955956801083 3.7885691113411384 255 96 129 127.200005 55.2000008 1
-2.4361577252756628 -1.0724618584593804 3.5925914238250463 255 222 224 123.600006 171.600006 1
-0.24961325193676753 0.031054122643956114 0.6529699138779903 214 215 255 237.600006 307.200012 1
-0.065082649511557511 0.26513942266305079 1.0397862001072191 179 184 255 361.200012 387.600006 1
-2.4851733176447595 -1.6220859764892734 3.8933217439493975 255 183 193 139.200012 127.200005 1
0.83123731570500969 -0.82627921186601427 3.6570298521677356 255 34 76 471.600006 204.000015 1
-0.1607698782650584 0.39058038956719848 0.87776495110161845 73 96 255 313.200012 457.200012 1
0.88278626820323947 0.15438095995152221 1.5109257228965918 72 87 255 609.600037 327.600006 1
-0.14063561406029135 0.071729074964723319 0.95158852332024679 97 119 255 325.200012 315.600006 1
0.75527354608162778 0.17729857003290586 0.91785409608903024 255 87 113 699.600037 362.400024 1
0.74422615591570884 0.38671698608875443 0.97607263495689578 255 108 119 675.600037 439.200012 1
0.45326916983475185 0.43202183009042117 1.3395803877421764 142 144 149 516 412.800018 1
1.530275598792739 0.18580346312744594 5.2041488386775709 97 255 35 498.000031 303.600006 1
-0.059776427456828207 0.39216484275680702 0.79496112228976146 87 97 114 352.800018 477.600006 1
-0.07980051808656996 0.38092009308902536 0.83795182491843934 93 113 255 349.200012 460.800018 1
-0.0078368402193224052 -0.36193050722753839 1.3517142015769417 220 255 185 382.800018 184.800003 1
-2.5474908169731689 -0.97282305228323163 3.7395939506574249 222 228 255 121.200005 187.200012 1
-0.24766229565674891 -0.53349067035097986 1.3480911622615575 255 143 170 315.600006 135.600006 1
-2.6046707415905805 -1.8634946417265947 3.8816462028920773 255 167 180 127.200005 105.600006 1
0.7913149564436317 -0.15126304675023222 1.589656994563452 136 144 255 573.600037 252.000015 1
0.78470171646571241 -0.11414370932719328 0.90372116529453084 229 235 255 717.600037 237.600006 1
0.81404420290554635 -0.14354622940202572 1.7074250359272249 37 42 255 565.200012 255.600006 1
1.3900310009372796 -0.19425690065257828 5.0102844624111436 70 97 255 493.200012 273.600006 1
-0.17103623190757555 0.40719754099221572 0.98548683780169144 255 55 69 315.600006 448.800018 1
-0.057646798958694401 0.40286504924613259 0.61873273246588223 124 136 255 345.600006 537.600037 1
0.79470077846054332 0.3444000280149378 0.90654763666822513 185 188 255 721.200012 433.200012 1
0.55118690489581268 0.4113759051517607 0.63597370164735134 59 79 255 717.600037 535.200012 1
0.4134832567408957 0.34711553112341909 1.4893548849799472 106 122 255 489.600006 379.200012 1
-2.5826471499245263 -2.174562993293045 3.8664771836683021 177 255 105 126.720001 70.5600052 2
-2.3985147161857414 -0.37921372997484043 3.7632821794640114 236 255 229 138.240005 250.560013 2
-2.6138322948775659 -0.38666598528699381 3.8304112392718981 236 255 229 122.400002 249.12001 2
0.1663794181993134 -0.24701205011834704 3.6425560356460465 255 85 106 403.200012 262.080017 2
-0.22480285546819556 0.10755516397662628 0.40107674194129139 186 192 187 168.480011 390.240021 2
-2.328197859373943 -1.3263243410071073 3.793890284648437 213 255 186 146.880005 154.080002 2
-2.5922724613734704 -1.687783727827185 4.0402001295925709 209 255 186 138.240005 125.280006 2
0.78175528820029294 -0.14791413935264039 1.0401339487212526 231 236 255 673.920044 230.400009 2
0.76231663893310253 0.27210643683588137 0.97866518427983618 46 49 71 684 394.560028 2
0.75530019882928789 0.39007455624494369 0.92449062568978435 99 107 126 696.960022 447.840027 2
-2.6053275189830907 -1.1957211262892331 4.0457812697310791 226 255 217 138.240005 177.12001 2
-0.24270926205355037 -0.52944139079625085 1.333692321039893 255 143 170 315.360016 135.360001 2
0.35113986532185215 -0.92625437042820391 3.177026246924072 40 82 114 424.800018 177.12001 2
0.81334275727252237 -0.39036880602264934 3.6794796579043116 99 255 34 470.880005 247.680008 2
0.35010810138741039 -0.56449518710738833 3.4572349807240426 86 117 255 421.920013 226.080002 2
0.87941668893902325 -0.18711862773564969 3.590794072157339 99 255 24 478.080017 267.839996 2
-0.18722396447910383 0.39186544249869204 0.61756089589912944 160 167 168 264.960022 529.920044 2
-0.19397113547408906 0.414712522181097 0.78028904549874001 185 255 184 290.880005 493.920013 2
-0.13345151428037594 0.054139921089550354 1.2338862976698104 101 123 255 341.279999 303.840027 2
-0.22831201460968897 0.10847586335348007 0.44002342097345692 192 188 255 185.76001 384.480011 2
0.22400475252580276 0.18806677599103103 0.48107546188489581 61 81 255 561.600037 439.200012 2
0.76843988800511775 0.075919138663836247 1.6041609927777609 255 60 75 567.360046 303.840027 2
-0.23281409333677827 0.16146806516450488 0.44713902172066122 118 130 132 184.896011 428.544037 3
0.50559937643715924 0.30314337152064852 2.4033448549107006 255 21 78 463.104034 336.960022 3
-0.7079074446714162 0.4229548670939991 0.95392343025797488 164 170 165 100.224007 461.376038 3
-0.22730783694012024 0.21147865796904647 0.43856550571741759 177 182 175 184.896011 476.92804 3
1.3858856071630068 0.1583404568748665 4.6610681503909106 76 98 255 497.664062 302.400024 3
0.24060555765309044 0.19153518086926102 0.71163050098364899 132 255 91 514.944031 392.256042 3
0.4055656513741186 0.34338937955542542 1.4894166973845537 107 122 255 489.024048 380.160034 3
-1.5981752025762153 -0.55871272722153564 3.5816425294719441 212 255 211 210.816025 228.096024 3
-2.5048656034211296 -0.93998160095256389 3.9219064075080001 229 255 219 138.240021 195.264023 3
-0.058300235109657761 -0.47770356179369738 1.2532035781031112 204 255 148 366.336029 141.696014 3
-0.25585969923960661 -0.50417406755781724 1.3043518806290171 172 203 255 309.312042 138.240021 3
-2.765849265550036 -2.2369911127875772 4.0515246153042677 110 140 180 124.416016 76.0320053 3
-2.6446510529384817 -2.4107206634117992 3.9024176464886655 92 126 170 124.416016 50.1120033 3
-2.3698176455114468 -1.3357675486362011 3.8582074411535552 213 255 186 146.88002 153.792007 3
0.80919729286374398 -0.14216535914620396 1.6907987684840287 37 42 255 565.05603 255.744019 3
0.78636130119167447 -0.14689576597168022 1.037738623897601 231 233 237 672.192078 233.280029 3
0.23135420946774216 -0.76615905064463896 3.4957533938120187 255 59 94 407.808044 202.176025 3
0.66270532338890997 -0.88061407887098797 3.3512050237562301 255 24 75 459.648041 190.080017 3
0.15810319994948935 -0.25794361482865569 3.6411497467973386 139 153 168 400.896027 260.92804 3
1.4751598045884742 -0.20418037129203442 5.3599726263272878 34 69 96 492.480042 273.024017 3
-0.086571682887955581 0.39410869416522709 0.86344815035055411 255 81 93 347.328033 461.376038 3
-0.16905431899026946 0.40141941220430566 0.90933725432428447 61 73 95 312.768036 456.192047 3
-0.19280170129162344 0.39574523380335846 0.62586032752830045 160 167 167 264.384033 530.496033 3
-0.18324700751109624 0.40563786417159514 0.76336273455525427 182 187 184 292.032013 492.480042 3
0.73709457236505782 0.37475470309811332 0.90265898039559245 99 107 126 696.384094 447.552032 3
0.7300852735612775 0.38096258455984605 0.96240224867469171 103 119 255 673.920044 438.912048 3
0.55149468006521629 0.41254333392645737 0.6392336511352299 42 64 255 717.120056 533.952026 3
0.78661135071901112 0.060347157195528391 1.6705654967688428 87 255 51 566.784058 302.400024 3
0.7456075302043228 0.1460263704764326 0.91581343621526112 182 255 190 698.112061 349.05603 3
0.77813155914517262 0.025489094228024818 0.96147185595216444 233 237 242 696.384094 297.216034 3
0.64739792770867677 0.32939465300384119 1.3431463204678686 96 255 65 566.784058 380.160034 3
1.1869135051445099 0.25818387302760348 3.3209307883913111 84 255 46 518.400024 316.22403 3
0.80109316151621546 -0.89976231040138488 3.3960788878051176 255 20 78 475.200043 188.35202 3
1.3858856071630068 0.1583404568748665 4.6610681503909106 255 41 80 499.737671 302.745636 4
0.20323349944205102 0.35932882273017702 1.2026766441500745 255 47 69 447.897675 404.352051 4
-2.5430229496098566 -1.1602307362614024 3.9462796900895896 217 220 227 136.85762 176.256027 4
-2.5864850828729056 -0.5438391392158799 4.7839751377206809 55 74 97 172.108826 246.758438 4
-2.4706623127050191 -0.36093684536704174 3.6674404820920432 229 232 236 124.416016 250.90564 4
-0.26181125699672536 -0.51186117724542035 1.3229293678387453 145 172 203 308.966431 138.931213 4
-0.10202004753432892 -0.57633770348447544 1.3343476155722203 139 165 197 352.512054 120.268814 4
-2.7833632949928644 -2.5410047200084915 4.0920077046341454 91 126 170 124.416016 49.766407 4
0.78388485648037465 -0.13548301988424272 1.6292097668289651 58 255 27 566.092896 257.126434 4
0.78315504148316994 -0.11313293032710735 0.91191116406148098 255 224 229 715.39209 238.464035 4
0.77340184303641835 -0.14520341550239985 1.0179185412097109 255 232 233 671.846497 234.316833 4
0.36635128409619061 -0.93581693310044689 3.5373036481710374 255 43 97 423.014465 190.771225 4
0.1580135170913084 -0.26538540752330175 3.7954518715740404 140 153 168 400.204865 261.273651 4
1.2681351075654952 -0.17163616926596867 4.5438563380992587 255 32 69 491.443268 273.71524 4
-0.17492395212311673 0.40802548237757841 0.92834346725799122 74 96 255 313.113647 456.192078 4
-0.14899297099516484 0.3382547158186795 0.988988528027958 84 105 255 325.555237 416.793671 4
-0.20134081778250668 0.39641863460890314 0.63401120019670376 255 144 153 263.347229 530.841675 4
-0.1887705007129028 0.41085007611916069 0.77135078394573575 182 187 184 292.377655 493.516876 4
-0.060791285743627799 0.40697355481726749 0.62736142378986048 108 255 66 346.29126 534.988892 4
-0.18324700751109624 0.40563786417159514 0.76336273455525427 99 102 104 296.524841 491.443268 4
-0.14664711593044699 0.00069874225981561566 0.57432326647120857 109 255 65 282.009644 288.230438 4
-0.25154715536523442 0.029251611481153763 0.65530872326627654 217 255 216 238.464035 306.892853 4
-2.7523740883069241 0.15699722739671435 3.9167382705910589 255 217 211 111.974419 302.745636 4
0.73977048630336506 0.3789477571756007 0.97149731879171397 104 120 255 673.920105 439.603271 4
0.54980107183925464 0.40938539660013035 0.63421229548705715 51 71 255 717.465698 534.988892 4
0.75669442298983536 0.21751844448571636 1.5966728177177865 143 255 109 566.092896 340.070435 4
0.77779958677977201 0.063132461789266139 1.6442642855108032 87 255 51 566.092896 302.745636 4
0.79526530282407548 0.02714818678085263 0.99076372361152609 242 255 233 694.656128 298.59845 4
0.52321049320968438 0.30141444202428602 2.4468540194299275 105 255 22 462.412872 335.923248 4
0.19212809855774018 0.17756382582170269 0.5548327888312321 91 255 85 518.400085 414.720062 4
-2.5572317803022697 -1.1341218524037535 3.7765613947800722 226 230 255 121.927696 174.182419 5
0.87730278390107341 -0.18967817979200813 3.5792088658775882 77 107 255 477.757507 266.250275 5
-0.16110315566221467 0.38048006117135025 0.77041825661523922 71 91 255 301.086761 475.269196 5
0.75969792627108934 0.32026061598081312 0.96582434638630321 179 255 158 686.776428 413.061188 5
0.73485366209979908 0.35286270168400574 0.96202455642514928 145 255 108 674.334839 427.991089 5
-0.11176029123925824 -0.59975016631986167 1.3940169535105824 166 198 255 353.341492 121.927696 5
-1.8359374391776275 -0.7324841958991456 3.751861835326153 189 192 195 196.577301 209.018906 5
-2.7581942854949935 -1.2463049108831148 4.2502355447892031 215 218 225 136.85762 174.182419 5
0.72905726488830147 -0.024436349404293078 0.89134137407517888 238 239 241 696.729675 278.691895 5
0.65691312486762365 -0.87543725119000182 3.3335846582830375 29 79 112 460.339264 189.11235 5
0.40826680693057671 -1.1042305326357857 4.1958164808262994 255 44 97 423.014465 189.11235 5
0.24483899302990952 0.21305293545219961 0.48310532738582856 255 219 220 579.778625 457.850952 5
0.80474413447715909 -0.14324805173703059 1.6848737694403326 255 32 49 567.337036 256.296997 5
-0.13242850876398504 0.31516751624047962 0.92561689237271283 83 104 255 325.969971 415.5495 5
0.76388329198982352 0.065913945015780961 1.6211025564438575 52 62 76 564.848694 301.086761 5
-2.7307266513323714 -0.66126006581356445 5.1616515101049076 71 94 255 181.647385 243.855392 5
-0.15744649408843203 0.0026522260370861871 0.95326194245134754 92 104 122 316.016693 291.133484 5
-2.7327490264265961 -2.4966450197220773 4.027765062166984 91 126 170 124.416016 49.766407 5
-0.16781474684666919 -0.25674132301189317 1.2786366079202311 138 255 55 338.41156 209.018906 5
-0.22323134984717508 0.10927749904401451 0.3988811899802191 255 185 192 167.215134 394.149963 6
0.55159308279478592 0.33698817701997719 2.6844053819083729 106 255 22 462.827606 334.430267 6
-2.4467839978490771 -0.97789092730904348 4.9730142011716252 190 193 255 197.074982 209.018921 6
-2.4380369595024654 -1.1170383781016 3.7871661474954745 219 226 255 137.355286 176.173096 6
0.79815857866610262 -0.12498983133089744 1.5603962888823255 132 255 99 582.266968 259.78067 6
0.94588938885456875 -0.12541607681288883 1.4751673995300734 84 255 46 630.042725 256.794678 6
0.35912003961173106 -0.21786463309909182 2.6636757837843357 90 119 255 429.981781 256.794678 6
-0.0056675963377698091 -0.10821490164077741 1.5136097526499901 233 235 239 388.177979 256.794678 6
0.3554487642809106 -0.87661911070098153 3.359129104895807 96 127 255 421.023834 191.103012 6
-0.085658298571428038 0.38266612849782705 0.83771418241568418 255 79 90 343.388214 462.827606 6
-0.16370059956778649 0.39579755520366061 0.90833378764904504 66 76 99 316.514374 453.869659 6
-0.17036522498932616 0.35856141462996782 1.0588758479910338 83 104 255 325.472321 415.051849 6
-0.067738245895225146 0.25937495375747388 0.87886364316938825 255 119 129 355.332153 403.10791 6
-0.17704998353123613 0.28213142430698673 1.1199419744735524 74 87 108 328.458313 385.192017 6
0.54279116459304078 0.3376921520940328 1.4309550306258414 255 137 146 531.505249 382.206024 6
0.84501886902980128 -0.19984502860704606 3.3687573898973833 81 112 255 477.757538 265.752625 6
-2.7162155246572004 -0.39673911144444263 4.0391153324903133 232 236 255 125.411354 250.822708 6
-2.5572317803022697 -1.1341218524037535 3.7765613947800722 229 255 224 122.425369 173.187103 6
-0.16279265235822415 -0.25973795276311124 1.2591181717326381 110 138 255 337.41626 209.018921 6
0.66895312405398877 -0.86504649409567613 3.4043805634074453 124 255 40 462.230438 197.074982 7
0.35382322164127372 -0.97875286133368289 3.7987237182279117 130 255 43 422.81543 189.90863 7
0.88917736269277936 -0.17101294896235236 1.2112529041029543 233 237 255 673.638123 236.48999 7
0.78266124983881502 0.056789973823659426 1.7113406854955728 70 255 43 562.559509 300.987244 7
0.78879642656881865 -0.13611549530961559 1.6234134859601574 58 255 27 566.1427 257.989075 7
0.72724165291583898 0.37125447443037352 0.95595020534088682 77 95 255 673.638123 433.564972 7
0.22233764685445437 0.11449349473305891 2.237525866297279 255 168 180 419.232239 311.736786 7
-0.1499353734210559 0.3364361160366155 0.99096532823708205 106 255 69 326.069519 415.649078 7
0.69731776528883216 0.25351503742130277 1.4610584738658943 121 255 83 562.559509 351.151794 7
0.1622433846778068 0.25527349540521421 0.5694062210027071 92 255 63 494.479065 458.647247 7
-2.1546827395891923 -0.57213878734907531 4.1700251241503601 102 255 69 186.325439 232.906799 7
-1.825752985531115 -0.35875919122533712 3.4293890339702982 255 58 76 175.575897 247.239532 7
-0.91154252790185319 0.10366715533182039 1.4469537382674729 166 117 117 136.160904 311.736786 7
-0.16845790224563806 0.0061672149119288006 0.97908865162655778 255 85 98 315.319977 293.820892 7
0.75869664570908002 -0.73257082855915623 3.3303679157277806 76 110 255 469.39679 204.241348 7
-2.5174003886775198 -1.1292954793373926 3.8868158128286541 217 220 226 136.160904 175.575897 7
0.47702205967932687 -0.88694966671902908 2.8299218000920843 255 33 81 451.480896 171.992722 7
