ply
format ascii 1.0
comment Written with hapPLY (https://github.com/nmwsharp/happly)
element vertex 117
property double x
property double y
property double z
property uchar red
property uchar green
property uchar blue
property float ix
property float iy
property uchar octave
end_header
0.5829468409452716 -0.055633941846758739 2.7170208185634532 251 255 249 466 280 0
1.0170608064551721 0.51764584744829079 1.1773870395623902 255 117 137 715.200012 457.200012 1
0.17091212100779729 0.66019980392826261 1.1314729482384704 164 255 130 442.800018 513.600037 1
-0.22863470421893695 -0.41285046665475178 1.4320247424949937 228 239 255 321.600006 177.600006 1
0.70515452206629625 0.011532228943854583 1.7455613226893778 250 251 255 537.600037 289.200012 1
-0.27535592971488221 -0.73596990077067803 1.9053867021436552 255 192 214 327.600006 141.600006 1
1.0744952057553809 -0.25342230403381982 1.7063982586215234 255 105 117 627.600037 229.200012 1
0.87962654656910777 -0.067361762154223292 1.8939404092982093 249 250 251 564 273.600006 1
-0.44745686877192625 0.17887323839336988 1.9079422538548805 164 180 197 292.800018 325.200012 1
-0.30991347131511127 0.60286803798938993 0.8876096393975148 171 255 114 250.560013 547.200012 2
0.79555218370268865 0.6177439444584617 1.8218222898612275 113 122 134 552.960022 419.040009 2
0.63880495850427832 -0.46390152416007568 2.4397358771441473 241 245 255 485.280029 214.560013 2
-0.21279846379868195 -0.076622071416971527 1.2933346900687619 248 250 255 321.120026 264.960022 2
0.28970384000855076 0.64577889972938185 1.5849074974122104 131 148 172 456.480011 442.080017 2
1.0107454523531358 0.59661685859995717 1.2462982058720549 113 132 160 696.960022 472.320007 2
0.42321038065965855 0.67081504935906233 1.2718049298567324 116 131 148 512.640015 489.600006 2
-2.0308980728915746 -0.57482626056964903 2.8091167910874768 255 117 115 103.680008 210.240005 2
0.60485079182510293 -0.17282164178364556 2.3222178927095172 255 247 248 483.840027 259.200012 2
0.81963943230174374 -0.51607582238272964 1.8914273984143604 241 255 231 550.080017 182.880005 2
0.74307509924348003 0.62949732880381193 1.7323244230160597 162 177 255 545.76001 426.240021 2
0.47424291140117902 0.67200670507087734 1.1516836956451337 138 255 105 542.880005 514.080017 2
1.0745249775291152 0.3171398267819811 1.1718516145274833 174 255 132 734.400024 393.120026 2
1.00468395266194 0.37215845740402537 1.2371464201341107 113 255 72 698.400024 404.640015 2
0.46709560906741032 0.65673552681444458 1.1118904500329494 144 255 111 542.592041 513.216064 3
0.83104157028452219 0.65161190648402378 1.6986488139287301 255 135 146 575.424072 437.184052 3
0.47961141128781692 0.67063346683348657 2.6942753668654191 220 255 220 454.46405 381.888031 3
0.93394711015959997 0.59788361236135557 1.4919857931624847 173 255 132 622.080078 438.912048 3
-1.9567628952673779 -0.5438415402306791 2.7047894139121054 116 129 255 105.408012 209.088013 3
0.71366421985272188 -0.081903617940321027 2.0713425330450512 249 249 251 516.672058 276.480042 3
0.59854518427310355 0.0042310862908115365 2.2697174133628639 250 251 255 485.568054 286.848022 3
0.984999277191972 0.49210347088571782 1.101337019919491 137 166 255 725.760071 457.920044 3
0.96735763786286821 0.48422335442318698 1.1161008742048599 138 168 255 713.664062 452.736053 3
-0.23230026701510598 0.67968359412659107 1.5879886678674202 129 145 167 328.320038 452.736053 3
0.25427434916195946 0.66303169315831889 1.0045814837542606 123 135 157 480.384033 537.408081 3
0.72371810709055495 0.35070573133158445 2.0836969573378878 142 158 175 516.672058 352.512024 3
1.0051318665004843 -0.45880824862261493 1.6154685536932316 241 255 233 622.080078 179.712021 3
0.7881562784244871 0.10819315384017364 1.959489210506911 255 149 166 539.136047 311.040039 4
-0.38179970486209136 0.30944204357995886 1.4537372692399275 131 255 102 286.15683 367.027252 4
1.0025923690943859 0.50948547161712865 1.1248539159531123 139 169 255 725.760132 458.265656 4
-0.25684758273732999 -0.04794785726937234 1.5614899435788274 248 250 255 321.408051 275.788849 4
0.9797841139112593 0.51482990980004184 1.2410308551147962 179 255 131 686.361694 449.971252 4
0.42711927148373308 0.67592906469636471 1.3031221469666283 155 255 128 510.105682 489.369659 4
0.2782377927261297 0.16257236316190604 3.9756961705920082 92 133 162 412.646454 302.745636 4
-0.57266264600765115 -1.3319142039679517 2.3567632325555259 218 255 161 294.451233 72.5760117 4
0.97067085926613772 -0.440812226097268 1.5625830255758411 234 237 242 620.00647 180.403229 4
0.57654785287301769 -0.44066904413043406 2.2142082894895179 241 245 255 485.222473 211.507233 4
0.5528323368910979 -0.22216123512581426 2.5129591340904804 246 247 249 468.633667 252.979233 4
-0.47463653516098159 0.075791885225432454 2.0879473570028351 185 255 149 294.451233 304.819244 4
-0.337824298373536 0.66526767935109665 2.941965103927104 68 86 255 337.996857 371.174438 4
0.99404968557831586 0.49923617958780209 1.3000299876583696 222 255 222 678.067322 439.603271 4
0.21418314597810495 0.67411823118999181 1.447151132711185 255 143 152 443.750458 468.633667 4
1.104479633164781 0.032069440738211413 1.3115324700226614 255 94 139 707.097717 296.524841 4
1.0258072750075291 0.40437266039298958 1.3295397047612036 137 153 178 684.288086 406.425659 4
0.49299038228047842 0.014147882210124696 2.2373316107346461 251 255 248 466.560059 290.304047 4
0.57579373339292017 0.63593703966542825 2.3678992940722461 95 101 255 481.075256 391.910461 4
-0.2323384995896669 -0.40658601588195076 1.4150538111652438 228 238 255 321.408051 176.256027 4
1.0692457584912738 -0.31099915551471669 1.2191022272545107 124 159 188 716.63623 194.088989 5
0.6750005477095431 0.44354023581230861 1.9651921483696837 255 122 137 515.082336 373.248047 5
0.55458214707761533 0.64225829940212797 1.6366357706172234 127 147 255 517.570618 437.944397 5
-0.19363427502301622 -0.079084559217192041 1.1539995631117721 247 248 249 320.993317 261.273651 5
1.0051318665004843 -0.45880824862261493 1.6154685536932316 241 255 233 622.080078 179.159058 5
0.58731427345691412 -0.45678114968265615 2.2728026483027168 241 245 255 485.222473 211.507233 5
0.81991796524931271 -0.51704333192476604 1.9040229713079331 235 241 255 549.918823 181.647385 5
-0.39914889666677889 0.00052185444304975181 2.4048942813936547 248 249 250 320.993317 288.645172 5
0.86427873899883245 0.66812246450933055 1.7377933996615438 159 255 127 574.802002 435.456055 5
0.35483334848560344 0.64629061492632134 1.0718431553941556 145 255 112 510.105682 525.035583 5
-0.1727835211725508 0.66594671965223906 1.0883499361805296 150 255 101 318.505005 522.547302 5
-0.45165665353427009 -1.307764447780263 2.3517678130395385 170 195 220 308.551727 72.161293 5
16.471153158977749 -26.821453749192589 48.01282070879639 170 196 221 520.05896 77.1379318 5
0.19715192200715093 0.1195793640783645 4.097195221519474 134 155 255 397.135956 295.612457 6
0.79638814791538781 0.50030056844518522 2.3890746837586585 143 162 255 513.589355 373.248077 6
0.97067085926613772 -0.440812226097268 1.5625830255758411 237 241 255 621.084778 179.159073 6
0.85521541000898904 -0.44592128726357338 1.6537207312717461 239 255 218 582.266968 182.145065 6
0.53054600763929072 -0.42502915407882069 2.5529440731024078 246 255 241 462.827606 223.948837 6
0.9668864481250441 0.57262984804265904 1.1468828560571858 118 135 165 704.692383 480.7435 6
0.18026838742606466 0.69727977501877791 1.2084400453459123 145 166 255 441.92572 513.589355 6
0.89730506211295435 -0.09328384891549385 1.9417459558940608 250 251 255 561.365112 271.724609 6
0.95814340214449756 -0.22795097449522528 1.466506657726339 137 160 255 633.028748 232.906799 6
1.054145443519654 -0.32743832406455653 1.3387499679903092 198 215 255 689.762451 191.103012 6
-0.36757134717118456 -0.82930154915421572 2.2643495778462306 215 232 255 325.472321 143.327255 6
0.98140881406107117 0.62466279933876079 1.5980058354784692 148 177 255 621.084778 438.939728 6
0.81966657905815898 0.63953159718429498 1.7120579987201543 158 255 132 570.323059 435.953735 6
-1.9567628952673779 -0.5438415402306791 2.7047894139121054 115 127 255 101.523476 209.018921 6
0.9960458594691477 0.61419573264452998 1.3834909631311048 255 123 141 659.902588 459.841614 6
1.0606332288699751 0.52798425975417984 1.4188569932943036 179 255 135 674.83252 426.995789 6
0.5698951140284203 -0.4440869441191071 2.1791938577550622 255 238 241 483.729492 209.018921 6
0.87951008465075864 -0.55010438302115294 2.0537883761753637 235 241 255 549.421143 182.145065 6
0.58553923282138576 -0.48958355794682973 2.0081383789898313 234 237 243 492.687439 194.088989 6
0.41872211648482116 0.66186586349231991 1.2854226938587807 255 130 146 507.617371 486.715485 6
-0.15174282729620892 0.63370586502594572 2.1257871335822127 105 255 75 358.318146 400.121918 6
0.79513935561693994 0.55967748015549623 1.8939656878684694 148 161 255 549.421143 403.10791 6
0.55217336015007112 0.57774935064210053 2.2147341088399637 100 105 109 480.7435 391.163971 6
27.585855907096551 -28.809615940491323 71.76966577434419 255 208 219 531.505249 134.369308 6
19.107993318986235 -31.520623562291654 59.147279194373041 222 255 179 510.603363 83.6075668 6
-0.47643975676487482 -1.3189971137751819 2.3624114938625365 255 168 194 307.556396 74.6496124 6
0.81873540384309806 0.70241209430061669 2.0003967198619295 135 145 157 548.226807 426.398621 7
0.17398710061372968 0.10805766441286818 4.5217156166739159 161 179 255 397.733154 297.404083 7
-0.35072231098944906 0.69113844310156358 4.902030369816929 124 255 52 354.734985 347.568604 7
0.68980658775290404 0.60880426573854574 2.1210577298400972 141 154 172 508.811798 397.733154 7
0.64067108297162068 0.45038983750854561 1.9240368273135653 126 139 157 512.394958 376.23407 7
0.98914954754316164 0.33291891967732146 1.4601100211691742 125 148 255 641.389526 376.23407 7
-0.7275007219504297 0.6835249373221326 6.3072542522889901 35 121 144 340.402252 326.069519 7
0.99855105916001963 -0.30805307845295493 1.2469501858179983 255 205 215 687.970886 189.90863 7
0.8756690219243366 0.45465175637454192 1.8458966690325589 153 168 255 569.725891 383.400421 7
-1.9328119009785247 -0.54435533432330063 2.6494425416734089 133 132 140 100.329086 207.824539 7
0.41826976058224541 0.67409625282228425 1.3039897739908941 101 116 133 512.394958 487.312714 7
0.9842343318323632 -0.4409121266718945 1.5896442874679249 255 232 236 619.890442 179.159088 7
0.81571665954569683 -0.52712026334673934 1.9481449929247479 231 235 241 548.226807 182.742264 7
0.55735431571380367 -0.44459998662386679 2.6609455715234631 242 245 255 465.813599 218.574081 7
0.62977271037606952 -0.52865162889324124 2.2200295068406533 243 255 235 490.895874 193.491806 7
0.94822557624528303 0.59923349937459236 1.5394079371599165 255 137 153 619.890442 440.731354 7
0.8044925311062916 0.62076777439444064 1.6411763765897263 148 162 255 569.725891 437.148163 7
-0.35747197746906156 0.73521399079122429 3.6577825330955003 74 86 92 340.402252 361.901337 7
0.7447487272315545 0.042410096152237842 1.9000567096024881 167 184 255 533.894043 304.570435 7
0.52112477892698217 -0.38334084738628438 2.376729794239397 247 255 243 462.230438 225.740448 7
0.88158268387617911 -0.088613543699794683 1.9023995825385684 250 255 249 562.559509 268.738617 7
-0.47604003928790473 -1.3229569881583636 2.3286244493167514 170 195 220 308.153625 71.6636353 7
