ply
format ascii 1.0
comment Written with hapPLY (https://github.com/nmwsharp/happly)
element vertex 155
property double x
property double y
property double z
property uchar red
property uchar green
property uchar blue
property float ix
property float iy
property uchar octave
end_header
-1.1256826284818637 -0.16966925029763349 3.2421394482305725 255 86 104 251 268 0
-0.0051924061515684627 0.43779941190407318 0.68047041202970338 214 255 215 382 535 0
-1.5632760050742398 -0.32056435643692238 3.0163349913357003 255 239 242 187 247 0
-1.7329256782920592 -0.32351525907993212 3.0163532319232753 255 241 243 163 247 0
-1.7650966890189226 -0.47873578042151044 3.0654521688228251 255 240 241 163 229 0
-1.2325788757257063 -1.1175501173302982 4.5648855502478609 255 227 228 279 193 0
-1.5599873217158691 -1.6339395245561605 2.784589154462453 145 174 208 168 64 0
-1.6291716383071764 -2.0361924359650705 2.9227506153211182 156 197 255 169 22 0
-1.7492531411337291 -1.1017495943991136 3.0720092422240834 230 255 209 166 151 0
-1.7248989053525126 -0.026219051727052883 3.0174268817871832 247 255 245 166 283 0
-0.34806807184140331 -0.082793800789048105 6.3116345951391999 137 255 95 362 283 0
-0.011125212277904861 -0.61802148144379809 5.1930971907747399 170 255 160 382 241 0
-1.2674248095454757 -1.7814205958185338 4.9621398828625223 228 255 221 286 148 0
-0.89102898795008389 -1.750597593809857 4.9589693995162403 255 190 210 315 151 0
0.022911573924540241 -0.76045839533604842 5.4270886161245118 172 170 255 385.200012 235.200012 1
-1.5371358800865664 -1.3758020296832632 2.9965820528402212 255 187 202 187.200012 111.600006 1
-1.7037242781659017 -1.3668421039905543 2.9772364296309481 255 205 213 163.200012 111.600006 1
-1.6746869842112311 -0.060805372577766401 2.999948059748724 245 247 255 169.200012 279.600006 1
-1.5607558708314642 -0.22966534587343934 2.9607545978286391 244 246 255 181.200012 258 1
-1.4955605583921332 -0.83695685125326402 2.9263130799850328 255 222 227 187.200012 176.400009 1
-1.7746919244121662 -0.86508559148137854 3.077142088072613 255 225 230 163.200012 177.600006 1
-1.4691466321012396 -0.90181358426131741 2.8892761537054992 255 217 224 187.200012 169.200012 1
-1.7400257090910527 -0.93859183858978257 3.0208241172687602 255 219 226 163.200012 169.200012 1
-1.6749590695590135 -0.31694588222113301 2.9407096913452291 255 241 243 163.200012 247.200012 1
-0.32349162821568167 0.4580702127583931 1.4502377412717706 134 255 96 298.800018 409.200012 1
-1.6949915755040084 -2.0353747736669416 2.9755911477039496 158 198 255 165.600006 25.2000008 1
0.088608662980956376 0.4893836480864352 2.5674231851190119 225 223 255 397.200012 362.400024 1
-8.0189875251157616e-07 0.40079477260164253 2.8865756440788859 219 218 255 385.200012 343.200012 1
-1.1426511664296384 -1.5828058878491023 5.5940869597129241 235 255 213 306 181.200012 1
-0.80388587505079112 -0.4029494306561871 2.9808747270244762 255 226 228 279.600006 237.600006 1
-1.5027276195959605 -0.75008071247332719 2.9336640328004981 255 229 233 187.200012 189.600006 1
-1.1601951193182156 -2.2162719213048363 6.2897568968716602 255 190 210 315.600006 151.200012 1
-1.6777559465700835 -1.7591287689674278 2.9969055795681285 173 207 255 169.920013 63.3600006 2
-1.5068750555364381 -0.60296092445139382 2.9382670807417974 236 241 255 185.76001 208.800003 2
-1.4938027088122929 -0.67790176593018037 2.9106435916153615 234 239 255 185.76001 198.720001 2
-1.5361778658010752 -1.0723668885279727 2.9879963067216466 255 207 218 187.200012 151.200012 2
-1.6967648807112408 -1.0657519711121828 2.9627892011010761 218 230 255 165.600006 151.200012 2
-0.015612932052287309 0.31523810337440816 0.67003930223422103 255 219 220 375.840027 469.440033 2
-0.5675640736527745 0.36270213366858606 1.1252226328662742 41 255 128 190.080002 414.720032 2
-1.6547549809160413 0.39853242650536308 3.2531609094625775 255 148 161 187.200012 336.960022 2
-1.4756047071402461 0.30047595761435963 2.6050822703584564 211 197 179 168.480011 331.200012 2
-1.0492390676679482 -0.66626335023921679 3.0036439921982425 102 120 143 252.000015 203.040009 2
-1.4841744526841656 0.12709084554989389 3.7780837773786207 138 255 102 234.720016 300.960022 2
-1.7528277521179443 -1.4788328507408712 3.0443030825006669 199 218 255 165.600006 100.800003 2
-0.29193783074754354 0.42317324268709972 1.3309487707717533 141 255 102 298.080017 408.960022 2
-1.4918520851640107 -0.74504843699590895 3.3108590350467271 207 255 224 210.240005 198.720001 2
-1.0322383824725994 -0.15223805692615136 2.9901633741355838 86 102 119 252.000015 270.720001 2
-1.5486464074956849 -1.0185662109901088 2.9868602305423808 218 230 255 185.76001 156.960007 2
-1.5869500435163437 -1.8966051663831855 2.8678629067573378 255 125 159 171.360001 34.5600014 2
-0.10605408830340624 0.3336363786899596 0.61016064753787602 216 217 215 316.800018 495.360016 2
0.59538080050335629 0.47112462760249041 1.912167837507079 154 165 176 504.000031 384.480011 2
-0.97030809607212642 -0.53889692147197688 2.9659612961957169 255 147 156 255.744019 217.728027 3
-1.0448257798965055 -0.65053453844780862 3.1001911985764652 255 142 153 255.744019 207.360016 3
0.15252500027764659 0.51367834607680529 1.7605938960543175 255 219 221 419.904053 400.896027 3
0.070338421628431291 0.45135637154009195 1.6902420095825081 183 188 195 400.896027 390.528046 3
-1.3998865693925397 0.33102676377789125 2.7629303481078624 188 255 167 186.624023 333.504028 3
-2.0176757036872259 0.40093535836610511 3.5258135728302573 255 215 201 167.616013 331.776031 3
-0.83415556332420682 0.35500421087787748 3.0774272014493147 136 132 255 281.664032 333.504028 3
-1.374618253626489 0.51073002498144349 2.1320770998145173 92 100 111 136.512009 378.432037 3
-1.3751705098310865 0.4256282390143859 2.1461436260940068 255 53 79 139.968018 364.608032 3
-2.1048526188493697 0.58016177503031008 3.1828651413967188 255 86 113 131.328018 361.152039 3
0.57763252101742535 0.30586669819710804 0.98632315337816823 172 172 255 609.98407 407.808044 3
-1.7282117416367249 -0.48384292146465002 3.9726910351194373 113 129 149 216.000015 238.46402 3
-1.3888963149477802 -2.005837272951648 5.5385270199870975 228 255 221 286.848022 148.608017 3
-1.075006707437852 -2.0715627485692374 5.8773340975381911 228 255 191 314.496033 152.064011 3
-1.6550523716371357 -1.7401854475864644 2.9716950989356135 255 142 172 171.072021 62.2080078 3
1.527102099376727 -0.84405835619872338 2.5997659796859058 220 232 255 609.98407 162.432022 3
1.0899213306369677 -0.74020691725481058 2.7042336552688528 255 223 230 535.680054 184.896011 3
0.21217925713431995 -0.72342503555431248 4.8846422877263986 255 144 157 399.16803 231.552017 3
-0.47009228266757197 0.46447461382421384 1.293132868637064 124 126 255 245.376022 428.544037 3
-0.015113800544064748 0.31378807584496748 0.6670503024999177 220 255 220 374.976044 468.288055 3
-0.42374262828392317 0.44131564174908816 1.3062395090290329 255 104 131 259.200012 414.720032 3
0.44446206588167136 0.47552460889936987 1.3704977523306328 151 162 182 508.032043 421.63205 3
0.61976165336925249 0.50306961783731241 2.0589380477789896 194 255 180 502.848053 383.616028 3
-1.4686092892256215 0.12849253339655162 3.703384381701941 103 121 140 232.243225 300.672028 4
-1.4536005472930187 0.13695970608253291 3.6721141187264514 141 255 107 230.169632 300.672028 4
-1.6362002841756587 0.35597815184537362 2.92252876614074 189 167 255 165.888031 337.996857 4
-0.5656991125533799 0.38499670515543594 2.704772585174664 181 192 207 300.672028 342.144043 4
-1.1535500366171165 -1.5896242661761499 5.5463809355275311 235 255 212 306.892853 180.403229 4
1.0959967949445863 -0.74763086125020095 2.8051350561235169 237 255 223 534.988892 184.55043 4
-1.6850031056002632 -0.46472455806077373 2.9533297240379479 241 244 255 165.888031 228.096039 4
0.033181830856768402 0.45644913109903079 0.75539881130488817 220 255 220 402.278442 522.547302 4
-1.6989325114523077 -1.7110022913647887 2.9735805683940892 178 209 255 165.888031 66.3552094 4
-1.4462543106335626 -1.8156072727067656 2.9528681414778575 203 255 131 194.918427 51.8400078 4
-1.0637088470778782 -0.16175592547663675 3.0445379488530011 119 255 82 250.90564 269.568024 4
-0.81225588289743245 -0.40061090418274381 2.9950959194193558 228 228 255 277.862427 238.464035 4
-1.6655510211102209 -0.81987252809228084 2.906137127964695 255 227 231 163.814423 178.32962 4
0.49352342754647283 -0.50961792543520967 3.7917183660565854 255 199 228 431.308868 232.243225 4
0.22240142597683032 -0.65649883749362548 4.5038917012702893 142 159 179 400.204865 232.243225 4
-0.70688797389673086 0.2691215803721792 2.8878899675132335 171 255 136 286.15683 323.481659 4
-1.4552688439899142 0.43541854532256608 3.8021754696790833 27 33 23 240.537628 333.84964 4
0.46887613746253798 -0.49060190529773706 3.5597097580035006 217 235 238 432.967743 236.390427 5
-0.098924896578859611 0.10463737678266778 2.9384972765649517 130 157 255 373.248047 296.110107 5
-0.71844872193236364 0.32073489926661419 1.5592803065163356 170 179 184 204.042267 363.294769 5
-1.3830002742491674 0.11943866469127437 3.4895065276090342 255 106 123 231.413788 301.086761 5
-1.5504115349358267 -1.0477015060312638 2.9683321925824675 207 218 230 184.135712 151.787537 5
1.515249701948427 -0.80908665387844303 2.5099247779115528 205 218 231 612.126831 164.229141 5
-0.41603343358438161 0.42318410323916911 1.2843362735383699 101 101 255 261.273651 413.061188 5
-0.42099631021574457 0.42983156930437083 1.0547058128550264 52 80 78 228.925476 442.921021 5
0.025257873487393168 0.39925837927619146 1.0456578061805391 222 220 218 388.177979 432.967743 5
-0.80892654490391669 -0.53181432741492785 2.9308860405671227 231 255 230 278.691895 218.972198 5
0.43238499811751718 0.47757670000285957 1.2253311364964503 221 221 255 525.035583 435.456055 5
0.43546609002069325 0.46610100820706324 1.3397482561503433 255 152 162 507.61734 420.526154 5
-1.0785744759240812 -0.16220346940581182 3.0967195412304842 255 83 98 251.320358 266.250275 5
-0.32399212436689306 0.44101638211694788 1.4207449217116044 130 140 255 293.621796 408.084534 5
-1.8416469075100581 0.34318008152750878 3.1831069865359876 201 203 255 161.740829 323.481659 5
-1.3572537104445463 0.49987923759596675 2.1122163367927187 47 58 49 136.85762 383.201324 5
-1.6667924403697576 -1.7667181776113476 2.9908746941033217 255 138 170 171.694107 59.7196884 5
-0.99742267096474091 -1.9247243239455885 5.5016007295008391 212 229 255 313.528351 154.275864 5
-1.5824665754490956 -1.0618539953135362 3.0026359879146689 230 255 208 182.145065 152.285217 6
-0.99742267096474091 -1.9247243239455885 5.5016007295008391 210 228 255 313.528381 152.285217 6
0.12518585596419385 0.47914952995932208 0.84462183602145569 150 255 127 438.939728 504.631378 6
-1.4668904264996887 -0.45508621713665542 3.4151154922320455 157 255 129 214.990891 241.864746 6
-1.6624606200918839 -0.30952605335640304 2.9531241393617949 255 241 243 167.215134 247.836716 6
0.6854706830651156 -0.7514742859314042 4.5720106879760314 243 255 233 438.939728 226.93483 6
0.42534676198164778 0.474445253316228 1.1951142982733116 201 255 188 522.547302 438.939728 6
0.40813579762605579 0.42853489033732817 1.2410254893687567 150 161 181 504.631378 421.023834 6
0.51930732054466489 -0.57954563467772435 4.325397475060365 227 228 255 429.981781 235.892776 6
-0.36093992568251632 -0.073421027670749012 6.4457252829576897 118 137 255 361.304138 286.65451 6
-0.016041697904583874 -0.50718458528614829 4.6161463936725626 255 96 106 379.220032 244.850739 6
-0.10142498298096125 0.33214261794446592 0.60053818313787422 255 218 219 319.500336 501.645416 6
-0.13496373768191727 0.37351218982522827 0.7152631618490406 222 220 255 313.528381 489.701477 6
-0.95365354172514882 -0.59326055396839483 3.3461991106983096 231 231 255 277.696564 217.976868 6
-1.0386998953270026 -0.66019961034446228 3.1286494593735985 181 188 196 256.794678 206.032928 6
-1.0701780013648809 -0.9892265301123313 3.9310282372092491 228 228 255 277.696564 191.103012 6
-0.94888345764794391 -0.15515208286107385 2.7369890573333748 115 255 75 250.822708 265.752625 6
-0.44762979146695181 0.44763259040565923 1.1124280616915583 73 255 47 226.93483 444.911713 6
-0.36904380077638699 0.47117537990227232 1.5386810820552941 94 123 132 292.626495 409.079895 6
-0.55165294519275676 0.29560429919095171 2.3292865046298998 255 164 175 295.612457 337.41626 6
-1.3475983178577731 0.13604715285205932 3.3962909723412098 122 141 255 229.920807 301.584442 6
0.098979471412303788 0.5001920970020477 1.8041137325278092 255 197 197 403.10791 394.149963 6
0.11847733762299195 0.48787419841297652 2.3643190349190251 228 255 230 406.093903 367.276093 6
-1.4919967413298516 0.34046561712731604 2.942123806703151 192 192 255 185.131042 331.444275 6
-2.1668287836288522 0.32358302109204939 3.7306066059080285 205 207 207 164.229156 322.486328 6
0.57065563468183933 0.45819727814917538 1.8753153241024174 205 255 200 498.659424 382.206024 6
1.0938331443781808 -0.74302690646539149 2.8393831843810777 237 255 223 534.491211 185.131042 6
-0.94653498630058674 -1.4037293579619916 4.8263283179830774 232 255 204 310.542389 170.201126 6
-0.22668638181121548 0.020547254055927833 4.2717301453683181 118 137 255 361.901337 286.654541 7
-0.47992544355492317 0.39361468680600659 1.0138622391262204 128 153 255 197.074982 440.731354 7
-0.61000171061283259 0.3110405766150367 0.98128537286921569 255 71 89 143.327271 404.899536 7
-1.717942856808345 -0.26150384399942933 4.1566816012398595 122 143 255 225.740448 272.321808 7
-0.91812036157987009 -0.39800643454739099 3.2317140543132608 255 227 228 279.488159 240.073166 7
-1.2682977616713731 -0.78417439124688504 4.4033303861736943 255 230 231 275.904999 218.574081 7
-1.2003848639744765 -1.1144904636432644 4.3476859297995096 255 227 228 275.904999 189.90863 7
-0.44132025441673384 0.30983836220686289 1.4855488321193455 93 108 120 268.738617 361.901337 7
-1.5089793608617126 0.339710763076152 1.8965261956401123 255 181 186 75.2468109 351.151794 7
-0.13632955070338992 0.11467253178695416 5.2185413142339971 101 121 143 372.650879 293.820892 7
-2.0505632254350101 0.18430151635761646 3.3396591691019299 247 255 239 150.493622 300.987244 7
0.15121444590907851 0.45709564157447335 0.86361183742870629 203 206 204 444.314514 490.895874 7
0.55167404222757499 -0.63510867419057071 4.7263370727366434 225 226 255 429.981781 236.48999 7
1.1032225336638124 -0.74758566567038143 2.8293359689757169 228 236 255 533.894043 189.90863 7
0.51877546253585805 -0.58046730871082475 3.5227650416398948 237 243 255 437.148163 225.740448 7
-1.1700087206668508 -2.1111232615489812 6.167859542435802 255 194 211 311.736786 154.076813 7
-1.6761668191794685 -0.31148475179044988 3.0065498787080673 241 243 245 168.409531 247.239532 7
-0.56551715493494248 -0.8678527708448025 2.909794671687532 211 222 234 304.570435 179.159088 7
