ply
format ascii 1.0
comment Written with hapPLY (https://github.com/nmwsharp/happly)
element vertex 170
property double x
property double y
property double z
property uchar red
property uchar green
property uchar blue
property float ix
property float iy
property uchar octave
end_header
-0.95164774858528656 -1.9006149386606674 5.3023134198426387 189 209 227 316 149 0
-1.3220496756439979 -0.49943403435286604 2.5977266231442471 255 231 235 187 214 0
-1.6133452716878178 -1.5301573231602554 2.7511110153377851 158 182 210 160 73 0
-1.5312235066778768 -1.0375467530724702 2.6321267963307737 228 255 208 158.400009 136.800003 1
-1.336298095472789 -1.1166463099908688 2.6006662254641335 255 189 205 187.200012 123.600006 1
-1.5999403780113939 -0.9222631856891621 2.7234922821657217 219 231 255 157.200012 157.200012 1
1.3199091764432129 -0.50244183550011345 1.9056145151862651 255 212 223 651.600037 187.200012 1
-0.8869098111053022 -1.5150860006050895 5.1110742295055456 255 205 219 315.600006 172.800003 1
1.3761597556672585 -0.83145993633085769 2.3357616236291103 223 233 255 609.600037 153.600006 1
-0.72451890331169011 -0.41767699280862358 2.9175823118844288 228 255 222 290.400024 234.000015 1
1.560411457251536 -0.61566217126448797 4.8507629770783156 255 238 241 507.600006 237.600006 1
0.64798268397499859 -0.46115768972615678 4.3543772678502606 238 242 255 441.600006 249.600006 1
0.69506148905887966 -0.57843395789958529 4.1089301991653011 255 237 240 447.600006 232.800003 1
-1.577444267870443 -1.9262977126536214 3.0514711010427105 255 127 163 183.600006 45.6000023 1
-1.5860686966678088 -0.45170164485224307 2.7171255229199449 255 239 241 159.600006 225.600006 1
-0.60712825719450647 0.30082338314446561 2.7159679589570116 220 221 220 300 331.200012 1
-1.5008617175155585 -1.3175503213799757 2.5945695625924117 255 166 189 163.200012 93.6000061 1
-1.585050801992542 -0.1281331653532802 2.7076173662575989 255 245 245 159.600006 270 1
-0.83339611581341444 -0.60003849602642001 2.671511476586899 228 229 255 261.600006 201.600006 1
-1.3575401315511648 -0.73685275502023162 3.0398150284181122 110 137 255 213.600006 195.600006 1
-1.2037294352039423 -1.9757960923081019 5.1364207859005671 198 212 225 292.800018 141.600006 1
1.4924013660236508 -0.77155799629399913 2.1985111794138028 213 228 255 645.600037 152.400009 1
-0.43749271300206294 0.40428408709591312 0.85095563738660962 255 114 142 187.200012 471.600006 1
0.77226461152362291 0.48917138151472883 1.5800571465170941 116 148 158 572.400024 409.200012 1
-0.43243866635113837 0.3564616590173042 0.8799771252901496 255 145 159 195.840012 444.960022 2
-0.87183475736855787 -0.13278469203957727 2.6572551790134624 192 195 255 257.76001 269.279999 2
-1.0265952358829873 -1.5845536932339959 5.2275279405004067 255 203 218 311.040009 169.920013 2
-1.5865834628229241 -1.4481654688321999 2.7122281673772743 255 162 186 159.840012 82.0800018 2
-1.5738408644414141 -1.5029719619169195 2.6847426794488891 255 159 182 159.840012 72 2
-0.63256160796997607 0.48637629464101445 0.92532870027227299 200 255 200 118.080002 489.600006 2
-1.2888542704301873 0.35676091613913075 2.5179803159843304 255 209 213 187.200012 344.160004 2
-1.317595113327537 0.31949949373357744 2.2872659089170724 214 255 225 162.720001 342.720001 2
0.3178652312988095 0.49271287657485552 1.2009551370637168 133 157 255 485.280029 444.960022 2
-1.3182819603842182 -1.1682183234999259 2.5675853036217458 203 221 255 185.76001 115.200005 2
-1.4245795136786494 -1.184155579318753 2.5969387356998346 199 210 223 172.800003 115.200005 2
-1.5532989453488022 -1.2842922662166998 2.6682930327284802 220 255 190 162.720001 102.240005 2
0.45326350570335638 0.46511986127004634 1.1581652400776563 120 255 90 534.240051 439.200012 2
-1.5345320108160481 -0.29802608119671303 2.6446983712645546 245 255 241 162.720001 243.360016 2
-1.3364980816169552 -0.3526937136448185 2.6030078408215727 243 245 255 185.76001 237.600006 2
-1.515240308350867 -0.3606712767219144 2.6389164267105603 245 255 242 162.720001 237.600006 2
-0.54081976851297009 0.50189664138131396 2.8806941172065939 191 206 255 313.920013 352.800018 2
-1.352344835388493 0.14633655151106312 3.5123732923088964 106 125 255 237.600006 305.279999 2
-1.5352532987750305 -0.043046722010681798 2.7100500986690763 245 247 255 165.600006 282.240021 2
-0.68012140770261054 -0.38935718752764448 2.7381566221222511 229 255 222 290.880005 233.280014 2
-1.3496689499789811 -0.72886262970219595 2.6203616757215999 255 225 230 187.200012 181.440002 2
-1.5802235441929628 -0.91412380332964016 2.6981274978784837 210 219 231 156.960007 156.960007 2
-1.1360357657840865 -1.9029847621477662 5.2186306996826968 227 255 189 302.400024 148.320007 2
-1.5264452822656338 -1.6704966115118505 2.620337008093331 163 202 255 161.279999 43.2000008 2
-1.3660724432211566 -1.0415024247902669 2.6479480466070742 201 213 227 184.320007 138.240005 2
1.2626098410414328 -0.73503892553449257 2.5110878493198094 233 255 209 578.880005 175.680008 2
-0.011960219506895742 0.50060894838940984 0.93379069627875566 218 255 222 378.720001 496.800018 2
0.64259115714713511 0.57434491665742216 2.2838605905759488 255 136 150 491.040009 383.040009 2
0.90439979387009728 -0.77787051860155776 3.5720386332396004 239 255 225 482.400024 203.040009 2
-1.0973855760516535 -1.7530254524221878 4.6006596775597899 198 213 226 292.320007 142.560013 2
-0.68366775910914379 0.37336777484093697 2.7643821669076818 131 255 117 286.848022 342.144043 3
-1.488785898119819 0.081404152321930379 2.7048691867963712 240 244 247 172.800018 298.944031 3
0.31853815660016438 0.49343636720461459 1.2026558860043965 133 157 255 485.568054 444.096039 3
-0.99968874299299859 0.50620486689987698 1.4391339520836031 83 103 255 117.504013 423.360046 3
-1.4345372048428637 0.42992320754879038 3.1305215762693512 255 88 96 207.360016 338.688019 3
-1.2833436215254883 0.35485384095727246 2.5101991390023621 228 255 228 186.624023 343.87204 3
-1.4053338133813278 -0.20948606284047111 2.6432932414313655 244 246 255 177.984024 257.472015 3
-0.89026275862839555 -0.62764013599121271 2.7782290737403255 224 226 226 260.92804 200.448013 3
-0.83150209454024449 -1.4270397571721067 4.7494679815192118 205 219 233 316.22403 172.800018 3
-0.95455992263193723 -0.14811076997539191 2.8458131154281912 192 195 255 257.472015 269.568024 3
-0.45362401271268338 -0.08060642916072619 3.8811290392889406 47 255 61 338.688019 281.664032 3
-1.3484920569581837 -0.58029844628046678 2.6159284582312856 231 234 239 184.896011 202.176025 3
-1.5400918006131428 -0.58844172799850525 2.6459700653485321 235 237 241 160.70401 202.176025 3
-1.3958831022904876 -0.82863527208787513 2.6806704700109356 233 255 215 186.624023 167.616013 3
-1.508462403159597 -0.79709147389671609 2.58715717246548 235 255 222 158.976013 169.344009 3
-1.483298065397328 -0.12452942121846991 2.5186201972008275 246 255 245 158.976013 269.568024 3
-1.4718391593427129 -0.23967300890683324 2.5542010879819244 242 243 245 160.70401 252.288025 3
-0.92612947994390904 -2.1003282535667269 5.6809696920850827 255 186 207 319.680023 145.152008 3
-1.5055481441599521 -1.7214977963102909 2.655559125632561 255 126 160 167.616013 38.0160027 3
0.16929876053620241 -0.73850708847969337 5.0667841705411716 255 97 113 395.712036 231.552017 3
1.5647666528178084 -0.74878412672010342 2.0893856907688071 255 219 224 675.648071 150.336014 3
-0.42616930773769579 0.4209692404676374 2.3352217530535775 221 255 195 314.496033 354.240021 3
0.72757267929789315 0.47729399786828497 1.5480925197858442 255 90 124 563.328064 409.536041 3
0.11245665462242393 0.32897705594409193 0.95853178808241823 173 255 139 426.81604 416.448029 3
-1.2385717552975839 -1.9927400232624022 5.2452592861985483 198 212 225 292.032013 141.696014 3
0.30263429656988272 0.46190445686790926 1.1140635705779425 132 155 255 485.222473 445.824066 4
-0.46638922255321047 0.37897914190235288 2.3857186399849581 172 183 197 308.966431 346.29126 4
-1.5397524831453602 0.38315273821673862 2.7068528940351073 255 156 166 167.961624 346.29126 4
-0.20645641458326081 0.47139865518365492 1.9022856703991109 142 155 177 340.070435 383.616058 4
-1.4390982537705188 0.27027194951902095 3.3658803100019021 128 143 255 221.875229 321.408051 4
-1.3015385904702717 0.1469477720806282 3.3627484055062977 91 111 130 236.390427 304.819244 4
-0.87009125796582465 -1.4407737688709061 4.7964136061622034 255 207 220 315.187256 174.182419 4
-0.93211703713566685 -0.14570896997135238 2.7704091075549808 192 195 255 257.126434 269.568024 4
-0.68492224744571883 -0.38446133401570032 2.7466444491562862 228 255 222 290.304047 234.316833 4
-1.3156859763154554 -0.66867002286804711 2.7026690453533999 228 233 238 196.992035 192.844833 4
-1.0896376831016998 -1.8328689241205733 5.026185137987639 227 255 188 302.745636 147.225616 4
-1.5373463051756202 -1.6810860115582216 2.6463878617466405 163 202 255 161.740829 43.5456047 4
-1.5556077451205121 -1.0587131742404241 2.6871232492229224 217 228 255 161.740829 134.784012 4
0.77420350915162484 -0.67500674381668868 3.5470150438318635 243 255 234 466.560059 219.801636 4
-0.28993471270805848 0.47225783656640397 1.0414187809778159 255 92 130 279.936035 460.339264 4
-0.40928864873567039 0.37954887384522928 0.79252358522891031 151 255 109 186.624023 468.633667 4
-1.0910071306593814 0.4621040927303357 3.3163521579579589 173 173 255 257.126434 342.144043 4
-0.67021867023734361 0.15571760890459424 2.7929309673990046 138 141 153 292.377655 313.113647 4
1.0216832919015935 0.32267737339115288 2.3088875986767787 140 138 255 553.651306 342.144043 4
0.72592577004175352 0.49104070707237651 1.6224659021667724 255 158 176 555.724854 402.278442 4
0.99685214662514254 0.38941929341924642 2.2220906234123561 118 114 255 553.651306 354.585663 4
0.90942167738864554 -0.80029344533555102 3.7268173865713541 233 239 255 481.075256 203.21283 4
-0.66777705369220541 -0.51035302691406081 2.6434133062694207 255 225 229 291.133484 213.995544 5
-0.8145433917748357 -0.51627056498607704 2.641300709485308 226 228 255 261.273651 213.995544 5
-0.88477519935931337 -0.63789566474791426 2.8074420237311983 228 229 255 261.273651 201.553955 5
0.27296388292373663 0.46759717417688601 1.8226821393916102 219 219 255 445.409332 385.689667 5
-0.61210502797013966 0.28792867781747428 2.7535475707653343 227 227 255 301.086761 328.458282 5
-0.4331945242791746 0.42895866075263195 0.90105476943402429 255 118 147 199.065628 472.780853 5
-0.42862954911076812 0.36551073276977336 0.87749969520953153 255 205 214 199.065628 445.409332 5
-1.2965482887161306 -0.16871300787856547 2.6715699043789312 244 245 246 196.577301 263.761963 5
-0.85921375525532984 -1.9286419545712299 5.2616559700952594 187 208 226 320.993317 146.810898 5
-0.89201179465472169 -1.0881260980970733 5.3054493724166099 236 241 255 313.528351 209.018906 5
0.56303031132205628 0.47152070319071604 0.98258554887493821 146 151 162 604.661865 472.780853 5
-0.39869590669481547 0.47912175557054026 0.84331419842978605 83 81 255 201.553955 505.129028 5
1.8157658794470446 -0.85617022490701467 2.3657224037970068 219 224 233 676.82312 149.299225 5
-1.0654960582081712 -1.0927508833696074 4.0813509516648248 255 227 228 283.668518 181.647385 5
-0.31443265139187737 0.47786014049511888 0.95734517161283561 57 54 255 261.273651 480.245819 5
0.33057174718400506 0.52782402463235623 1.2632996781122885 255 121 135 487.710785 445.409332 5
0.57485364202298839 0.47792998683652566 1.3490856086367069 109 136 144 544.942139 423.014465 5
0.65552288040031947 -0.53139510175796412 3.7904997082022938 255 238 240 447.897675 233.902115 5
0.36442486647089578 -0.64582218130924252 4.2453828819840735 153 173 255 413.061188 228.925476 5
-1.5470605635519465 -1.4311567124592119 2.654801974033195 255 162 185 159.252502 79.6262512 5
-1.3912341986523784 -1.0218941706008575 2.6447709273533468 201 213 227 184.135712 139.345947 5
0.7332695863956179 0.45728766625257428 4.0251216176334106 147 161 255 457.850952 330.946594 5
-1.1771424232491179 0.45635609731653054 3.5535455065030961 166 255 170 258.785309 340.899902 5
-1.2385717552975839 -1.9927400232624022 5.2452592861985483 208 227 255 293.621796 144.322586 5
-0.91031366626361132 -1.5003866271470339 4.9485161792388279 233 255 206 310.542389 173.187103 6
0.81132561643227741 -0.68586708894542459 3.9114929474104736 236 239 243 468.799591 217.976868 6
1.3488169625191155 -0.81016519900744588 2.2842944213441703 222 232 255 609.140869 152.285217 6
1.2391198001291206 -0.71832193488605256 2.460210750290595 255 208 221 579.281006 176.173096 6
-1.2341688991076332 -0.16127142930105554 2.5770454935647549 245 246 255 197.074982 262.766632 6
-1.5327933961710913 -0.29344597932023719 2.7077852276565597 241 243 245 164.229156 247.836716 6
-0.85921375525532984 -1.9286419545712299 5.2616559700952594 255 187 207 319.500336 146.313248 6
-0.45653395991083845 0.41069422106548692 1.7517841429632179 46 69 83 280.682556 376.23407 6
-0.2168256928471064 -0.059882990785701917 6.2721229779866494 255 97 119 367.276093 283.668549 6
0.39921888274542683 0.34921995776073078 1.3851749961742286 168 255 129 498.659424 388.177979 6
0.58664197561835651 0.47972170884422771 1.3623445461999268 255 111 138 543.449219 424.009796 6
0.66735422484785212 -0.5631462928634734 4.0297907874187926 255 240 242 447.897675 235.892776 6
-0.29562144287120207 0.41626709342909901 0.77879493767090691 126 255 96 238.878769 489.701477 6
1.6081535135178215 -0.14209902150159245 4.6465132005099798 242 244 255 513.589355 274.710571 6
-0.66351624429083067 -0.37970729694643418 2.6884987836748313 224 224 255 289.640503 235.892776 6
-1.2265634848868241 0.45507800554174332 1.5115505471434338 201 255 198 74.6496124 403.10791 6
-0.17973225806906834 0.4613042696566339 1.1115115553599155 255 171 187 319.500336 450.883667 6
-1.4052263313185942 0.36837243589565183 2.7414219240162034 229 230 255 185.131042 343.388214 6
0.018241617758974371 0.1283708866659064 4.9032845301761903 165 255 115 382.206024 301.584442 6
-0.61210502797013966 0.28792867781747428 2.7535475707653343 230 255 230 298.59845 328.458313 6
-0.42862954911076812 0.36551073276977336 0.87749969520953153 207 211 207 200.060959 447.897675 6
-0.12432844976429536 0.32265080993195128 1.0673877570250325 199 255 190 334.430267 400.121918 6
-0.41246625015478111 0.40127934405221743 2.3711980144454197 185 201 255 313.528381 349.360199 6
-1.2085897169768587 -1.937411400260213 5.1460813961775065 201 214 226 292.626495 146.313248 6
0.57014661777063114 0.49947889295341963 0.9076079935169048 255 204 208 619.890442 494.479065 7
-0.20351082801250131 0.47466954135417383 1.1673128982015646 180 255 148 318.903168 451.480896 7
-0.27275057170394845 0.44431261176969983 0.97879058107463868 255 96 133 279.488159 458.647247 7
-1.0520935227233141 -1.0998211472432011 4.0546155808517401 255 226 228 279.488159 179.159088 7
-1.1276120550610096 0.42301570309636205 1.3910200176560075 255 201 211 71.6636353 404.899536 7
-0.29822291287308067 0.46011107232593607 0.92456089610369085 57 54 255 261.572266 480.146332 7
1.6693013334732703 -0.80355154867451539 2.2561486547846523 224 233 255 673.638123 154.076813 7
-1.00659023139767 0.44229064889235237 1.4931013908618307 100 120 255 125.411354 401.316345 7
-0.82725332372718974 -0.13979244830770485 2.4883145235851978 146 255 91 254.405899 265.155426 7
-0.66011251472307064 -0.36759693486121942 2.6601266737248843 226 255 225 286.654541 236.48999 7
-0.36564374711889536 0.30733422531667004 1.9094368753338724 255 178 188 311.736786 347.568604 7
-0.91917750054473046 0.31127187982610843 3.7984807815333239 157 255 152 290.237701 311.736786 7
-0.82016527336772027 0.083700467162491882 2.1262983246776446 110 127 255 229.323624 297.404083 7
-0.38742261293671221 0.33708850767110399 0.7980272774275825 211 207 255 197.074982 447.897705 7
-1.4817898163353043 0.37082536250303361 2.5977670079594213 222 224 224 168.409531 343.985443 7
-1.8111095880039052 0.17931314764093914 2.9003626739362227 247 255 239 146.910446 304.570435 7
1.3590944813695904 -0.82555903746593318 2.3304679538541313 227 234 255 605.557678 154.076813 7
1.2470881131682949 -0.72431211874183665 2.5135386179563697 208 221 234 580.475403 179.159088 7
-1.4186188550992416 -1.0348226412753634 2.6719878845252021 255 205 215 179.159088 139.74408 7
-0.98795870348801307 -2.061872833498648 5.7612300388654143 226 255 187 318.903168 146.910446 7
-1.5075081338352891 -0.28892472791356105 2.636881446475472 241 243 245 164.826355 247.239532 7
