ply
format ascii 1.0
comment Written with hapPLY (https://github.com/nmwsharp/happly)
element vertex 161
property double x
property double y
property double z
property uchar red
property uchar green
property uchar blue
property float ix
property float iy
property uchar octave
end_header
0.4233701154698517 -0.52330673699001284 3.8810329518247633 255 135 157 427 235 0
1.3474992880023147 -0.069990384511543102 1.9783972890037633 176 255 113 646 274 0
2.3902919945440373 -0.046067067500418224 2.6822688352308184 255 66 143 727 281 0
-0.55142567141421317 0.47562187706151837 1.0237745445333886 182 255 148 178 466 0
-0.97485641597650918 0.15115537230192932 1.3117056664813238 255 53 75 99.6000061 333.600006 1
1.3872306068127065 -0.074539580781694814 2.0412059265044924 140 176 255 645.600037 273.600006 1
0.37189531034070988 0.47680430462810058 1.1257984810227346 209 209 255 513.600037 450.000031 1
1.10536143120886 -0.47584467231634398 2.7654085408241347 255 234 238 535.200012 223.200012 1
-0.45149734628650151 0.59148504687161652 4.3982682981413337 164 255 112 346.800018 340.800018 1
-0.96900753549048702 0.39964625927904673 1.3639966278925684 255 4 4 111.600006 400.800018 1
-1.0496356024814433 -0.21157177112128034 1.3860175400176948 34 59 255 93.6000061 229.200012 1
-0.52643565702155071 -0.51578738702552851 1.3862214911664137 214 228 255 237.600006 145.200012 1
1.2669219844962325 -0.25877482178820665 1.951400447870383 160 198 255 633.600037 237.600006 1
-0.99207519490850515 -0.41231193431337365 1.3399037437855177 65 87 115 100.800003 168.480011 2
1.3374990033292686 -0.074145349996359022 1.9594348983271903 140 176 255 645.119995 273.600006 2
-0.1203509519868784 0.50890859798004007 1.5341138263038951 255 26 45 351.360016 416.160004 2
0.17676398418702899 0.57626388026647901 1.2687651768710002 187 204 200 440.640015 462.240021 2
-0.49811630029686738 0.078997405819308253 7.9814246142270342 135 255 92 362.880005 290.880005 2
-0.986740710622247 0.29630295219843905 1.402612890798848 24 35 29 112.320007 368.640015 2
0.58283889720375259 0.3851571545118439 0.65197418450351785 255 93 112 727.200012 514.080017 2
0.3170025692306182 0.33305057736806248 4.399784227552626 164 177 181 408.960022 316.800018 2
-0.91365153631864704 -1.9262624690284582 4.0049269424018226 255 164 190 299.52002 102.240005 2
1.0139001466779787 -0.47550401234730533 2.7505382380390291 243 255 234 522.720032 223.200012 2
1.2638549611147702 0.5418304396445689 1.7258530240493446 16 30 255 665.280029 408.960022 2
-1.0536619363186324 0.23222450436724962 2.3405517458562066 116 255 104 210.240005 328.320007 2
-1.005861243504258 0.54095723880559943 1.6707860999341015 255 100 103 151.200012 413.280029 2
-0.59335017809113744 -1.4149108512847244 3.8298997174333325 101 123 143 324 148.320007 2
0.17332772093761961 0.40013219435239683 1.0907947525207984 140 156 160 444.960022 429.120026 2
-1.1906963646270055 -0.33838290339946442 1.3096509512947252 237 255 232 34.5600014 188.640015 2
-1.1798140370135144 -0.70780022935552467 1.2912302366937118 209 255 155 34.5600014 79.2000046 2
-1.1979803187477778 -0.89787121535563563 1.3414731288306339 124 138 160 40.3199997 30.2400017 2
-1.0083545517807821 -0.58284821229933503 1.3643652683048733 255 47 71 99.3600006 123.840004 2
2.4349286443487332 -0.055013639567630362 2.742251294471199 144 177 255 725.76001 279.360016 2
-1.1098726016157574 0.45648312868575336 1.2053426668776721 127 148 255 33.1200027 432.000031 2
-0.39386817708457666 0.25238247351433185 1.2875720373183626 255 235 236 267.839996 365.76001 2
0.34575347762575115 0.34311013901966736 0.64493083307962085 255 130 140 591.840027 493.920013 2
0.22095183712534539 0.53328064174197332 1.0191442535898347 220 220 216 468.288055 485.568054 3
1.2690829497497054 0.54261349652490776 1.7308453316483412 255 13 20 667.008057 407.808044 3
-1.0552887714846841 0.12956567724032964 1.327662978562397 255 92 109 79.4880066 324.864044 3
1.1207397760737101 0.44017567763874377 2.0086378691661606 255 128 146 599.616028 373.248047 3
1.1339123967027911 0.44284755719889202 2.0285789206638594 147 159 178 596.160034 369.792023 3
-1.0530768050695585 0.34167172385881361 1.3233787673548183 89 70 255 77.7600098 387.072021 3
-0.34113975720933443 0.28070297228479912 1.5608835129762486 154 171 181 300.672028 355.968048 3
-1.0001461331707939 -0.41387650289233802 1.340148172612023 64 87 114 100.224007 169.344009 3
-1.1665767512731375 -0.097609194832290691 1.2821926396580396 243 255 242 34.5600052 259.200012 3
-1.1069831580059755 -0.2264884678386605 1.4728788093688929 40 66 255 93.3120117 228.096024 3
-1.1097576175400548 -0.15747999216971009 1.2376732841187423 255 198 203 39.7440033 240.192017 3
-1.0240879518885153 -0.32593770169169867 2.0608013454644949 226 226 255 193.536011 226.368027 3
-0.55529640506479749 -0.53936251407807489 1.4566667730739615 200 214 228 236.736023 145.152008 3
-1.2137516910292749 -0.80748473537428833 1.347974457016035 149 173 204 36.288002 57.0240059 3
-1.0702189271394666 -0.67173142501117133 1.3583498399921279 255 62 88 79.4880066 96.7680054 3
2.429058221036541 -0.043346635599821354 2.7291842804066535 144 177 255 725.760071 279.936035 3
0.87279844399967244 -0.33878044709721306 2.8681635625257655 242 245 255 497.664062 243.648026 3
-0.5574140238381724 0.47510756400878507 1.0278016486457595 149 162 182 176.256012 464.832031 3
-0.32168533391945608 0.42857441372841409 1.6238625811385274 255 143 157 307.584015 390.528046 3
0.42299783957063375 0.33278638455372578 0.66920430199639069 255 106 117 623.808044 478.656036 3
0.10059896100115595 0.48797981083819847 1.1409991312019545 216 255 209 418.176025 451.008057 3
-0.18354926958563311 0.0075142581854805157 2.9147155994922898 93 115 135 360.806458 290.304047 4
1.0988276176652363 0.4220222820116758 1.9278995583638556 255 128 146 599.270508 373.248047 4
1.0920425047425999 0.37560870601964791 2.0313364882931984 180 255 141 590.976074 358.732849 4
-0.9543192090800181 0.39138922338708682 1.3242373112727299 0 0 255 109.900818 402.278442 4
-0.93049708305422518 0.45772238446610491 1.4890961233808477 208 203 255 145.152023 406.425659 4
-0.4820636630458468 -0.078894369797092523 1.4342416078830054 255 115 123 255.052841 265.420837 4
-1.1718963074731126 -0.15874351647048746 1.3176320585871037 255 198 203 39.398407 240.537628 4
-1.1695607553446941 -0.37118628204168724 2.3448451606156162 226 255 224 194.918427 226.02243 4
-0.9993171246165633 -0.71525214487966127 1.3237519923336944 84 112 255 97.4592133 80.8704147 4
-1.1967150424327975 -0.50136002049812667 1.3450445048859003 255 182 189 39.398407 145.152023 4
-0.95338196048347346 -0.54383417860641625 1.2819116034206495 59 93 255 97.4592133 124.416016 4
-1.1820836017779577 -0.57334201387112138 1.3234215144978947 255 163 175 39.398407 122.342415 4
0.087063636545153589 0.012626684597473237 5.4814608228544905 255 96 119 387.763245 286.15683 4
-0.42828900481845977 0.26676603692934198 1.4116115480368499 255 223 223 267.494446 360.806458 4
0.42002991498361464 0.32960970831720782 0.66374930339588278 90 99 115 624.153687 481.075256 4
0.35943554631881325 0.46562760494652006 1.0894913842358696 193 255 171 510.105682 449.971252 4
0.32682829213727782 0.51349048499625338 0.93715024547628945 158 255 129 518.400085 497.664062 4
1.0902155779558322 0.34819191729163013 2.2860435467877638 125 143 173 568.166504 348.364838 4
3.2417661340505397 -0.032376103153661184 3.6082143823463095 143 175 255 725.760132 288.230438 4
1.3642925816569385 0.1053378604828356 1.9715303184371589 255 100 127 651.110474 311.040039 4
2.2742804506732814 0.4282606874207342 2.5622977754680036 112 143 255 725.760132 354.585663 4
-0.23601249141349134 0.45852963741085467 0.87431220789760866 234 233 255 277.862427 491.443268 4
2.4636467723180004 -0.059371001723856592 2.7820168146388822 144 177 255 725.760132 279.936035 4
-1.0324090307096139 0.23003286389782396 2.2604216906993653 108 121 255 209.018906 328.458282 5
0.17113808430041622 0.39029424356668596 1.749483455159119 255 165 171 423.014465 368.271423 5
-0.25306670212487736 0.36113529026692914 1.6327762431475659 77 99 255 325.969971 373.248047 5
-1.0239376342093518 -0.7319981882682598 1.3581897717384632 107 255 50 94.5561752 82.1145706 5
-0.98072616132883494 -0.26098362937101383 1.2988714385391451 255 66 88 99.532814 211.507233 5
0.66359772770048697 -0.58951612200311843 3.2181081044876976 242 255 233 462.827576 218.972198 5
0.34153616974228873 0.33438923250584213 0.61841696871652552 150 255 126 594.708557 492.687439 5
-0.34456053390133734 -0.30494976533768559 1.4436775594223521 255 222 231 291.133484 204.042267 5
-0.54067614086773075 -0.45662390530483221 1.4758577346057615 234 255 214 238.878754 166.717468 5
-0.62233351162594097 -0.062836574302718384 1.594165984552582 101 129 255 233.902115 271.226929 5
0.042592063697620919 0.025611366641816458 5.7221618932199529 139 255 96 390.66629 286.15683 5
0.41398116753137115 -0.51083266914470071 3.7509627068811753 150 170 255 425.502777 236.390427 5
-0.49747278964179964 -0.50849543038009593 1.3368033223184277 227 255 199 238.878754 144.322586 5
-1.3927456389636768 -0.10948664733229962 2.9068319296681961 255 218 219 199.065628 271.226929 5
-0.9099844885364976 0.011882065740036918 1.331284607373405 35 54 79 124.416016 288.645172 5
-1.0567773902920656 0.047138615398255035 1.3486374866643627 255 87 105 79.6262512 301.086761 5
0.28685546155296704 0.27111482524350428 3.7844985597188883 173 255 163 410.572845 313.528351 5
-0.17578072076898676 0.4848325173241404 1.3529704932633786 255 60 80 335.923248 430.479431 5
1.3258363042198789 0.1076016699578462 1.8962345889223746 255 105 127 651.939941 308.551727 5
-0.95054480399863284 0.39751587665564303 1.3285034255172747 0 0 255 109.486099 400.619568 5
-1.0442720357441053 0.34569582759044049 1.5170207944515259 3 255 7 114.462738 375.736359 5
0.064675964645064976 0.006877714090287812 5.6783468497610183 96 118 138 388.177979 286.65451 6
1.2822510279621033 -0.047936590056588485 1.8691403662292103 120 145 175 644.972656 277.696564 6
-1.0492201535050421 -0.21339156005981241 1.3793904809128197 59 85 255 89.5795364 226.93483 6
-1.1151934434677901 -0.3841713186408201 1.5194737298719545 121 255 87 98.5374908 188.117035 6
0.71540618000753464 -0.66879714670576584 3.6622121235517699 255 204 212 459.841614 217.976868 6
-1.0164325149361861 -0.64690364263897926 1.3362386456100332 48 77 105 92.5655212 101.523476 6
-0.99773402698614744 -0.8010600440946406 1.3267342510168114 110 255 68 98.5374908 56.7337074 6
0.91710086608556907 -0.36947868658150451 3.1539574691251326 245 255 239 498.659424 238.878769 6
-0.37047200170451688 0.29167412621622868 1.7200195714304662 180 255 151 298.59845 355.332153 6
-1.0387674353377312 -0.16987889820523661 1.3615181946037112 42 75 255 89.5795364 238.878769 6
-0.61635880574186697 0.14357894977913044 1.5512680503766627 147 157 255 229.920807 325.472321 6
-0.30702197641189954 0.44509216666559237 1.3023096816577482 162 170 182 292.626495 421.023834 6
1.0787164585552025 -0.36623928847768272 2.4100238291418377 255 239 241 555.393127 232.906799 6
-0.53751881272954938 -0.53219009633841841 1.4578827619087877 255 201 214 235.892776 146.313248 6
0.29644469445222965 0.25336948079707394 4.2769001094131758 177 176 255 409.079895 313.528381 6
-0.60886407803990128 -1.4164389148564001 3.7785186979860343 136 255 98 322.486328 146.313248 6
-0.56468125064405283 -1.9207788114680739 4.1827174488014309 255 165 192 331.444275 113.467415 6
-0.24015291018206208 0.21690571527975272 2.6784964678925887 117 137 255 349.360199 313.528381 6
-0.57194959528719247 -0.053434762485397802 1.4471740557652417 107 118 140 232.906799 271.724609 6
-0.39963804108456724 -0.23230174139706183 1.6580929962136786 237 244 255 289.640503 232.906799 6
-0.24707635895755109 0.35316273136855181 1.263703708582042 255 140 154 307.556396 394.149963 6
-1.0324090307096139 0.23003286389782396 2.2604216906993653 138 255 136 206.032928 331.444275 6
-0.1639970105709414 0.54978178493504937 1.4152136938697715 221 224 224 340.402252 438.939728 6
-0.983615261988116 0.40757245482982418 1.3809534337982932 255 0 0 107.495445 403.10791 6
-1.0881337845506978 0.34433162732641598 1.3667993472462268 102 98 255 77.6355972 385.192017 6
-0.9953713254554879 0.28294441998393705 1.234710520373949 90 108 123 80.621582 376.23407 6
-0.97971513245751662 0.54040575196352747 2.2290630748701412 117 255 95 214.990891 376.23407 6
1.1929044352134797 0.50970845020825506 1.7368927311672504 68 71 74 644.972656 403.10791 6
-0.55611757701793874 0.45132071582689692 1.1629106478787437 206 206 255 197.074982 438.939728 6
-1.0213148765000915 -0.1017426637968305 1.3333427139423137 87 111 255 89.5795441 257.989075 7
0.84817442944454435 -0.54345202072980447 3.0299212517152725 255 235 238 483.729523 222.157257 7
-0.33501075863244179 -0.42549264759543493 1.3580950350852263 221 233 255 293.820892 168.409531 7
-0.33808451061699385 -0.29675215738423888 1.4194497450369301 239 255 223 290.237701 207.824539 7
-1.242248933360095 -0.37512560976291054 2.3771237552340203 255 226 227 179.159088 232.906799 7
1.5323239271214768 0.56177723744393848 1.9656291308279643 13 22 35 684.387695 404.899536 7
0.31109911240089705 0.31473662939196889 4.4542471882655938 164 177 181 408.482697 315.319977 7
-0.2600659867373043 0.37165033265657332 1.3767201436330967 137 153 167 308.153625 394.149963 7
-0.30794478852862195 0.44510017842266003 1.1335155609381027 157 173 195 272.321808 437.148163 7
-0.29667201723897207 0.44721280361528837 1.3227329111676864 185 191 255 297.404083 419.232239 7
-0.58681615105954732 -0.062753785028034414 1.4617891521846325 138 153 255 229.323624 268.738617 7
-0.98791536000089941 0.22894373178395211 2.1266313250672537 255 124 127 207.824539 329.65271 7
1.0692398073976856 0.42765451012623329 1.9490057478030387 172 255 128 598.391357 372.650879 7
1.2223927463452067 0.26592353040438454 1.8682746038121145 119 134 255 637.806335 347.568604 7
1.2245187071478729 -0.44861389524234907 2.0176438586370127 255 226 233 619.890442 204.241348 7
1.0776183006621873 -0.68630082754144184 2.2269756717157394 226 235 255 569.725891 175.575897 7
-0.90225975066362496 0.41552856745685163 1.4143111815750986 255 149 152 143.327271 401.316345 7
-1.0335873543419956 0.32713198572139834 1.2754210516833959 255 84 99 75.2468109 386.983612 7
0.18597938892400867 0.53737170076812024 1.0564285427833209 255 221 220 451.480896 487.312714 7
0.060346248573474481 0.40536130715007834 2.263484171118785 108 255 60 394.149963 354.734985 7
-0.15265910523150139 0.51872373319740284 1.3797756973516035 209 212 213 340.402252 437.148163 7
-1.0411550793117144 0.018051009356608749 1.4805244303465082 255 61 84 107.495445 297.404083 7
-0.86681649418821838 0.24287302939675603 2.1695138113110897 162 170 255 229.323624 326.069519 7
-0.7391848014603859 0.44763151646039478 0.88228839680494664 139 153 173 68.080452 480.146332 7
0.95269774224733328 -0.43433466120710862 3.296644304121088 245 255 239 498.062256 240.073166 7
0.39757099618614578 -0.49543193072239133 3.9596552527339108 160 255 138 422.81543 236.48999 7
-0.99962277974482827 -0.56843135629777797 1.3091692509418702 85 115 255 93.1627197 121.828178 7
-1.0483784477278082 -0.73752858606484684 1.3818615549881237 93 121 255 93.1627197 78.8299942 7
-0.64112557497793654 -1.3555222778892657 2.7587134250447125 192 217 255 293.820892 103.91227 7
-1.0618411622918664 -0.21154069546839571 1.3942590769577712 34 61 255 89.5795441 229.323624 7
1.2295173767975538 -0.68287472665501381 2.274689967620259 233 255 208 594.808167 171.992722 7
