ply
format ascii 1.0
comment Written with hapPLY (https://github.com/nmwsharp/happly)
element vertex 86
property double x
property double y
property double z
property uchar red
property uchar green
property uchar blue
property float ix
property float iy
property uchar octave
end_header
0.81973910432676322 0.37056087936808701 3.1268307201844632 170 255 139 486 334 0
-0.93078466404243798 0.25959549061587373 1.6683676406310139 122 150 255 169 346 0
1.2220828772828662 0.52640445576365902 1.4036166061543902 131 255 134 718 430 0
1.2253213006901276 0.60778162195903185 1.6119813944932071 100 255 101 674.400024 433.200012 1
-0.92859686635758631 0.25764828526429184 1.6501316058066964 127 155 255 169.200012 345.600006 1
-0.27346969269338572 -0.14447094865051846 0.81745532179893576 62 84 104 256.800018 219.600006 1
0.17139895117546544 0.68532366133931677 3.3160230073139365 145 154 151 404.400024 367.200012 1
0.15261887450786182 0.039196265634210858 5.1118328139584754 160 174 173 396.000031 291.600006 1
-0.31531639937129441 -0.41990303896481329 2.7205536946140096 255 28 41 339.600006 228.000015 1
-0.4638220490828906 -0.48337731992074562 0.85442489729588633 255 154 181 175.200012 73.2000046 1
0.52378122934648741 0.3369686602768005 0.56812025033730684 171 255 184 738.720032 516.960022 2
0.38982442297634301 0.34827515136216269 3.5426077453477447 146 255 102 426.240021 328.320007 2
-0.83048685137080902 0.55307397411284231 1.0984006964429067 0 0 255 93.6000061 479.52002 2
1.1581690675267877 -0.42783691750891628 2.1569745197483696 226 234 241 588.960022 208.800003 2
-0.28781443331332568 -0.3861683922746606 0.83201686514003637 77 101 255 249.12001 109.440002 2
1.1664376228093931 -0.67043820794173592 1.7330720112140696 255 198 213 643.680054 142.560013 2
0.14707844409525928 0.66889547307048702 2.6984507525810297 136 255 119 406.080048 385.344025 3
1.240265290510425 0.49667190737727207 1.5452415149453955 74 255 48 694.656067 411.264038 3
-0.3001955443935449 -0.39915225799542631 0.87041948574534622 42 77 100 252.288025 108.864014 3
1.0894282145417673 -0.40604054164067493 2.1361494808684593 242 255 231 578.880066 217.728027 3
-0.45675618550836061 -1.8380588525298207 3.4843966860707694 130 157 255 333.504028 84.6720047 3
-0.46236130280046606 -0.48125949287446823 0.85005994288092968 155 181 211 172.800018 72.576004 3
0.82682713627443793 -0.62520496852881424 3.0484929378223811 255 232 236 487.296051 209.088013 3
0.7538323631718451 -0.29499950346909265 2.6419490211680206 241 243 246 492.480042 248.832031 3
-0.21714175399611557 0.43284926023002224 0.87318871591403369 95 255 37 286.848022 480.384033 3
-0.94008245252653833 0.22748104469527064 1.1184428309898884 155 255 140 58.7520065 368.064026 3
1.2107587369083892 0.48393324242178726 1.4967594335473846 45 52 71 696.384094 411.264038 3
-0.95711117604136398 -0.60002135351053765 1.2330767613987286 227 228 227 84.6720047 98.4960098 3
-0.47466513168330993 -0.057082236433778855 1.0130460750655939 104 131 255 205.286423 267.494446 4
1.4004177997410383 -0.72314846471586891 1.8869672866480478 227 234 255 673.920105 141.004822 4
0.5372887083375335 0.59790312147704583 3.5643245010016136 108 138 255 441.676849 352.512054 4
1.0821442809901209 -0.43458197166689283 2.1836878802591313 228 235 242 572.31366 213.580826 4
-0.82588837672573634 0.54797476327198957 1.0919933816695115 0 0 255 93.3120117 479.001678 4
-0.48022206784517607 -1.8720247131330567 3.5891557921691017 131 160 255 333.84964 85.0176086 4
0.53422316447905671 -0.55558059147586203 3.4063779813971378 105 137 255 445.824066 223.948837 4
-0.9109074539951072 0.25331338571837492 1.6128324452523817 180 192 255 165.888031 348.364838 4
19.2381189471634 -31.24897808321429 58.643913248976503 193 217 255 505.958466 85.0176086 4
0.86415979648066832 -0.27256746712086422 2.1683972720310853 238 241 245 532.500549 238.878754 5
0.53131153722634616 -0.50754575340359409 3.2313124245765916 105 137 255 445.409332 223.948837 5
-0.2768142217025642 -0.26976256206908156 0.84058863286358054 53 72 94 256.296997 164.229141 5
-0.51835242637491064 -1.3840137097927361 3.2396658312088684 255 111 127 323.481659 126.904335 5
-0.31466240906464593 0.45690473488931782 0.83875535379199695 52 78 255 241.367081 495.175751 5
0.76555036323303982 -0.61091304625853615 2.9988511365713952 255 232 236 487.710785 209.018906 5
1.2007472578130902 0.4817572822067232 1.4872431500640255 69 78 98 696.729675 410.572845 5
-0.91912944367160865 0.22434614208213377 1.0788963503501066 255 139 146 59.7196884 368.271423 5
0.1386140793391093 0.02902845708013313 5.3870410005534897 173 255 145 390.66629 288.645172 5
-0.10415268702204905 0.045210125259368183 2.3019148081140148 102 124 145 368.271423 301.086761 5
0.15005809195623598 0.56262009862876194 2.6232641812767943 149 146 255 405.596222 368.271423 5
1.0459763356310487 0.55266534665935452 1.8738566123349614 146 145 255 597.196899 398.131256 5
1.1228814555494984 0.37187869883431879 1.6601991483842067 42 59 255 641.986633 370.759735 5
-0.30780172210818657 -0.16481191463550382 0.9380719063366092 64 84 104 256.794678 217.976868 6
-0.94137198116604459 0.26109612931428572 1.6618173659854527 200 203 208 164.229156 349.360199 6
-0.94091505585412349 -0.60870649972234592 1.1900450815825696 255 209 209 83.6075668 86.5935516 6
0.93409343109429666 -0.5199015916594899 2.5631260777960714 241 255 228 522.547302 212.004898 6
0.7595206840964337 -0.60769787787941421 2.9730345459250058 242 255 233 486.715485 209.018921 6
1.0039499675922223 -0.32007606847884096 2.5855889753851207 255 239 242 531.505249 238.878769 6
0.71400550458362289 -0.29296978669504692 2.4830462203139767 240 243 246 492.687439 244.850739 6
-0.43028150466405668 -0.38108810489488532 0.77491993331803055 208 222 255 173.187103 104.50946 6
-0.44737975863145918 -0.47134150961429944 0.81301016554349648 181 211 255 173.187103 71.6636276 6
-0.54846797574216222 -1.3976267857343032 3.285708910864825 159 255 111 322.486328 128.397339 6
-0.30920370006996833 -0.41137612526634193 0.90829734500712966 100 255 42 250.822708 110.48143 6
-0.27360077432993668 -0.4254015926925736 0.92197008466963615 255 43 75 271.724609 107.495445 6
-0.25400702575221956 0.2967896652752251 0.93243028986564047 42 69 93 280.682556 412.065857 6
-0.36911171613223193 0.3055341195226009 0.90171593462415167 168 255 187 226.93483 421.023834 6
1.1581972840519028 -0.61284968515887472 1.7043677408589275 215 229 255 641.986694 146.313248 6
0.38363939486303145 0.36374681838097622 4.242997882255314 108 129 150 424.009796 325.472321 6
1.164465351078553 0.38760875632595704 1.7419461643373495 137 166 255 641.986694 373.248077 6
-0.93973890722682718 0.22979120533121167 1.1084772512499415 255 161 168 59.7196922 370.262085 6
1.1118032943195995 0.51064380820797961 1.9008705558279653 255 136 150 603.168884 391.163971 6
1.1860336538041678 -0.65487259393862585 1.7791601365200336 215 229 255 641.389526 146.910446 7
1.2968584226886652 -0.65001168895989803 1.7217987787336471 227 234 255 677.221313 143.327271 7
0.94103658784360988 -0.5252835976801179 2.6291152281990513 255 231 236 519.56134 214.990891 7
0.80271510477287067 -0.65296890376854599 3.2411033092669141 255 234 238 483.729523 211.407715 7
-0.27261664240792038 -0.27764316550479351 0.90279841539911665 60 71 87 268.738617 168.409531 7
-0.29001492970535381 -0.3880115021088546 0.8302395272062415 100 255 42 250.822708 111.078629 7
1.1942585236125787 0.47594259089652668 1.4625504352163663 255 22 30 695.137207 412.065887 7
0.27746942088158866 0.30585388182626683 3.2351701606578676 163 255 134 422.81543 326.069519 7
0.13540329892173308 0.038701952068072254 5.1841036622464678 173 255 144 390.566803 290.237701 7
-0.21367752751816305 0.26415564519330736 0.78547891396485081 255 22 42 279.488159 415.649078 7
-0.35525690510139718 0.29462239915264332 0.84169128739861687 189 192 255 225.740448 422.81543 7
-0.16203935976838402 0.050762409421476251 2.9274230114131328 121 142 255 365.484528 300.987244 7
1.1160319810460801 0.52380950742470067 1.9267594809980766 147 175 255 601.974487 390.566803 7
-0.94137198116604459 0.26109612931428572 1.6618173659854527 222 224 255 161.243179 351.151794 7
30.813655041284463 -30.845899387369546 60.444143007547225 155 185 215 576.892212 93.1627197 7
0.99071231569787188 -0.32681745340541535 2.5177541448556449 242 245 255 533.894043 236.48999 7
-0.31950383390985593 -0.19558334731586591 1.082087706682187 70 86 103 268.738617 218.574081 7
