ply
format ascii 1.0
comment Written with hapPLY (https://github.com/nmwsharp/happly)
element vertex 152
property double x
property double y
property double z
property uchar red
property uchar green
property uchar blue
property float ix
property float iy
property uchar octave
end_header
-2.1783783747031573 -2.7233409653971408 4.1103414731409389 130 176 255 181 34 0
-2.0973542291858718 -2.340913099822771 3.6066140508989322 96 132 178 160 40 0
-2.2094991932368524 -1.8054083075760927 3.6309152570640446 151 171 199 148 97 0
-2.1841634094687858 -2.2537482521939656 3.6136740669674894 255 102 136 151 49 0
-2.0879767225152666 -0.36393602763768579 3.6317476284539887 255 235 236 163 250 0
-2.3743682958743739 -1.5710242832361019 3.8071363927172319 200 214 255 145 130 0
-2.1619674230451058 -1.106020535890833 3.7459112654203959 209 216 226 160 175 0
1.0989736041148621 -0.40274532840584842 3.2666904261794221 117 255 86 514 241 0
-2.2722640025392318 -1.123215754384127 3.6536321297777419 217 226 255 145 169 0
1.3728919815713525 0.1346565787738567 1.4668071732630188 152 255 179 742 322 0
1.3558292209111218 0.33016246502646662 1.4276659270321108 95 97 117 748 379 0
-2.3258536831873458 0.16720991677746322 3.6430392925860544 255 222 216 139 304 0
-1.5299153548378803 -0.22100567820594313 3.7129532117102229 184 255 173 226 265 0
0.16120881645371321 -0.28359876681072999 1.1333434579136976 255 210 218 439 190 0
-1.4950947167615127 0.28213745223687137 4.178056537219919 255 140 143 247 313 0
0.24660072202042072 -0.50682753803071301 1.1425889669794567 208 255 167 466 118 0
1.3682057486412056 0.11717598530299883 1.4501394057900192 134 255 196 746 320 0
-2.3341324377537234 -0.37696859938958438 3.7391529713546792 239 255 233 146.400009 249.600006 1
-2.2611666744537007 -0.51659517485026685 3.6432175593200493 235 238 255 145.200012 235.200012 1
-2.1533472250942687 -1.611669406444173 3.7366448834851642 255 192 201 163.200012 122.400002 1
1.3211893502904308 0.42279845715028053 1.4252023209296407 69 86 255 741.600037 402.000031 1
0.41578982457293595 0.28692736833208282 0.5627294852073973 255 209 213 667.200012 483.600006 1
1.7834355503368164 0.18852862299205592 4.7312613081886035 112 133 255 529.200012 306 1
-0.57489841487546545 0.30883250479320307 0.71435483466547345 255 60 91 75.6000061 453.600006 1
1.1390815355627653 -0.42815544319881949 3.4020378257924326 102 124 255 513.600037 241.200012 1
-1.5958623882956497 -0.60500810152383788 3.7695691685894275 255 122 130 223.200012 225.600006 1
-2.1666995421498356 -2.5139640158657124 3.696869498146568 255 97 130 159.600006 26.4000015 1
1.1572621895718409 -0.80609588178167813 3.4607641763212111 218 230 255 513.600037 199.200012 1
0.2553715840229599 -0.52385739312030777 1.1873180658146287 183 208 255 465.600006 117.600006 1
-0.58220582903519524 0.33160892350847049 0.72290922021422443 255 126 136 75.6000061 465.600006 1
-2.126895660499275 -2.2804002513490524 6.8220623042127215 199 218 255 261.600006 159.600006 1
1.370030631748747 -0.035179860627628373 1.4583646028863249 241 241 243 744 278.400024 1
1.3632610837925858 -0.12782503714928101 1.4500942280325706 239 239 242 744 255.600006 1
1.2168078292107816 -0.097079120141282144 1.4160381085519134 255 240 241 711.600037 261.600006 1
0.38411082249639816 0.45494580125240908 0.77998502865913921 210 255 208 574.800049 512.400024 1
-2.4464301271489508 -0.11903353530488964 4.3443234639958206 240 242 255 169.200012 279.600006 1
-1.6405526866094164 -0.19556979632955968 3.7563369084965013 73 89 255 217.200012 267.600006 1
-2.2360685109949223 0.018554403367401329 3.8665091816058705 255 238 239 163.200012 289.200012 1
-0.54347770793486339 0.42148883628750305 1.9426290214595587 204 255 202 274.800018 373.200012 1
-2.2109000217473591 -0.30140457011950533 3.5651368328120587 237 240 255 145.200012 255.600006 1
1.2746799613791446 0.042389595307863411 1.4030768403304357 239 244 255 733.200012 301.200012 1
-1.0282551764362378 0.30714172105144238 2.2203045945340834 255 121 135 207.600006 342 1
-2.0525472713630801 0.094301076055525512 4.4654693822135698 255 76 94 207.600006 295.200012 1
-2.1368111483181678 -1.0820682493632683 3.6980523486542025 210 216 226 160.800003 176.400009 1
-2.2919095964397918 -1.0748827078579604 3.6777957810058188 221 228 255 145.200012 175.200012 1
-2.2698386941950748 -2.3628159761506233 3.6785386540682308 178 255 99 146.400009 43.2000008 1
-2.3122357624904288 -1.8751328141670129 3.7977667505728467 199 255 149 150 97.2000046 1
1.1478912418630229 0.33132298811185573 1.5514584989878035 255 72 82 667.200012 369.600006 1
-1.9292501865932312 -2.0519253980967331 6.2032074759612437 255 183 199 263.52002 159.840012 2
0.41715305804543812 0.28971421175235951 0.57166927039675985 210 255 209 666.720032 483.840027 2
0.16708123081923199 -0.25012287146558487 1.1542902680211222 223 233 255 437.76001 204.480011 2
-2.0051038105058785 -0.2552342578941782 3.4153923415597554 241 255 237 158.400009 259.200012 2
-2.1187231960585828 0.30300797713675542 3.6704857182186408 211 213 255 165.600006 319.680023 2
-1.5332980273882439 -0.74731118994206891 3.6456918301438392 255 121 131 223.200012 211.680008 2
-1.5498093176028704 -0.18666911533260463 3.5717265112657643 73 89 255 217.440002 267.839996 2
-2.307046473120077 -1.1444852527907279 3.711933484312445 216 225 255 145.440002 168.480011 2
-2.0207139335094904 -0.23640358082216573 3.6702819975975904 255 238 239 171.360001 264.960022 2
-2.1988794227033091 -2.7431844958094849 4.139161909255983 94 129 175 180 31.6800003 2
-2.2563901135028308 -1.5143239541811992 3.6351479392485673 201 214 255 145.440002 129.600006 2
-2.1330092745960103 -1.6006426590771492 3.6953185247938425 213 255 191 162.720001 120.960007 2
1.2295103034775994 -0.082334398958909871 1.3826685612244518 243 255 241 722.880005 264.960022 2
1.0293506782527846 -0.9114799656223852 3.3831918724163339 220 229 255 501.120026 182.880005 2
-0.5690597739599681 0.30300403195294323 0.82611416989634234 191 191 191 120.960007 427.680023 2
0.072367322047376281 0.073177662167641072 0.53688803938570695 255 130 132 439.200012 339.840027 2
1.5463350544755636 0.17812390005330603 4.1753241116038797 99 112 132 528.480042 305.279999 2
1.2186887263503239 0.40553677010532785 1.3747489516944036 92 255 79 722.304077 399.16803 3
-0.053722582979149669 0.059700486955477146 0.12215607558952052 70 86 113 212.544022 475.200043 3
-2.440249142975861 0.1674321187843528 3.774694822431615 223 218 228 136.512009 302.400024 3
-0.99740823557010283 0.34852590316364196 1.4827385529908572 255 130 150 127.872009 376.704041 3
-1.6082043063506228 0.075194610152427885 3.4830955622740118 99 119 255 205.632019 295.488037 3
-0.61838748326226334 0.43693953101552546 1.4224418316240417 255 123 136 219.456024 404.352051 3
-2.7474332899457763 0.52930112347966096 5.9807750145675342 255 129 131 207.360016 323.136017 3
-2.4036286654450607 -1.1587732111588183 3.8441928174779179 220 227 255 145.152008 174.528015 3
-2.2810885645462795 -2.1114593604196807 3.6845890843793043 152 188 255 145.152008 65.6640091 3
-2.3553462205773479 -1.8358426579992324 3.7820493370330537 177 202 255 145.152008 100.224007 3
1.162267065216664 -0.80765554665781736 3.486650724167748 217 229 255 513.216064 198.720016 3
1.0071015110725783 -0.89416467652330067 3.3003473124551981 220 229 255 501.120056 183.168015 3
0.28326784262203142 -0.41468958869169265 1.1760937803013702 181 198 216 476.92804 150.336014 3
-0.59305221834496513 0.33699659608379118 0.73449673037214425 140 255 154 74.3040085 464.832031 3
1.2416376363161028 0.045922848322627531 1.3994252852411559 235 239 244 724.032043 300.672028 3
1.220622597555914 0.36523701727577579 1.4654134137552168 255 82 94 703.296082 383.616028 3
1.7130325752753528 0.173937838853788 4.4838745840151581 99 112 132 528.768066 304.128021 3
-0.70763469275914836 0.092137823516219949 3.8936841912740574 106 135 255 313.113647 294.451233 4
-2.1660954689458998 0.10079759124819748 4.0710031852480064 243 255 233 178.32962 298.59845 4
-1.4289500694435922 -0.84610114657341973 3.9949484017236383 200 255 195 246.758438 209.433624 4
-1.22805956658011 -1.604901880564872 4.9816024859461869 178 199 219 288.230438 163.814423 4
-1.6380672128384224 -0.20225176484700746 3.7438348234138905 255 53 73 215.654434 267.494446 4
-2.2560180416271249 -1.1313211797525005 3.6524431851038459 217 226 255 145.152023 170.035217 4
-2.346488308181883 -0.54016936569349749 4.7665074869046631 121 255 84 194.918427 240.537628 4
-2.1605807099072063 -0.34901205476002861 3.5337615183356847 255 234 236 147.225616 250.90564 4
-1.9763733174412739 -1.8587548575486568 3.5780616781277774 143 166 197 172.108826 91.2384109 4
-2.2696685533574277 -2.1885095722483272 3.7227788388293885 149 186 255 149.299225 60.134407 4
-2.0649175986860162 -1.3364247909027323 3.7387123363228683 189 202 217 172.108826 151.372818 4
0.16237370030873044 -0.25259941258504515 1.1556201425396351 255 217 223 439.603271 203.21283 4
0.15501979221396955 -0.28869149607273492 1.1547921096117766 255 210 218 439.603271 190.771225 4
1.1559618866737713 -0.78876050975188527 3.4636103112846075 208 218 230 512.17926 199.065628 4
1.6256924696639077 -0.17084334155506881 4.4441623148127603 127 255 62 522.547302 269.568024 4
0.9046960103110131 -0.24499750150052291 3.079330029205066 255 89 122 495.590485 259.200043 4
0.24850282431703608 -0.52410522286280459 1.1777541531685638 169 185 209 468.633667 120.268814 4
-0.93142801986931789 0.39389171290395475 1.4071205450349058 45 73 75 132.710419 396.057648 4
1.2631985333364244 0.051256152789599323 1.4172353119421999 255 235 239 723.686523 300.672028 4
1.1380609352830391 0.075580777122043974 1.5615057285631719 255 50 64 663.552124 311.040039 4
1.1867110000877252 0.34490103636976033 1.6377446219986413 255 88 98 663.552124 367.027252 4
0.071830909505498086 0.096339306538582234 0.50765248086596482 255 28 29 439.603271 360.806458 4
-2.5288580815400001 0.17203617278386416 3.9115249054796655 224 220 229 136.85762 301.086761 5
-1.0992045411325202 0.44199581914561209 1.8996984225866216 154 160 172 164.229141 375.736359 5
-2.1999283481076493 0.22472970630551797 4.273532261291737 117 255 176 186.624023 306.063416 5
-2.1819579540665783 -1.1319626457077487 3.7407453850807477 255 205 213 159.252502 171.694107 5
-2.2435903885879513 -1.8436752983350524 3.6897370533528195 162 195 255 149.299225 92.0678558 5
0.16294476840964067 -0.57561837146804495 1.1039561194245033 145 167 198 440.432709 89.5795288 5
0.17036418277572785 -0.24704358279005917 1.131692088380007 233 255 218 442.921021 204.042267 5
0.26027957759285758 -0.51007443203612246 1.1805737820585414 209 255 171 470.292542 121.927696 5
0.89525318934842946 -0.25135511735608285 3.0809507582124347 115 161 255 497.664062 258.785309 5
1.0831120054582815 0.16874860989399237 1.4823627281353999 56 68 87 664.381531 335.923248 5
1.1545567781844726 0.083234306136882652 1.5799443351741971 54 68 85 664.381531 308.551727 5
-1.7298944196015307 -0.2208165068283032 3.8539060836267094 86 108 255 209.018906 266.250275 5
1.1165709561756527 0.31634155046862311 1.5252804028677516 83 97 112 664.381531 365.783081 5
-1.4126756777201228 -0.59616243204982844 3.7008118691383807 219 219 255 241.367081 226.437149 5
-0.5070672598015642 0.27434448684849105 0.73329325983744464 255 191 191 119.439377 427.991089 5
0.57813180087645566 0.19846589410146959 1.5570707580748029 59 81 108 532.500549 335.923248 5
0.38804184334007147 0.29223429019475783 0.61869889257624866 255 210 214 627.056702 467.80423 5
-1.9781849654403727 -2.0744801616836734 6.323020449342196 255 192 205 263.761963 161.740829 5
0.45612276828252929 0.28899562507937132 0.59643596970891366 209 213 211 680.804504 474.771545 6
1.1466783308171404 -0.79360830236516877 3.4273158638176451 220 231 255 513.589355 203.046951 6
1.1262313802646815 0.077909179117296418 1.5474101398311142 84 255 53 662.88855 310.542389 6
0.16248498000834 -0.25561725096550175 1.142448019584547 225 233 255 441.92572 203.046951 6
-1.7601781795754086 -1.6912433425646618 6.295891215840169 220 224 231 280.682556 185.131042 6
-2.3254542717999049 -1.91583952274362 3.7960755278324001 162 195 255 149.299225 92.5655212 6
-2.1620033286320561 -2.011720705747829 3.4972864443471776 255 127 152 143.327255 65.691658 6
1.1259802110920525 -0.064552920648213843 1.5446527549799491 76 255 42 662.88855 271.724609 6
1.1982685878251864 -0.11313313137328049 1.4955917262365106 159 164 170 692.748413 256.794678 6
1.1648746647741524 -0.13628318496874658 1.5954283274068559 126 137 255 665.874573 256.794678 6
1.1105937113606519 0.30199675390010267 1.5309907666607276 120 255 98 662.88855 364.290131 6
-2.1523376420851736 -0.26126263856793019 3.9062031813320468 241 255 237 170.201126 259.78067 6
-1.8236630472091031 -0.42460398119654674 3.6570954862502703 119 255 83 194.088989 241.864746 6
-2.1522892679704682 -0.34901736369166636 3.5503973096322503 236 239 255 149.299225 250.822708 6
0.53059019218309555 0.23004749245898493 0.68174942325634502 255 200 200 683.790466 412.065857 6
0.16942218953079513 0.01280587376033052 0.4518176660657206 100 112 132 528.519287 301.584442 6
-0.92573756521904182 -0.27647256288056787 2.4822573372618151 212 214 214 240.073166 243.656357 7
0.29226478465744532 0.35857956725526552 0.68846822256320195 255 209 213 551.809998 487.312714 7
1.467656411456836 -0.14399621942387419 4.0271176306371101 255 65 105 523.144531 268.738617 7
1.2288198726076707 -0.20701080206852301 3.494335491418767 255 69 126 519.56134 257.989075 7
-2.3264892090934532 -0.2974660779969307 5.0278605447020155 255 61 82 211.407715 265.155426 7
-2.057788671994619 -0.4554179183260435 4.2282506778202862 95 113 255 193.491806 243.656357 7
1.1187801713019976 -0.76608052298210494 3.3731229164594732 210 220 231 512.394958 204.241348 7
0.28861915149607958 0.26890529270450264 0.87016943263876589 255 212 215 519.56134 408.482697 7
-2.9890082907882145 0.18598811854329955 4.5167866047478 234 237 242 132.577713 297.404083 7
1.6457117265942172 0.13791981266676123 4.3125153718155467 131 255 97 530.310852 300.987244 7
1.1286492531218004 0.067740799079208061 1.5794958477727561 255 63 76 659.30542 308.153625 7
1.1571775885297888 -0.13179658205582151 1.5678403050638623 116 255 113 666.471802 257.989075 7
-2.1441772233171372 -1.0982154446469932 3.6652593230780335 214 224 255 157.659988 171.992722 7
-2.4946589658300615 -2.27486764555562 3.9828874283603763 255 125 152 143.327271 68.080452 7
