ply
format ascii 1.0
comment Written with hapPLY (https://github.com/nmwsharp/happly)
element vertex 95
property double x
property double y
property double z
property uchar red
property uchar green
property uchar blue
property float ix
property float iy
property uchar octave
end_header
0.84675135979762062 -0.36221659359712688 1.2473413396656348 238 255 215 646 176 0
0.71498706621185582 0.68250130215518889 1.4339603246410197 228 228 255 577.200012 471.600006 1
0.83426824903487007 -0.47088616062219546 1.202972575763301 255 200 216 651.600037 136.800003 1
-1.518045256764073 0.62504210466542487 1.6515954592542235 217 214 255 33.6000023 433.200012 1
0.75606954730501719 -0.49576066337072144 1.4021617770200541 237 241 255 589.200012 153.600006 1
-2.0443078205991383 0.70505070377742074 2.8539984761292656 220 220 255 109.200005 385.200012 1
0.57745999991998076 -0.45464549513824015 1.3472558105888286 237 255 220 546 159.600006 1
-0.55140383650447422 0.67479380604179795 1.1321444628311284 255 111 125 199.200012 516 1
-0.63418253889048559 0.38351697331114792 1.3113719857821327 153 173 255 197.280014 398.880005 2
-1.3789636891058397 0.71283909113793908 1.7215647615764924 226 224 221 76.3199997 444.960022 2
0.9387843055542372 0.18391616626493087 1.2561151434533002 88 98 114 668.160034 345.600006 2
0.77103259012151715 0.5404939144514348 1.3425422735028807 228 255 228 606.240051 444.960022 2
0.72917677296403927 0.68820608368920333 1.0354924594361474 255 84 111 655.200012 544.320007 2
-2.1736942584187933 0.76087508259702963 3.05875923356143 175 198 211 108.000008 383.040009 2
0.61011699926194818 -0.47739347667062282 1.4323273834493975 227 236 255 545.76001 159.840012 2
-0.21158980390818538 0.25299232422493501 0.70607137241707019 255 41 50 267.839996 426.240021 2
-0.3023575701831307 0.63789394027209134 1.7990850861690433 139 255 54 318.240021 423.360016 2
0.71714832913707771 0.33070481726543643 1.1849061849332925 255 160 171 619.200012 396.000031 2
-1.3583937941224615 0.21528278640932372 2.2685342766453003 255 242 247 155.52002 323.136017 3
-1.5377774358334957 0.71253146500936904 1.8607542389162699 71 75 255 65.6640091 433.728027 3
-0.76233279716415758 0.6969675889206014 1.0594758398578108 255 75 80 107.136009 540.864075 3
0.89953072867340422 0.10787133226023116 1.2613377160135837 120 137 156 660.096069 321.40802 3
-0.92651671361329946 0.046830659842013067 1.8039088939177139 244 247 250 184.896011 297.216034 3
-0.57285699791572897 0.70138601352524199 1.1917114615993292 131 255 93 198.720016 514.944031 3
0.69578784818491779 0.62320964289966352 1.1439307206907339 228 229 228 616.896057 494.208038 3
-2.1664187216080979 0.75671531384118607 3.133704350213061 255 179 180 115.776009 381.888031 3
-0.22053347149347635 -0.25641964441479648 0.73128385789368977 255 60 159 267.840027 150.336014 3
0.60051550911324747 -0.37012554866494685 1.4768107113710025 255 227 234 539.136047 195.264023 3
0.89141281842705267 -0.42765605100440829 1.0165919945450632 231 255 209 718.848083 127.872009 3
-1.0748948616958049 0.68280607426186957 1.1945389767337353 255 163 170 39.7440033 506.304047 3
-0.20774436426517973 0.16211817392073824 0.68572163069748715 255 26 43 267.840027 378.432037 3
0.61111778846944476 0.084202596056536572 1.5716699124724558 255 160 175 535.680054 307.584015 3
0.8426465683017843 0.61693530731220148 1.0869691790676885 228 228 228 684.288086 501.811279 4
0.73904224541703978 0.6547845613117087 1.2245244926444023 229 228 255 617.932861 495.590485 4
0.72566584592812244 0.52639535651356972 1.4275760358056271 227 255 227 582.681702 429.23526 4
-1.466555995382965 0.70996822280657546 1.9314749933827446 61 65 255 93.3120117 429.23526 4
-2.1105076779171776 0.77494283923665364 2.7154418771567919 175 255 143 82.9440155 400.204865 4
-2.5258349039230028 0.85852001621275509 3.5409246099988714 195 211 255 105.753616 383.616058 4
0.74774747238841988 -0.20246473751564531 1.4195642074796195 246 247 249 584.75531 230.169632 4
0.86568197598042973 -0.094289049345750442 1.2067333103069693 255 160 168 659.404907 259.200043 4
0.57501382360906605 -0.19630212444306228 1.6747083991808331 243 245 248 516.326477 242.611237 4
-0.22948804292602087 0.33738636440955999 0.71676841520605361 139 64 255 261.273651 470.707275 4
-1.4026287382215332 0.65062835901815097 1.6720830759780512 67 70 74 64.2816086 433.382446 4
-1.0415569392956385 0.6588455172147849 1.1488693215933976 255 212 212 39.398407 508.032074 4
-0.31238885181325937 0.00075368588378449397 0.69518264611485225 255 247 248 215.654434 288.230438 4
-0.21239410007380721 0.20235628220650881 0.70051562980804771 255 15 20 267.494446 398.131256 4
-1.2970035889533462 0.22010311457492127 2.4424806997792761 243 248 251 176.256027 321.408051 4
-0.73221528722522322 0.42622795523332624 1.4776669805182649 142 156 176 196.992035 398.131256 4
0.67530559927080813 0.64049164766279298 1.3412993091849845 228 255 227 574.387268 470.707275 4
0.73656761754466138 0.68182145447466258 1.1109799550949724 123 137 157 636.595276 522.547302 4
0.58407179661974373 0.080269012112696825 1.479686044358977 170 187 255 537.0625 308.966431 4
-0.98533902589711175 0.65996926762722929 1.9534580986204855 128 255 120 186.624023 415.5495 5
0.78364404326961656 0.64684934153864193 1.0405518543642049 139 153 172 676.82312 525.035583 5
0.78260700588822374 0.64710373531370635 1.0719290738341156 147 160 177 664.381531 520.05896 5
-2.0164451028868582 0.69112802520189287 2.7718937132489199 195 209 216 104.509453 380.713013 5
0.83854125883169428 -0.47715939486715941 1.2106297126521515 255 200 216 651.939941 136.85762 5
0.88225449612789575 -0.42208286519682947 0.9958736479649879 255 203 217 719.124573 126.904335 5
0.56443544954759228 0.32143396745496694 2.1785663869144747 241 246 255 485.222473 340.899902 5
0.5902913905029028 0.047061925314484276 1.4706830998779461 171 188 255 537.477173 306.063416 5
-0.16391388072713031 -0.102313791068459 0.79514828365398849 170 192 255 301.086761 238.878754 5
-1.8034800417307357 0.25680349359265797 3.0785504083769197 242 247 251 156.764175 320.993317 5
-1.2191865392047778 0.10344484953848782 2.1559835337885627 243 247 250 164.229141 303.575073 5
-0.22337847045138526 -0.33553507544483208 0.74159314505329732 72 155 181 268.738586 114.462738 5
0.13308503896767765 0.14554747642307203 3.3633447968451549 194 255 154 398.131256 301.086761 5
0.75829459563020585 0.57517611456213791 1.010598898024841 255 228 229 671.846497 504.631378 6
-0.20954922741297821 0.064551279322309946 0.65230896713691067 146 171 255 265.752625 322.486328 6
0.60469335038647842 -0.12742031969510481 1.5781914507531827 250 255 247 534.491211 256.794678 6
0.78064196322401891 -0.14868287152124832 1.0796767981170632 214 218 225 656.916626 232.906799 6
0.76898795017751187 0.10725011706434151 1.2049577964920379 252 255 245 630.042725 322.486328 6
0.77239074867740753 0.070219280234298243 1.2516735961609609 255 245 248 627.056763 307.556396 6
0.66876528523304768 0.10670619053792735 1.4451428674117173 238 244 255 561.365112 316.514374 6
0.59903048772671541 -0.38696634994451284 1.512361900509049 235 241 255 537.477234 191.103012 6
-1.2320399394425219 0.69272647980148616 1.4663944981519927 255 217 217 59.7196922 468.799591 6
-0.33674369443417618 -0.0031801096254396866 0.77039318068528395 250 255 247 214.990891 289.640503 6
-1.4667631851137357 0.11840205100177037 2.6344589390163682 255 243 247 167.215134 304.570435 6
0.56952475385773083 0.51609404132398873 1.1890806150975415 228 228 228 564.351074 450.883667 6
0.17250323076416385 0.16020497305396653 3.8207034337062655 151 177 198 400.121918 304.570435 6
-0.31322488332526799 0.63609801164819046 1.8534331877214543 114 141 255 325.472321 421.023834 6
-1.1577916079997133 0.71109706222509139 1.5763757869953521 74 78 255 101.523476 462.827606 6
0.82136934258711181 0.46668226688185882 0.99919200252506535 255 200 204 695.734375 471.785553 6
16.575062680797942 -26.478548711584754 47.396486910004612 255 165 193 519.56134 74.6496124 6
0.27210924186775109 0.21018989781736772 3.0663624609325231 255 84 161 419.232239 315.319977 7
-1.668590269662857 0.80966090621863807 2.4129309593544672 255 82 88 111.078629 419.232239 7
0.94144454497181107 0.17958665333166871 1.2671359717688464 126 255 104 670.054993 340.402252 7
0.56678926931995566 -0.11433904783667059 1.4274981116483962 247 249 255 533.894043 254.405899 7
0.64164735993876132 -0.49973457416306177 1.5234385590638952 219 227 236 544.643616 157.659988 7
0.59265050594819368 -0.33759309806237281 1.4895233209046443 237 243 255 537.477234 204.241348 7
0.53415282986326407 -0.37473076501422165 1.792586996548998 244 255 234 498.062256 207.824539 7
0.59202195087752818 -0.40256322051294624 1.514663195942302 235 241 255 537.477234 189.90863 7
0.79662906369428521 0.44545726620865855 1.14316927126269 255 230 230 659.30542 433.564972 7
0.76979045243057853 0.57973648014839396 1.0419373477550735 229 228 255 673.638123 505.228607 7
-1.306532319771653 0.1101154909618941 2.3095213036872799 243 247 250 164.826355 304.570435 7
0.8354138444797008 -0.47350055853678441 1.2000786814935598 200 216 232 648.555847 136.160904 7
0.91194249198575505 -0.1918472789161122 1.1528027429391354 255 111 128 691.554077 225.740448 7
-0.22857451289315289 -0.054075048615366439 0.74661554726837309 163 186 255 265.155426 268.738617 7
