ply
format ascii 1.0
comment Written with hapPLY (https://github.com/nmwsharp/happly)
element vertex 162
property double x
property double y
property double z
property uchar red
property uchar green
property uchar blue
property float ix
property float iy
property uchar octave
end_header
-1.626387974752145 -1.5300430793762305 2.7803747326870663 159 183 211 160 76 0
-1.5991967173321378 -1.074977718656515 2.7716439122203713 229 255 208 162 139 0
-1.3707904164467988 -1.2687934886299426 2.655039101889574 255 179 198 187 106 0
-0.94929967487959832 0.33313161434881827 2.0301834658429843 229 229 255 205 350 0
-1.3733259800475857 -0.82007837957787788 2.6709157793113145 255 218 225 187 172 0
-0.20595117755297654 -0.063413975607236162 6.0688436831285539 137 255 95 370 283 0
-0.88476455756014882 -0.13276381603828374 2.6860219395448164 255 126 135 255.600006 267.600006 1
0.15817868906725496 -0.72869671910759415 5.1612157232170892 170 169 255 397.200012 231.600006 1
1.2497286681828059 -0.73520739208587438 2.5413511914252269 221 234 255 573.600037 176.400009 1
-0.75035118295737657 -1.7303202920113621 4.6856559525124766 208 227 255 321.600006 145.200012 1
-1.2180389242026326 -1.9741905384640934 5.1661798453278669 198 212 225 292.800018 141.600006 1
-1.0409344466950539 -1.5828985955136621 5.2571318965572091 255 208 221 307.200012 175.200012 1
-1.103903539899886 -0.75281806816923313 1.8838268811963284 228 255 209 158.400009 136.800003 1
-1.3492432960871392 -1.1166399594195886 2.6298130310292995 194 208 224 188.400009 127.200005 1
-1.3902958268429 -1.3478385354860212 2.7004268150050237 255 177 196 187.200012 97.2000046 1
-1.42791660656935 -0.84892046723537873 2.8013449336331617 255 218 225 187.200012 171.600006 1
-1.6148890921736179 -0.83679734619728952 2.7624427833531562 255 221 227 159.600006 169.200012 1
0.1508612461612342 0.56382236097545668 2.9776736373229262 206 204 255 405.600006 362.400024 1
-1.5990443053118648 -0.4516103687769083 2.7457209021548463 255 239 241 159.600006 225.600006 1
-1.4446424082661884 -0.04181531579891648 2.7269905095018423 245 247 255 181.200012 283.200012 1
-1.5482065192121603 -0.042962314707755161 2.7384133777115309 245 247 255 165.600006 283.200012 1
-1.3706974167709536 -0.73656754897533783 3.0687102051823354 119 146 255 213.600006 196.800003 1
-0.73759777554867423 -0.41749797166736247 2.9466062889038014 223 223 255 289.200012 234.000015 1
-0.64455814550570256 0.48528992440667523 0.95382915248717959 190 255 190 126.000008 481.200012 1
-1.5932103822610539 -0.91404472478803722 2.727018624958403 255 210 219 159.840012 158.400009 2
0.35237308750680674 -0.73378108283134902 4.8280330837961252 255 139 156 411.840027 230.400009 2
-0.55383731266817948 0.50204378490884682 2.9092320581885023 255 222 225 311.040009 354.240021 2
0.71525019875130968 0.47654004295148433 1.5773092510696118 120 150 157 560.160034 403.200012 2
-0.44441746877232768 0.35533751943691494 0.90866439381509378 255 107 126 195.840012 439.200012 2
0.63418128944447705 0.58913453904006452 2.3676362631701555 255 138 153 483.840027 384.480011 2
-1.5745568076784395 -0.99620858233924703 2.7004631746131751 220 230 255 161.279999 145.440002 2
-1.37903890879155 -1.0414648091427465 2.6770317167212494 212 227 255 185.76001 138.240005 2
-1.5441815093900946 -1.0375116515537328 2.6611216690853574 228 255 208 162.720001 138.240005 2
-1.5474627492579796 -0.29798302087604667 2.6732234358592972 245 255 241 162.720001 243.360016 2
-1.3494095551820373 -0.35268602561300477 2.6316710018003606 243 245 255 185.76001 237.600006 2
-1.3312122367536738 -1.1682337199879915 2.5967741762221204 203 221 255 185.76001 115.200005 2
-1.4476884990197099 0.4302690901906428 3.1586379855568527 255 228 229 207.360016 341.279999 2
-1.3657086343982079 0.14692045805120718 3.54071202283217 89 107 126 236.160004 303.840027 2
2.3985115288312948 0.22323048200415591 3.627025253398406 96 115 255 637.920044 312.480011 2
-0.62006892240534528 0.30086931243628084 2.7445985717844277 255 225 226 295.200012 329.76001 2
-1.4182597787147699 -0.20944977781161001 2.6718297773438091 243 244 246 180 257.76001 2
-0.90035882978637893 -0.54243663396640307 2.8091259818565431 228 255 224 262.080017 214.560013 2
-0.90118500767432907 -1.5135109727267424 5.1407072455196801 255 207 220 315.360016 174.240005 2
-1.3043780020979714 -0.41458796457399616 3.0371003550323517 138 255 100 218.880005 236.160004 2
-0.46719095665544441 -0.079829885441094539 3.9100809150819655 35 30 40 336.960022 280.800018 2
-1.6860258267465613 -0.7285385804665383 2.92366198868271 236 239 255 161.279999 192.960007 2
-0.94072922665534442 -2.098390600966519 5.7109524570545034 208 227 255 321.120026 145.440002 2
1.4018764370684349 -0.88525781269240844 2.405919879542155 213 228 255 609.119995 145.440002 2
-0.44945416293279816 0.40314179776583459 0.87961000532686917 255 110 140 187.200012 465.120026 2
0.3383537013640554 0.48254968634913392 0.7764067089112634 215 255 228 550.080017 525.600037 2
0.89096233110943457 -0.77735115906760588 3.6021415646745965 255 230 235 479.52002 204.480011 2
-1.1114049396915875 -1.7517638930980426 4.6303334767281648 199 212 225 292.320007 142.560013 2
-0.75793919886787764 -0.18759320100740323 2.7273516889835223 224 226 226 276.480042 260.92804 3
-0.94510654777464342 -0.14561373058672669 2.7991525120070864 147 255 92 254.016022 266.11203 3
1.0089561838548002 0.32239165029294381 2.3383556355074067 255 164 169 551.232056 340.416046 3
-1.3904533432625397 -0.29600465651855434 2.6822459607160787 240 242 245 184.896011 245.376022 3
-1.5281708933910809 -0.36063273978780125 2.667491224834734 245 255 242 162.432022 235.008026 3
0.73443708213508474 -0.61661434708777418 4.051837903652407 243 244 246 452.736053 233.280029 3
0.30572487806573068 0.49175780024583815 1.2299481301417412 163 255 124 478.656036 440.640045 3
-1.3016888628554693 0.35671247771114545 2.5462193550499408 203 255 186 186.624023 342.144043 3
-1.3303108560282477 0.31930633335529035 2.3155135879901354 215 189 255 165.888016 340.416046 3
-1.4117734441237935 0.26507354311775816 2.8695189768348777 255 138 137 195.264023 321.40802 3
-1.2567754779867055 -0.18080442180691514 2.4296043404005423 244 245 246 184.896011 260.92804 3
-0.6931052356973888 -0.38929375929988475 2.7671859314578997 223 225 225 288.576019 233.280029 3
-1.5530364894413045 -0.58839755175238118 2.6746760411877784 241 255 235 162.432022 202.176025 3
-1.4961549933222766 -0.1245685262722542 2.5470622605131714 246 255 245 158.976013 267.840027 3
-0.91938279051920846 -2.0360057353922763 5.5484029222085276 208 227 255 321.40802 146.88002 3
-1.5185496834790677 -1.7214488913437822 2.6850003102021867 255 127 161 167.616013 41.4720039 3
1.5521051694222059 -0.74923323816237075 2.1198157582705606 214 221 232 668.736084 152.064011 3
-0.42122070122232613 0.37836832287275785 0.82120836577798451 153 255 112 186.624023 464.832031 3
-0.42517325227617375 0.48813714559624005 0.90283812506924077 255 56 82 203.904022 499.392059 3
0.10043549914757244 0.32787789582903359 0.98752115947290386 153 172 255 421.63205 412.992035 3
0.89590231406555221 -0.79967633938068339 3.7569370850014545 240 255 229 478.656036 203.904022 3
-1.2529388860813144 -1.9910639922138613 5.2750108286466233 198 212 225 292.032013 141.696014 3
0.30639694773791959 0.49248233668593022 1.2316487722411447 255 124 137 479.001678 441.676849 4
0.29103900339472455 0.49922326044830423 1.3319842656164593 126 138 159 472.780853 431.308868 4
0.6455881008333858 -0.52867524140611377 3.9093832674139843 255 234 239 443.750458 234.316833 4
-0.39444232587675865 0.38852363079819452 2.1327525278557511 255 222 225 311.040039 354.585663 4
-1.5526845341099635 0.38323524034276041 2.7349440626211621 255 230 214 163.814423 340.070435 4
-1.2961742359168236 0.3548002273885339 2.5384422671916882 203 255 186 186.624023 342.144043 4
-1.3148241848544386 0.14743466315998116 3.3911133456328724 87 105 126 236.390427 304.819244 4
-0.47915376466847559 0.37880962597290596 2.4143734328079627 199 255 171 306.892853 346.29126 4
0.56263518863530215 0.47705700314820843 1.3782221987445511 123 127 255 537.0625 423.014465 4
-0.68071691349770225 -0.51035010448445139 2.6725256800582424 226 227 228 288.230438 215.654434 4
-0.8841986413238736 -1.4393986899381157 4.8260084759968223 255 205 219 315.187256 172.108826 4
-0.96758894085473113 -0.1479667824483108 2.8745462885143707 88 105 121 252.979233 265.420837 4
-0.69791028603899674 -0.38439231620088349 2.7756681483184673 222 225 225 288.230438 234.316833 4
-1.5989210596168775 -0.46257373167330351 3.708204073506888 255 95 112 219.801636 238.464035 4
-1.4088569245150526 -0.82857563307248938 2.7096038192296827 217 224 234 184.55043 170.035217 4
-0.87358655564627474 -1.9269727879487268 5.2915651680700453 208 227 255 321.408051 147.225616 4
-1.3662874381762395 -1.4743679094230495 2.6395960606989433 209 255 148 186.624023 74.6496124 4
0.7607838394388724 -0.6744973307232347 3.5769848429644062 237 239 243 464.48645 213.580826 4
-0.44060664339190492 0.36438485022711553 0.9061832274020496 182 194 180 196.992035 441.676849 4
-0.41064994359381957 0.47797285227274722 0.87194147379657139 81 79 255 201.139221 499.737671 4
0.20645337823650056 0.45963611468170379 1.3462758493137508 205 141 255 441.676849 423.014465 4
0.43733839238940908 0.076689490640473798 0.81360258232819094 183 255 95 590.976074 325.555237 4
0.91365457231358926 -0.81355058372040023 3.8276575467350558 255 228 234 479.001678 203.21283 4
-1.2529388860813144 -1.9910639922138613 5.2750108286466233 199 212 225 292.377655 143.078415 4
-1.7718690083738364 0.4008282272941408 3.0746940913948437 229 215 195 164.229141 338.41156 5
-1.8384542769331071 0.3202283240163229 3.1364424850597343 198 255 196 154.275864 328.458282 5
-1.418177133576382 0.36847071202988302 2.7695927324715313 222 255 217 186.624023 340.899902 5
-0.87358655564627474 -1.9269727879487268 5.2915651680700453 189 209 227 320.993317 149.299225 5
-1.4041981047668979 -1.0218574270911724 2.6738290394294748 205 216 229 184.135712 144.322586 5
-1.5685954504551369 -1.0586421499563101 2.7161187596689595 219 230 255 161.740829 144.322586 5
-0.92450324914420401 -1.4989134332881389 4.9781277139391067 255 207 220 311.040039 174.182419 5
1.8029550701578407 -0.85645580259643683 2.3963515102737518 223 233 255 669.358154 151.787537 5
-0.67647368533948971 -0.37967605667503962 2.7175306780185822 223 225 225 288.645172 233.902115 5
0.73931196212720884 0.50454519287640642 1.6917271554845836 200 197 255 557.383789 400.619568 5
0.45039073815956032 0.075244258689825191 0.8459550938382896 126 160 183 592.220215 323.481659 5
0.57667254222745701 0.53017969145346222 2.2872329781195107 146 166 255 477.757507 373.248047 5
-1.3094871735938391 -0.16866377377568187 2.7001374693922537 244 245 246 196.577301 263.761963 5
-1.3939791109456641 -0.29739871525095496 2.684520838464167 240 241 245 184.135712 246.343719 5
-1.2452782713239872 0.52760089780767472 1.8652152459768594 96 116 255 121.927696 398.131256 5
-1.2388677100785066 0.45438968030232002 1.5397602293177535 204 255 206 74.6496124 400.619568 5
-1.5503412006480586 -1.6810414755995953 2.6757868549122015 163 202 255 161.740829 47.2780876 5
-1.2229024972632936 -1.9357995185366828 5.1758136174295073 207 226 255 293.621796 144.322586 5
-1.5768837238187356 -0.45070258901511906 2.71841975571586 240 243 255 161.740829 223.948837 5
-1.3651410937416824 0.14516827269129301 3.4808599664325373 255 93 112 235.892776 304.570435 6
1.4023858984339295 -0.81565875573081126 2.1623111376845512 228 255 200 630.042725 143.327255 6
-1.0264799122780679 -1.5848318488202042 5.2921501833768376 233 255 206 310.542389 173.187103 6
-1.2470580587682463 -0.16128486083823612 2.605640974759726 245 246 255 197.074982 262.766632 6
-1.5204343738922925 -0.28888784468839479 2.6654148740951134 241 243 245 164.229156 247.836716 6
1.2342061519069878 -0.72447833121162242 2.5437870590191825 221 234 255 573.309021 176.173096 6
0.7015680557275169 -0.63236958324553916 3.7851859476979968 239 241 245 456.855652 226.93483 6
-0.23164104114221651 -0.057603783776414508 6.3011847080275976 255 96 118 367.276093 286.65451 6
1.5941836435954551 -0.14093164580653528 4.6765811219683373 247 255 247 510.603363 274.710571 6
-0.31738418868858398 0.46829008013179446 0.83458528474712024 82 255 62 238.878769 504.631378 6
-0.32644633661050859 0.4767795882460667 0.98601724022020276 93 119 119 256.794678 474.771545 6
0.31840042314067429 0.52690782621550269 1.2922770675217947 126 139 163 480.7435 444.911713 6
0.57441667513008576 0.47885658186279045 1.3914861579211415 72 104 107 540.463196 421.023834 6
2.5283943756537433 0.2039219403262556 4.0825680529184503 135 255 120 618.098816 304.570435 6
-0.67501607244071904 -0.51158870555306313 2.6509880735584237 229 255 228 286.65451 214.990891 6
-1.0792138706791605 -1.0918196111580714 4.1106236640668135 228 228 228 280.682556 182.145065 6
0.64198256722095481 -0.53072620920889335 3.8203165152639116 255 240 242 447.897675 235.892776 6
0.10267953741723379 -0.52196584617981279 4.6052380125322117 57 62 65 388.177979 244.850739 6
-0.46896581150716043 0.41012299088991033 1.7804242149562861 73 86 255 277.696564 376.23407 6
-0.21563438064908391 0.47371685462802227 1.1960448805093096 170 186 189 316.514374 444.911713 6
-0.67305457717592265 -0.36758381025948644 2.689152690580356 226 255 225 286.65451 235.892776 6
-1.5751747676272543 -0.48939803418661576 3.6657704497592505 109 129 255 217.976868 238.878769 6
-0.44060664339190492 0.36438485022711553 0.9061832274020496 203 209 203 200.060959 441.92572 6
-0.62506591857737082 0.28799862243690616 2.7821837325912542 234 255 236 298.59845 328.458313 6
-0.37816271163906223 0.30685867692991631 1.9381898120339316 171 182 197 304.570435 346.374207 6
0.0041500996099532728 0.12977294831145714 4.9323503778991507 255 115 134 379.220032 301.584442 6
-0.13640675200284136 0.3216313080004175 1.0962573670202085 255 113 122 331.444275 400.121918 6
-0.42522218970642389 0.40109818340955794 2.399866874271563 216 255 197 310.542389 352.346191 6
-1.4315975714685005 -1.0347674239139624 2.7010398611853401 227 255 204 182.145065 140.341278 6
0.6180974658155034 -0.49341690443804864 3.4547163724296466 236 240 244 444.314514 232.906799 7
1.6565501987688243 -0.80389984134448622 2.2866679575230036 231 255 206 666.471802 154.076813 7
0.55815982946739129 0.49832667751718851 0.93672862627736997 162 170 187 616.307251 487.312714 7
-1.0792138706791605 -1.0918196111580714 4.1106236640668135 255 227 228 283.07135 186.325439 7
-0.85766498835465832 -0.6898860817245368 2.7340218040804092 228 228 255 261.572266 193.491806 7
-0.19182726727350263 0.46031518515597608 1.1402644403790747 215 255 213 318.903168 440.731354 7
0.73425822450561307 0.41934060127013073 1.2433676524557775 39 43 54 612.72406 415.649078 7
-1.0188854216762109 0.44158065751476405 1.5214341183574893 93 113 255 121.828178 397.733154 7
-1.1398547770608265 0.42224659805955866 1.4193017386036706 255 202 211 75.2468109 401.316345 7
-0.28477700106088122 0.44324374736927041 1.0075056572436103 255 96 132 279.488159 451.480896 7
-0.39935948572501023 0.33591045577161177 0.82675035722081502 195 207 195 200.658173 444.314514 7
-1.8241520516588321 0.17953050109331486 2.9284410035108577 247 255 239 146.910446 304.570435 7
0.89590231406555221 -0.79967633938068339 3.7569370850014545 232 236 241 476.563141 204.241348 7
1.2262659782682372 -0.71852154148132885 2.4904512532031591 222 234 255 573.309082 175.575897 7
-1.0025986225037626 -2.0598815781818263 5.7911561294749339 227 255 190 318.903168 150.493622 7
-1.5204343738922925 -0.28888784468839479 2.6654148740951134 241 243 245 164.826355 247.239532 7
