ply
format ascii 1.0
comment Written with hapPLY (https://github.com/nmwsharp/happly)
element vertex 143
property double x
property double y
property double z
property uchar red
property uchar green
property uchar blue
property float ix
property float iy
property uchar octave
end_header
-1.3025903143469262 -0.2806997098888005 2.1689860398250369 112 255 86 154 238 0
0.88791133307297854 0.41301610600290534 2.7498539288377941 255 94 90 507.600006 345.600006 1
-1.2839152609409012 -1.1141005651551992 1.8154538003530281 255 142 171 111.600006 51.6000023 1
-1.2118872828244736 -0.34694825602264379 1.7107989499915588 243 255 239 114.000008 208.800003 1
-1.1186967272161765 -1.2301827306634612 1.9031191649701111 255 71 91 159.600006 39.6000023 1
-1.2677432646283817 -0.91261977525946492 1.8130410639430372 255 207 214 115.200005 93.6000061 1
0.33870823360879099 0.38560487139464777 1.0121701091052917 255 227 227 511.200012 433.200012 1
1.3951571813965835 -0.048348310120657767 1.6475889394572629 143 164 255 709.920044 276.480011 2
0.90527893917076896 -0.45339762880996382 2.9038397730749184 236 239 244 504.000031 228.960007 2
-1.2994298225683361 -0.53656137121718883 1.8702418134221936 255 238 239 115.200005 177.12001 2
-1.2358249279987681 -0.57797604933665214 1.7540220412800247 255 232 234 115.200005 162.720001 2
0.91188662617023852 0.4233364848894674 2.8364221081683008 84 255 102 506.880005 345.600006 2
-1.1628451908577677 -0.70193174184914453 1.8644490697383631 140 154 174 144 142.560013 2
-1.1025745974926413 -0.75322648433031114 1.8529561087483688 255 80 100 155.520004 132.480011 2
-1.0087845374459947 0.34740056669705865 1.762727584717767 13 9 255 165.600006 365.76001 2
-0.46196976160786596 -0.35356361265057035 2.0682566603054191 242 255 228 298.080017 220.320007 2
-0.037249593597846076 -0.023409750542739277 6.2177166916158448 255 98 119 383.040009 285.120026 2
-1.0886083026075473 -0.44284239391606395 1.8404396445401252 86 102 126 156.960007 195.840012 2
-1.1494100927795108 -0.13390858026803598 1.9076070007640968 255 99 112 151.200012 259.200012 2
-1.2661083286162067 -0.27310096673542422 2.1113250354311539 255 105 119 151.200012 237.600006 2
-0.68937978480552919 -2.0319664282426961 4.8746688535425173 255 176 200 331.200012 126.720001 2
-1.0138104942728337 -1.9710320081574779 4.5181628877583346 221 255 172 298.080017 120.960007 2
-1.1227727986668672 -0.99765581640135581 1.8963193248414849 63 76 102 156.960007 84.9600067 2
1.2421891157412219 -0.10812505744299539 2.4775591387421114 85 127 160 576 270.720001 2
2.1382398693196238 -0.078077785543710393 2.9660521781213047 69 136 163 660.960022 277.920013 2
0.36116772004003339 -0.56261949399822608 4.3427467323663045 169 255 161 414.720032 240.480011 2
-0.50429398486631438 0.41254487283864777 1.8711780696799165 158 255 143 282.240021 372.960022 2
-1.2554887061217173 0.3340180775342606 1.7239898200914565 183 255 221 106.560005 364.320007 2
-1.1911108909461259 0.31566049020075332 1.8965208608626782 255 140 135 143.424011 352.512024 3
-1.0337741781822349 -0.13764113400593447 1.6870853121551512 143 255 118 150.336014 257.472015 3
0.14675373987839579 0.34016341575027254 1.4704944618315836 255 78 96 423.360046 376.704041 3
-0.26740560471084218 0.45791166233823033 1.8709415729250591 190 255 183 326.592041 381.888031 3
-1.118219886658562 0.19702255566034022 2.7455847660845185 127 255 106 226.368027 316.22403 3
-0.592452439595192 -0.5432641969800619 1.8853461496155344 255 226 227 259.200012 177.984024 3
-1.1388722105773397 -0.098960661369112024 2.5829031954682629 155 159 168 216.000015 276.480042 3
-1.0045265464998514 -1.9320784417275845 4.4590261490794632 197 221 255 297.216034 120.960014 3
1.2703974372204323 -0.11033718426155739 2.5749872506188201 102 132 255 573.696045 271.296021 3
-0.26112286365092396 0.50359778921495024 1.2308384606536662 88 119 140 300.672028 447.552032 3
-0.2526299393207827 0.51697614820462523 1.9070481288405579 255 235 236 331.776031 392.256042 3
-1.162608145697837 0.12988202750726863 1.9281545229660586 255 86 100 155.52002 312.768036 3
-0.96151107417645676 0.39823898397458402 1.6250136275508944 13 22 255 157.248016 381.888031 3
1.201379675875031 0.079856273035742803 2.3511091423975827 71 101 122 580.608093 300.672028 4
-0.81990887019144409 0.33408946077974949 1.5802504276246405 12 255 38 186.624023 369.100861 4
-0.40093549307042142 0.41745725784183962 1.8079911214498359 80 86 95 300.672028 375.321655 4
-1.118219886658562 0.19702255566034022 2.7455847660845185 129 255 109 226.02243 317.260834 4
1.1509857333180633 0.50982739691263079 2.4078954151431073 83 255 67 570.240051 369.100861 4
1.1138118423504164 0.42789713255122208 2.3360771327907024 77 255 53 570.240051 358.732849 4
-0.61326249453995629 -0.55836369838202171 1.9379457961848785 255 229 230 259.200043 178.32962 4
-0.46603501955415094 -0.24890392539149764 2.0284229537936072 245 255 234 294.451233 240.537628 4
-1.3231232506113555 -0.4327488452403524 2.8678699640474061 106 130 255 205.286423 230.169632 4
-1.115668689352594 -0.19656053822717301 1.8414105557846874 255 100 113 151.372818 246.758438 4
-0.67746619088288096 -1.9832289662050506 4.7511991990061189 201 223 255 329.702454 128.563217 4
-1.2946991854062961 -0.98535403379792785 1.8672664044257905 218 255 184 118.195213 85.0176086 4
-1.0803195672184618 -1.1159257573607528 1.805202135708468 255 74 91 155.52002 51.8400078 4
1.3337827415433874 -0.055659812797912572 1.5710514428375624 142 163 255 709.171326 277.862427 4
-0.38955558168834603 0.41343717601600771 1.6051323750751036 213 217 222 292.377655 383.616058 4
-1.4049032213460246 0.12400711011836979 1.9200037547170972 255 237 241 103.680016 311.040039 4
-1.1718444489695155 0.32603852325774269 2.0956174250718984 74 89 98 172.108826 350.438446 4
-0.96801651530394794 0.41554854075913183 1.3700094407502323 255 147 161 111.974419 404.352051 4
-1.2155293330263235 0.33873571660156854 1.6635771546632636 205 180 255 105.753616 364.953644 4
-0.83451065304064276 0.42377505322936121 1.4048805013720815 255 166 177 155.52002 402.278442 4
0.25543831386669291 0.50401274954837971 1.0727509857961124 225 225 221 472.780853 466.560059 4
0.34255399717755974 0.39466899044924342 1.0383371676141526 223 223 220 512.17926 435.456055 4
1.2692840370066976 0.37469541674745321 1.5328032912835203 107 74 255 705.024109 383.616058 4
-1.3474457610607189 -0.2033254977279626 1.9598720877067799 245 255 242 118.195213 246.758438 4
-1.3534600137060391 -0.39846578410206246 1.9526963738139447 238 239 242 116.121613 209.433624 4
-0.28887802003522323 0.45599957798546042 1.9027387682288026 180 188 255 325.969971 380.713013 5
-0.39373441708206469 0.42011385846368454 1.8509054952442434 85 96 255 301.086761 373.248047 5
-0.38540957624950423 0.35818123857054224 1.9925819322029401 95 112 255 313.528351 358.318115 5
-1.118219886658562 0.19702255566034022 2.7455847660845185 127 255 106 226.437149 316.016693 5
1.4397979155696752 0.53097161373294433 2.6318517428853294 109 113 113 592.220215 365.783081 5
-1.2619462349852331 -0.74159872404293758 1.8068266095616807 255 211 219 111.974419 131.880981 5
-1.2946991854062961 -0.98535403379792785 1.8672664044257905 255 178 196 119.439377 84.60289 5
0.87606384853994557 -0.57273058932693788 2.9943236779724547 255 231 236 495.175751 213.995544 5
0.98373822000677968 -0.72762594097319511 2.7441295662243217 232 238 255 525.035583 184.135712 5
-0.9021196863505403 -1.7376794391777266 3.9466033173652315 222 255 172 298.59845 121.927696 5
-1.1256584548469286 -0.98687494421089395 1.8765664126990886 255 79 95 151.787537 84.60289 5
-0.3418351898114218 -0.029973390750882567 3.8997215469528204 122 142 255 353.341492 286.15683 5
-1.079778753530241 -0.5958233241598293 1.795998439541826 255 79 98 151.787537 161.740829 5
-1.0765154676126913 -0.82610270534407293 1.8101777794258869 77 96 122 156.764175 114.462738 5
0.79660249041951725 0.52458281123946315 1.1243649313409052 141 255 104 654.428223 465.315918 5
-1.3273648329474579 -0.39900888451535099 1.9233680799013682 238 239 242 116.951057 209.018906 5
-1.2526784654510874 -0.51667914988641439 1.7895292521436961 238 239 241 116.951057 176.670746 5
-0.05163867437958225 0.58790782562858912 1.8457032405042724 236 236 236 368.271423 413.061188 5
-1.2423653742642644 0.31903878923611795 2.2329134942592601 132 255 110 166.717468 345.876526 5
-1.0393414849166454 0.49082948498309353 1.1784297454488599 61 86 255 49.766407 447.897675 5
-0.6722342472501226 -2.0051855770261819 4.7862185633322776 223 255 176 330.946594 126.904335 5
-0.666305681753395 -0.08163159381328397 1.9613818864562886 226 227 255 253.80867 268.738586 5
-0.4641848279143197 -0.24542075200882602 2.0294369335228679 236 240 245 296.110107 238.878754 5
0.20374281005394179 0.24952982470956178 4.0799986121730036 107 128 149 400.619568 311.040039 5
-0.77895572579399897 -0.24971872545489926 1.6410227412265863 137 255 90 206.530594 231.413788 5
0.36062209979757642 0.41856624072859205 1.1045040734321891 223 223 220 512.593994 435.456055 5
-0.39644290438771135 0.41320303044359874 1.6276181158134788 255 210 215 291.133484 383.201324 5
0.938444585378297 0.52186135216186624 1.4426240387198601 141 255 115 634.521667 425.502777 5
-1.2014219957737486 0.31084043245064974 1.9171494955781565 161 146 135 140.341278 352.346191 6
-1.1810681825541369 0.43052700099244823 2.3104000966407927 32 40 21 188.117035 364.290131 6
-1.1437398870478575 -0.77060476971191672 1.8911517193984309 78 98 122 152.285217 131.383316 6
-1.3168408992178149 -1.0051465122847549 1.9163975530069988 255 174 193 119.439384 83.6075668 6
-0.66668857563644401 -1.412971223336899 4.1319634297875645 200 216 231 316.514374 158.257187 6
-0.62218078719710457 -1.862255093948834 4.4562237690665043 177 201 223 328.458313 128.397339 6
-0.75254522371405619 -1.1059283206212203 4.8846740867044351 241 255 233 322.486328 200.060959 6
1.0070775616048402 -0.58614939036533631 2.7855147637970017 240 255 227 522.547302 203.046951 6
-0.42086849005525151 -0.32323638734563676 1.9057026047436167 255 229 236 295.612457 223.948837 6
-0.41874657506790713 -0.45686525626490704 1.843606514176019 225 231 239 292.626495 194.088989 6
-0.043673553016178701 0.53371078654730086 1.6640371726069234 237 237 255 373.248077 412.065857 6
1.1602199958685073 -0.35981013324117883 2.471571226965116 161 187 255 561.365112 232.906799 6
0.75386487401265212 0.52445276133717478 1.3077825282707951 255 132 146 603.168884 441.92572 6
-1.3343457180219027 -0.41047210038107851 2.8784919495808303 142 255 95 206.032928 232.906799 6
-1.1459094066629745 -0.24475574246623311 1.890046016395587 129 150 255 149.299225 238.878769 6
-0.68478340364357404 -0.087457728807267349 2.0051496724602553 226 227 255 253.808685 268.738617 6
0.86459517223945881 0.4133074613217475 1.717685301878928 255 28 38 579.281006 379.220032 6
1.1346114069482136 0.45963139386672924 2.4218661934324448 255 55 62 567.337097 358.318146 6
1.2464528128993873 0.37301266000395827 1.5057565002659636 155 156 255 701.70636 385.192017 6
-0.42703610330219988 0.21116762615652798 2.002353462991548 176 255 162 298.59845 331.444275 6
-1.0713210097453398 0.19660612956254397 2.6057427946427385 255 119 121 223.948837 316.514374 6
0.092355003618935338 0.35309207244681196 1.4845010024552479 235 236 255 409.079895 379.220032 6
-0.25038191938201204 0.49175037115942677 1.9010592044372565 255 209 213 331.444275 388.177979 6
-0.40772740984316869 0.36594582472624343 2.1424919487972209 95 112 255 313.528381 358.318146 6
-1.0802280120702168 0.41786940103234832 1.8137831520964167 255 13 13 155.271194 379.220032 6
-1.2412396314200764 -0.19255418788216871 1.798114646177015 255 241 243 119.439384 244.850739 6
-0.29753698563174402 0.51703439028867493 1.2544599355697863 98 118 255 293.820892 451.480896 7
-0.043865373552245401 0.50400267230244278 1.55971697172158 237 236 255 369.067719 412.065887 7
-0.7244965516282762 -1.468252532768443 4.2960430007784076 231 255 199 318.903168 157.659988 7
-0.41971553953650353 -0.32271189660487232 1.9084487779576169 236 243 255 293.820892 225.740448 7
-0.42056977128680373 -0.45359686784387665 1.8568111821528293 231 239 255 293.820892 197.074982 7
-0.64043207227337895 -0.5815167571273423 2.0266345807383535 215 218 255 261.572266 175.575897 7
0.021539001644876432 0.52629764619426123 1.3327309859618777 193 255 170 390.566803 437.148163 7
0.89987110690077288 -0.51247616780554583 3.2516580519109448 245 255 238 490.895874 229.323624 7
0.18427987771479737 0.21036380709792557 5.0145656013560833 122 144 255 397.733154 308.153625 7
-0.38519889310821886 0.4176033187215511 1.810045913588505 80 85 92 300.987244 376.23407 7
-0.56273034089966067 0.38420925295377822 1.6217167637975507 77 77 255 257.989075 376.23407 7
-1.3468140147468155 -0.19142885429815043 3.1128396977108173 142 255 88 214.990891 265.155426 7
-1.0495630109953411 -0.11443536130480295 1.8880996762850608 96 122 145 168.409531 265.155426 7
-1.4132810987032256 -0.45698543629335586 3.0580898524564839 95 115 140 204.241348 232.906799 7
1.1334058090816455 0.23815873330499565 2.4026042306547852 140 255 98 566.1427 326.069519 7
-0.96714533804404867 0.28657298191724523 1.9909897368883245 38 28 255 193.491806 343.985443 7
-1.06384944786002 0.27680802688130646 1.8797635043159664 101 117 129 164.826355 343.985443 7
-0.28744900909181625 0.46450685309458789 1.907537493198503 182 197 255 329.65271 386.983612 7
-0.37406316530912909 0.34513458191949209 1.9637014788970979 255 130 98 311.736786 358.318176 7
0.87568965204842575 0.47023263350985728 2.7542993362050447 186 255 174 498.062256 354.734985 7
-0.97890868257315722 0.40095268056419886 1.6296924315132095 16 255 13 154.076813 379.817261 7
0.29703442943259661 -0.53822738354991317 4.4761834503950686 157 168 175 408.482697 243.656357 7
-1.1558204519125868 -0.96984034875091107 1.8815373774490554 157 255 122 146.910446 85.9963608 7
