ply
format ascii 1.0
comment Written with hapPLY (https://github.com/nmwsharp/happly)
element vertex 191
property double x
property double y
property double z
property uchar red
property uchar green
property uchar blue
property float ix
property float iy
property uchar octave
end_header
-1.2580935599367224 -0.91156126590976227 1.777604044675162 255 203 211 111 91 0
-1.8479995778518079 -0.60125263447227995 3.9101087147397733 134 255 86 202 229 0
-0.42893922244422011 -0.62157549748175156 1.7528146340099657 214 230 255 289 154 0
-1.0326085119114641 -0.89784883473791854 1.6754193936744834 63 79 104 148 82 0
-0.49205139518607854 0.23010635106283511 1.8141700860132257 221 221 223 280 337 0
0.18566076418379196 0.48583954855661554 2.0230455749994425 98 110 255 421 379 0
-1.2740586353419916 -1.1130530979017939 1.7804368163216213 171 205 255 109 49 0
-1.2027354200084939 -0.34605348053794333 1.674191981398736 240 243 255 109 208 0
-1.1131075184957155 -0.99626706510157392 1.8611911768777691 77 255 39 154.800003 81.6000061 1
-1.2657110059859509 -1.0364753637382209 1.7638647362132067 209 255 149 110.400002 63.6000023 1
-1.1087961587663404 -1.2287744437074724 1.8684955109134069 116 255 72 154.800003 33.6000023 1
-0.7789601454910331 -1.6135840510464161 4.9049181859624724 216 232 255 321.600006 159.600006 1
-0.25988426642840623 0.45867523417614964 1.8474198620117974 255 160 169 331.200012 385.200012 1
1.0241086929843248 0.4066726072684046 2.4527143672773315 255 144 145 543.600037 352.800018 1
-1.0003983566099222 0.34861628492977026 1.7248008874192688 13 13 9 160.800003 364.800018 1
-1.269695057254641 -0.52612917629319889 1.7854402560955847 255 238 239 111.600006 175.200012 1
-0.95305778356460591 0.39920711011884202 1.5870188154560849 13 255 13 154.080002 384.480011 2
-0.46033424953725399 -0.35333113535337146 2.0619306507546478 228 235 242 296.640015 220.320007 2
0.15540075665469444 0.34195067291130871 1.4335875394113464 255 68 88 427.680023 378.720001 2
-0.72649487998773976 -1.4887371264120661 4.4404235202123878 216 232 255 321.120026 159.840012 2
-1.1105332670047305 0.2002416202150572 2.707884418472565 255 135 138 227.520004 316.800018 2
-1.1205780759045361 0.4081736437953889 2.253704124989464 23 27 23 192.960007 357.120026 2
-1.9859914464034452 -0.64794061436990302 4.1885526917635545 80 101 124 204.480011 228.960007 2
-1.2616251385564379 -0.37163521614765049 1.7705763743928 243 255 239 110.880005 207.360016 2
-1.226471015180798 -0.57701241497871303 1.7178919145416205 230 233 237 112.320007 159.840012 2
-1.0794699426383332 -0.44154004349535581 1.8041459819826002 122 255 82 154.080002 192.960007 2
-1.0923896710515963 -0.25652374465450806 1.5198189146987584 243 245 255 109.440002 224.640015 2
-1.2573817115805466 -0.27140018705035951 2.0745108197168207 88 99 122 148.320007 237.600006 2
-1.026831996528494 -1.9868598312442671 4.5418451554658601 221 255 171 298.080017 119.520004 2
-1.2561067826023522 -0.96723545618324902 1.7934474485629646 194 216 255 113.760002 82.0800018 2
-1.0931251439170979 -0.75191081758591449 1.8173189989424974 75 95 122 152.639999 129.600006 2
1.2504234033151982 -0.10302935135701097 2.4425665862217061 165 255 79 578.880005 273.600006 2
0.41218487516337321 -0.66458358117029226 4.2508760180229714 151 166 177 420.480011 226.080002 2
0.94760946643348176 -0.53094399474541398 3.4340450872763864 240 244 255 489.600006 227.520004 2
-0.24454602058730601 0.51928800592519686 1.8694123069705668 235 255 234 334.080017 393.120026 2
0.50547919005266517 0.52342931193968545 1.1537000217028823 126 137 161 552.960022 462.240021 2
0.22037743821541977 0.30538524452761262 5.1494898996894314 128 149 255 401.76001 312.480011 2
1.2785491738220696 -0.10500233910110632 2.5400237001658761 165 255 79 578.880066 273.024017 3
-1.140650623157268 -0.13252563828490732 1.8705947740397573 88 101 122 148.608017 259.200012 3
1.209529084414126 0.084636720142760663 2.3156764883014302 134 255 89 582.33606 300.672028 3
1.1586397212102182 0.51467655393265543 2.3714924906560553 255 179 180 571.968079 373.248047 3
1.1216133793100242 0.43255322308565175 2.2998186354186334 255 31 41 571.968079 361.152039 3
-0.25922896778027282 0.46013057348654923 1.8334202691807078 184 255 160 330.048035 385.344025 3
-1.0791658421071371 0.18719010162730698 2.658699978605795 150 255 114 226.368027 316.22403 3
-0.81680775398587935 -0.10867174660466206 2.3607636269359187 212 255 209 254.016022 271.296021 3
-0.27949872654990005 -0.022001746123166382 3.4272792078406518 100 120 141 352.512024 286.848022 3
-1.2987958104946027 -0.044958869137150914 1.8210760640027281 247 255 245 110.59201 278.208038 3
-1.2820775935809747 -0.23880517902767423 1.8251192946588111 245 255 242 110.59201 236.736023 3
-1.544374920570255 -0.51339204807973837 3.2704428383166277 255 88 110 203.904022 229.82402 3
-1.1023902189416148 -0.19537804382131252 1.8140898578350302 127 255 102 146.88002 247.104019 3
-0.68123486880912276 -2.0237102888091263 4.8421375312136821 223 255 175 330.048035 124.416016 3
-1.3270302221962331 -1.0179194339861133 1.8953068007335991 215 255 171 114.048012 81.216011 3
-1.0704523144415306 -1.1146887811978974 1.7703659027556773 90 122 255 153.792007 48.3840027 3
1.1630046832138796 -0.70955061592400237 2.8020612371714089 238 255 221 546.048035 190.080017 3
0.69020628155891184 -0.63199950007899863 4.0439574532361204 255 149 173 451.008057 228.096024 3
1.5173474549561881 -0.68968764049245657 1.6885459471276429 204 224 255 729.216064 129.600006 3
-1.3964218532916015 0.12515050751342355 1.8822139667145485 241 246 255 101.952011 311.040039 3
-1.1469377001455077 0.31038181937280873 1.8019296243451 255 157 156 139.968018 352.512024 3
-1.183007084020157 0.012482189918765041 1.8883291549461241 151 167 255 141.696014 290.304016 3
0.96703251948761459 0.52933274939991448 1.4409091065378923 138 255 112 642.81604 430.272034 3
0.48818857210764599 0.49996169706866217 1.105419373460649 255 124 137 551.232056 461.376038 3
-0.77689743846771542 0.24444084742041822 2.2303043019558872 214 216 216 248.832031 329.702454 4
1.1033208148270059 0.55532131516785488 2.4468875466094824 140 154 255 557.798462 377.395264 4
1.0325842544632615 -0.52144527939787777 3.4093472572388697 255 236 239 499.737671 228.096039 4
-0.81135019687779675 0.33510852356981879 1.5425169023238219 18 24 10 184.55043 371.174438 4
1.6117156282315526 0.13901227610953015 2.2569793904617557 147 174 255 653.184082 311.040039 4
-1.1105332670047305 0.2002416202150572 2.707884418472565 150 255 115 226.02243 317.260834 4
-1.4878756720917399 0.1273653978064061 3.3711495653100654 148 160 255 217.728027 300.672028 4
-0.82334331893646162 0.4375360262048813 2.3925294087547622 219 255 221 250.90564 358.732849 4
-0.61839833000996114 -0.48406132374325406 1.9399003532146439 255 230 230 259.200043 190.771225 4
-0.65764771066452088 -0.079630937942445967 1.9246763897095072 206 208 208 252.979233 271.641632 4
-0.040195825048040978 -0.01706852550103824 6.6150067167594067 120 140 255 381.54245 286.15683 4
-1.1067866298667708 -0.19528491325164143 1.8045627857365734 255 94 108 147.225616 246.758438 4
-0.62446151103175707 -0.85446556908769322 2.4865268827400255 229 255 193 286.15683 151.372818 4
-0.99612310212693878 -1.9250452068350632 4.4260070672061769 221 255 170 294.451233 118.195213 4
-0.64218934970918529 -1.4103847392958073 4.1210433612298347 216 232 255 321.408051 159.667221 4
-0.66926435333803491 -1.9752264836628632 4.7185735459269873 200 223 255 329.702454 124.416016 4
-1.2850212121390436 -0.98420655457318862 1.831962538075202 214 255 166 114.048019 80.8704147 4
-1.1159871589642072 -0.9855317614016248 1.8414125843158833 255 41 55 151.372818 82.9440155 4
-1.0727643218931697 -1.0546389490366503 1.7826040880077989 85 113 255 153.446426 64.2816086 4
-1.3076831297465028 -0.62116558230871877 1.8666215932812369 255 230 233 111.974419 159.667221 4
-1.0704430172408799 -0.59460707358494247 1.7600421549828851 83 109 255 153.446426 159.667221 4
-1.1049572987238805 -0.76223007764478368 1.8277341154236151 255 72 92 151.372818 128.563217 4
0.94094428626013404 -0.62145190699379216 3.2670502086449318 255 231 236 495.590485 213.580826 4
1.5268051824033484 -0.68853396640137987 1.7469440975236878 255 208 218 719.539307 138.931213 4
-0.38800793457518967 0.41476395542676425 1.5900817320273766 201 206 214 288.230438 387.763245 4
-1.2180863297232207 0.32445144224341649 2.6110126244946104 61 28 255 201.139221 337.996857 4
-0.82589232736871265 0.42440101746570563 1.366941536927591 255 156 168 151.372818 406.425659 4
-1.0191052744169369 0.36807044664824234 1.7752145063151512 13 13 255 161.740829 367.027252 4
0.54964333540634347 0.52495734424606699 1.059459031189403 159 255 121 586.828857 476.92807 4
0.94692663806917576 0.52441081972827308 1.4060131890709036 119 137 155 640.742493 431.308868 4
0.26426152807825853 0.5050559244570243 1.0355864858207888 255 202 198 479.001678 472.780853 4
0.35152051750828583 0.39572889389260069 1.0014839834824074 225 224 221 516.326477 439.603271 4
2.8427321370021432 0.34459095187824634 5.3058897406360135 138 156 255 593.049683 311.040039 4
0.18860102684383295 0.23342782932507405 4.0911751690717297 156 255 107 402.278442 311.040039 4
-1.2434190351567227 -0.51565673579228288 1.7532523340997876 241 255 237 114.048019 174.182419 4
-0.73274983082004397 -0.095830819712762944 2.1288859586167312 211 211 255 253.80867 271.226929 5
-1.1931321455076036 0.31218861854766067 1.8791338803213926 197 192 182 136.85762 353.341492 5
1.4472347258541509 0.53660315674776093 2.5956534585924116 255 119 122 599.685181 368.271423 5
1.2573070620347564 0.43220968567984375 2.27713908368679 124 255 86 594.708557 360.806458 5
-1.2070476509715586 0.33952307801378545 1.6254898625217451 187 255 227 102.021133 365.783081 5
-1.1105332670047305 0.2002416202150572 2.707884418472565 150 255 114 226.437149 316.016693 5
-1.2918231641401881 -0.2450550479132822 1.8436503818497485 245 255 242 114.462738 236.390427 5
-0.89347189148392347 -1.7316438664600386 3.9132556925854827 221 255 171 298.59845 119.439377 5
-1.2850212121390436 -0.98420655457318862 1.831962538075202 216 255 175 114.462738 82.1145706 5
-1.2524685343240436 -0.74054805586019834 1.7710261807056189 255 208 217 111.974419 126.904335 5
-0.33491859626036824 -0.023461336514874864 3.8631813642419681 120 141 255 353.341492 286.15683 5
-0.043575119519022376 0.59029624773827671 1.8080892911523221 227 255 223 378.224701 415.5495 5
0.64141161906353794 -0.46716454112608852 2.7930174300640109 255 241 243 467.80423 226.437149 5
-0.66404012517202027 -1.9971021788115992 4.7536446653646243 223 255 176 330.946594 126.904335 5
0.09934551141552328 0.53157963153845189 1.6369750189376719 210 255 200 410.572845 415.5495 5
1.0148879449746186 -0.57023915306485873 2.7026252011028742 255 225 233 527.523926 204.042267 5
0.88433055224897672 -0.56690117120412209 2.960012810097262 255 231 236 495.175751 213.995544 5
1.1406302221862927 -0.83276513974122035 3.1679276116909527 230 238 255 525.035583 191.600662 5
0.36950620956727165 0.41978734851759919 1.0676149171885805 224 221 255 517.570618 440.432709 5
-1.3148896042913005 -0.42947759542919384 2.8313481891892396 93 114 138 204.042267 231.413788 5
-1.05010091221367 -0.1899914702790152 1.6982401559828961 133 255 108 146.810898 243.855392 5
-0.58343092894986226 -0.11241810042489014 1.9367501720580287 153 160 171 268.738586 263.761963 5
-0.45726208120857281 -0.24655029428537784 1.9922515668549456 236 240 245 296.110107 238.878754 5
-1.1637257633370761 0.32780174703529374 2.0575942760282064 91 107 119 164.229141 348.364838 5
-1.0671296134269546 0.39993994568353164 1.5237189993634677 224 255 222 114.462738 385.689667 5
0.21021200253901484 0.25699630708886212 4.0433295201907233 255 120 138 403.10791 311.040039 5
1.2550340227088526 0.37601859680221822 1.4697336311074984 140 142 145 716.63623 385.689667 5
0.99093366314171716 0.4821845871770053 2.7417534258612672 50 62 255 525.035583 353.341492 5
1.1644490702104044 0.25353631088297429 2.4068890235212983 119 133 154 572.31366 328.458282 5
-1.2068668278109174 0.49875277096722759 2.3457174854417264 30 34 16 184.135712 368.271423 5
0.99897054593637158 0.43175353004418543 2.5204190019427548 255 54 59 531.505249 349.360199 6
0.80264127261251828 0.38793015947519804 2.2785720924845343 83 255 64 522.547302 355.332153 6
-0.67615747495028611 -0.085382002073908059 1.9684405667722724 226 226 255 253.808685 268.738617 6
-0.5542600006698013 0.38558474093781359 1.5840984668515019 78 255 91 250.822708 376.23407 6
-0.47004678927344923 0.15975791840759695 1.3744647475131755 180 255 196 250.822708 334.430267 6
-1.3071851461639223 -1.0039161801478262 1.8811169719548828 188 214 255 113.467415 80.621582 6
-1.222152530515852 -0.20869985014390702 1.7303885679921001 243 245 255 113.467415 244.850739 6
0.29726486803667562 -0.5279043804009188 4.349506689278491 119 134 255 409.079895 241.864746 6
-0.31572600797908601 -0.0044496021321367707 3.907658388862906 100 120 141 352.346191 286.65451 6
0.41627281325885224 -0.72393069009382627 4.5401559638774662 164 182 255 421.023834 226.93483 6
-0.74536958497747463 -1.0977188889140477 4.8500927660604196 232 235 240 328.458313 200.060959 6
-0.035395628936133461 0.53571640877605087 1.6265473876670344 222 227 226 376.23407 418.037842 6
1.2993542770136151 -0.087265933802811807 2.5877528219348251 255 86 126 579.281006 277.696564 6
-0.32898973294785616 0.56579342786757814 1.3831424252566507 255 91 122 295.612457 450.883667 6
-1.0546696406754674 -0.91774182933037074 1.7072063725403974 83 109 255 149.299225 80.621582 6
-0.65853920935643107 -1.4062927152001581 4.098120174499015 255 200 216 319.500336 158.257187 6
-0.40959705427784776 -0.45485991020424643 1.8079247269835887 225 231 239 292.626495 194.088989 6
0.76246180247249273 0.52652001163619555 1.271006174153424 129 141 164 612.126831 447.897675 6
-1.1343056199014061 -0.76924957703723651 1.8555162035442874 93 118 255 149.299225 128.397339 6
1.0155398477990734 -0.58063346611708389 2.7513471255954212 233 240 255 525.533264 203.046951 6
-0.76984438449708037 -0.24852457937902572 1.6045824140392666 255 95 116 203.046951 232.906799 6
0.18997609935117565 0.21982282737468054 4.9779615113682745 104 125 144 400.121918 307.556396 6
-1.2343588888631745 0.32102442220723848 2.1948438251000484 101 116 128 164.229156 346.374207 6
-0.48343285105435951 0.48238451341206329 1.9393161616187933 231 255 229 286.65451 382.206024 6
1.1423053183430985 0.46449376289292066 2.3855571591304399 59 255 28 570.323059 361.304138 6
-1.0635122581099048 0.19957277447817884 2.5680844396861149 255 110 112 223.948837 316.514374 6
-0.97046226397193891 0.40191279517588535 1.5916766532764162 16 16 16 152.285217 382.206024 6
-1.1732448655605312 0.43274289370189928 2.2721432509635413 22 13 255 185.131042 367.276093 6
-1.1369440336501264 0.45868468810385754 2.0617508619806566 9 255 22 170.201126 373.248077 6
-0.24226662092929341 0.49405173866111352 1.8634796987225912 203 255 163 334.430267 388.177979 6
-0.37723527115173017 0.36053975930249665 1.9551727037411508 124 255 131 310.542389 358.318146 6
-1.3365554824624293 -0.87638925517058341 1.9001356065390258 218 227 255 113.467415 110.48143 6
-1.1863432736729216 -0.9099431830748137 1.6980304331708034 216 255 175 114.661812 82.4131775 7
-0.035465812183039347 0.50578351830138146 1.5222913022584201 227 230 232 376.23407 415.649078 7
0.79682061533205739 -0.59146907929933823 3.7939919995870053 245 255 240 462.230438 225.740448 7
27.382683573164293 -28.958904850808921 72.663648098692107 228 255 201 526.727722 136.160904 7
-0.71643262985051059 -1.4612805875776305 4.2622682148137354 231 255 199 318.903168 157.659988 7
-0.61384769330801792 -1.8548307484104631 4.4233862707509823 201 223 255 329.65271 128.994537 7
-0.4119116470504971 -0.32109989512988268 1.8697309107174145 236 242 255 293.820892 222.157257 7
-0.41143513500768769 -0.45156498855580374 1.8211207351133534 232 239 255 293.820892 193.491806 7
-1.327273461287223 0.26590724424725259 1.7830714037724058 144 95 104 96.745903 336.819061 7
-1.259568305456638 0.11184466756961339 1.6869611972573595 238 243 248 96.745903 308.153625 7
1.0303030495404801 -0.12971542949994319 2.7368227899451245 247 249 255 533.894043 268.738617 7
0.9078512524064335 -0.50606799142308612 3.2172373578401876 245 255 238 490.895874 229.323624 7
-1.3390439460742809 -0.18765534603591238 3.0757767842037538 210 255 199 214.990891 265.155426 7
-1.0726571895435768 -0.2179907105604082 1.7250474175731036 135 255 109 146.910446 240.073166 7
-0.66986301551339178 -0.088721850551934461 1.9331386819665206 227 255 225 254.405899 268.738617 7
-1.0614632935682993 0.19367521773892149 2.5458245270422015 118 133 255 225.740448 318.903168 7
0.49494712186546641 0.52257084710525503 1.1885775476736553 122 136 159 544.643616 462.230438 7
0.030112984026997136 0.52765756926941254 1.2953146784812297 160 255 122 390.566803 447.897705 7
-0.42470451929194564 0.42441204793398174 1.688386011697689 233 255 231 286.654541 383.400421 7
-0.9588948178822041 0.2883237222512684 1.953229642502456 38 28 255 193.491806 343.985443 7
-1.055491875590421 0.2782187642949478 1.8419407706858744 102 119 132 164.826355 343.985443 7
-1.0956389001642886 0.099824849104985652 2.5056195466585995 168 255 157 214.990891 300.987244 7
1.1413462355355999 0.24297899210610913 2.3667713570168099 132 151 255 569.725891 326.069519 7
4.7380202490669312 0.49504687315452633 8.740028083553339 173 255 120 598.391357 308.153625 7
-0.2793110546531945 0.46678372787785294 1.8699844785992674 175 193 255 333.235901 386.983612 7
-0.39969164748626396 0.36860397179255938 2.1050462144271709 255 131 107 311.736786 358.318176 7
-1.0719593131604097 0.41912062643718817 1.7756424586059794 23 255 29 150.493622 383.400421 7
-0.28888495306227924 0.5178941861900006 1.2167867247306385 121 143 255 293.820892 451.480896 7
0.30397580301088656 -0.52980851756723979 4.4412915168287421 117 130 144 408.482697 243.656357 7
1.3609165264787693 -0.5604107554928266 3.0130687804401122 242 255 228 562.559509 214.990891 7
-1.1461711262018199 -0.96851785372690324 1.8463206442776636 117 255 88 146.910446 82.4131775 7
-1.2323239173769305 -0.19150231116977579 1.761149320375019 245 255 242 114.661812 243.656357 7
-0.048391713726273489 -0.028417712667361872 5.7721384917209129 255 99 120 379.817261 286.654541 7
