ply
format ascii 1.0
comment Written with hapPLY (https://github.com/nmwsharp/happly)
element vertex 132
property double x
property double y
property double z
property uchar red
property uchar green
property uchar blue
property float ix
property float iy
property uchar octave
end_header
-1.8884314858987628 -0.56917654093901815 4.112123790676951 107 121 143 208 235 0
-0.2415500405327573 0.36628935884582531 0.66910624972920441 103 118 146 244 499 0
-1.748363007828766 -1.2264130721205031 3.2876978973848949 208 222 255 181 145 0
-1.9706501160111549 -1.0410127443110022 3.3610057054277322 212 219 229 160 169 0
-1.9799213477006017 -1.0990009006571611 3.3752870915764186 255 206 215 159 163 0
-0.016602721750575311 -0.6605506027207696 4.747088618956453 173 255 136 382 235 0
-2.1591859566476277 -0.09684135877256389 3.722179964630163 255 241 242 163 277 0
0.43910531446065149 -0.011419941223933139 0.86089005318395739 111 121 145 580 283 0
0.34952409746581881 -0.13676634267620646 0.93352353368412411 241 255 232 526.800049 231.600006 1
-1.8109835708376836 -0.25532097404882698 3.323331277724539 244 255 240 174 259.200012 1
-2.4034538838655046 -0.29432867095427773 5.4517880470532623 106 128 255 213.600006 267.600006 1
-0.28057767351196916 0.29123480915819799 0.44657518376200067 128 141 255 141.600006 537.600037 1
-0.83763223666459252 0.33695119473051061 1.5125798092179572 255 98 97 171.600006 373.200012 1
-1.9631167229288473 -2.0660252509057297 3.3741140809244929 255 116 150 159.600006 51.6000023 1
-1.9150065726710679 -2.2424138872513812 3.3622200973784957 144 188 255 165.600006 31.2000008 1
-1.7749368628451663 -1.5299277318967222 3.3335279819390329 174 192 213 180 111.600006 1
-1.8122900558145787 -1.7420922894821607 3.3597951071042886 173 204 255 177.600006 88.8000031 1
-1.7171791817202275 -0.92394815739269798 3.2499856702163896 216 222 231 180 177.600006 1
-1.813043776688239 -1.1045203060989321 3.3925819325433122 203 214 227 180 163.200012 1
-1.7922494722903637 0.10530638187584875 4.2512761472998672 255 92 109 223.200012 297.600006 1
-1.0873385055625939 0.26881643481660661 3.5989468957267858 255 160 163 267.600006 315.600006 1
-1.7919915873027548 -1.3293527345123564 3.3534463616867738 206 221 255 177.600006 135.600006 1
0.32171179167104447 -0.58945728232574268 4.1370546403084996 255 147 196 411.600006 231.600006 1
-1.7994488517843177 0.27910272315003476 3.0691815484367351 255 214 203 159.600006 325.200012 1
-1.9040804055327638 -0.3402054386172062 3.2755729407390537 255 238 239 159.600006 249.600006 1
0.35535597001022745 -0.46440894731170806 0.91442627446897862 255 150 175 535.200012 93.6000061 1
-0.23661154995754896 0.41085790409795137 1.2616749130875526 215 216 255 313.200012 411.600006 1
-1.2408819793037131 -0.16797010658712583 3.2566351072258 104 255 68 234.720016 267.839996 2
-1.8462332122872769 -2.0286456713630598 3.2441892614131009 114 149 191 164.160004 48.9600029 2
0.44057693927987207 -0.63654806479494075 1.0576768804273802 196 255 121 542.880005 56.1600037 2
-1.6909998881486663 -1.2753062980452032 3.3258883063556746 255 187 202 187.200012 139.680008 2
-1.6440405080882963 -1.17745713723496 3.1441317022386253 196 208 222 180 145.440002 2
-1.7386924392419552 -0.76082967089560383 3.6693342018682191 228 234 255 201.600006 205.920013 2
-1.8070820348837442 -0.71360993353823421 3.3634438280639269 228 231 236 180 205.920013 2
0.45356758615173243 -0.26748726419369306 0.8596796717088182 196 211 227 584.640015 171.360001 2
-0.23262169820405321 0.42972652570142122 2.2561533537223273 140 159 255 345.600006 361.440002 2
-2.5523479804602429 0.42331969934328439 4.3323184250658704 255 214 203 159.840012 325.440002 2
-1.286285247343486 -0.66795427322987477 3.4434834254937217 72 90 116 240.480011 214.560013 2
-1.9040804055327638 -0.3402054386172062 3.2755729407390537 255 238 239 159.840012 249.12001 2
-1.9333202820061643 -1.7834159798541787 3.3735155241057408 144 171 203 164.160004 84.9600067 2
-1.9976787611081464 -1.4959041704740199 3.4068542342382329 255 204 211 159.840012 119.520004 2
-0.27591813869963588 0.41418443121145943 1.0515405734453922 211 211 255 285.120026 437.76001 2
-0.24543681508491266 0.4223116122350084 0.62696241441474743 143 156 255 233.280014 547.200012 2
1.2391656258924419 0.079638782026211441 2.2852993371478427 255 103 111 591.840027 303.840027 2
0.45230896432873413 -0.22624843282142104 0.86280838348261635 218 231 255 585.792053 188.35202 3
0.43585313098488365 -0.22661885380341196 0.86400627415307585 231 255 205 578.880066 188.35202 3
0.43662338165760284 -0.26586381351027394 0.86763609297869815 230 255 213 578.880066 167.616013 3
0.31428803379824655 -0.60005786626581381 4.1071060378294 255 147 196 411.264038 231.552017 3
-0.56085245094045821 0.32877727217461089 0.74670844499253874 26 255 11 98.4960098 456.192047 3
-1.8320383709225707 0.22228058180473295 4.0150225679607212 87 102 255 209.088013 311.040039 3
-1.7490104980445991 0.10981819357571315 4.1070229883194243 108 128 255 221.184021 298.944031 3
-0.10399144544779726 0.44692865539246879 1.1241247865528794 74 91 255 349.05603 440.640045 3
-1.3367580609906091 -2.1029970397298072 6.2814213447471063 190 207 224 300.672028 162.432022 3
-1.3463484518661408 -0.18659729588800794 3.4883523783390977 88 108 255 233.280029 266.11203 3
-1.7020460032751883 -0.21673975822597863 3.3512051785261243 244 255 242 190.080017 264.384033 3
-1.8054800960817632 -1.6393855216090663 3.1369874188697793 149 174 204 164.160019 86.4000092 3
-1.9798028254283544 -1.7525146343389333 3.3788394372308397 150 174 205 160.70401 89.8560104 3
-1.7716505577157546 -1.3146846969251724 3.3125094247265179 195 206 221 176.256012 134.784012 3
-1.7894604716866955 -1.5388740374286254 3.3412730134336037 255 175 192 179.712021 110.59201 3
-1.9634954530322872 -1.4829551924747122 3.3552421949431999 221 255 203 158.976013 117.504013 3
0.5273880291518187 -0.041551381425427567 0.85148933342690825 192 255 167 618.624084 269.568024 3
0.82273126340406244 -0.76443431206671164 3.1659678459706737 225 234 255 485.568054 193.536011 3
0.53973357033943803 -0.47081319080136258 0.88874819611635436 133 164 202 616.896057 82.9440079 3
0.56457222435199539 -0.38678855671215601 0.88913133645231346 255 179 195 627.264038 120.960014 3
0.16313968113733901 0.44973959087921211 1.6002294127066965 255 217 217 423.360046 395.712036 3
0.32840041939273179 0.38114621628378148 0.59883575591848448 255 0 0 595.123291 532.915283 4
-1.3028118709200793 -0.18113726233128558 3.3780952352565499 104 255 68 234.316833 267.494446 4
-0.62361743439098527 0.26957939399753367 0.72588637235022846 255 195 196 55.9872093 427.161652 4
-0.12031688024067222 0.43847174196408439 1.2554638667810212 123 255 96 346.29126 423.014465 4
-0.15817122996722155 0.42793096459515806 2.7204450996716725 212 212 209 356.659241 348.364838 4
-1.2058843372907142 -1.8902282256856999 5.7110595423566179 190 207 224 300.672028 163.814423 4
-1.8296094945711228 -1.0816048042917912 3.3757915506212335 206 216 227 176.256027 165.888031 4
-1.9575548350317491 -1.102561015970726 3.3660862890541985 255 206 215 159.667221 163.814423 4
-1.6982899100799624 -1.8346601605023827 3.323844676607759 199 255 130 186.624023 76.7232132 4
-1.901371458073021 -2.0944457966048966 3.338107817957392 255 113 148 163.814423 47.6928062 4
0.4390065656454103 -0.2284062596974234 0.8655101557671514 231 255 205 578.534485 188.697632 4
0.44045091448889129 -0.61957533599694037 1.0260790127520525 255 113 151 551.577698 55.9872093 4
-0.27952649488416337 0.42859786127800081 0.93680185595776577 203 201 255 265.420837 462.412872 4
-0.24703810709456508 0.38097406163425301 0.969599255503375 209 211 210 284.083252 437.529663 4
-0.10630330205805216 0.45208143484216229 0.7079902281909991 21 30 255 325.555237 534.988892 4
-0.25263582949283192 0.30133060957279573 0.47540325345820267 102 133 146 180.403229 532.915283 4
-0.3117695736190973 0.31334670445205748 0.49002590661869938 126 137 255 141.004822 534.988892 4
-1.1923518868486438 0.25473489736819754 3.9136060912659154 255 149 153 267.494446 313.113647 4
-0.5180109456145976 0.28887011395195683 1.0161591569402331 152 255 112 186.624023 396.057648 4
0.14107296846749551 0.37992377631947605 0.89197081530407596 216 214 255 445.824066 454.118469 4
-1.6255697008675298 -2.0097944301151136 5.8687976376434481 206 223 255 277.862427 157.593628 4
-0.15266160759777225 0.46530574612805692 2.1082192431972744 197 198 160 360.806458 373.248047 5
-0.27001810928280667 0.30437068995194461 3.1036291109720184 198 255 182 350.85318 325.969971 5
0.44003452009805066 -0.014481702193752596 0.86685287660127308 138 255 107 582.266968 281.180206 5
-1.8107593912951798 -1.0734444479995018 3.3456187734883827 205 215 227 176.670746 164.229141 5
-1.6066427415081881 -1.9687429801178442 5.7982987438343461 223 255 192 278.691895 159.252502 5
0.83613634859587815 -0.73369804484327683 3.0467618433357893 255 218 225 487.710785 194.088989 5
-0.25120970630603567 0.41366592405614327 0.72445059959970859 108 112 255 253.80867 502.640717 5
0.56436704407574545 -0.36029862874794444 0.87681351059439661 182 198 217 632.033386 126.904335 5
-1.9055336007292087 -0.33289342613266415 3.3070057341719914 239 242 255 161.740829 248.832031 5
1.1851402235925901 0.081479873910113812 2.1773905014287043 95 105 126 592.220215 303.575073 5
0.32849985366907353 -0.43188002133010173 0.9157592929443199 179 209 255 525.035583 104.509453 5
-0.64290390659508212 0.37564916762596434 0.9938930749196222 145 255 155 134.369293 437.944397 5
-1.1010610974322699 -0.56753669492093917 3.3767384675620415 225 255 223 258.785309 223.948837 5
-0.29739294542294581 0.42804228294381552 0.95628354065650911 204 255 204 266.250275 460.339264 5
-0.3726473760159339 0.38061189650158406 0.9503514493116334 161 164 165 236.390427 442.921021 5
-0.10911069520442318 0.45710837191905918 1.1776490358713327 100 255 78 350.85318 437.944397 5
-1.9766465417120127 -1.8456866405418373 3.4384883626676381 138 167 201 164.229141 79.6262512 5
-0.16557883086903824 0.46887850217788651 2.14992451576502 202 255 210 358.318146 376.23407 6
-1.9414753600565415 -1.8021570534548985 3.398236156621663 138 167 201 164.229156 80.621582 6
0.44729405439905079 -0.22933589342409522 0.86427145825951124 255 205 218 579.281006 188.117035 6
-0.25074047463160953 0.29991296225830993 0.53341288120923458 255 190 190 203.046951 504.631378 6
0.54242676662714617 -0.47639623826197841 0.90037325707494276 255 135 165 615.112793 83.6075668 6
-0.25676394592468688 0.41416677871296292 0.73630701941573085 131 255 92 250.822708 501.645416 6
-1.1453322325069522 -0.17055470510467413 2.9744315992942467 69 90 112 232.906799 265.752625 6
-0.2045726746097829 -0.46117649474259637 4.3047478536972212 151 160 255 361.304138 247.836716 6
-0.29089051335451921 0.41996275748648132 1.1033034105586526 211 255 211 286.65451 435.953735 6
-0.095095977733489212 0.43564681460584298 1.1260399152341549 79 97 255 349.360199 438.939728 6
-0.10911069520442318 0.45710837191905918 1.1776490358713327 87 91 109 352.346191 432.967773 6
-1.7082426025764268 0.11792857475674613 3.9771294786432598 84 102 119 220.96286 301.584442 6
-0.24793338364999018 0.40660665433157517 1.8548746871336288 104 255 66 334.430267 376.23407 6
-1.497674252316469 -2.1960432627696038 6.7695486998444556 206 224 255 301.584442 161.243164 6
-0.24142679788079957 0.40095404044570604 0.70891727525741111 131 255 92 250.822708 501.645416 7
-0.27264559227061191 0.38330154753024998 0.77159618443164457 200 255 200 250.822708 472.97998 7
-1.8375022756005737 -1.0847385075575393 3.37612580013238 255 206 215 175.575897 164.826355 7
0.44474179012010218 -0.2622860171097286 0.85805278190948187 206 217 229 580.475403 168.409531 7
0.53651201648121716 -0.48056807511620925 0.89515474723243926 133 164 202 612.72406 82.4131775 7
-0.23994312594439182 0.29272319256563922 0.51173653810991437 186 187 189 200.658173 505.228607 7
-0.30975508047623523 0.31351724583181179 0.5825945145404221 255 200 200 179.159088 501.645416 7
-1.6203453186963968 -0.23866550411029114 3.9174587429731567 98 121 255 229.323624 265.155426 7
-1.141090408804704 -0.41119464402541822 3.5011585731354629 222 222 255 257.989075 243.656357 7
-1.9037043203452915 -0.33511740552561853 3.3371544462484648 239 240 243 164.826355 250.822708 7
-1.2330690415206247 -0.70602443413503613 3.3260106417214157 76 98 123 236.48999 211.407715 7
-0.28550689157795839 0.41899588458152637 1.0903235940832392 212 255 216 286.654541 433.564972 7
-0.14525796788387235 0.44179680646549135 1.9581457083875411 202 255 210 358.318176 376.23407 7
-0.24570936559538814 0.38856451561704991 1.4839402357641491 57 255 100 318.903168 383.400421 7
-2.4674914340030383 0.17477288284289905 3.9319115100561994 255 237 240 143.327271 297.404083 7
