ply
format ascii 1.0
comment Written with hapPLY (https://github.com/nmwsharp/happly)
element vertex 76
property double x
property double y
property double z
property uchar red
property uchar green
property uchar blue
property float ix
property float iy
property uchar octave
end_header
0.58215264815136258 -0.63061440915509981 3.3153374824117092 139 160 255 453.600006 213.600006 1
0.78182260959728822 -0.28765711945495059 2.6691167649217755 241 243 246 496.800018 246.000015 1
-0.45288511782837793 -0.48104796577460907 0.80452773443294578 140 172 208 168.480011 57.6000023 2
-0.49633337441912584 -1.3715536102020123 3.2412733161269287 107 127 157 324 126.720001 2
0.68855571265835525 0.56559741094672011 2.681549352953513 172 185 255 485.280029 370.080017 2
-0.31052383585711318 -0.41859580507513239 2.6711698134864896 255 44 67 339.840027 228.960007 2
-0.27680897937129512 -0.38381930907253736 0.78275256517168179 75 98 255 249.12001 102.240005 2
-0.20630806364527965 0.43517850159165106 0.82460796101455269 95 255 35 286.559998 491.040009 2
-0.8203962019229083 0.55525332035670849 1.0478666040456979 3 255 0 82.0800018 489.600006 2
1.2488767953701094 0.49869203441681875 1.5014880404933679 30 43 255 705.600037 416.160004 2
1.1648085388009952 -0.42615720309757954 2.1124381631937732 227 235 241 592.704041 210.816025 3
1.2195304976519763 0.48597884815079101 1.452902114056573 30 43 255 705.024048 416.448029 3
-0.37760835710194218 -0.039657800175937646 0.7229976820555839 124 133 150 184.896011 264.384033 3
-0.28931582394718669 -0.39682485525275113 0.82110707705157937 42 75 98 248.832031 101.952011 3
-0.52391729246675345 -1.3872349119867571 3.2563920645749649 255 108 128 323.136017 126.144012 3
-0.94741247121800187 -0.59792136907261262 1.1814899778872032 224 255 224 74.3040085 91.5840073 3
0.83054337643419607 -0.62403042769823125 3.0027525535304527 242 255 231 490.752045 209.088013 3
0.75897072996812476 -0.28649412713454908 2.5783622298903124 255 240 243 495.936035 243.648026 3
-0.81577644444245001 0.55015783432195564 1.0414716477167669 3 255 0 82.9440155 489.369659 4
-0.060428673791024234 0.60993249355071655 1.1619582028986635 110 255 56 362.880066 491.443268 4
-0.45441423804750558 -1.8371782723951879 3.4337618371356191 255 111 131 331.776062 82.9440155 4
1.4079574023071091 -0.72130973666335274 1.8430668998525785 235 255 227 682.214478 136.85762 4
1.2140973197249283 0.48425190515848249 1.4467102561489691 30 43 255 705.024109 416.793671 4
-0.45141010873947041 -0.47892767231349487 0.80016877787280816 175 209 255 165.888031 60.134407 4
-0.24624366393989572 -0.13541648533429196 0.70618562851989441 103 255 71 250.90564 215.654434 4
-0.46426879381264996 -0.054840811928887151 0.96334720393549222 255 91 105 199.065628 267.494446 4
0.75887232020601481 -0.29360404893121267 2.5961526109100435 242 246 255 497.664062 242.611237 4
-0.93004288990450723 0.22964479048047975 1.0673686080126403 255 134 146 47.6928062 373.248047 4
0.1346100237899015 0.028885299799298769 5.3393833631182002 255 143 169 391.910461 292.377655 4
0.13380310611406587 0.48677190557842775 2.1242366250960414 140 159 174 408.499268 371.174438 4
19.060132514463664 -31.277661794289813 58.641578233943385 193 217 255 505.958466 85.0176086 4
-0.098004058970399655 0.046756857398536356 2.2534843650673269 133 149 167 368.271423 298.59845 5
0.15512521502992893 0.56400035130579096 2.575953528935333 149 165 178 408.084534 370.759735 5
1.0535050808360094 0.55449621471742816 1.8294928174118938 179 255 184 602.173523 400.619568 5
0.87075646670930973 -0.27090642436671797 2.1229789037449684 241 245 255 537.477173 238.878754 5
0.579184098945833 -0.5981598705967488 3.1232829970567924 255 117 153 455.36261 213.995544 5
0.48772144281224783 -0.47831285952610481 3.1620314614534708 89 126 154 440.432709 231.413788 5
1.3610699758192535 -0.47770519559946378 1.5491692483863106 255 223 229 719.124573 174.182419 5
-0.2476244528521141 -0.2601083036864047 0.79579215364025924 61 72 89 268.738586 161.740829 5
-0.29715485244351481 -0.16252214733375969 0.88886319490482091 255 72 86 251.320358 213.995544 5
-0.9089597234458453 0.22653256126113602 1.0278895696460451 255 100 108 47.2780876 370.759735 5
1.2095504829520471 0.48380771165260394 1.443351740148838 46 255 28 706.682983 415.5495 5
0.31750949308122545 0.35926907751777087 3.7183152825389492 186 255 149 418.037811 320.993317 5
-0.1598008137732998 0.43582860410978841 0.83445324604885984 99 121 255 313.528351 490.199097 5
0.5392554846639217 0.59878105794713377 3.5183023070941202 255 34 99 447.897675 353.341492 5
-0.51522472234904004 -1.3830009244826889 3.1890797915920635 255 113 131 319.500336 125.411354 6
0.99616106612729993 -0.32534360192543488 2.4727203908807658 241 245 255 537.477234 238.878769 6
0.71956848229492221 -0.29148844078571962 2.4371207541212057 255 241 243 495.673431 241.864746 6
0.5796732771501496 -0.60107072033904863 3.1166666993564016 142 163 255 453.869659 214.990891 6
0.94612785579457581 -0.52387317036686709 2.5838080496624531 234 241 255 525.533264 209.018921 6
-0.45259115380510107 -0.79931185925066228 2.8387236965629752 160 255 115 322.486328 179.159073 6
-0.26184894505711398 -0.27533246498750308 0.85364352174142333 61 72 89 268.738617 161.243164 6
-0.93312194160577322 0.26296038339963673 1.6107543988613218 227 228 229 164.229156 352.346191 6
1.0647283733061361 -0.45009832119767978 2.1975352476638124 240 255 222 570.323059 203.046951 6
1.1663342360248823 -0.61092052783936501 1.6597320654432552 228 255 197 650.944641 143.327255 6
0.28053353819387117 0.30690232922212834 3.1881339193183615 255 152 171 415.051849 319.500336 6
-0.24336211544980113 0.2990847323785546 0.88365293613281448 84 255 34 274.710571 421.023834 6
-0.35836549522742844 0.30784127432485014 0.85256479684380349 102 118 255 217.976868 429.981781 6
-0.15794899146522501 0.051962015330058953 2.8788016645259704 255 118 136 367.276093 298.59845 6
1.0091751299789871 -0.31863904291617556 2.5406021191867634 242 245 255 537.477234 236.48999 7
-0.30932945802325618 -0.19337342856252654 1.0328227343979668 86 102 255 265.155426 214.990891 7
-0.344312760743545 0.2969632149832146 0.79258006343222132 111 255 81 218.574081 433.564972 7
-0.62512498114388926 -1.0609531708935753 3.928434912167428 160 255 115 322.486359 179.159088 7
0.93940164811217242 -0.5184550928522722 2.5177993833847951 255 227 234 519.56134 207.824539 7
0.80579887873045664 -0.6519015119465571 3.1952672139108129 255 234 237 487.312714 211.407715 7
1.3049388927859333 -0.64808630535461398 1.677598822040582 225 229 235 684.387695 139.74408 7
1.1939261811065398 -0.65298347583661709 1.7345924946504709 198 213 228 648.555847 143.327271 7
-0.3958098972413584 -0.09767429138987016 0.76667120293830271 138 255 102 186.325439 243.656357 7
0.38338398884544422 0.36424434366512715 4.1963373050091173 255 144 163 419.232239 318.903168 7
0.13206663298641841 0.038670489254686913 5.1364419163676125 173 255 136 390.566803 290.237701 7
-0.27900353445469861 -0.38566153166852335 0.7809669805895969 255 42 75 247.239532 100.329086 7
0.95429300857393162 -0.2609498486282778 1.5879342189152776 255 131 164 619.890442 229.323624 7
-0.20254783944620369 0.26653339092595696 0.7368171095370144 255 31 53 275.904999 422.81543 7
1.1192446312406283 0.51246256217302555 1.8567000754661205 142 167 255 609.140869 394.149963 7
-0.12820794331136565 0.046754131197073612 2.5155248185632351 160 178 255 369.067719 300.987244 7
-0.93312194160577322 0.26296038339963673 1.6107543988613218 224 225 228 164.826355 351.151794 7
