ply
format ascii 1.0
comment Written with hapPLY (https://github.com/nmwsharp/happly)
element vertex 154
property double x
property double y
property double z
property uchar red
property uchar green
property uchar blue
property float ix
property float iy
property uchar octave
end_header
-0.24238321158480058 -0.080725013849960892 1.4366273427381042 255 247 247 319 265 0
1.2281001613464184 -0.64273521969221048 2.2667188380807382 216 228 238 592 178 0
0.37113606498772933 0.69046199009110643 1.1549261957096144 115 130 146 508.800018 519.600037 1
-0.24417815570475465 -0.44255080018288462 1.4649380770031994 255 211 225 319.200012 171.600006 1
0.23944294430705604 0.569023606135035 1.4057033480588856 190 255 170 450.000031 442.800018 1
-0.30903137850480178 -0.03492698184873011 1.2691493245925907 255 247 248 291.600006 277.200012 1
0.17435333812500442 0.54601955033597893 1.0458554720546385 255 149 157 447.600006 487.200012 1
0.89816589832683214 0.5346221063380765 1.2776378194942888 255 211 213 651.600037 448.800018 1
0.57369334381830739 0.64993382729058313 1.5296660345202957 105 116 130 528 451.200012 1
-0.58995742405548945 0.41387088767739288 1.6911702869473588 204 255 203 250.800003 381.600006 1
-0.64857520967808613 -1.5330499432329221 2.6354430020713497 189 218 255 289.200012 64.8000031 1
-1.9319714005529818 -0.21320763793427333 2.5029730819216853 111 137 255 85.2000046 255.600006 1
-0.24907219851626294 0.12913025235106956 1.5019456680893901 222 231 255 321.600006 321.600006 1
1.014928399728114 0.52838422789719997 1.2287539664067797 155 168 187 700.800049 453.600006 1
1.310007674332907 0.077703200915688442 1.8064429293220696 255 146 173 663.600037 303.600006 1
0.4835420437948903 0.67440761365720236 2.5736417934784459 231 231 230 456.480011 388.800018 2
0.97828927738598426 0.5106503983633448 1.1285675981080292 255 117 137 715.680054 463.680023 2
0.41974569674093432 0.66330698676986799 1.1451937431637891 116 134 255 525.600037 509.76001 2
-0.56968551073629037 -1.3321983665701596 2.2787222755095193 189 218 255 289.440002 64.8000031 2
0.78986382800991972 0.61880692007289162 1.4762925264463203 141 154 168 588.960022 447.840027 2
0.79506626906153044 0.61924108157280466 1.7065498965885482 75 86 102 564.480042 429.120026 2
0.70599069969626105 -0.44973045346995155 2.5583852371249645 255 238 242 491.040009 220.320007 2
0.62079491286452093 -0.17453465720645067 2.282141405407998 248 249 255 489.600006 259.200012 2
-1.9786381057556888 -0.55151141693433336 2.6452252380082593 255 178 178 99.3600006 207.360016 2
-0.21902074874092214 -0.078338649881989131 1.2598293975662092 249 255 248 318.240021 264.960022 2
0.8295754156540518 -0.50875068913531796 1.8022875012410777 227 233 240 560.160034 178.560013 2
0.47883668535732671 -0.37605495554835744 2.2413180738347185 240 243 246 468.000031 221.76001 2
-0.42781641650722735 0.17748449270635192 1.7367740910381597 164 179 197 288 328.320007 2
0.46950408678299205 0.66362129885053323 1.0263512095155685 127 255 100 558.720032 537.119995 2
-0.32343704652786709 0.39706026206614098 0.66430856616770306 134 255 83 198.720016 514.944031 3
0.28094221831511224 0.69514558254933034 1.1619727857648936 131 147 255 473.472046 516.672058 3
0.59024408947510532 0.0057611921559339585 2.0946479711180226 251 255 249 490.752045 288.576019 3
0.80099754882052965 0.41632642374698614 1.5806645976560203 162 255 136 578.880066 388.800049 3
-0.59115163543931715 0.41352300937701547 1.6915511031479893 204 255 203 250.560028 381.888031 3
-0.27438109961352009 -0.49110714558800717 1.628653503712437 227 237 255 317.952026 171.072021 3
1.0187656415235404 -0.23806908158892692 1.490838213265735 98 114 133 644.544067 222.912018 3
1.008051072786732 -0.45252795648116562 1.5235275166598052 226 237 255 637.63208 172.800018 3
0.90341638682563374 -0.47731974971535607 1.6639503364968418 215 228 238 592.704041 177.984024 3
0.82762647784110821 -0.51029888223166286 1.8076816393148452 240 255 228 558.144043 179.712021 3
-0.36985493330459196 0.31714615696857962 0.72526747462008867 117 140 165 188.35202 454.46405 3
0.81094204459492514 0.63236825202635627 1.527617109139416 155 169 255 589.248047 447.552032 3
0.28971636877141949 0.64189086679019058 1.4610814370124103 146 170 255 461.376038 452.736053 3
0.76968417347798579 0.67285819580334461 1.7401720977218647 255 127 139 551.232056 437.184052 3
0.44091514546988786 0.6902440492638523 1.2086398975874273 120 137 255 525.312073 508.032043 3
0.84495157987807379 0.42594545900160741 1.863865474021698 95 109 255 561.600037 376.704041 3
1.0019988967209792 0.37336678222883241 1.1262092624696907 99 119 255 725.760071 414.720032 3
0.37148594863007434 0.21033003167462982 3.3853498730411067 52 118 147 428.544037 309.312042 3
0.70838222981100185 0.14950286849253203 1.9353789440007398 173 190 255 521.856079 316.22403 3
0.34870760491704234 0.49597483581096569 1.8459464923643987 231 231 230 456.192047 388.800049 3
0.51398649868990121 -0.39331737250435927 2.276177198770708 240 243 246 468.288055 221.184021 3
0.28096443614301592 0.17330523732365988 3.7281663275203734 154 255 86 410.572845 306.892853 4
-0.22955262208957361 -0.31466165791186351 1.3900204585221658 236 243 255 317.260834 201.139221 4
0.79282838598544081 0.62162463467337536 1.4758543760297869 141 154 168 588.902466 447.897675 4
0.93886466050740913 0.49543292642990816 1.8605518219886683 162 255 137 578.534485 389.836853 4
0.93104003477110853 0.43295271731603241 1.3493769471268227 148 179 255 649.036865 410.572845 4
0.46245991412560228 -0.040329642692686463 1.9623276725306376 249 250 251 472.780853 279.936035 4
-0.22591111796857444 -0.40018330978920602 1.2919363396593564 226 237 255 317.260834 170.035217 4
-0.55326156493160816 -1.3179946426673159 2.2374848442076196 159 188 217 288.230438 62.2080078 4
1.0576354603418558 -0.25161399030561038 1.5628814248379728 106 126 151 644.889709 223.948837 4
0.88152177105787155 -0.4657233846712735 1.6188239487490348 228 238 255 593.049683 178.32962 4
0.86893345707352565 -0.071598926726073264 1.7573455651618914 249 250 251 572.31366 271.641632 4
0.63792990123559079 -0.53913859129728225 2.1272194795707939 235 241 255 497.664062 190.771225 4
-1.0754801980430928 0.50125224016934422 1.449040031835815 111 130 255 101.606415 420.940857 4
-0.35364388780060096 0.34865047581281039 0.69914927023084683 164 255 127 186.624023 483.148865 4
0.78847517058870231 0.65681243693549762 1.5274902980335412 126 138 153 580.608093 454.118469 4
1.0002927699190789 0.52489103937351989 1.1633344759861464 255 117 137 715.39209 464.48645 4
1.0036386345742514 0.39474284702615303 1.1768711292712686 87 110 255 713.318481 416.793671 4
0.76559988329157425 0.68026658654909067 1.2713125745133844 13 28 255 613.785706 493.516876 4
0.29471611648545881 0.66841740610121225 1.5614186430148207 129 144 168 460.339264 454.118469 4
0.21340600971052437 0.66405793879177077 1.3104812118119824 162 178 255 449.971252 483.148865 4
0.42377712734847184 0.66862822888589091 1.1764341214859106 104 115 133 524.62085 510.105682 4
0.80706550307669178 0.41021341180546489 1.7646760123848697 255 99 110 559.87207 377.395264 4
1.0531779459238588 0.39025100639582205 1.188586342686432 99 119 255 725.760132 414.720062 4
0.55668568774097382 0.0053598038296185369 1.9755475892488485 255 249 250 491.443268 288.230438 4
0.46739638458762345 0.48177573675677166 2.3330942826690073 35 45 62 460.339264 369.100861 4
0.58340024041385807 0.64081431893957164 2.2760709687354339 255 104 110 483.148865 398.131256 4
0.4889408716350534 -0.3839415088360616 2.1522988178672833 240 243 246 468.633667 221.875229 4
-0.096318782240621736 0.50671751396078513 1.6068371983465015 131 148 167 360.806458 405.596222 5
0.56821733328440938 -0.4221564615282698 2.0360900422758519 243 255 233 490.199097 206.530594 5
-0.57514819940241413 -1.3463392724734475 2.3022732710608009 159 188 217 288.645172 62.2080078 5
0.82225233976394496 0.54705304468773608 1.6022247790547057 159 255 128 582.266968 418.037811 5
0.55055817666558804 0.57834563979431031 2.0864476986021856 108 117 255 485.222473 395.642944 5
0.85360470805417865 0.54467485888385159 1.7541144248299592 152 255 119 574.802002 410.572845 5
0.89108283908790886 0.4561077589506784 1.7343653407983428 255 134 147 579.778625 388.177979 5
-0.67989284723903864 0.48486065355444308 2.00113752165307 221 219 255 253.80867 383.201324 5
0.34713056960629651 0.20473778556722433 1.7490692246449253 240 255 239 462.827576 333.434937 5
0.27808919094555251 0.25747835355404303 2.1510981756716783 89 146 168 432.967743 330.946594 5
0.97488428230035218 -0.44028207713381939 1.455198051090961 227 238 255 637.01001 174.182419 5
0.83768717398965831 -0.51597070791037092 1.8338743788854384 255 228 233 559.87207 179.159058 5
1.0419670281370292 -0.32035565662776189 1.211699407693219 140 172 198 716.63623 186.624023 5
0.73000010977714536 -0.061415316057757185 1.4573260932045651 249 250 251 572.31366 271.226929 5
0.76480028131651223 -0.18329556370522992 1.5986618497110054 247 247 249 564.848694 243.855392 5
-0.39671458481917687 0.07090198295234762 1.5974921642229818 135 153 175 288.645172 306.063416 5
0.86287166924450953 0.6662355851896109 1.6196378054340288 255 140 153 587.243591 447.897675 5
0.98099655362510141 0.51567234346848112 1.1343314742985937 119 137 167 716.63623 465.315918 5
0.95936793577850032 0.36952073486290166 1.1068621867827746 92 255 69 714.147949 415.5495 5
0.2185549139213101 0.67838877345571502 1.3286272290346517 168 255 130 450.385986 480.245819 5
0.10038285330045471 0.060894369560124284 2.00263662630711 255 121 153 403.10791 298.59845 5
0.38703685056468551 0.54928545627654524 2.0872498084369875 255 232 232 455.36261 388.177979 5
0.52924283139753703 -0.41255450491625101 2.3916585798325087 255 240 243 467.80423 221.46051 5
-0.44208728160723121 -1.2934965853576608 2.2312400422377667 218 255 163 306.063416 64.6963272 5
-0.14597447820905707 0.6648675866398186 2.1491196242025898 154 255 108 358.318146 406.093903 6
0.6749015515653769 0.44716334843360017 1.8504077993907249 145 255 114 522.547302 379.220032 6
0.94422453191410693 0.59883439692209106 1.4223773443037642 156 167 186 636.014709 450.883667 6
0.98511954950914038 0.49882676103908624 1.1795562142166744 185 199 255 701.70636 450.883667 6
0.73922690165877381 0.63274124780697094 1.6339571649991589 255 124 135 555.393127 435.953735 6
0.79031986398064213 0.55909104573918678 1.7679399640462581 133 255 119 558.379089 412.065857 6
27.786607466088963 -28.500098540447389 71.775623860629679 255 208 219 531.505249 134.369308 6
0.90030061542710627 -0.087577943640288702 1.8373247063192064 250 251 255 573.309021 271.724609 6
0.65892249158422755 -0.16267285996973424 1.2873395949734148 255 246 247 579.281006 238.878769 6
0.81358714595101422 0.42562553329327701 1.5538694714949592 255 135 148 579.281006 391.163971 6
-0.30869010870640512 -0.59074513267477369 1.3537749366589944 208 228 255 301.584442 125.411354 6
0.66955995417110969 0.63470904899724057 1.1266958228346899 10 17 35 612.126831 501.645416 6
-0.66000171565374099 0.64089065318644112 5.9311384021646187 7 106 131 340.402252 328.458313 6
-0.37191784394583394 0.0043910771681221483 2.2312355268283328 246 248 250 316.514374 292.626495 6
-1.0718947265451071 0.3905692760781152 3.2353815870156524 239 245 255 253.808685 331.444275 6
1.1575900822276743 -0.36754538450256002 2.2441945888240227 246 248 255 585.252991 226.93483 6
0.8225908321169535 -0.51259601381388764 1.8020327388724828 240 255 228 558.379089 179.159073 6
0.99084054577261549 0.61282699074568869 1.266916311071089 168 255 122 686.776428 477.757538 6
0.80254558581849755 -0.65098668402493109 3.549277415094946 255 241 243 471.785553 217.976868 6
0.63059422989742431 -0.52023063239543377 2.0682220299751739 241 255 229 498.659424 191.103012 6
0.19305731325488829 0.66725886275061563 1.1669180917470552 165 255 131 450.883667 510.603363 6
0.35574626630307349 0.67316827911194488 1.4324685472634355 255 122 138 483.729492 471.785553 6
1.008051072786732 -0.45252795648116562 1.5235275166598052 214 226 237 636.014709 173.187103 6
0.44828946615544329 0.2890210072095355 2.3803355204154135 255 241 241 459.841614 331.444275 6
0.2046315239271852 0.13234091583063612 4.0051346108739878 150 171 193 400.121918 298.59845 6
0.76296998584981113 0.59876697955373015 1.4308644180358518 125 255 160 594.210938 450.883667 6
0.80252057172113989 0.62636167520953678 1.5389985682645957 152 166 255 585.252991 447.897675 6
1.0786364148287551 0.43122537305423903 1.2774064885775624 255 119 131 707.678345 418.037842 6
16.608724605280244 -26.618058629633452 47.982623334531091 255 165 192 519.56134 74.6496124 6
-0.46877744118242415 -1.3111319636953016 2.2610949266633167 163 190 218 304.570435 62.705677 6
18.80308024296011 -21.604107391839417 36.384479946606461 185 217 255 585.252991 65.691658 6
0.45020609933417854 0.49262077071638211 1.7276634632065102 121 124 130 480.146332 394.149963 7
0.182768830462676 0.12257808920672075 4.4177960800722573 179 199 255 397.733154 300.987244 7
0.41498924681413962 0.65449707165892901 1.1581541630545367 255 119 134 519.56134 505.228607 7
-1.9197377272679983 -0.5362552340501765 2.5434713865994336 138 136 255 85.9963608 207.824539 7
0.79430487571069608 0.69345658089499529 1.314018401488882 15 19 38 616.307251 490.895874 7
-0.71250300625716179 0.70543278353785843 6.215963948587067 36 116 140 336.819061 329.65271 7
-0.36358935607290732 -0.68057261615218301 1.6276712416993089 185 208 228 300.987244 125.411354 7
0.78831729353536151 0.049692111568289898 1.9862866621742468 184 199 255 541.060425 300.987244 7
0.98251676857440617 -0.43553427614457152 1.4785246824987555 239 255 220 634.223145 175.575897 7
0.79621820284208633 0.40477271956765204 1.7576807155707614 255 116 129 555.393127 376.23407 7
0.69147835588724593 0.61178504638919662 2.0100837685152717 255 127 143 515.978149 404.899536 7
0.36960057701847293 0.54641328123193522 2.0695261557827234 255 219 219 451.480896 386.983612 7
0.86267659272138753 -0.44278837276549377 1.56139415630689 238 255 216 594.808167 179.159088 7
0.88762657718427729 -0.5507017624681646 1.9809035071718677 255 229 234 555.393127 179.159088 7
0.80655722500916616 0.6930993007545454 1.8386375885981794 255 123 134 555.393127 437.148163 7
0.93775054018405946 0.59659181868859545 1.3870468961846374 214 215 217 648.555847 451.480896 7
-0.18740186674240711 0.64259212863664028 2.3718945584153435 255 189 197 351.151794 390.566803 7
-0.27166876464032885 0.61299037071634577 2.2952403868481266 160 171 184 340.402252 390.566803 7
-0.33230014808498787 0.69094191660113968 3.2152105245712601 87 98 98 340.402252 365.484528 7
0.75288677234680712 0.49092291003181487 2.1314625452069409 255 123 137 519.56134 379.817261 7
0.43632180643173823 0.44270786291944375 3.0091697484100877 191 198 255 437.148163 343.985443 7
-0.4714280114341598 -1.3186730512677982 2.2397641590581028 166 192 219 304.570435 68.080452 7
