ply
format ascii 1.0
comment Written with hapPLY (https://github.com/nmwsharp/happly)
element vertex 152
property double x
property double y
property double z
property uchar red
property uchar green
property uchar blue
property float ix
property float iy
property uchar octave
end_header
-1.5297577941768408 -0.83872781850537836 2.9961936120611901 255 224 229 187 181 0
-1.6119868930780807 -1.0401141949368646 3.1123267430848638 255 209 219 187 160 0
-1.7892215026210714 -0.33162236004162216 3.117645668455983 255 241 242 163 248 0
-1.5558548499543017 -1.5086105803952923 3.0343529102135931 255 176 195 187 97 0
-1.8177147675905796 -1.5644333423072716 3.1683325675838798 255 171 192 163 97 0
-1.6017086957471673 0.05362915469656003 3.0966668620793674 255 241 244 187 295 0
-1.3424083633158821 -1.1821137383079943 4.8874401755030181 255 226 228 279 193 0
-1.7294010854610691 -2.0356435001137529 3.0523634269317368 198 255 124 166 31 0
-1.7141645112569468 -0.029925576974939194 3.015758599117432 247 255 244 166 283 0
-1.5402584837865567 -0.75125585904501935 3.404016905916464 255 188 197 211 205 0
-0.068419697900760967 0.31690031002823205 0.77525281490839082 217 217 255 349 445 0
-0.06169355109367336 0.44220570714575647 0.78481688917253423 255 217 217 355 504 0
-1.3080597852100602 -1.9096388473129684 5.2750005838097591 210 227 255 289 151 0
-0.58358259187916883 0.37721087864765551 1.0386585906411148 216 212 255 169.200012 429.600006 1
-1.7941095923030459 -1.4834558773517694 3.1288489095011758 255 194 205 163.200012 105.600006 1
1.5042194634721393 -0.85726195662615079 2.7561061258530395 255 202 217 595.200012 169.200012 1
0.69815749852988263 -0.77914889836330625 3.8706462681330116 237 239 243 452.400024 211.200012 1
-1.5947579939035061 -0.2340751369702247 3.0274359604632721 244 245 255 181.200012 258 1
-1.6046213784564376 -0.32766945586410784 3.0934534567772078 244 255 239 186 247.200012 1
0.55559974231061626 0.48891434297217101 2.1094260781194594 255 111 123 487.200012 378 1
-0.53453961703804231 0.35017824436335654 0.63405844217744778 100 130 144 60.0000038 499.200012 1
-1.6387451725658333 -2.1590161114775666 3.1494873436376687 255 119 155 183.600006 25.2000008 1
-0.88730357979561525 0.35364649731962489 3.1778283869336383 158 255 177 278.400024 330 1
-0.049739091307355432 0.40319872965798492 2.9944379770803242 255 201 214 379.200012 339.600006 1
-0.054334445523191777 0.33153064563263163 2.7639151517028746 199 202 204 376.800018 331.200012 1
-1.3886587310066343 -1.9727536673578507 5.7935680485773098 255 196 213 291.600006 157.200012 1
-0.025717359131265827 -0.75827951545237726 5.5385700195587333 171 169 255 381.600006 235.200012 1
-1.5986188347195567 -1.6605933527729551 2.8885865985450083 255 148 175 171.600006 69.6000061 1
-0.06169355109367336 0.44220570714575647 0.78481688917253423 255 217 217 355.200012 504.000031 1
-0.62604723168469745 0.35869498435841074 1.2272681399663787 255 114 127 187.200012 402.000031 1
-1.2734123899321017 -1.7415154519948555 4.9295698319121994 226 255 224 286.800018 152.400009 1
-0.35052108345093425 0.42642516144963577 1.4445943826345204 126 132 255 289.440002 400.320007 2
0.5629044427584593 0.15934682070351705 4.2251832753320384 151 255 118 434.880005 300.960022 2
0.38041749375472744 0.44640447096175689 1.3598134882444888 148 167 255 489.600006 414.720032 2
-1.0819046785587192 -0.15644581786354761 3.0834850941220306 115 255 78 250.560013 267.839996 2
-1.5525894631545576 -1.0661081306125866 3.0329419471641321 255 206 217 187.200012 151.200012 2
-1.7265936413834999 -1.0656154129022286 3.0290232387283074 218 229 255 165.600006 152.639999 2
-1.5472441435353717 -1.2938879169891395 3.0158063893018827 202 221 255 185.76001 123.840004 2
-1.7712200413015733 -1.3250301054970244 3.0973673251886922 218 227 255 165.600006 123.840004 2
-1.5835321838109198 -1.0201586994664718 3.05844859866817 218 230 255 185.76001 159.840012 2
-1.7817832047102415 -0.94364414979098621 3.10268626952272 234 255 220 162.720001 171.360001 2
0.11962153637889994 0.48037282436909501 0.77043370419800516 255 63 74 443.52002 529.920044 2
0.55258936695446104 0.47669138600615973 2.0248132107593761 140 255 112 486.720032 378.720001 2
-1.8094421194181587 -0.48442483893906008 3.1484601669810979 239 241 244 164.160004 228.960007 2
-1.5368949167225723 0.29435480399974012 2.7084808150807214 228 221 210 168.480011 331.200012 2
0.58235420389026926 0.36296240930503698 3.9217299224138822 153 255 141 442.080017 324 2
0.093878903523448409 0.48241420879946184 2.4474105106022592 224 255 228 398.880005 364.320007 2
-1.6901370566030698 -0.069686224480395853 3.1957129701773463 245 247 255 181.440002 279.360016 2
-1.0018982443243938 -1.4283951617791621 5.0560865834860982 233 255 209 306.720001 178.560013 2
-1.7180550510428234 -1.7638216070033237 3.0805439348118888 176 208 255 169.920013 69.1200027 2
-1.655277780458849 -2.0301596971961047 2.9865999717576317 255 124 157 171.360001 27.3600006 2
1.4825611625768831 -0.84022783012182056 2.6750383494229957 231 255 202 594.720032 169.920013 2
-0.47548817474847538 0.30861609218874514 0.51605583207508143 165 255 151 30.2400017 516.960022 2
-0.52930297060452158 0.4637928204704253 1.3958021459986072 255 100 128 239.040009 417.600006 2
-0.85029335910832593 0.28651393859430396 0.95471046866899667 95 93 255 41.7600021 403.200012 2
0.39704139178346631 -0.56305764194943886 4.9406368009696351 159 255 84 414.720032 245.376022 3
0.16401508747205829 -0.70567017559717471 4.8511525046198285 255 142 154 395.712036 231.552017 3
-1.6920387089944215 0.39354589240271731 3.3201286643197179 216 255 212 186.624023 331.776031 3
-1.4889279041430563 0.32429852513770691 2.6829781410953184 255 229 215 167.616013 331.776031 3
-0.049814461515141684 0.33426160460637022 2.8425974844787301 158 166 173 376.704041 330.048035 3
-2.1950158919254781 0.58374094071937443 3.321129387138968 255 83 113 131.328018 357.696045 3
0.019801816017964047 0.45439712878351796 1.8011642615066132 255 157 166 387.072021 385.344025 3
-1.5106873480592835 0.1282914318585977 3.7778071140104554 108 124 142 228.096024 300.672028 3
-1.4857171536488933 -0.19411647434868917 3.0551204301690058 255 244 245 195.264023 264.384033 3
-0.83812240013696959 -0.5279299379424629 2.9934393125711258 230 230 255 273.024017 221.184021 3
-1.0947230778211732 -0.67139245230737776 3.0902625760195845 91 111 136 248.832031 205.632019 3
-0.030033752318354701 -0.75069492541718685 5.4375288991039232 171 169 255 381.888031 235.008026 3
-1.7761364536022515 -1.0305601310688535 3.0948353666533666 210 219 231 164.160019 158.976013 3
-1.6059311807382457 -0.32861614194732025 3.0917991602315809 239 241 244 184.896011 247.104019 3
-1.4249270633100801 -2.0008429879055036 5.6165392893371369 226 255 224 286.848022 152.064011 3
-1.0931696129954145 -2.0451093080320595 5.882212505565974 192 210 227 312.768036 153.792007 3
1.1801801018499061 -0.86258236690322132 2.7659368749081183 224 233 255 549.504028 167.616013 3
0.41706471973094028 0.49292755642125219 0.86249408857447851 222 223 221 568.512024 508.032043 3
-1.4549383075477502 0.42617997349269576 2.2748100599775194 96 111 255 141.004822 360.806458 4
0.44921580693017504 -0.48399944321919874 3.7675759711109453 255 215 232 427.161652 238.464035 4
0.18933490770058059 -0.64217970938063029 4.5149799000456703 140 156 176 396.057648 232.243225 4
0.039196425945984936 0.47899496747525899 2.5344123601127895 230 228 255 393.98407 362.880066 4
-1.4570785967731235 0.13646314664326165 3.6605865075252142 106 124 143 232.243225 302.745636 4
-1.2395894110126577 -1.6318386684982791 5.7985440295304942 209 221 233 304.819244 178.32962 4
-1.7092428575507892 -1.7730348837490062 3.0788908579718077 206 255 146 170.035217 66.3552094 4
-1.0544288663775325 -1.9439141677618423 5.6502822361861416 255 194 212 311.040039 155.52002 4
-0.20334911611454598 0.45201743543885292 0.81270066440790711 207 255 212 290.304047 497.664062 4
-1.7009855372234277 -0.31452209766679251 3.0269656489751924 243 245 255 165.888031 250.90564 4
-1.6138135212161848 -0.86461260996091893 3.1093326841721129 236 255 223 186.624023 180.403229 4
-0.39916999046224344 -0.069583285830416008 6.4747235369728147 94 115 136 360.806458 282.009644 4
-0.55592626474014706 0.42346623055812893 0.66175846400784955 63 94 98 60.134407 534.988892 4
-0.058059324002885493 0.43236962235546661 0.76651399399697562 216 255 216 354.585663 503.884857 4
-0.86299159881242637 -0.40587499317415682 3.0960027454131205 255 226 227 275.788849 238.464035 4
-1.7600416382743251 -0.48511109062991853 4.0350119672402824 255 121 134 215.654434 240.537628 4
0.39272355728083275 0.47123049225464686 1.4427270816229139 255 128 142 487.296082 412.646454 4
0.11860716936764204 0.47541765474479636 0.75388627527558416 255 57 70 443.750458 530.841675 4
-1.7270647886079611 0.3214700480442077 3.0116316633606419 217 215 255 161.740829 325.555237 4
0.042456975547125797 0.44353607600434197 2.4719759343516596 228 225 255 393.154602 360.806458 5
15.674185323740105 -18.952520046606189 33.608303271386077 208 255 136 562.360413 72.161293 5
-1.4104709303919321 -1.9625695795228975 5.5601221026503822 226 255 223 286.15683 154.275864 5
-1.4356128532436885 -0.18691746337243864 2.9799509446055596 243 244 245 196.577301 261.273651 5
-1.7378038735967243 -1.7149238823302513 3.0557391431174352 208 255 152 166.717468 72.161293 5
-1.694098464478937 -1.7578223283318348 3.0523688160006737 255 148 175 171.694107 67.1846466 5
-1.0544288663775325 -1.9439141677618423 5.6502822361861416 255 195 212 311.040039 156.764175 5
1.624958893998669 -0.73047963142299455 2.8155296397915657 255 228 233 607.150146 189.11235 5
0.50638579957907703 -0.27780470915776445 0.93220203562379922 231 255 202 594.708557 169.20578 5
-0.99985402231229781 -0.59681568433713272 3.435876652734617 230 230 255 273.71524 218.972198 5
-0.061336343837189 0.43363541234308056 0.77915955069819742 255 221 221 355.829803 500.152405 5
0.0740529848247371 0.48627634194886471 0.9565678161098945 113 136 255 413.061188 487.710785 5
0.39117506365689791 0.46173275175428402 0.80361681261333806 255 220 221 567.337036 505.129028 5
0.38386371337705016 0.48135734544222192 1.3433845880634254 211 208 255 497.664062 423.014465 5
-1.1244216162668192 -0.16437703271870002 3.1820059049820899 73 91 111 248.832031 266.250275 5
-0.84884884048374332 -0.39251084342125581 3.0454198468538087 226 227 228 276.203552 238.878754 5
-1.4082783314938525 -0.43900253827539881 3.282646342921379 116 130 151 216.483871 238.878754 5
0.38518607851664666 0.47439274935506648 1.5054113987501219 255 132 144 487.710785 410.572845 5
0.4538240714341959 0.39331198252913935 1.6807414515934109 158 170 255 485.222473 375.736359 5
0.41420440152851923 -0.46652774203631686 3.4208178118749961 255 198 227 427.991089 236.390427 5
-0.37345628284953958 0.43736623160776383 1.5084128423469272 97 128 137 288.645172 398.131256 5
-2.4066603748541797 0.3406401797507419 4.1270608266290782 203 201 255 161.740829 323.481659 5
-1.4973308459776131 0.20372947804002378 3.0340736797323662 128 255 204 194.088989 311.040039 5
-0.60856717106119795 -0.86957529960400592 2.9899627731948075 255 210 222 303.575073 179.159058 5
-1.3617106402370913 0.13842284195622412 3.4134330796835819 137 255 108 226.93483 304.570435 6
-1.5988103449454112 -1.0556374884918456 3.0595682244257345 230 255 207 182.145065 155.271194 6
-1.7601383193368649 -1.0908043599912298 3.0963323070012865 255 208 218 167.215134 152.285217 6
-0.83710212080614887 -0.53004660232439804 2.9817529093148223 255 229 231 271.724609 220.96286 6
-0.96034353255017457 -0.44271651073843765 2.8133806587808019 117 135 255 253.808685 220.96286 6
-1.0508754209596782 -0.95133364665772613 3.8555988496177385 227 255 225 274.710571 188.117035 6
-0.50855961170749686 0.3382269901081506 0.60544378726051029 255 101 131 59.7196922 498.659424 6
-0.032487350075258492 0.40378021719937751 1.231355404883016 218 197 255 373.248077 415.051849 6
0.36286795087384616 0.4312300039601169 1.3441142561617987 255 126 139 483.729492 412.065857 6
-0.72096518480040195 0.33386455030825057 0.98382292193335075 112 137 144 104.50946 415.051849 6
0.47867093002865768 -0.57266258820581295 4.3705078255518783 192 212 218 424.009796 238.878769 6
-0.46007310255784395 0.49461793421310385 1.7593425470453945 255 93 126 283.668549 400.121918 6
-0.78850796592391736 0.33667819915236086 1.2480177554784122 30 255 46 146.313248 391.163971 6
-1.5670757008815301 0.33695304649186608 3.0678787459132209 215 217 255 185.131042 331.444275 6
-1.5401671035620019 0.32965489090495953 2.769588864753719 166 182 255 173.187103 334.430267 6
-0.92068139189644738 -1.340596019795258 4.6793461533688099 210 222 233 304.570435 179.159073 6
-1.6482710062920951 -0.22740389074916945 3.3412211239007634 245 245 255 197.074982 261.572266 7
-1.6993670412188999 -0.47348845574978027 3.9096889684499745 155 255 128 214.990891 240.073166 7
-1.7236609298119232 -0.31727668949817606 3.0938433985335534 255 242 243 171.992722 250.822708 7
-0.069443977693517622 0.44154889457733237 0.8056167250656785 220 255 222 354.734985 498.062256 7
-0.14622768385779072 0.32437110305070033 0.67614485925995771 221 219 255 297.404083 472.97998 7
-1.2419035437058099 -1.1147976233538213 4.428022867790709 255 225 227 275.904999 189.90863 7
-0.24021400804404403 0.027978600847228585 4.1177288616323802 136 255 95 358.318176 286.654541 7
-0.028529509994309699 -0.47611195670902329 4.3918524707882503 158 171 173 376.23407 243.656357 7
0.38885926341908172 0.4637980280839491 0.8429522559393734 220 255 222 562.559509 505.228607 7
0.50598603263153319 -0.62918403302636594 4.8036197453939646 207 255 164 422.81543 240.073166 7
-0.99421898472021386 -0.15880278589161384 2.8207973623128391 255 71 86 247.239532 261.572266 7
-0.90169527671205252 -0.38241871414370243 3.1514444113403628 225 227 227 272.321808 240.073166 7
-0.54605877081758747 0.39687024837165408 1.1301490770286053 139 155 255 193.491806 422.81543 7
0.80527894615512929 -0.41533813196701391 3.2747544824205868 242 243 246 476.563141 240.073166 7
-0.8514259220440179 0.3448574551054423 1.1419028210869397 162 160 255 93.1627197 404.899536 7
-0.056164205494060537 0.33819627678398984 3.0787148014818881 255 191 204 379.817261 336.819061 7
-2.1446176224293074 0.18606629851245626 3.4885455927474842 247 255 239 150.493622 300.987244 7
1.0592235110252501 -0.7467385558616213 2.9145811822264114 255 222 229 523.144531 186.325439 7
0.43594530417787536 -0.52311654558666087 3.3445448033649505 236 242 255 429.981781 225.740448 7
-1.2345489538203394 -2.131069438974047 6.3441596278342427 255 196 213 311.736786 157.659988 7
