ply
format ascii 1.0
comment Written with hapPLY (https://github.com/nmwsharp/happly)
element vertex 132
property double x
property double y
property double z
property uchar red
property uchar green
property uchar blue
property float ix
property float iy
property uchar octave
end_header
1.0634789227326891 -0.22105246392744143 1.3395311773434297 132 160 184 688 226 0
0.56795899010660289 0.033272005859608822 2.3860148002283568 249 251 255 477 292 0
0.8233789259245532 0.63594526200771373 1.8908942061856377 140 157 255 553 418 0
0.46684471036619479 -0.39606237313757098 2.5305961370949488 222 255 180 454 229 0
1.0484439963562227 -0.064140075285522735 1.3355615876287494 146 184 255 685 271 0
0.98840033322938248 0.34402329569391205 1.3663572789668903 255 91 101 663.600037 385.200012 1
1.20164884500447 -0.35548573503232661 1.3526171420722939 255 235 238 723.600037 187.200012 1
0.76599211930822664 0.48967253671309247 1.8279481505427855 255 112 123 543.600037 388.800018 1
-0.28838952632118975 0.64463573016938247 0.98467939476108413 63 76 255 273.600006 537.600037 1
-0.29932321888900981 0.05900907828763613 2.122157520810835 255 224 227 327.600006 297.600006 1
1.032412352635192 0.51053187652188348 1.2642809059805726 141 171 255 697.200012 442.800018 1
0.47514691229780426 -0.35336935416554116 1.9061836535664227 243 246 255 477.600006 217.200012 1
1.1152188284347218 0.051383615627939194 1.2987355747084708 127 155 175 716.400024 303.600006 1
0.44934974555530038 -0.042567633924250836 2.1963440195165811 247 248 249 460.800018 279.360016 2
0.69646768386548241 -0.0038613679675995605 1.9387624039440379 251 255 249 522.720032 286.559998 2
0.28152325933647093 0.6310922001831889 1.7795993231774245 255 97 134 447.840027 423.360016 2
-0.445438766561149 -1.1904350825408025 2.2524301975856185 196 221 255 305.279999 84.9600067 2
-0.1287293944013288 0.61873600677893248 2.4504409747982612 132 151 255 365.76001 384.480011 2
-0.13519062091270229 -0.030678733498347155 0.88091052175036388 250 255 247 326.880005 273.600006 2
1.0728824556502818 -0.076913156054739695 1.3358172473790528 255 117 151 691.200012 267.839996 2
0.59841047635775846 -0.18767584952490568 2.515977296094146 255 247 247 475.200012 259.200012 2
-0.061505421658205828 0.66604792060656348 1.1641994055203035 102 121 255 361.440002 508.320007 2
-0.38992986955684472 0.48196096559327462 1.8389353137252415 126 154 175 300.672028 388.800049 3
1.061194150073786 0.30198339030689259 1.3647826917007411 141 156 179 680.832092 373.248047 3
0.63233174299558037 -0.47875059721288493 2.6335175229962466 255 241 243 475.200043 217.728027 3
-0.12879869314203107 0.48534696351475071 0.79115189766585647 255 132 152 319.680023 521.856079 3
0.55699908289328159 0.0029422165444079051 2.5463045291539315 249 250 251 468.288055 286.848022 3
-0.28821251105757772 0.642463897508045 0.97982128956214165 255 60 73 271.296021 537.408081 3
-0.23889248536979224 -0.33124176791835591 1.6873310909438093 244 255 233 326.592041 212.544022 3
0.84379145203976602 0.65180919061470355 1.9486824558639801 255 94 108 551.232056 416.448029 3
1.2346470258190538 0.93239565629723242 3.261538396948457 255 122 135 527.040039 400.896027 3
-0.4093370383597037 -1.7598400501032501 2.6733369959157525 170 191 216 324.864044 32.8320045 3
0.53429403893685778 -0.44193748594267368 2.7914013334044023 221 255 179 454.46405 228.096024 3
0.92524696440836818 0.58189428116060815 1.6838017593229528 77 87 108 592.704041 419.904053 3
0.26522235319070653 0.69918635504735449 1.3186340496057314 255 117 130 463.104034 492.480042 3
0.84834119352961479 0.41347404394534398 2.2169308830762189 164 181 255 533.952026 359.424042 3
1.0535516007553134 0.59350017406763289 1.2115512980962135 255 118 135 715.39209 474.854462 4
0.97323819584412374 0.60864493543191345 1.7895903817773018 71 93 255 593.049683 420.940857 4
0.4369171744808189 0.40668526031121066 2.6703792813824432 255 97 156 447.897675 342.144043 4
0.81253250561783119 0.68694961643167929 2.1926636818394201 122 133 151 528.768066 408.499268 4
0.56910278544962889 -0.45553250987725014 2.4082589806115413 245 255 240 474.854462 213.580826 4
0.6275250384687352 -0.55880505386460566 2.4250997924655264 255 233 237 483.148865 199.065628 4
0.52465999965782761 -0.43960103328301559 2.7471892702474836 221 255 179 454.118469 228.096039 4
-0.25532456428852202 0.67157029010951197 1.2624473153382922 164 255 117 302.745636 493.516876 4
0.36413505757463116 0.69458712749305551 1.847253528072426 156 255 125 462.412872 433.382446 4
0.27415863730321055 0.62620586927991839 1.7819861597823641 120 145 255 445.824066 423.014465 4
0.79710018157932527 0.39144266577240538 2.0609051243494152 141 156 174 532.915283 360.806458 4
0.36649081406618178 0.18684139404832456 3.7270906698316297 106 145 170 420.940857 308.966431 4
1.0560791902489246 -0.20929952632275461 1.3362241884650983 184 255 130 686.361694 228.096039 4
0.81092286948712977 -0.53256326424765965 2.0970254755686115 241 255 228 534.988892 190.771225 4
-0.36847135290468236 0.60758232809589707 1.0817039077676203 197 255 201 250.90564 505.958466 4
-0.48164023051232796 0.062886809902632512 2.2864273976978042 188 255 149 302.745636 298.59845 4
1.0159990348979162 0.38810874934971629 1.5210604192238968 136 149 170 644.889709 387.763245 4
1.0603092409369737 0.39784211498297917 1.3312161913932936 138 155 182 692.58252 404.352051 4
0.41673107864208836 0.65427637755257195 1.3468600149049141 149 255 114 502.640717 475.269196 5
0.34433818447496001 0.63117101864427305 1.2662461995181236 153 255 117 490.199097 482.734161 5
-0.37402051799422242 -0.8787570093860908 2.6139179945861235 235 255 205 330.946594 156.764175 5
-0.31483048818221393 -0.58471292249887286 1.5873880718298699 232 255 197 306.063416 146.810898 5
1.0429637258715225 -0.34375010560312669 1.5305867794791856 147 183 255 649.451599 201.553955 5
-0.24039513050234351 0.66600919235724043 1.7850144059638824 172 255 133 330.946594 430.479431 5
0.32924653786970626 0.16105680851251442 3.1602069310514311 255 83 132 423.014465 306.063416 5
0.19928991380924321 0.10657525376428539 4.2925978273828616 130 152 172 400.619568 293.621796 5
0.20039178897907184 0.66909137310031763 1.649406503377933 255 150 158 435.456055 442.921021 5
1.0211931276732549 0.57022307570591446 1.1638773498590878 117 133 162 716.63623 472.780853 5
0.40887496103468512 0.65899262123636593 1.4980874188064259 180 255 176 490.199097 455.36261 5
1.2175047517062518 -0.38301452759463872 1.4222753579221346 242 255 234 714.147949 184.135712 5
1.127930943419978 -0.38142746920930204 1.4018009200043329 233 236 241 696.729675 184.135712 5
0.80357995636564361 -0.53190703032599151 2.1196997428465352 241 255 227 534.988892 191.600662 5
1.1154005536115601 -0.50653410224290507 1.3996057258398062 237 255 226 686.776428 146.810898 5
1.1318840095057596 -0.4670306621211654 1.4616468468908357 234 239 255 681.799805 159.252502 5
-0.070960193531450777 0.69576414396180053 1.2251222843743292 95 116 136 360.806458 507.61734 5
-0.10340556728321459 0.50104159131538939 1.9546741721754568 255 123 138 363.294769 388.177979 5
0.16647329301532809 0.57265030271570883 1.2227103324405562 255 132 145 435.456055 467.80423 5
0.81204121666271689 0.62389501621220922 1.9043618892609295 103 118 136 552.407104 415.5495 5
0.52420834689818796 0.73962545638333221 1.5280940841399442 120 137 255 517.570618 475.269196 5
-0.48490145014875186 -1.331731746352119 2.5617430956555092 170 195 221 308.551727 84.60289 5
19.297108382073564 -31.537252137481936 59.276012573104126 223 255 180 510.105682 84.60289 5
1.0575558244181089 -0.3274117521276918 1.4108621895427662 255 138 172 671.846497 200.060959 6
0.98699331136427881 -0.32431217321192762 1.4390269436578675 255 120 154 647.958679 200.060959 6
0.24849253104216129 0.66414494954784753 1.2497079331642693 255 88 99 459.841614 492.687439 6
0.17049017387922216 0.68257969336946422 1.4035981228886607 133 145 164 432.967773 477.757538 6
0.92962384654332597 0.45449225510687041 1.2181191206028421 255 140 156 671.846497 429.981781 6
0.95674149162774991 0.4679447945799472 1.307838983403748 255 217 220 659.902588 421.023834 6
0.98444816528245394 0.39266852597271468 1.619871937886213 135 255 83 618.098816 382.206024 6
0.94773156014386983 -0.2440007123288751 1.6587148081598118 246 247 248 600.182922 229.920807 6
0.8069011992905093 -0.54260565703062813 2.1411721057220729 241 255 227 534.491211 191.103012 6
-0.20608094707759284 0.67652535012858694 1.1728123076931993 137 161 186 316.514374 513.589355 6
1.0878510592897896 0.30624320667045035 1.4204636124468362 134 156 182 680.804504 370.262085 6
0.48360424960215753 0.68158812789200418 1.4031544868319781 112 124 143 516.575317 477.757538 6
0.3986852254448765 0.64491263757814821 1.4701214557380284 180 187 255 489.701477 456.855652 6
0.17801840433106086 0.09535228596785833 4.7172253155204302 144 165 183 400.121918 295.612457 6
-0.31155829325292572 0.65489228754055839 1.1437246714085916 131 156 255 277.696564 510.603363 6
-0.15750115752634519 0.62019721438196318 2.3224718582244286 139 156 255 361.304138 388.177979 6
0.79154840542324023 0.48511419136561484 2.5815610578640014 162 177 255 501.645416 364.290131 6
16.619148769949732 -26.839645741347663 48.150711467124815 255 163 191 519.56134 74.6496124 6
-0.039363814938192299 0.10999464570752238 1.4096502842838241 117 159 181 372.650879 322.486359 7
1.026464758594114 0.60452340207032762 1.4660585128985923 255 131 145 655.722229 447.897705 7
0.50448271919386278 0.64177702197803288 1.8715499741483406 255 151 167 487.312714 419.232239 7
0.40024499602181018 0.64597348546980093 1.8414975434170149 165 188 255 465.813599 422.81543 7
1.0210690660239359 -0.36773196023984189 1.2483377219921579 255 230 234 691.554077 175.575897 7
0.95132013755379452 -0.31518137670535329 1.2223825834443893 232 236 242 680.804504 186.325439 7
-0.3111375650027024 0.63497691990360206 1.1052187639798801 255 105 115 279.488159 505.228607 7
1.1420260107807352 -0.48445561752465316 1.4708639408973854 229 233 239 680.804504 161.243179 7
-0.076417513599688069 0.67659254931039636 1.1903185617097858 154 255 110 354.734985 505.228607 7
0.41166120221706115 0.66755375270072304 2.9115294561367353 22 95 127 440.731354 376.23407 7
0.97396605262194857 -0.45693830518446776 1.7818626926701517 255 222 232 591.224976 189.90863 7
0.56228554485258875 -0.4589584629867085 2.3732769915271943 239 242 245 472.97998 211.407715 7
0.87112605699602974 -0.56565004982449585 2.246540601214206 241 255 226 530.310852 193.491806 7
0.62218318446433285 -0.54361447112032568 2.4138934472894586 255 233 237 483.729523 200.658173 7
1.016106593918882 0.39686700808661501 1.6836267069712356 85 95 110 616.307251 379.817261 7
0.86828942769372675 0.43898717285880762 2.0380587492792337 96 107 123 548.226807 372.650879 7
0.18858541787316407 0.52405797579149582 1.5441476517796646 109 139 255 437.148163 419.232239 7
0.46526530668560739 0.65827687915081712 1.3399944150889045 255 112 125 515.978149 480.146332 7
0.57500932824438866 0.63600501430509715 2.6439485381211547 234 233 255 469.39679 379.817261 7
0.25457870943794303 0.71596597473077894 1.3540624070309439 82 255 42 458.647247 494.479065 7
0.15272750586971706 0.6104844644123224 1.2055186659962418 123 139 255 433.564972 480.146332 7
0.1000762974009648 0.59233043363972193 1.1154910252723775 255 47 53 419.232239 487.312714 7
1.1047554128100732 0.67741283895459736 1.7795771326588019 255 97 110 627.056763 437.148163 7
0.92997400140038877 0.57972251105504646 1.6886886745556708 255 62 71 591.224976 419.232239 7
0.79651128177366881 0.60511821863500348 1.8335608265767895 79 93 109 548.226807 412.065887 7
-0.28248531699141743 0.63563326508859552 2.6792854237181309 255 204 203 343.985443 376.23407 7
0.54283460901307046 0.68940633090646863 1.5855501916942174 255 120 133 515.978149 455.064056 7
0.37774527863156027 0.62261888041086122 1.3995173033380395 255 171 177 487.312714 455.064056 7
0.73552269563733308 0.61402115746196495 1.9249796605691776 160 255 120 530.310852 408.482697 7
1.0398120287981449 -0.20567933661907978 1.3098793964214774 255 131 160 687.970886 229.323624 7
1.0658409617108391 0.61950918558545476 1.400094043605927 158 177 255 677.221313 458.647247 7
1.0341862172032452 0.38398167748509721 1.2920220235425299 255 137 154 691.554077 404.899536 7
1.0514665007369992 0.51170609279137258 1.6101447030725868 149 179 255 637.806335 412.065887 7
0.7368181403969154 0.027032177018561254 2.093058870276745 255 221 227 519.56134 300.987244 7
0.85797320188138038 -0.27131752785634355 2.0954659185566982 245 248 255 541.060425 243.656357 7
0.55191742226930485 -0.45915913789823048 2.8550806080945179 255 200 210 455.064056 229.323624 7
-0.48466182929501311 -1.3357125913041763 2.5279569996039477 171 196 221 308.153625 85.9963608 7
