ply
format ascii 1.0
comment Written with hapPLY (https://github.com/nmwsharp/happly)
element vertex 203
property double x
property double y
property double z
property uchar red
property uchar green
property uchar blue
property float ix
property float iy
property uchar octave
end_header
-1.5203925549073625 -1.1107367994218502 2.3566387757344209 213 225 255 137 106 0
-1.4000646553027258 -1.4080474816175101 2.1545177115183414 202 255 131 134 37 0
-1.2186591688247459 -0.38743739400608701 2.7743031533993499 110 133 255 217 235 0
-1.1970342378532131 -1.4731930500659765 2.1713188213578896 107 135 171 172 28 0
-1.0698568725794613 0.004042626059262977 1.9604504962971259 255 132 146 175 289 0
-1.3120247027937357 0.28076568275512415 2.2617654928298494 255 181 182 159.600006 337.200012 1
-0.73149798999896598 -2.0116843074811777 5.039055768467934 255 181 203 327.600006 133.200012 1
-0.32298952413640203 0.51057825563238435 2.1908557328487057 234 236 236 328.800018 378 1
0.41995086643838042 0.48175548944197644 1.3546184031362465 153 175 255 501.600006 424.800018 1
-0.93511137597127547 -0.096040613563715405 1.7666008410593994 104 123 144 180 267.600006 1
-1.2127289175435139 -0.71375853944368917 2.0794097321222744 255 210 220 159.600006 156 1
-1.3115323567352717 0.20212039746571364 3.349141191123878 255 88 92 235.200012 309.600006 1
-0.49908464653451379 -0.64187135656542582 2.0192104664904846 219 233 255 289.200012 165.600006 1
-0.8078221241486494 -1.5736482420854663 4.9906857739817427 202 218 232 320.400024 166.800003 1
-0.076872671965881434 -0.020323432013072462 6.2957761520763409 255 99 120 379.200012 285.600006 1
-1.3394404049447024 -0.29185810242267463 2.3594705983736404 243 245 255 165.600006 241.200012 1
-1.3732340215871592 -1.3925507902035958 2.1264684232578501 255 131 163 135.600006 37.2000008 1
-1.1822054900803849 -1.014241838000475 2.1292246705167002 134 147 170 172.800003 105.600006 1
1.5451338961906225 -0.82876870330202879 1.7578355876691103 201 221 255 721.200012 105.600006 1
-1.3079607671095363 0.31433732818910876 1.9409831301100118 255 232 221 127.200005 350.400024 1
-1.2317601938702212 0.48801503293587645 1.7558033179052859 188 255 153 114.000008 393.600006 1
0.99449266527126789 0.55213635043365783 1.169016679074466 255 78 83 711.600037 469.200012 1
1.2810254004313126 0.49738312335465573 1.377908779808878 13 13 28 740.400024 427.200012 1
0.8499999333118301 0.17570510735219511 2.9584116059149137 153 172 255 493.200012 313.200012 1
-1.2057826713151676 -0.14893280611070647 2.1335771565325903 255 241 242 167.040009 259.200012 2
-1.4109210767368139 -0.88311188478741243 2.1710048052742925 210 218 229 132.480011 129.600006 2
1.008391527387305 0.56148799816049311 1.1891929372140346 255 78 83 711.360046 469.440033 2
-1.2857397216104309 0.32321966646260225 1.9097224897056031 204 255 229 126.720001 349.920013 2
-0.74345883437531768 -2.0366151819873926 5.1161925833069022 180 203 224 328.320007 132.480011 2
-1.0182957151090202 -1.9150815504385013 4.5758808572490226 174 200 223 296.640015 126.720001 2
1.3094168311759034 0.42943891560447406 1.4582710476531222 204 207 210 728.640015 398.880005 2
-1.2011725246993845 0.30282311832295039 2.2666769083945106 102 115 255 181.440002 336.960022 2
-1.3690653444358345 -0.0073310014053247219 2.188674118139371 245 245 247 144 288 2
-1.3314998986508271 0.026588624199582078 2.0724473960803951 255 243 245 135.360001 292.320007 2
0.8815660743587167 -0.48287539900316889 3.3164750354963299 239 242 245 488.160034 231.840012 2
-0.78973286457767689 -1.50306243880636 4.7118622141714415 218 232 255 321.120026 165.600006 2
-1.2172504937200053 -0.80268553004455179 2.2003828298861992 215 227 255 169.920013 146.880005 2
-1.1941848132150348 -0.87949307159104795 2.1646960648058018 139 151 170 172.800003 131.040009 2
-1.3796583403328015 0.20725495011505812 3.4995772556658924 106 255 67 234.720016 309.600006 2
1.0907991386162805 0.49304284100169032 2.6289553426545407 72 255 51 542.880005 360 2
-0.65152715629024804 -0.56016934505081917 2.1158545233520538 230 231 231 264.960022 187.200012 2
-1.1617374302241332 -0.69024821981479656 2.475309869280987 85 111 138 204.480011 182.880005 2
-0.81711672984813655 -0.10986965556727257 2.4406888302392487 189 190 255 257.76001 272.160004 2
-0.79303894645935191 -0.25941299410841556 1.77878933532133 255 84 106 211.680008 231.840012 2
-0.44604880146074155 -0.24260993822703836 2.0828806794159567 255 236 240 299.52002 243.360016 2
-1.3629082934628971 -0.55363192852022713 2.108094923757744 255 236 238 135.360001 187.200012 2
-1.1974203041751021 -0.26025403445888906 2.1114729154456633 255 240 242 167.040009 240.480011 2
-1.3920515816624714 -0.21704845092454284 2.1661933560758699 255 241 242 135.360001 247.680008 2
-1.2089901781107923 -1.482491317545956 2.1851338122397954 255 115 146 171.360001 27.3600006 2
-1.3663196766378589 -1.3810008317081333 2.1058190218238262 255 131 163 135.360001 37.4400024 2
-1.3476337165091916 -0.99909435134774061 2.0904801383578637 205 213 225 136.800003 105.120003 2
0.35168425388678326 -0.67710588499382385 4.5164922305705844 176 255 163 414.720032 228.960007 2
1.3088651604856618 0.513235559903646 1.4265922678019414 255 10 17 735.840027 429.120026 2
0.28360525457516861 0.37778624926728266 1.2813351863862841 176 181 189 468.000031 398.880005 2
1.0598070187406896 0.41434280284119179 2.5737050425913708 70 255 50 542.592041 350.784027 3
-1.1159647292194843 -0.52901898038552919 1.9979395107862095 148 159 173 172.800018 186.624023 3
-1.1504379834165634 -0.68603138423912502 2.0433328122505223 255 174 186 171.072021 158.976013 3
0.9079356375517974 -0.50531342268135726 3.4325443677558392 255 240 242 487.296051 231.552017 3
-0.71256845604091046 -1.4303654084461979 4.4207741219171126 255 202 218 319.680023 165.888016 3
-1.1262610366798329 0.35269172828352302 1.7280894773582016 210 255 202 134.784012 364.608032 3
-1.2058703744986863 0.32556365023775313 2.5273583918312097 67 83 97 200.448013 338.688019 3
0.53653669641184853 -0.44660157421839863 2.848595956378837 238 242 244 456.192047 229.82402 3
0.55916866691233502 -0.71973046283924713 4.4645102130425274 106 139 164 432.000031 226.368027 3
-1.1691366306535538 0.18477592384174357 2.9597070068188893 72 87 255 233.280029 309.312042 3
-0.8693523929799718 0.31113917510635847 1.7838546655765048 20 26 10 196.99202 357.696045 3
-0.96421990246509015 0.3579094742384008 1.7426991937072254 255 226 227 171.072021 369.792023 3
-0.48535440433155053 0.36221216100817399 2.3796197148125895 255 207 210 307.584015 347.328033 3
-1.5748276820202105 -0.16403119865397242 3.713655289609755 82 104 255 221.184021 273.024017 3
-1.2316835258184695 -0.40300416445531584 2.751194089917643 89 109 131 212.544022 233.280029 3
-0.34371061211324139 -0.18248384412344071 1.537833227324878 239 245 255 297.216034 243.648026 3
-1.3445191227387028 -0.55122961775023627 2.0731361742432846 236 237 240 136.512009 186.624023 3
-1.2027624569026969 -0.15663760616886824 2.1251770374530179 245 246 255 165.888016 259.200012 3
-1.0170179884441843 -0.22277615667810324 1.7805570128731483 243 245 255 165.888016 240.192017 3
-1.192320569772392 -1.2402367013359816 2.1157801855301974 255 131 158 171.072021 63.9360046 3
-1.3851985841821768 -1.3985610035865834 2.1452821041390711 130 163 202 136.512009 36.288002 3
-1.1723431351973241 -0.77956494864929182 2.0929345831955097 214 225 255 169.344009 143.424011 3
-1.3912510598222716 -0.87406043222704544 2.1466213753755956 218 229 255 133.056015 129.600006 3
-1.1847511458687934 -1.0033834552750576 2.1088039416098954 255 160 172 171.072021 105.408012 3
-1.3601291758195266 -0.95091163940021328 2.1020210749582278 209 217 227 136.512009 112.320007 3
1.1370855050296129 -0.55902746535008618 2.8992643313384878 235 242 255 533.952026 217.728027 3
0.35740369542488248 -0.73134272143128087 4.747986966112447 175 255 163 414.720032 229.82402 3
1.4005726804385465 -0.83902102135877743 1.9238654805934794 255 188 204 663.552063 120.960014 3
-1.0743291389843765 0.46352426799734792 1.3716828085391559 111 255 61 82.9440079 418.176025 3
-0.46369133686340724 0.39950863869148923 1.8829311460689557 197 255 179 290.304016 369.792023 3
0.44733553134554183 0.5171233702263669 1.4760240595965888 255 132 145 499.392059 425.088043 3
1.2611781372914013 0.37842030623200268 1.5309490179724405 255 223 224 699.840088 381.888031 3
1.1479402830394738 0.24572571215641581 2.8340104517694353 255 103 115 543.283264 323.481659 4
0.92010514848945935 0.26371472322890643 2.280490346994664 145 175 255 537.0625 331.776062 4
-0.66447779303806298 -1.3591742907233786 4.1410927517572986 255 202 218 319.334442 165.888031 4
0.98249830745971778 -0.44202970484662019 3.4369296996752121 255 238 241 495.590485 236.390427 4
-0.44814126438036084 0.34344232872220759 2.2309538083053666 211 255 208 306.892853 348.364838 4
-0.50295991317030619 0.19608271908290598 2.2830523552410336 202 204 208 300.672028 325.555237 4
0.92035228970262328 0.47509120158428542 2.3576784408873621 209 255 209 530.841675 364.953644 4
0.85132916994809071 0.40731700842857582 3.051814582701259 138 157 255 489.369659 342.144043 4
-0.46076442634339765 0.39966772453974708 2.044432242215148 152 255 124 298.59845 362.880066 4
-1.0176003123264525 0.37958123456178883 1.8182611708766747 226 227 225 172.108826 369.100861 4
-0.88243840409442553 0.34460081048819635 1.7918271780116388 15 23 9 196.992035 358.732849 4
-0.71837975395559805 -0.91574120607847664 2.8997213398484742 232 255 204 286.15683 163.814423 4
-1.0877499895975999 -0.15433587979672525 1.9076104594585548 245 247 255 165.888031 261.273651 4
-1.1989622777795392 -0.25972141968461304 2.1110443619681321 243 245 255 165.888031 240.537628 4
-1.35647796032233 -0.26194071979396183 2.1052882041786298 241 243 245 136.85762 240.537628 4
-0.68812181935652061 -1.8835061697159308 4.7457422648370029 255 180 203 327.628845 132.710419 4
-1.0702851375781508 -1.948778954881969 4.730815310761348 176 201 223 296.524841 128.563217 4
-1.0361561121128804 -1.0840521112129462 1.8899618577679109 191 255 145 170.035217 64.2816086 4
-1.3533146129863316 -1.2369038197144713 2.1064042896297326 141 173 207 132.710419 62.2080078 4
-1.378628355083432 -0.78304131635483987 2.1221725550241635 230 255 211 134.784012 145.152023 4
-1.4173859210554389 -1.052164461654975 2.2199633786531741 205 213 225 136.85762 105.753616 4
1.103595298203091 -0.76533303765768246 3.2471936942618562 238 255 221 518.400085 194.918427 4
0.83912206289934632 -0.6054770724833074 3.3079408080681389 255 235 238 479.001678 219.801636 4
0.33718025967859 -0.65680667944203097 4.2874759143235677 176 255 162 414.720062 230.169632 4
1.4093380986008168 -0.64161075159603176 1.735630657214883 230 255 210 698.803284 145.152023 4
-1.2954260545126526 0.30260625120996776 2.44917841731242 85 100 111 180.403229 337.996857 4
-1.2253373095450355 0.29001061905734404 2.0769611180033896 140 157 255 157.593628 342.144043 4
0.62348236712727734 0.50342806362498971 1.0724529047487033 102 108 255 605.491272 464.48645 4
0.42122926884520906 0.48164398974679595 1.3808091738986512 143 164 255 497.664062 425.088074 4
1.2186098889546939 0.35585202964501256 1.7718748459900122 130 141 255 649.036865 364.953644 4
-0.94388019703449588 -1.7313996592453227 4.1379337343424982 223 255 176 294.451233 128.563217 4
0.18172819685686892 0.39649202315854348 1.6458055680588664 212 209 255 425.502777 375.736359 5
-0.68226449166782066 0.38184268407776056 1.8290458171758508 151 156 152 236.390427 370.759735 5
6.2233186229297832 0.48353343177342745 7.8743581906970448 135 255 125 686.776428 313.528351 5
-1.1210744432461119 0.18314805590342476 2.8176396118286444 73 85 255 233.902115 308.551727 5
-0.46332098385520926 0.3510094269626064 2.3480593984464724 204 208 211 308.551727 345.876526 5
-1.0953444752304398 0.38867829195320058 1.955458943746827 255 227 228 171.694107 368.271423 5
-1.704789919110604 0.57901156260099962 3.564657197133843 255 37 41 199.065628 355.829803 5
-0.31178948969366749 0.47583176378030728 2.1354979672624821 191 201 215 328.458282 373.248047 5
-0.4534880244311279 0.40190835518661527 2.0833226723750591 126 135 255 301.086761 363.294769 5
-0.34368981423676837 -0.024091579395325247 3.5782312484010168 158 255 120 350.85318 283.668518 5
-0.96426943754186878 -0.11221849353810687 1.8233872580064521 109 133 255 181.647385 263.761963 5
-1.3189097144328863 -0.75751247171615699 2.0348883968830176 230 255 211 134.369293 144.322586 5
-1.3719871200776628 -1.0198462976823062 2.1438340845544892 203 212 224 136.85762 104.509453 5
0.94952053090060229 -0.58977888333646156 2.9665044547783355 236 242 255 505.129028 211.507233 5
1.0842645169270897 -0.73803339163277004 3.0722615486344189 221 229 238 520.05896 194.088989 5
-1.1002087598593215 0.47050874001386678 1.4061853987960498 111 255 61 82.1145706 418.037811 5
-0.66168724047909055 -0.48478054162423956 2.1569445496612722 232 255 231 266.250275 199.065628 5
-0.70242427606372848 -0.88126210141459871 2.7761206838942396 232 255 206 286.15683 164.229141 5
-0.70826821167296306 -1.4063676247652019 4.3154439245888332 232 255 202 318.505005 164.229141 5
-1.780715701244068 0.46007066927125828 2.5754052239627709 196 255 233 114.462738 358.318115 5
0.53174459256818385 -0.60810671367117097 3.7772074380186389 106 139 164 432.967743 226.437149 5
0.35013851323287559 -0.68167607201838409 4.4814203814479807 255 159 171 415.5495 228.925476 5
-0.42540029575846194 0.38343375665302826 1.7499353270252844 255 195 199 291.133484 368.271423 5
-0.74679716953281172 -0.10523684827827395 2.241451055948541 183 183 185 256.296997 271.226929 5
-1.3983533713189082 -0.42203150137163914 3.1214106802156243 111 133 255 213.995544 233.902115 5
1.3293873685530788 0.4970137358842569 1.6952971463989561 152 146 255 689.264709 400.619568 5
-1.3273203961794091 0.30894845561617945 2.5173743017115928 106 120 255 181.647385 335.923248 5
-1.678183986616145 0.35737596190621357 2.634495764645453 157 159 164 136.85762 343.388214 5
1.0811283017764295 0.44864957623283386 2.6669281291583093 255 52 59 539.965515 350.85318 5
1.0942896880004174 -0.37402883532650544 2.6818348614328036 255 238 240 539.965515 236.390427 5
0.14601565603222855 0.19434346663493901 5.0061965677472768 255 105 125 395.642944 306.063416 5
-0.89743891352078853 0.42364453467435437 2.6863095658628851 200 255 193 258.785309 345.876526 5
1.0736464671190189 0.22014703120145832 2.6057159218810391 143 255 114 542.453857 320.993317 5
0.98293790869446984 0.50391791249919338 2.5760549806267257 209 213 214 528.519287 364.290131 6
-0.87488839297813392 0.491414229876321 2.6474204009209847 70 75 70 256.794678 364.290131 6
-0.32750277958715213 0.48975641607654846 2.2233384433281986 191 201 215 328.458313 373.248077 6
-0.90873643567529738 0.31384500091335621 1.8504987273492994 22 0 255 197.074982 352.346191 6
-0.36295768282743057 0.50403166036518199 1.5148262566705775 26 34 39 292.626495 421.023834 6
16.176555882048373 -18.996486007224529 33.138165742484148 255 141 175 567.337097 71.6636276 6
-1.3122837481679639 -0.97513088681630822 2.0609403983747896 211 224 255 137.355286 104.50946 6
1.8381717452339905 -0.1013642658727277 4.3207560349082899 122 149 172 552.407166 274.710571 6
0.52675264923154219 -0.68398733964253533 4.2151910621368129 160 183 255 429.981781 226.93483 6
-0.79810945923743937 -1.1027992309587205 5.0808443669627303 255 232 235 319.500336 203.046951 6
0.56855105515276505 -0.48192774029540009 3.0225625281732791 238 241 255 453.869659 229.920807 6
-0.47735602670483468 -0.33911214267657941 2.1343409190449814 243 255 228 298.59845 226.93483 6
-0.65217117310606065 -0.64748821053256977 2.1423173233582453 226 226 255 265.752625 170.201126 6
-1.105244735141615 -0.13007198349215843 2.1116007721286296 139 255 96 182.145065 265.752625 6
-1.3509120975298492 -0.22920959204899272 2.1157497342905671 242 245 255 137.355286 244.850739 6
0.14542829512528677 0.26064317804635401 5.4264205144071207 152 255 106 394.149963 307.556396 6
0.23349187166955221 0.32858962494494709 0.66354206889605605 145 141 126 516.575317 474.771545 6
0.81847040746182365 -0.58880959493220375 3.2297531279227103 238 243 255 477.757538 223.948837 6
0.70809858059784059 0.49838550841080781 1.3676056584602514 110 128 255 585.252991 429.981781 6
1.8482835247300387 -0.66108509896534517 4.899436994827072 255 238 241 531.505249 235.892776 6
0.87247306582763429 -0.55265447174116411 3.6401181752149592 246 255 243 474.771545 229.920807 6
-0.59410623049458477 -0.16678637733863 2.2774398828496785 255 163 168 283.668549 259.78067 6
-0.70398305229110836 -0.096379509941333485 2.1435223885976979 217 217 217 256.794678 268.738617 6
0.83800088758535107 0.72092254078459139 2.3247028612651199 255 193 195 519.56134 406.093903 6
-0.10609881712148539 0.49052500163356949 1.8106412673777763 236 236 255 361.304138 391.163971 6
-1.2267660928680679 0.44087574029553689 2.2345224108699759 230 255 230 170.201126 367.276093 6
-1.0586245823578002 -1.9118426095321084 4.690531438795329 255 176 201 295.612457 128.397339 6
-1.1417148760787779 0.17880327980460864 2.8438688166385315 86 109 255 229.323624 311.736786 7
0.25245589292092729 -0.53208711832568834 4.5588033372854015 13 19 255 401.316345 243.656357 7
-0.7699258943860503 -1.4656880411405449 4.4970368343211558 231 255 201 318.903168 161.243179 7
-0.72422777733069976 -1.9785058724766134 4.9580899624185992 225 255 182 326.069519 136.160904 7
1.4160290297822486 -0.67534994418164873 1.904099697594932 232 255 211 666.471802 150.493622 7
1.0932125046767793 0.2191888533074412 2.7171178104792526 118 138 255 541.060425 322.486359 7
-1.2506506723904249 -0.16270096156406877 2.3701164539774568 139 255 96 182.742264 265.155426 7
-1.4254436884089987 -0.45956665719511602 3.1889198725532326 255 82 104 211.407715 232.906799 7
-1.3403277357269063 -0.25185169763364978 2.1127419650389858 255 240 242 139.74408 243.656357 7
-0.47697283160381287 -0.47360233484905567 2.0711076242187629 233 240 255 297.404083 200.658173 7
-0.44760014376035429 0.40180846284056615 2.0490367274867531 139 153 173 300.987244 361.901337 7
-1.8460653931410409 0.48574420067609114 2.7639865408939075 235 217 191 128.994537 354.734985 7
-0.74006122000818486 -0.10717683732167904 2.2038616204893069 218 255 218 254.405899 268.738617 7
0.84399411413527947 -0.5256956139467952 3.4764039528920696 242 243 245 476.563141 229.323624 7
-1.8981654059870308 0.41115674584811812 4.4374382101513952 76 255 53 218.574081 322.486359 7
-1.1162055529131933 0.2597091988143051 2.0958644908274735 255 95 111 179.159088 333.235901 7
1.2749991218965642 0.4690576503297319 1.5856610200394923 255 161 161 687.970886 401.316345 7
0.29808224901978364 0.42419982547623175 1.3809609923301256 224 220 255 469.39679 404.899536 7
1.0108679054259393 0.40774640210028812 2.4237974669052065 49 61 255 537.477234 351.151794 7
-1.1620406670722696 0.38753261576752995 1.8372080500105401 255 196 202 143.327271 372.650879 7
-0.098264264135757617 0.46767560076508002 1.6937998538186747 236 236 255 361.901337 390.566803 7
-0.32922605835193752 0.43779987641947926 2.0489153330328715 212 255 200 326.069519 372.650879 7
-0.47813361322756043 0.2093800851940073 2.0996768869302254 167 177 255 297.404083 326.069519 7
0.54495354327615586 -0.70242887537658993 4.3700480575477583 160 182 255 429.981781 225.740448 7
-1.1985328972452871 -0.9794933588818644 2.0878927006607428 203 212 224 164.826355 107.495445 7
-1.5561878862806076 -1.1550257571156268 2.4319780183350757 207 214 226 136.160904 107.495445 7
