ply
format ascii 1.0
comment Written with hapPLY (https://github.com/nmwsharp/happly)
element vertex 137
property double x
property double y
property double z
property uchar red
property uchar green
property uchar blue
property float ix
property float iy
property uchar octave
end_header
0.4648615976932069 -0.39868463482852112 2.5739793809167555 169 192 206 452 229 0
0.82653856755174004 0.6387086641220121 1.9539495146277757 255 101 114 547 415 0
1.0482734528849167 -0.22059339206213691 1.3654135019894884 255 115 153 679 226 0
1.1024735219299067 0.049048538376686823 1.3300317557112642 255 129 162 703.200012 303.600006 1
0.46634051007582822 -0.35114886987614358 1.919703120784793 255 240 242 475.200012 218.400009 1
1.1861190560938539 -0.35290336147866874 1.3797869842249115 224 229 236 712.800049 189.600006 1
0.23940975314503188 0.6423734393172823 1.2404036709206769 255 20 27 459.600006 487.200012 1
-0.39273941553068559 0.47589096662837804 1.8796910905203799 255 171 184 303.840027 384.480011 2
0.44517052958333125 -0.045730315208903194 2.2285254686272573 255 244 246 459.360016 277.920013 2
0.69537159317540542 -0.0067154204399094697 1.9883787906657329 255 249 250 515.52002 286.559998 2
0.60081899862694965 -0.19263010469627212 2.583979817279344 255 247 248 475.200012 257.76001 2
1.0245678171029571 0.50607459168378832 1.3030363060707852 135 152 180 684 436.320007 2
1.1319583820674475 -0.47494651410938737 1.489117040717244 255 224 231 675.360046 165.600006 2
0.98065881233532692 0.34014746513516281 1.4040751069600912 124 144 255 653.76001 381.600006 2
0.84439256686568931 0.40981796347076649 2.258651900900488 134 155 255 529.920044 357.120026 2
0.25864007503571007 0.68994233572794683 1.3505002497409286 255 40 48 459.360016 486.720032 2
0.84520070759418053 0.65350457789349026 2.0075377196190836 255 101 115 547.200012 414.720032 2
-0.33762466037813299 0.68628706488476288 1.2800168523047635 255 122 138 283.680023 495.360016 2
1.0538441803717009 -0.22262987105027887 1.3728536447896786 183 255 108 678.240051 226.080002 2
0.49182762266611002 -0.40569116335817745 2.5812342969822835 219 226 233 456.480011 227.520004 2
0.62756626669084614 -0.47880999644319755 2.6434424219269195 243 246 255 473.76001 217.440002 2
0.88335361936841927 -0.57809235543209436 2.3774820316045693 227 234 241 528.768066 191.808014 3
0.27815304651336881 0.14867505077020909 4.2791657572630477 255 130 152 407.808044 300.672028 3
-0.3938910823589068 0.29066032592175484 1.6943807432642002 255 139 154 295.488037 354.240021 3
0.97631070092161087 0.63747483871892685 1.1041484671292201 3 4 19 720.57605 509.76004 3
1.1449635869573858 -0.35295615358583299 1.4223617970131937 123 157 189 696.384094 193.536011 3
0.36375984147327167 0.69766807326824487 1.9120459579489264 158 180 255 457.920044 428.544037 3
0.27660575146966027 0.63038469705370392 1.8563361398914617 140 255 38 442.368042 418.176025 3
-0.14914388573972159 -0.056280252315878965 0.89695358276026216 255 248 248 319.680023 264.384033 3
1.0140761145557313 0.36115783759074793 1.4777611384343521 116 126 144 648.000061 378.432037 3
-0.2602428934412675 0.66104359836725501 1.2882245079466621 127 148 173 304.128021 483.840057 3
-0.28796064114213182 0.62966989619816316 1.0094454062726621 100 106 255 273.024017 525.312073 3
-0.57079501027832169 0.27936512463395935 1.8398313887765534 148 255 158 266.11203 345.600037 3
0.79147247686784161 0.38696976624287727 2.0966070073228016 121 135 156 528.768066 357.696045 3
-0.48605950654806085 -1.3354511474402466 2.6082436690101991 222 255 170 314.496033 91.5840073 3
-0.47686368110248445 -1.8652799681605212 3.2126207857771769 221 255 182 330.048035 65.6640091 3
1.2492337719667055 0.94582055852723246 3.3613761305578729 255 139 150 523.584045 397.440033 3
-0.41423792513967905 -1.7770396078765383 2.7543691112407931 175 194 218 328.320038 38.0160027 3
1.0591037064064186 -0.077976348179645216 1.3643319699385765 94 146 182 680.832092 266.11203 3
0.54933522580075977 -0.44496715347847526 2.3494419137539504 243 245 255 473.472046 216.000015 3
0.5448501704338482 -0.46531333191321 2.9765919186956964 220 226 233 456.192047 228.096024 3
1.0525428310355744 0.29830144046594437 1.4015725774894205 146 159 182 672.192078 368.064026 3
0.74354928261364606 0.4348467594212958 2.4456086174215654 159 175 255 501.120056 352.512024 3
-0.074041821567644384 0.68800625741350718 1.2628179102886055 152 255 112 358.732849 497.664062 4
-0.25265435957640303 0.65326408646048861 1.2761354269932514 174 255 133 306.892853 485.222473 4
-0.24356995432330786 0.65709693229165878 1.8171519663137614 255 131 151 331.776062 427.161652 4
-0.44640625801904932 -1.2964091761900307 2.5068437658309621 197 222 255 313.113647 91.2384109 4
0.27321606497701811 0.62838707242385761 1.8461342995276704 108 137 255 441.676849 418.867249 4
-0.47938893347344624 0.059073352996960482 2.3049750380005447 188 255 155 302.745636 298.59845 4
-0.36814666102902383 0.59679295210166239 1.1136837165102715 159 152 255 257.126434 495.590485 4
-0.30124768902625609 -0.56195222027400893 1.5494779243048118 255 198 217 311.040039 149.299225 4
-0.10210154696980034 0.47202458224110949 1.8727833974063977 155 255 125 362.880066 381.54245 4
0.41203545149490273 0.64953912800137359 1.3884500971368174 130 152 255 497.664062 468.633667 4
0.34027515568097044 0.62592066639013844 1.3077780604044058 255 131 145 487.296082 474.854462 4
0.38792240395373589 0.62425827336241524 1.448028803098377 255 168 174 487.296082 452.044861 4
1.1291569175248144 -0.47012829097120457 1.5070830999361133 230 238 255 673.920105 165.888031 4
-0.24558291975092361 -0.43172882383866285 1.6808645468881274 255 230 235 327.628845 188.697632 4
1.0286213811943818 -0.34150363081299806 1.5546740886310628 139 166 193 640.742493 203.21283 4
1.1899774510828915 -0.35133210642209634 1.646481232075276 169 198 255 661.478516 205.286423 4
1.0419656290112762 -0.20902112306412224 1.3636390071534006 183 255 107 678.067322 230.169632 4
0.80873042880981205 -0.53615918977777854 2.1457032325134264 228 234 241 528.768066 190.771225 4
0.58690852659409787 -0.41074548343171013 2.5245240400244215 246 255 242 474.854462 226.02243 4
1.1135618124997739 -0.50393673741587686 1.4428499516682658 255 226 230 675.993713 151.372818 4
0.99182363986348954 0.62072878726994474 1.8888293161840179 58 255 22 586.828857 416.793671 4
1.0456471458923939 0.58952012088847938 1.2515045846795623 165 255 114 702.9505 466.560059 4
0.82392453296323964 0.65641826179356166 1.0994933468571579 0 13 255 673.920105 520.473694 4
0.27549956978872769 0.6685902150695715 1.07163672883165 78 81 255 485.222473 528.768066 4
1.0120612499513064 0.38509080238184734 1.5646522407619141 126 140 163 632.448059 383.616058 4
0.57678568457635748 0.63469091035483682 2.6970789819815995 231 230 229 468.633667 379.468842 4
1.0509715647026452 -0.32737812460014692 1.4467579690045733 170 198 255 661.893188 204.042267 5
-0.37679926030127264 -0.84615959858907952 2.5095003314986686 203 219 234 328.458282 154.275864 5
0.62518392701909731 -0.56208545542003618 2.4682160767252519 233 237 243 480.245819 201.553955 5
0.98090176436308329 0.38934808685490768 1.6637452823396979 125 255 93 614.615112 378.224701 5
0.97799950166341287 0.47139637827542058 1.399288537784698 255 224 225 651.939941 415.5495 5
0.51699488875422905 0.73214662986435874 1.5623740522536016 113 127 147 512.593994 467.80423 5
0.70794717785536831 0.63056923465399728 1.0141849262400093 66 255 28 646.963318 525.035583 5
0.93587143345778978 -0.24382135865939081 1.6843623568571333 247 248 255 597.196899 231.413788 5
0.79927838875979718 -0.53460747537707409 2.1562149286199865 241 255 227 530.012207 191.600662 5
0.19762236279905854 0.10515453187557788 4.3267739830387164 183 255 144 398.131256 293.621796 5
0.80600923483131215 0.61848167757691486 1.9403437175816309 99 112 129 544.942139 413.061188 5
1.1891530300592814 -0.37562903908471545 1.4296739257402349 231 235 240 704.194641 186.624023 5
19.356480974398934 -31.464398373469855 59.275124240754984 223 255 180 510.105682 84.60289 5
-0.083572770673233432 0.68996835556802494 1.2821450154644882 144 255 104 358.318146 498.659424 6
1.0219862021999351 0.5694737018947662 1.2162177652223471 122 139 168 704.692383 465.813599 6
0.84642715073054653 0.4951222489772974 2.8191227529268916 170 255 140 498.659424 361.304138 6
-0.36027728852982666 0.7162401126100536 3.8929260296011892 137 255 129 346.374207 358.318146 6
0.92057550651615938 0.44911449438373852 1.2542141174044588 176 255 127 662.88855 424.009796 6
0.96032354663014041 0.45056840487895478 1.3772632650450678 226 255 227 650.944641 415.051849 6
0.73248911723413457 0.61086835001326945 1.9723322839235999 148 167 255 525.533264 406.093903 6
0.5654674124864989 1.0105627226990685 2.8535035812353318 255 143 157 459.841614 429.981781 6
0.17599967382237125 0.50155563026511107 1.4983410613020158 30 112 142 432.967773 412.065857 6
0.2424555446588732 0.65296363026912108 1.2718075631029242 25 30 44 456.855652 486.715485 6
0.16353437476102894 0.66648084150239906 1.418510424546084 136 152 255 429.981781 468.799591 6
0.1911007645413545 0.64562935405418631 1.6087505809264906 144 156 176 432.967773 441.92572 6
1.0482922807715158 0.50954030593054922 1.6557310120125521 155 183 255 633.028748 406.093903 6
0.95525795310843864 -0.44805531323412673 1.769762885525453 222 232 240 588.238953 191.103012 6
0.56125926157137163 -0.46569132441118066 2.4418524102275949 255 240 242 471.785553 214.990891 6
0.86840564983872004 -0.56768694295515809 2.2884547229370416 227 234 241 528.519287 191.103012 6
0.48489692928818129 0.6847890338504774 1.470017154299514 148 255 118 510.603363 468.799591 6
1.0804235290023332 0.30272769190680215 1.4589400596872446 138 148 169 668.860535 367.276093 6
1.0900470515754803 0.66950387068443562 1.8053262788775672 143 255 92 618.098816 429.981781 6
0.91837380436827254 0.57694255637193348 1.7218433512458651 35 45 65 588.238953 415.051849 6
0.97198507344206153 -0.32223319091820624 1.4620605529117539 255 156 178 639.000671 203.046951 6
0.39094383769929508 0.63499579367791892 1.4916656824447569 193 255 177 486.715485 450.883667 6
0.78823132160126708 0.60002325708086801 1.8654163136693391 255 103 115 543.449219 412.065857 6
0.17666235856959212 0.091925232675855895 4.7758438675630011 170 189 255 397.135956 295.612457 6
-0.20697172350241422 0.66458229804144431 1.2021286021161499 255 137 156 319.500336 501.645416 6
-0.31206651823145615 0.64403674603521166 1.1757298513879029 120 135 158 280.682556 498.659424 6
18.773941257610517 -21.680467395741559 36.469455993974869 183 217 255 585.252991 65.691658 6
-0.52615515135563662 -1.3096251818014344 2.5222422262744608 221 255 173 310.542389 89.5795364 6
-0.045509842247597687 0.10405528973426442 1.4872707974326582 145 172 192 372.650879 318.903168 7
0.27442656677443056 0.63043614418770999 1.8821756126993279 110 140 255 433.564972 415.649078 7
1.2231040314065211 -0.39926194134224235 1.50883202209228 255 231 234 695.137207 186.325439 7
1.0543345794037313 -0.33117757283355276 1.4259716546472809 202 255 144 662.888611 200.658173 7
0.25075745012946049 0.71066990632928717 1.3959038484414474 255 13 16 455.064056 487.312714 7
0.14873264835804134 0.60456919034786272 1.2456642418839587 136 150 255 429.981781 469.39679 7
0.97728577166891484 0.59484969005471156 1.581728573395317 89 101 122 616.307251 429.981781 7
1.0128863082719335 0.39371451958643727 1.7281055407749761 102 112 255 609.140869 376.23407 7
0.579275310169169 -0.46848433558617431 2.5180873393627197 242 245 255 469.39679 211.407715 7
0.80452656856489457 -0.54563944927760999 2.18616248585157 241 255 227 526.727722 193.491806 7
0.62003329079741309 -0.54654906131318315 2.4598992615111239 233 237 243 480.146332 200.658173 7
1.0309549830039524 -0.49113645727322042 1.957862526567081 255 222 232 587.641785 189.90863 7
0.4655983534407977 0.65725810357220671 1.3971994387845621 113 127 147 512.394958 469.39679 7
1.0293070811067637 0.38113987942851624 1.3349869242612691 107 130 255 677.221313 390.566803 7
1.0640602114379929 0.27962434041329565 1.4514075210973152 186 255 148 666.471802 365.484528 7
0.47921144803973137 0.60296936614109442 1.378943528940531 111 124 141 512.394958 451.480896 7
0.37325611102485134 0.61698209068543863 1.4390072864492272 160 166 176 480.146332 447.897705 7
0.79372310525904832 0.61421403924348694 1.9315991464906412 117 129 255 541.060425 412.065887 7
0.5018485053269115 0.63569047230984532 1.9119072196183389 255 147 162 487.312714 415.649078 7
-0.30323952911940655 0.60902851956113768 1.0932862467159854 255 129 143 279.488159 501.645416 7
0.57068003871216799 0.63119168443458129 2.6795733965125912 222 219 255 465.813599 376.23407 7
0.83095355890334233 0.41314772304922037 1.9715924967135443 114 125 142 544.643616 369.067719 7
0.09585575413341374 0.58377591185979227 1.150015349308946 255 57 63 415.649078 480.146332 7
1.0111259232953009 -0.20464126393167198 1.3089514822730566 148 182 255 677.221313 229.323624 7
0.54482237923000842 -0.45213878711036748 2.8090099907134061 255 200 211 455.064056 229.323624 7
-0.48549126945253818 -1.3390302585775453 2.5729264291600433 174 197 222 308.153625 89.5795441 7
-0.50891033743855107 -1.3490087852651333 2.6034112377575704 177 199 222 300.987244 85.9963608 7
