ply
format ascii 1.0
comment Written with hapPLY (https://github.com/nmwsharp/happly)
element vertex 202
property double x
property double y
property double z
property uchar red
property uchar green
property uchar blue
property float ix
property float iy
property uchar octave
end_header
2.1851026061377619 -0.834163575938487 7.2098434155597655 245 255 239 502 244 0
-0.95694501717274605 -0.7771061963866055 1.263134029965471 90 255 42 94 52 0
-0.45364456096348382 -0.38594257219870876 1.1811537127671881 255 211 221 235 163 0
1.2747707342159711 -0.25544502746744924 1.9138198516089284 255 123 161 639 238 0
0.35565984567214803 0.34770752546041311 0.60931338319344031 155 165 255 609 508 0
-0.49985973023324037 0.080093967181238068 7.9411529525987206 115 135 255 361.200012 291.600006 1
1.3552465763958348 -0.06664305212619076 1.9409960799490173 255 114 143 651.600037 273.600006 1
0.49256628681991232 -0.52665538620907226 3.9728666057486652 173 255 129 430.800018 237.600006 1
-0.24781926909794993 0.36640456996113963 1.2342483328781002 255 112 129 307.200012 399.600006 1
-0.90851148809978044 -1.9241849213436577 3.9634474311703061 217 255 167 294 99.6000061 1
0.11023252509564441 -0.016160514710141682 5.6572151296302273 255 94 117 391.200012 289.200012 1
-0.94423467786507809 -0.60947879344114264 1.2341966204945587 255 43 67 91.2000046 97.2000046 1
1.1371125454482942 0.44575376004814549 1.9746273529397147 255 127 145 607.200012 375.600006 1
-0.96255424531232681 0.21998106311450111 2.0919282675366704 88 92 110 208.800003 327.600006 1
-0.99781741907971622 0.54365749629343751 1.629851996926134 255 76 81 147.600006 417.600006 1
-0.43683295427240942 -0.37256029340787744 1.1393443490975237 255 211 221 235.200012 163.200012 1
-0.51761507950385655 -0.51285827282704766 1.3457477136994598 255 199 212 235.200012 141.600006 1
-1.1707832624160153 -0.70504805450619723 1.2496748242155156 176 205 255 25.2000008 73.2000046 1
-1.2367156476221131 -0.51187981128570104 1.3415082626751111 255 180 186 27.6000004 141.600006 1
0.69780512124346972 -0.63784982382214594 3.455982508006838 242 255 233 462.000031 217.200012 1
-1.1010698594392423 0.45928094974611922 1.1642219153714519 140 255 109 22.8000011 439.200012 1
-0.5423438868637569 0.47864430292429577 0.98353819646711127 255 144 158 171.600006 475.200012 1
0.3587289557273583 0.35337379544516634 0.61546943881912775 142 149 161 608.400024 507.600006 1
-1.0013130400455745 -0.072646338437977437 1.2969248432814666 255 66 91 87.840004 266.400024 2
1.1119971273019362 -0.47279243359418044 2.7275121808070333 233 237 243 540 223.200012 2
0.32081508425187799 0.33540092039568714 4.3608706079166026 165 255 156 414.720032 315.360016 2
1.3948804250802298 -0.07119741013231945 2.0038658976004466 177 255 113 650.880005 273.600006 2
0.27100711166628222 0.4116131702682343 2.9974759539213807 156 166 163 416.160004 339.840027 2
-1.0179464639941918 -0.35600830924849924 1.3549491797333943 255 72 84 95.0400009 187.200012 2
-0.98321340673442492 -0.40951491092604442 1.2987260728720185 255 63 85 95.0400009 165.600006 2
-0.39089990825042564 0.41087189406956448 1.1745180966730375 124 134 150 256.320007 420.480011 2
1.0895447462898349 -0.70745007383783154 2.2057951591841833 228 236 255 573.119995 164.160004 2
-0.96612600194040699 0.15396557536660616 1.2707121664297794 255 43 62 95.0400009 334.080017 2
1.1414210532236906 0.4461143126037575 1.9909844492190345 171 255 128 606.240051 375.840027 2
-1.0465757383173817 0.23472291402181955 2.2994555394246863 255 86 89 207.360016 328.320007 2
-0.92542017354871531 0.47178218881187206 1.4639975728527692 255 182 183 139.680008 411.840027 2
-1.0236597968365273 -0.64518584856700012 1.2590237102871047 81 114 255 73.4400024 90.7200012 2
-0.96043691173610179 0.40244366033742118 1.3230815215214178 255 4 7 103.680008 406.080017 2
-0.93206865754211154 0.34009581404693234 1.2825793680278226 13 13 255 105.120003 387.360016 2
-0.52129433956056115 -0.086146834136813594 1.4748364326479146 255 96 106 247.680008 266.400024 2
-1.1577220689490817 -0.094850434242886694 1.2408281302637811 255 195 200 27.3600006 259.200012 2
-1.0409089113349665 -0.20880556773046599 1.3448051734415101 23 27 53 84.9600067 228.960007 2
-0.49889543646433321 -1.793480360130467 3.7912633791134835 160 189 217 332.640015 106.560005 2
-0.98516949114902763 -0.79718307422974655 1.2997227036865735 73 99 255 93.6000061 51.840004 2
-1.2047790800484313 -0.80475896220710075 1.3063377831966059 255 141 160 27.3600006 50.4000015 2
-0.9637140829631532 -0.49022783043967766 1.2786574386354332 255 48 72 95.0400009 141.12001 2
2.4356143526701488 -0.039872092741461085 2.693491640466581 64 142 176 732.960022 285.120026 2
0.76983719894163194 -0.67288172267769075 3.6575709337628952 255 234 237 463.680023 217.440002 2
-0.54833840847198489 0.4781270006688258 0.98755572818859694 255 144 158 171.360001 475.200012 2
0.43268089350419681 0.33621127733597744 0.63046206453805942 211 207 255 645.119995 492.480011 2
0.35547160811890488 0.34651775181866423 0.60606994151888882 155 165 255 609.119995 508.320007 2
0.17411074251779346 0.5190428396108433 1.0863793892827527 190 255 182 446.400024 470.880005 2
1.3452774402452303 -0.070795837441221199 1.9220168171895908 141 176 255 649.728088 273.024017 3
2.280952321072073 0.43173357523730832 2.526493202169096 151 255 28 730.944092 352.512024 3
0.018869430984989277 0.53368248098266258 1.1266362645995778 219 255 208 390.528046 473.472046 3
-0.55933901454355262 -1.3871959027592748 3.6507745562870468 129 255 90 326.592041 143.424011 3
1.1282806626983697 0.44344389835318043 1.9710219478010549 126 144 171 604.800049 374.976044 3
1.0995678446715247 0.37886165878104916 1.9936573821799293 125 142 170 596.160034 362.880035 3
2.5385044762907447 1.1252291642907437 5.5318743039871139 128 255 83 558.144043 362.880035 3
-0.92846047232936435 0.46475237380193113 1.457699200133328 255 195 195 139.968018 409.536041 3
-0.4038558364441176 -0.06656568576782762 1.1345048162733713 255 96 106 247.104019 266.11203 3
-1.1008142785680599 -0.15469110141476156 1.1963815620611573 106 121 141 32.8320045 238.46402 3
-0.54657929404482974 -0.53646205315122342 1.4161409185078444 213 227 255 233.280029 141.696014 3
-0.57205562527180609 -1.9668050274502638 4.2656298237749954 189 217 255 333.504028 107.136009 3
-0.98547614058796196 -0.79634609324078953 1.2978353302416639 73 99 255 93.3120117 51.840004 3
-0.94438794564575268 -0.54100890142553038 1.2407582421820225 74 105 255 93.3120117 120.960014 3
2.4414678442488285 -0.051540915541414545 2.7065646251080784 176 255 69 730.944092 279.936035 3
1.036198875653064 -0.43421095662877751 2.506473718029393 255 232 237 539.136047 222.912018 3
0.87922999152642545 -0.33582933607042392 2.8299392834601349 242 245 255 501.120056 240.192017 3
-1.0465766329180024 0.13234637860529525 1.2865368629868676 121 255 86 70.8480072 326.592041 3
-1.0033711528025964 0.33108603231955824 1.2280108153166069 70 255 74 70.8480072 390.528046 3
1.3719959760143574 0.10869232270919749 1.9342044099016649 173 255 72 658.368042 309.312042 3
-0.52650001042922234 -1.8694726359099283 3.9859475649243636 255 161 189 331.776062 107.827217 4
-0.47345496020372657 -0.075964886635801393 1.3939593618800701 96 107 130 248.832031 265.420837 4
0.085135314768900905 0.54077487507981425 0.99979471576522094 204 255 189 414.720062 497.664062 4
0.10949159103347261 0.49117256477228588 1.1017921902800305 255 197 208 423.014465 458.265656 4
-0.77337417240944761 0.30973996105938256 1.994471154607619 139 156 179 232.243225 346.29126 4
-0.70212105879858955 0.20735187993578408 1.6881546084017618 178 187 200 228.096039 333.84964 4
-0.92214148194232726 0.46049684645631217 1.4482576518842922 184 255 200 138.931213 410.572845 4
-0.33826818467292075 0.49522607325018897 1.2941996005717376 126 137 160 284.083252 435.456055 4
-0.38979202330981888 0.40846915153890129 1.1722000622872639 132 149 255 257.126434 420.940857 4
-0.33284266872131019 0.28364095033286713 1.5209231046033778 150 168 174 300.672028 360.806458 4
-0.94568346209673182 0.39420229997566525 1.2833430686303329 255 4 7 103.680016 406.425659 4
-0.36263217880085596 -0.43267966368051558 1.3734047836202352 233 255 212 282.009644 165.888031 4
-0.99128423141713995 -0.41108206109073997 1.298957363892522 85 112 255 93.3120117 165.888031 4
-0.99906428422206428 -0.16126072768518473 1.281230768120702 37 63 255 85.0176086 240.537628 4
-1.4998065198119295 -0.45690873911621921 2.9908293860786577 227 255 226 194.918427 230.169632 4
-1.0613051629749899 -0.6689638620856807 1.3169768690748915 53 81 112 72.5760117 91.2384109 4
-0.98672225292083571 -0.56650210246080601 1.2890196845776929 74 105 255 93.3120117 120.268814 4
1.0965879502265601 -0.63525645565728883 2.1996535863799007 235 255 217 574.387268 174.182419 4
0.66955705072197658 -0.58672783780224624 3.1794842845895159 208 216 226 460.339264 217.728027 4
0.40505568891663812 -0.49878720862430048 3.7788699247231232 255 140 156 423.014465 240.537628 4
0.7133819547795488 -0.27182228231857924 2.3358999287247117 242 245 255 501.811279 240.537628 4
-0.66118111488477194 0.5602810496120143 1.6285286491681106 122 132 146 228.096039 418.867249 4
-0.15930980524280924 0.56739263290078101 1.4000008680757201 234 236 235 340.070435 445.824066 4
-0.22669057846905649 0.46169202107711887 0.83456765683028733 234 255 233 282.009644 501.811279 4
-0.41975255838582193 0.26971855105245635 1.3715102922716564 255 230 230 267.494446 362.880066 4
-0.31353349259399721 0.4315008527509972 1.5839739219546738 88 105 122 308.966431 396.057648 4
-1.0444240760016985 0.34445428937506495 1.2823152520012231 77 255 76 70.5024109 389.836853 4
0.18542792658071994 0.57944467429291713 1.2297025444715626 200 193 255 445.824066 470.707275 4
0.33603346275969503 0.51681060258610678 0.89830669165839927 152 255 125 526.694458 505.958466 4
0.23002194175932078 0.53654489284905249 0.98013949243617615 215 255 219 474.854462 495.590485 4
1.0973486532137531 0.35137319216471702 2.2483536071899177 125 145 174 572.31366 348.364838 4
1.1785751416862194 0.40343514134227643 1.7381088596965419 109 125 150 644.889709 377.395264 4
1.3283830879151706 -0.069582154814220309 1.917876370554219 141 176 255 649.036865 273.71524 4
1.0268448199221023 0.46656556311412173 2.3250294549692878 84 255 50 554.895447 363.294769 5
-1.0464179944820002 0.26342041359825896 1.290591972412737 86 105 123 72.161293 365.783081 5
-0.60206582561065769 -1.6076712653306187 4.1833944046398734 128 148 255 325.969971 141.834259 5
-0.94191768584654101 0.40032893703358796 1.2876168249395796 4 255 0 102.021133 405.596222 5
1.1907220608727762 0.53436760203400424 1.6848285240736214 28 32 44 656.916565 408.084534 5
1.2024131697154421 0.44568777832814072 1.7335284884958551 255 20 27 651.939941 385.689667 5
-0.97671230227960582 -0.56020955575975284 1.2702508927346905 49 74 105 92.0678558 119.439377 5
-1.1066228530309705 -0.38146277431633013 1.4781099234325117 80 93 116 92.0678558 186.624023 5
1.2978765382195849 -0.095366635498650487 1.8969778642962698 183 255 135 646.963318 268.738586 5
0.42972254760181872 0.3330352001036998 0.62500151669178639 209 255 212 646.963318 492.687439 5
19.030030309382841 -31.296397220607524 59.164194408742276 255 169 190 507.61734 84.60289 5
-0.98873027055777341 -0.79826106806483854 1.2854393471440315 41 59 87 92.0678558 52.2547264 5
1.0818675556351072 0.34858293063494544 2.1980409949337476 173 255 125 574.802002 348.364838 5
0.84226683102386191 -0.52553735502582555 2.9208027824310392 234 237 243 492.687439 218.972198 5
0.43494824453054903 -0.51148005125609841 3.8415207121571964 255 139 154 423.014465 238.878754 5
-0.95777514319266643 -0.011395300859816465 1.3458352607259063 255 48 67 111.974419 283.668518 5
-0.66059137526318379 0.1958391573249616 1.5926511475920417 199 202 255 221.46051 333.434937 5
-1.3864435623465048 -0.10725190318531103 2.8651061576194259 220 221 221 196.577301 271.226929 5
-0.33589635633002457 -0.30198007240652402 1.4035486925805878 255 223 231 291.133484 201.553955 5
-0.53201505144871408 -0.45372425729596522 1.4353779236492894 212 222 233 236.390427 164.229141 5
-0.61398130132027751 -0.059995425611633901 1.5536672680817292 255 93 104 231.413788 271.226929 5
-0.39133386250630942 -0.22940907076135186 1.6178974322042761 237 243 255 293.621796 233.902115 5
-0.3209608295279236 0.46289911658755611 1.3192100917772964 255 140 149 291.133484 427.991089 5
-1.0495375545333419 0.13380949336848308 1.2852252927488315 101 120 255 69.6729736 325.969971 5
-0.55982313576862408 -1.9186422233270748 4.1417884284551096 189 217 255 333.434937 106.997772 5
1.367691062162256 0.13977702903514361 1.8742590430269228 162 255 94 666.869873 320.993317 5
1.3336575300041358 0.11096517749456875 1.8588488854259664 255 85 128 659.404907 308.551727 5
1.0858772542851394 -0.36309613863501899 2.3721165269615305 241 245 255 557.383789 231.413788 5
0.25349098509121837 0.49625178097924422 1.0266300969078461 143 255 149 482.734161 470.292542 5
-0.27739779232265516 0.39193592001694799 1.3794512928224139 92 109 124 308.551727 395.642944 5
-0.95779545811491174 0.19595242737479907 1.7154008564049814 140 155 255 169.20578 328.458282 5
1.3505728651104612 0.51152885356259326 1.6637897017213223 32 255 13 694.241394 408.084534 5
-1.2293026375495999 -0.39361331825801038 2.3330058866306222 255 224 225 179.159058 223.948837 5
-0.66519452994722661 0.1945404678316201 1.5806251308946635 173 175 181 220.96286 334.430267 6
-1.0074917671842716 -0.6441131584605202 1.2949572668856524 101 255 44 86.5935516 98.5374908 6
-1.0150048820468318 -0.72921616155550673 1.3168728388434556 115 255 62 86.5935516 74.6496124 6
-0.38441240774635244 -0.66556924222362246 2.5839399351188641 93 117 255 325.472321 191.103012 6
1.2389864306573026 -0.23074217733597413 1.8941792378642788 255 123 161 639.000671 238.878769 6
-1.0480725500337678 0.049913005390141568 1.3074860298932958 255 82 100 71.6636276 301.584442 6
-1.5087613041125465 -0.13417761175851778 3.0754287343833893 221 221 255 197.074982 271.724609 6
-1.030015207437911 -0.16710247431207087 1.320334581868797 255 31 37 83.6075668 238.878769 6
0.85441528984459858 -0.54055371926894946 2.9916009777514807 237 243 255 489.701477 220.96286 6
-0.5633690688534716 -0.050536885217079386 1.4067574332717556 106 132 255 229.920807 271.724609 6
-0.34616058964300134 -0.21052073061655802 1.4126106676346248 237 243 255 289.640503 232.906799 6
-0.2983692964265714 0.44811294492110409 1.2624491027327447 132 142 162 292.626495 429.981781 6
-0.23359477528424044 0.21956312328252986 2.6386758125287972 117 137 255 349.360199 313.528381 6
-0.15555483227388689 0.55281557290320738 1.3756072335291054 178 184 187 340.402252 441.92572 6
-0.16722032361590333 0.4878800195883326 1.313327464797871 85 255 51 334.430267 435.953735 6
-0.54173275516954211 0.43503048116792264 1.083056284765529 204 255 186 194.088989 444.911713 6
0.29165556904903922 0.27362756728643955 3.7455210019082568 157 172 169 412.065857 313.528381 6
0.10308566647330664 0.50115418386992439 0.94039786901799438 218 226 223 424.009796 492.687439 6
1.1725811373851645 0.29047535869474833 1.7398196587296102 109 125 255 641.986694 346.374207 6
1.3713863425756609 0.10724458351185689 1.9255408469492865 255 85 128 659.902588 307.556396 6
1.1753351776847447 0.51050260527645619 1.6760143084735724 46 56 255 653.930603 406.093903 6
-0.24490794325542131 0.36408061690778992 1.5929767646301212 100 255 50 322.486328 376.23407 6
-0.97507377543358587 0.41036057172109242 1.3400175267465966 0 0 255 101.523476 406.093903 6
-1.024854647476646 0.32993401148772894 1.2343842149484043 74 89 74 68.6776428 391.163971 6
-1.0251960804041413 0.23256026396640367 2.2193584195779339 107 255 86 206.032928 328.458313 6
1.0814134479726891 0.28171270013851585 1.6863307563855283 255 86 91 627.056763 352.346191 6
0.6869737600821535 -0.64917067968219977 3.5807159021326411 255 183 197 459.841614 217.976868 6
-0.99066392869773257 -0.56562808733877423 1.2679362300741501 104 255 46 86.5935516 119.439384 6
-0.52842636818338695 -1.8309157805555878 3.9456316367358983 255 161 189 331.444275 107.495445 6
-1.0531274344943169 -0.20878059415865885 1.3530275005494428 255 30 35 83.6075668 226.93483 6
-0.32617432398268242 -0.42249607501398256 1.3179477083764515 218 231 255 293.820892 164.826355 7
-0.52880587472765672 -0.5292844392089664 1.4173868818616793 201 214 228 232.906799 143.327271 7
-1.0125395820882548 -0.098952945108773893 1.29220559141877 110 255 61 82.4131775 257.989075 7
-0.57825569830407231 -0.059864617058584507 1.4213465183676672 146 157 255 225.740448 268.738617 7
-0.3704785561789441 0.4976026029410745 1.3491242886321109 255 129 142 283.07135 433.564972 7
1.5398940460907697 0.56518563169068348 1.9286948746148518 255 13 18 691.554077 408.482697 7
1.4787968495054216 -0.4080367119902284 2.4854685261054223 255 109 143 619.890442 225.740448 7
1.4543312886157729 -0.53576929633492054 2.4970501568682764 230 238 255 601.974487 200.658173 7
1.0851669658297074 -0.6831068830871927 2.188977668409561 224 235 255 573.309082 175.575897 7
-1.0795501687087983 0.34709115235311416 1.3256813489759116 76 92 83 68.080452 390.566803 7
-0.14415148879638595 0.52177094905805677 1.3401784680739608 137 146 153 340.402252 440.731354 7
-0.90248124087696802 0.38361965009914822 1.2216112039621745 1 1 1 100.329086 408.482697 7
0.19498959021222473 0.54061465076050697 1.0173698382500485 255 220 219 455.064056 494.479065 7
0.30047546086184118 0.25574773739600931 4.2379320833112573 156 171 168 412.065887 315.319977 7
-0.23833433387534741 0.3562129656472901 1.2239118951323249 83 102 120 308.153625 397.733154 7
1.2302087278831395 0.26926261356660169 1.8307702674131558 94 112 127 644.972717 347.568604 7
1.0768785041075546 0.43092334234163943 1.9113053641802251 145 171 255 605.557678 376.23407 7
-0.54724715800722645 0.45430283750624567 1.1226599699524713 205 204 255 193.491806 437.148163 7
-0.8937733421521239 0.41833270661590999 1.3735054817257839 255 148 148 139.74408 404.899536 7
-1.0251960804041413 0.23256026396640367 2.2193584195779339 98 102 117 204.241348 329.65271 7
-0.77941615728521318 0.12388797607811397 1.4203669165241202 255 166 168 175.575897 322.486359 7
0.067498307838284477 0.40822814702690119 2.2241894590939095 131 255 92 394.149963 354.734985 7
-0.36242872029220408 0.29455853920018116 1.6800158614782728 152 169 177 300.987244 358.318176 7
-0.56273476495173558 0.47443815087677632 1.0071240651958924 147 160 180 168.409531 472.97998 7
1.2369896947057211 -0.67964679861487132 2.2369319074599225 233 255 207 598.391357 171.992722 7
0.95848471330960372 -0.43147828558693957 3.2585185999913975 245 255 239 498.062256 240.073166 7
0.40233438811663658 -0.49293353575008148 3.9206380765525441 171 255 128 426.398621 236.48999 7
0.72069130190969211 -0.66611670957968061 3.6236471871186682 210 255 158 458.647247 218.574081 7
1.2901634528368644 -0.044579076393507167 1.8316427567089031 121 146 175 648.555847 279.488159 7
-1.0394811905481971 -0.73476077922748328 1.3405045881011945 80 110 255 85.9963608 75.2468109 7
-0.65457328384917401 -2.1187149474930207 4.636228293599701 191 218 255 329.65271 111.078629 7
-0.63420277608501685 -1.3530119844752895 2.7178234131365979 191 217 255 293.820892 103.91227 7
-1.0404824667508104 -0.21062337690120408 1.3381782692228295 76 255 36 82.4131775 225.740448 7
-0.65062225237029558 -1.0588058423164459 4.3322443241865463 132 255 91 322.486359 193.491806 7
