ply
format ascii 1.0
comment Written with hapPLY (https://github.com/nmwsharp/happly)
element vertex 143
property double x
property double y
property double z
property uchar red
property uchar green
property uchar blue
property float ix
property float iy
property uchar octave
end_header
-2.8821892710284547 -1.2870437271365638 6.2649904905645304 158 164 171 208 211 0
-2.4950457664133263 -1.897265833701522 3.9184591200428569 255 160 176 139 103 0
-0.0028338481528498161 0.2484014848783303 1.0171739051509059 212 210 255 385 382 0
-1.5072490489095021 -0.71341935095052522 3.9974193611530451 219 255 210 238 220 0
-2.370768833338929 -2.2707225582990702 3.720329680450591 255 101 133 139 52 0
-2.3361050658168168 -0.28725157053121142 3.7819358625744171 235 236 239 148 259 0
-0.086977176522777921 -0.53158333957055381 1.3010967024975104 204 255 148 358 130 0
0.090871688304298759 0.42012009253667254 0.78488920160088871 187 255 182 430 493 0
-2.4113019290061186 -2.349365878119404 3.7368355338421968 98 132 175 136 49 0
-2.2653493618294145 -0.3732269906196673 3.7333168932870953 255 232 234 151 250 0
-2.3502277113335741 -0.64459486407699118 3.6072838624431767 231 235 255 133 220 0
-1.1332668227525708 -1.1147105659052774 3.4324674997656635 255 197 207 259 163 0
-0.015235571409599413 0.011528317841892094 0.97050757115860642 255 104 115 379 292 0
0.014424153731554812 -0.24389073110646975 1.189747393227689 211 220 230 388 211 0
0.45362255468730306 0.2278697452023094 0.65766236904685316 178 175 255 649 421 0
-2.2224883033614273 -1.3453576614283926 3.6858235140051989 255 190 201 151 148 0
-2.6352069801881899 0.17170420928379471 3.9222069460117472 255 211 199 127 304 0
-0.0025431787524891059 0.35868370011548445 0.99188341863208329 176 180 255 385 427 0
0.90570850014296678 -0.12835552656406646 1.5305938427417651 255 125 139 611 256 0
-2.3361050658168168 -0.28725157053121142 3.7819358625744171 255 235 236 147.600006 259.200012 1
-1.7547366573472591 -0.60113711565844508 3.8404322590991953 255 117 126 207.600006 225.600006 1
0.0090173400708167817 -0.24711061900149994 1.2054600137466287 255 209 219 387.600006 211.200012 1
-0.0035786242354106657 0.25773528823516312 1.0440710780915465 212 210 255 385.200012 381.600006 1
0.98537235681048019 -0.81262694371509969 3.5788112150083555 102 132 255 489.600006 199.200012 1
-2.4554527711620833 -1.4386879536311472 3.7658887073811482 255 192 201 135.600006 141.600006 1
-2.0121201987487694 -1.9708596565990093 6.0625239265588418 255 195 206 255.600006 163.200012 1
0.29143114071979093 0.37849994000030124 1.8132717218228902 93 113 255 445.200012 366 1
0.94102628564425705 0.081426238015613855 1.5799765992808337 66 83 255 613.200012 307.200012 1
-1.7018495164871714 -1.4998209453952198 5.8165776571448715 217 227 255 273.600006 190.800003 1
-2.2559392963699607 -1.0679075864905889 3.7223817777069135 255 212 218 151.200012 177.600006 1
1.0489948795598121 0.16039306792139563 1.4620266687851209 83 255 61 658.800049 331.200012 1
1.0301978339099973 -0.099937028097971323 1.4838097666985992 64 255 39 650.400024 261.600006 1
0.45415402801277699 0.19024760490153372 0.68212513873730196 74 255 64 638.400024 397.200012 1
-2.5442495745693137 0.37945679409081196 4.2572820137895127 128 147 255 153.600006 321.600006 1
-0.087547184293771729 -0.53264340638654517 1.2993203266610649 173 203 255 357.600006 129.600006 1
-2.3621745383097457 -2.2614657464427639 3.7142898798629043 255 100 132 139.200012 51.6000023 1
-2.4056546019173997 -1.8280876208344174 3.762020860240705 255 158 175 139.200012 102.000008 1
0.95030158060456105 -0.42805084627111706 3.4093548914103593 108 142 255 489.600006 241.200012 1
1.1724399150526612 0.092831499367565171 1.5136659145098108 143 255 124 682.800049 313.200012 1
-0.071243791537079604 0.34001545959165591 0.50625121274714324 189 193 189 328.320007 544.320007 2
0.99124769478403918 -0.81815708699998291 3.6121819376841744 105 136 255 489.600006 198.720001 2
-1.671315203693156 -0.58703452767023157 3.6951131489248761 255 118 127 207.360016 226.080002 2
-2.1834790348395017 -1.3217488159251551 3.6172252883930933 201 215 255 149.76001 148.320007 2
-2.1577462162748815 -1.2969018387057478 3.3752372638006629 255 192 201 135.360001 141.12001 2
1.5403822721182436 0.16266069295253477 4.5736427521357017 255 51 99 511.200012 303.840027 2
-2.3413621426213802 -1.1179341491571484 3.8269748949036355 218 226 255 149.76001 177.12001 2
-2.1736115138008625 -1.0910861096074611 3.6220417126549447 255 206 213 151.200012 171.360001 2
-2.3650713750821817 -1.1056443379873762 3.657319875182091 255 217 220 135.360001 171.360001 2
-2.2995164110902726 -2.4847658069289649 3.7360106240161399 172 255 93 146.880005 33.1200027 2
-2.5747310590205772 -2.2850745622978552 4.0143008310412069 255 117 146 139.680008 69.1200027 2
0.14056870625334988 0.40186480213842185 0.7523266361166816 93 113 255 453.600006 492.480011 2
-2.2710368591947581 -0.37493198584489174 3.7399779507895166 234 238 255 149.76001 250.560013 2
-2.4248772719521643 -0.3761470509381929 3.7239192386662205 255 231 233 135.360001 249.12001 2
0.40504858719746983 0.19988677658221304 0.66794084103500839 130 255 81 614.880005 403.200012 2
0.36702881266462062 0.2642644542629381 0.64334521800869227 255 110 123 603.360046 444.960022 2
-1.4098612345993382 -0.6688669820277614 3.6701334355940642 212 212 255 237.600006 220.320007 2
-0.0040639647674527435 -0.24819040957842703 1.2060182105115675 198 202 255 381.600006 208.800003 2
-2.3196070404757845 -0.7534890420960364 3.8060804128466277 255 221 226 151.200012 211.680008 2
0.8465523962906254 -0.89098531153206018 3.4040424298014327 143 255 64 478.080017 184.320007 2
1.0414427542136315 -0.18183330398000283 3.5563227002272066 116 255 35 498.240021 267.839996 2
0.086693718258278096 -0.51572785074885352 1.2425388686239995 150 174 204 408.960022 129.600006 2
-0.088159398572713044 0.11902775839354651 0.23141462805535579 205 203 255 237.600006 485.280029 2
0.3880206267131362 0.19746701153472501 0.43633265874290261 255 32 40 727.200012 462.240021 2
0.94102628564425705 0.081426238015613855 1.5799765992808337 63 73 91 612 306.720001 2
1.1474176105547897 0.4162506265206018 1.5142738937380993 255 184 185 675.360046 393.120026 2
-2.5762957103124582 0.16999806795549793 3.8370149055224121 208 255 211 126.144012 304.128021 3
-0.014945527064309738 -0.039048887043053926 1.3192903175880881 176 178 255 381.888031 276.480042 3
-2.4457340760390105 -1.1448242142968097 3.7733523138355034 227 255 218 134.784012 171.072021 3
-2.1823789269907068 -0.23743982478553999 3.7488073824927151 240 255 237 158.976013 264.384033 3
-2.4596570771795143 -2.1233214781042129 3.7924375469481975 183 255 111 134.784012 72.576004 3
-2.4293582582599433 -1.8622046892877049 3.8067014878992769 199 255 156 138.240021 100.224007 3
0.99032344408201012 -0.14231650398657086 1.697252147145037 131 142 255 609.98407 255.744019 3
0.82635736629594381 -0.88240849325190862 3.3401554557768689 65 107 138 476.92804 183.168015 3
0.098589811234239988 -0.48328169658102638 1.2226210414879304 152 176 205 412.992035 133.056015 3
-0.014459422359150653 0.41464664293879572 0.87193548493519568 174 255 180 374.976044 470.016052 3
0.086160137160944839 0.42866078971685534 0.79949224221817561 188 255 187 426.81604 494.208038 3
0.95181954015056092 0.081563356099716933 1.6064442800506222 255 67 79 611.712036 305.856018 3
1.1289099993153262 0.30210742422984321 1.4439839682764564 209 255 210 682.560059 369.792023 3
1.5331090195012536 0.30539787778644051 3.8634017937183573 255 34 68 535.680054 319.680023 3
1.2353590895102271 -0.13818268342276382 1.6114873478798313 255 239 239 679.104065 255.744019 3
-0.0066769770036192444 0.36242369108999278 1.0111779770051998 255 160 175 383.616058 427.161652 4
-2.3427047164635586 -0.35745102145534707 3.6424933046639967 232 234 237 136.85762 250.90564 4
-0.10056357932405058 -0.50779686912132782 1.2665700313690706 146 173 204 352.512054 132.710419 4
-2.4710424223562732 -2.1441393053282849 3.7985059367007596 183 255 111 134.784012 72.5760117 4
-2.6401945550531853 -1.9190995438474161 4.039144609364687 202 255 167 134.784012 105.753616 4
0.99032344408201012 -0.14231650398657086 1.697252147145037 255 124 138 611.712097 257.126434 4
-0.010494493785177195 -0.25794858465985959 1.2477276551035903 255 163 204 383.616058 209.433624 4
1.0271494657025746 -0.18764682104572974 3.4437304849614154 89 116 255 497.664062 267.494446 4
-0.030362806205828208 0.42719622646360123 0.73495028520578998 255 136 141 367.027252 512.17926 4
-0.01511426649047054 0.40108459285576897 0.74846956842879653 255 185 189 375.321655 491.443268 4
0.12800374383352203 0.34573042380597713 0.77680903904494081 95 115 255 445.824066 460.339264 4
0.94731014570284322 0.069032529316708682 1.6098802543135626 85 105 255 609.638489 304.819244 4
1.1671900364031456 0.084410294620598944 1.4916256854445744 125 134 147 680.140869 311.040039 4
1.1214021334787114 0.30581956032290053 1.433027893005941 208 209 209 684.288086 371.174438 4
0.36602414615322348 0.136313287868744 2.1173916735039753 255 97 109 447.897675 315.187256 4
-2.9010638894840435 0.17760914346157786 4.2671857408671698 223 218 227 124.416016 301.086761 5
1.1941856601281828 0.093373137275307438 1.5456520796470326 112 120 136 684.288086 311.040039 5
-0.10561048142252194 -0.5143283286957282 1.2829422461887083 206 255 147 350.85318 136.85762 5
0.81619095978139833 -0.86667925875008989 3.279666703637496 110 144 255 477.757507 184.135712 5
0.87546948897098853 -0.060244018971878671 1.4803751550770921 83 99 255 609.638489 271.226929 5
0.98632752890177522 -0.14113988018112567 1.6845827406222411 133 147 159 612.126831 256.296997 5
-0.02239073763529964 0.41243585864633969 0.70775299092069921 142 148 144 368.271423 510.105682 5
-2.4335282019329982 -1.1717779166785864 3.9463336251680809 216 224 255 149.299225 174.182419 5
-1.7223359600487522 -0.64134069858988663 4.0647884295190009 255 215 217 223.948837 226.437149 5
-0.093663959586904877 0.086167744386677833 0.60590699088469524 83 101 255 325.969971 343.388214 5
0.94731014570284322 0.069032529316708682 1.6098802543135626 84 104 255 609.638489 303.575073 5
0.16713999887355524 0.28071462102239991 0.77132116894290736 120 255 86 462.827576 427.991089 5
0.008560186325071828 0.34229631188398518 0.94072516064216805 168 175 255 385.689667 425.502777 5
-2.4143729127747937 -0.28658888655207754 4.1429431455231569 238 239 255 161.740829 261.273651 5
0.67468587047110284 0.16384926076176204 2.3737093957522286 255 189 192 495.175751 313.528351 5
-0.0041489524424955793 0.40331697844821324 0.85817366654724125 158 168 167 376.23407 468.799591 6
0.98190833644627573 -0.79349762943230984 3.5383017573993278 99 129 255 489.701477 203.046951 6
0.82020928523420877 -0.82927600520375255 3.2661777034668131 106 138 255 477.757538 188.117035 6
1.2609015442370299 -0.14692197118765171 1.6519617557736122 240 242 255 677.818481 256.794678 6
1.0452401754364304 -0.19109953673708091 3.5663061656811981 119 255 38 498.659424 265.752625 6
0.78409813366006098 -0.27510696647716643 3.5526452152461694 255 56 105 471.785553 256.794678 6
0.96492089787308699 -0.12018130776626018 1.5156748666739386 159 255 139 630.042725 259.78067 6
0.97738333476964423 -0.1402098193197242 1.6598448410154745 133 147 159 612.126831 256.794678 6
-2.6264160208051641 -1.9074636845537611 4.0221851440961203 202 255 165 134.369308 104.50946 6
-2.7149132085311769 -2.3133548135627713 4.1484466448256576 183 255 111 134.369308 71.6636276 6
-2.2524568370190856 -1.0970773383109913 3.6845704683392104 225 255 211 146.313248 173.187103 6
-0.028029834470116088 0.0095474092386472198 1.0037526686121581 99 111 128 376.23407 292.626495 6
1.1761066304706285 0.32050545414702375 1.5042341628504725 255 208 209 683.790466 373.248077 6
0.069551960469986462 0.40549593805284678 0.83360817431172685 255 175 181 415.051849 474.771545 6
0.93502045669426082 0.070691359184374622 1.5927610664308003 85 105 255 609.140869 304.570435 6
-2.592854410121316 -0.39377727733552775 4.0221186009949372 234 237 255 137.355286 250.822708 6
0.090757116140814442 0.26927739794628797 0.83657916614101824 190 255 187 426.995789 415.051849 6
-2.1756559485211397 -1.4658154743572744 3.7158497582882406 213 255 185 158.257187 137.355286 6
-0.07323071330142561 -0.57454825293507006 1.304030226654167 148 171 201 364.290131 116.4534 6
-0.0077588210540341374 -0.27194589004734399 1.3197926439119574 207 255 132 382.206024 206.032928 6
-1.6385377089934976 -0.72719093513240196 3.6140149575173601 255 115 125 207.824539 211.407715 7
-2.3091642978754376 -1.1037339256817036 3.752285641490666 226 255 214 146.910446 175.575897 7
-0.019247404068827856 0.013002636681922988 0.95516014131871008 98 111 128 376.23407 293.820892 7
-3.0532535190439503 0.18679889563547714 4.4792228144554089 224 231 255 121.828178 300.987244 7
-0.00044070152751385372 -0.25601341553764917 1.2064975448160034 255 158 201 383.400421 207.824539 7
-0.00055531266788844125 -0.29406501129014534 1.2086255593864255 255 161 203 383.400421 193.491806 7
1.1577204899001832 0.32841377744718125 1.4861561724660195 209 209 208 684.387695 376.23407 7
0.91179878036616557 0.28271833298809323 1.5552409877695288 95 114 255 609.140869 358.318176 7
-1.9383601124828993 -0.40156270290046714 3.8226968313813825 102 255 62 186.325439 243.656357 7
0.94518402057854767 0.061919613299027225 1.650388106695154 108 127 255 605.557678 304.570435 7
1.4550875936883827 0.12810073946697009 4.218403241777879 40 93 120 512.394958 300.987244 7
1.0577714225587198 -0.21017611574425149 3.6108720407515476 84 107 255 501.645416 272.321808 7
0.97738333476964423 -0.1402098193197242 1.6598448410154745 132 146 158 612.72406 257.989075 7
