ply
format ascii 1.0
comment Written with hapPLY (https://github.com/nmwsharp/happly)
element vertex 151
property double x
property double y
property double z
property uchar red
property uchar green
property uchar blue
property float ix
property float iy
property uchar octave
end_header
-1.4296000053706166 -0.82889453989030715 2.8043816897212315 228 235 255 189 175 0
-1.669160548679272 -0.93091951272387874 2.8860834677717992 213 222 232 160 163 0
-1.3586622360816905 0.34761680151793639 2.6766843780363345 190 255 168 190 340 0
-0.95726425382117952 -1.5157272672875499 5.2759794884426618 222 234 255 313 178 0
-0.92567130055322266 0.44205870182382745 1.3516438356183089 105 28 255 121 412 0
-1.6911557508658017 -0.31921384573480938 2.9339227829793142 255 241 243 163 247 0
-1.682243136681056 -1.5387298920282908 2.9156322879220422 255 163 187 163 85 0
-1.6140806906408778 -0.018975687852603479 2.8244995568696409 247 255 245 166 286 0
-1.167294004260905 -1.7554107533359524 4.7661975822420484 224 226 255 289 145 0
-1.6427131940865389 -1.5117341611508199 2.8492017788419961 255 163 187 163.200012 85.2000046 1
-1.6307271070426226 -1.0050701776556774 2.8343612183017428 219 230 255 165.600006 151.200012 1
-1.4053345147400731 -1.125545588289883 2.7640391812883229 210 226 255 189.600006 133.200012 1
-0.43674336119149837 0.44573364930469755 0.94100942325958559 83 80 255 205.200012 468.000031 1
0.29585105206537365 -0.7360419352727009 4.9614251767643784 155 176 255 409.200012 231.600006 1
-1.4749026207951461 -0.2182928724466825 2.8037310193436449 244 246 255 181.200012 258 1
0.6247986674717757 -0.58138948427740078 4.2718217220000909 255 234 239 439.200012 235.200012 1
-1.5793347410399092 -0.55557015702436385 3.0856478491037835 235 241 255 189.600006 217.200012 1
-1.7423779724566852 -0.73689800076899759 3.0568652565280789 236 239 255 165.600006 195.600006 1
-1.4267920351944352 -1.2776471324494751 2.7896521286522113 255 187 202 187.200012 111.600006 1
-1.6839044109859849 -1.3915839805011752 2.9173764573855765 255 192 205 163.200012 103.200005 1
0.65829185235737886 0.46618607743733953 1.707650870193282 160 255 118 534 391.200012 1
-1.4270579295064696 -0.74436573934424366 3.2019616172583234 121 147 255 213.600006 199.200012 1
-1.5742806385506563 -1.7303136475458645 2.8207569840655138 203 255 131 170.400009 51.6000023 1
-1.2738422176910529 -1.9765315402868548 5.3026011923496288 255 212 219 291.600006 145.200012 1
-0.74008333525385295 0.14779766265420052 2.9526531241845984 164 166 171 288 308.160004 2
1.4897139852335466 -0.61576760964248434 5.0142987112507607 255 239 241 495.360016 240.480011 2
-1.5816460484180626 -1.5785870757207885 3.0229326859830365 183 212 255 181.440002 87.840004 2
-1.5951846218266499 -1.679436737514322 2.7853596361439084 169 205 255 165.600006 57.6000023 2
-0.24846932331873783 3.1269637021663117 4.6520433133898713 216 255 218 362.880005 544.320007 2
-0.50124176638379359 0.34257450941807532 1.0392146355220442 43 65 62 200.160004 417.600006 2
-1.4462538220262875 -1.3565876867290831 2.8352399819037544 255 177 197 187.200012 103.680008 2
-1.4935759423273161 -1.1931158260092141 2.7604729755785846 255 201 211 175.680008 122.400002 2
-1.6094507231370221 -0.59731347218698527 2.8075337911019638 241 255 235 162.720001 205.920013 2
-1.4010398442303051 -0.66361939226117861 2.7443456830371189 255 230 234 187.200012 195.840012 2
-1.422645447903391 0.14032853611206958 3.6717043012265158 129 255 90 234.720016 300.960022 2
-1.4470448671235725 -0.30480403043991633 2.8143708657676543 241 245 255 185.76001 246.240005 2
-1.405962275230737 -0.36158966564089112 2.7639445960337277 255 242 243 187.200012 237.600006 2
-1.6555475711052146 -0.46037298429606865 2.8782247173423547 244 255 240 162.720001 226.080002 2
0.18089933583243756 0.47565969019122051 2.2370147687739883 228 227 255 417.600006 370.080017 2
-1.3872407228895804 0.30960386484239877 2.4460724144991506 215 199 180 164.160004 338.400024 2
-0.67702670197957104 0.29269261319086576 2.8752664063169351 255 203 204 295.200012 328.320007 2
-1.0969823140785588 -1.5849015167770384 5.3925686524752114 255 209 221 303.840027 177.12001 2
-0.52402451549070639 -0.08493419549229847 4.041731583711357 66 255 34 334.080017 280.800018 2
-1.396139827793252 -0.89247414986887641 2.7527705137819805 211 221 232 188.640015 162.720001 2
-1.4749026207951461 -0.2182928724466825 2.8037310193436449 244 246 255 181.440002 257.76001 2
-0.34631708498767333 0.44404145806593542 0.92559299045532772 65 97 93 240.480011 473.76001 2
-0.47805098443194849 0.3653957281152293 0.9517020957948048 52 255 135 190.080002 437.76001 2
-1.0242873829131991 -0.15601974092765286 3.0063298853456879 113 255 73 254.016022 269.568024 3
-0.95681314591429567 -0.55061480479737313 2.941923978678183 255 148 156 259.200012 217.728027 3
-0.95968116435263084 -0.63572605747933775 2.9403146386155861 255 148 159 259.200012 203.904022 3
-0.79530163919194186 0.26711017841787627 1.1771735845282554 70 97 114 124.416016 371.52005 3
-0.75363636758822317 0.36534812363499314 2.9234022101696016 160 161 161 288.576019 336.960022 3
-1.4505858276865737 -1.2863332313748577 2.8140913320932213 189 203 221 184.896011 112.320007 3
-1.5894320514898457 -1.3357747338153807 2.7849202046513861 186 201 219 164.160019 101.952011 3
-1.2948295953363069 0.52292016250423423 1.9828643497925813 93 103 123 136.512009 387.072021 3
-1.3531457506461431 0.34568801278592975 2.6689126941857899 213 255 203 190.080017 338.688019 3
-0.90168383168763055 -1.428803412384487 4.9141282709087521 255 209 221 311.040039 177.984024 3
-1.6555049459005633 -0.46887634496705821 3.8407327912383256 255 98 113 219.456024 243.648026 3
-1.6040522266957935 -0.30690029763072835 2.8053394373939091 241 243 245 164.160019 245.376022 3
-1.4351797974095248 -1.0502680190783023 2.8110629239666149 203 215 228 188.35202 143.424011 3
1.1255918815900903 -0.70022470568635209 2.4610058854343113 255 212 223 563.328064 179.712021 3
-0.48207722037675316 0.47537040821307597 1.0330506872777474 69 255 42 202.176025 466.560059 3
0.70203999912920334 0.31312891544668647 0.78307673838152869 30 35 255 729.216064 444.096039 3
0.65479608614610718 0.28180732186747781 0.83635245308533657 166 166 164 684.288086 418.176025 3
0.6890590819389858 0.17028240326891339 3.9793843358810861 255 132 146 447.552032 304.128021 3
0.70433931271342842 -0.6797090632607703 3.7102658723736548 236 239 243 456.192047 216.000015 3
-1.30874184717453 -1.9931478711325594 5.4114718380119342 226 255 223 290.304016 145.152008 3
-0.6748550632416932 0.28913290096354971 2.8691007946729874 205 255 212 294.451233 327.628845 4
0.56205621991029275 -0.47003814572035196 4.4031956262679923 221 223 255 433.382446 246.758438 4
0.57038924201497487 0.3501746374582051 2.98582791383132 165 178 184 456.192078 331.776062 4
-1.3717477600126267 0.14049113855470347 3.5221093298310731 145 255 109 234.316833 304.819244 4
-1.4269295748861239 0.14917277522518313 3.6448056835352416 129 255 90 234.316833 300.672028 4
0.14952629086170921 0.44838437205506676 1.4766160903113374 194 110 255 425.088074 406.425659 4
-1.6096909758542362 0.3744701817877209 2.8653183212704478 181 255 155 170.035217 342.144043 4
-0.48220929011501834 0.39215778681919478 2.5302970221209811 204 255 173 306.892853 346.29126 4
-0.94029412094324671 -1.4424092799084602 4.9610938371370397 255 209 222 311.040039 178.32962 4
-0.94145511007118543 -0.14124861846295395 2.8177746725498451 255 80 97 255.052841 267.494446 4
-0.75445705231879057 -0.3925342476405132 2.9080803574885383 229 255 228 282.009644 236.390427 4
-1.3850349863977001 -0.67723489160097072 2.8646255851880551 255 229 233 199.065628 196.992035 4
-1.4651293176228979 -0.83731435033922019 2.8430881556591641 235 255 219 186.624023 174.182419 4
-1.5776688112167419 -0.80613192528943101 2.7494058908358068 229 236 255 161.740829 174.182419 4
-1.4135649772731429 -1.5932308380211637 2.5460017001053417 203 255 130 170.035217 49.766407 4
-1.6060957147753867 -1.6899491253859873 2.8114374517486214 255 134 167 163.814423 55.9872093 4
-0.35890153226774335 0.45896462611623889 1.2003733767322777 83 86 255 269.568024 433.382446 4
-0.36439588395995171 0.40213363746118241 0.93792597094617958 109 137 147 236.390427 447.897675 4
-0.39626342582171348 0.38984173726115423 0.71556179029393441 255 124 135 167.961624 493.516876 4
-1.8289168222063545 0.39279902137975642 3.2050027520279301 255 230 208 163.814423 337.996857 4
-1.3408586623057479 0.21109704700303608 2.753538244928686 182 255 200 194.918427 319.334442 4
0.49409972063178298 0.45851759022048078 1.1420646099959133 231 232 255 549.504089 443.750458 4
-1.4751778290541164 0.35987551565158493 2.9000165984098953 208 213 255 189.11235 338.41156 5
-1.4220714241844274 0.13842373136702618 3.6118569682501818 122 142 255 233.902115 303.575073 5
0.47318978558274605 -0.37754655302353624 3.4956097885539457 169 205 214 432.967743 246.343719 5
0.56155470249836748 -0.49902795546805345 3.5875222757634209 235 239 243 440.432709 233.902115 5
-1.5899730189355621 -1.7565117750378378 2.8539936183737269 164 203 255 169.20578 49.766407 5
-1.4505699984055673 -0.30619440018021205 2.8166489849568372 245 255 239 186.624023 246.343719 5
-1.4603505380701596 -1.0306840893973543 2.8078079023506826 205 216 229 184.135712 144.322586 5
-1.6247294680553379 -1.0674599145196695 2.8501768530937945 211 219 230 164.229141 144.322586 5
-1.379175400228783 -1.2413908803197446 2.8503149791332381 198 221 255 201.553955 121.927696 5
1.1636163805283748 -0.71378739351298648 2.4888625730190537 235 255 211 562.360413 181.647385 5
-1.0017995818316892 -0.15384580499348058 2.9309323430711975 97 115 255 253.80867 266.250275 5
0.5012464238218256 0.4862405576688521 1.0670026485266173 128 141 160 564.848694 457.850952 5
-0.24873600547967567 0.44829631815979981 1.2705681295381979 149 255 107 306.063416 425.502777 5
-0.52590220507996177 0.3995729816032535 1.9108294132115629 132 255 86 278.691895 365.783081 5
-0.33267637667649597 0.42821812409243604 0.87907449211629496 94 255 65 238.878754 470.292542 5
-0.46668463080098621 0.32153058687373104 0.96188936267049074 85 77 255 201.553955 418.037811 5
0.4813383017347036 0.43546035383479842 1.0862354768607072 235 235 255 549.918823 442.921021 5
-1.8593881131590102 0.36100891238103261 3.1973453355141839 229 214 196 164.229141 335.923248 5
15.951600513444351 -19.007756047626678 33.39024700597075 138 173 209 564.848694 72.161293 5
-1.4877446692531602 -1.0435410487242234 2.8350491901494594 229 255 206 182.145065 146.313248 6
1.1699464212071722 -0.72622885509799628 2.6238898066046321 223 235 255 561.365112 182.145065 6
1.7732695572542241 -0.88291035838560827 2.7318559532678903 255 203 217 639.000671 161.243164 6
-0.28870480602622961 -0.056454753023829074 6.4327917843799911 97 118 138 364.290131 286.65451 6
-0.92942980231417271 -1.9287854121315775 5.4278961169931241 191 210 228 316.514374 152.285217 6
-1.3037240239916206 -0.17019386292946304 2.737434584380797 244 245 246 200.060959 262.766632 6
-1.5770286417429991 -0.29780878204348804 2.7975100634760355 255 241 243 167.215134 247.836716 6
-0.80133762115151974 -0.424561837423993 2.5166070756541337 255 148 156 259.78067 217.976868 6
-1.1354543590462889 -1.0967775827341115 4.244805622899773 227 227 255 277.696564 185.131042 6
1.537317060483707 -0.14283145482733187 4.808569128559574 244 244 246 504.631378 274.710571 6
0.5103633606568867 0.47549780629692934 1.1952389125139882 235 255 234 546.435181 441.92572 6
0.6175942050294595 0.29879280723040458 0.77159419449500155 103 255 106 686.776428 435.953735 6
-0.50277265413260031 0.47290653853369768 1.0571160555439283 53 81 83 200.060959 465.813599 6
0.59203397252284906 0.43036937738944248 1.5670551906344325 126 137 255 525.533264 394.149963 6
-0.34166337670087787 0.43082948692258338 1.1378451280247739 255 56 90 271.724609 432.967773 6
-1.3244442409636648 0.14818266543455161 3.3753091181955979 109 129 148 232.906799 304.570435 6
-0.3767785570939266 0.47680760555514784 2.6951418201621018 217 222 224 328.458313 355.332153 6
-1.3022931247885556 0.51679821199147247 1.9952507474068253 119 255 93 134.369308 391.163971 6
-1.8954590010476466 0.31231698911241562 3.2669510118722727 212 210 255 161.243164 328.458313 6
-0.052902795154922355 0.1275653380536072 5.063504009877831 113 133 162 376.23407 298.59845 6
0.74124384728497839 -0.68938645204867144 4.0747992084106626 236 239 243 456.855652 217.976868 6
-1.2787298463152754 -1.9381189703596742 5.3121363789393214 224 226 255 289.640503 149.299225 6
-0.98057656888755718 -1.5015593818949466 5.11336109897527 234 255 208 310.542389 176.173096 6
0.59713143587128603 -0.56636974646611526 4.1926170257293842 239 243 255 437.148163 236.48999 7
-0.2725562626765734 0.4618261211897039 1.3263120148018643 110 143 152 304.570435 426.398621 7
-0.89676612853577353 -0.14877002556750699 2.6488845207276368 111 255 69 250.822708 265.155426 7
1.4208317243387778 -0.1351105977805305 4.4382019339991334 243 245 255 505.228607 275.904999 7
0.65659164107175649 0.48016892569777153 1.7819790206265229 255 85 118 523.144531 394.149963 7
-0.46364054797644272 0.38830160704117028 0.9754962708963888 103 134 141 200.658173 440.731354 7
-0.88958069377934956 0.073571420107095525 2.2861618868228279 109 129 148 232.906799 304.570435 7
-0.38114216125796596 0.48011502316317123 1.2940273202113937 76 106 116 272.321808 429.981781 7
-0.43505106616498068 0.29676709495072767 2.0688665136463373 159 170 188 308.153625 340.402252 7
-0.45255997053579811 0.023657896578283988 5.8276279353486107 118 138 255 361.901337 290.237701 7
-1.5516545200466689 0.36182751941487185 2.7563077744903115 255 162 172 175.575897 340.402252 7
-1.8810529613255222 0.17109669118685361 3.0593110803020309 247 255 240 146.910446 300.987244 7
0.50715448923744522 0.4819485067469772 1.0744633077007304 167 255 133 566.1427 462.230438 7
-0.37427000837805302 0.45541408891382579 0.96485839830978026 63 96 94 236.48999 469.39679 7
1.6195903146906461 -0.78395234611839837 2.4673378488411961 217 231 255 637.806335 161.243179 7
0.64507923021189584 -0.63708511998285455 3.9183533529758128 234 237 243 444.314514 225.740448 7
1.1778853558492328 -0.73204451311986551 2.6772413710179088 236 255 215 558.976318 186.325439 7
-0.92942980231417271 -1.9287854121315775 5.4278961169931241 255 194 212 315.319977 154.076813 7
-1.6023548748714487 -0.30211809862683114 2.8684124222128848 241 243 245 168.409531 247.239532 7
-1.0825297894521735 -1.5867365324637497 5.4275930543871604 208 221 233 308.153625 175.575897 7
