ply
format ascii 1.0
comment Written with hapPLY (https://github.com/nmwsharp/happly)
element vertex 136
property double x
property double y
property double z
property uchar red
property uchar green
property uchar blue
property float ix
property float iy
property uchar octave
end_header
-0.52894702738378419 0.404775916465625 1.9615250875509846 255 177 187 283.200012 367.200012 1
-0.59943041041523504 -0.99644333984812916 4.4692036103352484 236 241 255 333.600006 201.600006 1
-0.4625395540398638 -0.63213847986037863 1.8823347628982403 215 230 255 289.200012 159.600006 1
-1.1836494319054647 -0.37764949304399731 2.635942784558539 255 90 109 211.200012 235.200012 1
-0.048683966474372564 -0.0083663245514545292 6.1593935512596696 120 140 255 381.600006 285.600006 1
-0.44331969106704117 -0.33528452123911828 2.0112103034167332 236 243 255 297.600006 223.200012 1
-1.3036860751441015 -0.2823199257515332 2.2208367181941808 255 126 138 159.600006 240.000015 1
-1.1457092829858304 -1.0047467646120936 1.9912346838213146 78 94 119 164.400009 93.6000061 1
-0.75791669784143867 -1.4921655226270125 4.5748440447848475 231 255 201 318.240021 161.279999 2
1.3712541613518792 0.50930837361348524 1.5639112461238751 153 255 161 722.880005 414.720032 2
1.2982108804690822 0.38866802972446957 1.3969158724751973 217 255 215 738.720032 393.120026 2
-0.74680876268691687 0.44016227976867178 1.9454099119735626 139 255 147 234.720016 375.840027 2
-0.28725853185671424 0.52046787587246923 2.0537609067742655 255 233 234 331.200012 383.040009 2
-1.1762658939424049 -0.70430031730617926 1.9412181746802264 255 209 218 151.200012 148.320007 2
-1.4646868316593591 -0.054613383242692048 3.4364987753882845 76 89 111 220.320007 279.360016 2
-0.45978032299644633 -0.34100494876998128 2.0508224374526001 229 236 243 296.640015 223.200012 2
-1.1075934489820956 -0.44842208502083447 1.9230943323628793 132 255 96 162.720001 198.720001 2
-1.1696618133100216 -0.13944583128328047 1.9951281179524671 155 255 134 158.400009 259.200012 2
-0.98604700191384431 -1.904346767388172 4.4386278508785288 223 255 173 298.080017 123.840004 2
-1.4842850716734826 -1.1012767740338729 2.2180547499489496 223 255 205 126.720001 95.0400009 2
-0.89125201196415027 0.54420784435952474 2.598950253563677 96 84 255 253.440002 371.52002 2
-3.3350257050741519 0.4927212217020227 3.8263792844668005 200 123 123 48.9600029 336.960022 2
1.2551964217401761 0.36619685363976917 1.6377715218436371 43 59 255 681.120056 374.400024 2
-1.1347205915151042 0.19467343001783141 2.8211659245746379 255 121 123 231.552017 312.768036 3
0.88547272466910576 0.4181176451187647 2.916989340215526 255 152 155 499.392059 343.87204 3
1.5876168153114805 0.13120587186387417 2.3980445158503239 255 75 143 639.360046 311.040039 3
-1.3559631878378773 -0.20762507280836762 2.0274244708281035 245 255 241 126.144012 247.104019 3
-1.1612104029402994 -0.25077405297934902 1.9730930563093474 159 255 133 158.976013 238.46402 3
-0.99124557063861252 0.38995402131520529 1.7261655425640892 221 255 227 162.432022 374.976044 3
-0.8327656516736317 0.32060190513984749 1.6458224372611125 13 255 22 190.080017 364.608032 3
1.0657580055693261 0.37728005299689227 2.3342572918129036 148 255 113 558.144043 352.512024 3
1.0574627065793785 0.42331907471288227 2.773307485585315 129 255 99 530.496033 345.600037 3
-0.68023249950777043 -1.4195748757031044 4.2838676699110891 217 232 255 321.40802 162.432022 3
-0.30644989787368471 -0.17291514951060799 1.40103236101685 239 245 255 297.216034 241.920029 3
-1.3265672085394575 -0.54422387762620017 1.9695424902588514 237 238 241 124.416016 181.440018 3
-1.099893618765567 -1.1211122862931571 1.893178326855808 123 255 79 162.432022 63.9360046 3
-1.1361807335407588 -0.93625230198204434 1.9387071921774188 126 151 255 157.248016 103.680008 3
0.915586513243972 -0.47193520076818429 3.1821328587709719 237 240 244 492.480042 229.82402 3
-1.0895859304416171 0.36201854609815198 1.5895513965666108 217 255 223 122.688011 373.248047 3
0.51893841694611509 0.51386641534482336 1.1907973765679958 140 155 178 552.960083 452.736053 3
0.48441486920956267 0.52699875001479168 1.340384845141628 255 98 108 523.584045 440.640045 3
1.1257059811618313 0.50374310097254749 2.4945428963715113 83 255 66 558.144043 364.608032 3
0.87310936088750224 -0.49244855280620625 4.3117502771641432 244 245 247 464.48645 244.68483 4
-1.1892955366514792 0.29946213011647288 1.9382649586295004 145 142 255 149.299225 348.364838 4
1.1825639640180599 0.25654835916262303 2.6998241808580721 255 115 129 555.724854 325.555237 4
-0.41241499221829114 0.35329793517441288 2.093702176963391 224 255 231 306.892853 354.585663 4
-1.1347205915151042 0.19467343001783141 2.8211659245746379 112 115 129 232.243225 313.113647 4
-1.1347205915151042 0.19467343001783141 2.8211659245746379 134 255 125 230.169632 313.113647 4
-1.0447062019037725 0.35845752946800757 1.8923446434599067 15 255 38 170.035217 358.732849 4
-0.48837856800216972 -0.2553345017392436 2.1200502037952704 245 255 234 294.451233 242.611237 4
-1.1007726865571006 -0.60258689413724198 1.8859421490617665 107 131 255 161.740829 167.961624 4
-1.0383151870854093 -1.9379921915575875 4.593479792739287 173 199 223 296.524841 124.416016 4
-1.3110703171449836 -0.98968814843594055 1.9521699892913604 222 255 202 126.489616 93.3120117 4
1.1188549290272278 -0.727123726797551 2.9384255293985557 221 229 238 528.768066 190.771225 4
0.94174592810433588 -0.49430650997056902 3.2982626099121068 240 244 255 493.516876 230.169632 4
-0.98110743634729669 0.38899736659400891 1.6799156220281994 227 226 255 161.740829 375.321655 4
0.45850386979960844 0.49146274876285972 1.2451377390266458 147 255 116 522.547302 441.676849 4
0.3211123994519598 0.38749894437841165 1.1454533039219301 255 228 227 491.443268 420.940857 4
0.21853796547647319 0.40633566450020975 1.5097212988876514 204 200 255 437.529663 387.763245 4
-0.66720940957699115 -0.8712537332259086 2.6389735123202414 230 255 198 286.15683 157.593628 4
-0.42781947450224589 0.36091457069773958 2.2107752044836868 223 223 224 308.551727 345.876526 5
-0.58557299789397455 0.37521968822467522 1.7114776223306336 131 122 255 253.80867 368.271423 5
-1.1139185784856664 -0.67656393003155024 1.9052458931599157 255 96 116 159.252502 151.787537 5
-1.655310300335004 0.7617888828962095 3.6401178666339522 24 13 255 209.018906 363.294769 5
-0.2931956025558744 0.44761898992629551 1.9118438305881291 206 255 187 330.946594 378.224701 5
-0.41241499221829114 0.35329793517441288 2.093702176963391 219 217 218 308.551727 353.341492 5
-0.68338409786911081 -0.90568051739829114 2.7625602637061926 230 255 197 286.15683 156.764175 5
-0.91088090253450327 -1.7208426679569424 4.0007343637513824 223 255 173 298.59845 124.416016 5
1.3660586940361077 0.50736902367941239 1.5613359408821643 161 161 154 716.63623 413.061188 5
-0.31035703003897464 -0.01354730149795183 3.4413507392691214 145 255 106 350.85318 286.15683 5
-1.3110703171449836 -0.98968814843594055 1.9521699892913604 222 255 200 126.904335 92.0678558 5
-1.2823436864588036 -0.74812067887536216 1.8965169910538195 210 218 229 124.416016 136.85762 5
-0.63575693856482829 -0.56509577470921313 2.0302979524045739 231 255 230 266.250275 184.135712 5
-0.7000852164379765 -2.0006060929097051 4.9023907661345456 180 202 224 328.458282 131.880981 5
0.56494705105508025 -0.59709494583768208 3.6422625368963395 141 164 255 445.409332 226.437149 5
-1.3629290097312263 -0.40367698620212522 2.0274717606096213 236 239 242 124.416016 211.507233 5
-0.48968574063659576 -0.25313232058601681 2.1328438090195512 235 239 244 296.110107 238.878754 5
0.87321075000176107 -0.59455898073714586 3.1735770655535021 255 234 238 487.710785 216.483871 5
-1.363985396596239 -0.41215403551577712 2.9827262597231581 100 123 255 209.018906 236.390427 5
-1.3134490830355925 -0.28554093083160953 2.2411781835720941 255 127 139 159.252502 238.878754 5
-0.42733031670620747 0.40919121832873856 1.7456238938291246 207 209 210 288.645172 373.248047 5
-1.2221315375156028 0.30258644746008084 2.0013583086250177 138 155 255 149.299225 345.876526 5
1.1087131059302098 0.23082893452186956 2.4714017699347224 121 137 255 557.383789 323.481659 5
0.070064586250878857 0.5198524914264836 1.760643565261776 203 214 213 400.619568 400.619568 5
-0.84001212252488511 0.50128748196469808 2.5092897395994296 102 91 255 253.808685 370.262085 6
-1.6716848074951129 0.58897048428130316 3.4249127409095763 255 42 48 191.103012 358.318146 6
-0.37397112691668699 0.50010967745037926 2.2428469611473094 204 203 255 325.472321 376.23407 6
-0.41750721080280062 0.41169108885373312 1.9460331996047584 109 115 255 301.584442 370.262085 6
-1.3355158232034388 -1.0104249356350399 2.0054876995152955 196 206 221 128.397339 92.5655212 6
-1.1619731977263248 -0.97002499693253696 1.9498552582259165 255 155 174 155.271194 95.551506 6
-1.0383151870854093 -1.9379921915575875 4.593479792739287 255 174 199 295.612457 125.411354 6
16.161976323411778 -18.964779826601621 33.041571946614262 255 142 176 567.337097 71.6636276 6
-0.67574314594019835 -1.3956256307104429 4.1785343119481126 255 201 217 319.500336 161.243164 6
-0.65620852311247013 -1.8725497797608357 4.6090984862644824 180 202 224 328.458313 131.383316 6
0.96051885336440301 -0.74309032038680123 2.8489002777975196 230 238 255 513.589355 194.088989 6
0.57672673162463539 -0.64350812279464509 3.9118637368475087 255 128 152 435.953735 226.93483 6
-0.45959051227706382 -0.33516154872743836 2.0447936047433553 255 229 236 295.612457 226.93483 6
-0.44059737516007225 -0.46383527163163718 1.9341930657081789 255 225 232 295.612457 197.074982 6
-0.0042003717889946834 0.51523517519679274 1.4358890129924151 192 255 164 382.206024 424.009796 6
0.30246059792199009 0.30270515895222799 1.1825316224818101 147 161 182 480.7435 385.192017 6
0.87773018400824321 -0.51469491523971722 3.3420109014615216 245 255 242 486.715485 229.920807 6
-1.1627517887703211 -0.25024229887823612 1.9726613312203809 159 255 133 158.257187 238.878769 6
-4.0828254880398909 0.57007620157391359 5.0118382393028433 255 200 111 71.6636276 331.444275 6
-1.0863889915645428 0.19299807049026954 2.6791905059865408 154 255 137 226.93483 313.528381 6
-1.2600937829989669 0.31220593055000956 2.3103429247012244 108 124 255 173.187103 340.402252 6
-1.1255867450447736 0.39689638769875335 1.6985853850844066 255 233 234 131.383316 379.220032 6
-1.8114054606627485 0.49526023140640041 2.6240209695099495 218 212 196 116.4534 364.290131 6
-1.0591149115168914 0.39812696468482839 1.8169616937882149 229 229 255 161.243164 373.248077 6
1.1159821489213142 0.45936388838434394 2.5325185771596548 255 24 35 555.393127 355.332153 6
-0.27593903038111445 0.48569968367888738 1.9984410763532909 255 179 193 331.444275 379.220032 6
-1.2782436946555986 -0.83584162995938194 1.8765572318350356 215 227 255 125.411354 122.425369 6
-1.2553578866245365 -0.19815381399018639 1.8763561659941956 242 245 255 125.411354 244.850739 6
-0.76716127841358706 -1.0917295216585967 4.9436179537912226 241 255 232 322.486328 209.018921 6
-0.73771914281195539 -1.4548854267547819 4.3600386404182672 231 255 201 318.903168 161.243179 7
27.427444509009312 -28.803988767434056 72.824143830940258 228 255 200 526.727722 136.160904 7
-0.069640301844305696 0.50032505332542332 1.6739671016466993 237 236 255 365.484528 404.899536 7
-0.42985639964590705 -0.25166954038382799 1.9461131542270951 239 245 255 293.820892 240.073166 7
0.87819080742351385 -0.50241722226799757 3.3377424585087923 255 241 243 487.312714 229.323624 7
-1.3911874735431242 -0.44966842474685209 3.050202049776896 255 87 103 207.824539 236.48999 7
-0.44210200670555677 0.2191601932183995 1.9624329664253315 217 218 255 297.404083 329.65271 7
-1.1070771716616599 0.18865705989231479 2.70538269216385 144 159 255 225.740448 315.319977 7
-0.41155442487811289 0.41157730653692826 1.9117585062703202 115 122 132 300.987244 369.067719 7
-0.73653486018642811 0.45172861073900772 2.233973713585848 104 255 108 254.405899 369.067719 7
-1.081186987381257 0.3808212920304489 1.6133245226416828 234 235 235 132.577713 379.817261 7
0.17655292761251173 0.20577870709397011 4.8701352586958331 124 147 255 397.733154 308.153625 7
0.87338720050967333 0.73136979055843465 2.1897035635883455 159 168 255 541.060425 419.232239 7
-0.93511882375492794 0.27202608258580152 1.9978258334172136 66 83 255 197.074982 340.402252 7
-1.0801868947988522 0.26921615810907124 1.9573892794336625 255 90 107 171.992722 340.402252 7
1.1280687252696184 0.22993234261375181 2.5828409265930361 255 109 126 555.393127 322.486359 7
-1.1894028449799041 0.42682205272947815 2.3598388410564954 61 22 255 189.90863 354.734985 7
-1.0591149115168914 0.39812696468482839 1.8169616937882149 179 177 255 161.243179 372.650879 7
-0.40178936297423817 0.33973588035786173 2.0692102684157296 221 220 221 308.153625 351.151794 7
-0.32594469424927941 0.51358104778667713 1.3776602146335284 145 255 96 290.237701 433.564972 7
1.4528025526126749 -0.66485776852602663 1.7708635218603304 255 220 225 695.137207 143.327271 7
0.2841477274212898 -0.52082040654968897 4.4232921661344413 126 135 146 404.899536 243.656357 7
-1.3041235336896277 -0.24243187705188474 1.974087707140014 241 242 245 128.994537 243.656357 7
