ply
format ascii 1.0
comment Written with hapPLY (https://github.com/nmwsharp/happly)
element vertex 143
property double x
property double y
property double z
property uchar red
property uchar green
property uchar blue
property float ix
property float iy
property uchar octave
end_header
-0.45390395743388723 0.23845402110670841 1.6418481769602193 222 223 255 277 343 0
-1.1916028700125327 -0.3411946071057681 1.5574820845552777 255 240 240 91 205 0
-1.2770119063672509 -1.0616225112796889 1.68108984638996 255 144 172 91 46 0
0.25400405971187601 0.31742082954261097 5.003828222049056 164 178 255 405.600006 313.200012 1
-0.69449679895651073 -1.4767652767438069 4.2971037381005885 231 255 199 322.800018 157.200012 1
1.0714460206574952 0.42306874939490741 2.352611919601455 255 138 143 559.200012 357.600006 1
-1.0903417160169417 0.41883498918479944 2.1095664099510447 255 24 33 183.600006 362.400024 1
-1.7954986581147563 -0.58653297850625208 3.7203271764224928 177 184 192 196.800003 229.200012 1
-1.2507575314332695 -1.1101983410217915 1.6467739441863896 255 149 173 91.2000046 31.2000008 1
-1.2316466287272867 -0.72774669537129966 1.6163273466327333 255 209 216 91.2000046 115.200005 1
0.53445950867632774 0.53262918213997179 1.0075559752072811 132 148 170 588.960022 491.040009 2
1.2806575572772194 -0.093282773978536238 2.2959627127001445 154 181 255 597.600037 273.600006 2
-0.39974999046356086 -0.61155778104331893 1.6085558224454162 188 209 227 288 144 2
-1.402078262554658 -0.03811336664684728 3.1686793295040108 255 157 160 211.680008 282.240021 2
-0.9720722777644375 0.35999210778778234 1.5827078270503709 29 4 255 149.76001 372.960022 2
-1.1337573869693389 0.33834908832787586 1.9135624978761356 99 255 73 154.080002 355.680023 2
-1.2692716911230888 -0.034512394749292269 1.6774577895411 245 247 255 93.6000061 279.360016 2
1.0466501768352687 0.41688553986849763 2.2919848560394716 149 255 152 558.720032 357.120026 2
-1.0485459410314881 0.19810800466199924 2.5146627392701202 255 164 166 223.200012 318.240021 2
-1.0501402307012362 -0.43120139408479163 1.6605367089615122 123 255 75 138.240005 187.200012 2
-1.9449265585046795 -0.63518779376552581 4.0316322007126342 255 136 149 195.840012 228.960007 2
-0.97357530056758623 -1.9517558462887097 4.3425531248454696 220 255 168 298.080017 112.320007 2
-1.2373774722016626 -0.90927379966872346 1.6478476926716024 188 213 255 97.9200058 76.3199997 2
-1.0755977911502188 -0.98655421852581338 1.7119015877558827 93 255 61 142.560013 66.2400055 2
-0.46633021303934541 0.4246198727543346 1.6886662716205088 255 46 54 279.360016 385.920013 2
-1.0618332892822355 0.38795165224739558 1.38378685148751 227 255 229 90.7200012 398.880005 2
-0.92361665119335923 0.4093425722943661 1.4426890874872877 24 13 255 141.12001 396.000031 2
-1.197303034607061 -0.56666755078399733 1.5745490856348785 233 237 255 93.6000061 151.200012 2
-1.2429481960808921 -0.51774557344501104 1.6464786142757828 238 241 255 93.6000061 168.480011 2
-0.21471759451241468 0.52930327357537099 1.7241602113584382 255 234 235 335.232025 404.352051 3
-0.36299473111568492 0.42941528199252055 1.62543272034929 82 96 255 297.216034 387.072021 3
-0.42444380382314995 -0.34086965043669198 1.9071253453909454 255 228 235 295.488037 216.000015 3
1.2396950962465048 0.094315154167113419 2.1689938698286042 123 145 165 604.800049 307.584015 3
1.3088980923484574 -0.09520203215254272 2.3933877025371801 116 152 179 596.160034 273.024017 3
-1.1172803849615365 0.3207483726234871 1.6578900016612823 102 255 88 126.144012 361.152039 3
1.0964490148879509 0.43415279612382562 2.4412273498715358 171 255 126 558.144043 355.968048 3
-0.24805923244322425 -0.010914255200311418 3.282434487530999 255 99 120 355.968048 286.848022 3
-1.5133363338269223 -0.5018543100313626 3.1274324791258366 177 184 192 196.99202 229.82402 3
-0.63714985991720718 -1.9630909739933768 4.5755158182169247 255 171 197 331.776031 120.960014 3
-1.2626546452963381 -0.92298384337418771 1.6918230381271262 213 255 166 98.4960098 76.0320053 3
-1.275560179107019 -0.8350014311092876 1.6930307404209244 218 227 255 93.3120117 98.4960098 3
-1.0573427966459965 -0.66084502490225705 1.6467685941259695 255 69 93 139.968018 134.784012 3
0.7221089738930706 -0.62092010823935417 3.8983757279014624 213 220 228 456.192047 228.096024 3
0.97193808392839121 -0.44780689463105761 2.8784707988537006 255 234 238 511.488037 226.368027 3
0.51710130432444656 0.50913643512276097 0.95931181716195679 255 133 148 587.520081 490.752045 3
0.1961315861829922 0.52165722917042512 1.5373958592698833 209 205 255 433.382446 418.867249 4
-1.3149829483232534 -0.38666591717557242 1.7727517332773441 255 241 241 95.3856125 203.21283 4
-1.2558966228869535 -0.97375841452722978 1.6889654614629155 255 148 176 99.532814 66.3552094 4
-1.2121107355323852 -1.0099589461974716 1.595854667179625 170 205 255 93.3120117 45.6192055 4
-1.0839536737533053 -0.98587472426770262 1.7179982987136899 71 96 255 141.004822 66.3552094 4
-0.0049714572656496259 -0.0039241796087865211 6.4698716386934851 255 98 119 383.616058 286.15683 4
-0.61053593905350034 -1.3986666309709892 3.9775706841278904 214 230 255 321.408051 155.52002 4
-0.86220593719798977 -1.7199560324730627 3.7702994079846839 221 255 169 298.59845 114.048019 4
-0.62801637427280488 -0.069396236684153262 1.780320886700951 222 223 224 248.832031 269.568024 4
1.0637821297966208 -0.51094698226990753 3.2632849060115463 235 239 244 512.17926 226.02243 4
0.99635590238029126 0.53852437501482586 1.2942131834030515 41 255 51 682.214478 449.971252 4
-1.1111063151755589 -0.12211511651577456 1.7268482661579521 108 255 69 134.784012 259.200043 4
-1.0729405950426414 -0.18502265618680414 1.6703406759503929 80 255 46 134.784012 244.68483 4
0.5785124541794735 0.5340738645853178 0.9132616424136355 153 255 112 626.227295 510.105682 4
0.83426185814321663 0.53532260267958531 0.94112418466242742 127 144 255 725.760132 508.032074 4
0.13023175284216926 0.36443009317630704 1.3019689522147573 180 189 192 420.526154 390.66629 5
-0.58340065169822619 0.41139913154178859 1.4169059782633524 145 147 143 228.925476 398.131256 5
-1.163382382099778 0.32262785815967066 1.7351477615941473 86 101 107 124.416016 360.806458 5
-1.2558966228869535 -0.97375841452722978 1.6889654614629155 255 148 177 99.532814 67.1846466 5
-1.0692995860431749 -0.43116934399490625 1.6582923863832377 78 96 120 136.85762 186.624023 5
-0.96433350820465558 -1.912964361673144 4.2833033490233818 221 255 169 298.59845 114.462738 5
-0.3029624121981711 -0.012053806555069935 3.7184029615420524 255 99 120 355.829803 286.15683 5
-1.0868520692998489 -0.97515157282765563 1.6982158548001332 26 34 55 136.85762 67.1846466 5
-0.93021334341379536 0.42592592711102062 1.1876389870964288 255 231 232 87.0912094 423.014465 5
0.2930938011527715 0.51428180548352875 0.88974120819911162 255 224 223 507.61734 507.61734 5
1.1714048135801267 -0.82247800814848349 3.0219486289851956 232 238 255 537.477173 184.135712 5
-0.011841661538548154 -0.013593107734862164 6.08789039926884 120 140 255 385.689667 286.15683 5
-0.64899502194701331 -2.0114856860321022 4.6991267955693639 222 255 173 330.946594 121.927696 5
0.38026424554520388 0.40489329700198728 0.85560942424887099 120 140 255 557.383789 470.292542 5
-0.57469421337028104 -0.54616090024296304 1.7582181003102333 226 227 227 256.296997 169.20578 5
-1.079849242834809 0.21120667788415326 2.5638754866526829 159 168 255 221.46051 318.505005 5
-0.55379971988627119 -0.10220784750865189 1.7923288615294859 141 255 108 266.250275 263.761963 5
-0.42762400646922183 -0.23635785214085925 1.8477715621416517 235 240 245 296.110107 238.878754 5
0.56395325069233593 0.56371011596450915 1.0601452229832438 255 133 148 587.243591 490.199097 5
-1.2843354248532606 -0.41833866678198939 2.6880090335268489 224 223 255 201.553955 231.413788 5
-1.0773482674679329 -0.18493405347880165 1.6608187658305855 91 255 56 134.369293 243.855392 5
0.39833896595051144 0.42898868504443521 0.92170262471159337 140 255 107 554.895447 467.80423 5
0.22094016741198175 0.24475959940569367 3.9456010637419334 255 122 140 403.10791 308.551727 5
1.1947975261672517 0.26329638161915764 2.2601451525209555 131 153 255 589.731934 333.434937 5
-0.98945443012979384 0.37836262278377275 1.6309840898720762 22 0 255 149.299225 373.248047 5
1.193399186839375 -0.69952152728962091 2.6559724282272734 237 255 219 558.379089 185.131042 6
-0.79670139829374875 0.43433125653602583 1.2224440514899166 255 153 165 131.383316 421.023834 6
-1.2780108625503903 -0.99342494271745263 1.738159521692253 209 255 147 98.5374908 65.691658 6
-1.037826733793493 -0.81453855387281349 1.6313565145349873 76 98 123 140.341278 98.5374908 6
-0.026503237819629266 0.014284301195283122 6.0436957530907076 120 140 255 385.192017 286.65451 6
0.33639518943108992 -0.51828975334898186 4.2960982659118967 138 152 157 412.065857 241.864746 6
0.64276620064038381 -0.66863640444904293 3.8827414026541192 255 70 118 447.897675 223.948837 6
0.44501246929013982 -0.65447089437610839 4.0624779934782698 132 151 165 424.009796 226.93483 6
-1.0412328647557287 -0.5843022538421575 1.6165261153891373 106 255 58 134.369308 152.285217 6
1.022663433471418 -0.71218112009246293 2.5643688869451742 232 238 255 537.477234 185.131042 6
-0.013788442033406012 0.60018148488526546 1.6625506221859769 255 212 220 379.220032 432.967773 6
-1.2955679054655387 -0.39603866374237473 2.6985714650440871 220 221 222 200.060959 229.920807 6
-1.107544601774908 -0.23300945086845959 1.7096001590187768 92 255 59 134.369308 235.892776 6
-0.62691119212859103 -1.3945829637645728 3.9546641396528939 230 255 197 322.486328 155.271194 6
-0.63189362269710525 -1.9849451718455007 4.6105955544778281 255 173 198 331.444275 122.425369 6
0.97620646419274648 0.5335876233723883 1.2593444945711743 76 98 255 677.818481 447.897675 6
-1.0329944658180077 0.21042232512217496 2.4240203116803789 181 187 255 217.976868 319.500336 6
-1.2323618520273598 -0.0017940704375118965 2.0675618017621034 106 130 255 149.299225 289.640503 6
0.53101152852207267 0.54002170088415813 1.055221542287804 173 255 133 582.266968 489.701477 6
1.0668303089809901 0.5277607513337208 2.1272711430355873 113 115 112 576.295044 382.206024 6
-0.4535374878996703 0.49255229927806132 1.7943724648416914 235 255 234 286.65451 394.149963 6
1.1716424657981639 0.2527220196012559 2.2200621005730206 105 121 144 588.238953 334.430267 6
-1.0422855027818576 0.42943632587556474 1.6314400958850568 19 23 13 140.341278 394.149963 6
-0.22989775776498922 0.51747883212592427 1.8063424550108715 212 255 190 334.430267 400.121918 6
-0.34737467787995158 0.37067162590325137 1.8101857047982119 176 255 144 310.542389 367.276093 6
-0.28370870942522464 0.0069796450040083835 3.7628442677527492 255 99 120 355.332153 286.65451 6
-0.94101440240839906 0.41205907222098526 1.4473657329964151 255 16 18 139.74408 394.149963 7
-1.1069132728137583 0.46922301924919596 1.9175984638842944 19 13 255 157.659988 383.400421 7
1.3916267689536881 -0.5503256671281489 2.8666437278709873 229 235 242 576.892212 214.990891 7
1.1785901182405376 -0.70330982533868069 2.6408521713065323 255 221 229 555.393127 186.325439 7
0.33639518943108992 -0.51828975334898186 4.2960982659118967 140 153 156 412.065887 243.656357 7
0.63386036565272263 -0.66809622144488157 3.918994485347163 60 112 141 444.314514 222.157257 7
-0.25983157888926955 0.52748630542348973 1.071588813604412 125 145 255 293.820892 480.146332 7
-1.3073026073013851 -0.86587224376023486 1.7571264191396088 218 227 255 93.1627197 96.745903 7
-1.117022717453481 -0.95812106380430451 1.7031481716255557 35 49 71 132.577713 68.080452 7
-0.60182175438981655 -0.56907897502414739 1.8469807561053755 226 255 223 254.405899 168.409531 7
0.82719886009340404 -0.31070553995000544 2.5528285718450503 239 242 245 512.394958 236.48999 7
-0.38129823375356642 -0.31047752028846731 1.727992133615432 235 242 255 293.820892 218.574081 7
-0.38209020318366171 -0.44150870454646252 1.676725688965075 233 239 255 293.820892 186.325439 7
-0.56877275599106492 -0.45651769414455234 1.7570561650298924 227 228 255 257.989075 186.325439 7
-0.68463391800301032 -1.4494340113903765 4.1189180307487572 230 255 196 322.486359 154.076813 7
-0.58203067596027314 -1.8429198773111282 4.2801813599559164 198 222 255 329.65271 121.828178 7
-1.0281232508768983 0.16959633148329456 2.87006716986106 255 139 143 243.656357 315.319977 7
-1.0652390110910357 0.11064620130210068 2.3616613024184234 255 120 126 211.407715 311.736786 7
1.3297676080367915 -0.077442412802340349 2.441080055314246 166 255 109 594.808167 279.488159 7
-1.3080934950081335 -0.17634009139498802 2.9323019016413685 255 224 226 211.407715 265.155426 7
-1.3744183784927899 -0.44209049746226481 2.8783255286975153 221 222 221 200.658173 232.906799 7
0.93882799970750441 -0.49564512908188507 3.0713127395686239 239 244 255 501.645416 225.740448 7
0.52396846111317874 0.53179900717732242 1.04244654531781 136 153 176 580.475403 490.895874 7
0.76333542457092185 0.56680226469753514 1.2317274421166986 255 129 144 619.890442 469.39679 7
0.91389845131577208 0.48563642240920685 2.5711806924789053 255 54 62 515.978149 354.734985 7
-0.005848361518926648 0.54547493351219123 1.4810362391254288 255 210 220 383.400421 433.564972 7
-0.64022561928782951 -0.078476032525481854 1.7888038338697689 255 225 226 247.239532 268.738617 7
0.22336161908775076 0.23175547559406662 4.8323941476257444 127 146 255 401.316345 308.153625 7
-0.34725757107249633 0.4295766021291163 1.6274820742118119 57 67 80 300.987244 386.983612 7
-0.21245631853664104 0.50406198883637077 1.7182420346732616 201 209 219 336.819061 401.316345 7
-0.92906778710680671 0.29871018137375172 1.8089817500758527 7 255 16 186.325439 351.151794 7
0.79158248533118547 0.53568639361342252 1.1245550296303852 59 74 92 648.555847 469.39679 7
