ply
format ascii 1.0
comment Written with hapPLY (https://github.com/nmwsharp/happly)
element vertex 180
property double x
property double y
property double z
property uchar red
property uchar green
property uchar blue
property float ix
property float iy
property uchar octave
end_header
-1.5784464901067419 -0.61179765076202441 3.0659860299951363 255 230 234 187 211 0
-1.6311495631292576 0.049198006359963825 3.1457576889621532 255 241 244 187 295 0
-0.099517899248816377 0.31546168184818396 0.82359105926165133 221 220 255 337 436 0
-1.5458186922385826 -1.2015005635020815 3.0156226446394969 255 196 210 187 136 0
-1.6347531693185795 0.342264063532006 3.1623156280162168 255 151 162 187 331 0
-1.7437157929200318 -0.034158164657654061 3.0647981768762849 247 255 244 166 283 0
-1.5699179006896609 -0.75623203232316794 3.4517203697567203 255 186 197 211 205 0
-1.3369221542603693 -1.9178582287601282 5.320592924623063 226 255 190 286 148 0
-1.5413963840332241 -1.4741076830105206 3.007496427083086 255 175 194 187 100 0
-0.5135479061494892 0.43972275888183443 0.8128256048878979 163 255 173 142 496 0
0.55726428796691785 -0.25011281788067852 0.62009116872771086 255 180 202 727.200012 133.200012 1
-1.6039158283430588 -1.3821575345437167 3.1209695014306709 219 255 182 186 117.600006 1
-1.7704148605168104 -1.3736871773553183 3.1004152274211356 204 212 224 164.400009 117.600006 1
-1.586232546940245 -1.5129615991545393 3.0808092625554622 255 175 194 187.200012 99.6000061 1
-1.7894084640709771 -1.5315022705441643 3.1171743618736003 255 176 195 163.200012 99.6000061 1
0.54205118499925009 0.40498592505717024 0.62657610151133736 255 3 3 715.200012 537.600037 1
-0.3810360523534424 0.4240326275836962 1.4933334540394347 111 117 255 285.600006 399.600006 1
-1.5394795929659217 -0.9098385880709372 3.014917898972536 217 224 233 188.400009 171.600006 1
-1.6420374950293537 -1.0445638520592013 3.1596060575538267 255 208 218 183.600006 159.600006 1
-1.7567235099842105 -1.0698613946263544 3.0763495585932361 208 218 230 164.400009 153.600006 1
-1.5866427840907087 -0.76392560726736425 3.0837094941076248 255 229 233 187.200012 193.200012 1
-0.6144413002368887 0.37562611622217079 1.0874980550417082 211 211 255 169.200012 421.200012 1
-0.65676968932660884 0.35682049811191913 1.2761095618342659 255 123 127 187.200012 397.200012 1
-1.5541872210006851 -0.38179664328490259 3.035016371369454 255 240 241 187.200012 240.000015 1
-1.8188650206019852 -0.33598143106415562 3.1662416588846041 255 240 242 163.200012 248.400009 1
-1.8391485374050638 -0.48882347326408215 3.1968176636546972 240 243 255 165.600006 229.200012 1
0.52255403551873059 0.47282093863918179 2.0729313340907916 127 146 255 481.200012 375.600006 1
-1.5540720980428016 0.11885242128772344 3.9004650243831716 255 107 126 231.600006 301.200012 1
-1.6694030771020154 -2.1635106652610241 3.1949260953723471 255 118 154 183.600006 27.6000004 1
-1.5665009852579641 0.29053244425310676 2.7579222711430225 214 202 255 165.600006 328.800018 1
-0.079061454526334174 0.39805666902004067 3.0429014305918951 255 202 214 375.600006 337.200012 1
-0.64139126309656702 0.33510205124667153 1.2949615655537356 104 23 255 193.200012 387.600006 1
0.58717384495505776 0.32355331187914832 2.9812439152980539 127 136 255 457.200012 330 1
-1.7195709334050386 -0.074231823112710482 3.2446673774182457 245 246 255 181.200012 279.600006 1
-1.7965835759146045 -0.073927082354644597 3.2050466310196226 245 246 255 169.200012 279.600006 1
-1.6244163284111162 -0.23839457726515567 3.0760428814000509 244 245 255 181.200012 258 1
-1.1413712594745862 -0.16377357099795153 3.2126046862107529 255 71 90 247.200012 267.600006 1
-0.053720552415607914 -0.7676667866732898 5.5850782304162463 161 156 255 381.600006 235.200012 1
2.0889640527395743 -0.13260570869103941 3.9464516198614605 134 156 255 585.600037 273.600006 1
0.55327491313978872 -0.52404578239857891 0.79702794589924575 255 116 155 651.600037 37.2000008 1
-0.091494499725474299 0.30457706897430803 0.79068382980397955 221 221 255 337.200012 435.600006 1
-0.092713062473808172 0.4407471517204678 0.83335832845161661 215 255 215 342 492.000031 1
0.088612451437691586 0.47883527789501401 0.81889740598820793 255 65 76 427.200012 512.400024 1
0.53512576555704083 0.1471679501923206 0.63488194727934544 155 177 255 709.200012 376.800018 1
-1.0898982678114084 -0.56162803360846625 3.1838583291002411 119 138 255 253.440002 220.320007 2
-1.0494817231284066 -0.71297887357911072 3.1000214701477109 116 136 255 253.440002 200.160004 2
-0.5657285439793176 0.34923895115793824 0.68281542186712074 96 125 139 64.8000031 482.400024 2
-1.918521819686851 -0.90220370161215602 3.3221914047809937 237 255 228 162.720001 182.880005 2
-1.6136133751731787 -1.0245348783765316 3.1057390344095501 230 255 208 182.880005 159.840012 2
-1.8117863741702593 -0.94798158713890279 3.1502583639965756 233 255 219 162.720001 171.360001 2
-1.5827166437407767 -1.0704593491429331 3.0801318813954399 255 206 217 187.200012 154.080002 2
-1.5775141801783499 -1.298213296892216 3.0626132662912324 203 221 255 185.76001 125.280006 2
0.54723250371146881 0.50517923454077041 2.2213335681381339 114 125 143 480.960022 375.840027 2
-0.57337551496686245 0.37541222470291835 0.69615228472366963 130 255 85 66.2400055 493.920013 2
-1.7271634375423837 -0.32368086559092601 3.0413074177940969 244 255 240 162.720001 247.680008 2
-1.517963511071013 0.32537800725293953 2.9665037524088209 162 180 255 185.76001 331.200012 2
-1.5158341235935939 0.28189297023857951 2.6725287364604822 214 202 255 165.600006 328.320007 2
0.55373020469249812 0.35591880636008871 3.9696324164659895 131 151 255 437.76001 321.120026 2
-1.5153312759897966 -0.19854390563035695 3.1037088277176168 255 243 244 195.840012 263.52002 2
-1.0090816205871862 -0.35698368274712361 3.4849554155216085 226 227 255 273.600006 249.12001 2
-0.058111252205398367 -0.75991162847644944 5.4840532629698178 161 156 255 381.600006 234.720016 2
-1.6291963548571351 -1.6646773182447068 2.934823685619929 175 207 255 169.920013 70.5600052 2
-1.7148083726887591 -2.0702185739694619 3.087788092841715 255 122 156 171.360001 31.6800003 2
-0.1916079393103971 0.33252789898039226 0.75847124903177154 221 255 221 286.559998 453.600006 2
-0.081138509288120275 0.41829949081418311 0.78494092853520114 217 255 217 342.720001 491.040009 2
-0.8812688364853698 0.28522031899913242 1.0036069812365134 82 103 100 44.6400032 397.440002 2
0.54999909122924384 0.41275236817091931 0.64262660281698447 4 255 0 714.240051 535.679993 2
0.34984757610421058 0.44373830054317687 1.4080164980883589 138 150 168 476.640015 407.52002 2
-1.2309732673642584 -2.2292969930685458 6.4374670470000535 255 192 210 311.040009 154.080002 2
-1.0657975656827263 -0.71906127008938259 3.1447057804846574 97 114 135 252.288025 198.720016 3
0.087582391527448067 0.47390822626366536 0.802342552488432 75 88 255 425.088043 513.216064 3
-1.7211123723846553 0.38879361869781487 3.369854948234094 180 255 151 186.624023 331.776031 3
-2.3197779302597934 0.42915814831672722 4.0197117708944994 214 202 255 165.888016 328.320038 3
0.54894739827150174 -0.24615409887311274 0.6071922431157013 201 222 255 729.216064 134.784012 3
0.38613426852003929 0.49106805588317581 0.91074679279401516 219 219 219 544.320068 492.480042 3
-0.010419968379840494 0.45120112936526574 1.8496607523244935 255 155 165 383.616028 381.888031 3
-0.0792941727287928 0.3293723558680679 2.8909465765301348 181 255 175 374.976044 330.048035 3
-1.539555799571414 0.12267511792246114 3.8269500681563997 255 105 123 231.552017 300.672028 3
-2.2239803937294176 0.5792720545267247 3.3715639158106496 255 86 115 131.328018 354.240021 3
-1.1114754977107375 -0.16114959964618411 3.1318215168498726 85 106 255 245.376022 266.11203 3
-1.5488243543011091 -0.70195939410207664 3.1582134646675528 255 231 234 195.264023 202.176025 3
-1.6356906088626966 -1.0389875431523539 3.1329050469919961 255 208 218 183.168015 158.976013 3
-1.4372412718225895 -0.12085137761843218 1.5730895909289004 175 175 171 32.8320045 257.472015 3
-1.8455484504973132 -0.4098050096796706 3.254594048429297 242 244 255 165.888016 240.192017 3
-1.7485418488279012 -1.7681570660254164 3.1267020159605723 175 207 255 169.344009 70.8480072 3
-1.7288801829096285 -2.0895218265641318 3.1084260813139708 255 121 156 171.072021 32.8320045 3
-1.600997904663485 -1.5223756013921654 3.0889209608928132 216 255 174 186.624023 98.4960098 3
-0.50679258157070262 0.30783971792119735 0.56469786872899008 255 151 160 39.7440033 495.936035 3
0.5376266147563219 0.32699172203173432 0.64178703722844843 7 255 0 706.752075 485.568054 3
0.5093986781250075 0.041115774707445089 0.61996482398595099 255 134 146 699.840088 311.040039 3
0.6137330497084712 0.19143853596160865 1.0253696989334709 255 120 138 615.16803 359.424042 3
-1.1216366341155131 -2.0544607829711601 5.9274110336795314 255 193 211 311.040039 155.52002 3
-1.4171534470422444 -1.9817901142605105 5.8391172984372179 211 228 255 293.76004 157.248016 3
-0.038597265457446461 0.41393070613208649 1.4839033259788197 255 94 102 375.321655 398.131256 4
-1.7902301212325469 -1.0951432729463773 3.1436427418898747 218 230 255 165.888031 153.446426 4
-1.7617275278205815 -0.31052970891903298 3.1060621108148743 243 245 255 165.888031 250.90564 4
0.6879659410488288 -0.8309271879601392 4.212893770072335 239 242 255 449.971252 209.433624 4
-0.42605297053146263 -0.080317518698666435 6.5226667645196432 135 255 92 358.732849 284.083252 4
-1.2678864734416604 -1.6409685015995734 5.8445442652454469 233 255 211 298.59845 180.403229 4
-0.23434128568140733 0.45059283103786052 0.86136873605462005 255 208 209 279.936035 487.296082 4
0.52385379292383283 0.18340607534510739 0.6388041612139117 141 255 110 698.803284 398.131256 4
-0.089098671783294447 0.43093947640283647 0.81503627055230132 217 255 217 342.144043 491.443268 4
1.9741650107096507 -0.12476609274014372 3.5543568526317157 255 128 129 595.123291 271.641632 4
0.34049838269148935 0.42839037655859757 0.78503482930484636 218 217 255 549.504089 499.737671 4
-1.15392026519394 -0.16922061863967081 3.2303620882489303 71 91 111 244.68483 265.420837 4
-1.7890586324031821 -0.4910129621346434 4.083328318803308 138 157 255 213.580826 240.537628 4
0.12846244331035273 0.45255741758798163 0.8003007054392246 110 126 255 441.676849 505.958466 4
0.36223226658362173 0.46841933402620251 1.4909616616366912 170 255 138 474.854462 408.499268 4
-1.886167126989585 0.17349737621113967 3.1646417437374561 231 238 255 153.446426 304.819244 4
0.41999032102275102 -0.49070967264865351 3.8141734911106822 231 236 255 425.088074 236.390427 4
0.35474536490511888 0.47148155636596717 1.5536570041463968 164 255 132 470.707275 404.352051 4
0.50986215705803695 0.26173028157822659 1.0659562908760156 16 30 255 569.825378 383.201324 5
0.012750971763688224 0.43921101779832017 2.5204355592726904 255 217 217 383.201324 355.829803 5
-1.6289108319538879 -1.0600068070375828 3.1068115402019689 207 218 230 184.135712 156.764175 5
-1.4774793980979313 -0.90816927081195864 2.6117218666221755 230 255 208 166.717468 154.275864 5
-1.7306899319917455 -0.31878036348159433 3.0755215008259862 245 255 241 166.717468 248.832031 5
-1.7682821588753002 -1.7192069392689571 3.1019939958366778 151 178 208 164.229141 74.6496124 5
-1.7246037855202498 -1.7621245048660845 3.0985182619018312 255 147 174 171.694107 69.6729736 5
15.657670620680509 -19.017493401700769 33.612265337341412 207 255 135 562.360413 72.161293 5
-0.22243971104472093 0.37533269639429612 0.87167246387329111 220 220 219 288.645172 452.874298 5
0.54526475700507238 -0.18128045175444263 0.62725606323520045 255 103 120 719.124573 176.670746 5
-0.092365130671939966 0.43218608147410131 0.82768646429317494 223 223 222 340.899902 487.710785 5
0.51788518596162547 0.1803372710565061 0.63126894746517692 130 146 255 701.70636 398.131256 5
0.52285233816633736 0.146331604048824 0.6425694145735199 136 159 255 701.70636 375.736359 5
0.45932726728496232 0.39548665272513134 0.6320097678453851 28 35 255 661.893188 525.035583 5
0.52757480287715708 0.32154694900988728 0.62952654360433602 10 255 0 706.682983 482.734161 5
0.34746799595340172 0.46744276038326943 1.3190804151372322 255 211 210 487.710785 420.526154 5
-1.069064151956777 -0.71829550190804337 3.1510475636417654 115 135 255 253.80867 201.553955 5
-0.63861648127019643 -0.87439087728361353 3.0367442748224627 233 255 210 298.59845 179.159058 5
-5.5451796412781649 2.3561358314825505 6.9626281771838405 255 170 181 79.6262512 418.037811 5
0.087822763931466818 0.48959568358280869 0.8336981857044834 77 90 255 425.502777 512.593994 5
-1.1319364106154417 -0.16769571746648193 3.1633385204224793 255 74 94 243.855392 263.761963 5
0.92222094846213043 0.11919470635601995 2.8715494107535875 255 100 124 507.61734 303.575073 5
0.38471904981040028 -0.47264113442649347 3.4674722663740623 255 164 204 423.014465 236.390427 5
-0.64960071291434129 0.37987118454220692 2.8585545305347244 189 199 210 296.110107 340.899902 5
-1.4860336374666447 0.13101146005401382 3.7097014920660651 108 126 144 228.925476 301.086761 5
-1.5963778811091909 0.33254970806327672 3.1174139634489384 188 255 165 186.624023 330.946594 5
-2.435135904751061 0.33495068581190174 4.1772544494435717 147 146 255 161.740829 318.505005 5
-0.40391536181713494 0.4348804990716747 1.5571878733202871 255 88 120 283.668518 395.642944 5
-1.0830188317902469 -1.9529018509048939 5.6956193228895415 255 195 212 311.040039 156.764175 5
0.3533008854974049 0.47871650249875786 1.3916430869601881 209 255 206 486.715485 421.023834 6
-0.26887559358208946 0.021076047453261415 4.1657145869803056 255 93 114 355.332153 286.65451 6
-0.057264531116734352 -0.48358995075169275 4.438834234383485 145 150 255 373.248077 247.836716 6
-0.17739871807999208 0.32314152005336438 0.72455631818480737 223 222 255 289.640503 453.869659 6
1.9887999594845325 0.14784993861543158 3.301402096394134 255 126 131 615.112793 307.556396 6
-0.10044767432891843 0.44006012650237813 0.85416307412767445 255 220 220 343.388214 489.701477 6
-0.75189114511297461 0.33244904245828083 1.032697400518644 255 97 123 107.495445 412.065857 6
-1.3883917636519794 -1.7530965816585209 6.2300253553292926 233 255 210 298.59845 179.159073 6
0.54655451412348754 -0.38905969883157521 0.66304757879263909 141 171 206 704.692383 62.705677 6
-1.0239955855348288 -0.16311920083947024 2.8690620016074742 71 91 111 244.850739 265.752625 6
-0.87858361851720446 -0.39728313263186599 3.0931820656930116 227 255 224 274.710571 244.850739 6
0.42347364822178746 0.39007022964044186 1.7287984022724783 125 255 96 474.771545 376.23407 6
0.043192111245120124 0.48445491332291385 1.005076520557876 99 109 132 400.121918 474.771545 6
0.36064385534483046 0.47149178161188254 0.79579630149489677 219 219 255 561.365112 513.589355 6
0.4498641635945726 -0.58039266075568086 4.4169338708972949 197 206 255 421.023834 238.878769 6
-1.825551232171803 0.26486188299783464 3.1961912100769498 163 162 255 161.243164 319.500336 6
-0.49030433517679639 0.49176370744096387 1.8082798688091564 255 92 126 283.668549 397.135956 6
-0.50385366528339559 0.29949741914341543 1.5737065915899415 255 186 193 259.78067 355.332153 6
-0.20885388344686362 0.095811654818384703 5.3511990035856076 255 97 117 367.276093 292.626495 6
-0.81922672157931054 0.33486138837521512 1.2969490821387315 31 255 50 146.313248 388.177979 6
-0.88222256687776479 0.3432529004474198 1.1908969526851096 200 199 255 101.523476 400.121918 6
0.52589865358250376 0.21547291436074062 0.63220341524966739 108 122 144 704.692383 421.023834 6
-1.6784367551494439 -1.0814541227897703 3.1670244496434194 230 255 208 182.145065 158.257187 6
-1.0830188317902469 -1.9529018509048939 5.6956193228895415 228 255 196 310.542389 158.257187 6
-1.7284749701292239 -0.47921623166916327 3.9579776003439591 163 170 184 212.004898 241.864746 6
-0.9496838582679028 -1.3480449022422321 4.7255843530218256 255 207 219 307.556396 176.173096 6
-1.0802974523958055 -0.95733857206496675 3.9025874441330002 226 227 227 272.321808 193.491806 7
-1.0317613149950717 -0.68426322903889158 3.0509734728642193 132 255 85 250.822708 200.658173 7
0.53210196632386852 0.078575201450741414 0.65761860182609677 255 141 172 695.137207 333.235901 7
0.52334609702653123 0.0031942607081890811 0.64036413990324514 255 106 118 695.137207 290.237701 7
-0.93134179251003557 -0.38733746178262213 3.1992644078175219 225 227 227 272.321808 240.073166 7
-1.0550425786548456 -0.51925551144479765 3.3847993681430024 224 225 255 261.572266 232.906799 7
0.40636841581939154 -0.529115265823207 3.3910883129155387 238 243 255 429.981781 232.906799 7
0.47748412406452267 -0.63765020665207894 4.8499297432102901 255 146 177 419.232239 240.073166 7
1.2024009848501416 -0.24311258520744783 2.702644226987494 255 153 184 551.809998 247.239532 7
-1.5460895095403293 0.32984764319228649 1.980512817387412 167 255 132 78.8299942 347.568604 7
0.35789705595827237 0.46198709234517632 0.89117850896105 223 222 255 537.477234 490.895874 7
0.35532006675607475 0.47530168692953539 1.3665124143100624 255 204 202 483.729523 422.81543 7
-0.94959652323817245 -1.7243551846702103 5.0935511105148557 196 212 228 308.153625 157.659988 7
-1.4378546962720273 -0.44385211840662125 3.330766642319281 156 255 129 214.990891 243.656357 7
