ply
format ascii 1.0
comment Written with hapPLY (https://github.com/nmwsharp/happly)
element vertex 151
property double x
property double y
property double z
property uchar red
property uchar green
property uchar blue
property float ix
property float iy
property uchar octave
end_header
-1.577191509358856 -1.3745029047933071 2.6662753420344902 213 255 161 158 88 0
-1.297789543810933 -0.49191896309112115 2.5243586035810082 255 231 235 187 214 0
-0.89502029466906796 -1.5277646324737026 5.1605154492042153 208 221 233 316 175 0
-1.5502992018245481 -1.0684469318879599 2.6570584202878735 255 209 217 159 133 0
0.39783649271883337 -0.71358404111116502 4.6969399456522698 255 136 156 415.200012 229.200012 1
0.20242999930599437 -0.7126116862255879 5.0521679908588446 255 162 175 399.600006 231.600006 1
1.3486987775880728 -0.49594548564689478 1.8005271066004074 237 255 223 670.800049 183.600006 1
-1.5253559782059063 -0.98941696743679541 2.5847878905487907 218 230 255 157.200012 141.600006 1
-1.5043798501001207 -1.0346703461432583 2.5581530562357426 255 209 217 159.600006 133.200012 1
-0.70176876623487816 -1.7110562093304886 4.5453358653417002 226 255 187 322.800018 145.200012 1
-1.6377387215088199 -0.7213700791735248 2.8071492673083807 236 239 255 157.200012 189.600006 1
-1.5815393259705268 -0.30136763526700128 2.6786209151492488 255 240 242 159.600006 243.600006 1
-1.5490330098144276 -0.44504467630187405 2.6255038904030608 241 244 255 157.200012 223.200012 1
-1.4492101704815772 -0.16607531291234043 3.5067244633045958 104 129 255 225.600006 272.400024 1
-1.5893058170885239 -0.92606501810582498 2.6729307389836214 220 231 255 157.200012 153.600006 1
-0.90448854618398533 0.34175060727926226 1.9170318404004778 233 232 255 201.600006 354 1
-0.18712559834179343 0.4339078206294274 2.2160323778985811 236 236 255 349.200012 362.400024 1
-1.4628406352309948 -1.3094790763204305 2.5072770422369977 213 255 161 158.400009 87.6000061 1
1.3009055537806367 -0.73436141072398664 2.4464800512628981 219 233 255 589.200012 171.600006 1
-0.24883640672758633 0.45822719970499182 0.6848400455003858 255 59 86 243.600006 543.600037 1
-0.51556279114571391 0.51406007688251987 2.8249734696958386 255 208 214 315.600006 357.600006 1
-0.86785995906231594 0.47089603370748379 1.1691524246226259 255 30 46 99.3600006 442.080017 2
-1.3368620060469598 -1.3374747131894642 2.5798407752583095 155 183 212 184.320007 87.840004 2
-0.85782297433760446 -0.97890800270765932 1.6267630967391082 169 206 255 181.440002 57.6000023 2
-1.2846116665158438 -1.162475017231017 2.485615157496913 202 221 255 185.76001 109.440002 2
-1.5096955326397974 -1.1528775590649678 2.6263884132862962 229 255 215 162.720001 120.960007 2
-1.3196345316556615 -1.2602271373082914 2.5374168682538927 218 255 178 182.880005 99.3600006 2
-1.3445729742204842 -0.290393548136754 2.5668288594081083 242 245 255 181.440002 243.360016 2
0.75966793515911202 0.47774551449031283 1.4528338984877354 255 135 157 587.52002 414.720032 2
-1.3151953953119828 -0.72286917837564102 2.5349674774601505 236 255 222 182.880005 177.12001 2
-1.3226619892015621 -0.81260613779386925 2.5513705408521909 223 233 255 185.76001 167.040009 2
-0.57249469679021914 0.30675281427293011 2.6201434156596028 236 255 235 298.080017 332.640015 2
-1.5031810812756068 -0.037549603804690246 2.6236192010327848 247 255 245 162.720001 282.240021 2
-1.3696539332129696 -0.20430516601316867 2.5518506997480808 244 246 255 177.12001 256.320007 2
-0.85089427439982801 -0.53450078373002263 2.6877822206677191 228 229 230 264.960022 210.240005 2
-1.3218290806052853 -0.72703252582193767 2.9523510710027168 110 137 255 213.12001 194.400009 2
-0.96512371941079422 -1.5525960825466512 5.2392925818968941 255 207 220 315.360016 174.240005 2
-0.71342281831237386 -0.30935098966366215 2.8425392184304021 222 221 255 289.440002 246.240005 2
-1.2879017877171175 -0.64482620155977299 2.4826512403402687 234 239 255 185.76001 190.080002 2
-1.5770301084458618 -0.83448554618437143 2.6614137836887362 217 225 233 156.960007 165.600006 2
-1.4789117956084401 -0.0034597428113422035 2.5280097043255485 247 255 245 158.400009 286.559998 2
-1.5111935246517456 -0.2936018405331815 2.5710386046597473 245 255 240 158.400009 243.360016 2
-0.88987937161240049 -2.0726610139112314 5.582383891749795 226 255 188 322.559998 146.880005 2
-1.4769477532632331 -1.7087440285637738 2.5902342963117064 160 200 255 165.600006 33.1200027 2
-1.494162133868052 -1.6662381893671341 2.5448333493692203 200 255 127 158.400009 37.4400024 2
-1.5482879569063939 -0.90869388517843097 2.6162130884260981 211 220 231 156.960007 154.080002 2
-0.40728443196376118 0.40418032837311624 0.7698616630338333 150 166 255 181.440002 488.160034 2
0.35708274224742675 0.50345475161701148 1.1497997290186959 117 132 155 504.000031 456.480011 2
0.49513195923063924 0.47513757739495532 1.1044716598443984 255 95 123 555.840027 450.720032 2
0.018968914417684779 0.50933192550434503 0.87167868984829955 221 218 255 393.120026 512.640015 2
0.49727712409522995 0.50288508759559936 1.6475645501045069 121 117 255 501.120056 406.080048 3
2.2160051730101387 -0.089951528001907699 3.0007492943085134 153 160 180 668.736084 276.480042 3
-1.3301184023106565 0.15523571327775978 3.4447979428862974 91 111 128 236.736023 304.128021 3
-0.81827720294584649 -1.4266663938211961 4.7342297270325 233 255 207 314.496033 174.528015 3
-0.84996961461883558 -0.12752775644791994 2.5942674591891342 189 191 255 257.472015 269.568024 3
-1.7895299261823663 -0.20756536007322862 4.3194543806582031 125 255 81 226.368027 273.024017 3
-1.2691634620097636 -0.41111449561723917 2.9455265248663247 255 99 119 219.456024 238.46402 3
-1.4506846837573018 -0.12023491915811915 2.4323646998623745 255 244 245 155.52002 267.840027 3
-1.2240792378730752 -1.9896593916733387 5.2194375982936361 205 225 255 293.76004 139.968018 3
-1.5445676890570059 -1.4372574893397028 2.6193856076836983 185 212 255 157.248016 76.0320053 3
-1.4677133268254261 -1.7124851888510033 2.5712224405593775 160 200 255 165.888016 32.8320045 3
-1.4966550912344934 -1.6702788133562638 2.5560340172505498 200 255 127 158.976013 36.288002 3
-1.3347809055816255 -1.0360354625289865 2.5687894164983089 201 213 226 184.896011 133.056015 3
1.4533302430981589 -0.88600691409557764 2.3098516372812532 255 194 210 627.264038 139.968018 3
-0.37237081361074575 0.34122736021002531 0.74069323974886681 208 255 208 190.080017 466.560059 3
0.35918563431040607 0.50258987646244191 1.1527588331748029 117 132 155 504.57605 456.192047 3
1.0627515298324575 0.33055658773927887 2.2490895966120581 180 255 164 566.784058 343.87204 3
0.14629988770748126 0.33455413119558997 0.90079039025293328 209 211 255 445.824066 431.308868 4
-1.3562960867867431 0.26987563505890533 2.7338153771613549 164 162 171 192.844833 323.481659 4
-0.44477482686372394 0.38969956539998457 2.346912718573543 255 180 189 311.040039 350.438446 4
-1.2818948768470158 0.32243488976916468 2.1935168879598392 220 201 255 161.740829 344.217651 4
-1.2970226603793504 0.15455871911342142 3.3333332067408818 91 111 128 236.390427 304.819244 4
-0.63214423337282488 -0.50285496556162212 2.5517590808741382 225 227 228 288.230438 211.507233 4
-0.90456188852263164 -0.13824005380270779 2.7195549561666867 189 191 255 257.126434 269.568024 4
-0.87767857239500913 -2.0229705816417849 5.4559480945212826 209 227 255 321.408051 147.225616 4
-1.5093529483875892 -1.4227733396678623 2.5686350766149935 185 212 255 157.593628 76.7232132 4
-1.3433515832725305 -1.2688517508126196 2.5619181605272474 218 255 178 182.476822 99.532814 4
1.2624543100319781 -0.67496519996111592 2.2052990647514221 218 232 255 605.491272 170.035217 4
0.20107111393144361 -0.71723024181704897 4.9710674271374664 162 173 172 400.204865 232.243225 4
-0.14412550106293254 0.46675094558718061 1.0280155032735112 255 215 215 327.628845 466.560059 4
-0.37595540816057738 0.37648335393631671 0.70602221071321591 110 141 155 180.403229 491.443268 4
-1.4588840360702378 0.18423888493841598 1.8558758840704308 109 113 255 85.0176086 327.628845 4
-1.112114088492945 0.5069964090972684 1.6070448705018929 94 105 126 116.121613 408.499268 4
0.63854912348686521 0.50407530237715559 1.1949606339452115 94 255 42 586.828857 452.044861 4
0.34017847044545269 0.47281410992468648 1.0593864776472413 255 119 132 503.884857 458.265656 4
-1.0901595065765868 -1.7634755170685898 4.5896192010781354 198 212 225 292.377655 141.004822 4
-1.3287635237370305 0.15985787513359306 3.4089907561213879 89 109 126 236.390427 303.575073 5
-0.41889424626495164 0.43035592797821887 2.4284698973069827 219 222 226 316.016693 350.85318 5
-1.5677279055915432 0.21081882285751513 2.5455256787591409 113 255 173 146.810898 323.481659 5
-1.2347462910111546 0.35701494354288077 2.393923970107354 219 255 214 186.624023 343.388214 5
-1.2587361123155985 0.22950891143995589 2.5390211987649045 159 255 165 194.088989 320.993317 5
-0.84907122586969885 -1.4333914474184948 4.7577276820697731 218 233 255 313.528351 171.694107 5
0.80551935365521998 -0.66013610088744912 3.4508392723561041 255 235 237 475.269196 218.972198 5
-0.6263363609614494 -0.50552062324546898 2.5296616235494063 225 227 228 288.645172 211.507233 5
0.69007056951463019 -0.54608277668616056 3.8185393427638425 243 243 245 452.874298 233.902115 5
0.36868090707257717 0.52999603163661591 1.1975590075300899 135 159 255 505.129028 457.850952 5
-0.14102788021455548 0.45657969820676941 0.99791217488450767 215 215 215 328.458282 465.315918 5
-1.2730380180795207 -1.2243707365071002 2.5993145873034464 170 193 217 196.577301 106.997772 5
-1.5206365572196963 -1.0518908973903429 2.6023792095689449 255 210 218 159.252502 131.880981 5
0.76803273838860875 0.47369863251086847 3.966829581282048 164 255 142 462.827576 335.923248 5
-0.36216745725592125 0.33179681980289327 0.71105202161561887 255 208 209 191.600662 467.80423 5
-1.0790482021443051 0.47355338844352202 3.2807733565394877 142 255 156 258.785309 345.876526 5
-0.17292868587191745 0.4741663572351672 1.8120692853757037 109 128 255 345.876526 388.177979 5
16.030644663287504 -18.936725834708287 33.282571444896924 139 173 209 564.848694 72.161293 5
-1.2240792378730752 -1.9896593916733387 5.2194375982936361 206 226 255 293.621796 141.834259 5
-1.2602952562109171 -0.16268124232629821 2.5785403736780332 244 245 246 196.577301 263.761963 5
-1.0787647912320719 0.45651782351325304 3.2849625235744107 120 129 122 256.794678 346.374207 6
1.2699662836506307 -0.70995356340592453 2.3699780315537873 255 206 219 591.224915 173.187103 6
-1.4838754146886326 -0.28429453757140632 2.5629143317994907 243 245 255 161.243164 247.836716 6
-0.86030384055846953 -1.0679343236066625 5.2217638557835757 255 232 236 319.500336 206.032928 6
-0.94402104324553671 -1.5304750781861398 5.0556198964956991 219 233 255 313.528381 173.187103 6
-0.20708957710674114 -0.033193360939062597 6.3574262185305939 255 98 119 367.276093 283.668549 6
-0.8242661302510399 -1.9054377866228127 5.1690767205181372 255 189 209 319.500336 149.299225 6
0.82880224605943642 -0.63242322680577523 3.5503695751008522 243 255 236 474.771545 217.976868 6
-0.68083894061723127 -0.52437840630678456 2.6827555980426263 229 255 227 286.65451 212.004898 6
-1.0696138339498655 -1.1164864993920913 4.09179304562163 255 227 227 283.668549 179.159073 6
0.60324707073410044 0.49617528294877933 0.81345697316489796 234 233 255 665.874573 516.575317 6
0.59692893049041129 0.47253593343302858 0.89599798586704038 201 203 205 636.014709 492.687439 6
-0.26043352935902453 0.46273052566518902 0.82643227928394491 24 255 0 262.766632 501.645416 6
-0.35956891256173407 0.33754957026140675 0.71944877258261308 255 208 209 191.103012 468.799591 6
0.12493650352231311 -0.53603706673216922 4.7476798912432745 255 97 105 391.163971 244.850739 6
-0.89305366633459293 -0.1380901800452963 2.6700089899509201 158 162 169 256.794678 265.752625 6
-0.63220168988343017 -0.362955751921266 2.5834917483340378 226 255 224 286.65451 235.892776 6
0.33810407756309946 0.47104620348517512 1.0887687729996269 117 130 155 504.631378 459.841614 6
2.568025046093374 0.21917850658077159 3.9575935565812204 121 114 133 636.014709 307.556396 6
-1.2252243597573167 0.46670801353079905 1.4648108956029677 255 203 212 59.7196922 412.065857 6
-0.28646999055750944 0.499956521277095 1.0745219047266339 215 217 216 280.682556 465.813599 6
-1.3900866374599263 0.36709428690765478 2.415100128908362 255 165 174 167.215134 349.360199 6
-1.6938037675098507 0.40257801905274937 2.9035438650749272 219 190 255 161.243164 343.388214 6
-0.59419741382596936 0.29902397137569992 2.6903019399441197 236 255 234 298.59845 331.444275 6
-1.3110388969769842 0.15056215799400868 3.3474066188984528 98 116 134 232.906799 304.570435 6
-1.1854435316513428 -1.9271987027470843 5.0930588864430444 199 213 225 292.626495 143.327255 6
1.2779542752322037 -0.7145573609665703 2.4222644543740799 255 206 219 591.224976 171.992722 7
-1.0235109785257741 -0.73195433652038178 3.8561800183734807 229 255 228 286.654541 211.407715 7
-1.0654497389941109 -1.1182684187998952 4.0956133314919931 255 227 227 283.07135 179.159088 7
-0.79841666165779923 -0.13578490510262003 2.4109499393189764 138 255 85 254.405899 265.155426 7
1.695490468071593 -0.13890682194008763 4.8042190760381525 255 245 245 515.978149 275.904999 7
-0.97783245094948201 0.44424543108554559 1.4111112935119445 118 255 88 114.661812 412.065887 7
-1.1128657753666897 0.42943165094388308 1.3270534988219245 207 218 209 68.080452 412.065887 7
1.6965662513042024 -0.79303299754115431 2.1550614828136681 255 217 224 691.554077 146.910446 7
1.5119085608447564 -0.84830737711099125 2.1806348779565741 194 210 226 652.139038 139.74408 7
-0.39773117980045258 0.3616949730855607 0.7950492603343835 208 206 255 193.491806 469.39679 7
-0.43406162022059536 0.40624723094260112 0.81500647272639615 255 115 146 179.159088 487.312714 7
-0.26643163348488086 0.4589891651580193 0.83987379211796886 34 28 255 265.155426 501.645416 7
-1.3618120623746814 0.37328310659522562 2.6318423304333183 217 255 210 182.742264 343.985443 7
0.51904674094265291 0.40396056830831351 1.529711397851683 255 122 147 519.56134 394.149963 7
-1.2330360778522538 0.16357532677257333 3.1511966328450232 98 116 134 232.906799 304.570435 7
-0.45998800324047995 0.43281546409738203 1.7861780600935053 255 93 123 283.07135 379.817261 7
0.69870449350147057 -0.54616606169743975 3.9309846046692067 255 243 244 451.480896 236.48999 7
-0.95104473048368998 -2.0367001403354408 5.6535906727657359 229 255 194 318.903168 154.076813 7
-0.117144288967584 0.040385982548892238 4.444222912827362 118 138 255 369.067719 286.654541 7
