ply
format ascii 1.0
comment Written with hapPLY (https://github.com/nmwsharp/happly)
element vertex 210
property double x
property double y
property double z
property uchar red
property uchar green
property uchar blue
property float ix
property float iy
property uchar octave
end_header
0.47222563666385559 0.19608044533357885 1.1216119968706131 255 118 131 547 355 0
0.3930864365085619 0.21601253269994494 0.42547043569143023 255 57 74 739 481 0
0.41568869623537796 -0.15360784512012571 0.56135935223139855 202 215 255 669 184 0
0.3932047848211494 -0.033281332630469229 0.42518425760045425 255 61 78 739 259 0
-0.036559270037273356 0.39447354056852163 0.74748957925903792 19 9 15 364 490 0
0.39318406242139303 0.011429317798079514 0.4252362962214547 255 66 80 739 298 0
0.63293736982367876 0.30870887794081986 0.99656491499642064 180 180 176 628 406 0
0.46118357431907731 -0.12097957454481964 0.97931737793474283 22 22 255 565 241 0
0.39876251320014316 -0.098767929770004537 0.99680777657125019 65 255 22 538 250 0
0.44899346930751838 -0.15567557412542757 1.0089019500980236 134 146 255 553 229 0
-0.062477759604007976 0.26424663075284133 0.47205390674253084 77 255 61 334 502 0
0.6157655351062753 -0.012894227837234068 1.0074820726364961 255 49 58 619 283 0
0.64092151970734457 -0.075641383761851019 0.99605114157541874 233 236 255 633 259 0
-0.62111423900714391 0.029884749095624986 0.72177765666460791 188 170 182 52 304 0
-0.10873232374892361 0.19254972520939945 2.9905539777852153 83 255 28 370 313 0
-0.27856466039499261 0.40439399258381747 0.59744931646203658 64 96 255 205 547 0
0.51369262045789932 0.08043979055048614 1.9452668775057242 68 79 98 484 304 0
0.3930489029494455 0.29316331149304148 0.42555782159209748 255 204 195 739 553 0
0.56926867137656723 -0.1760756646861355 2.1002730868307675 171 255 205 490 256 0
0.42990086107698688 -0.028890192865916313 0.99656035001760035 119 255 90 550 277 0
0.12854393856030327 0.45579724086505879 1.4852324314129202 211 255 212 418 406 0
0.39889493843541846 0.36813819926469643 0.9969594729994562 202 200 255 537 430 0
0.39312363727472205 0.13886866819271879 0.42538266928482205 255 57 69 739 415 0
0.39313463641627922 0.11539139993322192 0.42535551630999807 255 63 76 739 392 0
0.39321690173561419 -0.058988788942391304 0.42515458204889223 255 26 37 739 235 0
0.32989476260252737 0.36644743489146003 1.4963811221717873 98 114 255 469 380 0
0.63547876703838457 0.13663660185782275 0.99992984116338857 63 73 90 628 340 0
-0.036461884117616555 0.24203934138503644 0.74739048020505106 181 183 181 364 412 0
-0.27476083426476794 0.34615615824707496 0.57543242725170796 255 156 159 199 520 0
-0.39434070854694436 0.40671585146230005 0.68946462466338387 153 255 146 166 514 0
-0.34539586379484122 -0.37605197298439613 1.4368689711784659 35 67 95 292 187 0
-0.61848399226525641 -0.57152022251036727 1.4965839482531151 195 255 149 226 142 0
0.47314595346018695 0.35140785728213053 0.98854480166004732 198 198 197 568 424 0
0.55232482903151581 0.010279798023985036 0.99635859003255978 55 255 22 598 292 0
0.39316191826264374 0.058378288891589768 0.42529032899148678 255 64 79 739 340 0
0.083829541234819255 0.33109217675166258 1.4965691713156111 187 255 186 406 373 0
0.43205298237838174 0.1772141562990362 1.0158177922342913 255 118 131 547.200012 355.200012 1
0.54676287525546097 -0.063864979639717712 0.83396310809368168 233 236 255 633.600037 259.200012 1
0.38586323843526837 0.31384194194813048 0.45852120686856657 202 199 255 705.600037 549.600037 1
0.39306248285920375 0.2663279194789322 0.42552813806594414 255 197 199 739.200012 529.200012 1
0.61441854998156975 0.05658372787276357 0.96573649940547435 255 99 111 627.600037 308.400024 1
0.54717001779349417 0.0069617776577820395 0.89443919528780724 255 36 47 619.200012 291.600006 1
-0.34593145206479919 -0.30852271614678212 1.1295509412763265 255 201 207 267.600006 183.600006 1
-0.22875767644076594 0.37992956471357375 0.61969839296282325 255 148 151 243.600006 522 1
0.39930438696634896 -0.099814982984008052 0.99686548216977844 26 35 255 537.600037 249.600006 1
0.42840258968881911 -0.14474849505856335 1.0371552199738183 140 255 113 542.400024 235.200012 1
-0.50790576583921188 -0.30085118032014729 1.3433292304297164 204 218 255 237.600006 202.800003 1
0.096025600378158077 0.40938380562208299 1.4856322388119578 93 121 255 409.200012 393.600006 1
0.3475231761434836 0.32008601159926464 0.86406306796979304 202 200 255 537.600037 430.800018 1
0.34710130093010472 0.33220165600493062 0.67384597068593866 255 68 86 583.200012 475.200012 1
0.40256122211576584 -0.06054065025335096 0.43801490146079575 255 26 37 739.200012 235.200012 1
-0.23675739409034774 0.26665610166841724 0.6217439966771201 166 164 255 237.600006 453.600006 1
0.3932443250130393 -0.11598947624817017 0.42508961468949741 255 188 199 739.200012 183.600006 1
0.14317055284401409 0.18232726173579594 2.109701855003284 51 69 255 409.200012 321.600006 1
0.17777766963681432 0.348132179985505 1.1336319182137045 213 211 255 441.600006 405.600006 1
0.24001908594720983 0.45782303548487235 1.6613958288658925 42 46 60 436.800018 393.600006 1
-0.038296375731057236 0.2129272342577474 0.74671889025067373 255 74 82 363.600006 397.200012 1
0.011695361704383109 0.3919582441862185 0.81564098925209105 76 255 42 390.000031 472.800018 1
-0.62723957317115331 -0.0045014294641467847 0.73431607537399324 255 229 230 55.2000008 286.800018 1
-0.61320794176845839 -0.56597007038900315 1.4817397990718411 167 195 255 225.600006 141.600006 1
-0.037873492625248972 0.39036593490304611 0.74336855090776466 255 12 4 363.600006 489.600006 1
-0.5399690450714062 0.30580113615567506 0.74723192047525544 64 85 255 105.600006 447.600006 1
-0.55689960252228354 0.41645155295272185 0.72640804804650561 255 21 30 91.2000046 510.000031 1
-0.53925232642510845 0.17658473621977061 0.97328163946371449 255 143 155 171.600006 357.600006 1
0.38378083639094018 0.11247454781677198 0.41366687811905328 91 255 64 738 391.200012 1
0.52119754352945691 0.078325592768302921 1.994919033382635 117 255 77 486.000031 304.800018 1
-0.095742961406702076 0.19725158613335553 0.80682504969366098 255 102 110 339.840027 381.600006 2
-0.21636332792277002 0.38249631081064894 0.62227526332380867 161 162 255 249.12001 524.160034 2
0.22412466565102021 0.41166140602534596 0.70503120074793002 181 182 179 504.000031 511.200012 2
0.40259969862104406 -0.11994565921887447 0.43796061607589742 215 255 192 738.720032 184.320007 2
0.32749897059559457 0.43283009310055748 1.5561524808703324 98 116 255 465.120026 396.000031 2
-0.054854531565488113 0.2281137690936012 0.77797884856277288 255 143 141 355.680023 397.440002 2
-0.33827543224124357 -0.362774043933837 1.403913358067453 36 71 100 292.320007 188.640015 2
-0.33957543078649971 -0.3004492872464436 1.1098707265084229 255 202 208 267.839996 184.320007 2
0.38365676849757058 -0.10308811880850971 0.41346684688404445 216 255 192 738.720032 192.960007 2
0.48667858174852247 -0.073392803279059032 0.93352597902342727 102 115 125 584.640015 257.76001 2
0.39517690362143021 -0.0069285835752765906 0.4309165885403124 77 93 255 737.280029 282.240021 2
-0.27164528339760841 0.34104021934352963 0.5697244638316441 160 255 152 198.720001 519.840027 2
-0.3789105344747607 0.15881509905557101 1.4719419028984786 82 255 28 286.559998 329.76001 2
-0.45283125164840998 0.00020777716742201649 0.60954385544912637 85 104 255 97.9200058 289.440002 2
0.39331249128690293 0.19068232667064863 0.42871914251034476 57 85 255 737.280029 459.360016 2
0.39500207234223267 0.2690446707871772 0.43117398608561758 197 255 201 738.720032 527.040039 2
0.38453077331554975 0.25637308510732892 0.47149627411996575 61 76 105 696.960022 495.360016 2
0.39441772217079607 0.4353833942418972 0.86436980356999293 115 255 67 558.720032 483.840027 2
0.38532983436807838 0.45996485407554183 0.87832585693131382 255 46 64 551.52002 486.720032 2
0.66090966490211911 0.25207753437577213 1.0361536775368245 255 75 90 627.840027 384.480011 2
0.38081758046022207 0.10424944615669535 0.46568632423778938 19 23 35 696.960022 372.960022 2
0.080872984504400808 0.3556379476549994 1.456007954852848 151 156 162 404.640015 381.600006 2
0.56734129852257664 0.031114148063323951 0.93240701109698565 42 255 13 618.624084 300.672028 3
0.12174187753248683 0.10322266347050939 0.84434199622987138 130 137 255 437.184052 335.232025 3
0.50786530855702883 -0.17408262673908101 1.2518863308963986 140 255 113 542.592041 235.008026 3
-0.15283418987027808 0.26034110412494171 2.0250563519051057 72 255 13 354.240021 338.688019 3
-0.19261579060858891 0.24136155007975421 0.66470985987468678 255 168 169 271.296021 426.81604 3
0.3456288064603088 0.45419427257600292 1.6681095305916309 75 86 104 464.832031 395.712036 3
0.093200840270937585 0.40085857669365232 1.4734289743811237 255 91 103 407.808044 393.984039 3
0.2960796945757822 0.11431750574458549 1.5694407074486176 40 255 13 454.46405 314.496033 3
-0.038064527039272322 0.23146928584097687 0.74298307357912474 137 255 129 362.880035 407.808044 3
-0.01712770284028145 0.44776816462093222 1.5479344163241333 114 130 255 381.888031 397.440033 3
-0.32799465274173262 0.26188831299860527 1.004397887920814 255 138 152 259.200012 388.800049 3
-0.66659400669513036 -0.33325075307387841 1.7322830255483666 129 255 85 238.46402 212.544022 3
-0.32988116838441012 -0.35874171847411224 1.3839861456174161 36 71 100 292.032013 188.35202 3
-0.63484778608772252 -0.54756229013206958 1.4691444469963351 170 197 255 217.728027 145.152008 3
0.38051902968351536 -0.057436096724539934 0.46747070805901952 220 225 232 696.384094 243.648026 3
0.43578340046165359 -0.13172997539248174 1.6185193611455935 231 235 255 485.568054 257.472015 3
-0.25814383166058202 0.3980598045031376 0.62229855549994961 147 151 150 224.640015 533.952026 3
-0.29002373392859915 0.3719296055538312 0.60142534370725542 158 156 157 196.99202 521.856079 3
-0.40114349847297498 0.29913505082832087 1.2807516167246566 161 255 145 266.11203 378.432037 3
0.0087271862459932931 0.42294257322201534 0.87979538388770273 49 61 81 388.800049 471.744049 3
0.32838049547691261 0.36934426658446134 0.78342396093932343 114 255 79 542.592041 470.016052 3
0.031074852848640096 0.41425582255776117 0.6477773100485319 78 255 59 402.624023 532.22406 3
0.23050254874720136 0.43342934631129876 0.74157745101281314 180 255 180 506.304047 511.488037 3
0.48476384788841037 0.27882985244844138 0.86495734238194977 51 50 255 597.888062 411.264038 3
0.38434776679699145 0.15461337410119513 0.47051356988301019 165 165 160 696.384094 411.264038 3
0.38437375342072283 0.10551367489232177 0.47045946856230153 22 24 38 696.384094 373.248047 3
0.55025311562017498 0.07822811233521712 2.1797432560645462 255 59 70 483.840057 304.128021 3
0.066548782959798242 0.25015853205221283 1.1354453380074199 188 189 189 404.352051 371.52005 3
0.65692888497741975 0.25113436509365283 1.0219915122671333 59 78 105 628.300903 385.689667 4
0.074417325523332897 0.31085344548961186 1.432124960392986 188 189 189 404.352051 371.174438 4
0.10309607808323447 0.2822314220815022 1.6766741051588416 99 105 106 408.499268 352.512054 4
-0.013007497085379072 0.42010610672046172 1.4712841316146745 110 127 255 381.54245 398.131256 4
-0.23179368238257181 0.29533306275491328 1.1969195348905359 56 255 29 306.892853 383.616058 4
0.46979942685307841 0.21451590731779183 0.627499535571579 255 177 178 675.993713 418.867249 4
0.22658994394994111 0.4227097073626524 0.72088843438879646 182 179 255 505.958466 512.17926 4
-0.2883462900163537 0.36434015602612235 0.59426208950046444 162 156 154 196.992035 522.547302 4
0.51251296702167237 -0.077778089707827291 0.9670154768780046 179 186 193 588.902466 257.126434 4
0.47313874347190987 -0.14586876097886423 0.93639292362312143 67 255 26 578.534485 228.096039 4
0.010035411194809191 0.4175719382537727 0.86552824850049948 53 73 255 389.836853 472.780853 4
0.4159349224535116 0.020162376646204384 0.96600564607003392 112 125 255 545.356873 296.524841 4
0.40127750841993293 0.045775558050500778 0.5353869097083882 255 27 32 675.993713 321.408051 4
0.46736297065234844 0.039301646186641073 0.6240329986292743 46 59 255 673.920105 315.187256 4
-0.65479247386483608 -0.48471234682528924 1.4692756024691254 183 204 255 213.580826 161.740829 4
0.3750094441815745 0.25512804873501371 0.94871284554335789 74 92 118 532.915283 387.763245 4
-0.25853894050320336 0.39507959942022036 0.61732348933841241 255 150 153 223.948837 534.988892 4
0.40790808796014733 -0.11205069175643395 1.0315424644719022 30 37 255 537.0625 248.832031 4
0.025015959900921328 0.44484530019615898 0.70124278699875597 78 255 59 402.278442 532.915283 4
0.0081876050759528696 0.39027417525035929 0.77124072353094053 137 134 255 385.689667 483.148865 4
0.57852909469017488 0.41579285843409408 0.93514365582652259 57 74 102 620.00647 460.339264 4
-0.32077428297318078 0.2466795841973399 0.90046805928070239 144 156 161 244.68483 393.98407 4
-0.19561040949117514 0.23287385557943824 0.59381910643514324 152 149 255 253.80867 437.944397 5
-0.01072396504061511 0.41055382582015254 1.4287293285167924 107 124 255 385.689667 395.642944 5
-0.011610527724641009 0.38069124476697158 1.1827000662837486 255 191 191 383.201324 410.572845 5
-0.66008901012754739 0.28108642619575169 1.4326829246422572 155 161 255 209.018906 363.294769 5
0.64342654228271501 0.0539304004702977 1.0049854716463771 100 112 132 632.033386 308.551727 5
0.42701121310265666 -0.12896347999040236 0.82776902794471963 255 42 56 579.778625 228.925476 5
0.38977225296441032 0.20921570008136381 0.4793402239961963 255 60 76 699.218018 455.36261 5
0.45011975664455833 0.20282218437264621 0.59535826741848341 179 179 177 676.82312 418.037811 5
0.63361335866700697 0.23968377072623759 0.98839282219085489 92 115 255 629.545044 383.201324 5
-0.64754256230030038 -0.44225209265766824 1.4266196792094459 191 208 255 209.018906 169.20578 5
0.35915905616951477 -0.0097427473057877852 0.43330228053186787 255 21 29 699.218018 278.691895 5
0.38716354760354449 -0.057687853742461194 0.4747915825705662 255 219 224 699.218018 241.367081 5
-0.36035252367045872 0.37932541091285238 0.64251142468875022 149 255 142 166.717468 512.593994 5
-0.47539254387977692 -0.64648073834746567 1.6556226473181399 153 189 255 273.71524 136.85762 5
-0.31989973940165262 -0.44164828125509847 1.0058970565082539 180 255 111 258.785309 119.439377 5
0.43337735729243487 0.033111167460669 0.57200174794121783 21 30 38 676.82312 313.528351 5
0.43389797756870502 0.021995542177556712 1.0294743297990583 255 95 107 547.430481 296.110107 5
0.46038656684056445 0.3158859109971231 1.192105246083788 120 255 81 534.988892 385.689667 5
0.32562469493007573 0.33286475737782317 1.4327964981822507 186 255 186 470.292542 375.736359 5
0.0076160551523708764 0.40281950864797905 0.72086482678012254 115 118 255 385.689667 497.664062 5
-0.32579954668131567 -0.35923095073678524 1.3977493844573154 36 71 100 292.626495 188.117035 6
-0.60298177755205762 0.25917258074332938 1.3242837580233542 155 161 255 209.018921 364.290131 6
0.40895014057219603 0.14317461646899557 0.50616634481637512 204 255 210 698.720398 397.135956 6
-0.42261235387920559 0.436031017332701 0.75078669816626464 255 148 151 167.215134 513.589355 6
-0.43547765623776735 0.3471411342847659 0.72013218265253998 155 255 155 146.313248 474.771545 6
0.6414676747549275 0.34838823379503331 1.0016670868178055 199 255 200 630.042725 421.023834 6
0.4042604050042562 -0.10956242926568228 0.49907034389054794 222 255 205 698.720398 206.032928 6
-0.6808548428881086 -0.45783924800904063 1.489495665729339 194 209 255 209.018921 170.201126 6
-0.068621419006339474 0.38289338112984667 0.93709312045636239 45 63 255 361.304138 444.911713 6
-0.64576440188007522 -0.55040949446439769 1.488918085155696 170 197 255 217.976868 146.313248 6
-0.36615901776523929 -0.50834705693978999 1.2909456303405624 189 255 124 274.710571 137.355286 6
0.40501991618573663 -0.060262532650014564 0.4991279329802657 231 255 218 698.720398 241.864746 6
0.44871029432796172 -0.07326344168010053 0.61669335872380782 224 227 232 668.860535 241.864746 6
0.40998066616399764 0.22108514046303104 0.5067806777731344 109 255 68 698.720398 456.855652 6
0.41543178761554211 0.17266876537209949 0.51619784248889033 122 255 127 698.720398 415.051849 6
-0.24522614634354856 0.3349370267720555 0.59985360172363689 164 255 169 226.93483 501.645416 6
-0.062827961504623608 0.26780682408006962 0.45788185473066967 255 61 66 331.444275 513.589355 6
0.41579782691249206 0.03446594004970073 0.55259629212318839 47 255 34 674.83252 316.514374 6
0.38797853786616443 0.26743959132884343 0.99183283844324233 255 76 94 531.505249 388.177979 6
-0.11627482700206207 0.1158728198603074 2.4200181623678745 255 24 55 367.276093 310.542389 6
-0.34612141902451132 -0.12629204950184547 1.81066628541886 255 26 70 307.556396 262.766632 6
-0.24473450068992836 -0.10893597963824833 1.2307116004600813 24 76 106 304.570435 253.808685 6
-0.61364434519968847 -0.01834912298158136 1.2443495435574561 255 227 229 191.103012 283.668549 6
0.33088962994019167 0.25272242636022813 1.5041905886974778 93 114 255 465.813599 352.346191 6
0.062239735288121649 0.22688228550445436 1.1855638864270461 255 100 105 403.10791 361.304138 6
-0.22617021744852783 0.2856131919607921 1.1807958565173358 255 43 58 307.556396 385.192017 6
-0.33867358996170949 0.22741544272311873 0.97144658725260424 162 255 142 250.822708 376.23407 6
0.37093421958455347 0.24480278228739316 0.44913111086300977 104 255 61 698.720398 498.659424 6
0.6032391414912196 0.43904256910561251 0.98938681991833932 72 87 112 616.307251 458.647247 7
-0.29190260159333348 0.30197406113633413 0.59963484749803242 118 122 255 193.491806 480.146332 7
-0.51687716113826743 0.40747572735101045 0.83595028051660081 155 255 158 146.910446 476.563141 7
0.19318128816327496 0.37765905149957996 1.2373792144586402 211 212 211 444.314514 412.065887 7
0.41259806161698087 -0.069493943869445449 0.55497016789663445 232 255 226 666.471802 236.48999 7
-0.062863642100691397 0.25588764321799584 0.45859701833386185 93 104 255 329.65271 505.228607 7
-0.11231584266156686 0.24304253315559918 0.4558983885514738 111 255 79 290.237701 490.895874 7
-0.24740055375152148 0.35048247106901864 0.66924601992407684 255 157 159 243.656357 494.479065 7
0.38162862552959426 0.27504404820276596 0.99137180488771692 76 104 255 533.894043 390.566803 7
0.3635693906494063 0.38597753135459395 1.6759514800654822 187 186 255 469.39679 376.23407 7
0.40495559237044493 0.064954783959484882 0.4992687884745074 255 23 31 695.137207 336.819061 7
0.6883262265232013 0.060696256217815638 1.0830507911896035 131 255 99 630.639954 308.153625 7
0.38087686256015707 0.35779138244117203 0.98925504597334724 195 192 255 533.894043 426.398621 7
-0.76896836586945816 -0.0056924556331934342 1.5373763681120689 228 231 255 189.90863 283.07135 7
0.3853157652078858 0.17059518641011098 0.4993864122912548 182 179 255 673.638123 419.232239 7
0.2073816814932172 0.072731416681843464 1.6796625820342999 108 255 89 426.398621 300.987244 7
-0.30097579695670051 0.3009459506689226 0.83390509015390513 255 155 161 247.239532 426.398621 7
0.065836432601028755 0.32178733302988882 1.6689465440399296 105 105 255 401.316345 361.901337 7
0.40519842336014522 0.27403084003980843 0.49953860706333286 255 55 70 695.137207 498.062256 7
-0.63773183939543077 0.46929608400315931 0.8244800269681728 0 0 255 89.5795441 505.228607 7
0.41418627651042716 -0.15266247089335053 0.55543656397164676 213 255 186 670.054993 182.742264 7
0.56337640193096783 -0.14262611813394738 0.88000058420863259 255 216 221 627.056763 225.740448 7
-0.53144697593500023 -0.44117445376009051 1.2291967966056416 197 255 149 214.990891 150.493622 7
-0.32242642265851224 -0.1449150247102754 1.4932575936259185 28 73 101 300.987244 250.822708 7
