ply
format ascii 1.0
comment Written with hapPLY (https://github.com/nmwsharp/happly)
element vertex 194
property double x
property double y
property double z
property uchar red
property uchar green
property uchar blue
property float ix
property float iy
property uchar octave
end_header
-1.0119165812149413 -1.5327570838652325 5.3850785958495058 234 255 210 310 178 0
0.78360369485176984 -0.79273004777066336 3.8453536924159097 255 237 239 463 208 0
-0.97659130352678014 0.43929316488958914 1.4530256915750885 105 115 31 124 403 0
-1.7140136436034834 -0.94221894540539819 2.9762261454792602 255 216 224 163 166 0
-1.4641802832093762 -1.8573009194145946 2.8280987507157338 255 125 160 187 37 0
-1.7191894450702985 -1.099627520930011 3.0261708321822698 230 255 210 166 148 0
-1.6751728799593013 -1.3053661823630929 2.9352052947747791 255 209 216 163 118 0
-1.4058575418805694 0.340156460155493 2.7665667778289764 189 255 165 190 337 0
-1.740592701919907 -1.4075571537173035 3.0300589030703211 201 210 223 164 109 0
-1.7569500624969456 -1.5636746746725387 3.0555324963883517 255 164 188 163 91 0
-1.457709331029144 0.13029200432054142 3.7317081389512223 255 100 119 235 301 0
-1.2344673702230788 -1.7771086011143882 4.9163478018260571 255 211 219 287 148 0
-1.2419841800955242 -1.9142626932555458 5.1683715271906605 191 209 227 292 148 0
0.25465268442027411 -0.74153799939576437 5.0346003337069956 255 147 166 403 232 0
0.17175243452763378 0.47600011650077895 0.73792521020771318 85 101 121 472.800018 535.200012 1
-0.29900215865508417 0.46411207015291867 1.4032835547566611 134 255 96 302.400024 415.200012 1
-1.6479372535233505 -0.058478642781939122 2.9537144408634264 245 247 255 169.200012 279.600006 1
-1.5334894174715852 -0.22699205446971982 2.9145348610154294 245 246 255 181.200012 258 1
-1.4663916732629838 -0.83408690231734484 2.8802805929549966 255 222 228 187.200012 177.600006 1
-1.7453729085793062 -0.86304317783089068 3.031230719867505 255 226 231 163.200012 177.600006 1
-2.1942091383419449 -1.3407305507708949 3.8676631252882423 219 230 255 165.600006 153.600006 1
1.380828917598075 -0.78591933428964711 2.478011665681477 233 255 214 598.800049 164.400009 1
-1.4755111501425482 -1.2867501014445881 2.8869929230415305 255 186 202 187.200012 117.600006 1
-1.6728619218649561 -1.3646084180890024 2.9314729638365162 201 210 223 164.400009 109.200005 1
-1.6968144056339542 -1.5253479250058182 2.9553357564956997 255 165 188 163.200012 90 1
0.60875885563708532 0.46612220044430919 1.8149158393134903 209 210 255 513.600037 388.800018 1
-1.6668584631168297 -1.0635029340569133 2.9169172444732157 219 230 255 165.600006 147.600006 1
-1.4463633628590671 -1.1913903757668409 2.8447414927346091 206 223 255 189.600006 127.200005 1
-0.96583048180659592 -1.4553810039605619 5.049071544326563 209 221 234 308.400024 177.600006 1
-0.57533077799534271 -0.092755417262963824 4.1303524219683805 255 43 53 331.200012 279.600006 1
-1.4784397908851115 -0.60012364772527171 2.8921569414339507 236 241 255 189.600006 207.600006 1
-0.85817197973097947 -1.7450991187859368 4.9130164634604911 228 255 191 318 151.200012 1
-0.61833938231024654 0.32854620122825945 0.69948918556374973 196 173 255 45.6000023 469.200012 1
-0.48870653439625555 0.44574559015669818 1.0460447552875345 74 99 109 204.480011 449.280029 2
-1.7153964268377928 -0.62772027032459654 2.9977452747805313 236 241 255 165.600006 207.360016 2
-1.7894333186228675 -0.74347539722606193 3.1471498909837399 236 240 255 165.600006 197.280014 2
-0.94177533017388981 -0.70460703677455727 2.914775153963888 255 147 157 259.200012 192.960007 2
0.052825421793603056 -0.7519159347746639 5.3804236580489455 255 160 172 387.360016 234.720016 2
-0.54290160610141225 0.36785975070313132 1.0783992646711054 61 255 135 190.080002 420.480011 2
-1.4663916732629838 -0.83408690231734484 2.8802805929549966 255 222 228 187.200012 177.12001 2
-1.4397879316709599 -0.89887300737111719 2.843255915536961 213 222 233 188.640015 165.600006 2
-1.7104972881680096 -0.93645950663847888 2.9749247481826351 233 255 216 162.720001 165.600006 2
-1.5357005928645209 -0.31787897376135299 2.9701481679203083 255 240 242 187.200012 246.240005 2
-1.6474245726580636 -0.3146395929432077 2.8945661250650874 243 245 255 165.600006 247.680008 2
-1.4462377458824935 -0.36660806006731389 2.8494892101016651 255 242 243 187.200012 237.600006 2
-1.7370015861997348 -0.47666915651320407 3.0194013223744363 240 241 244 164.160004 228.960007 2
-1.4755111501425482 -1.2867501014445881 2.8869929230415305 203 222 255 185.76001 118.080002 2
-1.6436001638946367 -1.5975871965286812 3.1406431417133875 216 255 175 182.880005 93.6000061 2
-1.7215850759587208 -1.4767299178597533 2.9985985025697555 173 194 217 164.160004 97.9200058 2
0.53597669183001018 -0.54069587608717451 4.1374488064181891 221 255 149 430.560028 237.600006 2
-1.5062413649138819 -1.0696021880285964 2.9420626586511949 206 217 230 188.640015 148.320007 2
-1.7075915163761133 -1.0246473046183524 2.9710177598832872 209 219 231 164.160004 154.080002 2
0.039848382074528121 0.31859312826116504 2.4407689587247225 199 212 211 388.800018 341.279999 2
-1.6293542490056971 0.4010089623849703 3.2067580283046873 201 255 185 190.080002 336.960022 2
-1.4501530473835529 0.30328994662129127 2.5586424973594877 236 221 203 168.480011 334.080017 2
0.65231312638034611 0.36545059716071404 3.7527123044836239 146 255 116 450.720032 324 2
-1.0052072495076247 -0.14788700570064695 2.9437057778478817 96 115 255 253.440002 267.839996 2
-0.89816575392413789 -0.34057610171747776 3.2811390144588151 255 227 228 279.360016 244.800003 2
-1.5334894174715852 -0.22699205446971982 2.9145348610154294 244 246 255 181.440002 257.76001 2
-1.3097765710233222 -1.9654478397906749 5.6426583438413731 255 194 212 295.200012 154.080002 2
-1.6456479500905465 -1.7568042274433326 2.9512694996942597 172 206 255 169.920013 60.4800034 2
1.0797840972805934 -0.70292186709169324 2.5724823610572494 237 255 222 542.880005 184.320007 2
1.4380203687793458 -0.62121313013901225 5.1200761455803399 239 242 245 492.480011 240.480011 2
-0.26738581163627795 0.42927281258823657 1.2839942761166028 103 132 141 300.960022 414.720032 2
0.28192673573896276 0.47849164564522856 1.0365941504240781 227 227 255 489.600006 465.120026 2
-0.79747538388261896 0.14136163121214917 3.0726727031233829 104 117 255 285.120026 309.312042 3
0.47003618394192714 -0.55640378212472541 4.7972516816949717 114 140 255 421.63205 245.376022 3
0.25465268442027411 -0.74153799939576437 5.0346003337069956 187 255 151 402.624023 231.552017 3
-1.537320701303079 -0.32135770768751643 2.9685515986347721 245 255 240 186.624023 247.104019 3
-0.76756927444276402 -0.52000589876858483 2.8676348746432794 255 230 231 279.936035 216.000015 3
-1.4645606258357162 -1.1394467097978411 2.8775901983077956 197 210 226 188.35202 134.784012 3
-1.3500186270241832 0.51369494994341292 2.0855233134619149 53 59 255 133.056015 385.344025 3
-0.68122883733530104 0.27446114143288092 2.8411547514391984 236 236 255 293.76004 321.40802 3
-1.3744689587838854 0.33413515636711277 2.7164496449805826 201 255 185 190.080017 336.960022 3
-1.625245971491077 -1.3613314682555271 3.0996037522716575 187 203 222 184.896011 117.504013 3
-1.6751728799593013 -1.3053661823630929 2.9352052947747791 214 226 255 165.888016 117.504013 3
-1.457709331029144 0.13029200432054142 3.7317081389512223 115 135 255 233.280029 300.672028 3
-1.0052072495076247 -0.14788700570064695 2.9437057778478817 75 93 112 252.288025 266.11203 3
-0.78444010161710942 -0.39556268595290883 2.9486378452246726 255 227 228 279.936035 238.46402 3
-1.6997400863996441 -0.48134018853770222 3.9266271553886991 116 131 151 216.000015 240.192017 3
-1.5334894174715852 -0.22699205446971982 2.9145348610154294 244 246 255 181.440018 257.472015 3
-1.1253382261563454 -2.2111515387062441 6.2440745771677175 190 209 227 316.22403 150.336014 3
-1.5049793327110201 -1.5147954052256147 2.9229577701636376 155 182 213 188.35202 88.128006 3
0.66947114624924609 -0.70694404330139515 3.942234807859804 238 243 255 449.280029 222.912018 3
-0.44568473129419517 0.46999846651769939 1.2462348904914302 94 124 127 248.832031 433.728027 3
-0.53454926944241654 0.47532637064930122 1.1386252578896308 123 255 98 202.176025 449.280029 3
-0.51801887466043928 0.32077552863966241 1.0654055777538818 80 255 37 198.720016 402.624023 3
0.45988246323863535 0.47449885492929039 1.2924887413824759 176 190 255 521.856079 428.544037 3
0.009518115039766295 0.32052780038224021 0.62002396274836258 223 224 222 388.800049 487.296051 3
0.094942488856582852 0.45872560297208986 1.6431331653905006 186 129 255 409.536041 397.440033 3
-1.3550009518167041 -2.0017043559600509 5.4928620763716305 202 215 227 288.576019 148.608017 3
-0.54047914861519497 0.39071669038917445 2.6579404296139018 182 193 206 304.819244 344.217651 4
0.6024133487625789 0.31458943454336075 0.93906328028256292 116 116 106 632.448059 416.793671 4
0.50898678405252373 -0.47737175774340745 4.4995647569592165 201 207 255 429.23526 248.832031 4
0.52199326178927508 -0.50016793501276013 3.7447779686549731 255 232 238 435.456055 238.464035 4
-1.6107967802492151 0.35839694667947036 2.8761334758584161 173 178 188 172.108826 337.996857 4
-1.9921723434734577 0.40236272733426548 3.4795544723371785 255 230 218 167.961624 333.84964 4
-1.4421783621238795 0.13171648017810622 3.6570020569884418 106 123 143 232.243225 302.745636 4
-1.1209661988229822 -1.5847480237947249 5.5004760401632886 209 221 233 304.819244 176.256027 4
-1.4433298543343169 -0.68792201171309231 2.9767254083343437 255 229 234 199.065628 199.065628 4
-1.5355553695902326 -0.85421225498762299 2.9721763134008241 236 255 223 186.624023 178.32962 4
-1.6364432105897082 -0.81754619604087397 2.8601664039237962 255 227 232 163.814423 178.32962 4
-1.6569971911355981 -0.46244477114215699 2.9072420476729395 255 240 241 163.814423 228.096039 4
-1.3550009518167041 -2.0017043559600509 5.4928620763716305 203 215 228 288.230438 149.299225 4
-1.04077084412955 -2.066319603787977 5.8315670674847597 255 190 210 315.187256 151.372818 4
-1.650603788704792 -1.775793432569984 2.9691796391222289 205 255 136 170.035217 58.0608063 4
-1.6668584631168297 -1.0635029340569133 2.9169172444732157 219 230 255 165.888031 147.225616 4
1.1186835610675334 -0.72925697643564436 2.6571366443339972 255 221 228 543.283264 184.55043 4
-0.40505370020104969 0.45336008227974989 1.2922871138478382 255 67 101 263.347229 420.940857 4
-0.076876991588672006 0.33858644940715565 0.55353981181413636 255 216 218 331.776062 524.62085 4
-1.391805875699232 0.20402296677339468 2.8501653674329948 192 145 141 196.992035 315.187256 4
0.45681278749020782 0.47708194783436647 1.2948854086361896 159 168 184 520.473694 429.23526 4
0.17031138540666824 0.4499864656158426 0.79519876818531876 203 207 204 464.48645 505.958466 4
0.0090155982590658379 0.32197729879089987 0.62301265189625155 255 217 217 387.763245 489.369659 4
0.065465272456180168 0.42509517884155512 1.2947303749428092 255 143 148 403.10791 410.572845 5
0.59530915166439302 0.46721048931142339 1.8280046241899872 207 255 201 510.105682 385.689667 5
0.40475394180671853 -0.34800787833158969 3.1986792295547133 220 255 152 430.479431 243.855392 5
0.5482098321150296 -0.56982587217046821 4.278471280161745 255 231 237 435.456055 236.390427 5
-1.5923205205075055 0.3527425886722948 2.8355729713652749 255 168 174 171.694107 338.41156 5
-0.07272964677826077 0.11191408614838005 2.8915774707500521 136 165 255 373.248047 298.59845 5
-1.4272088459172814 0.14021995277485844 3.6257228427492283 119 139 255 233.902115 301.086761 5
-1.6346629463528783 -1.7643611265448236 2.9452369097494917 255 135 168 171.694107 57.231369 5
-1.3480274269075263 -1.9684477522567136 5.4597604796744754 203 215 228 288.645172 149.299225 5
15.866707293884943 -19.003164402200063 33.419437653136825 139 173 209 564.848694 72.161293 5
-1.5205606159311458 -1.0449887748396613 2.9223955602885803 230 255 208 186.624023 151.787537 5
-1.6855589009969454 -1.0823849813979314 2.9642021735969268 230 255 209 166.717468 149.299225 5
-0.3327873449039116 -0.065734370230206673 6.3989719578302164 255 95 117 363.294769 283.668518 5
1.3056150260429766 -0.83232988292055865 2.4161187228638159 228 231 236 592.220215 156.764175 5
-0.42324103367538446 0.45316373455831371 1.065527068179412 97 96 255 233.902115 450.385986 5
-0.39149934998268154 0.42887565240869963 1.2374312464453219 255 73 107 263.761963 418.037811 5
-1.0366259056767513 -0.15748497399522063 2.9980962312996486 255 73 91 251.320358 266.250275 5
-0.7778236938983909 -0.38470909108102708 2.9204746817359579 229 229 255 281.180206 241.367081 5
1.768676611079175 -0.14419938657872344 2.7382956966932332 157 255 129 634.521667 271.226929 5
0.25161923190419566 -0.647652704611418 4.457110849657969 255 147 166 403.10791 231.413788 5
-0.5544204337170795 0.47216536682143928 1.1611539723085866 125 147 255 201.553955 445.409332 5
-0.55742022985219797 0.38407672460053366 1.9493338562319029 130 148 255 273.71524 360.806458 5
-1.2939398705169385 0.43962710640828279 3.7914450103024535 65 74 69 256.296997 335.923248 5
-1.816098400037653 0.34504245598358896 3.1367980461386091 204 255 230 166.717468 333.434937 5
0.36703151332930595 0.39145435384220906 1.8957419622568454 255 143 155 455.36261 365.783081 5
-0.2994605581146732 0.44704635362241141 1.3737969266686063 138 146 255 301.086761 410.572845 5
-0.42987229346086631 0.47251852220165624 2.7993851274805914 255 196 207 323.481659 353.341492 5
-1.3326278238877665 0.50289201432102437 2.065659441506936 65 255 46 134.369293 385.689667 5
-0.41447266349410539 0.32945321141398604 0.54346689128328607 202 201 255 89.5795288 517.570618 5
1.1160044726604459 -0.70603028027795267 2.617926777851372 237 255 222 542.453857 184.135712 5
-0.96379993461985203 -1.9193694955802942 5.4557512675942563 191 210 228 316.016693 151.787537 5
1.1248225303840353 -0.7366261560277737 2.7580382163868147 255 220 228 543.449219 182.145065 6
-0.96379993461985203 -1.9193694955802942 5.4557512675942563 211 228 255 313.528381 152.285217 6
-1.6474129919684328 -1.7935960080297622 2.9565458036383827 205 255 135 170.201126 56.7337074 6
-1.3480274269075263 -1.9684477522567136 5.4597604796744754 210 227 255 289.640503 149.299225 6
-1.6349446666851084 -0.30717598690473885 2.9069729842024672 255 241 243 167.215134 247.836716 6
0.012750736931689488 -0.49905207993392919 4.5694081438801062 255 93 100 379.220032 247.836716 6
0.71501294378853231 -0.74114241104013867 4.5250785935721378 243 255 235 450.883667 223.948837 6
-0.7807222601660726 -0.52677756722986546 2.8844727162068189 231 232 255 277.696564 217.976868 6
-1.0401313742655169 -0.98465944001573424 3.8848795185796954 228 228 255 277.696564 188.117035 6
1.4858563693914826 -0.14974308512691037 4.9185681511218204 247 255 247 498.659424 274.710571 6
-0.11050052579135827 0.37989040416232955 0.6682636178412229 219 255 221 322.486328 507.617371 6
0.49719386467208337 -0.48131154197825821 3.5127725399196921 202 225 231 432.967773 238.878769 6
0.043873163648689539 0.40731154842411343 1.0742853959340686 223 224 222 400.121918 438.939728 6
1.5441499131865108 -0.79686267098307073 2.4626824409994148 217 231 255 621.084778 164.229156 6
0.44967936296617173 0.48276015988640858 1.147855907049411 183 191 255 537.477234 444.911713 6
0.45626967397830298 0.48157807624076476 1.3641386310620338 235 255 235 510.603363 421.023834 6
-0.50776850638917215 0.38300541234112528 1.0637817088729506 123 140 39 200.060959 426.995789 6
0.1234745446258847 0.50769158729623631 1.7569763091337247 182 148 255 409.079895 400.121918 6
0.11581004649052229 0.45074345780487712 2.3298298307356018 221 255 221 406.093903 367.276093 6
-0.4321180665752995 0.47840103168661852 1.3971823191956525 86 88 255 265.752625 418.037842 6
-1.4665372235728804 0.34334644312388862 2.8956764803941915 225 227 227 188.117035 334.430267 6
-2.1409991623480349 0.32461227766241346 3.6844340903873611 195 198 195 164.229156 325.472321 6
0.57143476138496507 0.30138062332679549 0.88144484250364519 136 88 255 633.028748 418.037842 6
-0.91482504613781712 -1.3984545269591364 4.7802757325999021 209 221 233 304.570435 176.173096 6
0.17547141241072017 0.46442877138720801 0.81646885355272047 204 255 203 462.230438 505.228607 7
-1.648623378983157 -0.30915910072712605 2.960404867329737 241 243 245 168.409531 247.239532 7
-0.19969516831654222 0.027891023442232279 4.2248906092708634 118 138 255 361.901337 286.654541 7
1.3690411499679096 -0.1413077213526519 4.5455398035719812 247 255 247 498.062256 275.904999 7
-0.92194418517387344 -0.15062719506588387 2.6904992932192773 109 255 69 250.822708 265.155426 7
-0.890218210191557 -0.39320891637877575 3.1852972312977395 255 227 228 279.488159 240.073166 7
-0.45540523569786151 0.39900945922702025 0.96699309902936692 108 126 149 200.658173 444.314514 7
-1.2387094867246806 -0.78006709354224546 4.3571885764074025 255 230 231 275.904999 218.574081 7
-0.88970780213525735 -0.43445163321569175 2.6874299033107749 128 149 255 257.989075 218.574081 7
-1.1697766602710744 -1.1101868015861904 4.3016330378629402 255 227 227 275.904999 186.325439 7
-0.96809214463682869 -0.70597804915420814 2.9772639799676632 126 150 255 257.989075 193.491806 7
-0.7456583227405984 0.34627121247836534 0.96940326917611319 180 171 255 89.5795441 422.81543 7
0.45671969253691302 0.48592444829296599 1.1780688361594756 168 180 255 533.894043 444.314514 7
-0.52630020687046875 0.3012367471325148 2.2824801889980355 214 216 255 297.404083 333.235901 7
-0.97680175890385001 0.078894659014552518 2.4670746649597497 123 142 255 229.323624 300.987244 7
-2.0244500551875029 0.18556060218767317 3.2934892676253416 244 255 239 150.493622 304.570435 7
-0.4807997408907656 0.49855996267798791 1.1992443176286423 64 93 92 232.906799 451.480896 7
-0.34456030182739483 0.47710459225834012 1.4917404392425953 127 136 255 297.404083 415.649078 7
-0.10925947646696588 0.12263458953121707 5.1716325828521574 112 131 159 372.650879 297.404083 7
0.58091110361252074 -0.62514521355229369 4.679417430821152 238 242 255 433.564972 240.073166 7
1.1320577096893607 -0.73654963134338547 2.7822362298534604 219 227 236 544.643616 182.742264 7
0.5473618437998431 -0.57103204835009513 3.4758394920751741 235 238 243 440.731354 229.323624 7
-1.5525571974309109 -1.0592302576315442 2.9567170974209684 230 255 207 182.742264 150.493622 7
-0.96379993461985203 -1.9193694955802942 5.4557512675942563 255 194 213 315.319977 154.076813 7
-1.237704461249034 -1.7018989274152212 5.8965430057328492 208 221 233 304.570435 175.575897 7
