ply
format ascii 1.0
comment Written with hapPLY (https://github.com/nmwsharp/happly)
element vertex 110
property double x
property double y
property double z
property uchar red
property uchar green
property uchar blue
property float ix
property float iy
property uchar octave
end_header
-0.94385253020374638 0.22990409192437555 1.9193340384471007 219 221 225 196 334 0
-0.37296679043066217 0.56301372325447696 3.8302266925718689 140 255 96 346 343 0
1.3601543373785978 -0.73482675206076586 2.1540033584221714 222 232 255 625 157 0
0.14987969888579755 -0.016005832272773968 5.4589130073656964 183 255 149 394 287 0
-0.47973286369631918 -1.8560335462841646 3.7543115481449787 170 191 255 333.600006 97.2000046 1
-0.96499529107913817 0.23462463617794457 1.9646088393008867 255 192 196 195.600006 333.600006 1
-0.43928808073817827 0.065869882556844561 7.6319972714352691 255 92 115 363.600006 292.800018 1
1.3955572591905203 -0.05068933253663363 1.7551807329742211 182 255 85 690 277.200012 1
-0.49513324497439504 -0.50850341823424827 1.1672575702865156 255 174 199 219.600006 121.200005 1
0.80901089976798457 -0.66351505425392621 3.4294796209969993 255 236 238 475.200012 213.600006 1
-1.0214336066039889 0.35483738266932452 1.0921882889337939 255 52 83 27.3600006 411.840027 2
1.0973807033877438 -0.56417488897868995 2.7067359681118823 240 255 226 542.880005 208.800003 2
-0.52408597616443675 0.49913862761853772 0.80403678423602098 150 171 255 133.919998 524.160034 2
1.1729620093244044 0.46377175290569989 1.7886241564312746 120 136 163 636.480042 387.360016 2
-0.66300820159034934 -1.6131099775579796 4.312417265518488 156 255 109 326.880005 142.560013 2
-0.54946950385852977 -1.4087228479570433 3.5820789412908551 154 255 108 326.880005 138.240005 2
1.0550023244484197 -0.4237622648716679 2.4236626251019269 243 255 233 550.080017 223.200012 2
1.309263857728749 0.56682858052840257 1.5033866030323439 13 22 255 717.120056 435.456055 3
1.1673133340484267 0.46177888541823919 1.7792408166771194 255 120 136 635.904053 387.072021 3
2.5692842119807939 1.1146524601584655 5.2836513700734447 109 123 148 568.512024 369.792023 3
-0.91234082142493067 0.48850428477672153 1.2919536093947079 129 255 147 110.59201 432.000031 3
-0.41595979132528482 -0.36425560321786432 0.95809728269453087 255 201 214 219.456024 145.152008 3
-0.97012506580180213 -0.40810992416245173 1.1271426539277498 255 54 70 51.840004 146.88002 3
0.73278752803134051 -0.62879310249694664 3.2480212786743667 243 255 237 470.016052 214.272018 3
0.50091585663854321 -0.52217692286222328 3.4757978003742975 155 179 255 437.184052 228.096024 3
-0.38824496117427731 0.27817132052319393 1.1495907779727657 230 255 231 254.016022 383.616028 3
0.35655340665000246 0.32022405344967209 3.8268061160471989 170 191 255 421.63205 317.952026 3
19.307802649157434 -31.392137023734211 58.822303669108607 169 191 215 508.032043 84.6720047 3
1.4116956400148728 -0.057639342401237081 1.7918008789028415 97 150 180 688.435303 277.862427 4
-0.91482815472302992 0.48077770907588957 1.2840438063177011 144 133 255 109.900818 433.382446 4
-1.0296512458181635 -0.2000804739648972 1.1581161966947318 28 51 255 41.4720078 221.875229 4
-0.99383420779601206 -0.34806808314946469 1.1628816840959053 255 41 58 51.8400078 174.182419 4
-0.97473054853820162 -0.15180230641508285 1.0874817020055882 22 38 255 41.4720078 236.390427 4
-0.91173477317065554 -0.53195753145515512 1.0364748920447249 51 79 255 49.766407 93.3120117 4
-0.33843365994902985 -0.42704061040451102 1.1963103864762394 255 195 213 275.788849 151.372818 4
-1.1672165374905745 -0.37342871358181562 2.1810985883688545 224 226 226 176.256027 226.02243 4
1.1836936698961678 -0.38038758488813018 2.4386876552434229 237 255 240 574.387268 230.169632 4
1.1284784997321564 -0.6238308143265946 1.9984179903970158 222 233 255 597.196899 167.961624 4
-0.53284458563571757 -0.04841901995523773 1.2132006703019913 255 110 119 215.654434 271.641632 4
-0.91846517219730073 0.3551786071583497 1.1065291584291903 15 24 4 64.2816086 410.572845 4
1.401386660278281 0.12723134144510012 1.7280180494164377 60 133 162 696.729675 313.113647 4
-0.51490916388401242 -1.9104079967690515 3.9186911030971823 170 191 255 333.84964 97.4592133 4
0.044063875540965025 0.5586061096430528 0.95461540024353209 217 255 204 402.278442 514.252869 4
1.2396573435898801 0.46720368307599125 1.5490983905047928 181 185 190 692.58252 400.204865 4
1.1350362894521986 0.39691591632256162 1.8073274611666372 197 201 207 624.153687 373.248047 4
1.0569146890449201 0.48089100434195625 2.1229268766263178 118 133 159 572.31366 370.759735 5
1.1308436868080087 0.36758271776455531 2.0577198546944322 255 128 146 599.685181 355.829803 5
-0.86185452845147026 0.44419243938372377 1.1785372777973055 255 30 30 99.532814 435.456055 5
-0.3130004155877959 -0.29549262914042812 1.2393564620318247 137 147 162 288.645172 191.600662 5
-1.0111408650168849 -0.41713742504121298 1.1731173446521446 54 70 95 52.2547264 146.810898 5
-0.96363669340203018 -0.47996159836569408 1.0816680173102937 255 39 63 47.2780876 119.439377 5
0.94175639872630146 -0.33397846158692102 2.7674149081175061 255 239 242 515.082336 241.367081 5
-0.53079264653157088 0.49869618552375911 0.8088880188839469 153 174 255 129.392654 525.035583 5
-0.31450625765366746 0.29353807674168031 1.3669135889322215 51 80 103 296.110107 375.736359 5
0.70916221100365529 -0.59815216967401497 3.0857070021689132 236 239 242 472.780853 213.995544 5
1.2251687166801379 0.53051941418564974 1.4886728865160483 255 13 13 699.218018 427.991089 5
-0.53295008295789525 -0.039754389557739134 1.1997286108844358 105 115 137 216.483871 271.226929 5
1.3352900486486676 -0.079098845837273113 1.7076100938212857 149 178 255 681.799805 271.226929 5
1.2174066404553723 0.42378179316513342 1.5557201476810771 58 255 21 686.776428 393.154602 5
-1.3358752219156393 -0.10198951896612501 2.6215299015504989 255 229 230 191.600662 271.226929 5
1.4023320039057721 0.15786881874411618 1.6801224186354133 165 255 66 706.682983 323.481659 5
1.385094926028499 0.12805693464421411 1.6984095775056298 255 57 128 699.218018 313.528351 5
-0.94587186313110738 0.41472477819046744 1.1329099677812438 9 255 42 62.2080078 430.479431 5
-0.31441570671932428 -0.30174058136365955 1.2406438657605312 255 224 230 283.668549 191.103012 6
1.1390311266445023 -0.53033709133948603 1.9668364871583437 223 234 255 609.140869 179.159073 6
1.126315261861035 -0.3486215977294651 2.1943463817832205 242 243 245 576.295044 229.920807 6
-0.51242483768946023 0.44949718970226127 0.88200104776786681 236 236 255 161.243164 483.729492 6
-0.44176567615209716 -0.065006173698373554 1.182817339979132 132 255 96 238.878769 265.752625 6
-0.34796409952757479 -0.21432604946186395 1.3729082319293449 216 255 226 286.65451 229.920807 6
-0.38760695743771034 0.28044456967021825 1.1558614831289731 234 234 255 253.808685 379.220032 6
1.3849519587310413 -0.47145300045892347 1.993411117434567 224 232 239 656.916626 197.074982 6
-0.53295008295789525 -0.039754389557739134 1.1997286108844358 139 255 114 214.990891 271.724609 6
-0.27221935994065838 0.46169945634045206 1.0744166163106432 75 96 255 289.640503 456.855652 6
0.35167399512728403 0.33510870912914281 4.5496782563164722 255 156 168 415.051849 316.514374 6
-0.53135171591988106 0.49183121761379245 1.174674284810977 131 142 160 212.004898 441.92572 6
1.2384525120418406 0.48053929526938566 1.5659371917310372 163 163 166 692.748413 406.093903 6
1.0869741098765098 0.43874200752187958 1.6320379856635006 255 118 134 639.000671 388.177979 6
1.2748566649744502 0.29868867011026362 1.6463564258919634 127 167 189 680.804504 361.304138 6
1.1187905682263239 0.30067477937185244 1.5018610366329064 118 135 255 665.874573 364.290131 6
1.1626259747884586 -0.6782711853011234 2.0961004185355208 226 235 255 597.196899 164.229156 6
-0.25347463773116852 0.40829854147962197 1.1981308102569597 69 95 255 301.584442 418.037842 6
-0.90620086823853985 0.47517523555779845 1.2714601694798864 165 255 169 110.48143 429.981781 6
-0.94300763984335756 0.41883877630552291 1.130147475556448 3 255 39 62.705677 432.967773 6
1.0352301735821452 -0.46853092171621169 2.5139271886938896 234 241 255 541.060425 211.407715 7
0.76588658879667681 -0.67062396478255337 3.4973301565825361 240 243 255 469.39679 214.990891 7
1.1057695145563406 -0.60299370991552315 2.6740091519962501 220 230 239 544.643616 200.658173 7
0.94182547520708393 -0.35341725023964643 2.8270033744203937 239 242 245 512.394958 240.073166 7
-0.45605043248195498 -0.070087137168370256 1.2034554921365439 95 107 131 236.48999 265.155426 7
-0.27191722703795973 0.25554871080838487 1.1489172800731637 161 255 147 286.654541 372.650879 7
1.2039027789320866 0.30899638528346968 1.5454076567927739 127 167 189 680.804504 361.901337 7
-0.50377432658944121 -0.44291013638873489 1.232056835253156 229 255 202 222.157257 146.910446 7
-0.50166526143506429 -0.51880978879197026 1.2158460760880758 197 221 255 229.323624 121.828178 7
-0.91363070031365767 0.024333315361023011 1.1720546344552187 209 210 255 85.9963608 297.404083 7
-0.21660403106249104 0.37279927231006971 1.0424123338458013 255 41 71 311.736786 422.81543 7
-0.6436704141983447 0.57853017144437924 1.4571919325117761 255 128 138 207.824539 444.314514 7
1.3658352183132507 -0.028054169428052139 1.7201983283536917 255 109 147 687.970886 283.07135 7
1.3459933173645295 -0.22719018607963887 1.8189074613980027 196 255 115 670.054993 236.48999 7
1.2436033642412649 0.54657198907778737 1.5316191429486148 255 13 13 695.137207 426.398621 7
0.32556585710831332 0.28314106216285806 3.583839779817966 158 171 168 412.065887 315.319977 7
-0.99179014858575076 0.2388456956791874 2.0090084918873199 147 156 255 189.90863 336.819061 7
-0.76337028233800686 0.13473054297675111 1.2461854946592399 151 255 131 154.076813 326.069519 7
1.4090408644973049 0.1239069541708758 1.7365161905452826 255 64 140 695.137207 311.736786 7
-0.22185027809663582 0.22748386051306013 2.6247961338966439 255 92 114 351.151794 315.319977 7
-0.12763273372463813 0.56416603496853246 1.1688034628342097 255 98 101 343.985443 472.97998 7
1.1217425352839425 -0.66333278393107964 1.9979118007704635 233 255 210 598.391357 168.409531 7
0.45528869113747472 -0.51988694820266823 3.7329535863182368 172 255 131 426.398621 240.073166 7
0.91474325218862473 -0.28051454599754594 1.9320350041000598 193 199 255 569.725891 240.073166 7
1.2230685710069631 -0.41235392605465337 1.6874451032109219 255 224 232 655.722229 197.074982 7
-0.54746311436956629 -0.049450233600702248 1.2134453348917082 138 255 114 214.990891 272.321808 7
-0.64174483819445616 -1.0792097330377231 4.2204127081459397 105 255 59 326.069519 189.90863 7
