ply
format ascii 1.0
comment Written with hapPLY (https://github.com/nmwsharp/happly)
element vertex 155
property double x
property double y
property double z
property uchar red
property uchar green
property uchar blue
property float ix
property float iy
property uchar octave
end_header
-0.045814041393450911 -0.614935064153315 5.286448486382632 255 159 171 379 244 0
-1.5431191193631801 -1.5075693055882482 3.014268865249683 255 176 195 187 97 0
-1.8049946846786926 -1.5636711084825428 3.1481013020624031 255 171 192 163 97 0
-1.5562767699223361 -1.8944720284690042 2.9937491700531247 161 201 255 185 46 0
-0.0185545655152628 0.45275436429092547 1.3139965449345068 255 224 224 379 421 0
-0.84167594509987431 -0.40605867123887307 3.0585454591128585 229 229 255 277 235 0
-1.5997339053357034 -1.03914456705988 3.0923240832720968 208 218 230 184 157 0
0.78003823575227682 -0.61440169400005296 3.798280905695127 255 241 242 463 226 0
-1.7028169777839848 -0.029030257438779392 2.9959411332301635 247 255 245 166 283 0
-1.5945496649470821 0.34769527287613528 3.0930610114766859 255 218 220 187 331 0
-1.7776408743330867 -0.33082184148175309 3.0977188265674376 255 241 242 163 247 0
0.70977439435212897 -0.77617453203805997 3.8518875748943033 255 238 239 455 211 0
-0.056254340718968177 0.31987880248984546 0.75635994815191809 255 217 217 355 451 0
-0.61415239164243918 0.36103991353774378 1.2080995067473557 60 255 141 190 403 0
-1.5610520149433156 -1.3767349686688422 3.0542192698371098 255 184 202 187.200012 115.200005 1
-1.7275369602081434 -1.3685459811974916 3.0334381056365318 205 214 225 164.400009 115.200005 1
-1.22076234344713 -1.6259420855611979 5.8396397346659068 212 223 235 304.800018 181.200012 1
-1.1911157343147369 -2.2185747065527139 6.3724025020556301 211 228 255 313.200012 154.800003 1
-1.7161109507510721 -1.7058777076956437 3.012385391142661 178 209 255 165.600006 69.6000061 1
-1.486814261013357 -1.8486790993434485 3.0200771097716115 255 135 167 195.600006 55.2000008 1
-1.7051016155724588 -1.7629444007520541 3.0603168372607223 255 148 175 171.600006 67.2000046 1
-0.3388016465017174 0.42897928351626452 1.4255826944558172 255 89 121 291.600006 405.600006 1
-1.7586899754987195 -1.3242073220038455 3.0772161609893103 218 227 255 165.600006 123.600006 1
-1.5176357910782672 -0.83765320688989431 2.9762804209534561 255 224 229 187.200012 181.200012 1
-1.4971928848668239 -0.90447086174256863 2.9475759722861476 224 233 255 189.600006 169.200012 1
-1.7977328050113268 -0.48365061892178751 3.128487043275114 239 241 244 164.400009 229.200012 1
-0.47045747355099832 0.44349756566966303 0.74488272539369027 255 173 183 139.200012 517.200012 1
1.4948472219969173 -0.83623037368480369 2.6566671481962447 232 255 208 598.800049 166.800003 1
-1.7161762679686654 -2.0347702497748328 3.0320666227140336 158 199 255 165.600006 31.2000008 1
-0.40193114513205708 0.40633467971174186 2.6628424918700571 235 235 255 325.200012 346.800018 1
-1.678844045795874 -0.068810568764289121 3.175898421863351 255 244 245 183.600006 279.600006 1
-1.5832235217211394 -0.23306961030533774 3.0076316330230326 244 245 255 181.200012 258 1
-1.5284278727179652 -0.75028728781940712 3.3841188191971394 255 186 196 211.200012 201.600006 1
-1.3768964166841968 -1.9722041476559107 5.773459925411875 255 195 212 291.600006 154.800003 1
-0.96823922288610964 -0.35014346708346644 3.4175068133426043 228 228 255 277.200012 249.600006 1
-0.014973367087947054 -0.75638227600307217 5.5194452748872873 170 170 255 381.600006 235.200012 1
-1.5446654764176762 -0.75853139865992092 3.0160980499664753 255 230 233 187.200012 192 1
0.69771871284351328 -0.78062587749141721 3.784378769166632 240 243 255 453.600006 207.600006 1
0.90542684473540969 -0.49082278397498791 3.674284903685014 245 255 242 478.800018 237.600006 1
-1.5144849862611305 0.12545974035076149 3.8316324185355635 255 105 122 231.840012 300.960022 2
-0.016954283055728325 0.41758858502757606 1.2028745170882247 221 255 222 378.720001 420.480011 2
-1.7638834521767732 -1.0297415382691257 3.0747509135936619 219 230 255 165.600006 156.960007 2
-1.5402713106417196 -1.0650636478077449 3.012963603480487 255 206 217 187.200012 151.200012 2
-1.7142738499081753 -1.0647344726628927 3.0089559233002987 218 230 255 165.600006 151.200012 2
-1.5707996223159935 -1.7123740968558085 3.0296378261899619 145 175 208 184.320007 72 2
-1.5856648117324661 -1.6595580861413994 2.8684449586024727 255 146 174 171.360001 66.2400055 2
-1.5930322113791702 -0.32668875948875059 3.073622062532257 241 245 255 185.76001 247.680008 2
-1.0704725661775756 -0.15496879270655345 3.0639615810282703 255 73 90 247.680008 267.839996 2
-1.5256967724310386 0.29548990846030898 2.688830408255189 230 213 195 168.480011 331.200012 2
-1.7558057916370879 -0.068678944380128892 3.1361779497453073 245 245 247 168.480011 279.360016 2
-1.1198935849742111 -1.5261170895117715 5.2710131608372697 255 211 223 303.840027 180 2
-0.46318210572169227 0.3112708958757161 0.49695265581580217 255 125 135 27.3600006 527.040039 2
-0.51759378510555121 0.46618943776435917 1.3767077181466201 99 126 131 240.480011 419.040009 2
0.40005042386338752 0.49959220104242386 1.7497189952474068 146 255 99 470.880005 400.320007 2
-1.2614265651751717 -1.7406535758987087 4.9095752528262899 227 255 224 286.559998 151.200012 2
-1.6467592834017144 0.25261393959223355 3.7755936733041411 255 95 110 219.456024 312.768036 3
-1.4998794849847301 0.1291994779501672 3.7581308662278889 255 105 122 231.552017 300.672028 3
-0.72586777212910825 0.26702758003193394 2.9059661534499388 194 195 199 288.576019 319.680023 3
-1.5578806996995267 -1.5169940594946649 3.0223749519521399 216 255 175 186.624023 95.0400085 3
-1.4649805249818457 -0.66286516742837298 2.874510429336155 239 255 230 186.624023 200.448013 3
0.40656449736105216 0.46066595629870044 0.78080387580184385 224 221 255 585.792053 516.672058 3
-2.1844044629117136 0.58410953799508081 3.3012099363516691 255 88 118 131.328018 357.696045 3
0.10503195190436876 0.4851521026094695 2.4286393082855886 224 255 225 402.624023 366.336029 3
-0.85133023162382715 -0.40419388553604824 3.0765326720362567 227 228 228 276.480042 236.736023 3
-1.7258057681321626 -0.47124700390258223 3.0299880348660984 239 241 244 164.160019 228.096024 3
-1.4130475778840212 -2.0002860311190154 5.5964060297545712 225 227 255 285.120026 150.336014 3
-1.0813844346662034 -2.0443013456600374 5.8622386414238097 192 210 227 312.768036 153.792007 3
0.40790660177596783 -0.56062005270247761 4.9217745220330134 143 255 72 414.720032 245.376022 3
0.13163472171483859 0.483530107284526 0.75167554485145693 72 82 95 452.736053 537.408081 3
2.1376666061705656 0.32671110386004087 2.9913879915156967 119 255 95 658.368042 331.776031 3
0.39216101534871584 0.44966942535641458 1.341180747556117 168 255 132 494.208038 416.448029 3
0.46060658750297112 -0.48123623153935013 3.7487592308356525 255 165 209 427.161652 236.390427 4
0.17506103739957757 -0.70343169009862316 4.8321374096874772 147 164 185 396.057648 232.243225 4
-0.60906342247641376 0.38635991949233767 2.7905178147882341 202 255 171 298.59845 340.070435 4
-1.4777450416291229 0.32548496069246075 2.6633593376639082 197 255 179 174.182419 333.84964 4
-1.4462184993408389 0.13744947327401244 3.6409396519626531 141 255 105 230.169632 300.672028 4
-0.77785857203960651 0.32397234053893914 1.6683658092849813 255 134 148 203.21283 360.806458 4
-1.1130324019716458 -0.16296339920485009 3.1624587389283771 76 94 113 248.832031 267.494446 4
-0.84998959579991862 -0.40249293516693579 3.0737543937641734 255 226 227 275.788849 238.464035 4
-1.7487854115672992 -0.48449902883358453 4.0150637934615192 255 126 140 215.654434 244.68483 4
-0.019245217995422781 -0.74877796641977956 5.418403748226857 170 170 255 381.54245 236.390427 4
-1.50703708860358 -0.69640174096763674 3.09056211427183 230 234 239 196.992035 201.139221 4
-1.7225310967414424 -0.83411809584822483 3.0067656178600788 255 227 231 163.814423 180.403229 4
-1.4742346846667971 -0.19301442517532569 3.0353813188700016 244 245 246 196.992035 263.347229 4
-1.0426206757514205 -1.9430149991942243 5.6303520445913424 255 195 212 311.040039 155.52002 4
-1.7248839556791169 -1.7140595221557795 3.0355134349447543 178 209 255 165.888031 70.5024109 4
-1.6962798717909351 -1.7721489545627371 3.0586661065374794 206 255 143 170.035217 64.2816086 4
0.58464749177505326 -0.66538797701822117 4.0370460487799553 237 243 255 441.676849 223.948837 4
1.1924409466527914 -0.8588921183037358 2.7474055836569362 255 217 224 551.577698 167.961624 4
-0.045998653820976232 0.43535991091011905 0.74765357943987709 220 220 220 360.806458 510.105682 4
-0.36177983563020422 0.43988363639959749 1.4893919706950527 130 255 90 290.304047 404.352051 4
0.42901875388267097 0.49634428379489209 0.84389114983296909 224 225 223 580.608093 516.326477 4
0.40440117130857645 0.47448753377306035 1.4241064609792784 145 165 255 493.516876 416.793671 4
0.084235271144696089 0.48685807026557665 0.93067088202284043 122 127 146 416.793671 485.222473 4
0.03131211895632946 0.45721726022965026 1.7823486780037219 255 157 167 391.910461 387.763245 4
-1.228151995787047 -1.6311495858809273 5.7785923739991683 235 255 211 302.745636 180.403229 4
0.079618531100841272 0.49565845427980698 2.4637569664845538 222 222 220 400.619568 365.783081 5
-1.5865156904391746 -1.0546429703162039 3.0395686722459554 208 218 230 184.135712 154.275864 5
-1.7478291441532288 -1.0899709700034059 3.0762418815330972 230 255 208 166.717468 151.787537 5
-1.0426206757514205 -1.9430149991942243 5.6303520445913424 211 228 255 313.528351 154.275864 5
-1.6811362946980597 -1.7569158442198558 3.0321554001283384 255 144 173 171.694107 64.6963272 5
-0.59641334455048955 -0.86762851334693447 2.970513971625834 255 210 222 303.575073 179.159058 5
-0.049283339921835312 0.43661962391844672 0.76029775333237493 255 218 219 363.294769 507.61734 5
0.51903268301782413 -0.27431961162434193 0.91346362049969532 255 203 218 599.685181 169.20578 5
-0.38955590383928618 -0.068259890815752039 6.455569304435592 95 115 137 360.806458 283.668518 5
-0.98818601685352636 -0.59534391192328151 3.4162915488967167 230 230 231 276.203552 218.972198 5
0.40318873254366139 0.46513889368416356 0.78499329699474885 255 221 221 579.778625 512.593994 5
-0.83717422784183304 -0.39080445852593992 3.0259601665852771 226 228 228 276.203552 238.878754 5
0.53854838435257202 0.46697567516758587 1.9676798400134641 165 255 144 490.199097 378.224701 5
-1.3007408115189989 0.1127211951661074 3.296420368073731 255 102 120 231.413788 298.59845 5
-1.7160473106126815 0.32235397931176368 2.9918902040924733 200 255 230 166.717468 330.946594 5
15.687754233392873 -18.942387462520486 33.592933643084272 209 255 137 562.360413 72.161293 5
-1.3985987606568941 -1.9619856867258938 5.540005253801537 227 255 224 286.15683 151.787537 5
-1.6893747171069449 -0.31361682617116637 3.0070880217004263 245 255 241 166.717468 248.832031 5
0.64649006529261455 -0.71659437310637419 4.4116863647659388 237 243 255 441.92572 223.948837 6
0.17874935976068596 0.62940808698959538 1.5768679954021136 223 224 223 432.967773 444.911713 6
-0.49632726087946866 0.34082946346809079 0.58633062179068984 102 131 145 56.7337074 507.617371 6
-1.6360869115531651 -1.0760792656084461 3.0997482209030012 230 255 208 182.145065 155.271194 6
-0.82526491942646762 -0.52831405069055404 2.9622669225981908 230 255 229 274.710571 220.96286 6
-0.94850264673227169 -0.441060821593173 2.7938521388140769 179 185 192 256.794678 220.96286 6
-1.0390870600783684 -0.95000880662223475 3.8359041928866686 227 255 225 274.710571 188.117035 6
-1.0272438734284171 -0.71202186778482224 3.0840385777901402 179 185 194 256.794678 197.074982 6
-0.057411989698038068 0.44451920650568821 0.78675263166600318 218 215 255 361.304138 507.617371 6
1.1848523220598397 -0.84375757310034638 2.7140523282992026 217 224 234 552.407166 167.215134 6
-0.56642051713852437 0.011550334962155212 5.9953614051959665 117 137 255 349.360199 286.65451 6
0.11547334663134201 0.4568664797049492 0.9293114747447051 178 255 165 426.995789 474.771545 6
0.08596535819623341 0.48934670264990549 0.93778767593851864 118 140 255 421.023834 492.687439 6
0.39682862777272199 0.47762789811838763 1.4867876495994636 255 150 160 483.729492 409.079895 6
0.44758956330727506 -0.52026620201401763 3.3257121590803616 230 237 241 432.967773 229.920807 6
-0.98265025931951921 -0.1571809976262814 2.8013182430173642 255 72 87 247.836716 265.752625 6
0.46545349912826006 0.39657074158031769 1.66213374704303 154 255 120 486.715485 379.220032 6
-0.020637559509341097 0.40668518371189549 1.2125012667010358 216 218 209 376.23407 418.037842 6
-0.70892223105533136 0.33617712666860555 0.96459990400628137 109 136 148 104.50946 418.037842 6
-1.5561017356761622 0.33797493856827909 3.0482228278804744 224 224 255 185.131042 331.444275 6
-1.5290335997370144 0.33077249010827847 2.7499450689027185 167 182 255 173.187103 334.430267 6
-1.3507259646657213 0.13955753124964307 3.3938355628001409 113 132 255 229.920807 304.570435 6
-0.83947418561284382 0.34700947724389336 1.1226155606092723 255 122 138 95.551506 406.093903 6
0.0036639252689878443 0.41938224603358809 1.4166088483693868 123 255 95 382.206024 400.121918 6
1.06200975932778 -0.73828171358032058 2.904228689436037 228 236 255 525.533264 188.117035 6
1.0054041262905784 0.26455487797168853 1.4424294030098848 255 90 100 655.722229 351.151794 7
0.48983694640085118 -0.57001353056612114 4.3516851986427252 190 255 140 422.81543 240.073166 7
1.5129818537783966 -0.7786231362493492 2.6634393692503089 232 255 202 598.391357 171.992722 7
0.39763941826092208 0.48118179143787143 1.2996386924240131 209 208 255 501.645416 429.981781 7
-0.22948600467814817 0.030007444656979132 4.098679431020579 136 255 95 358.318176 286.654541 7
0.54833242582719144 0.26749250877713748 0.98431899059179773 28 255 13 594.808167 390.566803 7
-0.53415036118401304 0.39931364195021668 1.111030391682583 128 150 255 197.074982 426.398621 7
-1.0138253309666907 -0.51262746176773355 3.3175235699545791 228 229 229 272.321808 222.157257 7
-1.3489857307197322 -1.7429096534863886 6.1640775131234475 211 222 234 300.987244 179.159088 7
-0.89008443393650882 -0.380787260434436 3.1319600251373743 255 225 227 275.904999 240.073166 7
-0.17110951147768128 0.10652570451217477 5.2841322562436108 133 161 255 369.067719 297.404083 7
-0.58784846256787859 0.29452132468836129 2.3948253836109372 175 193 255 297.404083 336.819061 7
-2.1337159778082673 0.18644328135079608 3.4685584206792557 247 255 239 150.493622 300.987244 7
1.0712988461842792 -0.74319770548035657 2.8960151660756912 237 255 222 526.727722 186.325439 7
-1.2229188460234077 -2.1305038887430179 6.3240930758283138 255 197 213 311.736786 157.659988 7
-1.7120817186860671 -0.31640860388668079 3.0739535004267617 241 242 245 168.409531 247.239532 7
