ply
format ascii 1.0
comment Written with hapPLY (https://github.com/nmwsharp/happly)
element vertex 173
property double x
property double y
property double z
property uchar red
property uchar green
property uchar blue
property float ix
property float iy
property uchar octave
end_header
-0.48076841196998688 0.081055771093987317 7.9047251964081706 115 136 255 361 292 0
1.2797007832735972 -0.25442934297777209 1.8732379119910751 158 197 255 645 235 0
-0.95686535383030069 0.22256163049494598 2.0566153445108002 93 110 255 205 328 0
-0.43376999296535113 -0.37014691441757541 1.1026908111144906 207 219 231 232 160 0
0.43745973647815317 -0.51957991915323454 3.8033580175829522 255 139 162 427 235 0
0.357817044571203 0.34848017968130224 0.56774556954984634 216 255 219 626.400024 524.400024 1
0.65648709298984365 0.55607338212634705 3.36757839431937 136 147 159 460.800018 352.800018 1
1.1426865089360163 0.44685457851305771 1.9345162090516128 176 255 134 610.800049 376.800018 1
-0.45049462725631706 -0.38352633494392563 1.1445359538159905 255 208 219 231.600006 160.800003 1
-0.95388501920223367 -0.77434701668007588 1.2275926770829653 255 61 79 87.6000061 45.6000023 1
1.3603746031103467 -0.065691101030609905 1.9002694888478677 148 191 255 661.200012 273.600006 1
0.77849500725807597 -0.67188756739302447 3.6180588916849432 237 239 243 468.000031 217.200012 1
-1.0428097896289383 0.13516443047098853 1.2514009996957309 83 99 118 64.8000031 329.76001 2
-0.99959695428797479 0.33388592921783589 1.1928187571633662 255 64 74 63.3600006 396.000031 2
-0.51725107091768985 -0.083746792653172891 1.4384395346419607 93 105 129 244.800003 266.400024 2
0.18574216391082543 0.40535013369763889 1.0137644382670161 85 93 255 453.600006 442.080017 2
-0.1075664352765866 0.51402491402845474 1.4573533550232534 255 9 18 355.680023 423.360016 2
-1.0403969049589694 0.23731805880849299 2.2643392627848771 87 92 109 204.480011 328.320007 2
1.1338446706892391 0.44455184337866072 1.9309307009574725 174 255 132 610.559998 377.280029 2
-0.9563921469763863 0.40519183433914774 1.2878056572896179 255 21 29 99.3600006 408.960022 2
-0.40417793361656162 -0.11037282902241846 1.0954272070607818 255 90 106 243.360016 249.12001 2
-0.51417602533479556 -0.51043234990643827 1.3092494883052055 227 255 198 234.720016 139.680008 2
-0.99613807006366883 -0.57728664586209166 1.2877141357548241 255 39 64 87.840004 115.200005 2
2.4483710187012413 -0.051536261229848335 2.6633313022266041 141 177 255 737.280029 279.360016 2
1.4001502165517217 -0.070287709613276961 1.9630466309185266 255 112 146 659.52002 273.600006 2
0.7060228668581856 -0.63675967298046199 3.4166449794253975 239 243 255 465.120026 217.440002 2
1.1186502753559942 -0.47183902054964133 2.6872563752209171 236 242 255 545.76001 220.320007 2
0.88621856563038959 -0.33473159955154624 2.7902505356842662 239 242 245 504.000031 243.360016 2
-0.53902956938300139 0.48116738803244036 0.94731458083887388 159 179 255 165.600006 483.840027 2
0.36110100275954737 0.35533181764900978 0.57713901761117326 219 255 223 626.400024 525.600037 2
1.0423696144394086 -0.43315456886114723 2.4664019498378691 231 236 242 544.320068 221.184021 3
0.38436656324794405 0.48192418686404787 1.0486603587045695 255 203 202 523.584045 461.376038 3
0.20371435158504214 0.56682891867752971 1.0155306288083503 220 217 255 461.376038 504.57605 3
0.022551977565926418 0.53577166455617442 1.0891285117341529 209 219 218 392.256042 478.656036 3
1.1952588338272438 0.3922467048033374 1.738442427756107 129 147 174 648.000061 371.52005 3
1.1470330266176976 0.44720844254158965 1.9508633916051537 150 178 255 609.98407 376.704041 3
-0.99766943292262189 -0.069862971692431969 1.261639677783589 92 117 255 81.216011 264.384033 3
-0.92816221904601415 0.34283257629956521 1.24722450051109 3 255 4 98.4960098 392.256042 3
-0.57966006047192398 -1.4107456553696951 3.7525283252861232 119 140 255 321.40802 145.152008 3
-0.97390183405528585 -0.40447264987647924 1.2567294447508597 109 255 63 86.4000092 162.432022 3
-0.95388501920223367 -0.77434701668007588 1.2275926770829653 110 255 62 86.4000092 44.9280052 3
-0.96041238414942853 -0.48746729044908177 1.2431943206985547 104 255 50 86.4000092 138.240021 3
1.354537393152689 -0.26784372763964304 2.0173178651928749 198 255 118 642.81604 235.008026 3
2.477116589219353 -0.055925087354553815 2.7030735272962954 77 146 176 732.672058 278.208038 3
0.42798027543482076 -0.50703725490661977 3.6733009366349441 180 255 141 426.81604 235.008026 3
-0.54501516941504224 0.4806535000927607 0.95134582914900756 144 158 178 164.160019 482.112061 3
-0.38136897344664433 0.25773267517463155 1.2108850222313801 182 182 190 264.384033 366.336029 3
-0.96238041512767891 0.15672941886494762 1.2353953179987753 81 255 49 86.4000092 336.960022 3
0.357817044571203 0.34848017968130224 0.56774556954984634 215 209 255 625.536072 523.584045 3
0.43507502433033496 0.33811298040751236 0.59195710941469182 255 223 223 663.552063 506.304047 3
1.2639335111063255 -0.24174219204987918 1.866812559347272 198 255 118 642.816101 236.390427 4
-0.94173639810172505 0.39694864161767784 1.2480314495405707 255 3 5 95.3856125 410.572845 4
0.11308601424619047 0.49320224873556318 1.0640659877241925 204 204 255 425.088074 464.48645 4
1.105137855515796 0.37998522824854658 1.9536182640011992 145 171 255 601.344055 364.953644 4
-0.30886743755155877 0.43372777190231365 1.5472100780119344 141 255 130 306.892853 400.204865 4
1.2074302691399224 0.44679482558010514 1.6932672188346878 80 83 255 657.331299 389.836853 4
-0.32842821637669051 0.28589562793470552 1.4841717255890163 173 255 152 298.59845 360.806458 4
0.088529917448616935 0.54284445265301584 0.96213585945810642 208 255 187 418.867249 505.958466 4
-0.52103602653871572 -0.054648897930423185 1.2832957383779999 131 255 101 226.02243 271.641632 4
-0.98787879677444224 -0.40830624092627832 1.2635751300663691 255 63 83 87.0912094 161.740829 4
-0.99552049962474687 -0.15847549612011003 1.2459211018261236 24 30 51 76.7232132 240.537628 4
1.3323055052074104 -0.74937774527518164 2.327294189042 255 207 219 603.417664 167.961624 4
1.1215812753649177 -0.36710207631021108 2.4684095220151043 255 238 241 559.87207 230.169632 4
1.3503586986984684 -0.069832561051027975 1.8813123884552692 144 178 255 657.331299 275.788849 4
0.4141195199086567 -0.49755823575235614 3.740237800916268 255 134 156 427.161652 236.390427 4
0.97449440549557498 -0.3483510074762044 2.8265474883209629 239 242 245 512.17926 242.611237 4
-0.16995389030096963 0.011968658066308979 2.8377514285729841 94 115 135 360.806458 292.377655 4
-0.41569279311909391 0.27206842457586455 1.3349569443654636 255 183 183 263.347229 367.027252 4
-0.99751976233260464 0.19489159024087027 1.745811245912849 137 151 255 161.740829 331.776062 4
-0.95991595017432552 0.010559676736851875 1.5530639762315612 137 150 255 145.152023 292.377655 4
-1.0405147929068437 0.34727166939273946 1.2472207504252184 53 255 37 62.2080078 393.98407 4
0.43480989433727357 0.33809941874607385 0.59134907480645404 255 225 224 663.552124 508.032074 4
0.33917583404782192 0.5187226192522395 0.86006358961849827 153 255 124 534.988892 516.326477 4
0.23336770942413132 0.53851491014441022 0.94214524254158016 255 212 212 479.001678 505.958466 4
1.1034869658394064 0.35244231787555513 2.2083129138125184 175 255 128 574.387268 350.438446 4
1.3772340813513209 0.10963371120739404 1.8934774550217126 132 168 255 665.625671 311.040039 4
1.1492544443950989 0.56163863936924585 2.0528267047261473 71 39 255 601.344055 393.98407 4
1.130910220032777 0.44030443032080174 1.9061482960787419 147 175 255 609.638489 377.395264 4
19.144810384712414 -31.32070113588312 59.075682795327047 171 191 216 508.032074 85.0176086 4
-1.2234966607515734 -0.39089436749167872 2.2981741938058109 223 224 224 180.403229 223.948837 4
0.32595050676310544 0.31822333295572458 4.3770717250644777 172 255 155 418.037811 313.528351 5
-0.91776617908835068 0.4631900029849243 1.412905704257533 125 255 162 134.369293 413.061188 5
-0.97098418721910651 0.41311551193971552 1.3047771396568857 4 255 4 94.5561752 408.084534 5
-1.0580429591544296 -0.66614173090784645 1.2816999385866419 52 80 112 64.6963272 84.60289 5
0.71927634613334113 -0.27049694058027612 2.2966094296203377 245 255 239 502.640717 241.367081 5
0.4141195199086567 -0.49755823575235614 3.740237800916268 255 131 153 427.991089 233.902115 5
1.3334557073143807 -0.068605854153690637 1.8772112249467048 255 112 146 659.404907 273.71524 5
0.43210180132241316 0.33494022673836654 0.58650271331923198 216 255 222 666.869873 507.61734 5
0.25691510634615256 0.49819475183022605 0.98857273390701739 255 189 189 487.710785 477.757507 5
-0.33217307541172358 -0.29969722034228208 1.3666767969402245 232 239 255 293.621796 201.553955 5
-0.35907219361581877 -0.43037097347778819 1.3365661575631065 220 233 255 281.180206 164.229141 5
-0.66070520741883954 0.19702033509139621 1.5446214862951635 199 255 165 218.972198 338.41156 5
1.2847324968827847 -0.30218090097880845 1.9315395957941988 255 127 163 639.498352 228.925476 5
1.0917886836699009 -0.36204582692454124 2.3319459553879627 234 238 243 564.848694 226.437149 5
1.1019059004526133 -0.63417580205155555 2.1593993222112795 255 219 226 579.778625 171.694107 5
-0.55945730120233517 -0.048091705188179568 1.37046564266719 131 255 101 226.437149 271.226929 5
-0.38706348033768512 -0.22713365311771794 1.5811687964940271 236 244 255 293.621796 231.413788 5
-0.59521233443684185 -1.4122418282015134 3.7011579698664443 89 114 135 320.993317 144.322586 5
-0.5629185021699179 -1.9649821564144561 4.2289318012722052 189 217 255 333.434937 106.997772 5
-1.0562664875587338 0.16601628902496901 1.3421666060279356 255 54 76 87.0912094 335.923248 5
-1.0460706801061295 0.049537880110470084 1.2696913116719961 255 78 97 67.1846466 303.575073 5
-1.5010543256452555 -0.13142171419127519 3.0412969002638075 221 222 222 196.577301 271.226929 5
2.3608675409132944 0.37426449711173304 2.8075033496589423 185 255 136 706.682983 343.388214 5
1.3387234039410485 0.11195063566664737 1.8182111511060493 166 255 98 666.869873 311.040039 5
-0.1549714333813208 0.56954941492993216 1.3629111214156859 179 183 183 340.899902 447.897675 5
-0.33422533725517933 0.49753447122645333 1.2575075739392667 255 118 132 283.668518 440.432709 5
-0.6563187811747575 0.56274739981311095 1.5925954776710505 159 255 132 226.437149 423.014465 5
-0.9529931130810807 0.19861243877183649 1.6800727276487901 140 153 255 161.740829 330.946594 5
1.3056782914905307 0.60315709830065789 2.9937039983055289 75 95 255 557.383789 365.783081 5
1.2572597882005396 0.27927283596487101 1.8249384946432849 255 100 114 651.939941 350.85318 5
-1.0425477408182218 0.26623742401666028 1.2554843557208066 95 115 133 64.6963272 368.271423 5
-0.22373327281900601 0.46402156065587469 0.79761194563838611 233 234 233 276.203552 512.593994 5
31.060271096764666 -31.019150085284799 60.838189380452214 151 181 213 576.295044 86.5935516 6
-0.37822469206105636 -0.66351123379997523 2.5470974298556461 96 118 255 325.472321 194.088989 6
-1.0042627258400003 -0.64132477404996702 1.2595615756461318 50 74 104 80.621582 92.5655212 6
-1.0117862856526352 -0.72642718932352268 1.2814758496726308 61 87 113 80.621582 68.6776428 6
0.93071852111810649 -0.36559016991536497 3.0759964791484293 242 245 255 501.645416 238.878769 6
-1.0494518315548325 -0.20597238339034168 1.31783208512261 58 255 22 74.6496124 226.93483 6
1.2423614498185054 -0.67867500613124532 2.1963436788690061 255 207 219 603.168884 167.215134 6
-0.65743204812930456 0.4224169817835477 0.88254276035097146 218 219 255 101.523476 471.785553 6
-1.3792031932942388 -0.10453743830868106 2.8306983632759808 221 255 218 194.088989 271.724609 6
1.3028824969063488 -0.094363855703521904 1.8563775804707552 181 255 128 650.944641 268.738617 6
-1.0457726808366745 0.13662995646492698 1.2500965889234936 119 255 85 62.705677 328.458313 6
-0.89755070827682015 0.017420054848869937 1.2548572354171128 99 121 255 113.467415 292.626495 6
-1.0443164848325535 0.052727542562215152 1.272335561412886 99 124 255 65.691658 304.570435 6
-0.95397479388578565 -0.0086539301768773502 1.3104628144670376 28 42 70 104.50946 286.65451 6
-1.0089257132797682 -0.096160483216454262 1.2569406145421422 95 255 46 74.6496124 259.78067 6
-1.026385245091106 -0.16430365306110112 1.2850949944653256 56 255 22 74.6496124 238.878769 6
-0.66070520741883954 0.19702033509139621 1.5446214862951635 181 200 255 217.976868 340.402252 6
-0.52521318030416886 -0.52686625105910911 1.3809107115599475 255 197 212 235.892776 140.341278 6
-0.55945730120233517 -0.048091705188179568 1.37046564266719 131 255 101 226.93483 271.724609 6
-0.34235073312088637 -0.20823253759927601 1.3757824188470598 255 231 237 283.668549 232.906799 6
-1.019203781814598 0.2351577040086345 2.1841925268326552 97 102 117 200.060959 328.458313 6
0.10631465818527408 0.50322397088795046 0.90268907774536844 223 255 224 426.995789 501.645416 6
0.30119696344962743 0.27494497923859529 3.7073194747208449 157 171 171 412.065857 313.528381 6
-0.22664602571872328 0.2215007096593245 2.6016782354901551 115 136 255 349.360199 316.514374 6
1.1775014794668819 0.29160245371256666 1.6995933546910074 137 255 106 650.944641 349.360199 6
2.4328441650512151 0.24581594542848179 2.9452236227381539 63 131 161 704.692383 319.500336 6
-0.15128324848925612 0.55497503397274328 1.3385057004738177 179 183 183 340.402252 447.897675 6
-1.0755387717412663 0.34992417557890976 1.2906684061014269 255 64 79 59.7196922 394.149963 6
-0.28094918347964759 0.40147678022165234 1.395036688862759 255 102 121 307.556396 400.121918 6
-0.24026967869147153 0.36625636759570734 1.5560397257663139 99 255 50 322.486328 376.23407 6
-0.93795636995252618 0.40307163651012334 1.2522978374388134 0 0 0 92.5655212 412.065857 6
1.0822958098291402 0.43208128682044367 1.8713302269095093 129 146 175 612.126831 376.23407 6
-1.1601909950993328 0.36815840212755485 2.1746194146457283 215 217 218 176.173096 352.346191 6
-0.9874410050655662 -0.56284584439583818 1.2325188990617506 57 81 111 80.621582 113.467415 6
-0.55093740379890788 -1.916800886633256 4.1050730190452738 255 161 189 331.444275 107.495445 6
1.2950550356519726 -0.043556403819400069 1.791071550900333 255 120 147 659.30542 279.488159 7
1.2438889643465219 -0.2296965198973831 1.8536853676347311 159 199 255 641.389526 240.073166 7
1.086204277811516 0.2829169358696183 1.6463131787641618 119 255 85 630.639954 354.734985 7
-0.84795109389582102 0.15107002121895644 1.2971288717314153 109 113 128 136.160904 326.069519 7
-0.94291826781936727 0.015249048562235468 1.3450707333125482 106 255 75 114.661812 293.820892 7
1.3766034092709962 0.10818831581674362 1.884815007150106 167 255 98 666.471802 308.153625 7
-0.29443367255109676 0.45039973368015596 1.2256547531866824 169 255 133 290.237701 433.564972 7
-0.28406784678496599 0.45250599599889918 1.2460714220969953 147 164 255 297.404083 429.981781 7
-0.57431689826891308 -0.05741197065764872 1.3850870221081726 126 255 85 222.157257 268.738617 7
-0.32958096984873375 -0.20269827829937398 1.325762507047116 244 255 232 290.237701 232.906799 7
-0.23455379632461382 0.35846521269449916 1.1869589692019802 74 96 118 308.153625 401.316345 7
-1.019203781814598 0.2351577040086345 2.1841925268326552 95 99 115 200.658173 329.65271 7
-1.0873675422373301 0.21588602979086507 1.9327900997104202 145 146 157 164.826355 333.235901 7
-0.53821997532783827 0.43753124229198503 1.0468214617478173 233 232 255 189.90863 451.480896 7
-0.89868441673332544 0.38634860108693858 1.1861976944777277 0 0 255 93.1627197 412.065887 7
-0.35763904963090942 0.29679942141091298 1.6433347420300448 169 175 255 297.404083 365.484528 7
-0.60370995441754438 0.14888814487735841 1.4746903120440353 157 255 123 222.157257 329.65271 7
0.96639389035641809 -0.4305316532143606 3.2186248046988561 241 245 255 501.645416 236.48999 7
0.41172972830631083 -0.49173380736323269 3.8820131267371369 180 255 144 422.81543 240.073166 7
0.72927578735280663 -0.66507985319176355 3.5842501863045744 242 255 233 462.230438 218.574081 7
1.2372690678048581 -0.44428415987896264 1.9394179635390101 240 255 226 630.639954 204.241348 7
-0.9874410050655662 -0.56284584439583818 1.2325188990617506 102 255 50 78.8299942 114.661812 7
-0.32273517209031333 -0.42020132592908643 1.2810272815351702 218 231 255 293.820892 164.826355 7
-0.51993065032946184 -1.8290538180211329 3.9088634302473801 189 217 255 333.235901 107.495445 7
-1.0494518315548325 -0.20597238339034168 1.31783208512261 255 31 41 75.2468109 225.740448 7
-0.64067959592191848 -1.0569415406523428 4.2959258082302227 120 255 83 326.069519 193.491806 7
