ply
format ascii 1.0
comment Written with hapPLY (https://github.com/nmwsharp/happly)
element vertex 111
property double x
property double y
property double z
property uchar red
property uchar green
property uchar blue
property float ix
property float iy
property uchar octave
end_header
1.0634358265563457 -0.21566953228004149 1.2889052687645002 155 184 255 701 223 0
0.6963938032670649 0.0030804402423703081 1.8875502807264093 255 249 250 523.200012 289.200012 1
0.56814106985318058 0.041703228345456367 2.334749984956777 251 255 247 478.800018 295.200012 1
1.2019157591358534 -0.34974100197998226 1.3024190876399206 235 238 242 736.800049 183.600006 1
-0.06366098510783047 0.66821396148473067 1.1109142172160027 57 68 255 361.200012 519.600037 1
0.73693078015210323 0.44113521884250595 2.3150486356080728 161 255 133 506.880005 362.880005 2
0.59254910212219469 -0.0018494589713915488 2.4122887216865259 251 255 248 478.080017 290.880005 2
1.1436917623088996 -0.47136194198011117 1.4146137993530337 255 230 233 691.200012 159.840012 2
0.27991077043437551 0.63646892265203991 1.7261851325276547 174 255 107 446.400024 426.240021 2
-0.39116221031984288 0.4860761111537828 1.7866270829514619 255 145 171 299.52002 394.560028 2
-0.39099674335771351 -1.481489931154389 2.6305521455207987 198 221 255 329.76001 72 2
0.53584532705666543 -0.43196613279316676 2.7420458769688238 241 245 255 457.920013 224.640015 2
0.92367011438522528 0.58832789936099372 1.6300906501236669 115 130 154 600.480042 423.360016 2
1.1145357419330486 0.056717161494962198 1.2469886142096929 174 255 123 730.080017 305.279999 2
0.33782039882055903 0.66513625646445718 1.1208995975762912 132 152 255 501.120056 516.672058 3
0.98279059111489897 0.48881899909032089 1.4382745541870383 196 255 166 642.81604 419.904053 3
0.59918473317901988 -0.1786581009658601 2.4655654022001201 247 248 250 476.92804 259.200012 3
0.6994558500548318 0.1385555230493889 2.1868069790814442 188 202 255 509.76004 312.768036 3
0.24141973759612601 0.65105353793939269 1.145980936081556 125 137 157 464.832031 502.848053 3
0.28424767607449364 0.660771903967448 1.8179981438164985 140 164 255 445.824036 426.81604 3
1.0725143354227449 -0.071525481281847103 1.2846118351451601 255 120 157 703.296082 267.840027 3
1.0697862344535314 -0.21832579456478651 1.2975737789689408 186 255 123 698.112061 224.640015 3
0.87572644517545495 -0.23429939290605706 2.0794337340350078 248 255 243 542.592041 245.376022 3
1.0515909216654136 0.59834411524049447 1.1576997145718551 163 255 116 730.944092 483.840057 3
1.0041540203373398 0.3637604346152048 1.3534280439189903 103 113 135 668.736084 387.072021 3
1.0600010667313093 0.30745610774165799 1.3120815154762022 93 112 132 696.384094 378.432037 3
-0.26451164318982912 -0.33839840418352019 1.7365539030645678 239 244 255 325.555237 209.433624 4
0.28118434611204046 0.16421505779290335 4.1191884815362272 151 170 192 408.499268 302.745636 4
0.57039429793771412 -0.44700530383949477 2.3589339945570043 241 243 246 476.92807 217.728027 4
0.62905997581418083 -0.55007946782831496 2.3761399824507512 237 243 255 485.222473 199.065628 4
1.0593810360045488 -0.36935272912351724 1.4801280329627104 255 153 176 659.404907 196.992035 4
0.97168150670024489 0.61560563615408359 1.735735425805613 255 70 80 599.270508 425.088074 4
1.2178858911061221 -0.37695740610398909 1.3721738941442254 237 242 255 725.760132 182.476822 4
1.2334803132095371 0.94578366471063147 3.2061856020165695 165 255 134 530.841675 404.352051 4
0.84754463571148486 0.4218555318452184 2.1639430392208663 255 133 144 539.136047 362.880066 4
0.26310871948245396 0.70269485310734137 1.2649657544021302 117 129 149 464.48645 503.884857 4
0.34233669822839219 0.63464872083722135 1.2127878042555906 151 174 255 493.516876 493.516876 4
0.36243162973242526 0.70041634753936055 1.7935233869368856 173 255 135 462.412872 439.603271 4
0.2725588981772975 0.63157568441506129 1.728596992462446 139 163 255 445.824066 427.161652 4
-0.39217259841164154 0.29934780768267677 1.6000961264023044 149 165 182 292.377655 356.659241 4
-0.24270058969158548 -0.4168083142597041 1.5639047473465792 232 240 255 325.555237 184.55043 4
-0.45680897323680814 -1.3137478268616682 2.5058778347076576 194 220 255 313.113647 82.9440155 4
1.0560073405515615 -0.20394637096244095 1.2855573076507181 122 159 186 700.876892 228.096039 4
0.81215026023027947 -0.52473180400170083 2.0478236929923206 235 241 255 537.0625 188.697632 4
0.52617262055672565 -0.42982683692538259 2.6978322791508464 246 255 239 458.265656 226.02243 4
0.56540137981078842 -0.22040821401348154 2.2243568344673044 247 249 255 481.075256 250.90564 4
-0.37055782613174726 0.60873605703182498 1.0288866645430668 138 152 170 244.68483 518.400085 4
-0.07313603039148564 0.69815078074290859 1.1717258432246407 131 255 103 358.732849 518.400085 4
-0.25741754748890822 0.67369390599258239 1.2092878460177285 147 255 79 298.59845 501.811279 4
-0.48159679921679155 0.068579193653543591 2.2358497433492586 149 165 184 300.672028 300.672028 4
1.0033487639217422 0.365672149198772 1.3535392161442603 255 103 112 667.69928 387.763245 4
0.5701240007072963 0.63029324912400764 2.507695573207207 219 255 224 474.854462 387.763245 4
0.32972977598171616 0.17202923710480711 3.1086111971188286 255 57 115 423.014465 306.063416 5
0.20075259659124689 0.12175644789585949 4.2413086508589597 136 158 178 400.619568 296.110107 5
16.714000428406592 -26.613311209670144 48.19347992131194 163 191 219 520.05896 74.6496124 5
19.410875461014072 -31.26069714397579 59.335291096201509 223 255 180 510.105682 84.60289 5
-0.2082530041991757 0.67840277232448187 1.1195961826109722 120 141 166 316.016693 522.547302 5
-0.48153226853508801 -1.3249385231770994 2.5167032648449892 194 220 255 313.528351 82.1145706 5
0.80482306689770056 -0.52400189694672328 2.070500792388132 234 241 255 537.477173 189.11235 5
0.40698662629512738 0.66353505744934349 1.4444672149753304 255 130 142 495.175751 462.827576 5
0.8111063925828641 0.69515193756041871 2.1386175798892353 129 141 160 532.500549 413.061188 5
0.81053778208699301 0.63095164888161825 1.8505689040277513 137 155 255 557.383789 420.526154 5
0.41473877384451718 0.65823566583423254 1.2932537639019488 116 129 149 504.631378 483.729492 6
-0.37333006947117786 -0.83566694430448152 2.4158278816354102 204 220 234 328.458313 155.271194 6
-0.37162465444942905 -0.87151371369346009 2.5669941868311126 219 233 255 325.472321 152.285217 6
-0.35636442361494236 0.73521749984740126 3.8020099248311459 91 255 73 346.374207 361.304138 6
0.16847824951588963 0.68621441087425694 1.3500676283220567 121 126 255 429.981781 489.701477 6
0.84541096074168509 -0.23983018435887082 1.9774519758307161 248 255 243 546.435181 244.850739 6
0.9479817281706584 -0.23760799579872449 1.6082660512364919 229 255 245 606.154846 226.93483 6
0.98324571485552748 0.39898230210897268 1.5668673652542084 255 104 129 627.056763 385.192017 6
0.80818447062803545 -0.53460770251685741 2.092012915690991 235 241 255 537.477234 188.117035 6
1.1324829922210706 -0.46100739485996067 1.4119442414954984 255 230 234 695.734375 164.229156 6
0.54094413235221417 0.69459491442431087 1.5317059000377657 255 119 134 519.56134 462.827606 6
1.0866905339451902 0.31199656994190139 1.3677246463359953 115 132 155 692.748413 376.23407 6
0.79086792503056214 0.49481661394811383 2.5283292555286447 161 175 255 501.645416 367.276093 6
1.0071469177388177 0.62175756976824248 1.5482707095037069 174 255 134 630.042725 438.939728 6
0.79499625991601608 0.6118591307743797 1.7798548752695336 255 106 122 555.393127 421.023834 6
0.17982770618378052 0.11217289746655634 4.6659935031560025 144 165 184 400.121918 295.612457 6
-0.15867706934375603 0.62675055084613795 2.269432732047143 154 255 125 358.318146 391.163971 6
0.25245442089119985 0.71959127496192377 1.3003353463796392 162 255 131 462.827606 501.645416 6
1.0578044860881743 -0.3217575851833141 1.3606625503151806 142 172 198 680.804504 200.060959 6
1.0433395886807313 -0.33765274988552774 1.4804622069784168 103 146 182 656.916626 200.060959 6
0.52216217226039685 0.74454370364268563 1.474065127293863 148 255 117 522.547302 486.715485 6
1.0327548386735104 0.38910422387744603 1.239016542845766 125 141 157 704.692383 409.079895 6
18.817338839993639 -21.530150779661085 36.438667598203807 184 217 255 585.252991 65.691658 6
0.55355536528081517 -0.44889530843760728 2.8057795112916493 246 255 241 462.827606 223.948837 6
0.39680721918176554 0.64932138252506721 1.4165651937741668 181 255 181 490.895874 462.230438 7
0.73679190565313113 0.034676660739031639 2.0416919037237173 255 174 186 523.144531 300.987244 7
1.1426708920241062 -0.47837291662305015 1.4212226805103354 255 230 234 695.137207 164.826355 7
1.0149429370460874 0.40350466759672887 1.6305806907269567 255 93 110 623.473572 383.400421 7
0.86730036696851576 0.44670237613254127 1.984955792405299 255 116 129 555.393127 376.23407 7
0.56355825041085184 -0.4505854008906871 2.3239711181027136 239 241 245 476.563141 211.407715 7
0.87254042952752875 -0.5570899284590114 2.1974228542234773 234 241 255 533.894043 189.90863 7
0.62367569817862401 -0.53494548266295627 2.3648775039714245 255 232 236 487.312714 200.658173 7
1.0668068488818487 0.28860058677172784 1.3549345631465659 131 150 176 680.804504 372.650879 7
0.97478534553613849 -0.4499956291285514 1.7322383369133334 240 255 222 598.391357 186.325439 7
1.0968588642188912 -0.35213983784037328 1.4366614245448073 149 177 201 680.804504 197.074982 7
0.9872565652874985 -0.31870366794921967 1.3888688122580497 255 141 169 655.722229 197.074982 7
0.41082380029037013 0.67771705475402477 2.8578615027624465 46 113 144 440.731354 376.23407 7
0.52901662905234126 0.96952460472102864 2.549293221489795 149 173 255 465.813599 440.731354 7
0.7340571551557229 0.62098898834460847 1.8712843205998126 134 155 255 533.894043 415.649078 7
0.92840569229759584 0.58618611624610617 1.6349825279461303 154 255 106 598.391357 422.81543 7
0.24640508819010476 0.66734266530862474 1.1961921571312901 162 255 131 462.230438 501.645416 7
0.48159332794879295 0.68592003165498827 1.3493881055945067 255 111 122 519.56134 487.312714 7
0.92797920328646377 0.45908709390348168 1.1649143611617427 130 149 178 684.387695 433.564972 7
1.1030370614288088 0.68462662506224703 1.7253484687336256 156 255 112 630.639954 440.731354 7
0.96626103144999487 0.46016311575517133 1.2857256670071608 198 255 184 670.054993 426.398621 7
1.0499904206550674 0.51812959383711332 1.556616217656936 133 152 180 648.555847 415.649078 7
1.0639648521352725 0.62512925386860019 1.3461282232952136 255 153 163 687.970886 465.813599 7
0.85861533304686111 -0.26338994485449163 2.0451907867063017 242 245 248 544.643616 243.656357 7
-0.48130932870182574 -1.3290530033314312 2.4829330697373315 167 194 220 308.153625 82.4131775 7
