ply
format ascii 1.0
comment Written with hapPLY (https://github.com/nmwsharp/happly)
element vertex 99
property double x
property double y
property double z
property uchar red
property uchar green
property uchar blue
property float ix
property float iy
property uchar octave
end_header
0.5393202140093325 -0.31444047326972013 0.65901498017054561 204 226 255 697 103 0
0.52503300357902449 -0.30646375422189598 0.81447775494203789 255 222 228 631.200012 145.200012 1
0.43126881341453305 -0.075218143133236826 0.6183289589929668 248 255 244 650.400024 243.600006 1
-0.34784354708345333 0.55081515905046352 0.92499537485227901 32 128 160 240.480011 515.52002 2
-0.28482824862286993 0.40290542222847048 0.63042438038750692 255 145 162 211.680008 531.360046 2
0.072075454002478834 0.6789145558893197 1.0353055209831146 94 255 88 410.400024 538.559998 2
-0.18218819902548056 0.71589867508962257 3.0406823066515223 169 255 175 358.560028 378.720001 2
0.52582756000871056 0.6389916784248153 1.6073142014292152 255 139 155 511.200012 440.640015 2
0.39424134579097192 -0.22531779681284547 0.54929206725128843 200 215 231 656.640076 129.600006 3
0.35343041010708864 0.60435542942375164 1.4269900059234502 195 199 206 480.384033 449.280029 3
-0.35795824582003988 0.57848438912549405 0.97486194539772342 16 128 162 240.192017 514.944031 3
-0.24480443617859571 0.7491313191716289 2.5035928977744124 213 217 255 345.600037 402.624023 3
0.50801289383537873 -0.21889598175923242 0.73436007542677295 214 227 238 648.000061 174.528015 3
0.45876562292994905 -0.27729499085687026 0.72022766699078389 235 255 220 630.720032 143.424011 3
0.48817436484099974 -0.28464997514780821 0.58883582649784216 202 224 255 701.568054 101.952011 3
-0.20526963233653372 0.71885862805202638 1.5361193629139311 255 231 231 331.776031 466.560059 3
-0.37121073747521915 0.68460254902957729 1.1404742526935783 255 121 139 259.200012 518.400024 3
0.58885341697471594 0.66009021237234355 1.5374532022675735 124 143 161 532.22406 454.46405 3
0.032102183292393338 0.68339015681324167 1.3341966982154672 7 18 36 392.256042 485.568054 3
0.20610077445105168 0.18045673227614545 2.2955965420816655 255 245 249 419.904053 319.680023 3
0.55977055478376769 -0.34680528026253166 0.62169454227379539 221 255 177 730.944092 74.3040085 3
0.54053002237763104 -0.31716821961125907 0.66196936785160165 179 202 224 700.876892 101.606415 4
-0.3219483490760453 0.44699826344578586 0.71312907354463029 255 149 166 211.507233 530.841675 4
0.53812411541150729 -0.16747091188024843 0.74047117252022243 236 243 255 665.625671 199.065628 4
-0.61465546472705945 0.50719750200023306 2.1225504475159296 166 174 255 277.862427 379.468842 4
-0.1660141136521367 0.66848468593722199 2.7958778841219303 158 255 162 358.732849 379.468842 4
0.15482175717710889 0.13691836290642945 1.5110822647544708 252 255 245 418.867249 321.408051 4
0.40373129698451216 0.70581664086779661 1.1046618094099641 223 255 215 526.694458 532.915283 4
0.4406474139936094 0.68041809654230967 1.0850200305720117 255 106 106 543.283264 526.694458 4
0.49566840213541008 0.28037226124745818 0.6484190747293388 172 255 154 678.067322 456.192078 4
-0.26096067597092265 0.80315307362846777 2.6789799933843099 229 255 221 346.29126 404.352051 4
-0.090428267692125974 0.70221671535119556 2.4220441023963328 255 57 58 367.027252 396.057648 4
-0.43442166135024163 0.48321545061307969 1.8426530810113464 127 208 209 292.377655 385.689667 4
0.54970411752667836 -0.13057668332346539 0.65430959075254691 240 244 255 709.171326 209.433624 4
-0.29934992204292854 0.30110129841282163 0.68085092772369649 159 183 255 217.728027 458.265656 4
-0.28457153366209065 0.63569071369196184 1.6926566041132265 255 182 190 319.334442 431.308868 4
-0.5538447459486191 0.61635718029469011 2.4847255962455499 219 255 138 298.59845 383.616058 4
0.48875656526088429 0.42196637862409503 0.66458028622575149 112 129 255 665.625671 532.915283 4
0.037279521526236259 0.69030137052185836 1.3613251656642325 16 35 255 393.98407 485.222473 4
0.096012202042217831 0.1590823845781042 1.9696630854843953 245 249 252 400.204865 319.334442 4
0.53547228536470448 -0.32003722785263244 0.8364878631415662 235 255 220 630.374512 143.078415 4
20.029959992617659 -31.150447690618115 57.952417126596252 180 201 223 516.326477 82.9440155 4
-0.34255129832932552 0.40626339480704088 0.68133033851409941 168 187 255 189.11235 517.570618 5
0.44874694536729676 -0.21083011443593636 0.54619111473480064 255 227 231 699.218018 139.345947 5
-0.20823875214452858 0.70357207873882377 1.5092970055814767 226 255 231 330.946594 467.80423 5
-0.24957574339871025 0.73247712349974847 2.3054109001397887 211 214 219 340.899902 408.084534 5
0.5131306130910791 0.61113122855222635 1.5729040784271415 157 255 132 510.105682 437.944397 5
0.61984068472900589 0.64579530681681918 1.8988590231199138 255 141 149 507.61734 415.5495 5
0.5244642729117317 -0.19467174028994583 0.78641474739875949 237 243 255 641.986633 194.088989 5
0.52654376142971704 -0.12656559300712011 0.61967505406998313 255 238 241 711.659607 209.018906 5
0.51397151466650337 -0.2220124113970563 0.69922924225543959 237 255 213 666.869873 166.717468 5
0.52115612656356691 -0.30447501255550202 0.62892524620694701 255 181 203 699.218018 102.021133 5
-0.1699902444207102 0.68062057177585622 2.8525141931075702 169 255 175 358.318115 378.224701 5
-0.4556536552173398 0.67434333985200112 2.8001094827136974 186 255 192 318.505005 378.224701 5
0.54088232657401192 0.61273166659011347 1.4079598704371277 131 151 170 532.500549 455.36261 5
0.025748703897414904 0.23997276642538923 1.6199100733452019 245 249 252 388.177979 345.876526 5
0.35156626141336234 0.38601168826809207 1.6321696117712179 255 198 184 467.80423 378.224701 5
-0.25670142029271048 0.70546430997938359 1.3478550447641506 223 255 154 310.542389 489.701477 6
-0.43600301508604034 0.88532009998632333 1.8779514017857011 255 28 117 295.612457 468.799591 6
0.49763353426827539 0.78467276409630848 1.6101976490647747 148 163 175 504.631378 480.7435 6
0.28283926290838202 0.60583816646473521 1.2193075289674926 140 152 172 468.799591 477.757538 6
-0.33744273481427411 0.71119943719226519 1.9358796191959016 255 193 197 319.500336 429.981781 6
-0.27582892948889359 0.72138087228355552 2.3468093191261925 220 222 223 340.402252 409.079895 6
0.5860825219898147 0.15697723053978985 0.93187353435745202 246 255 241 630.042725 355.332153 6
-0.1118513574810942 0.24731271581753322 0.88164625337130076 185 255 148 334.430267 394.149963 6
-0.34334593407604519 0.50756059514436291 2.0322377106110876 255 196 193 319.500336 379.220032 6
-0.11220732546942047 0.75912189964107846 2.7366519942632355 255 62 62 367.276093 397.135956 6
-0.10942039295604378 0.46409950669960232 1.5987526907477374 84 255 93 358.318146 400.121918 6
28.307964327091959 -28.176110163450254 70.509377053505276 233 255 210 534.491211 134.369308 6
-0.50893098370834444 -0.25498812352306377 0.61196297688435308 176 255 46 62.705677 128.397339 6
0.53194175251938258 -0.31084099224508543 0.81403949082821736 212 222 234 636.014709 140.341278 6
-0.16497610107468041 0.74276144685971968 1.3924110709127984 255 230 230 343.388214 492.687439 6
0.49158567329350999 0.72820283316472123 1.6512667089282269 179 255 145 498.659424 453.869659 6
0.39288540666463612 0.538660755687002 1.5929530732165524 158 169 185 480.7435 415.051849 6
0.5924175817477344 -0.14423955194903604 0.71370150756060546 255 234 239 707.678345 209.018921 6
0.59160933851632058 -0.21492293321596501 0.71235837429211291 255 230 235 707.678345 173.187103 6
0.041180052950868573 0.26924891342643775 0.94673931512083875 99 255 88 394.149963 400.121918 6
0.32962565404927791 0.75412175528110481 1.378925833521814 158 179 255 477.757538 498.659424 6
0.51483261447908379 0.7212624126203675 1.3888010508879765 108 120 138 528.519287 489.701477 6
-0.39244868617607853 0.24189029492980429 1.0773620435401936 255 61 150 247.836716 373.248077 6
-0.24280678690128799 0.50368667056143313 1.8974913347812548 183 197 201 336.819061 390.566803 7
-0.49049530898921789 0.41739414959803267 1.5896890224003775 104 125 255 265.155426 390.566803 7
0.51199572027072793 0.73209862066207476 1.710551039083013 180 255 145 498.062256 455.064056 7
0.50959851301889425 0.28566459310320846 0.66980493088290149 156 173 255 677.221313 451.480896 7
0.070154591329973037 0.48133714635909897 1.8143055385059332 80 255 76 394.149963 390.566803 7
0.3121222152540295 0.34545194571232418 1.4536311313213952 167 170 255 465.813599 379.817261 7
-0.058794800838132266 0.50090075362389186 1.2918256683974096 85 96 255 365.484528 433.564972 7
-0.34220078189173186 0.75888697484202083 1.9267564470116927 255 176 213 315.319977 447.897705 7
-0.13923975725504079 0.80833198774497594 1.528744389716107 255 167 169 351.151794 498.062256 7
-0.37509878870530233 -0.13497922563862197 0.65555117319058276 110 126 148 168.409531 211.407715 7
-0.33692670306955463 -0.17846140370704866 0.68266937874100453 42 56 255 189.90863 193.491806 7
0.72963967568372956 0.2770470583689244 1.3413455586006719 255 160 178 587.641785 361.901337 7
0.25999887600912874 0.82858663722994264 1.6973596690787094 13 22 40 440.731354 476.563141 7
0.047620085923944622 0.6994950154003523 1.3785939819421031 33 51 255 397.733154 483.729523 7
-0.34606276381684031 0.53735646203117504 0.92661945136137991 154 171 191 236.48999 505.228607 7
-0.15411305981033863 0.59276316592369227 2.3909504422318619 154 156 255 361.901337 383.400421 7
-0.10634301262328494 0.53663790763793751 2.759159353777159 241 246 255 365.484528 361.901337 7
0.46758327210385486 0.76481469342679098 1.5499781094137823 162 175 255 501.645416 483.729523 7
0.53117203656994927 -0.32472654798767042 0.85289188125452053 213 223 234 616.307251 139.74408 7
