ply
format ascii 1.0
comment Written with hapPLY (https://github.com/nmwsharp/happly)
element vertex 149
property double x
property double y
property double z
property uchar red
property uchar green
property uchar blue
property float ix
property float iy
property uchar octave
end_header
0.4082949753921864 -0.029454076429269192 0.99857722148421924 118 128 255 541 277 0
-0.0098312531712024948 0.39162319758821379 0.81800739001558553 66 255 34 378 472 0
0.42736814169984283 -0.15625367639718996 1.0108023011604634 255 97 111 547 229 0
0.37168613322258737 -0.11601385670474307 0.42702144928759517 221 255 209 718 184 0
0.36231475317160855 -0.0049763551942006712 0.41559297588692939 54 255 30 718 284 0
0.37862015274801392 0.34203518586957526 1.4986341031078709 168 167 255 481 377 0
0.37166685972123287 -0.059013249737961265 0.42713969956402265 57 255 37 718 236 0
-0.30006652462688838 0.40430447302924183 0.59979691799062784 77 255 34 190 547 0
0.45409898506227186 0.40103327442759418 2.9925354213709157 255 86 99 443 340 0
0.33716155890086297 0.37757964418179579 2.992643335769515 255 122 129 427 335 0
-0.069716019820181607 0.21831211065541728 0.74957716131203811 138 136 255 349 400 0
-0.26914803880334742 0.42113408836568633 0.70101848091318375 145 255 142 238 520 0
-0.65192189225966291 -0.40833455063387702 1.4980837844809787 208 218 255 217 184 0
-0.64022015301775814 -0.57240118682809138 1.4979831238151713 148 167 194 220 142 0
0.61930899573286047 -0.076234989144206233 0.99804649429905257 232 233 236 624 259 0
-0.72205706639897893 0.13038473484041685 1.4983250902944321 255 147 159 199 322 0
0.37155895329615463 0.26630299727874179 0.42781735429420037 194 255 199 718 529 0
0.61136611873062274 0.33808481355415537 0.9989771421507212 255 191 191 619 418 0
0.37160952649420514 0.11536669108634434 0.42750364054117956 37 255 19 718 390 0
0.062203810282780075 0.36525857398591222 1.4989347375417181 117 126 141 400 382 0
0.46507296281763377 -0.073905873431903801 0.93550724390725593 46 56 255 577.200012 256.800018 1
0.21074856454498467 0.46589454589874513 0.78131780395180761 180 180 255 489.600006 517.200012 1
-0.059392726972967491 0.39010554817625342 0.74572828211173836 255 59 61 355.200012 487.200012 1
0.38103958573159669 -0.11998340966195262 0.43988973048720748 212 221 255 717.600037 183.600006 1
0.43956632577277893 -0.12153178067112291 0.98125145778569889 255 105 120 555.600037 241.200012 1
0.39177803350611973 0.38930666939491132 0.93704142588863681 255 192 192 543.600037 447.600006 1
0.47582643357163618 0.05304344767842363 0.89136282885653673 135 131 255 589.200012 312 1
-0.41796307030624613 0.39993759324304529 1.4988596571330861 60 72 255 277.200012 387.600006 1
-0.069215510912681522 0.21734239227241481 0.74892306114506857 141 140 255 349.200012 399.600006 1
0.39411077642261855 -0.15376281065357553 0.563258322608858 212 255 179 654 183.600006 1
0.38100960417763902 -0.060578470459671185 0.43999954525829532 46 61 255 717.600037 235.200012 1
-0.085216108015947312 0.27242761943152077 0.46801488777271799 255 49 53 315.600006 511.200012 1
-0.41585192566293333 0.40655689243814136 0.69180218616947275 153 255 152 154.800003 513.600037 1
0.61137979112382157 0.30811577688349734 0.99891872941376003 255 182 183 619.200012 405.600006 1
0.36225653959447945 0.11246210628055681 0.41581129710202014 22 34 255 717.600037 391.200012 1
0.35928663075877709 0.10418880390068186 0.46782272080133502 74 255 56 678 373.200012 1
0.30829283459747664 0.36543046968389553 1.4987568425155218 255 101 112 463.200012 380.400024 1
0.36095039093141101 -0.056696209368182801 0.41395607378687588 80 94 255 717.120056 234.720016 2
0.36282351582770039 0.15454769297553259 0.47269741716231367 119 255 128 678.240051 411.840027 2
0.38025754786116306 0.13628372889066973 0.49917012726142762 187 255 184 678.240051 393.120026 2
0.5261110323579542 0.22398681574327572 0.89183598435519595 22 16 255 609.119995 384.480011 2
-0.23787093957701594 0.38237468575681799 0.62460892332187401 130 137 255 237.600006 519.840027 2
-0.27964921829525502 0.39794413401548234 0.62464237214111151 145 255 146 210.240005 534.240051 2
0.39746223787604384 -0.14445916422037683 0.93479143241828733 145 255 121 550.080017 227.520004 2
0.40677585175551567 -0.14535006484343191 1.0390636093253665 89 99 110 532.800049 234.720016 2
-0.059841353662596491 0.21266384940410821 0.74891270095853368 255 123 125 351.360016 396.000031 2
0.38401735610607646 -0.0091415427623332754 0.41560562958376857 83 255 57 738.720032 279.360016 2
-0.25828152599214793 0.26653794140713838 0.62396722214854972 255 156 156 223.200012 453.600006 2
-0.006495056144546818 0.40058005855991446 0.83313961166485517 66 255 34 378.720001 472.320007 2
0.36733251885853607 0.20785026650727095 0.48008934698806666 103 255 59 678.240051 453.600006 2
0.36732837261298529 0.4380532385201929 0.84205510575518328 52 71 101 548.640015 486.720032 2
0.36662261769951898 0.071995719661287982 0.39381709989330965 84 255 57 738.720032 357.120026 2
0.36284248213748366 0.10544806089162903 0.47259741883233264 74 255 58 678.240051 372.960022 2
0.050827863780701893 0.26314957926244759 1.0838694598753116 158 255 149 398.880005 381.600006 2
0.57571153530130825 0.055436421056380192 0.9228339918769155 79 88 107 620.352051 309.312042 3
-0.40781390124341421 0.32031153587139138 0.86690305116532274 151 255 146 202.176025 432.000031 3
0.35896475546715151 -0.057498297539978309 0.46945592434494321 227 232 255 677.376038 243.648026 3
0.4372558995193373 -0.12131965670875676 0.9875839455000387 119 133 145 552.960083 241.920029 3
0.36210164643572956 -0.10310026658887586 0.41540973893275107 255 197 206 715.39209 193.536011 3
0.45152245179437278 -0.14638254242600279 0.93830501127186838 46 58 68 568.512024 228.096024 3
0.37363370468577922 -0.0069587329243485218 0.43295057702715656 255 26 35 715.39209 281.664032 3
0.37365941205146791 -0.059802413810643787 0.43285148459081246 255 52 61 715.39209 235.008026 3
0.46238159287356406 -0.18213381610506096 0.51569510576121724 201 255 163 730.944092 153.792007 3
-0.14704483284674336 0.25845738653160022 0.51904327699616326 117 255 83 274.752014 480.384033 3
-0.093123705027098769 0.28602508032261342 0.49012680200338932 75 255 59 314.496033 509.76004 3
0.37179780117243627 0.19065441691032728 0.43093766808040906 255 54 70 715.39209 456.192047 3
0.34564764351684585 0.26592797926161538 0.44562278632954727 255 202 202 679.104065 516.672058 3
0.0095690990625504832 0.41407491280599446 0.65016666308113924 255 52 55 387.072021 530.496033 3
0.20228267107493586 0.44319446946069052 0.74404835601370745 179 178 255 489.024048 516.672058 3
0.20261251186766904 0.41139933188242239 0.70743840044061479 179 181 179 492.480042 511.488037 3
0.46321849897882861 0.094596399378063564 0.86673171268809202 255 77 83 587.520081 330.048035 3
0.37360182952782295 0.057628901067043062 0.43307101350401939 42 56 255 717.120056 340.416046 3
0.37361347737630046 0.034142371314925792 0.43302716664707747 255 27 39 715.39209 317.952026 3
0.46321584893816409 0.27838100988917208 0.86726770226734595 255 42 45 587.520081 411.264038 3
0.39433927257359597 0.019629035611179114 0.9680669177745963 69 85 255 537.408081 295.488037 3
-0.01333457685588163 0.38998113757423425 0.77360519982786413 255 153 152 375.321655 483.148865 4
0.38815406526551832 0.076648836103850246 0.54155611593517539 255 32 41 659.404907 337.996857 4
-0.12374259607415211 0.27555735357223399 0.62019695691407928 181 182 179 308.966431 458.265656 4
0.36560846665151597 -0.057757849563277369 0.47677725899703255 232 255 223 678.067322 242.611237 4
0.39314047246037637 -0.086250606631137414 0.51540769481224902 229 255 220 678.067322 226.02243 4
-0.059606458405748936 0.23120935242128945 0.74519424385504407 160 162 161 352.512054 408.499268 4
0.37349833719644898 0.26901419191502174 0.43346594355544815 255 202 202 715.39209 524.62085 4
0.39221819553341958 0.28026696088345349 0.52029642984751245 104 255 58 678.067322 495.590485 4
-0.38186271794728266 0.37920548870214821 0.64482697385098597 151 151 255 157.593628 512.17926 4
0.20898966270192942 0.4331321859998728 0.74400565517574113 180 179 255 493.516876 512.17926 4
0.37118432789687472 0.19071859253939327 0.43331782134088426 255 54 70 715.39209 456.192078 4
0.3682548862039528 0.20914096838373539 0.48157568163990527 104 255 59 678.067322 456.192078 4
0.37368231943420827 -0.10677392734718834 0.43276370488970506 255 198 207 715.39209 192.844833 4
0.0035089552599339158 0.44461526521164074 0.70366007649774931 38 59 255 385.689667 532.915283 4
0.46321611145475494 0.21971670639041557 0.86709511544762696 32 255 13 586.828857 385.689667 4
0.40540877548667265 -0.12936912017979921 0.82969211514787 46 58 68 568.166504 228.096039 4
-0.083553516592729471 0.25892095992299452 0.46695885958308536 255 74 81 315.187256 501.811279 4
-0.28004422988018179 0.39496863749575134 0.61966448054939105 149 149 255 209.433624 534.988892 4
0.3877814952747653 0.062602669138867875 0.45116218848012568 255 34 42 715.39209 340.070435 4
-0.011492789925555275 0.4171904835335033 0.86791839820756045 255 34 52 379.468842 472.780853 4
-0.34143163875559229 0.28047071293098796 0.92869027115762826 157 255 145 242.611237 404.352051 4
-0.34233061320503505 0.24631290819784743 0.90266366019612543 137 151 159 236.390427 393.154602 5
0.37349776753775016 0.26823045369598625 0.43346326082031544 200 200 197 716.63623 522.547302 5
0.38379568328473723 0.21708363660134988 0.44611076535247823 59 73 101 716.63623 477.757507 5
0.34942512542667875 0.24475897327518092 0.45139786846696001 255 59 75 679.311462 495.175751 5
0.34673493593481375 0.17277849772395137 0.39715670475691967 56 71 99 716.63623 455.36261 5
0.38772788958984178 0.17122470673250975 0.45136465727784514 21 24 33 716.63623 432.967743 5
0.20507770187195504 0.42243245209877928 0.7233062148704047 255 174 176 495.175751 510.105682 5
-0.38719745119844234 0.43633918083233286 0.72310074194427176 151 156 157 184.135712 520.05896 5
-0.38460893395105933 0.35884896500473618 0.72262225929800428 47 58 78 184.135712 475.269196 5
0.38785240648259878 -0.081244121187464588 0.45089406333807552 219 222 228 716.63623 218.972198 5
0.42716032601143633 -0.16063124995529857 0.61847266996165629 217 255 194 654.428223 186.624023 5
-0.056865247431345189 0.37901800755827741 0.72311102769194224 38 57 255 353.341492 485.222473 5
0.387842323285084 -0.060694858028935247 0.45093237060329583 42 51 65 716.63623 236.390427 5
0.427138046374126 -0.073474895850400179 0.61867088574345996 233 255 226 654.428223 241.367081 5
-0.23952485310965732 0.36168559394118927 0.59854028650722624 154 156 157 228.925476 525.035583 5
-0.45700062621528781 0.34695942204532926 0.72240971431362133 156 157 155 136.85762 472.780853 5
-0.021417415955391081 0.48012704698177855 1.0047790429622792 52 67 84 380.713013 470.292542 5
0.37359897737344094 0.061543188891368533 0.43307691664322517 34 42 55 716.63623 340.899902 5
0.37362375760686117 0.012221730970921191 0.43298555651423715 13 22 28 716.63623 298.59845 5
-0.31058866780161076 0.30947193963751118 0.71970282758142334 156 152 255 221.46051 452.874298 5
-0.21738941686362634 0.23091961370819181 0.60167914218046081 153 150 255 241.367081 437.944397 5
0.0017039025865265844 0.44645376917454604 0.72344216012314144 75 95 255 385.689667 525.035583 5
-0.054197620824135012 0.17483968290285931 0.65315726028713428 146 145 255 349.360199 391.163971 6
0.38742049945498469 0.14307208845807196 0.50834207040218815 208 204 255 677.818481 394.149963 6
0.38846210911313711 0.22098185843308554 0.50902934436814329 73 103 255 677.818481 456.855652 6
0.3939053109675073 0.17255591947209753 0.51840181725457934 88 85 255 677.818481 415.051849 6
0.3637907618092816 0.17050236937331059 0.50158528946681658 187 175 165 656.916626 418.037842 6
0.39260911546748761 -0.15281168498013037 0.55733626264173519 191 210 255 653.930603 182.145065 6
-0.090162115231519957 0.38245630425185351 0.939442552180629 44 54 74 352.346191 444.911713 6
0.38341548437116857 0.064859308166052787 0.50137097491914429 83 98 255 677.818481 337.41626 6
0.43764161491058018 0.085711599103101291 0.62691840661604437 82 255 53 650.944641 343.388214 6
0.38346190481865838 -0.060357834283005549 0.50111306961735824 222 226 232 680.804504 241.864746 6
0.39103285083329242 -0.069642528875908799 0.55694744803928464 227 232 255 653.930603 235.892776 6
0.37280007358130735 -0.097222415844965493 0.83532942846392388 119 133 145 552.407166 241.864746 6
-0.21713643632551632 0.23277592175930598 0.59601508897088207 152 255 160 238.878769 438.939728 6
-0.44412583103769232 0.43581876991404317 0.7531486662738448 150 255 145 158.257187 510.603363 6
-0.31341935172936808 0.30188445073364933 0.60188530084438008 120 129 255 185.131042 480.7435 6
-0.012333209568214737 0.39944443885424774 0.72322846135167274 100 105 255 373.248077 498.659424 6
0.38368820506575063 0.27393499092421369 0.50183626903503742 78 105 255 677.818481 498.659424 6
0.38269534505002445 -0.10965754795116008 0.50100931378753588 190 203 218 680.804504 204.241348 7
0.43183129830782885 -0.16070092528512483 0.62635680499290292 199 207 218 652.139038 189.90863 7
0.36379722514306018 0.15093489454420803 0.50154342394674545 255 205 205 655.722229 401.316345 7
-0.11957635389403293 0.24178970383617393 0.50144205955437737 101 255 66 290.237701 472.97998 7
-0.21519281633891107 0.30208514230226252 0.60204432332668523 159 162 162 240.073166 480.146332 7
0.38267637908495961 -0.058010182354085935 0.5011158516294566 222 226 232 680.804504 243.656357 7
-0.033318619668337601 0.47240589398798138 0.88984061942885861 168 168 158 376.23407 494.479065 7
-0.084372142496998676 0.25589709852964615 0.46082852768142601 255 136 139 311.736786 501.645416 7
-0.26673820304389284 0.33484051442376173 0.60213977693767529 255 156 151 211.407715 501.645416 7
0.38263081274592969 0.064075767803111347 0.50136690298531106 82 98 255 677.221313 336.819061 7
0.39424774231530513 0.034319073060256229 0.55467109425481331 255 43 56 655.722229 311.736786 7
-0.32251735512483365 0.30063864112727329 0.83615353019386229 155 160 161 236.48999 426.398621 7
-0.078503315861989609 0.14971236609150196 0.62662993680912515 149 153 255 329.65271 379.817261 7
0.37389947258350481 0.27041536420318529 0.4884529887024246 78 105 255 677.221313 498.062256 7
