ply
format ascii 1.0
comment Written with hapPLY (https://github.com/nmwsharp/happly)
element vertex 137
property double x
property double y
property double z
property uchar red
property uchar green
property uchar blue
property float ix
property float iy
property uchar octave
end_header
-0.19202436682644652 -0.035530768797641388 1.0093651492368947 182 255 106 310 274 0
0.83681475593326637 -0.42306440755257113 1.2868051393606477 212 224 236 632 163 0
-0.14095193078760415 0.68835507538716345 2.2460797948493809 132 255 93 358 406 0
-1.5407515599277812 0.089028615849594317 3.1429364038400731 244 247 250 196 301 0
-0.57376347739359801 0.67602260219020827 1.5598449932433027 182 191 255 241.200012 454.800018 1
0.69479700513919562 0.6304420565928468 1.3276204393802233 255 85 96 583.200012 469.200012 1
0.93197149300587334 0.29981371545653601 1.2680837940273291 255 93 112 667.200012 379.200012 1
-0.33088481761665944 -0.21166653377034561 1.1491673061929486 255 234 239 271.200012 217.200012 1
-0.15728526976499646 0.69563927994945796 2.8709438401971861 140 159 255 361.200012 381.600006 1
-0.68617342760306421 0.31660602482671552 1.7718931423255517 255 133 137 235.200012 355.200012 1
0.61470782592384876 -0.50578118578736486 1.8158424500309582 228 234 240 512.400024 181.200012 1
-0.33057760744171905 -0.20566900115582087 1.1192736854059335 244 255 234 270.720001 217.440002 2
-0.31291329714902272 -0.26519506570153428 1.0559221526672102 242 255 228 270.720001 194.400009 2
0.78529366673713241 0.58326107679113659 1.2366036977981993 164 255 165 626.400024 466.560028 2
-0.54965062461060121 -1.3815356904109068 2.0949857608173303 211 255 137 282.240021 31.6800003 2
0.90789751889281378 -0.46172930346973384 1.4240654609285164 236 255 214 630.720032 162.720001 2
0.72676442011731446 0.50089517737324574 1.8043811951714437 137 156 179 540 397.440002 2
-0.96966362990781985 0.15485287513943202 2.0608870353712696 247 251 255 205.920013 315.360016 2
-0.35044877032080857 0.083214222039563523 1.2090397031915687 165 255 134 270.720001 316.800018 2
-0.17717505278031176 0.73201274335264244 2.9698131914770105 115 137 155 360 383.040009 2
-0.51927442593471929 0.39766808784146979 1.3916100087522745 255 227 228 243.360016 397.440002 2
0.53565001502154908 -0.02899656043410892 2.0920065998183439 255 249 250 483.840027 282.240021 2
0.8622789305424492 -0.045247492317506577 1.4854696691006462 249 250 251 604.800049 276.480011 2
0.46596900486407744 -0.35009568983298411 1.8980068924913489 241 243 246 476.640015 218.880005 2
0.58224691789012484 0.67144814045395518 1.2997341145521588 126 148 255 557.280029 486.720032 2
0.61970875006887538 0.033734478854436478 1.6982012783787264 249 251 255 525.600037 293.76001 2
0.53539287125769519 -0.40219501707761207 2.1844108847211414 242 244 246 476.92804 217.728027 3
-0.23391192213157552 -0.37107549562737141 1.1544843719332132 169 193 255 309.312042 162.432022 3
-0.62062682175810391 0.43469696285902382 1.667885000894743 160 173 193 240.192017 385.344025 3
-0.83336764695267851 0.37502771901847898 2.119754062147738 255 148 151 235.008026 354.240021 3
0.7241666738923056 0.65663054472047433 1.3947793287031587 76 87 101 584.064026 468.288055 3
0.94800312224394645 0.50201354218707595 1.4911179521950952 173 182 255 625.536072 418.176025 3
-0.70886299893030946 0.52583901557749901 1.8196361305099646 255 221 221 235.008026 397.440033 3
-0.31201311854545466 -0.19485131945208511 1.0470120218744547 255 234 239 271.296021 217.728027 3
-0.19002898044780281 -0.23333053487297506 0.98602597903758493 255 79 171 311.040039 195.264023 3
-0.57523041619807458 -1.3402842652747069 2.0602866416574139 212 255 139 274.752014 36.288002 3
-0.25558092377858532 -0.45407210736270898 1.3150990509247018 255 69 164 311.040039 157.248016 3
-0.52893437569639001 0.61303187960347527 1.4158715744661929 185 193 255 241.920029 452.736053 3
-0.38593162380336832 0.33507187547761785 1.1918764757432179 228 227 224 260.92804 395.712036 3
0.70370987026746046 0.46444246652237475 1.6655470744494982 140 158 179 544.320068 393.984039 3
0.73258848676597865 0.3731380231919077 1.7538642017296642 172 255 135 542.592041 368.064026 3
-0.40190289919249622 0.093163036059469073 1.3773182421450469 160 181 255 269.568024 317.260834 4
-1.6799841389123018 0.67416165482554691 2.2378077552326108 255 169 163 95.3856125 404.352051 4
0.2712998681701837 0.18317869003635012 3.5377348409807841 169 255 60 414.720062 308.966431 4
0.16960611880006793 0.12735014958859958 4.128331204511543 48 114 145 396.057648 300.672028 4
1.0291095775524779 -0.22335286909084107 1.2601252354513779 129 164 189 700.876892 217.728027 4
0.78961125901156959 0.62776169155529371 1.4352238273162223 120 133 255 597.196899 458.265656 4
0.47375821614429126 0.46711891003800909 2.3464391142520151 155 156 155 460.339264 364.953644 4
0.78702897851162001 0.62767161914078784 1.2142297235319015 35 43 60 636.595276 487.296082 4
0.48498943368540837 -0.019348242742782684 1.8309298676261045 250 251 255 485.222473 282.009644 4
0.6096782059376471 -0.15521247450283315 1.9838312166554628 255 246 247 503.884857 257.126434 4
-0.66439489621949299 0.49934245280262179 1.7010939984474618 218 255 221 234.316833 398.131256 4
0.87676254811224763 -0.056762424515881982 1.527954153880887 250 251 255 605.491272 275.788849 4
0.74152851869001513 -0.57274561032758298 3.123439061501494 242 244 246 476.92807 217.728027 4
0.722975614121383 -0.061763988499454081 1.7505785759666406 255 249 250 543.283264 271.641632 4
-1.7357345643284616 0.7127457942167148 2.8491292047071983 182 197 255 149.299225 385.689667 4
0.90596444509296559 0.62278441628704395 1.157716495840952 210 255 203 686.361694 495.590485 4
0.35134473592289162 0.6677522988912219 1.1287373156544334 134 153 255 501.811279 514.252869 4
0.80613304675162323 0.42250001641685242 1.509422888334413 109 120 255 593.049683 398.131256 4
0.72210565227289858 0.49513260107799528 1.7938902528712051 255 139 157 543.283264 393.98407 4
-0.44790859149235462 -1.288413938715093 1.9950226785684677 144 178 213 296.524841 39.398407 4
-0.44310927154492052 -1.2285698468950847 1.8988657652688348 213 255 144 294.451233 41.4720078 4
0.59800156976660523 -0.37305531786445734 1.922124972656639 240 245 255 505.129028 213.995544 5
0.52287013003670291 -0.39485721523672868 2.0958837456329782 242 245 255 485.222473 213.995544 5
0.63864172761741789 -0.44625855111386104 2.0728953353034667 237 243 255 505.129028 206.530594 5
0.81570705597325088 0.53512337840988233 1.4028979107493935 255 132 146 607.150146 435.456055 5
-1.1147637761592475 0.62514553743486712 1.5948047132030378 255 143 155 119.439377 437.944397 5
0.46735181915089541 0.49980197879930266 2.0999517318875984 255 107 111 467.80423 375.736359 5
-0.44198359363934747 -0.038843707452852039 1.547583477511596 248 248 250 268.738586 278.691895 5
0.67526202269531588 0.49156938058833788 1.206411027735343 255 123 137 599.685181 440.432709 5
0.73868406237891393 0.65858254685326467 1.4159923766126363 77 88 103 584.75531 467.80423 5
0.7966605434628875 0.69661506998437028 1.5532781401918916 118 131 255 577.290344 457.850952 5
0.11908020770885352 0.11555631793265775 3.4581445877702022 255 37 105 395.642944 298.59845 5
0.77744590342041198 0.047761698715663936 1.6494148116076754 249 251 255 569.825378 296.110107 5
-0.55278197889048242 -0.75563302804470767 1.704521408445892 227 255 181 258.785309 116.951057 5
0.57178687496594538 0.019971579575077225 1.8073222410104925 251 255 248 510.105682 291.133484 5
-0.39325321223095866 0.085576669337089184 1.3446493772179045 138 155 178 268.738586 316.016693 5
-0.19240081174503398 -0.16145545431061059 0.91461889049088363 204 255 117 306.063416 223.948837 5
-0.23430731853467268 -0.3092107354145941 1.1992356203440604 202 255 112 306.063416 189.11235 5
0.83337815025685713 0.44641695033385798 1.4012273000150364 126 141 158 612.126831 408.084534 5
-0.41518754045550477 0.35357850240493627 1.2861383319897088 189 187 255 261.273651 393.154602 5
0.36283350810055248 0.21934947166525465 3.1225714909970179 202 255 164 430.479431 313.528351 5
-0.20112290332989424 0.93384200685069896 3.0235801985644812 144 255 105 358.318115 410.572845 5
-0.28106805266929191 0.62001935393981622 2.202271090776212 94 255 172 338.41156 395.642944 5
1.011679005038262 -0.44089441635860616 1.2801254326423148 233 238 255 689.264709 154.275864 5
-1.3786067884015782 0.19132081407822032 2.9527240328209094 255 243 248 203.046951 313.528381 6
0.55406191834010587 0.6519718559654879 1.2603668355720048 166 255 136 546.435181 486.715485 6
0.80425988669257675 0.64299706594175565 1.2478442458342087 37 52 255 633.028748 486.715485 6
0.78059580242756055 0.61565435498025112 1.4286363595503957 126 255 91 594.210938 456.855652 6
-0.70038505248959471 0.51472517156327457 1.8115461070952099 220 255 220 238.878769 400.121918 6
-0.85836080078782961 0.57510747460779066 1.9993418187195076 228 228 227 220.96286 397.135956 6
-0.30700942616646998 0.14721196335455633 0.99790724704668943 156 171 189 268.738617 343.388214 6
-0.22312783371588196 -0.38903689008351705 1.0559639266227592 131 190 211 304.570435 149.299225 6
0.57528093521085299 0.64559299640107159 1.9842739906327296 160 255 129 498.659424 415.051849 6
0.88665780755021384 -0.45064266542501641 1.3796752841740538 226 236 255 633.028748 161.243164 6
0.83534473378700347 -0.50056429691742821 1.5734865521529979 230 234 239 588.238953 164.229156 6
0.66551312073818703 0.4758513942006839 1.6392575643578615 133 151 173 540.463196 394.149963 6
0.73004863411390031 0.64063531714072885 1.364942635873482 78 92 255 585.252991 468.799591 6
0.095024277859603545 0.04820807776786884 1.212725872382153 255 72 140 415.051849 307.556396 6
0.9705689649021868 0.60934625531097653 1.1649113118923138 255 224 224 707.678345 489.701477 6
-2.1877142991522929 0.30629722582805696 2.8168755825083522 255 191 185 83.6075668 328.458313 6
-0.32654974279808746 0.66825826732126692 2.5093663517451699 73 89 108 328.458313 391.163971 6
0.70818690341926027 0.50996212444822087 1.4012153770770777 119 132 149 576.295044 429.981781 6
-1.4587489533189886 0.65545832772010759 2.0915072998202744 205 195 183 116.4534 406.093903 6
16.340471668197878 -26.740668478735614 47.750839671745986 255 165 193 519.56134 74.6496124 6
-1.6874052932409174 -0.44424963582676402 1.9532964663930654 132 129 134 56.7337074 197.074982 6
0.85554106894729864 0.67520928220421395 1.3495752022151795 65 255 71 630.639954 487.312714 7
-1.4700272886711874 0.52452408960592845 2.4170650973667982 191 255 116 146.910446 369.067719 7
0.69258985563952624 0.60601747789746163 1.5181510601769341 159 255 125 562.559509 437.148163 7
0.1879387735694471 0.13797347606187893 3.8388978243666685 118 148 255 401.316345 304.570435 7
-1.7915710472874102 0.58791602988571623 2.7063152140022098 90 126 160 128.994537 372.650879 7
-0.40255912526414228 0.72634230265875832 4.7173896084015468 255 151 170 351.151794 354.734985 7
0.77961057764736763 0.52969335037741883 1.2538785745434451 255 155 164 623.473572 447.897705 7
0.51555305847605282 0.55886931179571619 1.6873522562720824 171 255 136 498.062256 412.065887 7
0.76437944029397098 0.66882545439407415 1.4486403808072392 74 86 100 584.058594 469.39679 7
0.79629074080814233 0.41809637058019411 1.5088244074072277 255 150 155 587.641785 397.733154 7
0.85101264526571763 -0.23713652639731841 1.3723212335069199 255 242 244 623.473572 222.157257 7
-0.25218083033413885 -0.33076004809237869 1.2391486726998382 144 197 214 304.570435 186.325439 7
-0.71273675235275036 0.7061031439788108 5.9430834888383917 147 169 255 333.235901 333.235901 7
-0.33397811387873277 0.024473422659467392 1.7333752683553252 175 207 220 304.570435 297.404083 7
1.0041533999993344 -0.43218701430148077 1.2785172054840048 231 234 239 684.387695 157.659988 7
0.87819407604184763 -0.43769787243464964 1.3482501262413491 236 255 216 630.639954 161.243179 7
0.90029940687598931 -0.069336147072256438 1.587253213948344 250 250 255 605.557678 272.321808 7
0.88977395945964166 -0.21835183354404042 1.6061875584212215 249 255 247 594.808167 240.073166 7
0.34490200593848308 0.39678576711733227 1.9831018886460816 255 91 91 451.480896 372.650879 7
-0.1214469353502512 0.56877502616651876 1.5363301383155203 151 255 116 354.734985 426.398621 7
0.21131899009832633 0.49239777542827712 0.92220800655480328 124 139 165 472.97998 487.312714 7
0.72527248023682844 0.49061016767205978 1.7906559306020009 151 173 255 541.060425 394.149963 7
0.52287013003670291 -0.39485721523672868 2.0958837456329782 241 243 246 476.563141 218.574081 7
0.63817323264503334 -0.5272898744463892 1.8870281488210976 227 233 240 512.394958 179.159088 7
0.57270357398719218 -0.42435578587633493 1.8197730047960867 236 243 255 501.645416 200.658173 7
0.46031760431608348 0.43338664675477157 4.106625175332443 190 255 121 426.398621 333.235901 7
-0.97192549134826667 0.46640518342579607 2.3009195218961587 170 255 178 218.574081 361.901337 7
-0.30731686716514472 0.69897689049723888 2.3605080823383009 176 168 113 336.819061 397.733154 7
0.89961255397782658 0.47558625681614664 1.505864053316107 142 157 173 616.307251 412.065887 7
0.83534473378700347 -0.50056429691742821 1.5734865521529979 230 234 240 584.058594 164.826355 7
0.66390115084160528 -0.48085041834449527 1.5852420981696591 234 239 255 541.060425 171.992722 7
