ply
format ascii 1.0
comment Written with hapPLY (https://github.com/nmwsharp/happly)
element vertex 155
property double x
property double y
property double z
property uchar red
property uchar green
property uchar blue
property float ix
property float iy
property uchar octave
end_header
1.3775416282366852 -0.24990964366209761 2.3091974552090568 145 168 255 613 247 0
1.2778707176758495 0.50192037881824625 2.1258049901786791 110 114 117 616 379 0
-1.5394609053367807 -1.7453235919892822 2.5647692415302155 199 255 129 154 25 0
-1.3467663890574277 -0.84025056415429311 2.587504484840399 212 221 232 184 163 0
-0.91992600718676032 -1.5396015068816795 5.1237197256366835 255 204 218 315.600006 171.600006 1
-1.2901818877938616 -1.0297690409157791 2.4520067709136528 255 201 212 183.600006 127.200005 1
-1.5056598123928753 -1.062260718141915 2.5403448235865791 221 230 255 157.200012 127.200005 1
-1.2539121684567358 -0.48570907274876707 2.406306758810576 255 232 236 183.600006 211.200012 1
-1.5935653910570919 -0.71495088570545651 2.6896223091599385 233 235 239 156 187.200012 1
-1.3808039198164912 0.29319362298071988 2.2279429443922356 215 207 191 144 339.600006 1
-0.65951699128132724 -0.40822556249338343 2.754313512558106 255 229 235 291.600006 230.400009 1
-1.4802739321868237 -0.58212384658373773 2.4681867781538358 234 236 240 152.400009 195.600006 1
-1.1229996200023833 -1.9415749706815517 4.9356668312107317 180 203 224 296.400024 136.800003 1
-1.4999123963346421 -1.4948811362184968 2.5009322915945336 255 148 175 151.200012 57.6000023 1
-1.2536113804486564 -1.4935940374897652 2.3775137914009523 203 255 129 182.400009 49.2000008 1
-1.5448561209546972 -0.91989409532279853 2.5558835066754644 255 212 220 151.200012 147.600006 1
1.5922869154586157 -0.70827357498717602 1.7995300943837305 255 191 208 723.600037 136.800003 1
1.5463876825331961 -0.84121877712966608 2.0388722022774881 255 211 218 675.360046 128.160004 2
1.4977359044459357 -0.87664033270334618 2.1928020279665317 191 208 225 648 133.919998 2
-1.0353358006236588 0.45148092536981949 1.2108937715106052 57 255 71 54.7200012 430.560028 2
1.2632724060516907 0.49245518356132933 2.1097928073873775 119 255 111 614.880005 377.280029 2
-1.1630296606212878 0.35965135602827075 2.2219331627720522 200 205 210 184.320007 351.360016 2
1.0933096842482866 0.34073446026208221 2.0782490340688504 68 72 81 584.640015 351.360016 2
-1.3602767092265817 0.44448736727027705 2.9264270594400452 59 55 255 205.920013 345.600006 2
-1.2783593221263452 -0.80636508267137808 2.4340666336432526 209 220 232 184.320007 159.840012 2
-0.60434688701989137 -0.37581037623241459 2.536431427699823 241 255 229 290.880005 230.400009 2
-1.3558284120735262 -0.51145574212700451 2.5779166358324415 231 235 240 184.320007 211.680008 2
-1.3037104293997088 -0.17606022836970836 2.4629214270431303 243 244 246 180 260.640015 2
-1.5379199694059738 -0.29517535007320761 2.5601153395233913 255 240 242 155.520004 243.360016 2
-1.2980084417361684 -1.6616820143767579 2.4356251178859849 199 255 125 178.560013 27.3600006 2
-1.4487247286318845 -1.6602372457517403 2.4295174576310479 199 255 128 154.080002 27.3600006 2
-1.4062440402063094 -1.1321163746896374 2.7094487299191439 198 210 225 184.320007 126.720001 2
-1.4597821483124251 -1.0286541516324235 2.4413622262233283 217 222 230 156.960007 126.720001 2
1.2935307096579611 -0.85854216347066314 2.2579296455560192 200 213 228 604.800049 142.560013 2
-0.31772161155615386 0.37014038133602895 0.55935096046759059 106 135 148 168.480011 540 2
0.86573581979599612 0.51000949107642879 1.4208476525189631 216 217 216 616.320007 427.680023 2
0.24516647753271026 -0.70331509905488043 4.8535794262301586 175 255 163 402.624023 231.552017 3
-1.2871311204209119 0.16354934031711227 3.3252316517564626 64 82 106 236.736023 307.584015 3
1.1756038525943642 0.395430637631973 1.7502960544511201 194 200 255 641.088074 373.248047 3
1.1945120113139507 0.10481049947587373 2.2184386940841736 255 99 137 587.520081 304.128021 3
-1.1919928306442511 0.36300102909482812 2.273892236646208 192 199 207 184.896011 352.512024 3
-1.3134378486205698 0.27649407225360279 2.6139825746630789 255 153 159 191.808014 326.592041 3
-0.52786726938300799 0.53800785866043799 2.0488287573833808 57 81 97 288.576019 388.800049 3
0.23801242844726 0.33883169322754741 1.9610523360678216 73 92 107 428.544037 354.240021 3
0.20869777492867847 0.42124226727843078 1.8571412153556071 220 255 222 426.81604 374.976044 3
-1.2390888613868163 0.32789053459818057 2.0735650391470677 255 222 224 155.52002 349.05603 3
-0.52968243519806846 0.31414735308286396 2.5002480472873478 186 188 192 300.672028 335.232025 3
-1.7460887538754362 -0.19781883297156522 4.200719179259254 119 255 77 226.368027 273.024017 3
-1.2254072790665753 -0.40388351771311026 2.8272857219449286 91 110 133 216.000015 236.736023 3
-1.4675810280965895 -0.28756727836420942 2.4525172737234295 255 240 242 155.52002 243.648026 3
-1.1782998431353229 -1.9770537420259888 5.1048775875044212 255 181 204 295.488037 138.240021 3
1.3079088585774867 -0.68755342014029208 2.1164571430212171 255 209 220 623.808044 160.70401 3
0.84958808001588859 -0.64896728242042923 3.3332400024358728 255 232 236 483.840057 212.544022 3
1.6365248885437127 -0.57977996845636359 4.6514124756661843 245 255 238 514.944031 240.192017 3
-0.21777009774090517 0.46635129388378671 0.70618684325345749 106 255 62 266.11203 540.864075 3
-1.0482782228098197 0.46836430538952156 1.2219489721043844 108 97 255 53.5680046 432.000031 3
-1.2700410404491977 0.36076575326081339 2.1766904591542788 148 160 177 160.70401 354.240021 3
0.68114475396936369 0.50975105889308581 1.0746443064766269 255 52 70 627.264038 473.472046 3
0.80695046975193585 0.49349934263822892 1.3566776622670824 255 216 217 615.16803 426.81604 3
-1.2651635403050348 -0.89228255631370545 2.1114916270429469 222 230 255 157.248016 126.144012 3
0.038541669721453564 0.38497943843199128 0.9509988077817364 70 255 158 398.131256 439.603271 4
-0.4020639594122899 0.3966256055650953 2.2268282101657317 186 201 255 313.113647 356.659241 4
0.15957843102463065 0.27590993717887191 1.7142973008508617 113 255 83 418.867249 352.512054 4
-1.2857812131052442 0.16808968416664138 3.2894138103290702 126 255 87 230.169632 308.966431 4
-0.58825381062855131 -0.49569645206653334 2.4337524214500852 240 255 222 290.304047 209.433624 4
-0.77323043129513724 -1.4146563303503075 4.6183685687635068 255 205 219 315.187256 172.108826 4
-0.80657915495731602 -0.12056082267710744 2.4753779066034913 255 200 202 255.052841 267.494446 4
-1.4899966155285975 -0.44496246282724106 3.4401240549731193 255 107 126 215.654434 238.464035 4
-1.3987165933647323 -0.23324838361277078 2.3560351380158169 255 242 243 155.52002 250.90564 4
-1.1782998431353229 -1.9770537420259888 5.1048775875044212 181 204 224 296.524841 138.931213 4
-1.2984429485900897 -1.2626119257099431 2.4456788644995107 216 255 175 182.476822 91.2384109 4
-1.4994369672595087 -1.4311502915615193 2.5035333905142019 181 210 255 153.446426 68.4288101 4
1.538109229919393 -0.29850365791737737 1.9603815050572244 234 236 240 684.288086 230.169632 4
-0.11213248990845703 0.50870199867221788 0.95551497838975363 195 185 255 337.996857 491.443268 4
-0.32954301337371672 0.34449962385257371 0.62072840749307168 206 207 206 180.403229 503.884857 4
-1.3642440837573302 0.41949647122350336 2.6275442620639895 192 199 207 184.55043 352.512054 4
0.19167331023534895 0.35474040141504204 0.82764672328994315 219 255 220 474.854462 456.192078 4
0.4017848671738411 0.50779584604358696 1.0324378095931022 150 255 108 534.988892 481.075256 4
1.1055428613815619 0.33925787277262681 2.1291881166368709 98 102 106 584.75531 350.438446 4
0.060518101607338393 0.18511110613205711 3.8575099496446583 133 163 255 385.689667 304.819244 4
2.3046970140515315 1.1904437847888181 7.2933304414400446 255 149 161 503.884857 354.585663 4
-0.55137715916280294 0.30655350095832723 2.5704237836196282 167 173 255 301.086761 333.434937 5
-1.215817940903658 0.23580234413257806 2.4192860649011831 255 140 141 191.600662 323.481659 5
0.81057787809420001 0.48601828466200786 3.8465804971561539 255 136 152 467.80423 340.899902 5
0.97228337702304302 0.20017338046900565 2.9585560167235503 156 255 122 510.105682 313.528351 5
0.83757225111689149 0.35592086653277827 2.5088221002804141 102 255 95 510.105682 340.899902 5
0.73067193506820927 0.32400529198927558 2.6969575135806512 118 255 107 482.734161 333.434937 5
-1.2540308590488651 0.16265608535293702 3.2137697793665643 64 82 106 236.390427 308.551727 5
-0.80401625949103162 -1.4213674209253735 4.6418812493169836 204 218 233 316.016693 171.694107 5
-0.77859736035169469 -1.8924186893317594 5.0543320519888972 206 226 255 325.969971 141.834259 5
-0.19509952879329551 -0.040581729958930779 6.7687178743014744 119 139 255 373.248047 283.668518 5
-1.4760174049004857 -1.0457929869580895 2.4856279847910931 217 222 230 156.764175 126.904335 5
-0.83718004237419441 -0.94980909283080761 3.281851677300299 230 255 226 286.15683 174.182419 5
0.73397579750102981 -0.53420929424595121 3.7006693599246869 245 245 255 457.850952 231.413788 5
0.44025243008519843 -0.61633608530071315 4.033058869677892 255 114 143 427.991089 231.413788 5
-1.0695342832965293 0.5113077369831861 1.4866687251589097 123 130 143 104.509453 423.014465 5
1.532246559867231 -0.75408866633577487 1.9259549509516836 231 236 255 689.264709 139.345947 5
-0.86116124684913276 -0.13105311301507089 2.6006884572808602 209 211 212 256.296997 266.250275 5
-0.58418957808470617 -0.3638303332053589 2.4777245853614325 255 229 234 291.133484 231.413788 5
1.173105204056375 0.45068341867826223 1.9346584050591891 129 127 255 617.103455 375.736359 5
0.16484841302249764 0.38286413044685808 0.8669212392409591 138 151 170 452.874298 455.36261 5
1.002294248438879 0.46962526949575273 2.3552044405168129 76 89 255 549.918823 360.806458 5
-1.5118291177610477 0.13574901233908521 2.3928458335273923 244 248 255 141.834259 306.063416 5
0.18913085638776339 0.33888949846125682 0.7808560751035154 255 221 222 475.269196 455.36261 5
-0.37624009897099353 0.43750663431735648 2.3082910092277342 232 233 233 320.993317 355.829803 5
-1.0364787776716913 0.48181657021533686 3.1604717350679215 91 255 99 258.785309 348.364838 5
16.09801068098642 -18.835607333798588 33.208015060701968 255 139 174 567.337036 72.161293 5
1.2516983019965788 -0.67791083701627108 2.1411832863883262 218 232 255 609.638489 166.717468 5
-1.0446601823944164 -1.7521631958021979 4.4745367677549872 182 205 225 296.110107 139.345947 5
-1.4760174049004857 -1.0457929869580895 2.4856279847910931 255 214 220 155.271194 128.397339 6
0.3807473415949072 0.47607486720979708 0.9685209471389018 129 152 255 537.477234 480.7435 6
0.65061615673162043 0.49630593621257652 0.9266419104018917 140 255 112 650.944641 495.673431 6
-0.58244167760734644 -0.49840597453994395 2.4116614200119901 231 239 255 289.640503 209.018921 6
-1.0249579997696183 -1.1063115136647852 3.9752019663152467 255 226 227 283.668549 176.173096 6
-1.2168572044161068 -0.15629620408619568 2.4597207811554234 211 255 231 194.088989 262.766632 6
-1.5081855455495639 -0.47712652639276565 3.4833675681862806 148 255 113 214.990891 238.878769 6
-0.055072987429151343 0.48231048430151724 0.85954935946351751 117 255 90 358.318146 504.631378 6
-0.39132260173395461 0.40961078215488744 0.69488780082919988 156 170 255 161.243164 516.575317 6
0.066534355086788288 0.16845815177490264 4.9681702251632665 125 150 255 385.192017 301.584442 6
1.602020336080316 -0.86106520430990408 2.1199658184840846 229 255 208 674.83252 128.397339 6
-0.55137715916280294 0.30655350095832723 2.5704237836196282 168 174 255 301.584442 334.430267 6
-1.4577407859138676 0.18439553898248226 3.0280035960894143 255 98 110 203.046951 313.528381 6
-0.58849821487344212 -0.35572372850890999 2.4651583611889278 232 236 255 289.640503 232.906799 6
-0.13031279539890583 0.4802046213321442 1.6917970685659296 118 132 155 352.346191 397.135956 6
-0.32330115989906671 0.32656578628477939 1.7991559359648464 255 232 234 319.500336 355.332153 6
-1.2680422330440715 0.15867377005164948 3.2278520692544364 86 107 126 232.906799 310.542389 6
-1.3297888330369716 0.37213738935742596 2.2759623736234422 165 175 189 164.229156 352.346191 6
1.3221285759825825 -0.70516200209425761 2.3048090385775883 218 232 255 609.140869 167.215134 6
-1.0564073557277718 -1.8655518591274018 5.0089574163725841 206 226 255 301.584442 143.327255 6
-1.1397430363860002 -1.9148369992586018 4.9783545286963298 255 183 205 295.612457 140.341278 6
-0.89884673284866823 -1.5178813732194973 4.9399965151294492 218 232 255 313.528381 170.201126 6
0.74260614339062636 -0.53401856974816797 3.813114767168166 246 255 245 458.647247 232.906799 7
0.14037505501077074 -0.62633722124058644 5.4490723563307357 103 255 42 394.149963 247.239532 7
0.83800496031430127 0.43605481958385023 1.042326072130046 255 24 26 691.554077 440.731354 7
-0.97935846799228576 -0.72226956879613635 3.7386931296649317 233 255 228 286.654541 211.407715 7
-1.0249579997696183 -1.1063115136647852 3.9752019663152467 255 226 227 283.07135 175.575897 7
0.66637402412919522 0.51097844177371177 1.0636981920655333 255 31 58 623.473572 472.97998 7
-0.41731606121796605 0.43841193873356321 1.6659939536947146 129 255 78 286.654541 386.983612 7
-1.0361728659690415 0.46479122391449279 3.1647006741744086 105 102 255 257.989075 347.568604 7
-0.098361994185233836 0.46075954087013743 0.87768417337408033 198 210 195 336.819061 490.895874 7
1.6841954730293469 -0.62273687018604396 4.9313301523387052 240 243 246 512.394958 247.239532 7
-1.3190878969056095 0.37965575703105786 2.5117682028683834 255 192 198 179.159088 351.151794 7
-0.94956480301490398 0.34531190456753336 3.9263523370924984 197 255 172 290.237701 318.903168 7
-1.1900503523911214 0.17133244646857909 3.0316145434906012 85 105 124 232.906799 308.153625 7
-0.75500927350796321 -0.12917743675082577 2.2920816906622319 207 255 194 254.405899 265.155426 7
0.91798173361204416 0.46932782258646616 2.2396029118953158 86 102 255 541.060425 361.901337 7
1.2227842264976252 0.19947869728585535 2.065237586706592 160 186 255 609.140869 322.486359 7
-1.7346150026437015 0.33197097794963154 2.8723356601462173 189 255 222 150.493622 340.402252 7
-1.2794411599570372 0.18230826029861563 2.70335797692809 98 110 130 200.658173 315.319977 7
-1.8989502680793651 0.46697763913812362 2.3114682567652234 255 141 137 71.6636353 365.484528 7
1.3141361852869822 -0.70069091410726381 2.2525117717971717 218 233 255 609.140869 168.409531 7
-1.3162585098133528 -1.0108423832778566 2.4495243830775646 255 209 217 175.575897 128.994537 7
-0.90521727857103551 -2.0227178196277422 5.5391474075112788 227 255 188 322.486359 146.910446 7
-0.76507706954639332 -1.2915700463197699 3.3374421686239257 205 225 255 293.820892 139.74408 7
-1.2194186365817155 -0.1700573769543639 2.4701226381429566 234 237 255 193.491806 261.572266 7
