ply
format ascii 1.0
comment Written with hapPLY (https://github.com/nmwsharp/happly)
element vertex 167
property double x
property double y
property double z
property uchar red
property uchar green
property uchar blue
property float ix
property float iy
property uchar octave
end_header
-0.77601633258563552 0.23928753255700003 0.88881816592621643 101 116 115 48 391 0
-1.5892549674618937 -0.38231093479719902 3.0862656175860455 255 239 241 187 241 0
-1.5735193617183736 -0.91121878256907007 3.0673092542000564 255 219 226 187 175 0
-1.909851928899402 -0.88327480755078069 3.3061303499808528 255 228 231 163 184 0
-0.96235229943017586 -0.42117800066192146 3.2917386610450921 255 223 225 271 241 0
-1.1006792946733985 -1.4518453900268313 5.263898733722435 212 223 234 304 182 0
-1.8121735786070046 -1.3765520188621827 3.1676585392524994 208 215 225 164 121 0
-0.6896953483183792 0.34928650152540519 1.319715110641265 87 107 30 184 391 0
-1.6093319052402624 -0.75340660706308338 3.510611289623677 225 230 236 208 205 0
-1.3006587853701155 -1.8115086070918354 5.1093309755720018 201 213 226 284 152 0
-0.094967071638828227 0.46405331869455146 0.98127037558112118 215 255 215 346 471 0
-0.13712778184579255 0.43688401011100753 0.89588414124030002 216 215 255 325 476 0
-1.0005766623274099 0.2947989953996687 1.1523368066871975 71 77 255 49 385 0
0.47028932548351077 0.0011340558493914688 0.68704550868285241 166 183 255 649 289 0
-1.70138341860793 -2.0181129327567597 3.0659464778168521 196 255 119 170.400009 37.2000008 1
-1.774043537359808 -2.2432820481530618 3.3856844265608119 255 118 154 183.600006 33.6000023 1
0.50393445367069445 -0.44990350570667431 0.72499246324835775 255 124 160 651.600037 51.6000023 1
-1.1928751356520095 -0.16359511458888826 3.2924539100176564 255 71 91 243.600006 267.600006 1
-1.5891709171847967 -0.84394837930381117 3.0908100005325592 236 255 225 186 183.600006 1
-1.8262222229733953 -0.84591193766376505 3.1633327548062522 255 227 230 163.200012 183.600006 1
-1.8135538372399522 -1.0769218220927872 3.1623765001623432 255 208 218 163.200012 157.200012 1
-1.6733749351199485 -1.7345494996931008 3.1897436420504057 255 141 173 183.600006 79.2000046 1
-1.6859125760992408 -1.9440877413865822 3.1988123921818916 255 130 162 183.600006 54.0000038 1
-1.6035165078419547 -1.2126627328221962 3.1052652199830701 224 255 195 186 139.200012 1
-0.88797606510101001 0.27499261279019288 3.2481120351014239 176 180 255 277.200012 321.600006 1
-1.1653591935945098 0.3595425780982171 3.515868483305133 255 127 129 259.200012 327.600006 1
-0.13851377093492245 0.43764925981962977 0.89762628689638468 217 216 255 325.200012 475.200012 1
-1.6272199177899416 -0.066826841779508483 3.0587844273579874 245 246 255 181.200012 279.600006 1
-1.8410356438670834 -0.075978403474181555 3.2672714634246574 244 245 246 168 279.600006 1
-1.617824130228346 0.28841247287124211 2.8277690795679402 188 173 255 165.600006 327.600006 1
-1.4560646523306109 -1.9727419614371517 5.9007719988346476 211 227 255 289.200012 157.200012 1
-1.2826770295495655 -1.6083679162967592 5.895775149384197 234 255 216 302.400024 183.600006 1
-0.094981278164279814 -0.76450351044682707 5.6425744856711058 255 141 157 379.200012 235.200012 1
-1.5530944748991566 -0.67072722952030406 3.0111862849416382 238 255 228 186 201.600006 1
-1.8290049364432641 -1.5335237324261319 3.1824401181438509 255 187 201 163.200012 103.200005 1
-0.13742016513770006 0.3009132077022364 0.85724179454742178 222 220 255 321.600006 423.600006 1
-1.5699862321524822 0.11943760164063655 3.900863042017729 103 119 138 228.960007 298.080017 2
-0.13004899087558508 0.4267934958143213 0.8639830454159565 217 216 255 325.440002 475.200012 2
-1.8266203876263658 -0.94084230007161884 3.1775070668506467 233 255 220 162.720001 174.240005 2
-1.6350726540302274 -1.0764905581119364 3.1611788683340674 216 229 255 185.76001 156.960007 2
-1.6809433792328901 -0.33388257703630653 3.2096250896961851 239 241 244 184.320007 250.560013 2
-1.7656921933072063 -0.32557095397188535 3.0971338504554509 242 244 255 165.600006 249.12001 2
0.58184351737900653 -0.25660529015581168 0.66848244740446394 206 224 255 717.120056 141.12001 2
-2.2835379915925786 -0.27683887230909854 5.3099848694252874 145 255 112 218.880005 267.839996 2
-0.68113261000190994 0.32821566362657351 1.3469616568253604 130 132 65 188.640015 381.600006 2
0.58274950250163748 -0.17616140317909543 0.67196184949318072 139 148 255 717.120056 187.200012 2
0.012661679794546243 0.48447956512420015 2.5967476058355707 226 224 255 385.920013 361.440002 2
-1.5108688785091369 0.27077114870022961 2.6533046306418595 200 180 255 165.600006 328.320007 2
-1.6668665077966747 -0.24017262181636162 3.1366750830112156 245 255 242 178.560013 259.200012 2
-1.7928041688310796 -1.7735167873296578 3.200202824152607 143 173 206 168.480011 74.8800049 2
-1.5869064505225774 -1.143066734938667 3.0867538048351655 213 227 255 185.76001 145.440002 2
0.58792022351095585 -0.34858639762791388 0.67996836983825482 216 255 183 714.240051 90.7200012 2
-0.63005967491499626 0.37433811327435434 0.7719045193539753 111 255 90 70.5600052 475.200012 2
0.37163879000949473 0.44859660264513534 0.6670797662772372 9 0 13 600.480042 547.200012 2
0.58710127392837408 0.0023391097064108801 0.66766947062382487 129 154 173 720 288 2
-1.4991822001774855 -2.0060746634333566 5.7447296976477924 255 211 218 283.680023 152.639999 2
-1.5524527493533391 0.12263774910521508 3.8118333460632901 101 117 136 228.096024 297.216034 3
0.32396837226071973 -0.55724666835051384 5.0126729689799054 117 143 255 409.536041 243.648026 3
0.4573366731378169 -0.58528911376537052 3.9419941094201238 237 242 255 425.088043 233.280029 3
0.15848167984115413 0.44680515035998447 3.5496800621584663 255 168 175 399.16803 335.232025 3
-1.1054032532184346 -0.72045578109473762 3.2045822016836016 84 106 130 248.832031 198.720016 3
-1.1969964041294916 -0.16925079703812729 3.2904858545787867 93 113 255 241.920029 266.11203 3
-0.96805788724697228 -0.41884813916535674 3.2911094312915004 255 223 225 271.296021 240.192017 3
-1.6450375908959893 -0.72160749497457233 3.3124825534795397 255 231 234 195.264023 203.904022 3
-1.7801398215221993 -1.7801139609259153 3.1929810650772428 172 206 255 169.344009 74.3040085 3
-1.7727278255756622 -2.0957133415658706 3.183683291468391 155 196 255 169.344009 36.288002 3
-1.6461765342238204 -1.5271215459190857 3.162618692714672 173 192 215 184.896011 101.952011 3
0.58221799702672195 -0.1771348331457146 0.66498359524439565 141 150 255 717.120056 186.624023 3
-0.51784296278488862 0.40789611153774324 0.81472954305121914 255 161 170 139.968018 478.656036 3
-0.6365906160369168 0.41878113733584033 0.77764478425561223 82 255 67 70.8480072 495.936035 3
-1.6331514908793539 0.43645438062612996 4.1158655462272122 49 32 255 233.280029 326.592041 3
0.48573837542178722 0.25005822613592776 0.69484108745107043 127 156 255 653.184082 425.088043 3
0.31863066505102555 0.45256442030111343 0.91133170451212164 225 225 224 516.672058 478.656036 3
-1.4101611633583158 -0.12148480015683327 1.5599747670591846 175 255 177 38.0160027 257.472015 3
-0.85809797309881475 0.36116492591108684 1.1893189024887736 168 159 255 105.753616 404.352051 4
0.46704275538337081 -0.56871680745140263 3.954454725361737 237 242 255 425.088074 232.243225 4
0.11622939124555076 -0.64369420077994033 4.6369460961875957 153 173 255 389.836853 232.243225 4
-0.016094167316485386 0.45521617752600385 2.4830322358072454 255 225 225 383.616058 360.806458 4
-0.012912267435865044 0.44476922483139419 2.5294900318724896 220 218 255 381.54245 358.732849 4
-1.4991822001774855 -2.0060746634333566 5.7447296976477924 202 214 226 284.083252 153.446426 4
-1.6722620334701346 -1.0622273029163036 3.1746456430455323 230 255 207 182.476822 159.667221 4
-1.82317560173836 -1.093567206663983 3.1968083803443705 255 208 218 163.814423 157.593628 4
-1.5719448989115028 -0.20290230597414088 3.1855820613481134 243 244 245 196.992035 263.347229 4
-1.3583439106458215 -1.6783457199071923 6.0557811621581292 234 255 213 302.745636 182.476822 4
-1.8172092681569243 -1.727467316496871 3.1806186551193778 255 150 176 163.814423 78.796814 4
0.49160962774824879 0.1435247293086116 0.71901930764357869 133 161 255 649.036865 367.027252 4
-1.0741199704166 -0.54406866281850785 3.1362182757687909 136 255 93 250.90564 219.801636 4
1.2295484425552334 -0.73221472604927573 2.4671727420661576 209 220 232 572.31366 174.182419 4
-0.47817130120649365 -0.061656294134562195 6.5562744297657645 90 111 132 356.659241 284.083252 4
-0.13292698552279836 0.4240486299892991 0.8745138732294413 219 217 255 325.555237 474.854462 4
-1.6863861324418266 -0.87082530274324554 3.2219979114629078 226 230 236 184.55043 184.55043 4
-0.94099910643314377 -0.41338370783446488 3.2183910600004753 224 225 255 269.568024 240.537628 4
-1.8790523387546441 -0.49905477158426548 4.2425002637757974 138 159 255 213.580826 244.68483 4
0.50621503933259637 -0.25045647955427253 0.67264052672468844 255 219 224 671.846497 145.152023 4
0.58429688897517784 -0.21216793662480005 0.67197868844455555 255 166 176 719.539307 165.888031 4
0.57277942468059262 0.40379030217893769 0.69386844527997527 7 255 4 702.9505 512.17926 4
-0.60711458841487653 0.44636127051586943 0.7028991274339087 146 141 255 53.9136086 532.915283 4
-1.4566267237098742 0.3002054458974403 2.6195740134690282 175 255 184 170.035217 331.776062 4
-0.44776021533901345 0.43035439763841504 1.6138451010794057 121 129 255 277.862427 391.910461 4
-0.10614497515017951 0.40346523360524811 1.299869683169764 202 166 255 353.341492 403.10791 5
-0.08815995865743953 0.41810814967133825 1.5670327252973331 108 113 101 360.806458 395.642944 5
-0.081530596461142579 0.29581708847742239 2.5738943454434136 87 106 124 368.271423 328.458282 5
-0.01286761168909667 0.42008553684774741 2.4275934161127126 255 223 222 383.201324 358.318115 5
0.64285944970598474 -0.83341746650128579 4.3508580969232575 240 255 229 442.921021 209.018906 5
-1.0901715051955314 -1.9050802434460403 5.6367258127370841 195 212 227 308.551727 159.252502 5
0.59543409528770064 -0.21506338668729158 0.67484222536257565 255 163 173 719.124573 166.717468 5
-1.7642954566359039 -0.31915494362019947 3.1245224374180158 244 255 240 166.717468 248.832031 5
-1.6722620334701346 -1.0622273029163036 3.1746456430455323 218 230 255 181.647385 159.252502 5
0.58543310744038202 -0.25087144354092422 0.67551289526265013 255 189 206 719.124573 141.834259 5
-0.95683173934649268 -0.55174937058807272 3.1931300108935057 255 229 230 271.226929 218.972198 5
0.96751333523108218 -0.87152419879094056 2.8322673418756854 233 255 212 510.105682 171.694107 5
-0.39729782399386249 0.41596485529330418 0.7230821882789451 255 178 182 171.694107 507.61734 5
0.5192932970379126 0.37071367465370625 0.6857968385858384 144 158 179 676.82312 492.687439 5
0.090825556971287247 0.6260350504833978 1.7102556379525007 255 208 211 403.10791 425.502777 5
-2.4626054472746444 0.32693862832014442 4.2214533521375683 255 164 165 159.252502 320.993317 5
-0.53870022466069534 0.30136002089100267 0.60672673415556067 255 195 196 47.2780876 475.269196 5
-0.53476566134332093 0.48800519282530136 1.8662087651820456 121 255 81 278.691895 388.177979 5
-0.9836659662215137 0.2627736015471076 3.5528138116166801 147 255 142 278.691895 316.016693 5
-0.97792138798561057 0.28412195490030623 1.1182318819353834 255 68 94 47.2780876 388.177979 5
0.58886541301743967 -0.35000481423626062 0.69063142512196163 216 255 183 714.147949 89.5795288 5
-1.4991822001774855 -2.0060746634333566 5.7447296976477924 255 212 219 283.668518 154.275864 5
-0.22340515737615241 0.3188726920510484 0.79045358353418949 225 223 255 277.696564 441.92572 6
-1.6930777973562816 -1.0710796111846641 3.1934062989177923 229 255 207 182.145065 158.257187 6
2.2818399205109183 0.19665573454887231 4.5810068541034887 121 255 104 582.266968 304.570435 6
0.31046526121844586 0.47407170719929254 1.4319086643531334 211 207 207 468.799591 415.051849 6
-1.4802474083887107 -1.9651823622981226 5.6727136073724918 255 212 219 283.668549 155.271194 6
-1.7200177040909757 -0.23282382097498233 3.4492153781254888 244 245 255 197.074982 262.766632 6
0.026780185007432511 0.45018197855694286 1.0639472739602032 255 108 116 391.163971 447.897675 6
0.60391677709534874 -0.77576926232392296 4.8041979763008591 232 236 242 432.967773 226.93483 6
0.41463151292297573 0.39228700062206034 0.69545811242750677 6 6 18 612.126831 501.645416 6
-0.24891980595626273 0.014661583651439991 3.884832942735394 255 90 111 355.332153 286.65451 6
-0.089053516789212361 -0.46213048086956687 4.3562778942436777 151 255 126 370.262085 247.836716 6
-1.1200371476467819 -0.95355878030158314 3.9595409227762985 255 224 225 271.724609 194.088989 6
-1.08848521450019 -0.69076329280572513 3.1424805741232404 129 151 255 253.808685 197.074982 6
-1.1636397482778276 -0.16579094592214222 3.2016417762838274 91 112 255 241.864746 265.752625 6
0.29601820145542179 0.42414381807024554 0.84839973340209673 220 218 255 513.589355 477.757538 6
0.46490250525013943 0.25867379579976602 1.1278157019055444 255 0 13 543.449219 376.23407 6
0.40193046069829441 -0.57073343277711996 4.5308943500619296 255 140 159 415.051849 238.878769 6
0.31072561723316738 0.47600173445785876 1.6427586579897944 139 150 169 456.855652 400.121918 6
-0.92792960139533953 0.25227992042583436 3.4644428435736536 145 153 255 277.696564 316.514374 6
-1.5677342962269143 0.31594923323351093 2.7903796778480219 175 255 184 170.201126 331.444275 6
-0.6083011832235421 0.23070788642116175 0.92306608635817278 167 185 154 128.397339 379.220032 6
-0.22142751613173361 0.18960001709184326 3.42595892931344 64 86 255 361.304138 310.542389 6
-1.0901715051955314 -1.9050802434460403 5.6367258127370841 255 195 212 307.556396 158.257187 6
-0.92580115273185504 -1.2663750634289532 4.5206496977673307 223 234 255 301.584442 182.145065 6
-0.14817813215229125 0.43828552732432902 0.76133676884028523 216 216 215 308.153625 505.228607 7
-0.14359647913433959 0.43441180720914629 0.91313114693810848 214 255 209 326.069519 469.39679 7
0.47382691032761826 0.24608145943354673 0.68141467648487009 94 109 135 648.555847 426.398621 7
-1.8150454116649053 -0.32688275507933295 3.2308441840027884 240 241 244 164.826355 247.239532 7
-1.4245975763779977 -1.7441040348844945 6.2980738218444756 209 221 233 300.987244 179.159088 7
-1.105516136107906 -0.71670039031747179 3.2054440687034553 255 82 103 247.239532 200.658173 7
0.52699887410107238 0.36917019492563174 0.68855357981670928 127 145 255 677.221313 494.479065 7
0.47982474440549883 0.31776482069985157 0.99936114540812349 90 90 255 569.725891 412.065887 7
0.97910639656904808 -0.74418119587301268 3.0416482573443608 218 227 236 512.394958 193.491806 7
-1.0388225228004848 -0.15993660257080927 2.8686229529380354 76 97 118 240.073166 265.155426 7
0.31297165604975929 0.44494195776645062 0.91787964225308882 224 224 222 512.394958 476.563141 7
0.054653242009352621 0.45783439377786633 0.84722423942133274 47 63 81 404.899536 498.062256 7
-1.120633587345516 0.26397678420872905 4.0684502634197557 255 131 134 279.488159 315.319977 7
-0.54322173286106157 0.29544848670399249 1.6204839241821634 171 182 255 257.989075 351.151794 7
-0.64742737517359283 0.010200420166652568 6.1076511848029513 255 91 113 351.151794 290.237701 7
-2.3328708451183 0.19031365798271371 3.7548366415400647 246 255 238 150.493622 300.987244 7
0.30249252173610452 0.46731565574311545 1.3872410618527695 215 214 255 469.39679 415.649078 7
-1.8538994413681169 0.35425511357020062 2.3617919616527594 163 255 133 78.8299942 343.985443 7
-0.28119378121261573 0.36582783616765724 0.9478765297849403 255 223 224 275.904999 440.731354 7
1.4312676056953308 -0.78476907064648871 2.8018534431623223 219 232 255 573.309082 175.575897 7
-1.7982921313164479 -1.8115979472381434 3.2124259357913885 146 173 205 168.409531 68.080452 7
-1.3282710376447748 -2.1535443004452972 6.537210764642631 194 211 227 308.153625 157.659988 7
