ply
format ascii 1.0
comment Written with hapPLY (https://github.com/nmwsharp/happly)
element vertex 194
property double x
property double y
property double z
property uchar red
property uchar green
property uchar blue
property float ix
property float iy
property uchar octave
end_header
-0.17444814726564783 0.057621598690982538 1.263266221283567 255 171 172 331 304 0
-0.1956540098681423 0.0052717986261773438 0.97730229489395581 255 90 105 307 292 0
0.85744609641433756 0.42824209904979277 1.537911586985828 140 255 128 598 394 0
0.79048270014175559 -0.14930202417156016 0.88191517698899391 255 225 228 727 223 0
-0.2338275667353874 0.42095623852562242 0.8025615545360304 22 255 13 274 490 0
-0.20596301462812194 0.14520334057787423 1.0829971497196644 88 109 255 313 340 0
0.82990847973627435 -0.10600322750529212 1.5468425690226904 42 50 255 589 262 0
-0.18994469462236563 -0.25065518404068676 1.2811825417039544 73 112 135 328 214 0
0.89546833996315167 -0.12320834994494068 1.4580355720760181 255 28 45 619 256 0
-2.7204258646912449 -2.6866299583872406 4.1275092844185908 120 165 255 133 37 0
0.79030417832455591 0.25508760176838591 0.86496691079113708 67 84 110 736 403 0
0.51752665274863219 0.41078882293528635 1.4385313256135139 255 73 91 523 397 0
0.78176613494014613 0.10527768895234071 0.93233927623193658 138 255 113 706 331 0
0.84694730606449431 -0.18960711485297183 3.6066867820257902 255 59 88 475 268 0
-0.10820907203835584 0.2716902574417035 1.0749882376531885 182 255 161 346 385 0
-0.2689834651450711 0.19744738985556404 0.4579282331905381 183 177 255 157 454 0
-2.6971065154458245 -0.30775412417013881 4.0959568469603651 234 237 255 133 259 0
0.77017927429987942 0.28286082199299462 1.730834775468183 105 117 139 556 349 0
-2.5191353169615467 -0.36571414289812498 3.6754275616496321 232 236 255 121 250 0
-0.28279578427481877 -0.5311763877709692 1.3625186189167187 144 170 202 304 139 0
0.76675419961382474 0.34987112631305084 0.93145870036261824 113 123 141 700 433 0
0.72321711548281031 0.17797673547507109 0.93727000890802847 255 80 97 679 361 0
-0.10549566340849803 0.056091379818168877 1.2724881433790105 186 255 186 350.400024 303.600006 1
-0.29101703047824135 0.033198156189195138 0.67351361886109018 255 92 94 219.600006 306 1
-0.20365933073529641 0.40730559397807881 0.83629270821770796 38 61 255 289.200012 472.800018 1
0.79860414727445117 -0.83253232572424218 3.6840878015763328 79 117 255 469.200012 201.600006 1
0.74469999782503882 0.074547638986213804 1.6544313569888511 255 119 134 555.600037 303.600006 1
0.79058294835844456 0.23524421381053903 0.86682305764632961 255 46 62 735.600037 391.200012 1
0.85937946993429315 -0.19398971053697794 3.6876860068499653 255 59 89 475.200012 267.600006 1
-0.21482301994695518 -0.2581335326719586 1.3053314352212315 128 152 255 321.600006 213.600006 1
-0.20973950299009492 -0.29164524326230118 1.2898442712223308 130 156 255 321.600006 200.400009 1
-0.26897579300666641 0.13540009609995293 0.39111392386485305 173 181 171 120.000008 420.000031 1
0.85534650758432862 0.15481750064831901 1.5412840966817001 59 75 255 597.600037 327.600006 1
0.7810107858686316 -0.080281971100227459 0.87180687004250945 255 236 237 727.200012 253.200012 1
-2.4160323865139226 -2.4098525144027669 3.6968246246261987 87 120 165 132 37.2000008 1
-0.21103015044483886 0.41332862242552876 1.0112755016547743 255 74 86 303.600006 445.200012 1
-0.26207935448949271 0.26944662632128502 0.44754854797434901 180 177 255 157.200012 517.200012 1
1.0763581288813078 0.14847874763562133 4.0917634980476789 255 42 83 483.600006 301.200012 1
-2.4739592460101538 -1.5878585339589819 3.8400182140581518 255 181 191 135.600006 129.600006 1
-2.6260397592236617 -1.8478151081848146 3.8739316916108844 255 171 182 123.600006 105.600006 1
0.8390297014867184 -0.09017975422265484 1.5048094789766997 53 66 255 597.600037 265.200012 1
0.18580459630634705 -0.75820453096877005 3.394735436595063 100 131 255 405.600006 201.600006 1
0.78095886029026318 -0.39404852061341061 3.7013737080534463 73 105 255 465.600006 247.200012 1
0.79630446268414778 -0.15003639578390929 1.7814417635923994 80 93 101 556.800049 255.600006 1
-0.19896111643298142 0.14491602344940985 1.0747590514973424 89 110 255 313.200012 339.600006 1
-0.19825833039300966 0.0047079188275005943 0.97607192488960148 255 95 111 307.200012 291.600006 1
0.72093718788456884 0.36348695672113313 1.0139600717695709 170 176 255 657.600037 423.600006 1
0.52134583506207599 0.41916990952804917 0.66145253208926968 255 68 79 687.600037 531.600037 1
0.0092458405788776732 0.38645768534908964 0.56475937882894955 255 168 171 391.200012 552 1
0.83727408702643724 0.38575428451982424 1.5147899295395182 255 211 212 595.200012 387.600006 1
0.61950928246430093 0.34376058583179092 1.3956795857443558 255 61 75 555.600037 381.600006 1
-0.26905911147562456 0.11127999665970471 0.42252646371953972 163 255 170 138.240005 391.680023 2
0.72687532255354237 0.39500248151086298 0.94907467012569402 88 101 122 676.800049 446.400024 2
0.096359273713458204 0.21642353619256868 1.7418015800867457 170 179 186 404.640015 338.400024 2
1.2353981053918541 -0.18017203640428539 4.4850453206548799 108 140 149 488.160034 273.600006 2
0.83315610877624557 -0.19509955273245697 3.5006287715111961 255 59 89 475.200012 267.839996 2
-2.6028065639233287 -2.1569301460494859 3.8543104744201506 255 105 135 123.840004 70.5600052 2
-2.2852632696295103 -1.2811115730273981 3.6929063808636604 184 196 212 144 154.080002 2
1.1532876612819307 0.25300452705426563 3.333409374529293 255 39 53 515.52002 318.240021 2
-0.2661094915231389 0.24542282869089702 0.52220599884040564 255 177 184 187.200012 469.440033 2
0.20510591235103076 0.19449673332402939 0.73288214953418562 143 148 157 492.480011 391.680023 2
-2.658136097459451 -0.38689444372772824 3.8701474101059889 229 232 236 120.960007 250.560013 2
-2.3790884115326247 -2.1595687680669848 3.504339025724009 92 125 169 120.960007 51.840004 2
-0.10651262780233506 0.27078418681071725 1.0731225288937267 255 161 174 347.040009 384.480011 2
-0.18891936593781511 -0.25052650433266638 1.2715521516385069 128 255 13 326.880005 211.680008 2
-0.21081984961069766 -0.21854292237342396 1.2776258938648974 124 148 255 321.120026 223.200012 2
-2.4949040826004016 -1.7677700144018962 3.7030456236533866 255 171 182 123.840004 105.120003 2
0.71300893227242645 -0.097490917369121619 0.93307349254517191 237 255 231 678.240051 246.240005 2
0.18902886715848144 -0.86151852271857865 3.8009799265446427 55 103 134 404.640015 201.600006 2
0.7888352093821831 -0.14807591711044016 1.7560172575366635 71 77 255 557.280029 256.320007 2
-0.29120609721091573 0.32298128103344265 0.67409826132854833 173 255 174 218.880005 472.320007 2
-0.24226105592936442 0.43340169137746548 0.83382325989258166 9 19 255 273.600006 489.600006 2
-0.31852849802199812 0.37038166943487028 0.70108149636725148 126 255 119 210.240005 489.600006 2
-2.7977825993483951 0.15916665940472693 3.9501827703051102 208 255 210 110.880005 303.840027 2
0.52084962981469962 0.41900627603664575 0.66208876815791329 99 255 73 686.880005 531.360046 2
0.72746838636861466 0.4181650949608553 0.80179329122144505 255 86 97 731.52002 486.720032 2
0.87518183477868683 0.37089306054881355 1.4485241391206423 94 105 255 617.76001 387.360016 2
0.84873002264254471 0.36181597722877612 1.6533666588045564 90 107 255 581.76001 372.960022 2
0.73272319550177667 0.27446618079528384 0.99963314688705385 255 54 63 663.840027 393.120026 2
-0.27123403783208311 0.21718052065736523 0.46067754998185961 185 180 255 157.248016 468.288055 3
0.71336938577343234 0.14639978318099184 0.9351301973644367 113 108 255 677.376038 349.05603 3
-0.26907739900137373 0.37856947653275075 0.56905679102415674 163 255 170 202.176025 540.864075 3
-0.13214626854569711 0.32586843578007868 1.3160193935407274 255 161 174 347.328033 383.616028 3
-0.011300756883620311 0.24710772896591657 1.3291222546476436 174 177 178 380.160034 361.152039 3
1.3572944914234242 0.16378035528490803 4.6702042078245176 255 101 141 495.936035 298.944031 3
1.3572944914234242 0.16378035528490803 4.6702042078245176 153 255 126 494.208038 300.672028 3
-0.21093066982278708 -0.26396958521854685 1.3234754532894895 126 150 255 321.40802 212.544022 3
-2.5471986277163792 -0.93584438805787962 3.9459948838688428 228 255 219 134.784012 195.264023 3
-2.6369424807577584 -1.1897950844949101 4.0542347935058602 226 255 218 134.784012 176.256012 3
-2.6287694272162931 -0.40086623368892521 4.0469922079181178 236 255 228 134.784012 250.560028 3
-0.097889074402395693 -0.48149390147436877 1.2779329491015359 203 255 145 354.240021 141.696014 3
-2.8273359061440186 -2.2567445060028484 4.0985467741707602 255 109 138 119.23201 76.0320053 3
-2.4017576032940537 -1.3292456110848849 3.8657896374859249 196 212 255 145.152008 155.52002 3
0.75304076430363831 -0.13715944560624999 0.85251773665373343 225 229 234 724.032043 224.640015 3
0.74398928093938621 -0.14780899695730099 1.0431464594818869 236 255 230 654.912048 235.008026 3
0.20183312924022603 -0.72878607470731305 3.3463857999916216 55 103 133 404.352051 202.176025 3
0.31605254132136751 -0.930441508068787 3.2002549571357566 255 35 82 419.904053 174.528015 3
0.83609337649482685 -0.18779491659225131 3.5682248916417514 255 59 89 475.200043 266.11203 3
0.7888352093821831 -0.14807591711044016 1.7560172575366635 80 93 101 556.416077 255.744019 3
-0.12612902323756925 0.4008728397135225 0.88978023092410041 175 255 176 330.048035 459.648041 3
-0.22771359844219674 0.41485626531305098 0.7928942366744085 9 19 255 273.024017 489.024048 3
-0.29296061144951724 0.031401706983280916 0.67586973871755807 255 95 97 219.456024 305.856018 3
-0.18990656046071874 0.0057405608027511403 0.93594711987713197 101 120 255 305.856018 292.032013 3
0.70634720053307998 0.35682380718151785 0.98766085242829571 126 135 151 656.640076 426.81604 3
0.52065725565357623 0.41893958551661126 0.662976107423913 94 255 67 686.016052 530.496033 3
0.69453525762992263 0.37920444842162571 0.97050938987821178 255 106 116 655.25769 437.529663 4
-2.6030624340353357 -1.1656388892640053 3.9935792181103595 219 221 227 132.710419 176.256027 4
-0.29478123679708046 -0.50542166914227504 1.3243674340840492 203 255 147 298.59845 143.078415 4
-0.16099905368932899 -0.61703646085456165 1.4501560886542206 197 255 141 346.29126 124.416016 4
-2.6683521022635173 -2.3911204176143555 3.8949242356450759 92 125 169 120.268814 51.8400078 4
0.76417863414705933 -0.12649563101623926 1.5760967052473713 139 255 145 570.240051 259.200043 4
0.75461264251398585 -0.11541752024953963 0.93762051476580488 236 255 225 694.656128 240.537628 4
0.20183312924022603 -0.72878607470731305 3.3463857999916216 53 95 126 404.352051 203.21283 4
0.46625529163804696 -0.87891929265668944 3.4599470018368472 255 16 55 439.603271 190.771225 4
0.75447989768989476 -0.13782826838773315 1.6600802102443146 67 74 255 557.798462 257.126434 4
0.83300669084736212 -0.18778411504716908 3.5172778416085562 110 255 69 474.854462 267.494446 4
-0.17260525749467914 0.32050015549864508 0.95234756770448059 91 113 255 313.113647 416.793671 4
-0.24340798559913934 0.40498628849200741 0.65720152796349018 164 170 170 240.537628 528.768066 4
-0.22771359844219674 0.41485626531305098 0.7928942366744085 9 19 255 273.71524 489.369659 4
-0.09612785665513629 0.41003620818753672 0.64250771420433139 255 86 89 323.481659 530.841675 4
-0.19835871969563423 0.0037793104701867837 0.97921172377153276 87 101 120 304.819244 292.377655 4
0.67216236292722653 0.41988997683859908 0.77135852913104486 64 82 255 721.612915 497.664062 4
0.044495071017413013 0.34177639431813855 0.56056612980063636 182 255 181 414.720062 522.547302 4
0.17421324631827456 0.25592679869085183 0.45630010357553463 138 255 102 530.841675 501.811279 4
0.73483711736582646 0.32692879574105049 1.0000679585890653 255 214 216 667.69928 412.646454 4
0.7546322774867229 0.058155499886282033 1.6880526125628035 255 118 132 555.724854 300.672028 4
0.61491956653625068 0.33038964210953875 1.3601451312731971 66 85 255 553.651306 379.468842 4
-2.6391530319828802 -1.8749639583129383 3.9048167745632614 166 178 199 124.416016 103.680016 4
-2.5795886098957972 -1.1228958614714526 3.7726775834044761 223 225 229 120.268814 174.182419 4
0.96229846357675886 0.080046760165343053 3.1403980380352094 117 126 255 497.664062 301.086761 5
0.81946686684322456 -0.20371908548066148 3.4162023828819463 255 59 89 475.269196 266.250275 5
-2.4286981566254786 -0.34696718784264224 3.5807463453755655 231 235 255 121.927696 248.832031 5
-2.80192202040381 -2.5218787138077108 4.0778180157950814 125 168 255 121.927696 49.766407 5
-0.043935210364678845 -0.10863924613837073 1.5430986047024631 239 255 236 378.224701 263.761963 5
-0.13571026018057142 -0.79075379943330104 4.4138691139905992 255 210 219 375.736359 218.972198 5
-0.21386582343829907 -0.26418172994066513 1.3307527410646518 255 45 118 323.481659 211.507233 5
0.75407992670397284 0.060339376040716659 1.6965064585197425 102 112 255 557.383789 301.086761 5
-0.28729476947901667 0.083986287397310969 0.66819137333511536 132 255 93 218.972198 333.434937 5
0.78966431088745415 -0.14906605084332164 1.7595652917961513 255 53 67 559.87207 256.296997 5
0.75118962277045243 -0.11553794588967814 0.92984859470633763 236 255 226 694.241394 241.367081 5
-0.13847494347521816 -0.57748678620355798 1.3496300646952271 166 197 255 345.876526 124.416016 5
-0.23499293154593381 0.40153586480766945 0.64588346461314083 182 180 255 241.367081 525.035583 5
0.2022688661815471 -0.74674213311040549 3.4375738908066986 90 119 255 405.596222 204.042267 5
-0.2157420276524995 0.41487744512924779 0.9550109675934193 104 255 69 298.59845 452.874298 5
0.20908716329694094 0.21701307927899904 0.50318808776773949 215 216 216 544.942139 452.874298 5
0.91433290026579916 0.42609828170079261 1.6730454114935391 225 221 255 597.196899 383.201324 5
0.79512109505321049 0.33000178079656017 1.5397932789140207 108 255 88 582.266968 370.759735 5
0.49077550080208188 0.29960144901442115 2.466495345843795 72 100 255 457.850952 333.434937 5
-0.28847981035259829 0.36215103641123542 0.59959127023203673 178 172 255 201.553955 520.05896 5
-0.13525439924412219 0.40271984726499621 0.89371150762419094 147 152 156 328.458282 457.850952 5
-3.1501801910333445 -0.63713564035646475 5.68687401853742 50 68 92 176.670746 243.855392 5
0.7533271942328077 0.069645086300741094 1.7251111367007588 132 148 160 552.407104 301.086761 5
-0.29536968047319145 -0.50964166768040386 1.3303795021065712 203 255 145 298.59845 141.834259 5
-0.2126492959288655 0.0081952167755804974 1.011437204479489 87 101 120 304.570435 292.626495 6
-2.7487497123118643 -0.39273503860669678 4.0477594030100947 236 255 229 122.425369 250.822708 6
0.2051803723893619 -0.87984853549541275 4.0235441969238401 255 51 86 403.10791 206.032928 6
-0.19547645068941499 -0.25690289258592863 1.2658790892915328 148 255 61 322.486328 209.018921 6
-2.7133709583641914 -1.9373183185526539 4.0027509452676684 198 255 164 122.425369 101.523476 6
-2.9482074158043039 -2.345814145651226 4.2820138359468451 255 109 138 119.439384 77.6355972 6
-2.828856810374941 -1.2565413435677448 4.3123744414944909 226 255 218 134.369308 176.173096 6
0.82125113637363467 -0.12682546805104222 1.7129521076028305 139 255 145 570.323059 259.78067 6
0.75787893398479766 -0.13921183800249406 1.6490033737895495 73 255 56 558.379089 256.794678 6
0.77141022895707323 0.43266404588613216 1.8291864158436599 56 71 92 552.407166 376.23407 6
-0.26742988003019352 0.11317441398776992 0.42024585264055814 186 181 255 137.355286 388.177979 6
0.32430180060991443 -0.22038527887095555 2.6853796250705413 121 255 28 426.995789 256.794678 6
0.51908521616399006 0.3380136251216197 2.7009766510061501 13 74 104 456.855652 334.430267 6
0.70599301285656102 0.37638428275326835 0.92043613599571472 125 255 89 674.83252 444.911713 6
0.69355753377408902 0.37291177352228394 0.97029654565805679 128 146 255 653.930603 429.981781 6
-0.20939265469695001 0.36308146051505436 1.082779438139684 91 113 255 313.528381 415.051849 6
-0.1119784241994804 0.26594975183991493 0.91424064596712895 169 182 255 337.41626 400.121918 6
-0.0060417158604673116 0.27791827405925063 1.727489931228398 179 183 183 376.23407 352.346191 6
-0.17157954340529691 0.22088388273295878 1.0116407810114547 78 90 111 316.514374 376.23407 6
0.76445684404595304 0.05709848902704219 1.7874780313089194 123 255 73 546.435181 301.584442 6
1.0662109352822853 0.091840534460436385 3.5101321247806592 129 255 88 498.659424 301.584442 6
-0.96186485641058006 0.10765642068827078 1.4807469031793776 142 255 127 134.369308 313.528381 6
-0.18690537955421593 0.38353429397987759 0.88885371931306267 103 255 66 298.59845 453.869659 6
-2.5795886098957972 -1.1228958614714526 3.7726775834044761 229 255 223 122.425369 176.173096 6
0.9118460331415148 -0.12641239026171569 1.4918862884826469 39 53 61 616.307251 261.572266 7
0.775187678853824 -0.14995080539920255 1.710850769968058 71 255 51 558.976318 257.989075 7
0.12545512228889566 0.25981373955093995 0.59068585278014163 69 87 255 469.39679 455.064056 7
0.60965253734442959 0.23152067122134851 1.3452588522983828 255 95 108 551.809998 358.318176 7
0.72216359570784605 0.39462758077995819 0.97356108746346037 101 123 255 673.638123 444.314514 7
0.68369078297797747 0.3633324238159234 0.95469006919379029 255 109 118 655.722229 433.564972 7
0.74153745742264521 -0.10980426799545787 0.9191138321654887 255 227 231 691.554077 243.656357 7
0.85405482762521145 -0.17217456244663937 1.2263409504173994 255 231 233 655.722229 236.48999 7
0.74811584470046166 -0.77432449621034505 3.5320900439450083 109 255 32 462.230438 204.241348 7
0.31890087985035287 -1.009806918778019 3.913425310272332 255 41 88 415.649078 186.325439 7
-0.19010952232207567 0.34198534683311116 1.0181515072987259 255 79 90 311.736786 415.649078 7
-0.11954052532681458 0.2731279550805269 0.92652920885983825 161 172 180 336.819061 401.316345 7
-1.9438535955504426 -0.38279085583846734 3.5926352579273324 255 55 74 171.992722 247.239532 7
1.1788429607568165 0.097603470032058659 4.005595589451441 122 255 80 498.062256 300.987244 7
0.71254145344067099 -0.16871535896758671 2.8252864948072669 46 81 107 476.563141 265.155426 7
0.78555966402754551 -0.88526075043611729 3.5233672205763358 75 109 255 469.39679 193.491806 7
-2.6157326915115955 -1.170949405698503 3.9981955571073309 219 221 227 132.577713 175.575897 7
