ply
format ascii 1.0
comment Written with hapPLY (https://github.com/nmwsharp/happly)
element vertex 190
property double x
property double y
property double z
property uchar red
property uchar green
property uchar blue
property float ix
property float iy
property uchar octave
end_header
1.3171300759286675 0.51165289114623791 2.0035138806964614 121 117 255 637 386 0
-0.95734051310056456 0.27501074961911587 1.5723530887711266 255 218 220 151 355 0
0.19823576685729027 0.42593794272373697 0.80572572461948067 214 255 211 478 490 0
-0.74533324176404836 -0.88817508431153713 3.0454936835622597 230 236 255 289 175 0
-0.53471788118594787 -0.3539980627691719 2.3310070815007058 255 229 236 295 229 0
-1.585990446027032 -1.1273064195073612 2.5829739014187059 231 255 220 150 121 0
0.99627627884646852 -0.7035987184368927 3.0447509996863493 255 224 231 511.200012 198.000015 1
1.473882779753366 -0.46263116661349424 1.9805321183425528 162 183 255 669.600037 199.200012 1
1.302633271901946 0.5022857160667753 1.987756600064416 121 117 255 637.200012 386.400024 1
-0.69685555665826504 -1.0258186313312359 4.8633479794992436 232 236 241 328.800018 207.600006 1
-1.231425263100355 -0.7075259992769829 2.7085695261109146 255 85 110 211.200012 189.600006 1
-0.80400311452986539 -1.4797623205450334 4.8324448277584553 218 233 255 321.600006 168 1
-0.61179559142443729 -0.3955272693980374 2.6135489059565371 230 236 243 296.400024 230.400009 1
-1.2098493118225488 -0.47286405883654237 2.2850616124029317 236 240 255 181.200012 207.600006 1
-1.4334244343450462 -0.57033098954566386 2.3411825903554258 255 235 236 147.600006 193.200012 1
-1.4931575054798416 -0.28685657974229573 2.4427678895158929 255 240 242 151.200012 243.600006 1
-1.0760698254752596 -1.9284828222530006 4.8018931865332499 202 224 255 297.600006 133.200012 1
-1.4023060609801647 -1.3704663249588998 2.2804771607818255 255 151 177 147.600006 57.6000023 1
-1.2361610127321869 -0.96076768239436028 2.2984507805837553 255 210 217 175.200012 127.200005 1
-1.4360455092805795 -1.0336820313360873 2.3678115463800582 231 255 220 150 121.200005 1
1.3698376396934921 -0.70674805060146406 2.1680395722732917 255 204 218 627.600037 163.200012 1
1.7511123144564564 -0.62011329120857228 4.8174676814372939 255 238 241 523.200012 241.200012 1
1.336876060673954 -0.85156046481512959 2.1431367164724797 225 255 188 622.800049 135.600006 1
-0.98853087338810175 0.28247933343781495 1.62668847855947 255 218 220 151.200012 355.200012 1
0.38154789953020751 0.50453927421300659 1.6984326404270158 211 212 212 472.800018 403.200012 1
-0.80680170709310017 0.45439373415830586 0.94582416166969319 53 75 255 57.6000023 472.320007 2
-1.4119290400724389 -1.0147793861839964 2.3137709701686591 255 219 223 151.200012 120.960007 2
0.44023782124965205 0.51540714755391681 0.902798023767442 255 70 107 571.679993 508.320007 2
1.2714543596980641 0.48744484460254422 1.9244274118669584 125 120 255 637.920044 385.920013 2
1.2468966965518247 0.50277080829767307 1.6510857213253192 13 22 34 672.480042 406.080017 2
-1.431086920974995 -0.022001256758475307 2.4058320419819621 245 245 247 156.960007 285.120026 2
1.411024626587754 -0.73449253809095016 2.2456505252337355 255 205 218 627.840027 162.720001 2
0.21370368977587595 -0.44932929930208987 3.4082288901306255 167 255 158 406.080017 237.600006 2
-0.96205163828370566 0.33267176082217009 2.0399850044028258 255 36 39 203.040009 351.360016 2
-1.3064015126715134 0.18074030760900484 3.4083875594800741 85 255 42 234.720016 306.720001 2
1.4800383645749453 -0.72192049889768239 1.7508853903843398 255 198 211 711.360046 129.600006 2
-1.4956701653132227 0.23332204427956582 2.3486486968109475 140 117 124 136.800003 328.320007 2
-0.50303364378326609 0.32708193204867897 2.4226701391227472 255 233 233 303.840027 339.840027 2
0.2508055619734153 0.43491170413116942 1.757071506062601 194 197 203 440.640015 381.600006 2
-0.7410917564649715 -0.51515311886474513 2.4059870640948802 231 231 231 264.960022 207.360016 2
-0.92699427386024436 -0.12937244659547176 2.7893320133279751 188 190 192 256.320007 270.720001 2
-0.56159561899929811 -0.36506853938960404 2.4131235608019752 228 236 242 296.640015 228.960007 2
-1.2316289551632571 -0.7076209330800054 2.2972779127446326 224 233 255 177.12001 168.480011 2
-1.2094911865986449 -0.54420874058708923 1.9557657888690572 235 236 240 148.320007 181.440002 2
-1.2613516380666061 -0.27490325027080553 2.3314978780803557 255 241 242 175.680008 243.360016 2
-0.80776621962921569 -2.0595755937981308 5.3792307940145623 226 255 183 326.880005 138.240005 2
-1.2495312102685783 -1.2519991772128178 2.3278841622715296 148 180 211 180 82.0800018 2
-1.4180266747424759 -1.2529320730954012 2.3311364464302411 255 159 184 151.200012 82.0800018 2
-1.4415576166872324 -1.4724292172984086 2.351834395851625 133 166 203 148.320007 48.9600029 2
-1.170805715144613 0.33399092789310847 1.9213721983540939 220 221 255 149.76001 355.680023 2
0.69427973776093965 0.51727007229580724 0.81841111136155931 61 68 89 708.480042 531.360046 2
0.13653447652809092 0.46524083996382715 0.78399758499665939 96 255 65 450.720032 515.52002 2
0.22982943124096811 0.82684488684110136 16.823695672377898 255 118 137 391.680023 308.160004 2
0.43929441597605168 0.51772765002012733 0.90541520901932593 255 70 107 571.968079 508.032043 3
-1.3295140123335702 0.29585997614762072 3.0541643373368812 115 133 255 217.728027 324.864044 3
-0.031790811213752601 0.4955571475745022 2.1133711278845992 216 224 223 376.704041 378.432037 3
-1.31457208521147 0.28894725838241941 2.5787683543548328 113 125 144 188.35202 331.776031 3
1.015765550044502 0.22028191236434477 2.8080696634879834 121 147 153 520.128052 317.952026 3
-1.2387400349354074 0.17161988498010194 3.1937054243153344 61 86 255 233.280029 307.584015 3
1.1119337109386076 0.47141501353872556 3.7103224745018997 41 57 255 501.120056 336.960022 3
-0.72904252370947953 -0.86338594737934649 2.9493882536518239 229 255 224 286.848022 172.800018 3
-0.76014974184900774 -1.43229342228068 4.6056004940311865 218 232 255 321.40802 167.616013 3
-1.3278653097908233 -0.14074619327958637 3.1879180285382125 69 91 116 224.640015 273.024017 3
-1.2018494598370841 -0.62711411545072537 2.2461626016138352 230 237 255 181.440018 181.440018 3
-1.4613634840924945 -0.66288104507108214 2.3968951039281703 240 255 236 146.88002 181.440018 3
-1.2635324493257527 -0.16284774542692193 2.3459197349335481 243 244 246 176.256012 260.92804 3
-0.79963071854587398 -2.0149911155359472 5.2661351649992385 226 255 184 326.592041 139.968018 3
-1.2736615565070162 -1.4776244547833093 2.3688330534899746 255 130 164 179.712021 48.3840027 3
-1.4495078357329367 -1.4149619966717375 2.3705791133288563 151 176 208 148.608017 57.0240059 3
-1.20371063394315 -0.85924272343760322 2.2630130284156946 216 228 255 181.440018 143.424011 3
-1.4556384527805455 -0.88958854570715207 2.3698844641146315 219 230 255 145.152008 143.424011 3
-1.2545288247258419 -1.0359227597815526 2.3714938593652839 255 197 209 179.712021 120.960014 3
-1.224950866440321 -0.88767181486904212 2.0039281839646064 230 255 219 150.336014 120.960014 3
1.5223347665116187 -0.85484204201651348 2.0344981072269559 226 255 196 670.46405 126.144012 3
-0.79554753344506324 0.49028413766365209 0.9473168787776336 4 255 0 58.7520065 487.296051 3
0.94428992001101097 0.51697251068219374 1.2433943638937595 217 217 217 672.192078 447.552032 3
0.68249543258320089 0.51036072109500497 0.80894646547421933 68 76 97 708.480042 530.496033 3
0.73058591883226065 0.53226036005956234 0.98049096056726404 255 35 64 667.008057 497.664062 3
0.093062073019532177 0.48911816583329121 0.78683666847944567 25 53 10 432.000031 525.312073 3
-1.328910255585352 0.3061879036976688 2.0868843676813715 222 216 201 136.85762 342.144043 4
-1.016282694032923 0.41276859872588767 2.0995523863400103 229 255 228 194.918427 360.806458 4
-1.1952608930376067 0.17006010691633766 3.0605338277938943 54 73 97 232.243225 308.966431 4
-0.50749004059459057 0.33319940559882322 2.5063379660550855 233 255 233 302.745636 337.996857 4
-0.31760440951717572 0.44843242199164479 2.0452572137735716 236 236 255 321.408051 373.248047 4
-0.69123230324073681 -0.49081406866113031 2.3075132234415676 230 230 255 265.420837 209.433624 4
-0.7683905321766975 -0.11054263983147095 2.3635573061657129 195 197 255 257.126434 269.568024 4
-1.4433211152221985 -0.43468834614081664 3.3121129780924718 255 82 100 215.654434 240.537628 4
-1.4627940321834338 -0.42803265434088755 2.3870100812622694 238 242 255 149.299225 219.801636 4
-1.3676867440155611 -0.54804099632285974 2.2316295063364993 236 240 255 149.299225 192.844833 4
-1.4211326565434699 -0.2769004924414723 2.3264518582062839 242 245 255 149.299225 242.611237 4
-1.1251162840759763 -1.9587807864904851 4.9500475280968406 179 203 224 296.524841 134.784012 4
-1.2230447365989705 -1.4443583489844363 2.2788051093440678 203 255 129 178.32962 47.6928062 4
-1.2443942118689679 -1.016798681397334 2.3254119926879593 196 208 224 180.403229 120.268814 4
-1.385078556616107 -0.99458354701108309 2.275103133357872 223 230 255 149.299225 120.268814 4
1.299709912839933 -0.67363272510214434 2.0354100779087321 232 255 207 626.227295 161.740829 4
0.91175396359749017 -0.4495080851761335 3.6165922618695427 244 246 255 481.075256 238.464035 4
1.5488257201767293 -0.80995991394994193 1.8639363830310738 227 255 210 702.9505 122.342415 4
-0.49068334882036613 0.55166519396079716 1.9446913608999994 51 62 73 288.230438 400.204865 4
-0.48721104909355706 0.36680220673490205 1.9473242946891816 147 255 135 286.15683 356.659241 4
-1.1939529600395247 0.33757165124909672 1.9503954124201224 201 207 255 149.299225 356.659241 4
0.42731449028849422 0.50264670410066548 0.86082713087010854 70 107 108 572.31366 508.032074 4
0.69490250848718382 0.5112957273335359 0.81707084092655569 77 97 255 709.171326 530.841675 4
0.72495076687209392 0.52757797198578948 0.97090643533471965 255 52 77 671.846497 495.590485 4
0.55820058006134665 0.48993596566714492 1.2948731272334322 148 145 255 549.504089 431.308868 4
1.2657717491926588 0.48556700178463558 1.916931753980855 124 255 124 638.668884 385.689667 4
1.2564723759712477 0.42136624813576862 1.7011129875182189 255 187 192 667.69928 381.54245 4
-1.001870361883975 -1.7434891818237808 4.3546627901337827 224 255 180 294.451233 134.784012 4
-1.6406801090918499 0.31395737150863212 2.69467734313581 194 195 255 149.299225 335.923248 5
0.81118362213380391 0.46007327966780898 3.3721675773199928 145 150 255 477.757507 345.876526 5
-1.3196401734931387 0.42871045967310728 2.5049313311402464 215 215 255 181.647385 355.829803 5
-0.37731995501625204 0.41478998480450247 2.1847650673001295 220 223 226 316.016693 358.318115 5
-1.2231208888389107 0.12832886555939271 3.600581257731668 131 143 255 253.80867 298.59845 5
-1.4388303368937274 -1.4137908503429335 2.3549907406453991 176 208 255 149.299225 57.231369 5
-0.14986285942282063 -0.031612769873667901 6.6495217357334795 120 140 255 373.248047 283.668518 5
-1.1705939685624558 -0.1446419280179625 2.3330140962992423 255 128 144 191.600662 263.761963 5
-1.2664185473012091 -0.27522937961184024 2.3358789545634768 245 255 241 174.182419 243.855392 5
1.3525168653768656 -0.68758104391976382 2.1218076316566599 218 232 255 629.545044 161.740829 5
-0.76255062040067711 -1.9178296369821908 5.0426750590120042 206 226 255 325.969971 141.834259 5
0.85285371075005423 0.49252356028670929 1.1725639215111414 217 255 218 666.869873 450.385986 5
-0.77526847632059015 -1.0520125839526291 4.9885128131793737 255 232 236 323.481659 206.530594 5
-1.3733540684933456 -0.85804067942160589 2.2296872441673417 230 255 210 146.810898 141.834259 5
-1.4290198147411441 -1.032633906717815 2.3575983604216479 222 230 255 149.299225 119.439377 5
-0.69225800251283687 0.48174353809990456 0.93496408706308642 255 68 81 99.532814 487.710785 5
-0.79855743112725319 -0.94522299710592361 3.1980704932259796 229 255 224 286.15683 171.694107 5
-0.073259134864430475 0.52574345409679113 0.85552223122446724 197 255 221 350.85318 525.035583 5
-0.80230229423834443 -0.12105540160788264 2.4196284127115857 202 204 205 256.296997 268.738586 5
0.10386549318027138 0.1934278051946739 3.7408539309108422 164 255 116 390.66629 306.063416 5
-1.1853132095825676 -0.64111139042880649 2.3625182835765619 255 110 127 191.600662 184.135712 5
-1.4103270448647569 -0.56988873223107661 2.3003517782992655 236 240 255 149.299225 191.600662 5
0.20489787313199437 0.50687466182021512 0.85988723472906514 204 201 255 477.757507 515.082336 5
1.2185745040228613 0.46188707759387754 1.8237967029914111 255 132 132 639.498352 383.201324 5
-1.2086941664480486 0.36006915051004773 2.0114711903050293 214 207 255 149.299225 353.341492 5
6.1730025254232688 0.48178519654903051 8.0894570240330044 109 128 255 681.799805 311.040039 5
0.27838654596426959 0.34921268990665549 1.8413293789826839 210 255 203 442.921021 355.829803 5
16.156748058142512 -18.89681946346462 33.197583803779175 255 141 174 567.337036 72.161293 5
1.3594579902859771 -0.6880488281878131 2.1454491095568802 255 207 218 627.056763 161.243164 6
-1.2638341842726493 -0.99526835181298345 2.3129939928921521 199 210 224 176.173096 119.439384 6
14.289965927182433 -21.741702915214368 38.699731699703619 212 255 152 522.547302 77.6355972 6
0.70714507127899806 0.51910637416489858 0.93867300728389269 33 62 57 668.860535 501.645416 6
0.9047139761867603 -0.60080134706481081 3.2299287261950305 255 230 235 495.673431 212.004898 6
1.0246295929945355 -0.74743054559326161 3.3127092240677882 232 239 255 501.645416 197.074982 6
0.80234141402872095 0.46926536835048471 1.0935993968408111 218 218 255 665.874573 450.883667 6
-1.1153579468227668 -0.13990805584782051 2.249256715405155 167 176 189 188.117035 262.766632 6
-1.1965764289297516 -0.22241693121273531 1.9481022117668725 240 242 245 152.285217 244.850739 6
27.721835210457563 -28.71132459818368 73.075944739099654 199 212 227 528.519287 137.355286 6
-0.83968101382936577 -1.4909736986595488 4.7615329956126544 218 232 255 313.528381 167.215134 6
-1.8532503595452914 0.47565615748224266 2.1899147104438872 255 40 38 59.7196922 373.248077 6
-0.5491904114460695 -0.48647388668031732 2.3174707009963522 255 224 232 295.612457 206.032928 6
-0.73902944728298525 -0.85274830684179792 2.8688075888137385 255 225 226 283.668549 170.201126 6
0.7755890690874524 -0.52522172194152872 3.5868483237780167 244 246 255 465.813599 229.920807 6
0.1887935895435302 -0.61927417661021522 5.3807188215376334 13 22 255 397.135956 244.850739 6
1.6550714026297455 -0.85792718767258402 2.0174010516409862 218 228 255 701.70636 122.425369 6
-0.88634798647347512 0.45767020179641982 1.1458974129934312 187 255 188 86.5935516 441.92572 6
0.44983666866630245 0.53569818908557176 0.93340181599693306 105 105 255 573.309021 507.617371 6
0.19793700932316005 0.46323294523853292 0.77294679489132978 213 213 211 480.7435 513.589355 6
0.1022839089008698 0.17951203853407333 4.9896068494169068 111 130 158 388.177979 304.570435 6
1.1227999402135944 0.34744196383054327 1.9792811206569674 255 52 60 603.168884 355.332153 6
-0.51095869997667442 0.31682864334425676 2.4537168734345518 231 232 232 304.570435 334.430267 6
-0.40328137939667741 0.36081441563121147 0.72686002963598684 155 148 137 176.173096 480.7435 6
-0.56165376874097594 -0.35952060777049877 2.407857699809909 255 229 236 295.612457 229.920807 6
-0.53512998214176299 0.18828198475319058 2.2949596359011433 208 255 160 298.59845 319.500336 6
-1.2344254728835118 0.16768373106430001 3.1283112359405738 55 75 97 232.906799 307.556396 6
-1.4628258066206667 0.150342135712356 2.2657143307764862 248 255 239 134.369308 307.556396 6
-0.3914010686368341 0.47554186783354446 2.43737846773158 223 255 232 322.486328 361.304138 6
0.23143135441269846 0.41002195413879727 1.5983613983258702 178 185 255 441.92572 385.192017 6
0.76861739025861409 0.70628021266958441 2.5296633665564361 255 186 191 495.673431 391.163971 6
-1.154929001057206 0.3731524267907711 2.164690407169799 255 220 221 179.159073 355.332153 6
0.88210626376697132 0.36666615486122767 2.3999653418238105 255 80 101 519.56134 346.374207 6
-1.1104134878572296 -1.9191091306695807 4.8973712611514637 255 179 203 295.612457 134.369308 6
0.19690899229151726 -0.53589784769881155 4.7159161506792389 13 19 255 397.733154 243.656357 7
-0.75952965533177963 0.40908684286432628 1.0864825153551649 63 255 64 114.661812 437.148163 7
-0.54113200060091993 -0.48761573508967204 2.2910303792527653 232 239 255 293.820892 207.824539 7
-0.72036174948323062 -0.66464377321643908 2.3698710831075154 210 212 255 265.155426 179.159088 7
0.77854735412281229 -0.52567352845184401 3.5756628818288689 244 246 255 465.813599 229.323624 7
1.1853929615478531 0.45367351057813321 1.8515301631507377 129 127 255 637.806335 383.400421 7
-1.7100725184446834 0.15930566282623426 2.6331588193343078 239 243 247 132.577713 304.570435 7
-1.2801665668200015 0.39073654300289185 2.395783324735691 255 187 193 175.575897 358.318176 7
-0.72868642881763845 -0.12150135006347851 2.2070216819548705 206 255 204 254.405899 268.738617 7
-0.42377157746926275 0.48577058563893466 1.7276915654449416 106 255 64 286.654541 397.733154 7
-0.5134010655491128 0.38865526048456034 2.26957702754247 204 209 215 300.987244 354.734985 7
-0.51095869997667442 0.31682864334425676 2.4537168734345518 230 230 231 304.570435 333.235901 7
3.3714028958105979 3.1176281055236688 11.613551499780851 148 168 255 501.645416 394.149963 7
-0.95342658092621857 0.36448500535600403 3.9693471660462389 180 192 255 297.404083 322.486359 7
-1.1095094009802242 0.17366626941507834 2.8201582856228784 97 116 255 229.323624 308.153625 7
-0.16321211209659836 0.45196766911370051 1.906867232121769 255 236 236 351.151794 376.23407 7
-1.6904998214694125 0.3410606773864473 2.750952196359628 198 255 224 146.910446 343.985443 7
-1.0385541356354016 -0.75589478321684933 1.6970912715678534 231 255 220 150.493622 121.828178 7
-0.87703435610051539 -2.0281128571678373 5.4833871122828493 226 255 186 322.486359 143.327271 7
-0.79337255014393593 -1.4223756302349082 3.5617670148578311 204 224 255 293.820892 136.160904 7
-1.398101770418112 -0.2667832974418255 2.3244434899240152 245 255 241 150.493622 243.656357 7
