ply
format ascii 1.0
comment Written with hapPLY (https://github.com/nmwsharp/happly)
element vertex 61
property double x
property double y
property double z
property uchar red
property uchar green
property uchar blue
property float ix
property float iy
property uchar octave
end_header
0.50059063049398711 -0.28691790350242197 0.6755872067959805 198 214 230 668 124 0
-0.29232111846182107 0.069495964664274767 0.52243353573001805 175 255 68 170.400009 339.600006 1
0.35098294597401392 0.61812874406771268 1.3288816091464399 255 189 193 483.840027 463.680023 2
0.43597267085652569 -0.2587987697454055 0.58858937007913958 230 255 202 666.720032 119.520004 2
-0.21027149528396416 0.73486516040360339 1.4382351483945781 232 255 234 326.880005 482.400024 2
-0.3822459183591258 0.70821188149211367 1.0573051455656124 1 48 64 244.800003 545.76001 2
-0.36353054197792911 0.73891409453880819 2.582965116166223 255 170 188 331.200012 400.320007 2
0.10416899048949246 0.2012775550089908 2.2820260634910223 255 245 249 399.16803 321.40802 3
-0.12880364583473858 0.74455030937909328 1.2504514932409361 209 255 186 342.144043 518.400024 3
0.029288549072237435 0.7106684190678606 1.266762748623778 11 19 33 392.256042 504.57605 3
0.54948074794987511 0.58065289484415794 1.5666260183365788 149 167 182 520.128052 433.728027 3
0.73965653478131843 0.58359906927719551 1.2866500375589904 121 153 168 604.800049 464.832031 3
0.045842223905224966 0.5837382199182245 1.2449955275546527 111 112 112 396.057648 468.633667 4
-0.27002200652697894 0.83575726336539202 2.6225320547106392 230 255 234 342.144043 412.646454 4
-0.63962407234663221 0.5398429269057623 2.0917682804388775 230 231 255 269.568024 383.616058 4
-0.27773046663507106 0.7857475237494671 3.1989170508306159 160 255 164 350.438446 383.616058 4
0.34552709130457915 0.39737384230603479 1.5212968735857633 122 116 126 468.633667 389.836853 4
0.19070576887647595 0.25552663337477788 1.4805903362982171 255 242 242 431.308868 352.512054 4
19.910652375250624 -30.97504230929556 57.983573207299358 180 201 223 516.326477 82.9440155 4
-0.29114156244119815 0.65417873225583079 1.6020477509212672 133 130 151 316.016693 440.432709 5
-0.26041261658466341 0.77355721267194011 2.2793088551774723 223 255 220 338.41156 415.5495 5
-0.35555981712937434 0.72890378879972739 2.0156756605678154 186 187 197 316.016693 425.502777 5
-0.21792002724643744 0.73324782760311091 1.4436578142797059 234 232 255 325.969971 482.734161 5
-0.57647026160028991 0.65447830291312648 2.4653844209786175 182 182 178 296.110107 385.689667 5
-0.18234639076227355 0.72274970035375641 2.8639948329420761 84 84 91 360.806458 385.689667 5
0.44427153227612592 -0.25561418394497037 0.5807166989316368 230 255 199 674.334839 119.439377 5
0.19651957146879662 0.19820428456645833 2.1148189336033409 255 245 249 423.014465 323.481659 5
0.0712819884169833 0.53838752764335063 1.9357653187463093 109 128 255 397.135956 394.149963 6
-0.25033213232935525 0.52430143513275485 1.7547565324013279 255 170 188 331.444275 400.121918 6
-0.49273912668750475 0.7382297184104516 2.9149477883325172 160 164 163 316.514374 385.192017 6
-0.23010359824064608 0.76445019873783471 1.5137127629114033 233 231 255 325.472321 483.729492 6
-0.17553644041260608 0.71825697800938304 2.833632347682542 77 83 255 361.304138 385.192017 6
0.49964238427146856 0.61907031518080635 1.4408528846904414 132 150 164 516.575317 450.883667 6
0.50225153445126258 -0.29462601082043227 0.67821022144406307 230 255 199 674.83252 119.439384 6
28.181244810050547 -28.029422048880498 70.600863132957812 233 255 210 534.491211 134.369308 6
-0.27904230778630312 0.58374424053049911 1.4272131555213692 128 149 255 313.528381 441.92572 6
-0.27918665584876168 0.74811441720223204 2.262531326519575 219 218 255 337.41626 418.037842 6
-0.14746773578314709 0.82821239895397125 1.4351307027721676 255 139 147 343.388214 516.575317 6
-0.23441563279340683 0.7438783350443201 1.2922260756358348 228 225 255 313.528381 510.603363 6
-0.32338458878510412 0.3284260837761348 0.62518542609615846 145 173 255 185.131042 492.687439 6
0.46561985308491782 0.060331600601538415 0.62279967292213989 252 255 245 674.83252 328.458313 6
0.018159241004958249 0.25711681870392988 1.5357539271624701 241 246 255 385.192017 352.346191 6
0.052111259919671582 0.36942888323464096 1.2768325961342457 88 255 83 394.149963 397.733154 7
0.56854252089931379 0.72813228005551078 1.3153883366647552 255 93 118 551.809998 498.062256 7
0.50554713925051531 0.72380081408074803 1.2668146603525745 55 69 255 541.060425 501.645416 7
0.46788038835055756 0.77963023798632658 1.4542018320390993 144 161 172 512.394958 498.062256 7
0.04331357105193101 0.71014147343810852 1.2711495487280926 34 255 13 394.149963 505.228607 7
-0.24864917523812302 0.72245771084059052 1.2397544861504421 255 224 223 311.736786 505.228607 7
-0.3340703810068808 0.73571103241884317 2.5755843710169959 174 182 255 333.235901 397.733154 7
-0.39444816469722355 0.59448253364297732 2.2574868663688017 186 255 173 318.903168 386.983612 7
-0.28459466284892532 0.73151292492121978 2.1628794670388736 191 202 255 333.235901 419.232239 7
0.50501687499092585 -0.18261028949757907 0.66160110776957737 225 232 240 684.387695 179.159088 7
-0.45475660226393666 0.87320153389239907 1.666332596223973 225 255 224 286.654541 487.312714 7
0.49455064476959465 -0.093549916426388879 0.69486217318483234 248 255 245 662.888611 236.48999 7
0.39250106294262976 0.55547743927880511 1.5076727569242632 255 157 170 487.312714 429.981781 7
-0.16776594318131455 0.66007251911231002 2.5200546059932556 109 255 113 358.318176 386.983612 7
0.25094132719506357 0.82442627929645462 1.5554961205139763 43 54 72 444.314514 498.062256 7
0.27877145303902173 0.61838222347946059 1.1182902737573306 118 130 151 476.563141 494.479065 7
0.48402570874578221 0.7160387173363455 1.5148545734663141 162 174 255 505.228607 469.39679 7
-0.36191447102802643 0.77005653507425698 1.966346346007759 255 140 138 311.736786 440.731354 7
-0.17646876494521413 0.69654952054195807 2.3062675234951584 77 255 77 354.734985 404.899536 7
