ply
format ascii 1.0
comment Written with hapPLY (https://github.com/nmwsharp/happly)
element vertex 80
property double x
property double y
property double z
property uchar red
property uchar green
property uchar blue
property float ix
property float iy
property uchar octave
end_header
-2.1312214476794136 0.7438845432110619 2.7026007790183266 255 202 196 79 394 0
-0.036658836292837949 0.28035139342165455 2.8488947087700947 255 159 184 379 325 0
0.60779686520706244 -0.34105507363186183 1.2350576946949809 222 231 239 572.400024 183.600006 1
0.60734619246879951 0.010994959728659048 1.7683029184096704 249 251 255 517.200012 291.600006 1
0.77756296063952957 0.56168673431294502 1.0924010139367173 128 148 178 656.640015 483.840027 2
-0.30622109392603214 0.63557961549690756 1.471792079688135 255 130 172 303.840027 453.600006 2
0.84289460489098222 -0.45661850772173029 0.94837770079153394 225 255 188 722.880005 100.800003 2
-1.7688123786379442 0.77216984842452996 2.1959605406165901 16 35 255 73.4400024 423.360016 2
-2.0503693907207845 0.72291086938823179 2.567340797782605 199 199 255 77.7600021 394.560028 2
0.88893210212199092 -0.031433763949153148 0.96611413001993363 133 255 95 738.720032 275.040009 2
0.53978672422628216 -0.027173245359297216 1.50178574760284 251 255 249 522.720032 280.800018 2
0.76223181445423105 -0.48201509058522185 1.1508552508432066 197 214 230 636.480042 128.160004 2
-0.26342734564467785 0.011144638958713871 0.66178403847072698 129 156 255 233.280014 293.76001 2
-0.15260392851443605 0.68650060889701647 3.2748147760885029 139 172 195 364.608032 366.336029 3
0.51270196586472405 -0.14218453573617712 1.5010691176079032 249 255 245 514.944031 250.560028 3
0.76360460187714896 -0.48753503313554325 1.1729745569334327 255 197 213 635.904053 127.872009 3
-1.1584218941475659 0.72613021552611556 1.3125059799277592 80 255 75 46.6560059 502.848053 3
-0.41966101255276556 0.80231307123526441 2.4468019140608188 161 183 255 317.260834 414.720062 4
-0.21424731863378721 0.26988178232719484 0.43255915298835301 122 255 34 194.918427 526.694458 4
-1.7960025038976037 0.73871898575477613 2.0174599913668425 126 142 255 45.6192055 427.161652 4
-0.33114882839330884 0.70592938823432749 2.9379055579065589 105 170 195 340.070435 379.468842 4
-1.768699840422252 0.74964403952224068 2.2451155969189855 36 255 18 82.9440155 420.940857 4
-1.1309589792866777 0.71129223834348854 1.2729877200938322 61 68 255 45.6192055 503.884857 4
-2.1994885109435671 0.16222544552555046 2.4821237399941989 193 203 255 41.4720078 311.040039 4
-2.1231585465748681 0.72979512170085203 2.6457401352769665 205 203 202 76.7232132 396.057648 4
0.73663252256980338 0.5289220820251741 1.1281756471509317 228 255 229 630.374512 468.633667 4
0.69598733669199553 0.34137554869549736 0.8787670180408389 128 255 103 686.361694 435.456055 4
0.75073827218643063 0.46081406725376084 0.86338672298513597 123 156 255 721.612915 495.590485 4
0.59334380463022995 0.099715273984858327 1.2538629098557195 245 249 252 568.166504 319.334442 4
0.70992012510095748 0.29582120522794531 0.90392254460124999 133 255 107 686.361694 414.720062 4
0.21944575072715811 0.1489394211069886 3.3231699626193478 226 255 165 410.572845 306.892853 4
0.49720132510720649 0.006069837102184561 1.4889567104618484 248 250 251 512.17926 290.304047 4
-0.24332277232720223 0.60133847351284697 2.6536384144622156 196 255 122 350.85318 373.248047 5
-1.9851070956359353 0.46519085062957222 2.2836295519785299 255 181 198 47.2780876 363.294769 5
-0.3107872911934324 0.65020755604549385 1.5249666298642381 255 131 166 303.575073 450.385986 5
-1.3286870808115774 0.68024625841702524 1.8243164815555915 47 255 34 102.021133 427.991089 5
0.70652566290484842 0.20859107435536889 1.0507050866173691 165 163 164 644.474976 365.783081 5
0.55647494540879405 0.64991568502883013 1.2446560052287108 125 133 141 552.407104 485.222473 5
0.55081938510820283 -0.37131293931070508 1.6289691396079373 255 232 237 515.082336 199.065628 5
0.18279315683631925 0.18117635706295948 3.2344415080322531 106 179 194 400.619568 308.551727 5
-0.21626720740497296 -0.13053644531371955 0.44441005755285179 255 26 85 199.065628 174.182419 5
-0.21541081701496312 0.27089167852437657 0.43692452726844877 121 255 30 194.088989 525.035583 5
-0.21675726156141639 0.22525194425745831 0.44591164011889983 105 255 43 194.088989 480.245819 5
-0.19645335276590625 -0.14596221286519329 0.45016596566240619 42 110 140 216.483871 164.229141 5
0.71195500427204794 0.53975857456386844 1.1310605991291931 227 227 255 629.545044 475.269196 5
-0.19285054044623529 0.69539236625009737 2.2779020703902626 151 177 255 353.341492 403.10791 5
-0.19662172262036171 0.50809763769298544 1.6841251484841857 130 151 173 340.402252 400.121918 6
-0.21953008611249736 0.24253599352444738 0.45279906277368731 86 112 255 197.074982 492.687439 6
0.44107340964490671 0.3191587940516013 1.4034646238344424 171 184 201 504.631378 382.206024 6
0.4620129470017813 0.7098783793537522 1.5928947090964192 197 255 202 498.659424 456.855652 6
27.494983431935939 -28.489252612535097 71.27178229197952 232 255 208 534.491211 134.369308 6
-0.21596203104874689 -0.1917597967727479 0.43017807946714903 103 125 255 197.074982 116.4534 6
-0.21744618912131353 0.01402911936483231 0.44645610317990148 99 255 34 194.088989 301.584442 6
0.52674977640065324 -0.35246430849510091 1.487961909360461 237 243 255 513.589355 200.060959 6
-1.0931247980992929 0.67986085230466609 1.2707223373604979 87 93 92 56.7337074 492.687439 6
-0.21929555921850241 -0.086839976205014713 0.44699280993430168 114 255 39 194.088989 212.004898 6
0.26538256990753029 0.22354362733779515 2.819672582698411 249 252 255 421.023834 319.500336 6
0.12645638791199798 0.16202742526758596 3.1868752530749269 255 104 185 403.10791 307.556396 6
-0.21772128908855004 -0.22343369663271484 0.4489716241650461 128 255 28 194.088989 98.5374908 6
-0.21943888413195545 0.11670956959627168 0.4481633319510463 106 255 50 194.088989 391.163971 6
0.70458948542348487 0.52824191176628366 1.1038342938909436 228 255 226 630.042725 474.771545 6
-0.29946391094217351 0.68954274241600166 1.6783095969558355 122 156 174 316.514374 444.911713 6
-1.4302817009272744 0.71188717729331419 1.7221591214979526 98 255 94 62.705677 447.897675 6
-0.19586979566665219 0.71228693744907634 2.3233830207092616 140 156 255 349.360199 406.093903 6
0.48959627992864929 -0.15510930293178132 1.1523708246713396 255 242 244 543.449219 235.892776 6
-0.44288803828102408 0.57354372905356588 2.2631086611214535 173 197 200 308.153625 379.817261 7
0.52674977640065324 -0.35246430849510091 1.487961909360461 255 231 236 515.978149 197.074982 7
0.64261251298155408 -0.48521806229408559 1.2767881009108812 220 227 236 576.892212 143.327271 7
0.66120065281223872 0.12504237518916814 1.1676935552410104 249 252 255 605.557678 329.65271 7
0.59590713559790998 -0.36786089817983791 1.2395905205813911 232 239 255 569.725891 175.575897 7
-0.21812991538419002 -0.13475020977222407 0.44655502329946462 80 107 255 193.491806 171.992722 7
-0.22038643054512663 0.083023828705419717 0.44457718624234133 98 125 255 193.491806 358.318176 7
-0.21426454735374234 0.014428209077068821 0.43526893402898459 106 131 255 193.491806 304.570435 7
0.59293211831577297 -0.10782098491868902 1.2743964474549561 249 255 247 566.1427 254.405899 7
-2.0589675977269213 0.70292840142698898 2.5116916070033524 255 200 198 71.6636353 394.149963 7
0.1654493153454959 0.17119167051472714 3.4848690417317609 146 211 215 408.482697 308.153625 7
-1.4380961812733664 0.71034053567325073 1.7207682216133033 105 108 106 68.080452 444.314514 7
0.57773320582548271 0.54401593873480425 0.99100914355025704 126 145 174 612.72406 501.645416 7
-0.20593179214998081 0.71426758201178098 2.3445655860924575 255 117 136 351.151794 404.899536 7
-0.4220528263700376 0.7993808218356121 2.4180232832608874 255 115 161 315.319977 415.649078 7
