ply
format ascii 1.0
comment Written with hapPLY (https://github.com/nmwsharp/happly)
element vertex 96
property double x
property double y
property double z
property uchar red
property uchar green
property uchar blue
property float ix
property float iy
property uchar octave
end_header
0.56713063559750143 -0.4328601447288738 1.0247372971456672 208 219 232 596 127 0
0.59463553199958574 0.46651388971416463 1.1984654690423993 83 90 255 573.600037 436.800018 1
-0.34317453769296247 0.72207628273032021 1.4875075388562333 255 197 205 295.200012 474.000031 1
-1.5016739288817229 0.14116433869807646 2.3070989938010067 19 61 85 132.480011 312.480011 2
0.53840996867786828 -0.019986395464292039 1.3968147432893616 249 250 251 532.800049 282.240021 2
0.23093706373236222 0.21487963921335229 2.2108545609588033 249 252 255 421.920013 324 2
-0.098334449859751594 0.67615801693619448 1.0042018041894032 255 212 212 347.040009 544.320007 2
0.54914796530041343 0.014963888668390046 0.97951705161906411 255 248 249 599.040039 292.320007 2
0.60623546011240603 0.018348024744284874 1.6632404737648097 249 251 255 525.600037 293.76001 2
-0.35451734979788796 0.82385154474940736 3.9985279834327017 173 196 255 349.920013 367.200012 2
0.57533335980161904 0.66809488407280648 1.1195419132508873 145 170 255 581.76001 514.080017 2
0.74514060956058503 0.41605796941698392 0.81015482855257392 116 255 82 738.720032 486.720032 2
0.21314366819550568 0.13951940267927684 2.7718575177177183 252 255 245 414.720032 308.160004 2
-0.21370244161435847 -0.013757446478146251 0.32698142767174243 57 81 255 133.056015 273.024017 3
0.57117955695765654 0.14743707810171386 1.0949586451221469 174 193 255 585.792053 338.688019 3
-1.38943954965674 0.13876156223653788 2.0973869758700081 255 21 61 131.328018 312.768036 3
0.37793220534166516 0.69882431720686644 1.6002092069563982 255 121 123 475.200043 454.46405 3
-0.15178867108380167 0.69584018541025239 3.1698306055011276 195 255 128 362.880035 369.792023 3
-0.36114626893703994 0.8330887891668427 4.0271438017578909 255 122 169 347.328033 368.064026 3
-0.93770770708770668 -1.100881055889108 3.7268942479018374 233 232 255 285.120026 172.800018 3
-0.30701578261256168 0.64351625661499257 1.3669859848851722 255 197 205 295.488037 470.016052 3
0.69440800224358568 0.34788537850363893 0.77334529163784449 141 255 109 730.944092 461.376038 3
0.68103043317923739 0.16702168766892309 0.80925191294336507 119 255 96 706.752075 364.608032 3
-0.312652642153469 0.71093865957628166 1.631872092884751 76 85 88 308.966431 454.118469 4
0.57555586664495739 -0.29948421858215124 1.0617277115238855 218 230 239 588.902466 182.476822 4
0.56474543075924699 -0.32450059879307191 1.0981584859141789 239 255 222 578.534485 176.256027 4
-0.41945737204064582 0.81118850743122872 2.3419504612730231 255 131 149 311.040039 423.014465 4
-0.24867146920619287 0.66358396157410748 2.7924189749486938 193 255 102 350.438446 379.468842 4
-0.21499104561664018 -0.013228488786699133 0.32642348296536472 0 56 81 132.710419 273.71524 4
0.38048951820035382 0.61443523741750306 1.5516510321327974 255 125 127 479.001678 443.750458 4
-0.24249230265161348 -0.14759454070546141 0.92711471200418138 223 227 227 288.230438 228.096039 4
0.40773220798615695 -0.24947355351286304 0.97339914658481241 255 231 236 547.430481 186.624023 4
0.73309101202877325 -0.3208207887974529 0.90531442401694218 227 231 238 692.58252 149.299225 4
0.76013373746297375 -0.47533241966171735 1.0460816313098356 255 204 216 663.552124 114.048019 4
0.73011169996699721 0.5206580325581649 0.90023322802858985 117 134 165 696.729675 512.17926 4
0.038534092393555763 0.18699522691502629 1.9368855217112166 255 84 155 391.910461 323.481659 4
0.21980997732763785 0.15797955734088878 3.2183241684845125 252 255 245 414.720062 308.966431 4
-0.33060775598912384 0.71514422943688905 2.8330596644424659 152 178 198 340.899902 385.689667 5
0.5918683224394905 0.10664061582079554 1.1487369424227021 255 244 248 587.243591 323.481659 5
-0.13685176251715614 0.60782205948889978 3.1575262152924566 193 255 128 370.759735 360.806458 5
-0.19289152490410544 0.70391522455374855 2.1729458929282197 176 255 132 350.85318 413.061188 5
0.59670868269462063 0.69526272612408324 2.0779863305576365 180 255 145 490.199097 415.5495 5
-0.28128157236262252 0.38156949003529883 1.2290500407308054 228 231 231 296.110107 403.10791 5
0.42563165999327546 -0.26428425013339418 0.9809678803395725 255 231 236 547.430481 186.624023 5
-0.29360958970072382 -0.18196535238099676 1.1714644040051017 216 221 221 288.645172 226.437149 5
-0.21632931024376401 -0.20421464083779872 0.33050280647923636 255 51 107 131.880981 49.766407 5
-0.22225212480025824 0.1984487229677071 0.33026477069015492 13 28 255 121.927696 517.570618 5
-0.26700282417500487 0.18959122787276456 0.32232459331216834 120 140 166 64.6963272 515.082336 5
-0.21805456674734014 0.078797585773997314 0.32302622114530521 96 127 255 121.927696 383.201324 5
0.55957793547947277 -0.00068767180711060139 1.0251549894500416 250 251 255 589.731934 283.668518 5
-0.32425075647074841 0.66026391125393502 1.4540449745031117 177 189 202 296.110107 467.80423 5
-0.30983383865153513 0.69711675734371026 1.6082110117959614 255 35 41 311.040039 455.36261 5
19.162489772532293 -31.31206429278356 58.540103355766874 255 179 200 515.082336 82.1145706 5
-0.19289152490410544 0.70391522455374855 2.1729458929282197 152 174 255 349.360199 412.065857 6
-0.30388457989602013 -0.19043539718883895 1.2067153621157036 227 255 229 286.65451 226.93483 6
0.64062079276768391 -0.47831783946763473 1.1721207601105954 232 255 209 594.210938 128.397339 6
-0.21954971437010906 -0.097360797578543989 0.3366959821313964 255 32 108 131.383316 176.173096 6
0.73133510112873479 -0.45831074672786898 1.0131084953938858 229 255 202 662.88855 113.467415 6
0.54923750591442921 -0.36402704600319102 1.5242834323314316 234 241 255 525.533264 194.088989 6
0.70497371384827012 0.21523856373398695 0.94538790671175033 255 182 183 671.846497 370.262085 6
-0.19740564450164078 0.12252963115793969 0.3498546238995166 131 160 255 161.243164 424.009796 6
-0.25435814816974256 0.070995896646253109 0.30373089696188593 175 255 132 62.705677 376.23407 6
-0.25730613758283516 -0.023352511382576102 0.30564721636100156 148 174 255 65.691658 256.794678 6
0.55401884509820931 0.31196179024586923 1.000957746931836 150 163 255 597.196899 409.079895 6
-0.31771679302609979 0.64756569437395095 1.427023908949991 255 197 205 295.612457 468.799591 6
-0.21915780810568419 0.19193912409275865 0.34000427027796842 0 54 85 140.341278 501.645416 6
0.43992888368881511 0.32635173504377657 1.2982823809430108 198 255 182 510.603363 388.177979 6
0.60925142728794746 0.10736532073203603 0.93635158043235567 249 252 255 633.028748 328.458313 6
0.5829750861554106 0.10490849099843111 1.1239527547973545 245 249 252 588.238953 322.486328 6
0.53762912998578805 0.018167463055918598 1.0727622924890587 248 249 251 576.295044 292.626495 6
0.59988928028339861 0.68626028832444863 1.1951633527940047 255 171 179 579.281006 510.603363 6
-0.19885024542310603 -0.13900045125498622 0.34593537598777235 111 140 255 161.243164 134.369308 6
-0.30003007778488877 0.69764997979182874 1.5734512434901626 35 255 32 310.542389 456.855652 6
-0.24312411337074025 0.61022942851140405 2.5488062903889617 167 193 255 349.360199 379.220032 6
-0.38397552427543991 0.52341973746563486 1.8151597757080902 207 213 255 301.584442 397.135956 6
-0.080176592035012373 0.44859010575202679 2.9355434491878132 55 150 182 372.650879 343.985443 7
-0.19150034675363781 -0.078813425813164362 0.32547393590486262 90 119 255 161.243179 197.074982 7
-0.24702245943079815 -0.15176968080993425 0.93932550054451891 224 255 226 286.654541 225.740448 7
0.52506292339664085 -0.34527709257855899 1.3832810052020408 235 241 255 533.894043 189.90863 7
0.58983777282990824 -0.31068931108291653 1.1154857263963072 255 218 230 587.641785 182.742264 7
0.48779933659171193 -0.14817551451824362 1.0475532127229252 255 243 245 555.393127 232.906799 7
0.65967361046364514 0.13183167418102421 1.0624871600322461 255 241 241 619.890442 343.985443 7
0.70102896270120185 0.53178595360486658 0.98647301225830653 255 137 155 655.722229 501.645416 7
0.75094156011608382 0.524001598923727 1.0517794982027109 227 255 226 662.888611 480.146332 7
0.11788768137432371 0.80871784227202259 2.1142924243335433 35 45 47 404.899536 437.148163 7
-0.22051964620127373 -0.12777166642413412 0.34233360565149251 4 43 72 128.994537 143.327271 7
-0.20932757265008695 0.56631448332583267 2.4092946114516414 255 143 174 343.985443 376.23407 7
-0.3673492172699433 0.40208276066366871 1.950535628917633 255 127 176 311.736786 365.484528 7
-0.19585585770652347 0.72085149630330969 2.2184149450126567 255 136 153 347.568604 412.065887 7
0.55549575456663081 0.65686654525211219 1.1390904270803111 178 255 140 566.1427 505.228607 7
0.16597418814263531 0.18041977453890345 3.3800508326278695 223 241 243 408.482697 308.153625 7
-0.44305332108529472 0.58228335094567452 2.158473538294353 209 215 219 300.987244 397.733154 7
0.7511403632551219 -0.32617865061012941 0.9267858910797413 255 229 233 695.137207 154.076813 7
0.59399075371868459 -0.36094977599008116 1.1348630865087364 255 223 231 587.641785 171.992722 7
-0.21841821193580779 -0.18479722195290482 0.3260036569689948 14 91 120 132.577713 68.080452 7
-0.21531042710904869 -0.099414616473236683 0.32540558810031062 34 109 135 128.994537 175.575897 7
