ply
format ascii 1.0
comment Written with hapPLY (https://github.com/nmwsharp/happly)
element vertex 75
property double x
property double y
property double z
property uchar red
property uchar green
property uchar blue
property float ix
property float iy
property uchar octave
end_header
-2.0451715416528158 0.70214646687482019 2.9074622908282857 255 184 200 115 382 0
0.91022121742848627 -0.43659232923593638 1.0990076871605705 255 232 235 703 136 0
-0.71173252296857026 0.35206038567595271 1.526994221670348 192 196 255 205.200012 379.200012 1
0.9103744198332524 0.38470866983252794 1.0175162797560464 148 255 95 730.080017 433.440002 2
-2.1671085460491639 0.75282145544881074 3.1874249485164174 197 204 205 120.960007 378.720001 2
-2.1743931424285767 0.75732931985682084 3.112500845829091 152 181 200 112.320007 381.600006 2
-1.5388616399642485 0.71298752419979539 1.9141366496997456 127 127 131 76.3199997 429.120026 2
-0.22158870769948269 -0.44792823978678387 0.77457643557208833 53 150 177 272.160004 66.2400055 2
0.83056166540652621 -0.47242463425978709 1.2505205598737241 255 210 221 639.360046 142.560013 2
0.88775194755137088 -0.42848566693854351 1.064319854819475 255 233 235 703.296082 134.784012 3
0.69220394082987124 0.6292320146668916 1.2685282322699774 107 255 71 594.432068 478.656036 3
0.67394388765406599 0.63865565254292644 1.3938228530719723 160 173 188 568.512024 463.104034 3
-0.24294144373215687 -0.041925180080936209 0.89451518158870069 81 157 181 276.480042 267.840027 3
0.60645161712226581 -0.47948498956038854 1.4798992727917994 225 231 238 540.864075 164.160019 3
0.75172880011343657 -0.50378848430336209 1.447609133984824 235 237 241 584.064026 155.52002 3
-1.3604162667783877 0.21355989850886548 2.319659269512492 243 247 251 160.70401 321.40802 3
0.72784185907399523 0.68761636980635765 1.0882177932648638 155 177 255 641.088074 530.496033 3
0.60865355694582091 0.081483082776741711 1.6217353492455393 182 192 205 528.768066 305.856018 3
-1.975255429609422 0.092634441328802108 2.1880374097478787 255 242 245 39.398407 302.745636 4
-1.1073562768357563 0.77043899407091621 1.6103393910487478 13 11 19 120.268814 468.633667 4
1.0895912721550223 0.60291132770625444 1.4601079221486142 255 215 216 671.846497 447.897675 4
0.73768250437061766 0.65333477245611304 1.2770970333789826 255 56 91 607.56488 487.296082 4
-0.73398739749795228 0.42671489885300601 1.5295831469981351 255 148 160 203.21283 393.98407 4
-1.9222975978556436 0.6915075304737146 2.4966621564387736 153 160 255 89.1648102 393.98407 4
-0.3318335109812276 -0.10600986244937216 0.81005434737350068 255 242 245 223.948837 240.537628 4
0.47162806069433039 -0.33285543381191751 1.6207037985181847 239 244 255 497.664062 209.433624 4
-1.6969866619570411 0.70231940165044349 1.9455691862594255 213 210 255 45.6192055 427.161652 4
-1.4847496349136788 0.23048150879514201 2.8982383557843079 243 247 251 184.55043 321.408051 4
0.71593015067793453 0.67176683294731243 1.0549150601859436 178 255 139 642.816101 530.841675 4
0.89704169977392856 0.10593087218451475 1.3114405048609159 246 255 245 646.963318 319.334442 4
0.13117326242119409 0.13585975684513465 3.4137825016234391 255 164 192 395.642944 301.086761 5
-0.20515791406476236 -0.31594536528456296 0.85844820773684205 255 146 166 291.133484 151.787537 5
0.80864759157619259 0.56034869867572512 1.0732109563115824 255 123 138 671.846497 487.710785 5
0.72987807068596 0.67984535843876981 1.0794203886914859 180 255 146 646.963318 525.035583 5
0.7822241812378945 0.64612440273853755 1.0930800022066771 140 135 255 661.893188 512.593994 5
-1.1589468856899803 0.71202676543981103 1.6296612512831166 255 68 74 111.974419 452.874298 5
-0.19254782530483272 -0.20855451212988885 0.67229154097555899 66 161 186 276.203552 164.229141 5
0.6017904727029022 -0.13015291127163514 1.6273181593323658 249 255 246 530.012207 253.80867 5
0.54688771257837177 -0.17508486287915048 1.7858845089683246 245 248 255 505.129028 248.832031 5
-0.23789959655488158 0.27761245068521806 0.85708025698523205 59 68 80 276.203552 413.061188 5
-1.4585503823676751 0.70998112617927434 2.1040032131006523 79 82 85 116.951057 415.5495 5
-1.2989750205782764 0.21747960234060515 2.4936102940092884 243 248 251 184.135712 320.993317 5
0.68018934479935811 0.61517213744121513 1.2442499293531313 164 255 129 594.708557 475.269196 5
0.78119509749186089 0.64624152451621808 1.1244582954204798 255 105 118 647.958679 510.603363 6
0.38682993644712327 0.46477745990083552 2.1534645782656865 155 148 255 453.869659 376.23407 6
-1.9559914640737048 0.72965097490863995 2.3334693958904218 255 81 84 59.7196922 406.093903 6
0.83482342812881583 -0.47874070150114312 1.2581486984748462 212 222 234 636.014709 143.327255 6
-0.23151973129980208 -0.051380995082282388 0.7962811901305562 185 255 102 274.710571 268.738617 6
0.58179710905785198 -0.32813802566224382 1.4797282406331727 255 232 237 531.505249 203.046951 6
0.53078638208339779 -0.37826639533975692 1.8406301127107865 243 255 233 498.659424 206.032928 6
0.59557216152134873 -0.38939153438724849 1.5603374889697523 255 227 235 531.505249 194.088989 6
0.84049450623097854 -0.15210360494113145 1.2038346640931143 255 243 244 647.958679 244.850739 6
0.27026137894680535 0.20153200629017809 3.1170561496779152 194 255 146 418.037842 313.528381 6
0.81956484496126114 0.4660648433989919 1.0509108045145039 226 227 226 680.804504 453.869659 6
-1.598316474288088 0.7833330815085584 2.3525252122784481 78 83 86 116.4534 418.037842 6
-0.30648463994931152 0.71909538221180447 2.035185512936982 103 127 255 329.65271 419.232239 7
-0.4207837774112928 0.75929867300778675 4.5396838928595891 255 38 119 347.568604 354.734985 7
0.12595649446285728 0.088464600411844785 1.6366613643341958 138 171 193 408.482697 304.570435 7
0.17073004591003493 0.14840284685903571 3.8711920340431565 156 174 196 404.899536 300.987244 7
-1.6911100597257072 0.57697206619431163 2.2758023503727065 255 183 186 103.91227 383.400421 7
0.7600329304116451 0.65247947273468332 1.1484524980632269 140 160 255 637.806335 505.228607 7
0.75671861355960202 0.57463783638133115 1.0628151289478742 255 157 162 659.30542 494.479065 7
0.56387803797416769 -0.11632338452096835 1.4766937524415447 249 255 246 530.310852 254.405899 7
0.63795698955346425 -0.50229622537286012 1.5709025326442401 232 239 255 537.477234 168.409531 7
-0.66587382991803334 0.38103721348722119 1.3935028554124607 153 163 180 204.241348 390.566803 7
-0.24259649766798397 -0.047144912469056943 0.87859831055655668 255 69 158 275.904999 265.155426 7
0.90108532789771378 -0.19576673855323878 1.3308506829654849 245 245 248 644.972717 236.48999 7
0.56207003037267289 0.66666367659899972 1.632977373777238 255 226 227 519.56134 440.731354 7
0.79481452634635374 0.44425176976995218 1.1947984222592254 230 255 230 634.223145 429.981781 7
0.58928949376605599 -0.33990412811035942 1.5377200699637559 243 255 232 530.310852 204.241348 7
0.57322778815286357 -0.39961725894782751 1.5131129548523843 242 255 227 530.310852 193.491806 7
-1.3830337133619244 0.21442180486223572 2.6453735362204114 251 255 243 182.742264 318.903168 7
-1.4689003892253547 0.11527964350844838 2.6851764939591467 255 243 247 171.992722 304.570435 7
-0.23022605358841775 -0.37503855971716549 0.79355087654461798 255 37 154 275.904999 103.91227 7
0.83170113555035385 -0.47502852346035751 1.2476147969592004 234 255 214 634.223145 143.327271 7
