ply
format ascii 1.0
comment Written with hapPLY (https://github.com/nmwsharp/happly)
element vertex 67
property double x
property double y
property double z
property uchar red
property uchar green
property uchar blue
property float ix
property float iy
property uchar octave
end_header
0.57984258007807621 0.67677208996089711 1.0707480841858761 119 136 165 592 529 0
0.58999634082448749 0.15989950203643399 1.0958885294771425 165 184 255 593.280029 345.600006 2
0.5657392222564761 -0.065511736284982081 0.95596635129307383 249 250 255 609.119995 263.52002 2
0.59380504167938719 0.33722089622666218 1.0144730443220524 212 212 255 609.119995 417.600006 2
-0.40585053728190301 0.78312021173064483 2.1799659027451428 255 118 135 311.040039 428.544037 3
0.38716079950379245 0.62639938698571429 1.5271781977563945 124 255 125 482.112061 442.368042 3
0.42317194190269403 0.69982745945758262 1.6141408820185905 255 147 149 483.840057 454.46405 3
-0.36228613939035448 0.82926212459169957 3.9878661074608512 255 140 176 347.328033 364.608032 3
-0.31255275185047582 0.71306873255753944 1.5699814066009772 138 138 255 305.856018 459.648041 3
-1.3851658216895024 0.14503047461053886 2.02109599221785 49 96 123 120.960014 317.952026 3
0.59059802638751235 0.39649446479715145 1.045891779855185 139 143 255 601.344055 435.456055 3
0.56787764859235002 0.14926934328117258 1.0342734646622915 199 255 163 594.432068 342.144043 3
0.54730532866095727 0.016739582851034052 0.92276907958085808 248 249 251 608.256042 293.76004 3
0.58567877251959688 0.29271045495127479 0.99763933635733526 134 134 255 609.98407 400.896027 3
-0.25293365579618454 0.67378881876530028 2.7847824026244368 186 255 127 350.438446 381.54245 4
-0.36976604609369712 0.836425039512111 4.0072532001798002 133 174 197 348.364838 364.953644 4
0.49638418725830502 -0.13104709791648755 1.3126254083718099 245 247 249 528.768066 250.90564 4
-1.1578420754449401 0.57818079339764283 1.8113163373448593 143 255 50 138.931213 408.499268 4
0.03092913825503163 0.1902537904593426 1.8842853679561369 255 99 190 391.910461 327.628845 4
-0.42126574304463427 0.57382458595581298 1.9646963241871962 169 192 255 301.086761 405.596222 5
-0.3426051470503455 0.73065546486363175 2.8554803512017939 192 255 118 338.41156 385.689667 5
0.73217613783797031 -0.32018265170235782 0.85024563085157379 220 227 235 716.63623 139.345947 5
0.25979194878039946 0.23026373855960991 2.6190291904822676 255 245 249 423.014465 323.481659 5
0.17559460982563513 0.18828240075151126 3.1512460942121123 255 213 237 403.10791 308.551727 5
-0.18737194396429446 0.7543121281042996 1.4936116768399037 125 255 115 330.946594 480.245819 5
-1.3292715910179553 0.68952137846302974 1.6541058755357572 255 33 102 79.6262512 450.385986 5
-0.19878321325362425 0.085877768771803198 0.24568646066446664 53 84 255 69.6729736 423.014465 5
0.69943134504897309 0.54064485499403414 0.93729737307341399 255 128 146 671.846497 515.082336 5
0.58198030753911567 0.67232389351507016 1.1006875817221911 177 191 255 589.731934 522.547302 5
-0.30721937788282494 0.71777065362046499 1.5635247206563108 114 255 122 306.063416 460.339264 5
-0.11566349502965556 0.69320715014251011 1.8114001483349513 255 133 148 363.294769 432.967743 5
-0.12615379799480042 0.60443909382459482 3.0974663002857454 255 74 151 367.276093 364.290131 6
-0.083892444007267031 0.49005192915935147 3.1410595001097814 161 189 255 373.248077 349.360199 6
0.51246196671137367 -0.34024906417324186 1.271923753251567 230 236 242 540.463196 188.117035 6
0.60579667780039448 0.10957140100140572 0.87582365411922236 255 245 249 647.958679 334.430267 6
-1.6702736378626919 0.58826924669163028 2.0159124621005304 32 98 129 68.6776428 406.093903 6
-0.21081782206592203 0.025895481947197929 0.31791041535345954 255 13 45 131.383316 319.500336 6
0.75007745849612784 0.52551834363391903 0.99511516453565374 214 218 255 677.818481 492.687439 6
0.56575502004820977 -0.24957310113058195 1.1449037919992158 255 229 236 579.281006 203.046951 6
0.35267317222606454 0.26136430930580923 2.1581418479353403 245 249 252 444.911713 334.430267 6
0.1228173095560372 0.16530087259005827 2.9148581495438011 186 230 231 400.121918 310.542389 6
0.58121615860675635 0.10753624938049161 1.0629837296358096 252 255 245 594.210938 325.472321 6
0.53354341762300672 0.020490803860918616 1.011085345222507 249 251 255 585.252991 295.612457 6
0.5654691511168608 0.67065696256695162 1.1272259444637101 172 178 189 576.295044 516.575317 6
0.55134714062882018 0.31369859972045505 0.94063090860720866 198 255 191 606.154846 415.051849 6
-0.22306651375983888 -0.13447864846571711 0.29009304360995625 125 255 23 86.5935516 113.467415 6
0.55626914181379261 0.0011322347532005672 0.9653294054476671 250 250 251 600.182922 286.65451 6
0.5204060502185075 -0.16025098237692931 1.0959605553324829 245 246 248 564.351074 232.906799 6
0.065453045127337628 0.38158209841231339 1.8673584651376238 168 221 222 400.121918 361.304138 6
0.41426180604992968 0.3235024753300843 1.1538435920631649 255 150 167 519.56134 394.149963 6
-0.31723918699560549 0.65050646353891195 1.3646738147406765 25 37 45 292.626495 474.771545 6
-0.30943244622659805 0.69805377634238253 1.5431529858553699 255 84 95 307.556396 462.827606 6
-0.2158984727800024 0.56962692970832263 2.368368602055118 153 175 196 352.346191 379.220032 6
0.73078018245327137 -0.4593348080201678 0.95980201512247376 210 228 255 673.638123 107.495445 7
0.58058749302949342 -0.097408418463094282 1.0813993104776625 249 255 246 598.391357 254.405899 7
-0.20184488056092054 -0.13185769672822689 0.28857818198125251 94 255 4 114.661812 107.495445 7
-0.19648115153815837 -0.072360045343497825 0.27334118385587391 72 255 9 114.661812 182.742264 7
0.58016151961135898 0.10629433168758851 1.0649458215594958 251 255 244 594.808167 326.069519 7
-0.2220132710957845 -0.090049585322625747 0.27863648420252485 136 255 26 78.8299942 161.243179 7
-0.22174908304721885 -0.11731377519573938 0.2850124180033804 111 137 255 89.5795441 132.577713 7
-0.20349467487649875 0.74147542322985482 2.2623479809786406 255 141 155 347.568604 415.649078 7
-0.3737171451511192 0.78283309550622204 1.6115843877860589 79 255 81 290.237701 476.563141 7
-0.26446853203220178 0.66339205940212964 2.7755150347875031 255 158 180 347.568604 379.817261 7
-0.37734113911981959 0.41202491468717217 1.9381392959770123 142 170 191 308.153625 365.484528 7
0.11596190236034087 0.80603854899303951 2.0490846334563413 62 72 75 404.899536 440.731354 7
-0.50961583647262154 0.65453498163593449 2.451334415943383 182 199 255 297.404083 394.149963 7
0.59068343382250665 -0.38317021587940014 1.4810108036206788 236 242 255 541.060425 186.325439 7
