ply
format ascii 1.0
comment Written with hapPLY (https://github.com/nmwsharp/happly)
element vertex 109
property double x
property double y
property double z
property uchar red
property uchar green
property uchar blue
property float ix
property float iy
property uchar octave
end_header
-0.29923236088744209 -0.29819712415276634 0.50997426047409355 65 147 173 160 64 0
0.47634873994110283 0.63530508939780272 1.355778896400671 84 107 125 520 469 0
0.22628866789973534 0.76912093553260841 1.3350882049896375 255 127 138 451 508 0
-0.29302597984275991 0.07312117321741618 0.46782112762065342 186 255 114 142 349 0
0.020005717015257662 0.26992793353537159 1.4591535043501977 246 255 241 390.000031 357.600006 1
0.45565042529101829 0.037911840034764666 0.548041058479388 248 251 255 705.600037 315.600006 1
-0.21377839665394127 0.73965777554199708 1.3830203676632351 230 229 227 324 492.000031 1
-0.29693093220188516 -0.29626833131606833 0.50576240878366097 255 77 149 159.600006 63.6000023 1
0.42590705033654719 0.17038867352943488 0.51417167803597685 255 204 206 699.600037 415.200012 1
0.4971979202229897 0.63060295619493301 1.3799883854705319 255 107 129 519.840027 465.120026 2
0.43427281180976984 -0.17605678188304941 0.47629490743437408 202 218 233 732.960022 146.880005 2
-0.19791541068100837 0.75159455406623943 2.9169653908374116 99 255 88 358.560028 385.920013 2
0.02805820001306758 0.73014562524373028 1.2345326997881907 255 11 13 391.680023 516.960022 2
0.7366623021941876 0.58941432595819565 1.2336476440936606 114 148 163 612 470.880005 2
-0.36949684318439369 0.74484438448529389 2.5274137881378262 176 188 255 329.76001 403.200012 2
-0.67563150192917831 0.77597723480884695 2.8400633856115363 160 171 170 292.320007 393.120026 2
-0.34274141425519655 -0.06474320016667523 0.60042090871662968 255 160 183 167.040009 246.240005 2
0.086132278909700544 0.19854836979272694 2.0627054259568309 245 249 252 400.320007 322.559998 2
0.43812793279320772 0.073509891269263661 0.48361857831536881 252 255 245 730.944092 345.600037 3
0.46492086173430702 -0.0088437903283792307 0.51576897492928975 250 255 248 730.944092 279.936035 3
0.44597676589081137 0.1321362274731801 0.53927370486478488 149 148 255 701.568054 381.888031 3
0.34785584881867382 0.62350260419374004 1.2750059423220783 255 182 188 487.296051 478.656036 3
-0.25674445879607966 0.76741054606733639 2.3261931773372542 202 202 199 340.416046 414.720032 3
-0.28507686063858895 0.79250222838397688 3.1434931722462398 255 150 150 347.328033 387.072021 3
0.42283753520190936 -0.017382103093111057 0.52527354271390436 255 249 249 691.200073 273.024017 3
-0.31209459629322822 0.32357360616767483 0.55302747444327593 201 202 255 165.888016 513.216064 3
-0.32710453647165627 0.13571051494998776 0.47997547457576761 188 255 150 122.688011 397.440033 3
0.66143088419893159 0.65023368283192762 1.1231188514804566 79 97 114 608.256042 509.76004 3
0.44789892355194239 0.60189831811628403 1.2712056346029366 91 113 126 520.128052 466.560059 3
0.54589042172396574 0.58655373250524512 1.5132186909615157 88 105 255 521.856079 433.728027 3
0.099523679957104205 0.20744890135623917 2.2281044888500574 245 249 252 400.896027 323.136017 3
0.02617909795293083 0.71556397620657342 1.2120900413199429 255 18 19 391.910461 518.400085 4
0.46376765803216613 0.07306134165062883 0.56199650520093236 252 255 245 702.9505 340.070435 4
0.43585370801563328 0.061848615592801637 0.52551801428244449 252 255 245 702.9505 331.776062 4
0.43911435217426265 -0.12462595768709794 0.50551341699305663 237 242 255 717.465698 190.771225 4
-0.34834888620494064 0.7733766455093869 1.8531269612058479 149 164 255 313.113647 443.750458 4
0.11569545277856297 0.68623413538340194 1.1933732040097835 11 19 32 420.940857 510.105682 4
0.57154502893649806 0.73140787674722885 1.2491020575183258 255 86 97 559.87207 514.252869 4
0.039834812086907867 0.61344769561474366 1.2407534864041425 120 122 255 393.98407 479.001678 4
0.42553192363644876 -0.19976197464277101 0.48825901014674233 228 235 255 717.465698 130.636826 4
-0.22327666001176594 0.75020178932533166 1.4187847928669939 233 232 255 321.408051 493.516876 4
0.42571264957174937 0.74608109091393116 1.5759720105407862 255 180 182 487.296082 468.633667 4
-0.65427712478272104 0.74397988463438014 2.7799596629954433 184 184 180 292.377655 391.910461 4
-0.27619540017330957 0.84185140897518651 2.5670681230149608 170 255 208 342.144043 414.720062 4
-0.13192030752913197 0.74922735909976979 1.1954005636099092 185 202 255 337.996857 530.841675 4
0.37217917948101298 0.60604116996307345 1.6730839513885813 184 190 198 472.780853 427.161652 4
0.35706316474763145 0.78240896133006388 1.2725586035488092 154 176 255 493.516876 528.768066 4
0.02076426463629133 0.28206558544500926 1.5942930000217679 255 241 241 387.763245 356.659241 4
0.19223641049564888 0.20429774326536954 2.0610993396560628 255 245 249 423.014465 325.555237 4
-0.35417647258546836 0.73072489200676016 1.9469074186465232 186 196 255 313.528351 430.479431 5
-0.26577169699886882 0.7792644841179508 2.2239390294451944 255 220 221 335.923248 420.526154 5
0.46105594913983139 -0.071760835886613861 0.53364737087665137 255 242 244 719.124573 236.390427 5
0.042939250951437247 0.58862954686085944 1.1905062936165196 255 124 126 395.642944 475.269196 5
0.1877104804189047 0.26087519930348413 1.4267933610960766 244 246 250 432.967743 353.341492 5
0.35575898146648077 0.67435897429500158 1.5508785628200723 255 200 202 475.269196 455.36261 5
-0.2587374397665414 0.76946162918996874 2.3370917776679452 255 173 174 343.388214 413.061188 5
0.46735980182153658 -0.266921401601247 0.56759325442855602 205 226 255 701.70636 106.997772 5
0.43323245643471853 0.17328817265147123 0.52572413004070384 211 210 255 701.70636 413.061188 5
-0.22367112135990741 0.73277879578203331 1.2003483309767757 225 222 255 313.528351 520.05896 5
-0.18889552846938118 0.72923541964853533 2.8088497754008745 72 255 66 358.318115 388.177979 5
-0.4994160789329416 0.74438299027074351 2.8591193847106577 154 153 255 313.528351 385.689667 5
-0.58207743914411969 0.66000330033605326 2.4094755341534473 194 190 255 293.621796 390.66629 5
0.50000963085650607 -0.11563251841606925 0.60356918250448199 235 239 244 704.194641 213.995544 5
0.42413128515129062 -0.12002628573733676 0.48565064410073422 255 233 236 719.124573 191.600662 5
0.44731799467544486 0.30871575219245906 0.53946077103125045 100 108 126 704.194641 507.61734 5
0.42092830072902143 0.10406940792082731 0.50533001325760996 240 240 245 704.194641 365.783081 5
0.01504418164296295 0.26231179645162817 1.4815851778330682 241 241 246 388.177979 355.829803 5
19.825762213593297 -30.879062079898585 58.008265624400025 200 223 255 517.570618 82.1145706 5
-0.2214364969484599 0.73803709921536953 1.3884285120597788 255 229 229 319.500336 495.673431 6
0.033535703236792669 0.52966815542214385 1.0767482711341954 123 255 117 394.149963 477.757538 6
-0.18201483135690966 0.72471599231713224 2.778507209921889 72 255 66 358.318146 388.177979 6
0.069736274789099939 0.5113389617535643 1.7056422828131934 141 255 126 406.093903 400.121918 6
0.48178323883592666 -0.005240848437463419 0.5855265985282232 249 250 255 701.70636 283.668549 6
0.49493419540742201 -0.0010982805258057393 0.63204760195837117 249 251 255 689.762451 283.668549 6
0.51616711341018284 0.60132132558376239 1.9706677089482492 162 255 125 486.715485 403.10791 6
0.22305612432257771 0.72434364659463379 1.2731146041078114 255 130 141 447.897675 507.617371 6
0.49627353711188937 0.62476195905939824 1.387294355765178 123 145 158 516.575317 462.827606 6
-0.36029703650843947 0.73418451757519043 1.9601547668092731 197 204 255 313.528381 429.981781 6
-0.28447765967597016 0.75377852836210923 2.2071509722103313 224 255 219 334.430267 421.023834 6
-0.49367518746932593 0.91273520408497677 2.6708881933354505 195 255 162 310.542389 421.023834 6
-0.45648885015473173 0.48963281034240502 1.7106208274770669 255 186 199 283.668549 397.135956 6
-0.47820241827563814 0.41028611899064316 1.4650573666119255 255 216 215 259.78067 391.163971 6
-0.35919576956513311 -0.14545565935078364 0.4720539098452301 24 42 255 89.5795364 170.201126 6
0.50810558551992968 -0.082541468431522103 0.62056621787545563 245 248 255 701.70636 235.892776 6
0.97791971399572097 0.68542468703646953 1.854794456500521 151 255 112 582.266968 429.981781 6
0.38906933899972618 0.56111167929587324 1.4539585484397328 193 255 156 486.715485 432.967773 6
0.46470900135201498 0.065029940064329939 0.56982186902805143 249 252 255 701.70636 334.430267 6
0.40891332984032358 0.033919181739383242 0.48420767629244565 248 251 255 701.70636 313.528381 6
0.19808202656446161 0.26362145377866142 1.5236935400202469 241 247 255 429.981781 355.332153 6
0.87997658669751933 0.75056102680643422 2.6348368347392626 161 175 255 513.589355 397.135956 6
1.7991238146252717 1.0427161168970396 4.6174468407796301 169 185 200 528.519287 376.23407 6
28.065563288510464 -27.908338806922025 70.6398083432953 232 255 210 534.491211 134.369308 6
0.44384887781077653 -0.25099123849573024 0.52806150177048305 204 225 255 701.70636 104.50946 6
-0.33838083297762367 -0.10953625536712064 0.49380286964156017 169 188 255 121.828178 204.241348 7
-0.23380955220395805 0.76930550789928231 1.4584207778851077 228 255 231 318.903168 494.479065 7
0.10183549566716854 0.21511827606233902 2.1699221709160517 249 252 255 401.316345 322.486359 7
-0.33116947785452355 0.74002938648530714 1.620501698221311 172 175 178 304.570435 465.813599 7
-0.33479908914456713 -0.16414702136250203 0.49256515942146439 163 183 255 121.828178 161.243179 7
0.30184523907217731 0.36403932242260528 1.2940990560770729 157 134 138 472.97998 397.733154 7
0.06695475929098027 0.5441142395137023 1.8813814024331332 133 133 137 404.899536 401.316345 7
-0.53865675117567013 0.69132064566745144 2.5729681469960806 154 157 163 304.570435 390.566803 7
-0.39953452275311285 0.59999556802244336 2.2020385841206593 255 168 172 315.319977 386.983612 7
-0.36777497214822397 0.73264732408123789 1.9649794547437898 255 196 198 315.319977 429.981781 7
0.47452625142624427 -0.0071635814374259033 0.60344305234249784 255 248 249 687.970886 283.07135 7
0.34975443271679407 0.66552148865207106 1.5314511554655503 203 205 208 472.97998 455.064056 7
0.36469479498646873 0.67278328428944612 1.3366241307076914 255 141 155 487.312714 483.729523 7
0.2248057205634808 0.27785109152977772 1.7055102972739578 244 249 255 429.981781 354.734985 7
-0.3665977150446551 0.77527182368214898 1.9107640184036052 133 131 152 308.153625 444.314514 7
-0.44389937426879333 0.90875856269079391 1.7111587641240051 255 230 229 283.07135 494.479065 7
