ply
format ascii 1.0
comment Written with hapPLY (https://github.com/nmwsharp/happly)
element vertex 164
property double x
property double y
property double z
property uchar red
property uchar green
property uchar blue
property float ix
property float iy
property uchar octave
end_header
-1.2763874720319435 -0.81987750460541231 2.3797220412168612 229 255 208 178 154 0
-0.68548924564293268 -1.0254955352190585 4.7984897118828043 255 232 236 327.600006 205.200012 1
1.4982744374862829 -0.72008156859860684 1.690991893703329 177 200 222 724.800049 124.800003 1
-0.9376801883434922 0.27961822489650923 1.5085452651810596 255 221 220 147.600006 357.600006 1
-0.72999255673386365 -0.88558457857876849 2.9807068965192238 226 235 255 289.200012 171.600006 1
-0.51731431499803993 -0.35075746295001409 2.2673185396978739 255 228 236 295.200012 229.200012 1
-1.1766300264511744 -0.54461873224589419 2.1729005887807125 234 239 255 177.600006 193.200012 1
-1.4162657703120427 -0.56616152216159121 2.2753371770696162 235 237 240 144 193.200012 1
-1.2438644731201074 -0.27090251734990889 2.266375772162093 255 241 243 175.200012 243.600006 1
-1.4615123826442349 -0.8957498177779093 2.3327586574488133 218 229 255 141.600006 139.200012 1
-1.5699226025238149 -1.1232713595257153 2.5161260419040881 212 218 228 144 115.200005 1
-1.1518186246938664 0.33839622076939896 1.8571858619161166 227 255 227 146.880005 358.560028 2
-1.2208027491530702 -0.79131862536019715 2.2519230889654787 219 231 255 177.12001 154.080002 2
-1.2193206630662643 -0.95675215831188165 2.2325439171946972 255 210 217 171.360001 123.840004 2
-1.3120424303213931 -0.13772036733075665 3.1228172006203012 99 124 255 221.76001 270.720001 2
-0.79304552924515725 -1.4792887745546146 4.766806442173948 255 204 219 319.680023 169.920013 2
15.066751553861188 1.2847325182601761 20.082855171509397 118 113 133 672.480042 309.600006 2
0.77484604490775288 -0.41674611520046456 3.9129302662388525 247 255 243 462.240021 249.12001 2
-0.088395643205774865 0.42501431673504458 1.7775609424352568 236 255 235 362.880005 380.160004 2
-0.72401393531007452 -0.51178766479650406 2.3416668248298862 230 231 231 264.960022 207.360016 2
-0.71347348438201408 -0.86069533241910801 2.8846663430340316 222 228 236 288 171.360001 2
-0.57300846592937704 -0.27650785914590242 2.4201065236611878 255 224 227 295.200012 244.800003 2
-1.1914937335198936 -0.53980377311720074 1.8904250086216567 236 237 240 144 180 2
-1.4476150465077033 -0.22978614661089475 2.3372306787061388 243 245 255 145.440002 250.560013 2
-1.3858553038261388 -1.3662544000496091 2.2137199534164811 169 205 255 145.440002 51.840004 2
-1.4294500074528655 -0.97082617526708659 2.2926125039004557 231 255 218 146.880005 123.840004 2
0.30350355254773431 -0.69137311759168796 4.6962165579082251 162 174 172 408.960022 228.960007 2
0.15522584575087262 0.39237941267529175 0.73373859314826673 144 167 255 465.120026 493.920013 2
0.10725604921603304 0.28595782549206983 6.0698384429974146 134 162 255 393.120026 306.720001 2
1.0327594019186375 0.22131656649228709 2.7483463902915819 123 138 154 528.768066 317.952026 3
-0.91032075231468124 -0.12628030749578478 2.7250904464425361 173 177 255 257.472015 271.296021 3
-0.94331643940360932 0.33671383147756151 1.9762363106389045 13 255 22 202.176025 350.784027 3
-1.3212886914851421 0.31093629476499485 2.0472273100851037 204 255 222 134.784012 343.87204 3
-0.48511192963013139 0.33017671457931902 2.3598801058944621 228 230 231 304.128021 342.144043 3
-1.2226033339936224 0.17454493854287917 3.1291738747730893 255 49 66 231.552017 309.312042 3
-0.54437657199330047 -0.36189992171502627 2.3493646491658833 236 242 255 293.76004 228.096024 3
-1.2393162680016041 -0.40203814584312236 2.8157413656876669 136 255 92 214.272018 231.552017 3
-1.4162657703120427 -0.56616152216159121 2.2753371770696162 236 240 255 141.696014 191.808014 3
-1.1845505284676174 -0.623071175626558 2.1807357657426589 225 230 236 176.256012 179.712021 3
-1.2459586260654127 -0.15886245782284336 2.2809298890676954 246 255 244 174.528015 259.200012 3
-1.2438644731201074 -0.27090251734990889 2.266375772162093 241 243 245 172.800018 243.648026 3
-1.2575092607912555 -1.4736548409620061 2.3022155782467166 127 163 202 176.256012 43.2000046 3
-1.4388736679190899 -0.88543041628949171 2.3036021565334219 218 229 255 141.696014 139.968018 3
-1.3951768985977169 -1.0105984360882143 2.2474279330698672 228 255 213 146.88002 115.776009 3
1.6008201382804208 -0.81950634272144163 1.8477397540791993 197 221 255 717.120056 117.504013 3
1.5398342749534835 -0.8533930887365262 1.9745304495712031 209 217 228 684.288086 120.960014 3
-0.9689771533068825 0.28705319700880622 1.5628239347743014 216 255 221 146.88002 357.696045 3
0.86163661784245593 0.49877361902994771 1.1459690703866978 255 215 216 675.648071 456.192047 3
0.74613755346145438 0.53115711024021817 0.91095163190380823 255 39 71 699.840088 511.488037 3
0.15805163035636771 0.46966409654420799 0.72272805841635579 77 85 102 464.832031 535.680054 3
1.2905885077977541 0.48928901647334794 1.8655716014123076 133 128 255 649.728088 388.800049 3
0.21792614502333518 0.81161001963317925 16.76301662129239 110 130 156 392.256042 305.856018 3
-1.312953258883673 0.29905008532274285 2.9895938268047573 255 98 116 215.654434 325.555237 4
0.49594016694185084 -0.60609143760891127 3.8421389759234472 121 150 255 433.382446 228.096039 4
-0.61034210655290533 -0.16110475008688252 2.3150528969301365 206 255 218 282.009644 261.273651 4
-0.75080061724435376 -0.10709737190638174 2.2996740085101934 173 177 255 257.126434 271.641632 4
-1.2970168681411391 0.29270146377969802 2.5142222797279947 140 255 113 186.624023 331.776062 4
-0.29876119944732205 0.45179313982155017 1.9830070436124814 236 236 255 321.408051 375.321655 4
-1.0557120488825178 0.36792871411149058 1.9549188188804685 226 255 229 178.32962 360.806458 4
-1.3103005230200675 0.31055693957113445 2.0223306257605711 196 255 235 134.784012 350.438446 4
-1.2226033339936224 0.17454493854287917 3.1291738747730893 49 65 92 232.243225 311.040039 4
0.13419254475783826 0.38368717762506893 1.7892555203411211 216 255 207 410.572845 369.100861 4
-1.4455832219234543 -0.42388850045931759 2.3212765256069012 239 242 255 145.152023 219.801636 4
-1.4444188042587243 -0.65875014661056164 2.3308776228273356 236 240 255 145.152023 180.403229 4
-1.2489409404525995 -0.27122868350822887 2.2707457669628255 245 255 241 174.182419 242.611237 4
-1.4036365010707343 -0.27272630264833203 2.2609908504567913 255 240 242 147.225616 242.611237 4
-0.79014603358782631 -2.0150503446201076 5.1998508199185203 204 225 255 325.555237 136.85762 4
-1.2575092607912555 -1.4736548409620061 2.3022155782467166 127 162 202 176.256027 41.4720078 4
-1.4332932801496359 -1.4108104691540688 2.3036678779803754 169 205 255 145.152023 51.8400078 4
-1.2276691742947516 -1.0128073442538601 2.2594192593377977 224 255 202 174.182419 116.121613 4
-1.3951768985977169 -1.0105984360882143 2.2474279330698672 255 214 219 147.225616 116.121613 4
1.6449298799558503 -0.19749168951043805 1.8667041040437025 245 247 255 721.612915 248.832031 4
0.30170137460317159 -0.69319685273635623 4.6480821367397525 162 174 172 408.499268 230.169632 4
1.5667314313098872 -0.80833075969429635 1.8040798508854956 198 221 255 717.465698 118.195213 4
-0.471519925770159 0.55532964323241862 1.8822031266397543 81 255 47 290.304047 404.352051 4
-0.46824627161460519 0.37046004326142329 1.8846175221717671 184 255 164 290.304047 360.806458 4
-1.1750232211806484 0.34196578320142168 1.8861646191385755 255 227 228 147.225616 358.732849 4
0.2262984131719612 0.5111337395523855 0.7988123091543633 255 220 220 495.590485 534.988892 4
1.2849197460827018 0.4874262668370351 1.8580617049306598 255 135 135 651.110474 389.836853 4
-1.1149059428848216 -1.9581138222429466 4.8831473669852503 224 255 179 294.451233 134.784012 4
-0.99758920069114154 0.41679471062996304 2.0357871644324876 215 255 225 194.088989 360.806458 5
-1.4499872245671215 0.23160377863346537 2.2194266916441734 107 255 202 134.369293 325.969971 5
-1.1788453310171354 0.17310203621544262 2.9960923302891063 61 79 104 228.925476 311.040039 5
-1.2078867923709802 0.13074144548318462 3.5360285010233028 134 146 255 253.80867 303.575073 5
-0.99018093431585452 -1.7422254804284036 4.2882869570972488 179 202 224 296.110107 134.369293 5
-1.4225817408573427 -1.4096314947231674 2.2881034678134022 205 255 139 146.810898 52.2547264 5
16.089697243873296 -18.948673400085831 33.146299986552449 255 141 175 567.337036 72.161293 5
17.287689325903628 -18.369617840580378 31.717003245637713 131 168 208 592.220215 62.2080078 5
-0.14286648857756035 -0.01840582773644045 6.3712400820427044 255 99 120 375.736359 283.668518 5
1.3173973899498943 -0.67195201074810118 1.9751949791874508 218 232 255 637.01001 161.740829 5
-0.78359768486132042 -0.94276275345139959 3.1331014750537713 235 255 224 286.15683 169.20578 5
-1.1361194303603006 -0.16533632888914107 2.065532960306887 247 255 245 174.182419 261.273651 5
-1.3362995262413082 -0.21824857116531748 2.1673314377444375 245 255 240 146.810898 243.855392 5
-0.76419304651306641 -1.0517599865680847 4.9234570455708839 236 241 255 325.969971 204.042267 5
-0.76470964803329666 -1.4276433300437885 4.5103339151454866 202 217 232 316.016693 166.717468 5
-0.36278146978919956 0.35515298982832694 0.61075545198632764 7 255 37 154.275864 507.61734 5
1.3632319027007669 -0.65149579935383728 1.8955024708340513 230 255 203 654.428223 156.764175 5
-0.78253095982747212 0.49376519027006394 0.92151006505281208 50 56 73 52.2547264 492.687439 5
0.8735786075327675 0.49572290448819278 1.1128350386083508 218 218 255 689.264709 460.339264 5
-1.3656641154195603 -0.76846484735289411 2.1908973754122778 212 221 231 144.322586 154.275864 5
-0.79450324245829229 -0.11609218075511674 2.3998021386098451 210 211 212 256.296997 268.738586 5
-0.54441783090048945 -0.35634551464901015 2.344105459168877 236 242 255 293.621796 228.925476 5
-1.4280666312851467 -0.4316927113451402 3.2464095443935479 111 137 255 213.995544 231.413788 5
-0.75600668994897235 0.3846608599775001 2.0895681398693435 159 167 163 248.832031 360.806458 5
-1.1898695833186723 0.36440420872183066 1.9472366568784367 230 255 229 154.275864 360.806458 5
1.2583483249717111 0.49890185183606311 1.5803049497825437 33 255 13 694.241394 410.572845 5
-1.5054288310800139 -0.52521410157558446 2.4451807699484682 241 255 235 146.810898 204.042267 5
-1.2265119044643114 -0.50831065246614837 1.9720994006941623 240 255 234 146.810898 191.600662 5
-0.48973822414654 0.33619681585725802 2.4435457727381529 236 255 237 306.063416 340.899902 5
-1.3578076553930951 0.19506687535751405 2.7699413116565301 255 98 111 199.065628 316.016693 5
1.028327485454984 0.20982449963840108 2.7702616654185475 255 114 130 527.523926 318.505005 5
-0.55577286809707704 0.18470372607820024 2.458310482044388 196 255 152 298.59845 320.993317 5
-0.264988476505716 0.34151414200820024 1.6244550727922578 215 220 224 316.514374 364.290131 6
-0.49509242125541242 0.39194751343760881 2.2068408403744035 175 192 255 301.584442 355.332153 6
-0.78484141519360895 -0.11764298983089927 2.3556606914235911 210 211 212 256.794678 268.738617 6
-1.4440016369984559 -0.21279964389638184 3.485745451653802 83 105 130 220.96286 268.738617 6
-0.86802094167987631 -2.0283559560526747 5.4169230884573993 183 206 225 316.514374 140.341278 6
-1.4123786250908497 -1.0284884852439882 2.2911973895833171 228 255 213 146.313248 116.4534 6
0.91996160580403408 -0.60016382240067978 3.1689672402745463 232 236 242 492.687439 214.990891 6
0.72839097913782691 0.52274347462392168 0.8786704539259107 38 38 255 701.70636 516.575317 6
-0.52378374275141493 -0.48431949980284794 2.2271652117624785 223 232 240 292.626495 206.032928 6
-0.96594187712841739 -1.1057293141860598 3.7924642184434436 255 225 228 283.668549 170.201126 6
27.560471836875159 -28.823906093402137 73.036906538167329 199 212 227 528.519287 137.355286 6
0.20909519774728036 -0.53633141012617469 4.6535389916207688 130 138 148 400.121918 244.850739 6
1.1555929248572971 0.44903800152283274 1.4239450623438445 13 22 28 692.748413 409.079895 6
1.4903976152637446 -0.79354675157342347 1.9339161414398292 235 255 227 674.83252 134.369308 6
-1.1529741937289604 -0.1407382378405091 2.2682422461310638 122 137 153 188.117035 262.766632 6
-1.3805908796952688 -0.26263078608963025 2.2590433479662688 242 245 255 149.299225 244.850739 6
1.7384448088822029 -0.64437347820869395 4.8094682910716369 241 245 255 525.533264 232.906799 6
0.7901639206197042 -0.52488434474021917 3.5257061897011184 243 244 246 468.799591 229.920807 6
0.11464091304751323 0.17884289146064206 4.9279036069123263 255 106 126 391.163971 304.570435 6
1.2378941470546849 0.46390936679154748 1.7647986111248861 130 255 132 650.944641 388.177979 6
0.78670619110184237 0.70791254103489976 2.4700141944432721 176 255 151 510.603363 397.135956 6
0.37710786760654891 0.50218774444731884 1.6970345285208723 220 255 226 474.771545 406.093903 6
-0.54201456241438173 -0.34381471617437903 2.3073752586714362 228 235 242 292.626495 229.920807 6
-1.5964064568790177 0.3711199195802849 2.5417246380783558 255 229 213 143.327255 346.374207 6
0.90011331677204165 0.36833824588588499 2.3401406496107642 86 102 255 525.533264 346.374207 6
0.68558604165767223 0.37989399078545483 2.6894443125726335 149 163 255 477.757538 340.402252 6
-0.51708405049906991 0.19156628922954128 2.2319328239046752 255 166 176 295.612457 322.486328 6
-1.2181551005675502 0.17068401843976 3.063784158262834 61 90 255 229.920807 313.528381 6
-0.49311309306897755 0.31989387621881143 2.3908975325009716 235 236 236 304.570435 340.402252 6
-1.1364137561256813 0.37724432620232295 2.1005846231469572 238 238 255 173.187103 361.304138 6
-1.100050754563529 -1.9183933740562891 4.8305506848322137 255 179 202 295.612457 134.369308 6
-1.0975568925300117 -0.13596006739955435 2.1846072173301385 130 147 255 189.90863 261.572266 7
-1.4637986231984788 -0.46844240459603415 3.3268703142593203 255 86 107 211.407715 236.48999 7
-0.79859830393739584 -0.64772964601182592 3.1539015264780206 240 255 223 290.237701 207.824539 7
-0.70336402637275075 -0.6612557932765375 2.3054119768264938 218 219 255 265.155426 175.575897 7
0.20909519774728036 -0.53633141012617469 4.6535389916207688 69 75 255 397.733154 243.656357 7
-1.2621195523317188 0.39467774025081331 2.3314346016776129 255 232 232 175.575897 358.318176 7
-1.444755301253942 0.15463350839920198 2.2006876557127892 237 240 245 132.577713 308.153625 7
-0.86559847119671618 0.46272316365371413 1.0824635101624591 255 189 187 75.2468109 451.480896 7
1.0419303294784574 0.20763613828383493 2.861874241929403 162 255 122 526.727722 315.319977 7
0.79314529480781415 -0.52532560784540494 3.5145264588343341 244 246 255 469.39679 232.906799 7
-0.40421991801673274 0.48962968278686964 1.6652643824016833 127 255 77 290.237701 401.316345 7
-1.0167044228125359 0.25169895885396565 2.2892000245038662 255 103 119 207.824539 329.65271 7
-0.93872361158719508 0.36616519949074966 3.9056497567977164 176 197 255 293.820892 322.486359 7
-1.0925838059379331 0.17691153841702756 2.7559024901904694 66 94 255 229.323624 311.736786 7
-0.7107782281755286 -0.11790675000810436 2.1432090737378737 211 255 209 254.405899 268.738617 7
-0.14407403155219622 0.4553354868086551 1.8449469218694161 237 255 236 354.734985 379.817261 7
-0.37335559189813305 0.47850163983364075 2.3750048434632687 236 255 236 322.486359 372.650879 7
0.25117459110642804 0.41335282270833473 1.5372218274255172 255 220 220 447.897705 394.149963 7
14.208355050640854 -21.79830833659766 38.641024789931038 255 149 179 523.144531 75.2468109 7
0.49789744881042619 -0.71592555526026314 4.5435365653010225 179 255 136 422.81543 225.740448 7
-0.82858561852127721 -1.4903763063946938 4.6958059917268997 232 255 201 318.903168 164.826355 7
