ply
format ascii 1.0
comment Written with hapPLY (https://github.com/nmwsharp/happly)
element vertex 163
property double x
property double y
property double z
property uchar red
property uchar green
property uchar blue
property float ix
property float iy
property uchar octave
end_header
-2.1957178552367038 -0.094973469450964854 3.7604482851561292 241 242 244 160 277 0
0.30888324252819865 -0.46868950130738052 0.96506105948256993 169 186 210 508 103 0
-0.31770029323850002 0.40417631897191236 0.72987112216546612 168 255 149 218 502 0
-1.8472067671727586 -0.63784617928191012 3.4181202412605991 236 255 225 178 217 0
-1.8033447144678405 -0.87129757662779683 3.3689354424163489 234 255 224 178 190 0
-2.1153573393802589 -0.90101259958989754 3.5609576409622083 230 235 255 157 190 0
-1.7854456599323218 -1.1591312839943331 3.328096493731636 223 255 197 178 154 0
-1.9233587688566862 -2.3612238349521104 3.4660463519077722 107 140 184 172 28 0
-0.34481640685694392 0.43417780577167198 1.1774598372054723 255 206 207 271 430 0
-1.1347486530513047 0.26771405738238213 3.660171795756745 151 156 255 265 316 0
0.38819145422480472 -0.1947749769807175 0.91632869771146974 255 213 223 547 205 0
-1.409691953026166 -1.5631869803640641 5.9036694949464534 227 234 255 293 187 0
-1.4179872211956468 -2.1809629066561738 6.4804440803408774 203 222 255 301 157 0
-1.8319385141107065 -0.34350060958223683 3.3911279643012335 255 237 239 175 250 0
-1.8341490709131363 -1.5366270273128462 3.3975666282941717 212 255 173 178 115 0
0.46707483709579711 -0.55042522038951269 0.96953637875370657 119 155 197 568 70 0
-1.9410419263929084 -1.7557697066175575 3.3653376276449785 203 255 148 162 87.6000061 1
-0.29021060141752053 0.3674728319462649 0.72489908396498848 106 135 255 229.200012 481.200012 1
-1.7644654394472039 -0.92562580580929021 3.3014194091761393 224 232 255 177.600006 181.200012 1
-1.8579119784400189 -1.0442316559291331 3.4197692732402873 255 209 217 175.200012 169.200012 1
-1.8638025523705459 -0.2558096557394739 3.3856838774513616 255 240 241 171.600006 259.200012 1
0.39452646179309425 -0.26647885611930311 0.90825712530840197 229 255 209 550.800049 172.800003 1
-1.7941715871140054 -1.3060794082465099 3.4588709675455092 219 255 187 186 142.800003 1
-1.8017701684503149 -1.229124678938035 3.3452417659701763 255 196 207 175.200012 147.600006 1
-0.32875635858515473 0.43056674897849168 0.9962517444526704 255 200 201 255.600006 453.600006 1
-0.34692151437827135 0.43572377740438673 1.1833757692661897 255 206 207 271.200012 430.800018 1
0.39247124657264165 0.4327597534146761 0.63638901258878988 88 114 255 621.600037 549.600037 1
-4.1956741660873877 0.33638130119481757 5.0709095948106286 183 102 104 68.4000015 313.200012 1
-1.9723128418516764 -2.247513698325045 3.4193983926395659 255 106 141 163.200012 33.6000023 1
-1.0658694451634427 0.35328959415123112 1.4508003259718982 255 158 175 99.6000061 381.600006 1
0.1384117695321202 0.4562317336398044 0.70239964668381227 255 115 130 459.600006 536.400024 1
-1.2731205259827147 -0.72109968657765589 3.3821399086558266 90 114 255 237.600006 205.200012 1
-1.4179872211956468 -2.1809629066561738 6.4804440803408774 203 222 255 301.200012 157.200012 1
-1.9810271958238768 -0.34373257628729142 3.3695821843019873 239 242 255 157.200012 249.600006 1
1.3713322091122753 -0.78496957910937359 3.2050551060950747 218 231 255 549.600037 192 1
-0.3407505813961289 0.37855242798487987 0.87048039350705264 255 201 202 235.200012 453.600006 1
-0.28303422677708023 0.41071922170909803 1.3186884360298772 255 188 191 299.52002 408.960022 2
-0.60573071381835897 0.30468295593819705 1.1391230882422279 157 171 164 180 391.680023 2
1.198418667600587 0.072197550033847063 2.3435635963668289 134 160 255 577.440002 300.960022 2
-1.7582798027289632 -1.8540528716770255 3.3743848944859494 197 255 127 182.880005 76.3199997 2
-1.8625018091917735 -1.8968883028294166 3.2434540160386685 195 255 130 162.720001 63.3600006 2
-1.7947165813781321 0.40685947614315315 2.0926394043657353 101 255 73 54.7200012 365.76001 2
-0.15296504648612741 0.45045451300883727 1.1916295989185812 80 255 59 334.080017 433.440002 2
-2.4417451248959567 -0.29510945550094991 5.4862254615256889 108 129 255 213.12001 267.839996 2
-1.9269035581413139 -2.0579743207813088 3.333397282609007 190 255 113 162.720001 51.840004 2
-1.8256604022611929 0.10256338485132999 4.2808196534115455 130 255 90 218.880005 298.080017 2
-1.2934933162915949 -0.73367352344275893 3.4378019045446373 90 114 255 237.600006 205.920013 2
-1.6518123612721123 -1.9905026280674001 5.8539668603953725 255 189 205 275.040009 158.400009 2
-0.073272729304907802 -0.66490753790571921 4.8484429519336532 148 172 255 377.280029 234.720016 2
-2.0165733064029201 -0.85979821375595511 3.3956734059836298 227 230 235 156.960007 190.080002 2
-1.8796737050545618 -1.0584830231410844 3.4464205911147601 227 255 208 174.240005 168.480011 2
-2.0406188252591173 -1.1029170273471274 3.4434288061170579 225 255 204 158.400009 162.720001 2
-1.8884124284738784 -1.5692113371827126 3.4621816398752392 190 212 255 177.12001 113.760002 2
-2.0909823951356548 -1.5220737181561388 3.5230972773634988 207 212 222 156.960007 120.960007 2
-0.5554771992936649 0.31097430994486447 0.73526749503266586 255 19 32 95.0400009 450.720032 2
0.20925476238750829 0.45136203316334345 0.67635090796605257 0 0 255 501.120026 544.320007 2
-1.3637625700586522 -0.18230884562260161 3.4786659004548217 93 113 255 229.82402 266.11203 3
0.28385496184147896 0.37950430241400096 0.65102405437496746 255 0 0 551.232056 511.488037 3
-0.20340796895745616 0.42523142111561196 2.7801116176429557 255 222 222 355.968048 349.05603 3
-1.5419032174024503 0.091398622406347996 3.6228334901095529 255 87 103 219.456024 300.672028 3
0.90481445019230611 -0.54271146716578034 3.1014147120748023 255 229 233 499.392059 219.456024 3
0.11660398338416578 0.44603528150628352 1.1392144729366478 222 220 255 421.63205 438.912048 3
0.31685946900634887 -0.67465064041433565 4.287251310006706 208 227 231 412.992035 228.096024 3
0.24925403957360037 -0.63148050785865517 4.3078439067352372 167 255 122 402.624023 231.552017 3
-0.15284516743618948 0.45232237843283518 0.76208196739064338 32 39 255 305.856018 516.672058 3
-2.0070433502787539 0.45322111357163253 4.7474287077729462 44 255 40 222.912018 326.592041 3
-2.1500467049427412 0.36966539996305053 3.6764477292834918 176 255 212 162.432022 326.592041 3
-1.2699918366950023 -0.56254044750918719 3.3817353839656143 123 255 82 238.46402 222.912018 3
-1.6518123612721123 -1.9905026280674001 5.8539668603953725 222 255 192 274.752014 158.976013 3
-1.1933503857988166 -0.44673479578991993 3.6166133490594099 220 220 255 257.472015 240.192017 3
-0.059319375386096107 -0.65107045205798475 4.7847269593438639 124 141 163 376.704041 235.008026 3
-1.762508403934218 -0.21920188989039918 3.425554799818082 244 255 241 186.624023 264.384033 3
-1.9810271958238768 -0.34373257628729142 3.3695821843019873 238 241 255 157.248016 248.832031 3
-1.9556714242506748 -2.0968650648897773 3.3921991027373704 189 255 113 162.432022 50.1120033 3
0.39076820935398016 -0.23020237841536845 0.91199358379179296 218 231 255 549.504028 191.808014 3
0.38494282313833028 -0.018188526206749711 0.87626996694229264 130 125 147 552.960083 281.664032 3
-0.2944254589558728 0.38137500156895587 1.0239298640708834 255 206 207 271.296021 430.272034 3
-0.15504356997052327 0.45657158532069436 1.2364222099527886 255 57 64 335.232025 433.728027 3
-0.30846352691735768 0.43035069451124347 0.80842724858641901 181 255 179 238.46402 489.024048 3
-0.50726513359428682 0.28009550100675379 0.70234850071043908 55 84 82 108.864014 444.096039 3
-0.37798448476198265 0.32127249892366472 0.56370484548252087 120 133 255 129.600006 508.032043 3
-0.57586035510821065 0.29384457088631771 1.0848204042631773 255 141 157 179.712021 390.528046 3
-2.0188360124382987 -1.4858833183020859 3.4137249431564403 212 222 255 157.248016 120.960014 3
-1.4087987958409789 -2.1324383798972693 6.4192378627287114 185 203 222 300.672028 157.248016 3
-0.15504356997052327 0.45657158532069436 1.2364222099527886 255 57 64 335.923248 433.382446 4
0.26570200215566164 -0.59998732450957792 4.1292182622508244 181 255 67 406.425659 228.096039 4
-0.21441342418768294 0.44492086694479271 2.7924204032430682 218 218 216 356.659241 350.438446 4
-1.3494279207009945 -0.18242603168645236 3.4325081694386896 106 255 71 230.169632 267.494446 4
0.34376399947011094 0.34614688000036148 0.90975332651785279 10 12 24 524.62085 435.456055 4
-1.481131114884743 0.27248074921058651 2.8098412904117573 172 255 139 178.32962 325.555237 4
0.11088905029947249 0.50933766469827546 1.305203103242071 221 222 220 420.940857 439.603271 4
-1.5937101297620613 -1.7348471491165538 6.4410455629895038 220 225 233 292.377655 184.55043 4
-1.2443229328419347 -1.8796597120483578 5.7219942817014786 224 255 188 298.59845 165.888031 4
-1.9002719176473755 -1.0895028854314357 3.4560620345060142 227 255 207 174.182419 167.961624 4
-2.0140487919165651 -1.1057497948080819 3.4282811478760853 214 226 255 157.593628 163.814423 4
-1.6165605225520743 -0.19631481460909384 3.2107637195382304 243 255 240 186.624023 263.347229 4
-1.7077835197637321 -1.8037198648657971 3.3080486650756731 128 160 197 184.55043 78.796814 4
-1.7819349358810315 -1.2872275842736252 3.4491099220881267 221 255 192 186.624023 145.152023 4
0.39422741103296399 -0.2315049016215121 0.91319987367864597 255 205 218 551.577698 190.771225 4
-0.29386559666673273 0.42388780048454106 0.68217582085281236 113 125 255 217.728027 526.694458 4
-0.44225174440196136 0.30449865856849712 0.57835713204346761 255 194 196 91.2384109 491.443268 4
-0.35814488911063158 0.33272570175300065 0.54280253834978165 118 255 80 130.636826 524.62085 4
0.11858114681605592 0.44841939922842866 1.6597813792398557 215 216 215 412.646454 391.910461 4
-0.15858031019912433 0.45538770328416639 1.245939092258963 255 71 75 335.923248 430.479431 5
0.21330184034608757 -0.59305161672107609 4.7600325370025205 171 255 145 398.131256 243.855392 5
-0.21040996388487754 0.40585173939085017 2.7340260844587561 255 222 222 355.829803 348.364838 5
-0.31881760677335191 0.30313470344292159 3.1864177590109493 151 168 255 345.876526 325.969971 5
-1.0903073324276642 -0.41717781553283872 3.3546863642205804 220 255 218 258.785309 241.367081 5
-1.8915754518565402 -1.0871233620115024 3.4356117948912925 227 255 206 174.182419 166.717468 5
-1.9637927575787573 -0.33485319602964636 3.3759226651086851 238 241 255 161.740829 248.832031 5
-1.6145290611985375 -1.9338451912771579 5.7319715906849247 188 205 222 276.203552 159.252502 5
-2.0470519783457415 -1.8582112032034073 3.5163249488349209 169 201 255 161.740829 84.60289 5
0.40383209129882314 -0.27232899688878587 0.92125603612079376 207 217 229 552.407104 174.182419 5
0.39525479999749114 -0.018199096260933717 0.90972630796072385 130 125 147 552.407104 281.180206 5
0.4962996542318559 -0.48195762233445194 0.95180485909543622 128 162 201 584.75531 92.0678558 5
0.51857439207975342 -0.36429155359792603 0.92797132617307732 255 179 197 599.685181 134.369293 5
-0.36300633773166124 0.44144341048511304 1.0470279807957181 201 200 255 253.80867 450.385986 5
-0.42260987621860946 0.38229439040063706 1.0094051367184838 121 255 88 218.972198 430.479431 5
-0.053748185161713646 0.38470308092316341 0.96336193923777236 186 188 191 360.806458 437.944397 5
-0.29525199396096902 0.41305769930851638 0.77151659788991545 168 170 175 236.390427 487.710785 5
-0.36845692056032853 0.31817510502054036 0.5528596824932398 120 134 255 129.392654 507.61734 5
-0.30306461370127025 0.30347275191167156 0.59256817572433707 195 196 255 189.11235 482.734161 5
-0.20365184821921267 0.46730275602593441 2.2037593811758529 131 255 167 350.85318 370.759735 5
-1.224570558587859 0.36391455037730935 1.8324390867450182 166 180 155 124.416016 363.294769 5
-0.32118312720351883 0.3843202943431262 0.82781561103739132 255 203 203 235.892776 462.827606 6
0.41911416690498371 -0.63597716001309301 1.039057828992165 196 255 126 534.491211 56.7337074 6
-2.0113273360172927 -1.814840340638936 3.4762869846064093 167 201 255 161.243164 83.6075668 6
-2.1271492101570906 -2.1485502766865405 3.5811679790304156 192 255 119 158.257187 56.7337074 6
-0.14871713302583234 0.44499153910547035 0.74668127683020113 255 36 45 307.556396 516.575317 6
-0.30597650738512749 0.30536520436912323 0.53644663507209878 108 138 154 164.229156 507.617371 6
-0.29464656835901359 0.29732558584026147 0.57511530686078927 191 191 192 188.117035 483.729492 6
0.39944140119252092 -0.23389156325394134 0.9183216374405625 218 231 255 549.421143 191.103012 6
0.49357410814654146 -0.47583620145537553 0.939855135682925 202 255 128 582.266968 92.5655212 6
0.12081944085480589 0.45252299321619072 1.2367428719203302 217 213 255 421.023834 429.981781 6
0.52128047160150759 0.18250968911159293 1.796166663432448 128 148 255 501.645416 325.472321 6
-1.1582617173081009 -0.16737482157580094 2.9567880657248367 93 114 255 229.920807 265.752625 6
-0.91187181586366695 -0.60740075910648794 3.0991862957136425 209 211 255 265.752625 209.018921 6
-1.1542183188680486 -0.57314378561772827 3.4369436405001204 223 224 224 256.794678 223.948837 6
0.13000392782300396 0.46547105529969779 0.78819183045619545 9 9 255 453.869659 516.575317 6
-1.9128450426038475 -0.33021131787312008 3.3362136966516256 238 239 242 164.229156 250.822708 6
-0.83502899103094297 -0.017333054822197436 6.3325415354793488 255 79 100 331.444275 286.65451 6
-0.31935289638318864 0.48488978708811697 3.2984834859162482 223 222 219 352.346191 346.374207 6
-1.7868155560376167 0.1134516294058816 4.0802856785425172 128 255 96 214.990891 298.59845 6
-0.27288406366438545 0.38963081372096664 0.73635777212969011 181 255 179 238.878769 489.701477 6
-1.7336050373177145 0.28807407747883035 3.1058005518951322 140 150 165 168.409531 326.069519 7
1.370744740545534 -0.86402881957614486 3.1337739607639983 210 219 230 548.226807 175.575897 7
-0.30323494533588713 0.41472063396646219 0.78942752773276714 168 170 175 236.48999 487.312714 7
-0.34604178044790568 0.30746874483245185 0.62141163676453792 200 200 200 168.409531 480.146332 7
-1.1899432613250385 -0.41392736129330765 3.5583081080913344 220 220 255 257.989075 243.656357 7
-0.39800770093223847 0.28418832083386797 0.7055296119570158 98 113 109 164.826355 444.314514 7
-0.44691709985893047 0.37726445912352885 1.034128942101594 120 255 86 218.574081 429.981781 7
-1.7618101398556423 -1.893927401839107 6.97359747382023 220 231 255 293.820892 182.742264 7
-2.0028820434891434 -0.49204882932382232 4.3319091011568931 255 106 119 207.824539 243.656357 7
-0.21069717812031552 -0.43360645755320854 4.0377709102289687 148 171 255 361.901337 240.073166 7
-0.30698654378952006 0.39063750527199348 0.90761596742085016 201 255 202 250.822708 451.480896 7
-0.32876011524305593 0.41518066869073927 1.140553375877932 216 218 217 272.321808 426.398621 7
-0.16601683803556089 0.46581498990974068 1.3103915187528401 73 78 96 336.819061 429.981781 7
0.37960132465186414 0.030883790891595445 0.66360327301544308 130 150 255 605.557678 300.987244 7
1.8354150661408282 0.12626556288885399 3.9648583558513533 82 108 255 569.725891 300.987244 7
-0.25182990672911831 0.35900720387756357 1.4088246915234373 255 156 168 311.736786 383.400421 7
-0.17262720031705792 0.41347737283021779 1.8828254574269199 255 183 190 347.568604 372.650879 7
-0.85024368164053099 -0.018405820237899356 2.0823048932401789 114 255 81 222.157257 290.237701 7
-2.5257259801686538 0.17765718821992765 4.0038460158123792 237 255 231 146.910446 300.987244 7
