ply
format ascii 1.0
comment Written with hapPLY (https://github.com/nmwsharp/happly)
element vertex 161
property double x
property double y
property double z
property uchar red
property uchar green
property uchar blue
property float ix
property float iy
property uchar octave
end_header
1.0368337916755852 0.41042738842214371 2.3789804968233339 156 152 255 553 355 0
-0.010773418345860541 -0.016447491720894797 6.1092099276323992 97 119 139 384 285 0
1.4928896332754622 -0.67109491640629282 1.5745080311377033 174 200 223 748 124 0
-1.1403188552632946 -0.36944018395849854 2.4430263909569883 219 220 255 205.200012 231.600006 1
0.90867904090620366 0.42143516903229522 2.6400128680712616 93 255 74 514.800049 348 1
-1.0657822136240633 0.1887608887181097 2.5893057043362306 186 192 255 225.600006 315.600006 1
-1.1911550657344785 -0.34254327213230851 1.603977538500291 240 241 243 100.800003 205.200012 1
-1.0960392716240626 -1.2255864217554893 1.7962339564194232 63 84 111 148.800003 25.2000008 1
-1.1013330596450768 -0.99662417513712631 1.7899263381785069 53 66 92 148.320007 74.8800049 2
0.96335321954754782 -0.5292855497336757 3.3585350451507905 235 239 244 496.800018 227.520004 2
-0.44786517555214811 -0.35000454139992521 1.9900063449716612 228 235 242 296.640015 217.440002 2
-0.55116673452008413 -0.99439457268078568 4.2641823011074624 255 188 195 335.52002 198.720001 2
-1.0675140539283752 -0.43819605470024436 1.7334516630909973 96 119 255 145.440002 190.080002 2
-0.98928025878276316 0.35218889190038577 1.655566505999766 11 17 11 156.960007 371.52002 2
-0.70765390817436025 -1.4905618171667085 4.3667383279081378 198 215 230 324 156.960007 2
0.51514440411386975 0.52944390962360033 1.0813973362675044 124 139 160 568.800049 476.640015 2
-1.1083021403734419 0.41054902126049153 2.1848648507266546 15 21 6 188.640015 360 2
-1.0970481509244991 0.20168418280853601 2.6385885215840288 175 177 183 224.640015 316.800018 2
-1.2577110228336883 -0.52290513764316049 1.7150042436739037 240 255 237 102.240005 171.360001 2
-0.55564593179608002 -0.79425179617215624 2.2528837436411102 229 255 193 286.559998 151.200012 2
-0.98607933980315554 -1.9660304053853719 4.4111840351554559 255 170 196 299.52002 115.200005 2
-1.2615983662988057 -1.1098208667717266 1.7087926967222344 202 255 136 102.240005 38.8800011 2
-1.2437532553159301 -0.73159916062573072 1.6859286499683961 255 204 214 99.3600006 120.960007 2
1.2635481678503171 -0.099063155384900292 2.3672588818794082 255 99 140 587.52002 273.600006 2
-0.48476022587077061 0.41828660143114738 1.7633006539675677 139 151 255 277.920013 378.720001 2
-0.94229627849462849 0.4031048335943499 1.5177821399854317 11 255 4 146.880005 390.240021 2
1.2918978956025016 -0.10121471096500562 2.4646472976846034 255 99 140 587.520081 273.024017 3
-1.0956730593008288 -0.92585404772849156 1.7418757398468698 79 104 255 141.696014 84.6720047 3
-1.1005604639650848 -0.99306808032501959 1.789422026390866 72 255 34 146.88002 76.0320053 3
-0.24266297411199567 0.50974399137794357 1.1226118789276169 134 155 255 297.216034 463.104034 3
1.2222084806891214 0.088831379935122246 2.240852120596406 107 137 158 592.704041 302.400024 3
1.0788296894475486 0.42773570699088931 2.5141770517332676 147 169 255 549.504028 352.512024 3
-1.0970481509244991 0.20168418280853601 2.6385885215840288 175 177 183 224.640015 316.22403 3
-0.26418969806148196 -0.021355879363073316 3.3556236114390483 255 99 120 355.968048 286.848022 3
-1.1287996603625148 -0.12937132042992289 1.800680963741645 106 126 255 141.696014 257.472015 3
-1.2449496853012927 -0.26876587270636942 2.0045739957360453 84 109 255 141.696014 236.736023 3
-0.64938460719140689 -1.9775788748237728 4.6437468712322598 223 255 175 330.048035 124.416016 3
-1.2145989776025279 -0.57361207349986065 1.6472520617335786 255 230 232 103.680008 155.52002 3
-1.2923855637870783 -0.84237049992112745 1.7650795439434717 214 219 228 100.224007 103.680008 3
0.4299052467208897 -0.66506585865318857 4.1763056271787722 255 130 146 423.360046 226.368027 3
0.9559176233746578 -0.45558220595229204 2.9491251515941954 236 239 244 508.032043 228.096024 3
-0.23324191243144154 0.52319190969023188 1.798807868303169 234 235 255 333.504028 397.440033 3
0.49776315651685965 0.50606201394597328 1.0331076439280564 126 141 161 568.512024 475.200043 3
1.288406867451106 0.38373224833296538 1.4224287349592588 187 188 189 732.672058 393.984039 3
-1.1022361662051585 0.34356325530046516 2.1352241220903094 16 20 12 184.55043 350.438446 4
1.8256070276732097 0.16854414582497382 2.4555268717979857 142 178 255 665.625671 317.260834 4
-0.38150028872599018 0.42338755206751899 1.6999676777421571 58 64 78 300.672028 381.54245 4
-0.6457186824169221 -0.076185304545762306 1.8537707048343983 223 255 221 250.90564 269.568024 4
1.2103173843259412 0.51934403938903084 2.1369348054294806 255 23 32 599.270508 383.616058 4
-1.0970481509244991 0.20168418280853601 2.6385885215840288 255 165 167 223.948837 317.260834 4
0.89296308163099503 0.56382816978175831 2.2109621315655641 123 255 85 534.988892 383.616058 4
-1.3322899222528921 -0.39430667551069565 1.8460782614950628 255 240 241 103.680016 205.286423 4
-0.9491935913206837 0.42038193475505592 1.2627860522946786 232 230 255 97.4592133 416.793671 4
-1.0744402359630518 -0.66780989502858445 1.7190588954105781 92 117 255 145.152023 141.004822 4
-1.0547460249486953 -0.8214354613761875 1.7032021897397711 255 77 96 147.225616 105.753616 4
-1.2954347669450175 -0.61814137498637312 1.7960745796096571 255 230 232 103.680016 155.52002 4
-1.272550379059779 -0.98109064163794901 1.7606105724385839 255 154 181 107.827217 74.6496124 4
0.27367317003727676 0.51111391743149737 0.96379628461384881 217 214 255 493.516876 493.516876 4
-0.017617111816081055 -0.022832356133461101 6.5428003579256497 255 98 119 383.616058 286.15683 4
0.70742657961566746 -0.63182051358292557 3.9688217089998927 214 255 164 454.118469 228.096039 4
0.97734690660490364 0.53513747563295133 1.3675648136273022 255 94 109 659.404907 439.603271 4
-1.3266310883861347 -0.19915488945064896 1.8532305150453463 255 242 243 107.827217 244.68483 4
-1.1205970664689748 -0.23991214734433564 1.7798201415313262 84 109 255 141.004822 236.390427 4
-1.384757719814532 0.1280663752717861 1.813418107272244 255 237 241 91.2384109 311.040039 4
0.36094491643434501 0.40193078110272196 0.92926807615595308 148 159 178 532.915283 452.044861 4
-1.1518304541349687 0.33054789880090146 1.9886875327222615 255 89 106 159.667221 350.438446 4
2.8620145540994288 0.34394952112624211 5.2278663138686854 255 112 143 595.123291 308.966431 4
-0.25740991263959057 -0.15335643146863687 1.176113456529384 234 239 245 296.524841 240.537628 4
-0.62414255510803152 -1.4114769587147524 4.0473300718192462 255 196 214 323.481659 154.275864 5
-1.2049251636886398 0.32600468687050033 2.5422202268879088 255 52 66 199.065628 340.899902 5
-1.0636590185676207 0.32328226912269964 1.8788535354333633 64 255 34 166.717468 355.829803 5
-1.1713580611243319 0.32011799408205716 1.7896191265427897 255 104 110 131.880981 355.829803 5
1.1085992049552615 0.16300563434313087 2.3235620441828662 255 93 122 567.337036 311.040039 5
-1.6036019679225224 0.76088630976786475 3.4356395759247347 137 141 144 204.042267 378.224701 5
-0.80063740235727998 0.33921708699967223 1.472824277227553 255 9 9 179.159058 373.248047 5
1.7852503139016154 0.13732907126006769 2.3968208931478792 167 255 64 666.869873 311.040039 5
2.0605595787827053 0.1933360092400998 2.8970511307883164 160 255 77 654.428223 311.040039 5
-0.57181893328513622 -0.63998393442049284 1.7984454482850061 227 255 227 258.785309 154.275864 5
-0.97695174348688907 -1.9270642110389185 4.3520312782325847 221 255 170 298.59845 116.951057 5
-0.31861345380854811 -0.023765601077676085 3.7916470177191206 255 99 120 355.829803 286.15683 5
-1.272550379059779 -0.98109064163794901 1.7606105724385839 211 255 154 106.997772 74.6496124 5
0.62812733994821679 -0.67959448911670151 3.9531427084370749 113 141 255 445.409332 223.948837 5
-1.2781174434192923 -0.53230737272001072 1.7635582091807231 240 255 236 106.997772 171.694107 5
0.95716553952472339 0.53027111377117309 1.3327046964510125 255 74 78 659.404907 437.944397 5
0.95638216960062461 -0.61945254748664236 3.1913683306460223 238 243 255 497.664062 218.972198 5
-1.3959978431214171 0.13796493991211525 1.840990738459912 237 241 245 92.0678558 311.040039 5
-0.59181570868427746 -0.55281910263863021 1.8302964404356392 218 219 221 256.296997 171.694107 5
0.3790614800572436 0.42586708391120232 0.99540760941121054 191 255 173 534.988892 450.385986 5
-1.3005989509567657 -0.42846021419372127 2.7612107949638727 179 186 194 204.042267 231.413788 5
-0.66103282930757157 -2.0263287667959915 4.767236937465424 223 255 175 330.946594 124.416016 5
-0.57144732273160281 -0.1089354063196247 1.8656071474577316 147 255 125 266.250275 263.761963 5
-0.4431956518535527 -0.23959020928307911 1.9215533027328027 235 240 245 296.110107 238.878754 5
0.11010798009170775 0.53625280131578512 1.5656130317476724 255 203 215 415.5495 423.014465 5
0.20521150248586961 0.2330876253103793 4.0189790850743377 163 177 255 405.596222 311.040039 5
-0.76453986462004142 0.24715232201135734 2.1603416405745222 137 139 150 248.832031 330.946594 5
-1.2498342577090682 -0.010143153749079009 2.1418569326573484 103 122 141 156.764175 291.133484 5
1.2696095985731786 0.43652330632612552 2.2029272939909843 255 34 45 607.150146 365.783081 5
1.1771964183197994 0.25750375578411422 2.33251754168215 255 113 127 579.778625 330.946594 5
-0.37424371416566204 0.42606104207912854 1.7428716525396055 255 60 66 303.575073 380.713013 5
-0.6405480783941071 -1.4073510759001988 4.0244527702411474 230 255 197 322.486328 155.271194 6
-0.29933521924650686 -0.0048300988607241357 3.8361195200776024 255 99 120 355.332153 286.65451 6
0.430552927209916 -0.6661754891475351 4.133133610716758 133 151 167 424.009796 226.93483 6
14.381534358966345 -21.708356365490818 38.175185383871849 180 213 255 525.533264 74.6496124 6
1.3757228819549878 -0.55753400964671052 2.9365571438435634 241 255 227 570.323059 212.004898 6
-0.87563162887578949 -1.7325144088252604 3.8394496707378281 221 255 171 298.59845 119.439384 6
-0.032470532453160228 0.59449505116458523 1.7371742416945777 225 229 229 376.23407 424.009796 6
0.77239139783594468 0.5325060989880479 1.1981233424285027 159 255 126 630.042725 459.841614 6
-0.39943412106750831 -0.44769797999335048 1.7488822108876603 255 229 233 295.612457 188.117035 6
0.81487009938840815 0.53270163684579996 1.0146456683119305 131 148 255 689.762451 486.715485 6
1.31279712135666 -0.083559930386610803 2.5123655577751043 100 129 153 588.238953 277.696564 6
1.0203196893037934 -0.47673814285769012 2.3377102142581991 234 241 255 549.421143 212.004898 6
-0.72591855588298326 -1.1004097609131236 4.777260150661955 241 255 232 322.486328 206.032928 6
-0.6457186824169221 -0.076185304545762306 1.8537707048343983 227 255 225 250.822708 268.738617 6
-1.3904430120800115 -0.45285052963799188 2.9515594564614362 255 142 153 203.046951 232.906799 6
-1.1251161106162879 -0.24021312976651532 1.7831235677036359 87 98 122 140.341278 235.892776 6
-1.2483390865277806 0.11527976923169439 1.6178265947826302 238 244 248 92.5655212 310.542389 6
0.22669364872293141 0.2567733080679 3.9711332998547837 255 120 139 403.10791 310.542389 6
-1.0449337755569523 0.15929681369242121 2.9446077145602558 255 161 165 247.836716 310.542389 6
-0.64406218577367813 -1.9995228689051179 4.678760509281358 255 175 200 331.444275 125.411354 6
-0.4719378655490658 0.48594395887869235 1.8691795319283284 235 236 255 289.640503 388.177979 6
1.4601768345911383 0.54041478699368461 2.5212237011930059 122 255 114 606.154846 373.248077 6
0.11145341785866325 0.35992072859111934 1.3757873832504455 255 231 233 415.051849 385.192017 6
0.89635648728072337 0.47862906020127144 2.6444711105018701 79 95 255 513.589355 352.346191 6
0.73303283537499797 0.092269497018679536 0.87478105737577883 110 119 133 704.692383 334.430267 6
-1.0607835634597138 0.42252784499133228 1.7067173354172152 9 255 13 146.313248 388.177979 6
-0.23095509046194085 0.49796991103498478 1.792817716383706 212 255 189 334.430267 394.149963 6
-0.36560317560829336 0.36415536648349645 1.8845409633756325 120 255 132 310.542389 361.304138 6
-0.27906886693148047 0.52311424105225623 1.1462836355736279 255 95 129 295.612457 462.827606 6
0.32201904561914652 -0.53077636752814228 4.3672466673254275 138 151 158 412.065857 241.864746 6
-0.39990809764760504 -0.31733440165415949 1.7977640021968551 236 242 255 293.820892 222.157257 7
-0.58600930937477713 -0.46316557266413194 1.8293749740073273 230 230 255 257.989075 189.90863 7
-0.02466000194982132 0.54029860360768234 1.5555012858443606 230 232 233 376.23407 422.81543 7
1.0297667527272147 -0.57750258640347085 2.6755823389043467 240 255 224 530.310852 204.241348 7
0.92307969205731577 -0.50399328618589956 3.1418706449559552 244 255 235 494.479065 225.740448 7
1.0066341360580273 -0.71902589387121074 2.634240942942176 238 255 225 530.310852 186.325439 7
27.579953407565156 -29.078632204692425 72.468527127126791 228 255 201 526.727722 136.160904 7
1.1626331856429934 -0.71016684255977269 2.7105779488220376 255 222 229 551.809998 186.325439 7
-0.69802105439179618 -1.4627275403800919 4.1886179160608288 230 255 196 318.903168 154.076813 7
-0.59474176294480863 -1.856525074937996 4.3486845132202028 200 223 255 329.65271 125.411354 7
-1.3243963456564671 -0.18716556475687385 3.0061951639391715 255 222 223 211.407715 265.155426 7
-1.3118481411006178 -0.40620368397944795 2.7718468818064776 99 117 139 200.658173 232.906799 7
-1.1251161106162879 -0.24021312976651532 1.7831235677036359 255 87 98 139.74408 236.48999 7
-0.65790708750871874 -0.085303947509457995 1.8622419439952873 227 255 225 250.822708 268.738617 7
1.0487480622735532 0.52216995094409557 2.2005124473036313 125 255 108 562.559509 379.817261 7
1.1548287789933982 0.46848640971167027 2.3116740879062316 26 36 52 576.892212 365.484528 7
-1.0825319708731231 0.10169949654994766 2.436082256698719 138 255 117 214.990891 308.153625 7
0.040099234486838053 0.53298132065474957 1.2241040642281455 201 255 161 394.149963 455.064056 7
-0.36576110870363765 0.42356325032132525 1.7020002712002738 94 101 115 300.987244 383.400421 7
-0.54349500046443833 0.38982177797166778 1.5139241562948333 67 255 66 250.822708 379.817261 7
1.1540108726273304 0.24701034181549644 2.2924308390173858 116 129 152 580.475403 329.65271 7
0.20862154451771309 0.21764508623999868 4.9057297949552465 126 145 255 401.316345 308.153625 7
-0.26796191712988282 0.47065752754402085 1.7993503462635774 200 213 255 333.235901 394.149963 7
-0.35427306923247848 0.35112769150769041 1.8556455440778321 255 132 104 311.736786 361.901337 7
-0.95969232702182827 0.40578631134056742 1.5224852581062489 255 1 4 143.327271 386.983612 7
0.74422236419935461 0.56329082010406017 1.3054118606900369 168 255 134 598.391357 455.064056 7
0.32201904561914652 -0.53077636752814228 4.3672466673254275 141 154 158 412.065887 243.656357 7
0.61926057172015847 -0.67916545228374869 3.9894068507010232 56 110 138 444.314514 225.740448 7
-1.1219600694586265 -0.76605710425469864 1.7842665625075611 255 73 90 143.327271 121.828178 7
-1.1336809657238813 -0.96531573168126705 1.7746845498730464 255 68 82 139.74408 75.2468109 7
-1.2945857014271853 -1.0009206575882912 1.8097744058046086 255 156 182 107.495445 75.2468109 7
-1.2799397560400991 -0.24197089667809291 1.7738478798348511 255 242 243 107.495445 243.656357 7
