ply
format ascii 1.0
comment Written with hapPLY (https://github.com/nmwsharp/happly)
element vertex 179
property double x
property double y
property double z
property uchar red
property uchar green
property uchar blue
property float ix
property float iy
property uchar octave
end_header
1.6168241045478298 -0.6999731679396437 1.7064528925100038 180 202 223 748 129 0
-1.2202957739523841 -0.47660031592516194 2.3168309124906363 241 255 232 182 208 0
-0.96709515182350669 0.27213334490816521 1.6052705180626679 230 255 230 154 352 0
-0.81643178830542817 -1.4869563932491485 4.8631597846659878 233 255 203 318 169 0
0.12763778357603117 0.47067249403895023 0.7815744275597365 22 22 255 445.200012 517.200012 1
-0.70917097361464521 -1.0330852761437246 4.8947288198978089 241 255 233 326.400024 207.600006 1
0.74942558884100274 -0.42315881394998267 4.0071160662133378 244 246 255 457.200012 249.600006 1
0.68509489951464975 0.51489263157743137 0.85273909803811687 255 75 84 691.200012 522 1
-1.3499485306787582 0.30311473247474652 2.1445089609771126 197 193 255 141.600006 339.600006 1
-0.75640531134816902 -0.89304489999525971 3.0770248955731478 230 236 255 289.200012 175.200012 1
-0.9160920099159906 -1.5485794238091839 4.9317396535758613 203 218 232 312 169.200012 1
-1.4439366863297276 -0.5740746568585936 2.3726762193696076 234 236 240 148.800003 195.600006 1
-1.2717704930163034 -0.27868533201808432 2.3634925729031417 242 245 255 177.600006 243.600006 1
-1.5036534455146318 -0.29071599983800739 2.4745935079057144 255 240 242 151.200012 243.600006 1
-1.0886104084365225 -1.935556060437901 4.8318400513283581 178 202 224 296.400024 133.200012 1
-1.2608172769036186 -1.4703122807009321 2.3896771597063946 166 203 255 181.200012 51.6000023 1
-1.4888525523268354 -0.90370201154313712 2.4301331006427902 255 211 219 147.600006 145.200012 1
0.47097382500253615 -0.7122276640657873 4.5796992334153082 137 159 181 424.800018 229.200012 1
-1.017470287081236 0.40698420399332336 2.112339484446744 233 234 233 200.160004 361.440002 2
-0.40383955169874475 0.49806079861398084 2.4520237426041671 234 235 235 324 365.76001 2
0.12735722058302801 0.46307334560935237 0.81788858830065303 69 79 102 444.960022 506.880005 2
1.2926701673433612 0.49819590098532407 2.0224659438353156 130 133 129 632.160034 383.040009 2
-1.3388112771379874 -0.14563123851389059 3.2200436640934749 101 127 255 221.76001 270.720001 2
0.24097550675776436 0.43143508305265837 1.7909972474454627 197 201 207 436.320007 381.600006 2
0.43005221027466556 0.51531151338367398 0.93957508731048733 137 255 106 558.720032 499.680023 2
-0.99831925512040076 0.27953992120407223 1.6595950135564999 222 255 231 154.080002 351.360016 2
-1.2495978315304614 0.1667006391002479 3.226299462532273 96 255 55 234.720016 308.160004 2
-0.51333567007432146 0.32295575287802697 2.4559553115019277 255 198 200 303.840027 338.400024 2
-0.74004370627786775 -0.86813463505752164 2.980962839093932 224 228 233 288 174.240005 2
-0.62243676473088438 -0.39987084276759821 2.6458146964471752 255 229 236 295.200012 230.400009 2
-1.2197407878012343 -0.54751343684550857 1.9874421629154475 234 236 239 148.320007 182.880005 2
-1.2739278346472318 -0.16664818638886836 2.3780598628665421 245 246 255 177.12001 260.640015 2
-1.4754493515451426 -0.23772850202016005 2.4346454532699426 241 243 245 152.639999 249.12001 2
-1.2590622304909815 -1.3229921660789024 2.3685500225966867 150 179 210 180 73.4400024 2
-1.2844594304120798 -1.4814507488898547 2.3992429472270285 132 166 203 180 51.840004 2
-1.4523426706827598 -1.4761836288348855 2.3821400948399742 255 135 167 151.200012 51.840004 2
-1.2467600626062665 -0.96451327407506326 2.3295630851663982 255 209 217 175.680008 129.600006 2
-1.2651983395605435 -1.0397585929003972 2.4024954187382082 208 224 255 181.440002 120.960007 2
-0.80482523772946868 0.48817795860731833 0.98062417877908059 50 255 34 70.5600052 478.080017 2
-0.40706460058240879 0.37491240407927401 0.58957691676493429 255 116 127 119.520004 532.800049 2
1.037417589352476 0.46925951282801953 1.1380745424987366 23 255 9 734.400024 444.960022 2
1.1334960875648554 0.42056781306357344 1.2275380743465769 32 255 20 738.720032 417.600006 2
1.2371565076440973 0.49913872962220512 1.6857592137330117 23 30 43 668.160034 403.200012 2
1.3264112997579791 -0.85586283005357022 2.1760938069943094 209 226 255 617.76001 139.680008 2
1.0310448518905151 -0.78070057500711898 3.4907121982886249 233 240 255 501.120056 202.176025 3
-1.662141253258862 -0.18471961605836229 3.9997312874468163 99 125 255 221.184021 271.296021 3
-0.97209869827700901 0.32918277908770055 2.0729743918676937 255 34 38 203.904022 347.328033 3
-0.85711857126035618 0.20266991256029315 0.97017181979965761 255 123 124 43.2000046 366.336029 3
0.64560162568960866 0.56507685317247913 3.007381358005528 114 123 146 464.832031 359.424042 3
1.0051766786700724 0.21520194108401414 2.8422187394212939 143 255 112 518.400024 316.22403 3
-0.7771341690140936 0.50245405601113569 1.2562135346560108 255 132 147 143.424011 444.096039 3
-1.2039392411502958 0.33426860733595359 1.9832379732001417 230 231 229 152.064011 352.512024 3
-0.91656353610365215 0.48678143528736717 1.2266099589022068 188 187 185 96.7680054 442.368042 3
-0.77878230295275275 -0.1145125423564603 2.3960934001384051 255 207 209 255.744019 269.568024 3
-0.57209522015779246 -0.36916427857805706 2.4454626943037692 255 228 236 295.488037 229.82402 3
-1.242152653637858 -0.71136655494778733 2.3287250598486997 255 217 225 179.712021 171.072021 3
-1.2019347045011894 -0.26176846438809187 2.2303446455536839 240 242 245 176.256012 243.648026 3
-0.83114475935723053 -0.80057063019187757 1.3480894064410545 208 255 150 150.336014 60.4800072 3
-1.4567917811135982 -0.97875064323139371 2.3899338647924924 228 255 211 150.336014 129.600006 3
-1.2550276052106439 -1.0205771274958439 2.3564453735996365 208 224 255 181.440018 120.960014 3
-1.4225540941077464 -1.0184930757373181 2.3446962260527946 218 223 230 148.608017 120.960014 3
-0.2947888195714421 0.35216099263478728 0.52731599430405551 208 207 255 169.344009 540.864075 3
1.0772459928494702 0.5034478732183616 1.1859266937320658 13 13 22 732.672058 451.008057 3
0.67331482411495647 0.50799917360592461 0.84325761267875787 255 65 73 691.200073 521.856079 3
0.72129824721958002 0.52965974338595823 1.0148624278457223 54 50 255 653.184082 489.024048 3
1.2615287927300223 0.48344725964790397 1.959096753043839 138 141 136 632.448059 381.888031 3
2.3297478154344597 1.1774782020134242 7.1734477406674291 197 255 176 506.304047 354.240021 3
0.75738096981306213 -0.61182348984531076 3.5090669763228828 236 238 243 464.832031 219.456024 3
-0.59388653477145015 0.39685365285214425 2.5126440632902827 194 200 207 296.524841 350.438446 4
0.26847548772843965 0.34561756160558971 1.8751609253549639 136 154 255 437.529663 358.732849 4
0.50244606197446617 0.54490016210929859 1.0415584706129706 124 255 86 566.092896 491.443268 4
-1.2060310469119666 0.16530256156132217 3.0931547186526807 66 85 106 232.243225 306.892853 4
-1.4544358220391533 -0.43970179318773572 3.3437768084415138 255 82 99 215.654434 240.537628 4
-1.5328850580910642 -0.53320950329180627 2.542652144289165 255 235 237 151.372818 207.360031 4
-1.2768403957988075 -0.27901570617078775 2.3678698664965943 241 242 245 176.256027 242.611237 4
-1.4315487209923363 -0.28062874895424317 2.3583382828978579 255 240 242 151.372818 242.611237 4
-1.1377638069359586 -1.9660336891339321 4.9799220807496161 179 202 224 296.524841 134.784012 4
-1.2337732559988535 -1.4480816305499413 2.3092921807466094 203 255 131 178.32962 51.8400078 4
-1.3956720831258291 -0.99825450690543205 2.3060726612068652 255 220 224 151.372818 122.342415 4
0.87590317845648769 -0.62059927446237972 3.1987538310603485 255 227 234 491.443268 209.433624 4
0.90043283959092124 -0.45561643684473396 3.649793659038977 255 243 244 479.001678 236.390427 4
-0.19446778072415127 0.51057277334549245 0.79525249813976595 212 212 212 292.377655 534.988892 4
-0.50060296116682501 0.54816164152739066 1.9782796256008957 87 255 54 290.304047 396.057648 4
-0.49718686465152606 0.36329434419486062 1.980672519903365 166 255 153 286.15683 356.659241 4
-1.3389960564430625 0.30274586957101668 2.1195963959951492 207 255 226 138.931213 342.144043 4
-1.2375059218667084 0.36720852482034827 2.0903626893595613 163 182 255 157.593628 358.732849 4
0.54869247174495983 0.48697426580581749 1.3290747751925487 160 158 255 541.209656 427.161652 4
0.083889983733638429 0.48695977337525315 0.82073022215432445 255 35 57 423.014465 516.326477 4
0.19568265274798491 0.5045874636753227 0.89387793790169923 104 111 130 468.633667 508.032074 4
1.2558505899568158 0.48158092196452357 1.951594884050567 130 133 129 632.448059 383.616058 4
1.1231272252884739 0.34498594595348187 1.9906857439881374 255 57 64 599.270508 354.585663 4
1.0007850642957949 0.20370458178927175 2.8641393509278688 140 255 111 518.400085 317.260834 4
0.8442188301679211 0.45696726107358265 2.6068087428786582 158 169 188 512.17926 356.659241 4
-1.0140605541811154 -1.7499983331877584 4.3849017150417797 224 255 180 294.451233 134.784012 4
-0.81273425304597824 -0.12508876632810312 2.4521282395798458 209 211 212 256.296997 268.738586 5
-1.2382033890970621 0.16853538539920088 3.1704505494355626 255 77 97 231.413788 306.063416 5
-1.1230144739054428 -1.9262973714032485 4.9273075987098984 179 202 224 296.110107 134.369293 5
0.84342721668638843 0.48963510693398599 1.206963939353475 217 255 217 654.428223 445.409332 5
-1.4396791228338772 -1.0363999742314609 2.3884888616116853 255 220 224 151.787537 121.927696 5
-0.77524745743468815 -1.9253111073286466 5.0728429438082729 206 226 255 325.969971 141.834259 5
-0.78767440571982306 -1.0594200882179292 5.0198073275130097 232 236 241 320.993317 206.530594 5
-0.70169903895586705 -0.4947329696774323 2.3396019116927906 231 255 230 266.250275 211.507233 5
-0.80974724617097715 -0.95027701519364483 3.229491559754984 229 255 224 286.15683 171.694107 5
-1.1809754748253476 -0.14845293028016021 2.365239560910366 255 200 206 191.600662 263.761963 5
-1.2067261635615547 -0.22571568912288992 1.9802089638942646 255 240 242 151.787537 243.855392 5
0.764265354355539 -0.53125078848035456 3.6198604612650458 245 246 255 465.315918 231.413788 5
0.46557562803489283 -0.71063910047501155 4.4668486782038155 255 136 158 423.014465 228.925476 5
-0.082465838485460408 0.52354414573028085 0.88935373848246613 218 222 220 348.364838 512.593994 5
0.68571679684629339 0.50891986466706052 0.85139140925612677 106 255 66 694.241394 520.05896 5
0.6978811993272761 0.51656750536925533 0.97301177657642235 77 91 103 664.381531 492.687439 5
-1.904547500671173 0.25715986076646652 2.333295494258194 193 91 98 72.161293 328.458282 5
1.2466751024340625 0.41766584375901761 1.7356860457024381 202 206 255 661.893188 378.224701 5
-1.3299664831111961 0.4247176491793645 2.5378096428357404 255 232 234 179.159058 355.829803 5
0.44058123702246976 0.53324223981328944 0.96759219197514579 255 97 119 559.87207 497.664062 5
1.2087080035270361 0.45803703475529212 1.8583976838968748 132 255 133 634.521667 383.201324 5
-0.57214825131182323 -0.36360943291093956 2.4402040732945629 230 236 243 296.110107 231.413788 5
0.9068229669891269 0.48544475314398705 2.8243803878589269 195 255 172 502.640717 353.341492 5
-0.38743876410553457 0.41093840052708347 2.2182486051971506 221 225 227 316.016693 358.318115 5
0.21956344605048295 0.35065310012641709 0.70299534251427165 222 255 223 502.640717 477.757507 5
-0.58374498067042602 0.17742086594284406 2.5544744579335239 174 255 129 298.59845 318.505005 5
16.120416258966845 -18.946186823661264 33.216651559007289 255 140 174 567.337036 72.161293 5
-1.2452411619958803 0.16284892495278025 3.1609030391537534 112 129 255 229.920807 307.556396 6
-0.16306734713926385 -0.041383035550030201 6.6825656053737728 119 140 255 373.248077 283.668549 6
1.3421145209435286 -0.69186022274674375 2.1549900452012118 255 203 218 627.056763 167.215134 6
-0.78145610490029371 0.45916473331181357 0.95993650998046576 255 63 70 71.6636276 471.785553 6
-0.85206606257551698 -1.498064276779056 4.7922097410450295 217 232 255 313.528381 167.215134 6
-1.3838773232218933 -0.8616557008642387 2.2608435657864816 219 230 255 149.299225 143.327255 6
-1.0486949897594928 -0.7589107542521405 1.7286034695808148 220 224 231 152.285217 122.425369 6
27.656223600400306 -28.816368053362744 73.089750713345566 199 212 227 528.519287 137.355286 6
-1.1256826542055225 -0.14362560335843205 2.2815250030574039 255 199 205 191.103012 262.766632 6
-1.0237346389373236 -0.2205261306020494 1.8869728822145455 240 242 245 176.173096 244.850739 6
-1.2986557332090984 -0.24433489489950516 2.1405858362726855 240 242 245 152.285217 244.850739 6
0.17625539794263578 -0.62748097545761583 5.4132176726609327 13 22 255 397.135956 244.850739 6
1.570551342512839 -0.82036088594068035 1.9429422702183836 213 219 229 692.748413 119.439384 6
0.79296032783281745 0.46649535801949304 1.1279356106854479 216 255 217 650.944641 444.911713 6
-0.74997417721062742 -0.85738843766158002 2.9003896033047765 255 225 226 283.668549 170.201126 6
0.48817089562674054 0.60694547314982117 1.1076969237271861 137 255 106 558.379089 498.659424 6
-0.082806268839786146 0.5199687797874919 0.87850078123871267 223 255 228 346.374207 513.589355 6
-1.8633542737159954 0.4722338545603153 2.2225020502845085 255 37 38 59.7196922 373.248077 6
0.08564555256051265 0.48406950089638129 0.82118019036213097 36 59 6 424.009796 516.575317 6
-0.41245145827003715 0.35888140138685842 0.76025724428532371 255 191 189 179.159073 471.785553 6
-0.52128428698501761 0.31266412258878828 2.4869833303891165 209 211 212 304.570435 337.41626 6
-1.1650465985220855 0.36955694785965537 2.1976051800409944 255 225 227 179.159073 352.346191 6
-1.2187142270036513 0.35669039085705789 2.0443334277035938 167 183 255 161.243164 358.318146 6
1.1127968720383778 0.34341653156613938 2.0136685751432402 104 114 255 597.196899 352.346191 6
0.75835596301900188 0.70163772884239961 2.5642864017820743 167 255 133 498.659424 394.149963 6
-1.4730758087247899 0.14670542023956307 2.2981333145939433 244 248 255 137.355286 307.556396 6
0.87183057325736846 0.36216043836244327 2.4342183731301041 123 131 133 516.575317 343.388214 6
0.18876645818591298 0.4610617944720134 0.80687578153533845 110 116 133 468.799591 507.617371 6
0.22472464616639454 0.35934783701636525 0.72328628342696888 218 219 220 504.631378 480.7435 6
-0.54538839071786605 0.18433280207220704 2.3280417745103583 172 255 131 298.59845 319.500336 6
0.22169898235073027 0.40675909847924469 1.6322418749431455 255 188 194 435.953735 382.206024 6
-0.37440747503943883 0.44435648918628268 1.8527886184747442 193 206 206 304.570435 382.206024 6
-0.40166911879345979 0.47136329325685578 2.4709320554123106 227 255 233 322.486328 361.304138 6
-0.80494357495198265 -1.4279074404762211 3.5925656223618185 255 179 202 295.612457 134.369308 6
1.6446878792442829 -0.86215876322414631 2.0505603454234387 255 212 219 691.554077 121.828178 7
-0.76541947904816166 -0.50232945556167308 2.5058838274372048 231 231 255 265.155426 211.407715 7
-0.52128428698501761 0.31266412258878828 2.4869833303891165 207 207 209 304.570435 333.235901 7
-1.0572640367553983 0.19536602829548733 1.5780963597348623 168 173 178 128.994537 333.235901 7
-1.7205629378669092 0.15526038895540484 2.6654256546190416 236 236 241 136.160904 308.153625 7
0.94887010985024001 0.47490054877638566 2.1551957582863515 255 93 88 551.809998 365.484528 7
0.4097174875227716 0.48100925717828447 0.86343525244996977 107 255 72 562.559509 501.645416 7
1.1755056998157272 0.44979692937342841 1.8860984048718756 126 255 125 630.639954 383.400421 7
-0.41774365484447529 0.46555799774217321 1.6845422866513613 137 255 88 286.654541 394.149963 7
-0.92208525538710306 0.44811766339831249 2.8358968293789637 68 68 255 261.572266 351.151794 7
-0.96474083597506866 0.35846466526239917 4.0023818435055194 144 167 255 297.404083 318.903168 7
-0.73897786599019266 -0.12527780536975658 2.2395698370554364 214 255 215 254.405899 268.738617 7
-1.2463430225258576 0.36991449917865649 2.0993612159576265 167 183 255 161.243179 358.318176 7
-0.89576666699404273 0.4553306044867943 1.1791016991374335 176 177 255 89.5795441 437.148163 7
0.19149838117488449 0.47657683777730675 0.83411456842104803 139 148 255 469.39679 505.228607 7
0.65779948598648985 0.37352359375512734 2.7838326021935895 120 130 147 472.97998 336.819061 7
-0.1731361510896352 0.44841702575099618 1.9405413922192731 255 236 236 347.568604 376.23407 7
-0.29428340029348221 0.33452457626532933 1.7202141118768539 227 255 233 322.486359 361.901337 7
-1.7010146393037386 0.33685506677537014 2.7834701036797291 202 255 209 150.493622 340.402252 7
1.3490398638841068 -0.69236104392419662 2.1786354738764659 255 203 218 627.056763 168.409531 7
0.76723090640806779 -0.53168880808961294 3.6086763955336751 247 255 245 462.230438 232.906799 7
-0.89005525126296137 -2.0361380356644334 5.5133342417547322 226 255 186 322.486359 143.327271 7
-1.4085135313140724 -0.27051573557011843 2.3563584087301566 245 255 240 154.076813 243.656357 7
-1.2744530135494707 -0.99902479744821582 2.3440427560844124 255 206 214 171.992722 121.828178 7
