ply
format ascii 1.0
comment Written with hapPLY (https://github.com/nmwsharp/happly)
element vertex 214
property double x
property double y
property double z
property uchar red
property uchar green
property uchar blue
property float ix
property float iy
property uchar octave
end_header
-1.0039885705624325 -0.42700005780087974 3.3508327470510704 223 224 225 268 241 0
-0.1787037999573744 0.29708960304454851 0.91704909135670576 212 255 214 310 412 0
-1.8847072423903302 -1.3368798166006108 3.2657583105957304 255 208 215 163 130 0
-0.20157324306299906 0.32290152801922223 0.86828766875383834 255 219 220 295 430 0
-1.6931196676220197 -0.62698362945794694 3.2337540615626805 228 233 239 184 214 0
-1.7224364263666514 -0.78746580252013409 3.2930309582280177 227 231 237 184 196 0
-0.16362944989899364 0.39197039475045631 3.1472466387309725 198 210 209 364 336 0
-0.60374639484294579 0.43344048688247255 0.94038064282301415 255 155 165 139 466 0
-0.17817301402503749 0.43300619856506423 0.95587916319842359 217 215 255 313 460 0
-0.92847527012407793 0.26910620506478788 3.3081421685719987 174 255 179 274 319 0
-0.022855562638835814 0.47417896078257599 2.6286186808674623 225 255 226 382 358 0
-1.6878944030359935 -0.08110643735105906 3.2765844438697123 255 243 244 187 280 0
-1.8821078075687896 -0.08031352180558908 3.3271482114133337 246 255 243 166 280 0
-1.6345516780978073 -0.23248700921047033 3.0609663524979402 245 255 241 178 259 0
-1.7189068027610954 0.33547593811762139 3.2806689131442468 152 162 179 184 328 0
-1.5425931621558622 -2.0143954754363738 5.801818214395345 209 226 255 281 154 0
-1.6731487444716069 -1.5213198567539004 3.2097779550440708 174 193 215 184 106 0
0.4346768967597664 0.067819077551585311 0.75490098439297881 68 82 109 604 322 0
-1.1791484804963455 -0.56822968856847711 3.3160332511617643 255 91 107 247.200012 223.200012 1
-1.8725188485978035 -1.5377581767883257 3.2402989229501156 255 189 201 163.200012 105.600006 1
-1.9522467407769302 -0.88754793149836664 3.3649155821059678 255 228 232 163.200012 187.200012 1
-1.8186620195519758 -2.2478867488091421 3.442543250639341 116 152 195 180 37.2000008 1
-1.8442033236521911 -2.2544225559549798 3.2666464250795202 117 150 192 168 24 1
-1.0417672363090338 0.29199572653110129 1.2124356355748012 255 64 87 51.6000023 381.600006 1
-1.6298075137408286 -1.1475703940292841 3.1450679667628192 200 212 226 184.800003 147.600006 1
-1.8554328154502477 -1.3807942392299155 3.2257283867515532 255 210 216 163.200012 123.600006 1
-1.8182198269016348 -0.040943119968707031 3.1697372641574284 255 243 244 163.200012 283.200012 1
-1.7082558084136528 -0.24461503743118695 3.196264511634991 243 245 255 177.600006 259.200012 1
-1.2340845096670749 -0.16903731489950929 3.3519840861758885 255 64 84 243.600006 267.600006 1
-1.7172192605373402 -1.739051092900431 3.2472705461424902 170 206 255 181.200012 81.6000061 1
-1.8479313043045007 -1.7209702302592473 3.2103234808428986 255 147 174 163.200012 81.6000061 1
-1.7301005611056501 -1.9485806467921238 3.2560541361793591 161 200 255 181.200012 57.6000023 1
-1.7397667177384357 -1.9111936623709358 3.1213272717147382 158 198 255 169.200012 52.8000031 1
0.43964854289495958 0.4781326022780118 2.2782749262920108 102 124 255 457.200012 369.600006 1
-1.6160434271645334 -0.91571824397954005 3.1259391160208887 218 224 233 184.800003 175.200012 1
-1.6778377374053188 -1.0810175446841561 3.2196016964469916 204 215 228 184.800003 157.200012 1
0.49773775759834826 0.31227987699535531 3.0710358170918877 128 136 255 445.200012 326.400024 1
-0.027717159343247255 0.4780027907744831 2.6567545283367506 225 223 255 381.600006 357.600006 1
-1.6584453853929912 0.28431468772217461 2.8880720943654565 212 209 255 165.600006 325.200012 1
-0.55896369374451194 0.40476048869799836 0.87481704389462278 255 156 167 139.200012 465.600006 1
-1.343967587670996 -1.8192800724641562 5.1666199078044439 255 190 207 283.200012 153.600006 1
-1.3253778366465414 -1.6172566550088494 5.9533376897379018 234 255 216 298.800018 183.600006 1
-1.6607861437209368 -0.29667320424317567 2.9143954884041041 255 239 241 163.200012 249.600006 1
0.4718843426124697 -0.25879811803591779 0.7436548625284185 200 213 227 628.800049 154.800003 1
0.5418428744376238 -0.18119814092829611 0.7302912484656876 143 155 255 669.600037 193.200012 1
0.42844985831343363 -0.0034591542889902613 0.74622736899241926 255 104 118 603.600037 285.600006 1
0.56967854427790687 -0.7895427437697371 3.9509095764470885 255 227 233 439.200012 213.600006 1
-0.1795571325235894 0.43377133177613081 0.95762284655517926 225 224 255 309.600006 463.200012 1
0.44431358065352633 0.24542811046517116 0.75436149596316704 13 22 255 609.600037 414.000031 1
-0.81739016849782042 0.23647707009688257 0.94876244524053455 92 255 71 50.4000015 381.600006 2
0.27761609370672091 0.44791110374295695 0.9711898218562196 222 221 255 493.920013 465.120026 2
-0.73073832272464867 0.34573735374935771 1.3797808984312294 90 104 25 180 383.040009 2
-0.89916611952663095 0.35807463630569214 1.2494598221354229 187 175 255 105.120003 400.320007 2
-0.65269122356435005 0.30139000550702572 0.71678316415045362 84 106 114 36 452.160004 2
-1.1433396685407295 -1.4601622199773898 5.3216148714921401 234 255 214 298.080017 182.880005 2
-1.3050088671935396 -2.218144399872267 6.5225595978252091 191 209 226 308.160004 156.960007 2
0.2826998710097719 -0.56757556440289381 5.0711297837624203 151 255 69 406.080017 241.920013 2
0.4253893479289127 -0.57781969959229251 4.0128470071398423 255 225 233 423.360016 233.280014 2
-1.6105163625975019 0.11377777066658865 3.9609148427493164 99 116 135 228.960007 298.080017 2
-1.004998214709353 0.34391332038499844 3.354362348607927 180 177 255 269.279999 326.880005 2
-0.16841433827281649 0.31908826579550231 2.9226860419219078 139 149 255 361.440002 326.880005 2
-1.8691550485051556 -0.94507522254728493 3.2361839367054883 255 220 226 159.840012 174.240005 2
-1.7025263659750731 -1.0326924123540291 3.2362165797390867 209 219 230 184.320007 165.600006 2
-1.8904349749116238 -1.0414918645649167 3.2655797679519978 230 255 210 162.720001 164.160004 2
0.45678212699293574 0.45304819298179799 0.7598473609426093 0 4 255 617.76001 516.960022 2
-1.6060077181848298 0.3195102767777277 3.0913278490250944 147 158 176 184.320007 329.76001 2
-1.5515797757331438 0.26673758337938624 2.7135462418508149 212 209 255 165.600006 325.440002 2
-1.1263523099137092 -0.71462304318869574 3.2095969960405766 126 255 81 246.240005 201.600006 2
-1.4993665756094625 -1.9813498818878408 5.9578914095786635 193 209 227 288 159.840012 2
-1.8072363672759777 -0.32979499819556224 3.1566397080277504 244 255 239 162.720001 249.12001 2
-1.8367092097789492 -1.7778351362250615 3.2577174258370105 141 170 204 168.480011 77.7600021 2
0.463954131258697 -0.25508864911291546 0.73146228882835662 199 212 227 624.960022 155.520004 2
0.54061122127167094 -0.18091944114360309 0.73085963791347308 154 165 255 669.600037 192.960007 2
0.54525694315281836 -0.0024206027221928481 0.72681237813980482 255 129 151 675.360046 286.559998 2
-0.67770598320376574 0.41589323465467748 0.83778867390086664 179 175 255 73.4400024 479.52002 2
0.63071350053688069 0.045907419510690724 0.68558391780729799 99 119 255 737.280029 312.480011 2
0.62186911869030748 -0.84484325177212383 4.389847744995091 233 239 255 437.76001 214.560013 2
-0.79542618742062698 0.32497111015685115 1.1120018781278653 117 136 131 108.864014 402.624023 3
-1.1811418738624484 -0.16352897757985016 3.2206858045528595 255 61 79 243.648026 264.384033 3
-2.3242360227031029 -0.2832648758599382 5.3697359346166067 115 136 255 217.728027 266.11203 3
0.11836961972066318 0.43876999794468541 3.6095832210215866 255 143 152 395.712036 333.504028 3
-0.011542168370742623 0.49991975750218254 2.0127073318498052 255 188 192 383.616028 385.344025 3
-0.72220105455053263 0.32461473427965071 1.4069953247594804 132 142 64 188.35202 374.976044 3
-1.5930083763918357 0.11707195986376029 3.8718835602413471 99 116 135 228.096024 298.944031 3
-1.1160132341018887 -0.54949053738351772 3.1951816104865571 255 92 107 247.104019 222.912018 3
-1.9204876501265611 -0.50467402441109022 4.3018046822334099 154 255 129 210.816025 240.192017 3
-1.1334532018496941 -1.9139287642948275 5.6938116907222485 255 192 209 307.584015 157.248016 3
-1.8240582949840931 -1.7844432675144084 3.2504821532831332 255 143 171 167.616013 77.7600098 3
-1.6896869534091885 -1.5316311223708359 3.2204227594318398 255 173 192 183.168015 105.408012 3
0.54209901625505774 -0.21692847614631877 0.73082618941781119 172 184 194 668.736084 176.256012 3
0.63055043515672604 -0.032706633799900409 0.73006668646010553 64 81 255 713.664062 271.296021 3
0.54525694315281836 -0.0024206027221928481 0.72681237813980482 153 175 255 673.920044 285.120026 3
0.92977505609297184 -0.74333257600699343 3.0066780464536791 236 255 219 506.304047 191.808014 3
0.45392565952679886 -0.44124286507233257 0.75456274684083602 158 201 255 613.440063 63.9360046 3
0.67081927880082437 -0.37773728775026144 0.75999868887247746 182 197 215 724.032043 95.0400085 3
-0.17112195899819294 0.4229480894716835 0.9239616958143051 219 220 218 312.768036 461.376038 3
-0.83144357851705819 0.24738235451547511 3.0298295311442205 163 255 167 274.752014 317.952026 3
0.68202098638978947 0.045547534629446371 0.74584284090296249 156 255 105 730.944092 311.040039 3
-1.591781354089798 -2.0846880623695592 5.935543688256506 209 226 255 281.664032 155.52002 3
0.5400756936806268 -0.18188234379763954 0.72388023079406749 154 165 255 669.772888 192.844833 4
0.55764687357743548 -0.21795609242832736 0.73437071244005669 255 168 180 671.846497 176.256027 4
-0.053380041027666136 0.43842782303855182 2.5894510539723732 220 217 255 377.395264 356.659241 4
-1.4973006361066412 0.29612868603931775 2.6798374575385577 176 255 167 170.035217 329.702454 4
-1.8177825119705702 0.31467005133566173 3.1504957107577889 255 209 208 163.814423 325.555237 4
-0.33496134235553532 0.18316635152097302 0.76854448349412396 156 172 255 213.580826 377.395264 4
-1.4011051361302087 -1.6873302646664308 6.1132731754379641 234 255 214 298.59845 182.476822 4
-1.6428061224443642 -0.14040420074776172 1.8261933081558719 255 150 154 39.398407 259.200043 4
-1.6132557416282536 -0.20756946914319674 3.245189912588196 242 243 245 192.844833 263.347229 4
-1.804520945233691 -0.31166056614008908 3.1568352726428039 241 244 255 165.888031 250.90564 4
-1.8522629295266153 -0.48296819361080168 3.2206773535099966 239 242 255 161.740829 230.169632 4
-1.8610448262318693 -1.7317183186018186 3.2382053923757992 255 147 174 163.814423 82.9440155 4
-1.817171877784971 -2.100041341057826 3.240745756818332 255 117 152 167.961624 39.398407 4
0.66457487276513838 -0.37581220639130553 0.75120634475122716 255 184 198 723.686523 95.3856125 4
0.64520382792502384 -0.46237065101319746 0.75826626971613287 157 199 255 709.171326 53.9136086 4
0.46832225540353267 -0.49414576561708046 0.80435885088605996 255 114 155 611.712097 51.8400078 4
-1.687162995035965 -0.72632794065880657 3.371399023486668 231 234 239 192.844833 205.286423 4
-1.7149988037931099 -1.0667114012576784 3.2331011022125509 207 217 229 180.403229 161.740829 4
-1.8659563749807777 -1.0978321599420826 3.2552730166664872 217 229 255 161.740829 161.740829 4
-1.2382158134447345 -0.1746834449010381 3.3500096522301623 98 255 60 242.611237 263.347229 4
0.56904352984761442 0.089460023101714636 0.7349741172519777 90 118 136 684.288086 335.923248 4
-0.43843704069326206 0.41275643393434847 0.78313899531587161 255 168 173 167.961624 491.443268 4
0.29917893816420116 -0.47642580408748847 3.580790148396539 198 255 151 414.720062 236.390427 4
0.26741048190068195 0.4733677517984779 1.5192569982105315 219 255 221 454.118469 408.499268 4
0.53160861845994467 0.39901715869364396 0.75357098090990138 255 0 0 655.25769 493.516876 4
-1.0240799567987771 0.25662438233313661 3.6128600384365388 128 140 255 277.862427 317.260834 4
-0.14710594360742912 0.39897782666831871 1.3598073370583643 195 255 208 342.144043 402.278442 4
-0.94485251492685096 0.32661729296964237 1.0556103380079722 137 152 255 41.4720078 406.425659 4
-1.0191414518941406 0.28132836529846939 1.1783081122419381 93 97 255 49.766407 381.54245 4
-1.5266787969008155 -1.9793032792561434 5.6877445054620228 255 212 219 279.936035 155.52002 4
-0.13089586123480146 0.4057931993341099 1.6765413169872132 255 115 128 355.829803 375.736359 5
-0.053411455635851812 0.41388496331043279 2.4875204228615186 216 255 217 378.224701 355.829803 5
0.36047302503632295 -0.58052536235408603 4.5893059041967144 255 145 183 415.5495 233.902115 5
-1.4708831211457101 0.11820587588699893 3.6234056277375037 135 255 101 226.437149 298.59845 5
-1.7149988037931099 -1.0667114012576784 3.2331011022125509 216 229 255 181.647385 161.740829 5
-1.8659563749807777 -1.0978321599420826 3.2552730166664872 207 217 229 164.229141 159.252502 5
-1.5236156038692727 -1.9734350540998342 5.7298521106334048 209 226 255 281.180206 156.764175 5
0.60090468557991028 -0.84335859455366724 4.408823077163686 233 239 255 437.944397 213.995544 5
-1.8058195476795849 -0.32341917124910896 3.1840366456940856 244 255 239 166.717468 248.832031 5
0.25493487238226298 0.41961496910194479 0.90822651430279455 223 224 222 492.687439 462.827576 5
0.26629765127424276 0.43797517607758135 0.85990270718512574 223 224 222 500.152405 480.245819 5
0.93951849372874807 -0.76122107947124495 3.0805589146725523 227 236 255 505.129028 191.600662 5
0.65746195574883981 -0.4187127155276702 0.76436687968940542 210 255 165 714.147949 77.1379318 5
-1.1623235604422324 -0.96004177667137347 4.0179536045012991 224 226 226 268.738586 196.577301 5
-1.1476711580621228 -0.72216560876118696 3.2641797346932369 125 255 79 246.343719 204.042267 5
-1.4314502685815702 -1.7124874360305564 6.1597372572223517 233 255 211 298.59845 181.647385 5
-1.2048841820982381 -0.17115599089685263 3.2611588412898556 255 60 76 243.855392 263.761963 5
-0.17400085325799286 0.42019343579314389 0.93448972151968412 217 215 255 313.528351 460.339264 5
-0.51808495639166319 -0.072792698318326285 6.615693454195112 109 130 255 353.341492 281.180206 5
0.5505210084612312 -0.25314812401700282 0.72728968183800591 230 255 214 674.334839 151.787537 5
-0.58006914331666493 0.29854666263166507 0.66667450749670265 140 145 152 52.2547264 455.36261 5
-0.64821018027047983 0.44352784933991662 0.76307094620101235 255 172 167 59.7196884 507.61734 5
0.27000263197085128 0.47035043480127331 1.7026511552644528 255 137 148 447.897675 393.154602 5
0.37344243565224122 0.38777336420251968 0.75519977075963407 0 13 255 577.290344 485.222473 5
-0.15793734645687185 0.31132177170849884 2.9252563861016454 217 216 255 365.783081 333.434937 5
-0.48856769517521714 0.42599818997521144 1.67393842831537 255 87 120 271.226929 385.689667 5
-1.6730825272081793 0.43060115710728153 4.1763771124919655 38 22 255 233.902115 328.458282 5
-0.96839157873123538 0.24616065155644548 3.5244552724198179 162 255 120 278.691895 316.016693 5
-1.2038639977779551 -2.0540272097310766 6.0452665114848774 227 255 194 306.063416 161.740829 5
-0.69557728774075644 0.27708398731475264 2.528545479416251 255 158 160 271.724609 328.458313 6
-0.46152436852089895 0.24837627509704677 1.3682297997000583 173 172 178 256.794678 352.346191 6
0.54644584371658755 -0.3547983813958735 0.74928687261998728 214 255 172 662.88855 104.50946 6
-1.735822706762479 -1.07555517849385 3.2518567494155137 255 207 217 179.159073 161.243164 6
0.55323240447894029 -0.21984630579830378 0.73368184831148353 255 168 180 671.846497 176.173096 6
0.2719467394300491 0.44028897137887646 0.97772918985160873 223 221 255 489.701477 462.827606 6
-2.3736234310896336 -2.9975923101719362 8.9008017458026121 204 215 226 280.682556 158.257187 6
-0.0074819664590741741 0.44885337353519789 0.76260385192346591 112 130 140 376.23407 516.575317 6
0.26581864738610661 0.4405703776567762 0.87372447490193705 225 224 255 501.645416 480.7435 6
-1.7612867530315643 -0.23761031374546304 3.5088331294754456 255 241 243 191.103012 259.78067 6
-1.4526324886200448 -0.43879623189793837 3.30987116886411 108 122 144 212.004898 241.864746 6
0.94509816478431996 -0.77909928125292249 3.1911812868046852 218 226 236 504.631378 194.088989 6
-0.95751226325679184 -0.40388733992306003 3.2055582572592272 225 226 255 265.752625 241.864746 6
0.43239090980594563 0.24148962059802292 0.7409337481208047 22 255 13 606.154846 412.065857 6
-1.0799265209756013 -0.45413949484722343 2.9932050972468871 255 91 107 247.836716 223.948837 6
-1.4673838109811004 -1.7533137109408705 6.3554977785350513 255 216 224 295.612457 182.145065 6
0.44081851588650778 0.20789597292095668 0.75668366778597385 154 255 108 606.154846 394.149963 6
0.44818158353567505 0.1802754479101637 0.78480059692576942 196 255 191 606.154846 376.23407 6
-0.042595314189989519 0.474600301233991 1.1236586197508076 125 255 88 370.262085 450.883667 6
-0.014185181141005865 0.44580062365356249 1.1239034743830254 255 104 112 379.220032 435.953735 6
0.013625602760934941 0.45370646537112447 0.90718153923407074 61 76 255 385.192017 480.7435 6
-0.28963072208201246 0.0068382573030355415 3.9442804082628626 87 109 129 352.346191 286.65451 6
-0.13039086982044656 -0.47086889307792168 4.4150104898809968 155 255 150 370.262085 250.822708 6
0.0013617953014972706 0.4606588781549702 1.0268826456911921 88 105 255 385.192017 462.827606 6
0.26166686364147318 0.46203118608752919 1.4471246850269854 221 218 255 453.869659 409.079895 6
0.42364163657753728 0.25347966031714053 1.1873548172689072 32 255 13 522.547302 370.262085 6
-0.60536908857578609 0.41665099198607447 0.72108281829170329 255 172 167 59.7196922 507.617371 6
0.15725925207714697 0.45429285499756455 1.8172904744297447 255 74 106 415.051849 385.192017 6
-0.64967761544862768 0.22757259608000285 0.98294012975462386 180 193 173 128.397339 370.262085 6
-1.1608671912708637 0.25734145979704481 4.1285452716388402 109 125 255 277.696564 313.528381 6
-0.056560701500015576 0.44894423277756956 2.5430088469019774 220 217 255 373.248077 355.332153 6
0.54569158556261266 -0.005604397866947719 0.73466646102271604 255 138 161 671.846497 286.65451 6
-1.8422559692459304 -1.8159240240115877 3.2698898185476466 255 142 171 167.215134 74.6496124 6
-1.1334532018496941 -1.9139287642948275 5.6938116907222485 194 211 227 304.570435 161.243164 6
-1.894572435436825 0.35119189193658007 2.4222685570182829 160 255 128 82.4131775 343.985443 7
0.44668548087923676 0.070193805520867833 0.78132486155744596 71 99 255 605.557678 322.486359 7
-1.8713209599854381 -0.27454577284328702 4.3966171348544192 133 255 91 218.574081 265.155426 7
-1.7724502376753879 -0.48577825509446448 3.9637594026906289 255 121 135 211.407715 243.656357 7
-1.8565454777784947 -0.33120995456855107 3.2903652609849234 240 242 244 168.409531 250.822708 7
-0.68737691018067082 -3.5983383045612438e-05 6.1672288356477889 255 87 109 347.568604 286.654541 7
0.93684639661770808 -0.75286924966449853 3.0996209029916435 226 236 255 505.228607 193.491806 7
-1.0385246536327966 -0.40060990641036259 3.3757430719103447 225 226 255 265.155426 243.656357 7
-0.93101622074316115 -0.51607447410100926 3.0784024615482433 227 227 255 265.155426 225.740448 7
-1.130619091385332 -0.69616971961539598 3.2012462165067692 255 83 101 247.239532 204.241348 7
-1.3652880406859409 -1.109079133936377 4.5899422649143125 223 224 224 268.738617 193.491806 7
0.43861726355519681 0.31272341493308714 1.0589768459088214 84 88 88 544.643616 401.316345 7
-0.18926752936739177 0.43461197410027719 0.82133771001153311 215 214 255 293.820892 490.895874 7
0.48576899395097217 0.36448022721610474 0.74822421398963312 141 255 100 630.639954 476.563141 7
-0.18463983353267333 0.43052086512579874 0.97312498577579754 255 214 215 311.736786 458.647247 7
0.0076974703238079645 0.44763791461556368 1.0064212500393896 255 69 77 383.400421 462.230438 7
-2.3733330783213877 0.18611781014663234 3.815251919809076 246 255 237 150.493622 300.987244 7
-0.94484748174392763 0.34194549601403057 3.2304822243435489 141 143 139 272.321808 329.65271 7
-0.58425007175816135 0.2912413647554703 1.6804240593941349 175 255 156 254.405899 351.151794 7
-0.32233845179553167 0.36211669813504799 1.0078234412594382 224 221 255 265.155426 429.981781 7
0.54907457493097467 -0.22423244652369839 0.73175163678607946 191 255 169 670.054993 175.575897 7
-1.3716524322355093 -2.1632429742974848 6.5940352532682311 194 211 227 304.570435 161.243179 7
