ply
format ascii 1.0
comment Written with hapPLY (https://github.com/nmwsharp/happly)
element vertex 172
property double x
property double y
property double z
property uchar red
property uchar green
property uchar blue
property float ix
property float iy
property uchar octave
end_header
0.07790575144699996 0.33741604425466171 0.48301978289662728 255 39 59 447 556 0
0.5421168769221032 0.46918190287199718 0.87550695904291709 96 255 42 622 496 0
-0.21195762808514312 -0.3830390837973674 1.45160536026235 47 85 115 328 189 0
-0.30360471125919197 0.29374768433073289 1.2144152337573764 163 170 255 289 382 0
0.72942601406353558 -0.20682116649250445 4.0264923286566514 147 255 148 454 268 0
-2.8497028521568155 -0.30427745966138053 4.0903385276009683 235 255 231 118 259 0
-0.48496173532777731 0.032804565528841312 0.75333433761267421 58 70 89 136 304 0
0.71344523234054869 -0.97444397959642726 4.3597097866868157 220 223 229 448 202 0
-2.8625444846480192 -2.6581184210439814 4.1083208603251702 159 255 81 118 40 0
0.68723680704573564 -0.012613519911697072 0.96994677024128972 240 255 236 658 283 0
0.66864196496027595 -0.066115769848818853 0.96318693626372853 236 239 255 649 262 0
-0.45720419955386349 -0.59002011365023954 4.4185721400778384 255 39 85 343 236 0
0.59261039686462702 0.41581458984202763 1.1171527000532855 155 255 119 586 430 0
0.6748380722832179 0.24983114550565444 0.97340980353678574 38 38 255 649 388 0
0.39033295488761693 0.4578869106675128 0.7680647444439036 89 91 112 580 517 0
-2.5144737766861809 -0.88204950081032263 3.4585614960690019 255 214 217 103 190 0
-0.47188251805824222 -0.56406157017036207 1.4704002524383828 255 140 167 259 142 0
0.77354561882345851 -0.158609888402968 0.97368062450241288 255 223 226 691 226 0
0.15363170885957741 -0.89695479241100129 3.5188380012897578 16 69 107 400 190 0
0.17986076954566041 -0.96792191082119283 3.6105769237797718 255 30 63 403 185 0
0.15454458837056861 -0.57707816306496773 3.5911982849534043 28 64 98 400 226 0
-0.43735961998311679 0.45718680105386728 0.90898196940553666 255 56 66 199 481 0
0.34238305128125102 0.40458848246290785 1.2960586073567621 255 85 101 487 406 0
0.044835818445524561 0.20565027329893099 0.8247132947483411 255 91 103 403.200012 385.200012 1
-2.396284083406043 -1.0358016689107137 3.5231708410714555 222 226 255 121.200005 175.200012 1
-2.359680320866048 -1.1605040585531936 3.4669865098192902 200 213 255 121.200005 159.600006 1
-2.5152507029259383 -1.0181109216559532 3.4596053164005549 220 225 255 105.600006 175.200012 1
-0.29881347491371213 0.2916856432638969 1.2054942216190949 164 169 255 289.200012 381.600006 1
0.60888978806684546 -0.16063566471535323 1.0317447677737668 230 234 255 609.600037 229.200012 1
-0.40713258165887167 -0.27808257401270164 1.4288185180089523 137 154 255 273.600006 213.600006 1
0.69364102604102429 0.15657843220787543 0.9718260801421269 184 182 255 657.600037 349.200012 1
-0.265582848956607 -0.67301464059585614 4.6493697615608465 255 27 79 363.600006 231.600006 1
-0.42146875751408908 -0.56127043291650947 4.1072400675073339 121 255 38 342 235.200012 1
0.27731525557005932 0.48966715402727345 1.5762136320502314 90 120 255 453.600006 405.600006 1
0.69678283766526761 0.29793493708980795 0.98097728880867696 143 153 255 657.600037 405.600006 1
0.30182035259710122 0.22708871622872764 2.5635462329721892 161 162 255 429.600006 321.600006 1
-0.22028129649731898 -0.38419279565063558 1.4808966050329553 255 48 86 327.600006 189.600006 1
-2.4843085558892222 -0.33693090065457643 3.4199488874582888 226 228 233 104.400002 249.600006 1
-0.47338498032650256 -0.56556801837456572 1.470283197674477 255 139 166 259.200012 141.600006 1
-2.7623086889983237 -2.5720729556389585 3.9685085319906603 113 158 255 117.600006 39.6000023 1
-2.5415595332233378 -1.3020785326646305 3.4954878448775766 191 207 255 105.600006 145.200012 1
0.64120815336416803 -0.85348107277345853 3.8214634859588998 255 221 224 447.600006 201.600006 1
0.7225812038190178 -0.20535452089640796 3.9695026563407354 148 255 149 454.800018 267.600006 1
0.60069683122215034 -0.37940477191654443 3.6269766735550495 255 61 107 447.600006 247.200012 1
-0.44129364208182098 0.45963681501793352 0.91634428066105467 255 56 66 199.200012 481.200012 1
0.39081761792985126 0.46065125606198765 0.77265275802973199 255 88 90 579.600037 517.200012 1
0.34325154614592196 0.4023989179207757 1.2934048381437955 255 80 96 487.200012 405.600006 1
0.69684471607231302 0.35437553841130465 1.6969857081162361 155 160 255 541.200012 369.600006 1
-2.4160592127866347 -1.3203189613144921 3.3327646920263887 183 202 255 105.120003 135.360001 2
0.59842268317171665 -0.11016358056922135 1.0671421776451022 63 76 86 600.480042 249.12001 2
0.62718185571932761 0.3568849335975311 1.1561193836885526 160 255 155 594.720032 406.080017 2
0.57188031495624347 -0.075902044545366587 0.99950631844994398 67 76 85 600.480042 259.200012 2
0.17542498920247973 0.45299083913456628 0.69453606220495623 255 55 72 479.52002 541.440002 2
0.75809321425430487 0.087234252209731869 0.99671869649059897 151 255 166 678.240051 321.120026 2
-0.22589183493205839 0.28281073942722079 1.0064558910097929 154 166 174 296.640015 394.560028 2
0.73836322043144997 -0.015272201074244204 0.96701302793314126 239 255 236 678.240051 282.240021 2
-2.3101280530855215 -0.54434547258680843 4.1739077533307327 183 187 189 172.800003 236.160004 2
0.63896829768777619 -0.12982129190751795 1.0463812545370936 231 235 255 617.76001 241.920013 2
0.65207907855125291 -0.15678502736486083 0.98709592962232362 225 228 233 636.480042 228.960007 2
0.026720682783241551 0.20376928756559987 0.57996572982187922 116 120 125 400.320007 421.920013 2
-0.37328008157405956 -0.27022141355889678 1.3753289422379502 255 201 211 279.360016 213.12001 2
-0.2193794831204266 -0.38481605082138626 1.4849405378347513 47 84 115 328.320007 188.640015 2
-2.6012549830954903 -0.35956362587079926 3.5855868606230854 228 233 255 105.120003 249.12001 2
-2.8448710588835953 -0.40368736563154184 4.130621935390109 233 255 225 118.080002 249.12001 2
-2.5158928702810135 -1.6704477925333161 3.5267191243490514 182 199 255 109.440002 105.120003 2
0.66993888338734719 -0.20100450187308416 3.5971775020255898 155 156 255 453.600006 267.839996 2
-0.44140493324790231 0.45914096187538256 0.91561178219499795 85 255 56 198.720001 480.960022 2
-0.41827096705697642 0.42362702609892622 0.71748049172684147 255 10 10 159.840012 512.640015 2
-0.42252458413129867 0.23624887138030554 0.92097994599048616 255 71 83 207.360016 385.920013 2
-0.49279073316913102 0.030727332461778181 0.76221146755611335 255 70 82 135.360001 303.840027 2
0.59999896779036455 0.43821635753429522 0.88567862225894944 107 255 64 642.240051 476.640015 2
0.38054107441915308 0.46525569077290413 0.76267127692391012 96 255 73 578.880005 522.720032 2
0.38780614676497815 0.45363880973036314 0.7619846351958115 112 255 87 578.880005 516.960022 2
0.077482020421268005 0.29139164386756866 0.4824366729341466 47 64 89 444.960022 519.840027 2
-0.12481603984795375 0.36338808964763175 0.63617601306176919 255 177 170 307.584015 506.304047 3
0.69243625631310679 -0.016425530571965576 0.98061101382011973 240 255 236 654.912048 281.664032 3
0.71558587764985671 -0.064266866434095821 0.97502906572193671 255 236 237 663.552063 262.656036 3
0.56612874446733263 0.21570413523751969 1.6282514162132848 134 142 154 516.672058 336.960022 3
-0.37529311059825421 -0.26969319945024622 1.3821343677769817 222 255 202 278.208038 212.544022 3
-0.5007448767532604 -0.55035587286749676 1.4663217131231967 199 255 143 254.016022 145.152008 3
0.65062584220918374 -0.15728756302064309 0.99877703684123964 255 225 228 635.904053 228.096024 3
0.62334878498889768 -0.16382187138652912 1.1650238167535856 42 50 255 585.792053 235.008026 3
0.30614732811097178 -0.95306176237755202 3.7771122453681714 117 255 46 418.176025 191.808014 3
0.16227552042914545 -0.94949681905483785 3.6568569968698976 28 67 100 400.896027 188.35202 3
0.66199274828850552 -0.18408988313391206 3.5333354228563709 149 255 151 454.46405 266.11203 3
0.67253532863556531 -0.16388790791800892 1.9587291551469392 86 255 43 518.400024 255.744019 3
-0.41353330596656734 0.4464093565463832 1.0679065631002964 255 161 167 235.008026 447.552032 3
-0.13822041303690547 0.43271651705429748 0.65716815820462526 162 162 255 305.856018 540.864075 3
-0.42763655007298484 0.42992101038583941 0.73024133304009486 19 255 13 158.976013 511.488037 3
0.81342742889899122 0.35852440703434185 1.0399578713904181 255 195 194 687.74408 418.176025 3
0.0060099958411113097 0.28321818804126447 0.54809741664880485 136 255 101 390.528046 487.296051 3
0.17506497818129774 0.46287409644456939 0.7084294294333805 101 255 56 478.656036 540.864075 3
0.24834001493637592 0.33163427015529523 1.9214111517389569 150 255 114 430.272034 354.240021 3
0.48108100550506505 0.36161550149078103 1.5211517004676556 209 210 207 504.57605 378.432037 3
-2.604508255991977 -1.0607705253275501 3.5899927866771231 220 224 255 105.408012 174.528015 3
-1.9958839724058652 -0.21244819296652498 3.0694539233932874 187 255 216 130.636826 263.347229 4
0.79231169013958391 -0.062300996538307729 1.0152956195855052 203 255 232 686.361694 265.420837 4
0.31638924980492644 0.30809570447201085 2.5491707137801027 255 114 150 435.456055 335.923248 4
-0.010966577215951456 -0.15948449157294667 2.3095121416390167 255 18 66 379.468842 261.273651 4
-0.37836890572800119 -0.2700554963237991 1.374858936696832 210 221 255 277.862427 213.580826 4
-0.19048032035434931 -0.36424052575680932 1.4047578217289578 255 48 85 327.628845 188.697632 4
-2.6973386468026637 -0.35328529983633883 3.7169663837517617 228 233 255 105.753616 250.90564 4
-0.48882464022684535 -0.54563174951938498 1.445018039452342 143 169 199 252.979233 145.152023 4
0.6476048680877653 -0.13263511523397686 1.0828196865878454 255 228 230 615.859314 242.611237 4
0.75846568046065821 -0.076306126789459333 0.94236331954466734 105 115 129 692.58252 259.200043 4
0.6112620425219315 -0.14219640291746344 1.7510782004339362 86 255 43 518.400085 255.052841 4
-0.28251263297120055 0.44202352273784379 0.73058155165551009 160 161 160 236.390427 518.400085 4
-0.07433602577948345 0.36525916417406779 0.66822194588672046 152 155 255 337.996857 497.664062 4
-0.41925919770556308 0.42307743975333911 0.71687450902367811 255 10 10 159.667221 512.17926 4
-0.42959080799550775 0.44922318750466667 0.89762599105414032 255 56 66 199.065628 481.075256 4
-0.20196925281045031 0.26221107397764787 0.93809794345399089 152 165 174 296.524841 393.98407 4
0.15361551042725419 0.43769831132820902 0.88970936043053317 47 64 255 449.971252 476.92807 4
0.62141883054722868 0.35611562001251362 1.1388588152549275 255 124 130 595.123291 408.499268 4
0.66418873630556363 0.061565645400948596 2.0186338611265637 45 255 18 514.252869 302.745636 4
0.25085759729667606 0.35070618468372372 2.022771234395309 255 115 156 431.308868 352.512054 4
0.48031869704468155 0.3531302260917164 1.4930887682759306 201 199 255 505.958466 377.395264 4
0.32775853109659914 0.30323149089344792 2.5160287610696499 114 152 152 432.967743 333.434937 5
-2.6639457491264791 -1.788945197538391 3.7310716179298988 180 197 255 109.486099 102.021133 5
-0.27961450674991439 -0.75817069511195923 4.2385338986004468 31 74 106 360.806458 218.972198 5
0.72037989798584845 -0.0642934650282002 0.96274186731101274 239 255 236 666.869873 261.273651 5
-0.4244179768663825 0.44241242073032389 0.89390217514994275 255 56 67 199.065628 480.245819 5
-0.414032007589758 -0.29086443918019017 1.4530133476582736 182 192 204 276.203552 211.507233 5
-0.54191386940222286 -0.89358796174597743 2.2899227085508653 195 255 131 298.59845 136.85762 5
-0.51841525635400765 -0.55883517252292303 1.5026609356974219 168 199 255 253.80867 144.322586 5
0.62952889651761268 -0.12550448196855052 1.0400614869467895 231 235 255 617.103455 241.367081 5
-0.18333026971567767 0.41147765613121073 0.65341344302303095 162 164 167 276.203552 525.035583 5
-0.29252431767789044 0.45321164046294493 0.76046695448296453 162 255 160 238.878754 515.082336 5
0.73764019794688762 0.53776431690516102 1.102682858260887 75 104 255 641.986633 475.269196 5
-0.25704222533473331 0.26958033582519397 1.1183450346879455 165 169 255 293.621796 378.224701 5
-0.03819249358377208 0.20216133336366809 2.3921673165203394 80 255 22 378.224701 325.969971 5
0.15211126788855839 -0.9087353340600508 3.5216783266502998 22 68 103 400.619568 189.11235 5
0.36205935549187884 0.43545891445882906 1.6054733621622781 70 89 120 472.780853 390.66629 5
0.47069524761162551 0.33850344255675491 1.4311451324758733 255 165 170 507.61734 375.736359 5
-0.10411373194154905 0.27993083329471147 0.62967830899454569 181 255 182 318.505005 457.850952 5
-2.803926650953851 -0.64921690042643976 4.9635227829250974 177 178 255 169.20578 238.878754 5
-0.22120150101565456 -0.1131736276653813 1.684223201565562 255 37 76 335.923248 261.273651 5
0.96810231597578089 0.090804686528774242 3.8785615804741385 56 73 255 485.222473 298.59845 5
-2.5783120602650458 -1.0844616060928054 3.7435137399297735 255 219 221 119.439377 176.670746 5
-0.22212206476553298 0.27843549285452529 0.99214071379037105 157 166 169 292.626495 397.135956 6
-0.34288302599184939 0.30798229172311525 1.1110529521179195 169 172 169 268.738617 397.135956 6
0.35649757240824259 0.34216107832478071 2.7340489552584102 113 148 146 432.967773 334.430267 6
-0.40356214512044031 -0.28329992506231477 1.419651770475455 211 221 255 277.696564 212.004898 6
-0.69240703941397974 -0.023860514987022817 1.6459948100714636 56 79 255 217.976868 283.668549 6
-0.29974894313683786 0.46092898590059062 0.77146453660030323 163 255 159 238.878769 516.575317 6
0.80819963402571426 0.3613674439384541 1.0241279829285055 197 194 255 689.762451 421.023834 6
0.0092242991654636619 -0.96656986692769542 3.6998567468104149 104 255 22 382.206024 191.103012 6
-0.30593668754932613 -0.46462715638078389 1.8142227131756237 86 116 255 325.472321 188.117035 6
-0.58390814273505631 -0.48941010485058922 1.5698442062987241 192 210 255 241.864746 164.229156 6
0.5913916746111485 0.41353403306225511 1.1262371054876184 150 255 115 582.266968 426.995789 6
-0.14106562293916403 0.38181838529116296 0.66676033753576958 255 180 167 307.556396 507.617371 6
1.0011226315933328 0.098621707644957424 4.0135665673775369 33 41 56 480.7435 295.612457 6
0.033379585392458277 -0.98679819345007547 4.5503809750361297 66 99 255 385.192017 206.032928 6
0.49517941663040321 -0.89154126287769109 3.6112157038294312 255 140 165 435.953735 194.088989 6
0.15542255087033374 -0.9080633751871926 3.5303349335022549 16 68 106 400.121918 191.103012 6
0.35244776785992227 0.4212102205643532 1.5468226604899835 255 75 94 471.785553 391.163971 6
0.4429096737625991 0.30412298378806196 1.3032455557099012 192 255 189 510.603363 376.23407 6
0.5117988642388912 0.28891620725090339 1.6979546087198742 131 255 95 498.659424 352.346191 6
0.21180779636702055 0.33884944021756863 1.7597838487542403 148 147 255 429.981781 355.332153 6
0.81104900017296855 0.059825536910490272 1.0317467470222759 119 126 255 689.762451 313.528381 6
-0.31687737856217302 0.29789600330752597 1.0537792081513138 166 170 170 272.321808 397.733154 7
0.35807153187738161 0.42031097081738 1.3597308771721848 255 76 92 487.312714 404.899536 7
0.59429883318656695 -0.14253611713700076 1.6666489849203354 255 64 79 519.56134 257.989075 7
0.76288775129617425 0.44642415311988881 0.99960211222169026 190 190 190 680.804504 455.064056 7
-0.57382095447725301 -0.47667972583122653 1.5415742446702074 184 197 212 232.906799 168.409531 7
0.60610942970943815 0.42830774332237148 1.1066025827341452 255 144 153 591.224976 437.148163 7
0.56776907017680922 0.39820403297895501 1.0945627136186584 115 128 150 580.475403 426.398621 7
0.60067744634822018 -0.11661232789509149 0.97752798370023009 227 230 235 616.307251 243.656357 7
0.14175207025690789 -0.74081021532116964 2.972866499418477 66 105 255 397.733154 193.491806 7
0.82673565897599 0.63278722470049864 2.7221788739242538 189 192 191 508.811798 376.23407 7
0.6571973820767425 0.055608119392862032 2.0451834400286688 30 41 53 512.394958 300.987244 7
0.017644504524106985 0.12607400210163916 2.4604965928516069 95 255 22 386.983612 311.736786 7
0.28155985693070118 -0.92253543723598352 2.9900664181690115 255 74 95 415.649078 171.992722 7
