ply
format ascii 1.0
comment Written with hapPLY (https://github.com/nmwsharp/happly)
element vertex 135
property double x
property double y
property double z
property uchar red
property uchar green
property uchar blue
property float ix
property float iy
property uchar octave
end_header
0.97560553473053169 0.280876931484214 1.6030084843000227 84 94 113 616 355 0
0.015948526023502607 0.2498457069481036 1.0055514415972586 255 209 213 391 382 0
-2.2020845866289358 -1.3433330610443106 3.6758951259804009 215 255 190 154 148 0
-2.2844506180527966 -1.6012761189169056 3.7873698301363432 215 255 197 154 127 0
-2.2225652213803753 -1.2087029243024556 3.7004414666709358 219 255 196 154 163 0
-0.068151235910043018 -0.53010945084656114 1.2895686124907568 144 172 204 364 130 0
-2.4745878844968079 -1.8951739306151498 3.9087537276528677 255 160 177 139 103 0
-2.3297335967389818 -0.64254659527927538 3.5974197656563556 227 230 235 136 220 0
-0.065894080194748739 0.11954253970219217 0.26195370193137268 206 255 204 286 463 0
-2.3505351495121571 -2.2686651724543836 3.7105488706439349 255 101 133 139 52 0
0.87257716903246807 -0.91132142086957513 3.4377084940594846 110 142 255 481 187 0
0.55439070358846998 -0.91170678568000185 3.4975305392877423 211 224 255 445 187 0
-2.2297840694498157 -0.66881052645300343 3.7090808594274223 234 255 225 154 220 0
0.1095199337273442 0.42153480749983413 0.77319086830178485 255 184 189 439 496 0
-2.4699772953053132 -0.074457525894427862 3.8095448654076947 237 238 240 136 280 0
-2.315407414996888 -0.28519899203444804 3.7720463644081565 235 236 239 148 259 0
-2.614309460089657 0.17382580117943047 3.9125175071383724 255 189 143 127 306 0
0.016243932532713168 0.36012679969580708 0.98025611973858284 255 199 203 391 430 0
-1.3893264311458551 -0.66701466455878156 3.6595806833301485 211 218 226 240.000015 219.600006 1
-1.7435349151018062 -0.7736602930160954 3.8400056355947605 255 119 129 211.200012 208.800003 1
-0.068722770133121891 -0.53116947154130756 1.2877926996500686 255 145 172 363.600006 129.600006 1
-2.1631206549385875 -1.319735322600615 3.6072673182363109 255 191 201 151.200012 147.600006 1
-1.9901055392375362 -1.9687800733022685 6.0524668899290868 196 206 220 256.800018 163.200012 1
0.86684447714202317 -0.88962060847446345 3.3918442325486367 110 142 255 481.200012 187.200012 1
-2.39107273263952 -2.3472992400206207 3.7270877472184352 98 131 175 136.800003 48 1
0.0034625672834001087 0.01297321494953739 0.95890415713423449 118 119 255 385.200012 291.600006 1
-2.4042409137801055 -0.37407814936997119 3.7140985916256009 255 232 233 135.600006 249.600006 1
0.47267826198175278 0.19158131438034304 0.6701700518424295 71 70 86 656.400024 399.600006 1
1.0619961917743677 -0.18050341132341005 3.5439517676240229 255 39 92 499.200012 267.600006 1
-2.315407414996888 -0.28519899203444804 3.7720463644081565 255 235 236 147.600006 259.200012 1
-2.4645534386743471 -2.215788013233293 3.8762451118505661 119 147 184 140.400009 69.6000061 1
-1.6799158704486095 -1.497817182852696 5.8062733640032569 255 211 218 271.200012 189.600006 1
-2.5230624716012939 0.38157318347078029 4.2475170602736432 138 153 255 157.200012 320.400024 1
-1.7340625530492937 -0.59920485044853733 3.8301295487661031 255 120 128 211.200012 225.600006 1
-2.2515717802290331 -1.9762776129717239 3.8472157694948486 255 131 157 159.600006 91.2000046 1
-2.3852968722219039 -1.8260211388044709 3.7522470462770721 255 160 177 139.200012 103.200005 1
0.92478759705031721 -0.1270816825312516 1.5183207402835535 106 255 114 618 256.800018 1
1.5539903980726484 0.30663676925224337 3.8506497465893506 69 90 255 537.600037 319.200012 1
-0.0013364577017802581 0.42012749591749343 0.92833820265027223 157 165 156 384.480011 465.120026 2
1.1480163989723793 0.30333049850086369 1.4315291266996093 210 210 255 689.76001 370.080017 2
-2.4350099710763873 -1.4366108062779332 3.7561350701557346 255 192 201 135.360001 141.12001 2
-2.3559671501563391 -1.6486083392118929 3.8839139396286546 199 205 216 152.639999 125.280006 2
1.4630154010949135 -0.16776142417246037 4.4939889103850792 112 255 43 506.880005 273.600006 2
1.5617544023887477 0.16392775337757204 4.5608911766187408 157 255 161 514.080017 303.840027 2
-1.4931335007279372 -0.57268448563321361 3.6523554825108575 217 255 215 226.080002 226.080002 2
-2.3613133713946008 -2.2762763217358444 3.724352330025464 255 108 138 139.680008 54.7200012 2
0.54558624943129819 -0.93426428844401577 3.5318568879044983 196 210 223 444.960022 185.76001 2
0.10548000848392369 -0.51429308591610057 1.2308827594473921 204 255 148 414.720032 129.600006 2
1.1018404042922305 0.042347771613975072 1.5145441758619516 51 255 46 666.720032 298.080017 2
0.42356446825506971 0.20123026236292513 0.6560213668319298 55 70 96 632.160034 406.080017 2
-0.077308016041579442 0.037946032119881658 0.59709631943906838 116 130 146 336.960022 311.040039 3
-2.3234292004127663 -0.25714363990344502 4.8375824876431421 80 255 38 202.176025 267.840027 3
-2.1616951010755741 -0.23542109608168435 3.7388030606524545 240 255 238 162.432022 264.384033 3
0.01212507584260869 0.36386847034339354 0.9995535478030535 199 255 198 390.528046 428.544037 3
0.38554025945737086 0.26561493822394644 0.63145093158448196 108 120 140 616.896057 447.552032 3
-2.5554610479773512 0.17210365692304577 3.8272823553822799 223 255 220 126.144012 302.400024 3
-2.3296697922224148 -2.7236749369989948 4.1910490948979984 255 90 126 171.072021 36.288002 3
-1.9808091413926001 -1.5153841460443824 3.1337400590855617 255 157 175 139.968018 100.224007 3
1.0095217954634601 -0.1410535587364381 1.6849175312242453 117 129 139 616.896057 255.744019 3
0.01475205675547886 -0.24673801490119007 1.1944174428049894 255 204 216 387.072021 207.360016 3
1.011707759480728 -0.81681423824130472 3.5998745109516932 63 105 135 492.480042 198.720016 3
0.84660440929614678 -0.88104219739362466 3.327971726082906 64 106 137 480.384033 188.35202 3
0.022554234221034086 -0.63074561816702313 1.3392305964907514 132 161 197 388.800049 108.864014 3
-0.069980592292566368 0.12045714480887873 0.21986037658603019 203 255 201 262.656036 499.392059 3
1.0827439476292013 0.4000054969939606 1.4313541212780696 69 86 255 673.920105 393.98407 4
-2.8799120354175081 0.17980130310805809 4.2576909416947135 223 255 220 126.489616 302.745636 4
-0.086119656149864832 -0.35059148161300285 1.2164060027470009 31 101 133 356.659241 176.256027 4
-1.7015058109488166 -0.63940589230270917 4.054463585675177 217 255 215 226.02243 226.02243 4
-2.4252237578701141 -1.1427488165710018 3.7635792130105794 228 255 220 134.784012 172.108826 4
-1.8556129834897312 -0.20333090174788165 3.2942952445757507 255 237 238 163.814423 263.347229 4
-2.3221241531510342 -0.35540287814274985 3.6326116294004445 232 234 238 136.85762 250.90564 4
-0.08175793423654476 -0.50632155588268268 1.2550509161682333 205 255 147 358.732849 132.710419 4
-2.5013167283669406 -2.443582452813839 3.88224734436095 96 130 175 136.85762 45.6192055 4
-2.4089749562294238 -1.8601313321662731 3.7969464783317055 172 198 255 141.004822 99.532814 4
1.0095217954634601 -0.1410535587364381 1.6849175312242453 124 134 255 617.932861 257.126434 4
1.254495340665251 -0.13697506973907914 1.5989728734830206 238 239 241 688.435303 255.052841 4
0.0083500590557985532 -0.25649308754088435 1.2361320021934086 219 230 255 389.836853 209.433624 4
0.99530088127683103 -0.79960170244729034 3.5366294217342733 98 128 255 493.516876 201.139221 4
0.83639696438268851 -0.86531334599343479 3.267489785496942 107 138 255 481.075256 188.697632 4
0.0039977303209469683 -0.037589464438887513 1.3076887227257639 255 190 200 387.763245 275.788849 4
0.11736834091687326 -0.4818502778323982 1.2109548511697366 205 255 149 418.867249 132.710419 4
0.14663034535847291 0.34713696196111021 0.76508659775656629 85 97 115 456.192078 462.412872 4
1.213322531172224 0.094586685228522288 1.5331580998569794 145 255 112 690.508911 313.113647 4
1.4291271889433825 0.31734854208913904 4.1507319149052337 92 124 141 516.326477 319.334442 4
-0.01174965585619081 0.42863445438262926 0.72334058041312155 141 148 145 380.713013 515.082336 5
0.98399076146178044 -0.11892059194324639 1.5033579990822705 101 109 255 637.01001 258.785309 5
1.005516838147968 -0.13987662093747222 1.6722510091945313 255 87 98 619.591797 256.296997 5
-2.2577728086908788 -2.0694259149220562 3.5890853387053667 255 122 148 139.345947 64.6963272 5
-1.7344995929496769 -0.76707264989358948 3.8348611660195733 255 118 128 211.507233 209.018906 5
-2.4128967137271808 -1.169697862046112 3.9365526588395099 216 225 255 149.299225 174.182419 5
-0.086794206493931436 -0.51285126483638899 1.27142710221766 205 255 148 358.318115 131.880981 5
1.047619104744318 -0.18631861813626835 3.4313703083137685 41 93 122 500.152405 266.250275 5
0.80462925679213382 -0.27372288030232417 3.5404669331256815 255 54 98 475.269196 256.296997 5
1.1862854000164837 0.085627284381880997 1.4791518943212376 255 122 129 691.753052 313.528351 5
1.1122994601707059 0.045845581394547141 1.5107039100535538 51 255 46 666.869873 298.59845 5
1.1405012839614592 0.30704376178329029 1.4205784046937333 255 211 212 691.753052 373.248047 5
1.2800656265348318 -0.14571805858142378 1.6394289049801289 239 241 255 689.264709 253.80867 5
-2.3934103354346123 -0.28450468367276494 4.1331109264713248 236 238 240 164.229141 261.273651 5
-0.0093077282149610641 0.01099639843435149 0.99215871227983587 255 103 113 383.201324 291.133484 5
-0.076458808607101192 0.035950266396265848 0.59612566879554807 255 116 130 335.923248 311.040039 5
0.01113562811338431 -0.27048795662341552 1.308195553382751 229 255 205 390.66629 206.530594 5
0.96648905601525836 0.070300897412434449 1.5975683360798378 105 255 77 614.615112 303.575073 5
0.38339616952584799 0.37567877511183612 1.1629517109915175 182 185 255 505.129028 410.572845 5
0.69444507530167032 0.16520713800964504 2.3615932393385406 199 196 255 497.664062 313.528351 5
1.002319426755059 -0.79215589870398295 3.5260001643421801 63 99 127 492.687439 201.553955 5
-2.6058841801213068 -1.9053397017149678 4.0125764986586194 162 179 201 136.85762 104.509453 5
-0.003800652739936683 0.41387126623427367 0.6961380660848866 255 160 167 379.220032 516.575317 6
-2.155255658230915 -1.4637995042467475 3.7058920717797559 197 212 255 161.243164 137.355286 6
0.99655470024455894 -0.13894570580113463 1.6475196366077267 106 255 114 618.098816 256.794678 6
-2.538961547099583 -1.959875054617235 3.9693751588494459 153 171 198 140.341278 98.5374908 6
1.1761198450770576 -0.055685247237334923 1.4907596458595964 240 255 235 686.776428 280.682556 6
-1.6180563094406391 -0.72529267214801396 3.6036323774958299 157 164 172 212.004898 209.018921 6
-2.2320016077838787 -1.0950464697181204 3.6746536385334481 215 225 255 149.299225 173.187103 6
1.0657989772572061 -0.18977002821706579 3.5539328343959578 124 255 46 498.659424 265.752625 6
0.018374018690198279 -0.25456176570207656 1.1948944480567183 203 216 228 388.177979 206.032928 6
0.088232855030767943 0.40691719293390305 0.82192607784449701 181 255 173 426.995789 477.757538 6
-0.072197883379817696 0.12166690392572835 0.22210752892909169 203 255 201 262.766632 501.645416 6
0.96648905601525836 0.070300897412434449 1.5975683360798378 87 99 117 612.126831 304.570435 6
1.017043126789138 0.34062584440194932 1.472292485099695 255 93 100 647.958679 376.23407 6
-2.5720030245302095 -0.39166043304446818 4.0124218093674928 232 234 238 140.341278 250.822708 6
-0.072729149696249107 0.035585595345913178 0.59058889814269877 135 255 96 334.430267 310.542389 6
1.4761919191155448 0.12937095782636904 4.2057157639265705 95 122 141 516.575317 301.584442 6
-3.031944170972614 0.18903206017793733 4.4698391890338929 218 227 255 125.411354 301.584442 6
0.71390071303620084 0.39044777499090499 1.1204516277555063 255 42 48 627.056763 426.995789 6
-0.0544116970585381 -0.57307714305017377 1.2924938576489513 201 255 148 370.262085 116.4534 6
0.8404132932062377 -0.8279115062799326 3.2539962719458129 255 72 116 483.729523 197.074982 7
0.018252933959448492 -0.29261324704616937 1.1970241432268824 223 255 192 386.983612 189.90863 7
0.95418716568101125 0.071961606604332151 1.5804580962038579 115 131 255 609.140869 304.570435 7
-1.9176568219893415 -0.39959240935214885 3.8125204172330651 103 255 65 186.325439 243.656357 7
-0.00056020871649486992 0.014447739147398095 0.94355961166463787 255 109 118 379.817261 293.820892 7
1.4088144289945947 0.11687125200380925 4.0174491893115718 255 127 145 515.978149 300.987244 7
1.0783588774449977 -0.20884738925725149 3.5984903082027229 124 255 46 498.062256 265.155426 7
0.99655470024455894 -0.13894570580113463 1.6475196366077267 114 126 136 616.307251 257.989075 7
-2.288660794822341 -1.1016882501128513 3.7424106622515221 224 255 209 146.910446 171.992722 7
-1.3363833071694049 -0.58615686532051847 3.0371368133349468 255 118 128 211.407715 211.407715 7
