ply
format ascii 1.0
comment Written with hapPLY (https://github.com/nmwsharp/happly)
element vertex 88
property double x
property double y
property double z
property uchar red
property uchar green
property uchar blue
property float ix
property float iy
property uchar octave
end_header
0.91418325937452671 -0.430537906513206 0.99656154755070947 184 208 228 736 121 0
0.71334819275586758 0.68699442049623061 1.3797421621605279 255 227 228 583.200012 481.200012 1
-1.8472894775419197 0.79000474290217226 2.5976759813386039 255 71 77 111.600006 405.600006 1
0.68587742506250216 -0.40646489406781372 1.6537416866163595 241 255 225 546 194.400009 1
0.84694727174199103 -0.35740166890129532 1.192626886310598 226 237 255 657.600037 172.800003 1
0.83465072284767072 -0.46607327077539717 1.1482110249619666 255 203 217 663.600037 133.200012 1
0.66316135265445886 0.058509619383185885 1.3793028091396016 251 255 245 566.400024 303.600006 1
-1.3587797124214185 0.66166747057157604 1.7227180763425043 255 85 87 79.2000046 436.320007 2
-0.22061452025575434 -0.2532789320878932 0.67680174660512105 255 80 155 259.200012 142.560013 2
-0.21754833183784239 -0.44754530695342343 0.67210477639293575 144 174 255 257.76001 31.6800003 2
-1.3794747796492328 0.11772602374404967 2.4159651348764823 243 247 250 164.160004 306.720001 2
-0.9269525658007316 0.048223032979427538 1.7496860549046209 244 247 250 180 299.52002 2
-1.0919943096790705 0.69415448309097694 1.166372503222215 255 155 162 27.3600006 515.52002 2
0.83061711036334684 0.59504903296839928 0.9541117261958254 227 227 255 717.120056 528.480042 2
0.7627701387311403 0.11912238496489003 1.1415724133997571 255 241 241 639.360046 331.200012 2
-0.21861777539634231 0.38173855330865802 0.67175040169977862 255 63 74 259.200012 508.320007 2
-2.0457362229332468 0.70396823784536222 2.8002669370921183 255 190 194 103.680008 384.480011 2
-0.57456962058678718 0.70368678106295346 1.1377243082110988 162 255 126 190.080002 527.040039 2
-0.20858145272130724 0.16530168818876809 0.63142703214869123 255 89 103 259.200012 387.360016 2
-1.3590494393976265 0.21569242473339373 2.2144623331953897 255 243 247 151.200012 325.440002 2
0.67372580019871431 0.64495587753505501 1.2870689677892457 228 227 255 585.792053 480.384033 3
-0.21330053753945721 0.20552471660303603 0.64624007200999589 255 117 133 259.200012 409.536041 3
0.2253522485177788 0.14298347453991966 3.6253688300048257 175 197 255 409.536041 302.400024 3
0.61057240116722311 0.088448663602681526 1.5171984748855003 155 170 186 540.864075 309.312042 3
-0.30385174192761744 0.64040321289281088 1.7450223692389573 154 255 66 314.496033 428.544037 3
0.5957179865622293 -0.027235034982624029 1.4578658709628645 251 255 249 542.592041 279.936035 3
0.69420466004543369 0.62779991705534544 1.0896890295426536 255 227 227 627.264038 508.032043 3
-2.1751867087970593 0.75946849085925372 3.0050753228979001 196 193 255 101.952011 385.344025 3
0.86539190578949787 -0.08942233777263553 1.1521370391936321 129 255 110 670.46405 259.200012 3
-1.5393923593650354 0.71280433625382156 1.8069387158736001 109 111 255 57.0240059 438.912048 3
-0.63530612741129389 0.38565444647310498 1.2572513258932521 142 156 176 188.35202 404.352051 3
0.61055125725936743 -0.47308514360466225 1.3776015711498832 255 220 228 551.232056 155.52002 3
0.73487388177094504 0.68649945163514559 1.0567577922808784 228 227 255 649.036865 534.988892 4
0.73769804649141801 0.50154535165560787 1.3685361329562591 226 225 255 593.049683 429.23526 4
-0.25387482311344067 0.52551340536192548 1.3387691778311375 125 155 255 313.113647 435.456055 4
0.75034464536583867 0.68117268574625212 1.1987448630429682 226 227 226 628.300903 508.032074 4
0.69203221038394513 0.63510313198491897 1.1618141223128378 227 226 255 613.785706 499.737671 4
-0.22331631133111163 -0.33240398663390502 0.68707566222674465 255 81 153 259.200043 101.606415 4
0.95645479430923652 -0.21652974937426284 1.1091697643632221 116 140 255 717.465698 213.580826 4
0.60076576547485483 -0.36585470705913425 1.4221351753814142 234 241 255 545.356873 190.771225 4
19.291885340241425 -31.212306828671405 58.729975820555822 223 255 179 514.252869 82.9440155 4
0.68007402472656953 0.62090014413082673 1.1375913306568313 227 255 227 614.615112 497.664062 5
0.27159855432047819 0.21315271165920618 3.0120065194056087 128 200 206 420.526154 313.528351 5
-0.2155879939383496 -0.20657766973689662 0.64855921009560458 180 255 54 258.785309 164.229141 5
-0.16425939331573591 -0.099101055637403124 0.74072624046996882 144 255 46 298.59845 238.878754 5
0.54978606416130416 -0.16769931968843554 1.6823660053117946 255 244 245 507.61734 248.832031 5
-1.8040686442375788 0.25605054364227531 3.024574068401801 255 243 247 151.787537 323.481659 5
-2.5282209006412497 0.75759420886031648 3.9155872860697674 255 99 101 131.880981 365.783081 5
0.71081473681419483 0.63157600059243912 1.1112069446735644 226 226 255 629.545044 505.129028 5
0.80875704518272462 0.56589199194719508 0.96678077380325078 226 226 226 704.194641 515.082336 5
0.8200406246105012 0.47156284475693167 0.944857686566837 226 227 227 716.63623 482.734161 5
0.58351752227688536 0.084508407224227838 1.4252175048019264 185 255 155 542.453857 308.551727 5
0.13274164869741534 0.14812736342183086 3.3089835325287957 198 255 149 406.093903 304.570435 6
-1.5991539564282231 0.78466785662436711 2.2450392816714819 97 100 101 116.4534 418.037842 6
-0.31470639728150118 0.6385632433652767 1.7993715277233511 99 127 255 313.528381 424.009796 6
-0.18942517981705054 -0.20847102837579101 0.56886750340954251 65 159 185 256.794678 149.299225 6
0.66815762774655729 0.1111125804096168 1.3906716877970435 216 255 187 570.323059 319.500336 6
0.83893626759680306 -0.47234232494949147 1.1558645794741942 255 200 215 659.902588 131.383316 6
0.56357140631526859 0.32532128514828729 2.1242104792936454 246 255 241 486.715485 340.402252 6
0.58979489997389423 0.051316571538851219 1.4161984348648682 255 242 245 543.449219 301.584442 6
0.60452736928772666 -0.12318833743982993 1.5236251966852095 246 247 249 540.463196 253.808685 6
-1.4834937259901002 0.23444120465794946 2.792961263085818 247 251 255 173.187103 322.486328 6
-1.2196620306115991 0.10415449314679207 2.1018368657638824 247 250 255 161.243164 307.556396 6
0.59233676940183488 -0.39832465351036139 1.4599744192826352 255 229 235 543.449219 188.117035 6
0.75677403010200561 0.57993859700111006 0.95632465298140712 255 227 227 683.790466 516.575317 6
0.87667227025424888 0.49858846298280968 1.0372750687201329 227 228 227 704.692383 468.799591 6
0.68604372793433632 0.65293929906771198 1.3251588972855313 228 227 255 585.252991 480.7435 6
-1.3668719404353271 0.65640562889853782 1.610243775236933 99 100 102 56.7337074 438.939728 6
-0.20163479918559624 -0.31516630658926847 0.75545035325419541 167 190 255 277.696564 125.411354 6
-2.0178629101063987 0.69013257912204629 2.7181510600248338 212 255 218 98.5374908 385.192017 6
10.105928899504816 -16.105525907936229 29.70408908052071 198 222 255 513.589355 80.621582 6
0.91181737049866096 -0.18687328382013374 1.0981542664365209 255 125 139 707.678345 220.96286 6
0.17221293906879565 0.1626481246922955 3.7663419559594455 147 177 197 404.899536 304.570435 7
0.3872254956497716 0.47300060252411225 2.0473798228428661 146 255 145 458.647247 372.650879 7
0.59284483067726024 -0.33334212803793029 1.4348638883447506 229 236 243 544.643616 200.658173 7
0.59931701726994824 -0.38271423857653841 1.4576789834747146 236 242 255 541.060425 186.325439 7
0.78042720704592239 -0.14391052697178341 1.0250705721115922 137 255 117 670.054993 232.906799 7
0.83580048742415958 -0.46868430569344932 1.145315748085328 255 200 215 659.30542 132.577713 7
0.53623973329311703 -0.18091138602457069 1.4652345752734659 255 242 244 519.56134 236.48999 7
0.64213731099966509 -0.49541111365604018 1.4686971644373283 222 229 237 548.226807 161.243179 7
0.94067529786601156 0.1845609750520954 1.212650752750398 82 96 113 680.804504 340.402252 7
0.7289118291982728 0.56017924243887918 1.0335754316949872 229 229 228 652.139038 494.479065 7
-0.24011423675609578 -0.046434402673566855 0.7745253915411574 162 182 255 257.989075 268.738617 7
-1.1594539149589052 0.71217798582328617 1.5224940174686186 13 22 255 89.5795441 472.97998 7
-1.3816961761246933 0.21776631097590016 2.5401691136439002 255 243 247 171.992722 322.486359 7
-1.4671819946483251 0.11845238327960031 2.5803617578149316 247 250 255 161.243179 308.153625 7
0.53446621623086354 -0.37072157927350768 1.7379208003291833 238 244 255 501.645416 207.824539 7
-2.0153881794937734 0.6848539418778864 2.6557876461811096 205 213 217 96.745903 386.983612 7
