ply
format ascii 1.0
comment Written with hapPLY (https://github.com/nmwsharp/happly)
element vertex 127
property double x
property double y
property double z
property uchar red
property uchar green
property uchar blue
property float ix
property float iy
property uchar octave
end_header
-0.45632465337077166 0.58603471040428345 4.4354850966060821 165 255 114 346 340 0
-0.50381417134236495 0.070174164627008762 8.0181460675634355 115 136 255 361.200012 290.400024 1
-1.0117544543735884 -0.58569755319319206 1.4003149184940007 50 77 108 108.000008 129.600006 1
2.3862602197154255 -0.048692396659775428 2.7197558769429895 73 145 177 720 279.600006 1
1.3633449732095404 -0.28322785524261329 2.1768430475451268 205 255 156 626.400024 237.600006 2
0.21717784622445846 0.53128098982079996 1.0565130343224807 207 255 220 462.240021 480.960022 2
1.1014889539086021 -0.47909865765604676 2.8021018298490548 237 243 255 537.119995 223.200012 2
1.1298698920492576 0.44029485892419462 2.0661408516832385 167 255 123 594.720032 371.52002 2
-1.0577087338436391 0.22844175586059812 2.3772498051050448 146 255 148 210.240005 325.440002 2
-1.1941845102589981 -0.34125937733004508 1.345773801691287 238 255 233 46.0800018 191.520004 2
-1.1105690126818497 -0.22948185103077923 1.509131796113703 255 32 40 99.3600006 230.400009 2
-1.201238033615593 -0.90078029001089166 1.3770702380586859 154 175 203 48.9600029 36 2
2.4308824484539966 -0.057675952735522701 2.7797435408660531 72 145 177 720 280.800018 2
-0.1504296760964734 0.4469835731010029 1.2289569013384036 88 100 112 336.960022 427.680023 2
0.36811307966199913 0.47476961130127388 1.1631603689475911 192 255 178 506.880005 443.52002 2
-0.95812501749140289 0.38860008215793806 1.3611150298880501 255 0 9 115.776009 397.440033 3
1.0100320598010697 -0.47878330816311865 2.7872039800561179 238 243 255 525.312073 224.640015 3
-1.0568610031960319 0.33884105752318705 1.360179870275132 82 97 89 84.6720047 383.616028 3
-1.05898324397611 0.12673016787298896 1.3642649401521725 141 255 113 86.4000092 324.864044 3
2.5313666095824998 1.1172507036146346 5.6056998490639547 255 99 111 559.87207 361.152039 3
1.1167044886262723 0.43763599252354268 2.0461932947917543 167 255 123 594.432068 371.52005 3
-1.0036111837548796 -0.41669975202585541 1.3762584401464228 88 117 255 105.408012 171.072021 3
-0.95677351894272711 -0.54658280204592624 1.317914548307451 80 111 255 105.408012 126.144012 3
-1.0735788456963751 -0.67460162099771004 1.3941974729225937 124 255 79 86.4000092 100.224007 3
1.3336993950280529 -0.076545747003225695 1.9965751579133659 140 176 255 637.63208 273.024017 3
1.0540176644591293 -0.58904223448321313 2.9974177292679203 229 235 241 520.128052 214.272018 3
0.86883589793931648 -0.34223040922589493 2.9049141823288149 255 239 242 495.936035 243.648026 3
-1.1136701427867544 0.45373850190032983 1.2422339423090509 115 137 255 41.4720039 425.088043 3
-0.32559836589979385 0.42577618320719368 1.660967751461536 255 147 160 307.584015 388.800049 3
0.17289558081433398 0.57401165345650051 1.3061605983942655 209 206 255 437.184052 456.192047 3
0.35566916367456702 0.46362155078577022 1.1268390334888596 194 198 202 504.57605 444.096039 3
1.0948246959462926 0.41954876547295339 1.9654313566749142 255 125 141 595.123291 371.174438 4
-0.17162430178603216 0.56180697512464861 1.4768883718640855 233 235 234 340.070435 433.382446 4
-1.0364305030681846 0.22633421887724814 2.2971242119707727 151 157 255 209.433624 325.555237 4
-0.34497015777234497 0.27795541523775102 1.5978444212302572 125 144 156 300.672028 352.512054 4
-0.93438153625584697 0.45478914609417964 1.526043094871258 161 161 255 149.299225 402.278442 4
-0.48570117615317177 -0.081583657974102164 1.4708231557281515 117 140 255 257.126434 265.420837 4
-1.2266404853065023 -0.016907942884455296 1.3999061094077945 244 245 255 45.6192055 284.083252 4
-1.027271644982624 -0.73484835254295944 1.3939951178135619 78 108 255 101.606415 87.0912094 4
-1.0425758012865183 -0.90771531403007333 1.4003906340884757 68 94 255 97.4592133 39.398407 4
0.08215502944971953 0.0063939685790162515 5.5182996275883518 255 95 117 387.763245 286.15683 4
-0.43206798360201182 0.26412080222249135 1.4485329243233172 190 194 255 269.568024 358.732849 4
-1.0604428709739078 0.044282883878328905 1.3851618590802062 104 127 255 89.1648102 300.672028 4
-0.95435454059556113 0.39472435857326438 1.3653880250934831 0 0 0 116.121613 400.204865 4
1.2403676886504575 0.27250651048438346 1.9402571975135148 153 255 124 630.374512 346.29126 4
1.3604122604308913 0.10293753843899876 2.0088466783072292 102 124 154 644.889709 308.966431 4
2.4595903406249708 -0.062058209163981221 2.8195137177672018 255 79 148 719.539307 279.936035 4
-0.98744527345906485 0.40471766418367383 1.4178373415700256 0 255 0 114.462738 398.131256 5
2.4852301751986592 -0.063704233498241447 2.852219322583557 255 81 149 719.124573 278.691895 5
-1.1948358025814159 -0.72053482973197058 1.3573410143523481 255 177 193 47.2780876 84.60289 5
-1.2243905619925464 -0.82895827054264459 1.4154120343491781 255 147 174 47.2780876 62.2080078 5
0.061144408130953121 -0.012574834804882973 5.8743877035548646 95 118 137 388.177979 286.15683 5
0.65963631089524633 -0.5933831559924192 3.2545602034701213 201 213 255 457.850952 216.483871 5
-0.34810391935449347 -0.30758878862495842 1.4800894889506719 222 231 239 288.645172 206.530594 5
-1.2001440145167641 -0.50427210944238832 1.3810130093071384 255 227 230 47.2780876 146.810898 5
-1.1854751023692902 -0.57622755342428644 1.3593271347309601 255 202 211 47.2780876 126.904335 5
-0.31084423626075841 0.44260113160085945 1.3394349204584075 183 255 173 298.59845 413.061188 5
-0.50089627485584787 -0.51109990990238985 1.3729782450178898 213 228 255 241.367081 146.810898 5
-0.62602657153635288 -0.065735690948455883 1.6307197390449604 99 109 135 236.390427 271.226929 5
-0.40327785431272689 -0.23516508004474646 1.6945560207834154 243 255 232 298.59845 233.902115 5
-0.98424426871024151 -0.26376000484165241 1.3351307029612398 112 255 64 102.021133 213.995544 5
0.32308773630101562 0.51161298404136502 0.97453281099519629 125 136 151 512.593994 487.710785 5
-1.0364305030681846 0.22633421887724814 2.2971242119707727 164 170 255 209.018906 323.481659 5
-0.91362957451248539 0.0091055495019511934 1.3678207329246548 255 51 71 131.880981 291.133484 5
-1.0527831832286947 -0.21627268854191795 1.4156733673045743 53 82 255 97.0444946 228.925476 5
-1.1754639799329376 -0.16161949355509242 1.3539287212562017 160 169 182 52.2547264 238.878754 5
-0.56836475787916019 -1.9260746130534931 4.2175491538015377 191 218 255 333.434937 111.974419 5
-1.0696811836164275 0.037707569715854872 1.554933107525406 105 255 58 114.462738 296.110107 5
-0.16789857869774538 0.54724637637794182 1.4524804251549241 220 222 222 340.899902 432.967743 5
-1.048116895784331 0.34268772127113867 1.553828258938839 255 13 13 119.439377 373.248047 5
1.1889220019378515 0.50745398209418346 1.7745353317572405 61 73 255 641.986633 400.619568 5
0.91306450970929409 -0.37317708308004816 3.1906927375524985 255 240 242 495.673431 238.878769 6
0.71134362141641994 -0.67305751925869384 3.6986056291134206 166 185 200 456.855652 217.976868 6
-1.0197963658102531 -0.64973009189130104 1.3721259107361106 106 255 44 98.5374908 107.495445 6
-1.0010288284068958 -0.80386949597600199 1.3624829762287103 70 88 115 104.50946 62.705677 6
-0.37435553938422661 0.28876506046062167 1.7569817349336052 127 255 66 298.59845 352.346191 6
0.059709906367697574 0.00045114966726100825 5.7151733642820925 95 118 137 388.177979 286.65451 6
0.40982384085076395 -0.51530545794837823 3.7874121202392486 170 255 125 426.995789 229.920807 6
0.39334354757260792 -0.50010706450994125 3.9961139817475528 128 133 255 421.023834 238.878769 6
0.83201041750658566 -0.53200241237918222 2.9956999408472793 255 235 238 483.729492 220.96286 6
-1.3968180884089088 -0.11394457421234983 2.9431066648951205 215 216 216 200.060959 271.724609 6
-0.36689539133740157 -0.32465791126067811 1.5610502712709748 255 223 231 295.612457 206.032928 6
-0.54416420295963963 -0.45937707197598843 1.5120679644437813 226 234 255 241.864746 170.201126 6
-0.54096897398569199 -0.534925046618559 1.4940232555386839 229 255 202 238.878769 149.299225 6
-1.0769805044921221 -0.12930598081536693 1.400035432954462 126 255 77 86.5935516 250.822708 6
1.2208621069122483 -0.45111701785727698 2.0543992756763707 255 225 232 615.112793 203.046951 6
-0.61264101124299586 -1.4213756817555574 3.8138090253234838 255 116 135 319.500336 146.313248 6
-0.24429608214489074 0.21315562014744743 2.7154279551718616 117 137 255 349.360199 313.528381 6
-0.57560196002985853 -0.056174717464192336 1.4837520277246847 255 107 117 235.892776 271.724609 6
-0.31171568018111673 0.44276670843691035 1.1706406018127979 219 222 226 280.682556 438.939728 6
-0.30050140412865689 0.44470709386573226 1.3598632791598133 187 255 173 298.59845 415.051849 6
1.1119788754896898 0.53928906938752963 1.8079048535307125 22 38 255 621.084778 403.10791 6
1.0749051045582312 -0.36917218475946889 2.4468117143824397 239 242 245 552.407166 232.906799 6
2.4148142701596846 0.23953959754006224 3.0617496296618212 162 255 73 686.776428 319.500336 6
1.3219779318589446 0.10525531666054572 1.9335413814404827 101 123 153 644.972656 307.556396 6
-0.2508474232417548 0.35073358400140509 1.3007612155194592 255 146 159 307.556396 391.163971 6
-1.0373507191433649 0.32435456573543142 1.3122145107926388 255 89 105 83.6075668 382.206024 6
-1.2460461832533749 -0.37902313589464232 2.4131960360827076 255 226 227 179.159088 232.906799 7
-0.33847636546092863 -0.42804742003719565 1.3943971226366538 221 233 255 297.404083 171.992722 7
-0.52629286305676493 -0.44316724265787966 1.4762919663992138 255 221 227 243.656357 171.992722 7
-0.87081582964261406 0.23933047067128443 2.2062788514309712 115 130 255 225.740448 333.235901 7
-0.34162404140317193 -0.29936573478820849 1.4558713293983585 232 239 255 293.820892 207.824539 7
1.0740000168040607 -0.68906272136472446 2.2634638264005007 235 255 213 566.1427 179.159088 7
0.30637344902752672 0.30956112153928816 4.491437409137232 137 153 169 404.899536 311.736786 7
-0.59046896261470172 -0.065513788070841295 1.4983538673532451 164 168 179 232.906799 268.738617 7
-0.99910334089384767 0.28022151186519084 1.2714742981130707 101 115 255 85.9963608 372.650879 7
-0.26387937967110853 0.36910984123584489 1.4137909399315651 142 156 165 308.153625 390.566803 7
-0.5544336564808221 0.42960759580538432 1.1603425686119317 196 196 196 204.241348 433.564972 7
-0.15653656022290718 0.51622636767647156 1.417016839048399 233 235 234 340.402252 433.564972 7
-0.4872768103688272 0.42184974073438464 1.2113210217207016 154 170 255 229.323624 415.649078 7
-1.0558160061693411 0.21602475956751532 1.9446454822405874 255 173 177 175.575897 326.069519 7
1.3435570894766904 0.1750119114921867 1.8112288860865613 158 255 61 670.054993 318.903168 7
1.2184749490460198 0.2635588916423085 1.9056980249435735 147 255 109 630.639954 343.985443 7
-0.90610333861195658 0.41267744768063119 1.4512273115608929 174 255 156 150.493622 401.316345 7
1.5282494923748755 0.55945425643618241 2.0034237855431432 26 38 255 677.221313 401.316345 7
0.056248468094681758 0.40212836567379795 2.3006837564549532 82 255 35 390.566803 354.734985 7
-1.0448482174113809 0.015078571341437197 1.5170262874121607 113 255 66 114.661812 293.820892 7
-0.74288026838811527 0.44534819680873006 0.91928450048408594 255 141 155 75.2468109 469.39679 7
1.22588308283533 -0.68561612734105437 2.3112275972406469 255 217 225 587.641785 168.409531 7
0.94864578983967951 -0.43815128482036636 3.3333296714389489 245 255 238 498.062256 236.48999 7
0.037604633307644075 0.019134317675352619 5.7589991869648536 137 255 95 386.983612 286.654541 7
1.2784676589130022 -0.050276196790654787 1.9062883530299581 145 176 255 637.806335 279.488159 7
-1.0030120720506801 -0.57122530657011805 1.3451350765835834 52 79 111 100.329086 125.411354 7
-1.0517172864785667 -0.74041138212050517 1.4176542674659043 50 76 105 100.329086 85.9963608 7
-0.64461827593255983 -1.3595185603454834 2.7940513778276177 191 218 255 297.404083 107.495445 7
-1.0654095100119125 -0.21444115221741178 1.4305398423075681 34 42 70 96.745903 229.323624 7
-0.65902322868793739 -1.0663742068595772 4.4086846603415211 140 255 97 322.486359 197.074982 7
