ply
format ascii 1.0
comment Written with hapPLY (https://github.com/nmwsharp/happly)
element vertex 190
property double x
property double y
property double z
property uchar red
property uchar green
property uchar blue
property float ix
property float iy
property uchar octave
end_header
-1.078304485075976 -0.45134987204773425 1.6243159907744547 255 75 95 127 181 0
0.32636622004546112 0.43469407002662042 1.2723245493299165 153 165 184 484 418 0
-0.19613474709657197 0.51408601213771765 0.82568603129364382 53 73 92 292 529 0
-0.73478524298556902 -1.6106343075332838 4.6836450371243217 207 222 255 325 154 0
-0.42681855165279092 0.2457732554505305 1.4945779612925021 227 255 232 274 352 0
-0.97045971597178138 -0.61979775579825658 1.4416951461054217 255 56 85 127.200005 123.600006 1
0.99897272638849566 -0.44195518539631162 2.6770603018996315 239 244 255 525.600037 225.600006 1
0.23115015801773109 0.39901079652308014 3.2356908762309784 146 255 108 410.400024 337.200012 1
-1.0717263831845631 -0.093565602793588165 1.5785708522782684 255 76 100 123.600006 265.200012 1
-1.2564526234921267 -0.18587053004447163 1.574697455289026 240 241 244 76.8000031 242.400009 1
-0.55486888682836222 0.061512659148601906 7.976809125806712 139 255 96 358.800018 289.200012 1
0.27917723299870101 0.32365410193280508 4.7246711347920192 171 185 255 409.200012 315.600006 1
1.2582121006651921 -0.51993651532323804 2.3362968225972729 255 222 231 587.52002 203.040009 2
0.04961366381283594 0.5297573766028989 1.2228941002690346 208 208 255 397.440002 453.600006 2
1.3253342818866354 -0.28483403213674602 2.306063702187731 255 120 154 603.360046 239.040009 2
0.8421270447653878 -0.34956044275307868 3.0641398581246291 243 246 255 489.600006 246.240005 2
-0.64995480008822515 -1.4466194584062879 4.0754284434822923 228 255 190 322.559998 151.200012 2
-1.2049122728610637 -0.72014552888741123 1.4690856508303138 221 255 194 70.5600052 102.240005 2
-0.34593208934361819 0.4156589218563066 1.7937320090675746 255 152 166 311.040009 377.280029 2
0.4364541820248049 0.44124876823818199 0.78380085449383241 113 127 148 600.480042 504.000031 2
-1.0243522932123157 -0.3597920869122761 1.528012452168626 123 255 89 126.720001 198.720001 2
-1.2107533030205362 -0.90163848616268538 1.5007819176029402 150 176 207 76.3199997 57.6000023 2
-1.2792682349193241 -0.99809239896697854 1.6116102882175647 255 150 174 79.2000046 48.9600029 2
-1.0490821793098695 -0.97891816207765547 1.5651102108560311 81 255 47 126.720001 48.9600029 2
-1.0133638910587637 -0.5805946052583919 1.5026055949190571 114 255 59 126.720001 141.12001 2
1.3506233854232805 -0.086557582961420965 2.2446266025774975 150 192 255 617.76001 273.600006 2
2.2967925670464244 -0.055748699739000734 2.7807637096609135 176 255 78 698.400024 279.360016 2
0.028688677532403783 0.0077879865341249077 5.849361320635218 95 117 137 384.480011 286.559998 2
-0.0040587857053653309 0.58996405768181015 1.3904283045065355 255 198 212 383.040009 453.600006 2
-1.0726436497429517 0.32717184709622965 1.4930209733673228 255 56 67 107.136009 371.52005 3
-0.38949475975750225 -0.33225217420879793 1.7077442760929853 240 255 224 298.944031 210.816025 3
-1.2467490027323525 -0.027210328650234511 1.535783225983733 244 245 246 72.576004 279.936035 3
-1.1125469126169985 -0.69318469514948533 1.566835555276417 70 95 120 108.864014 115.776009 3
-1.2147108592940405 -0.72969207416278026 1.4967386727847432 198 208 222 72.576004 101.952011 3
-1.2292470329994378 -0.17682697439696204 1.5421828864236549 240 241 244 76.0320053 241.920029 3
-1.0569305288417086 -0.18003166178935032 1.542354069686628 41 49 78 120.960014 243.648026 3
-1.0493642318893901 -0.9752609201364062 1.5592680560917396 81 255 47 126.144012 48.3840027 3
-0.97025913298158839 -0.55149755276164703 1.4474908491648923 255 55 83 127.872009 141.696014 3
2.2967925670464244 -0.055748699739000734 2.7807637096609135 176 255 78 698.112061 279.936035 3
0.015862448024899001 -0.018008473130002506 5.7061905107904245 255 96 118 387.072021 285.120026 3
-0.22152277364633366 0.61317212056078474 1.8577210111789428 236 255 235 338.688019 418.176025 3
-0.45960623930802402 0.25826413396020076 1.606785987747795 232 232 255 273.024017 349.05603 3
-1.0256739515661337 0.20690471303334762 2.3736251600824287 255 147 152 219.456024 321.40802 3
-0.20189384918558018 0.47244570648143319 1.5400335181254365 85 102 255 333.504028 407.808044 3
-1.0831675373025025 0.11837361536881275 1.5084946316144432 88 104 121 108.864014 317.952026 3
0.34577424338968377 0.46797265810914768 1.3072773433457598 255 155 163 487.296051 425.088043 3
-0.3710949836854458 0.46820098688322515 1.6156506685426351 174 255 141 294.451233 400.204865 4
0.33524374360800824 0.45793784434655699 1.2768821094901011 161 180 255 485.222473 425.088074 4
-0.58310825313010728 -1.3856384112171409 3.8185670019012203 255 190 210 323.481659 151.372818 4
-0.28331558523724798 0.35346133764543897 1.829815106030928 255 134 146 323.481659 362.880066 4
1.0905525383722705 0.43245944756379995 2.1948587476843686 153 255 111 574.387268 362.880066 4
-0.49834851417141479 0.42301602677939293 1.3522386638222752 223 255 225 246.758438 408.499268 4
-1.0126143673451367 0.47009667434865587 1.7694796871484648 255 31 38 163.814423 389.836853 4
-1.0278106143031893 0.39685620852020487 1.5824858663790367 24 255 50 134.784012 385.689667 4
-1.0493642318893901 -0.9752609201364062 1.5592680560917396 55 64 91 124.416016 47.6928062 4
-1.0168023133154325 -0.4227589832897265 1.502078539378561 124 255 76 126.489616 180.403229 4
2.3966718817366943 -0.064591793370582351 2.9352480462440953 176 255 78 698.803284 279.936035 4
-1.2303337497230276 -0.96722947020325289 1.5444230884814125 205 255 151 78.796814 47.6928062 4
-1.2262582233727342 -0.91142421781258776 1.5300600452360191 150 176 207 76.7232132 58.0608063 4
-0.36962479026162187 -0.31467173016611144 1.6241768321346641 240 255 224 294.451233 211.507233 4
-0.49752224334105533 -0.75572705680068486 1.9166319607947324 255 179 203 279.936035 134.784012 4
-0.8545597356226482 -1.7286757024988495 3.6777493824023972 218 255 166 294.451233 109.900818 4
1.0266816018467968 0.55514135155788236 1.1515591605786075 73 91 255 725.760132 472.780853 4
-0.57958679733316698 -0.068631886232447453 1.5917049252935649 223 255 223 242.611237 269.568024 4
1.080570298542153 -0.37849249437502097 2.7431121062575432 238 241 245 532.915283 232.243225 4
0.015862448024899001 -0.018008473130002506 5.7061905107904245 118 138 255 385.689667 286.15683 4
0.34871139290898756 -0.48057418060368207 3.6335482778906645 168 255 163 418.867249 236.390427 4
-0.19472945326245039 0.55616921284067 1.6284567354588724 236 236 255 337.996857 418.867249 4
-1.2292470329994378 -0.17682697439696204 1.5421828864236549 244 255 241 74.6496124 242.611237 4
0.8332951047800371 0.5515847073854242 1.0087681759517997 126 255 90 698.803284 499.737671 4
-1.2739787051799496 -0.41317408048728277 2.5714104862337619 226 227 227 196.992035 230.169632 4
-0.22051997754358243 -0.0025087987567248005 3.1226481407634585 139 255 96 358.732849 290.304047 4
0.56547307348168907 0.54176061861202895 0.86753793913271293 158 255 119 634.521667 530.841675 4
-1.1366885984225821 0.44531469524455924 1.3840960396120594 119 127 143 68.4288101 408.499268 4
1.3374664278329289 0.098773922216288071 2.1656491341027975 174 255 115 622.080078 306.892853 4
0.14234874750348525 0.38018052781483735 1.9289534437683349 129 120 255 413.061188 360.806458 5
1.1579397714407995 0.43059958241646484 1.9193661835986253 65 255 48 614.615112 375.736359 5
-0.61536383780904025 -1.8419202440812166 4.6742582102323125 204 224 255 333.434937 136.85762 5
-0.27442082131217749 0.34567941793258972 1.4554819319016592 170 177 255 313.528351 375.736359 5
0.1622956835051903 0.42597521220436596 1.4139472575746708 120 255 100 430.479431 405.596222 5
1.0730811323953358 0.41687762755553415 2.1258937654711625 99 119 255 577.290344 365.783081 5
-0.95642804906369516 0.38356142277540384 1.4684262473026175 24 255 50 134.369293 385.689667 5
1.051177307657873 -0.37415159486176197 2.6052071813149276 244 255 236 534.988892 228.925476 5
0.88496068750474799 -0.38075156313772007 3.3498909524474429 255 240 243 487.710785 243.855392 5
-0.93465271775588565 -1.8966296358903989 4.1177750428920596 219 255 167 298.59845 109.486099 5
-1.063408800650266 -0.18083310235288552 1.5371938586157068 46 53 79 116.951057 241.367081 5
-1.2362434695905535 -0.22676906903960209 1.5536965242609626 241 244 255 77.1379318 231.413788 5
-1.0527714980628939 -0.96467642714167678 1.540434817867157 63 91 255 121.927696 47.2780876 5
-1.2303337497230276 -0.96722947020325289 1.5444230884814125 255 150 174 79.6262512 47.2780876 5
-0.42318889490467271 -0.67857277398312899 2.8126183314802944 255 230 234 323.481659 199.065628 5
-1.0107813308054743 0.38961186894577499 1.1875930393582244 208 210 255 57.231369 415.5495 5
1.0493948761689706 -0.47589083028287193 2.9207714355348839 238 243 255 525.035583 223.948837 5
-1.0607452898440521 0.21892736808341795 2.4315288357822533 161 255 150 218.972198 323.481659 5
-0.18478522190033231 0.53440198374738657 1.5614766251039023 231 255 230 338.41156 415.5495 5
-0.51674393338075486 -0.091301250738719503 1.6304203802991823 133 255 101 258.785309 263.761963 5
-0.59912938295547802 -0.062566848080485238 1.6284345329116463 224 225 255 241.367081 268.738586 5
-1.1417722492617157 -0.39162581555642806 1.6876382918372279 100 111 134 124.416016 196.577301 5
-1.041116546520275 -0.42369360163843883 1.5089375323685283 105 131 255 121.927696 179.159058 5
-1.2064119222085656 -0.58543422718846438 1.5000656471409166 231 255 212 74.6496124 139.345947 5
-1.0244180750957925 -0.65115543001610043 1.4888213554232728 90 115 255 121.927696 121.927696 5
-0.60528692478643809 -1.9407228817497399 4.3913118119513372 195 220 255 333.434937 116.951057 5
-1.1356064211739687 0.33036606615448283 1.584645974198807 75 255 59 106.997772 370.759735 5
0.30361267718085472 0.50638408595264495 1.1252693659749027 255 137 147 487.710785 457.850952 5
1.3040926936993091 0.10710865941150445 2.1039122403306152 123 146 177 624.56842 303.575073 5
1.1598976298515746 0.18038316148531103 2.1287491199114141 125 255 75 594.708557 316.016693 5
-0.33246614747913616 0.43548392038253192 1.4675038749404004 146 157 176 296.110107 400.619568 5
0.15995947850384784 0.53549447164779307 1.2710168482591264 194 207 203 432.967743 452.874298 5
1.1922262734118745 0.51254263303893632 1.9956885856980042 173 175 255 617.103455 388.177979 5
0.94272029218471154 0.582099276782022 2.0108653501439093 255 74 109 567.337036 400.619568 5
-0.21795224433040739 0.49263957318237772 1.6264128514477258 86 103 255 333.434937 408.084534 5
-1.0546346722011606 0.35928634841104956 1.9064606357935174 44 26 255 169.20578 360.806458 5
-0.68704365828798686 0.47116231392259822 0.791081578567157 105 128 255 49.766407 517.570618 5
-0.64283996802819265 0.13294839044192197 1.7305210799538173 134 255 102 238.878769 316.514374 6
-0.3342481444964247 0.43636083469118131 1.3169186857170976 255 205 208 283.668549 409.079895 6
0.010969732861090709 -0.0012930228458751525 5.9507916770639095 118 138 255 385.192017 286.65451 6
-1.1834475525718355 -0.71712716358077022 1.4581952063548247 255 196 207 71.6636276 101.523476 6
-1.1064131880479349 -0.94579462579823881 1.6021391519908281 49 59 87 116.4534 59.7196922 6
-0.56633707127317034 -0.4672280190845437 1.6572760768359291 238 255 231 250.822708 179.159073 6
-0.51731745953857811 -0.094165904892039437 1.6230475585752604 255 102 111 259.78067 265.752625 6
-0.61537414145399705 -0.072755713757817114 1.6456901801369721 224 225 255 241.864746 268.738617 6
-0.37193428076838586 -0.21858785176587892 1.6034236533873991 234 238 244 292.626495 235.892776 6
0.96545903222776519 -0.4885623042663606 2.9381555150096714 255 233 237 507.617371 223.948837 6
1.0497732163286106 -0.69627826781561852 2.4207808663920973 229 236 255 549.421143 176.173096 6
-0.55705317027766821 -0.54037384731089921 1.6306229878135463 232 255 210 250.822708 161.243164 6
-0.93465271775588565 -1.8966296358903989 4.1177750428920596 219 255 167 298.59845 110.48143 6
-1.2292470329994378 -0.17682697439696204 1.5421828864236549 241 244 255 77.6355972 241.864746 6
-1.4413665585339013 -0.12137740362272309 3.124163613186048 224 224 255 209.018921 268.738617 6
-0.90827440260069592 0.001004049981001981 1.4645277909614487 98 117 255 149.299225 286.65451 6
0.32079533906667779 0.32779698781713806 0.806499878981628 156 255 119 534.491211 441.92572 6
-0.22212703918005428 0.55325172478346185 0.91424226559224131 98 130 152 292.626495 516.575317 6
-0.58372311284761835 0.44394150037533087 1.3524020797162635 210 255 209 214.990891 412.065857 6
-0.62871607674946173 -1.4125208431917238 3.9056789465671029 255 189 210 319.500336 149.299225 6
-0.60834926273211121 -1.9755688942492799 4.4738432009705518 255 169 196 331.444275 119.439384 6
-0.77190163308815318 0.44404131447195022 1.0797395602321846 180 255 145 110.48143 441.92572 6
-0.91129396179066324 0.43811096976539071 1.0529500582821227 228 229 227 56.7337074 444.911713 6
0.028647252170501902 0.39417085263678386 2.4406408377734072 47 73 96 388.177979 346.374207 6
0.24506517906517833 0.25811406061014069 3.8607475191924445 180 255 150 406.093903 310.542389 6
2.3987332842836278 0.24221903436334438 3.2423474917729589 137 163 255 665.874573 310.542389 6
-0.39549002361954777 0.27905090534289634 1.8844723192527262 61 77 255 301.584442 343.388214 6
-0.27378174022598634 0.20616468992900142 2.8676625278089478 118 139 255 349.360199 316.514374 6
-0.43000073575483899 0.23521392486317552 1.4746248009777467 255 204 205 271.724609 349.360199 6
-1.068474251411569 0.54158161398587468 2.5308899328101893 255 192 196 223.948837 367.276093 6
-1.0607452898440521 0.21892736808341795 2.4315288357822533 196 255 198 214.990891 325.472321 6
-1.0688117072210135 0.027430758690626722 1.6531988269012206 126 255 81 134.369308 292.626495 6
1.352006503113512 0.46546860580942068 2.061737261005864 38 45 57 636.014709 373.248077 6
-0.32505507595861172 0.43847171789313499 1.5104002278161777 151 167 255 301.584442 400.121918 6
-1.1564634974196553 0.3428790995933706 2.3085939354342191 108 113 127 188.117035 349.360199 6
-1.0308827404107452 0.34170286117678017 1.6772555660314552 35 255 22 146.313248 367.276093 6
0.67139411755854805 -0.66404586364341378 3.7724097768959224 162 255 64 450.883667 220.96286 6
2.4320453670748536 -0.065435516694985874 2.9814713624988975 176 255 75 698.720398 280.682556 6
-1.0126423210553295 -0.57645461011367749 1.4664744260116183 255 65 89 119.439384 140.341278 6
-0.71337781949519385 -1.0920192816248862 4.659813880527742 239 255 232 322.486328 200.060959 6
0.91982336102282547 -0.4428648056901936 3.4811570114703105 255 240 243 487.312714 240.073166 7
-0.0067298103038959667 0.019360662987692789 5.9320056253473687 255 94 116 383.400421 286.654541 7
0.35984032552551426 -0.50887022767966705 4.1694719311348045 255 159 171 415.649078 243.656357 7
-0.35948279191120003 0.23309148239056118 1.6588686767191483 79 73 85 300.987244 343.985443 7
-0.83432327976078646 0.21506608121173579 2.1758732814833364 120 123 137 240.073166 318.903168 7
0.83301823206509595 0.55478404577155316 1.0040615183229922 255 95 112 695.137207 501.645416 7
-0.42704547629210632 0.50240188709343481 1.6518133042643521 181 255 173 286.654541 408.482697 7
-0.26863278923244138 0.0079230015857780778 3.6383174966247429 139 255 96 358.318176 290.237701 7
-1.065293941691817 -0.11248281634839258 1.5379874157508984 124 255 81 118.244995 261.572266 7
-1.0857069908560879 -0.22419690824119382 1.56954556043849 86 255 50 118.244995 232.906799 7
1.3815930492087571 -0.068141173118790255 2.3518485207565272 117 149 188 616.307251 279.488159 7
-0.62871607674946173 -1.4125208431917238 3.9056789465671029 227 255 190 322.486359 150.493622 7
-0.61537414145399705 -0.072755713757817114 1.6456901801369721 223 224 225 240.073166 268.738617 7
-1.2700486224169474 -0.38779017160004126 2.5502465760635031 228 227 255 197.074982 232.906799 7
0.83073102391167986 -0.57008220195795212 3.4192644857325982 238 240 244 472.97998 225.740448 7
-0.75180541035263193 0.42340104606782641 1.0392786458563537 255 145 160 111.078629 440.731354 7
0.4290690346894861 0.43942706429289741 0.77871904929952285 146 255 110 598.391357 505.228607 7
-0.70301170258353007 0.37406956638816069 1.6783219352140093 191 255 208 222.157257 365.484528 7
0.26779013925275263 0.28690500550388937 4.2130627383025434 134 149 166 404.899536 311.736786 7
1.1849138065805331 -0.45196778744403898 2.1834239117100029 255 225 233 591.224976 207.824539 7
1.0820001763418925 -0.47006443559315414 2.1688973295638387 233 240 255 573.309082 207.824539 7
-0.363362711615415 -0.30654579829048306 1.6009412507117613 234 241 255 293.820892 214.990891 7
-0.35393025771979758 -0.43397313190623277 1.5273573241958669 225 235 255 297.404083 179.159088 7
-0.53985281868465362 -0.44839353174805252 1.6056156023162762 238 255 231 250.822708 179.159088 7
-1.0116060756550898 0.21798139306179692 2.2873973768443028 198 255 197 214.990891 326.069519 7
-1.0363087113850504 0.11809843290386601 2.2070765497258638 176 174 181 204.241348 311.736786 7
1.4800452650625866 0.54801670668799374 2.1228747675776809 112 128 144 652.139038 390.566803 7
-0.18707767275821308 0.51506689755289958 1.582730923140546 230 231 231 336.819061 415.649078 7
-0.57402783315396899 0.44399667523553427 1.1773528751610067 166 186 255 193.491806 433.564972 7
-0.2856212545277983 0.35896587164283789 1.5381828311423686 255 152 167 311.736786 376.23407 7
0.15921556903505896 0.37493511497530563 1.1610454578951188 95 103 255 433.564972 404.899536 7
1.1957653315162498 0.2601210511486548 2.0592221627822909 99 122 255 605.557678 336.819061 7
-0.96519207768148929 0.41300403062025554 1.6635328086559213 37 46 17 164.826355 386.983612 7
1.1941695967425505 0.47914886377933391 2.0637581401828884 38 53 255 609.140869 376.23407 7
1.0183976166811035 0.40438070616126792 2.0388175527581369 78 89 109 576.892212 365.484528 7
0.65888018300082662 -0.65526478990807679 3.792233348882089 255 76 120 447.897705 222.157257 7
2.3437309709778016 -0.0625719143301465 2.8714352881002227 255 86 150 695.137207 283.07135 7
-1.0150408067730341 -0.64134175303204088 1.466558880989655 120 255 71 118.244995 121.828178 7
