ply
format ascii 1.0
comment Written with hapPLY (https://github.com/nmwsharp/happly)
element vertex 107
property double x
property double y
property double z
property uchar red
property uchar green
property uchar blue
property float ix
property float iy
property uchar octave
end_header
1.0401856343161238 -0.074860348621918371 1.5280729298325646 103 147 182 644.400024 271.200012 1
0.54049328211463199 -0.25351326027279242 2.8939016657114864 202 255 150 454.800018 255.600006 1
0.58223677475144031 -0.025959400925849807 2.6400722960914136 250 251 255 469.440033 283.680023 2
0.63417893564769612 0.52953019314404948 2.0717763508750862 156 173 255 501.120026 384.480011 2
0.89621328419105151 0.55686892427833401 1.8242704910992913 255 22 34 571.679993 403.200012 2
0.3595968282603792 0.16629541810266302 3.9252521318148661 155 175 196 420.480011 303.840027 2
-0.38003036831363746 -1.6109878023462312 2.8290364912043611 149 168 190 332.640015 69.1200027 2
0.83888056334455707 0.3984004645230706 2.4090677928718032 138 153 169 516.960022 351.360016 2
-0.39740570018552912 -1.5110672840156865 2.8727466355388689 255 119 143 331.776031 82.9440079 3
-0.43598468976327753 -1.7779696708363457 3.132787827201982 255 124 143 331.776031 69.1200104 3
0.9857753466897442 0.61097705966089677 2.0399862784692795 58 255 22 570.240051 402.624023 3
1.0641449699598708 0.38958671757011748 1.55251466345642 158 185 255 649.728088 385.344025 3
1.0086987239065892 0.35289918980624091 1.6280158416844728 255 89 100 623.808044 371.52005 3
-0.48709725460848974 -1.3514825237980244 2.7525412335046644 155 151 255 317.952026 100.224007 3
-0.74165793045712824 -1.7744197610523171 2.657981127794395 179 255 174 278.208038 34.5600052 3
0.88037273248667136 -0.5898151670683206 2.52445276390291 228 234 241 520.128052 196.99202 3
0.54157325726178041 -0.47999444380085121 3.123944793621372 155 173 255 449.280029 229.82402 3
-0.069869776433232778 0.65625323034915539 1.3750916724560041 105 129 255 361.152039 473.472046 3
0.38187291523187783 0.6144955520472053 1.5991872938867528 155 163 178 476.92804 435.456055 3
0.78602138590597792 0.37598194011292851 2.2469430201291853 141 155 171 516.672058 350.784027 3
0.25899165755073761 0.71434003760033415 2.5077260988443868 176 255 136 426.81604 399.16803 3
-0.47655112971712166 -1.883390597074091 3.3550671304759145 255 125 143 331.776062 68.4288101 4
-0.44754288056045999 -1.311985621772112 2.6512789857900838 155 151 255 317.260834 99.532814 4
-0.37732535085854213 -0.89798062574049653 2.8040530057202426 136 154 255 329.702454 161.740829 4
0.19286600360221895 0.084869104120274319 4.4761004306419334 156 176 194 400.204865 292.377655 4
-0.10776479536532824 0.45952563881335151 2.0233974885139689 175 184 190 364.953644 375.321655 4
-0.42168583253065517 -1.8011042074471444 2.9273708669615246 255 135 146 327.628845 49.766407 4
-0.22566004996248168 -0.099818521796427251 0.255036835104967 255 0 0 43.5456047 136.85762 4
1.1989501583230715 -0.43973114404019553 1.7752461003227662 242 255 232 642.816101 192.844833 4
1.2143597033891098 -0.39958875304452557 1.6102406004574625 255 230 234 675.993713 192.844833 4
0.54601449607747199 -0.45744976135905113 2.4968696458979034 245 255 240 466.560059 217.728027 4
1.2113960043858496 -0.81811910824412637 3.5223262199933414 228 234 241 520.473694 196.992035 4
0.62216163618853693 -0.57478673864784224 2.6152363320550878 238 240 245 472.780853 205.286423 4
1.099519832372462 0.62125955842749581 1.2848494452328598 114 138 255 713.318481 472.780853 4
1.0160781876873364 0.56214552557858199 1.3672007249478098 255 125 140 667.69928 445.824066 4
0.15706096895373101 0.55766975905120186 1.4155302740504041 255 138 150 427.161652 439.603271 4
0.47869163983979379 0.67519768240742295 1.6213887711244261 131 154 255 497.664062 449.971252 4
0.3169055603997124 0.6563461303254301 1.0461742925611892 232 230 255 501.811279 530.841675 4
1.0081594890449246 0.35514694697678739 1.6302270786098711 116 126 146 624.153687 371.174438 4
0.57069217613252898 0.62105621046371795 2.8482704937247521 224 225 226 464.48645 373.248047 4
19.431868057828268 -31.626903549479088 59.314446590557345 175 197 221 508.032074 82.9440155 4
1.0530413291285268 -0.38679734638499774 1.723415061743478 236 242 255 617.103455 206.530594 5
0.68347437238877573 0.57070362993295709 2.315814332788265 157 173 255 497.664062 380.713013 5
-0.48651937225480246 -1.3549369752793343 2.7172117382981806 154 161 156 316.016693 99.532814 5
1.1259100309960899 -0.47818639947717478 1.6544411036341984 227 238 255 649.451599 179.159058 5
0.23633528607563736 0.64344227279760047 1.4230639906366322 255 30 36 447.897675 457.850952 5
-0.66125751398568733 -1.6950650437385675 2.7087750249842921 176 255 174 286.15683 47.2780876 5
0.57601252775886036 -0.48147811818885622 2.665432700935825 255 240 242 467.80423 216.483871 5
0.97130797027480842 0.58613195097298731 1.732796820363113 140 137 255 597.196899 415.5495 5
0.86539932126955965 -0.5791376906583785 2.4354619503536821 228 234 241 520.05896 196.577301 5
0.67922527706740765 0.67151842885768442 1.1265164595437298 152 156 151 612.126831 517.570618 5
0.81779581228807019 0.64898856895992796 1.250775818688207 22 38 255 637.01001 487.710785 5
1.0862541535101999 -0.43999009409154877 1.604131085437503 233 240 255 641.986633 184.135712 5
-0.41414570132084449 -1.7933923431750793 2.8971273635885808 118 131 143 328.458282 49.766407 5
0.3848662281392834 0.62508853407388532 1.6428614228661464 255 167 174 475.269196 432.967743 5
0.17026479570399933 0.49107527007407031 1.6490666048863245 255 119 151 427.991089 400.619568 5
0.72646583964876554 0.60016062443523277 2.1234485755581698 154 170 255 517.570618 395.642944 5
0.17631931822445579 0.63187041632535401 1.6075943582593721 255 142 155 427.991089 437.944397 5
1.1104025123753081 -0.51181049836255776 1.5900900913158011 224 236 255 649.451599 161.740829 5
1.0816449431589747 0.61591773767740543 1.2646719113935703 255 7 17 707.678345 474.771545 6
0.17193399784698604 0.070020053789248166 4.9251209900673274 183 202 255 397.135956 292.626495 6
0.78223709211110326 0.58983141361531333 2.0164966729462526 255 118 130 531.505249 400.121918 6
0.56459575505898552 0.61760241478304401 2.8307526748955567 223 255 212 462.827606 373.248077 6
0.27356615732271083 0.4493288890407795 2.0761897048673044 255 35 111 435.953735 367.276093 6
-0.33110524016637211 0.63724929704059374 1.3493363900194 175 168 255 289.640503 471.785553 6
-0.30325452266642339 0.6329471956552658 2.992866256859803 207 255 190 346.374207 373.248077 6
0.55799039380433557 -0.47846545146482378 2.5892075730345709 242 245 255 465.813599 214.990891 6
-0.44003749787096025 -0.78532212250685229 2.4381238988149079 169 166 255 313.528381 167.215134 6
0.61697129512696391 -0.55923468956295885 2.6069736352177975 244 255 238 474.771545 206.032928 6
0.79618923966177624 -0.54577456944014835 2.3033367812774657 255 229 235 519.56134 197.074982 6
1.0072014026612219 -0.21231346717541322 1.457233935547853 255 116 153 647.958679 232.906799 6
0.6389669393399402 0.65139145830885148 1.0918868218098243 146 148 255 609.140869 516.575317 6
0.70188624649445597 0.62313995916434983 1.1653751839771092 71 255 27 618.098816 492.687439 6
0.95195154188446696 -0.45747556325091754 1.9171924026144875 241 255 222 570.323059 194.088989 6
-0.050224726911876072 0.093049350210094278 1.6366052035885161 139 255 13 370.262085 310.542389 6
1.0238803138663055 0.37341802096526516 1.4853125187809617 255 134 155 647.958679 385.192017 6
0.18274668650369441 0.55623104770875431 1.8227729942758621 176 255 136 426.995789 400.121918 6
0.36722544543520019 0.60721329908137345 1.5901401297530331 255 161 169 471.785553 432.967773 6
1.1308710465382446 0.52918991060659004 1.9533981158787155 190 255 142 606.154846 394.149963 6
0.20676891817761067 0.67622502765476722 1.9150249168882638 177 255 145 426.995789 426.995789 6
1.0507327739645564 -0.33914592776049679 1.5738130696712611 110 149 184 636.014709 206.032928 6
0.6784355391452328 0.58115521940623327 2.5257624312053046 122 255 109 486.715485 376.23407 6
18.824550047554538 -21.7650222800543 36.543024737615895 183 216 255 585.252991 65.691658 6
0.81679613711709331 -0.25461906956072911 2.1358169522079802 242 245 248 528.519287 244.850739 6
0.78769159267258981 0.60380532928185893 2.0827287169413893 156 255 132 530.310852 397.733154 7
0.23970025313999965 0.6908717644091289 1.6122686072100327 28 34 50 444.314514 458.647247 7
0.55840818606435683 0.99634996340220428 3.0060047344981617 255 155 164 451.480896 419.232239 7
0.19326147205124333 0.56845013769411024 1.8808595827021515 175 255 136 426.398621 404.899536 7
0.16217943349240516 0.082306218135968529 4.9134477353660113 181 200 255 397.733154 293.820892 7
0.45946468252860484 0.64787148507771297 1.5484750537366256 154 255 122 498.062256 451.480896 7
0.47321716278964265 0.59368182295201311 1.5300302274239463 160 255 126 498.062256 433.564972 7
0.35432925745221477 0.59891783955731759 1.5631629637366062 160 175 255 469.39679 433.564972 7
1.2196751252857041 -0.40708595270355952 1.6564392521009905 242 255 231 666.471802 193.491806 7
1.1274583816582333 -0.49111971907432095 1.6396879876590473 215 227 238 648.555847 179.159088 7
-0.20034994271824358 -0.0088451518376880811 0.26592913499688509 29 48 64 96.745903 275.904999 7
1.1346439905124468 0.30376367261451309 1.7318629578098683 126 143 255 637.806335 354.734985 7
-0.54826141116687666 -0.98850144133922191 3.2337005363392501 255 154 163 315.319977 168.409531 7
0.80130631151482512 -0.53933041085315025 2.2577620943793972 255 231 236 515.978149 200.658173 7
1.0291695303898081 -0.27981432521090088 1.9895466119263654 245 246 248 576.892212 229.323624 7
1.0277562685426704 -0.50101823631342335 2.105142345691406 241 255 224 566.1427 193.491806 7
1.0263212578687928 0.58832212802422534 1.5333157967406699 81 98 255 637.806335 433.564972 7
-0.067941683390030816 0.52469419047887722 1.0162774814134883 63 255 56 358.318176 483.729523 7
0.82543688996473219 0.40269686269715954 2.1220214413962282 134 150 255 533.894043 361.901337 7
0.17870716879969195 0.61371388750295686 1.0908002577258413 230 229 226 444.314514 505.228607 7
0.82310964234673389 -0.26872693743973886 2.162254390768652 248 255 242 526.727722 243.656357 7
0.54151392339618432 -0.46623564867365075 2.956409826420991 255 164 190 455.064056 225.740448 7
1.0332169164584908 -0.21078360484130187 1.5030781992559108 114 152 184 648.555847 232.906799 7
