ply
format ascii 1.0
comment Written with hapPLY (https://github.com/nmwsharp/happly)
element vertex 147
property double x
property double y
property double z
property uchar red
property uchar green
property uchar blue
property float ix
property float iy
property uchar octave
end_header
-1.1923064231911078 -0.37929991315476147 2.6681750848465393 255 91 110 211 235 0
-1.2855670788276252 0.28841166685024217 2.1549781663355896 142 255 109 154.800003 339.600006 1
-0.45291723276594142 -0.33744298422801416 2.0422955739671207 236 243 255 297.600006 223.200012 1
-1.1555372351704452 -1.0067030547562588 2.023696757186138 108 134 255 165.600006 97.2000046 1
-0.29653467775609066 0.5182818091620065 2.0842168898628817 255 235 236 331.200012 384 1
0.84364446961906703 -0.39208571209163512 3.6103088267874952 242 244 247 476.640015 246.240005 2
-1.1924665914833392 -0.11160316199916187 2.7562363691000229 96 117 255 217.440002 270.720001 2
-1.336289843155273 -0.54613575692841176 2.0020696539658758 241 255 237 126.720001 182.880005 2
-1.3049408952055992 0.034055147415669396 1.9658908163578714 242 245 247 128.160004 293.76001 2
1.0492525951898501 0.42105740227670452 2.8017573007150975 102 106 110 528.480042 348.480011 2
-1.3519863939484398 -0.77553385197865465 2.0163561428219756 230 255 210 126.720001 139.680008 2
1.1170949674604926 0.50133353822120752 2.5228522644053122 255 82 88 555.840027 365.76001 2
-1.3395969391390299 -1.3735068816883345 2.000566607049115 132 163 200 128.160004 27.3600006 2
-1.0010593695946639 0.38782999291078174 1.7577546771515498 172 171 255 165.600006 372.960022 2
0.91646946823190456 0.44571057514418855 2.7480863832562932 71 85 255 509.76001 349.920013 2
-1.277668228118634 -0.1649932025998056 1.9688933116101826 255 243 244 135.360001 254.880005 2
-0.62491082058079384 -0.55257671876776904 2.0100967977443092 232 255 232 262.080017 184.320007 2
-0.60547918096193332 -0.99743179162816431 4.5008260892362459 255 232 236 331.200012 201.600006 2
-0.46931917611461671 -0.34314036375486168 2.0819353640773555 229 236 243 296.640015 223.200012 2
-1.1173584221101494 -0.45042104330260802 1.9552439721262194 102 119 142 164.160004 198.720001 2
-1.3129470977467306 -0.28412391262902864 2.2532089121211065 255 203 207 159.840012 240.480011 2
-1.3654965707275992 -0.20950171404231505 2.0598424326241283 243 245 255 129.600006 247.680008 2
-0.99241427044268127 -1.9052328095554967 4.4712548754658066 222 255 172 298.080017 123.840004 2
-1.1906348456959046 -0.79508465235924719 2.0946440665023012 94 113 139 164.160004 141.12001 2
-1.4937957978968845 -1.1030276146497286 2.2510767551985058 212 224 255 129.600006 97.9200058 2
1.4427017897249867 -0.55634374706540957 1.8222170501036716 226 230 237 688.320007 172.800003 2
0.47405225645619353 0.52425472183986443 1.3696625229844797 95 106 129 516.960022 436.320007 2
0.17947071558908068 0.30955226317318729 5.7855906105954604 153 255 109 398.880005 309.600006 2
-1.1795159997503308 0.33347140899610866 2.4205680374799758 255 49 66 195.264023 342.144043 3
0.87748029470416822 0.4159733343462052 2.9457035075572371 107 109 255 497.664062 342.144043 3
-1.1456908834419046 -0.7720589762791823 1.9871907416438304 201 255 205 158.976013 139.968018 3
-1.1708397966874564 -0.25273407269503878 2.0052339686928882 168 175 189 160.70401 240.192017 3
-1.3903915974311656 -0.26048226179943929 2.1012747464009962 245 255 241 126.144012 240.192017 3
0.56286933242225512 -0.43817449769533201 2.7431682395935217 255 240 242 459.648041 226.368027 3
1.4388239034849917 -0.6169812141211507 1.7489460850940821 217 230 255 701.568054 150.336014 3
-1.0542760621685994 0.35642550287019303 1.9240294592710412 33 34 16 172.800018 357.696045 3
-1.1429235946144272 0.19309284185624892 2.8530616727813847 136 149 255 229.82402 312.768036 3
0.73402817875543169 0.57534887254241007 2.5787203734070214 255 106 114 495.936035 376.704041 3
-0.65020778110646438 -0.49334972145740064 2.0789287589711978 232 233 233 260.92804 195.264023 3
-1.5488481505426015 -0.15505962578386401 3.6071868622179206 255 66 86 219.456024 269.568024 3
-1.1792242078140944 -0.14139325766806321 2.0272309711974614 167 177 188 160.70401 259.200012 3
-1.1199084948914155 -0.30695525110524102 1.9408770407797533 113 128 148 164.160019 228.096024 3
-0.71776085135378453 -2.0262264284182629 5.0117810587657425 224 255 178 330.048035 129.600006 3
-1.1555935760804221 -1.2949793072826989 2.0058411298131644 93 125 255 165.888016 39.7440033 3
-1.3209530940024701 -0.99161256407775422 1.9848772763494269 211 223 255 129.600006 96.7680054 3
0.37743258729919438 -0.66714144195798641 4.4112114600636811 170 255 163 414.720032 229.82402 3
-1.047567184693412 0.4703672368693082 1.2648122608440033 255 63 94 67.3920059 428.544037 3
-3.3416042040715173 0.49226147352437355 3.8614912641418462 255 194 99 51.840004 335.232025 3
1.2452379331891608 0.36335694027020571 1.6659475013912002 128 142 163 672.192078 369.792023 3
0.86696992494843983 -0.49395180030447161 4.3408979514069674 244 245 247 464.48645 244.68483 4
0.55775605103365478 -0.59881138256222854 3.6719286305904753 148 170 255 437.529663 226.02243 4
1.3560259013889233 0.50446083392719521 1.5892784739118468 160 155 255 713.318481 410.572845 4
-1.1429235946144272 0.19309284185624892 2.8530616727813847 121 124 138 232.243225 313.113647 4
-1.1429235946144272 0.19309284185624892 2.8530616727813847 144 255 130 230.169632 313.113647 4
1.0086140414643601 -0.43299628288187486 3.3316613179621362 255 239 242 503.884857 240.537628 4
0.94675010773931478 0.48310673448205615 2.2515296476768203 183 193 255 545.356873 369.100861 4
-0.84272292882475908 0.31839352512768559 1.6772018275003067 29 30 12 192.844833 362.880066 4
-0.64539408612133897 -0.56718762017543856 2.0617816193404512 232 233 255 261.273651 184.55043 4
-0.4977861542344959 -0.25742970092029516 2.1511674543228092 234 239 245 296.524841 242.611237 4
-1.0611077948658867 -0.14699294016072778 1.8013128127344613 255 201 206 159.667221 259.200043 4
-1.3226800515124149 -0.28733268817204627 2.2735667060589764 255 203 207 159.667221 240.537628 4
-0.70577476886587576 -2.0013662320084333 4.9346253499241701 202 224 255 329.702454 130.636826 4
-1.0444564300394208 -1.9387917652130944 4.6262016780544082 173 199 223 296.524841 124.416016 4
-1.1194422991200206 -0.83885723501625153 1.9503984433491639 91 119 255 165.888031 124.416016 4
-1.3209530940024701 -0.99161256407775422 1.9848772763494269 223 255 204 130.636826 97.4592133 4
0.3759003112039554 -0.67174463343905988 4.3761433354079031 169 255 163 414.720062 230.169632 4
-0.4216802468346259 0.35116777354149997 2.1244253300451508 209 255 220 306.892853 350.438446 4
-0.43710938934351118 0.40690650823102426 1.7763446602248347 205 255 185 290.304047 375.321655 4
0.47405225645619353 0.52425472183986443 1.3696625229844797 123 255 96 514.252869 437.529663 4
1.4037207804105196 0.52130459427613485 2.7402984218438444 96 99 102 576.460876 360.806458 4
1.213982634916448 0.36072210270283123 1.6268251046429758 255 107 118 671.846497 371.174438 4
1.1741916474051513 0.25421551932012654 2.7281596723517634 255 88 103 551.577698 325.555237 4
0.31041099063433686 0.38471498208419896 1.1750439384013127 226 223 255 485.222473 414.720062 4
-0.91786073125192047 -1.7219513970652254 4.0331634491528368 222 255 173 294.451233 124.416016 4
-1.2690400591174087 0.31042964727867767 2.3423766678133768 122 255 90 174.182419 340.899902 5
0.20839762048754351 0.40374896618512235 1.5394592069611761 255 180 201 435.456055 383.201324 5
-0.65566050179310187 0.38916274226342296 1.7223955602292826 143 138 255 241.367081 375.736359 5
-0.59541411573698833 0.37296696587595046 1.7424551688438061 118 111 255 253.80867 365.783081 5
-0.42698004511295817 0.40949498525488603 1.9767375964924598 255 131 142 303.575073 365.783081 5
-0.69200711333785447 -0.90742344777195316 2.7942713585534866 231 255 199 286.15683 159.252502 5
-1.2600229572272883 -0.083864617977994715 1.8479202958103893 245 247 255 121.927696 276.203552 5
-1.073460359665837 0.47738074120976681 1.2992987892651406 255 69 102 67.1846466 427.991089 5
-1.1237791947109668 -0.67856910974533025 1.9375095317853201 86 108 131 164.229141 154.275864 5
0.9758276779916677 -0.58118965644697829 2.8613624135665496 255 230 236 515.082336 213.995544 5
0.86530566788046925 -0.59658224000932647 3.2027727222358058 238 242 255 485.222473 216.483871 5
1.1105513080479446 -0.72932826638274828 2.967307686448601 238 255 219 530.012207 194.088989 5
0.56993276842769536 -0.64510492314028411 3.9415327604553019 148 170 255 437.944397 226.437149 5
-1.2053203370895331 -0.39488993064277622 2.6450758105059293 255 87 106 211.507233 233.902115 5
-1.2651188402800906 -0.2001297267708872 1.9086166400712075 242 245 255 129.392654 246.343719 5
-0.67743487186476337 -0.088767763070402517 2.0373114388006535 223 255 220 258.785309 268.738586 5
-0.49907316220729703 -0.25522128200866417 2.1639620287080672 234 239 245 296.110107 241.367081 5
1.0999849626031524 0.22841394614446719 2.4998618793525758 108 123 144 552.407104 323.481659 5
-1.2315517581940347 0.3006575850226304 2.0333389778631257 255 183 187 151.787537 345.876526 5
1.1074157230355908 0.4569746054931198 2.5608630144670466 49 255 22 554.895447 355.829803 5
-1.2881956211525467 -0.83781048250997614 1.9091442205981224 215 227 255 121.927696 124.416016 5
-1.0948089828707728 0.19133808521764722 2.7110135306285033 119 255 71 226.93483 313.528381 6
1.0372498274434852 0.41583517067672832 2.317744916363778 22 30 47 552.407166 355.332153 6
-0.4216802468346259 0.35116777354149997 2.1244253300451508 172 255 173 310.542389 349.360199 6
-1.1718537910221674 -0.97199530618768915 1.9823262949586233 196 255 178 158.257187 98.5374908 6
-1.1755073083278811 -0.77921336286463638 2.0157818670237782 124 151 255 161.243164 140.341278 6
0.59482415180531656 -0.47333387594749599 2.9171795466364747 238 240 244 456.855652 226.93483 6
-1.0444564300394208 -1.9387917652130944 4.6262016780544082 255 174 199 295.612457 125.411354 6
-1.3453235138620077 -1.0123176385441273 2.0382416636086691 255 198 208 131.383316 95.551506 6
-1.3137487293867118 -0.24434846958276868 2.0064426380253213 240 242 245 128.397339 244.850739 6
-0.7725152353335587 -1.0924507790915758 4.9755390728701565 255 232 236 319.500336 209.018921 6
-0.014420316158704649 0.51268170775094657 1.4659167199855183 255 136 159 379.220032 421.023834 6
-0.33625349457505638 0.51109772600558612 1.4081791694245096 46 58 75 292.626495 432.967773 6
-0.68235466810107415 -1.3967238786347766 4.210456034333669 201 217 231 316.514374 161.243164 6
-0.66230680327034275 -1.8734571258683606 4.6412079985158909 179 202 224 328.458313 131.383316 6
-0.4691368028518319 -0.33729977596403143 2.0759035773334285 255 229 236 295.612457 226.93483 6
-0.45035088965592163 -0.46602972248499863 1.9653330737874799 255 225 232 295.612457 197.074982 6
0.87010581344136595 -0.51664259228648279 3.3711629325016386 255 236 239 483.729492 226.93483 6
-1.3721238822131254 -0.41359178967687404 3.0152487778189929 110 132 255 209.018921 235.892776 6
-1.1723816791723451 -0.25220205241382049 2.0048043504168933 216 255 237 158.257187 238.878769 6
2.7105119935472066 0.25112307521535715 3.3049565861977834 114 134 255 701.70636 316.514374 6
1.1206744915224947 -0.36568787593948393 2.5765442955736049 238 242 255 549.421143 232.906799 6
0.7348574757485955 0.50544812781221127 1.2613575345457182 143 255 101 606.154846 441.92572 6
-0.72028387693353713 -0.097538845750084258 2.1352326130138972 219 220 221 256.794678 268.738617 6
-0.31767813366838893 -0.015092404284204053 3.4720843946836926 100 120 142 352.346191 289.640503 6
1.278599400286994 0.47340864302803065 1.5282373974808845 146 140 255 701.70636 403.10791 6
0.45228413030134873 0.52402164202930068 1.3817749599274785 122 145 255 513.589355 435.953735 6
0.17147502779839607 0.20473992720422982 4.9000246330494193 122 144 255 397.135956 307.556396 6
-1.8198179632327771 0.49379301189065222 2.6568109354117224 232 211 183 116.4534 358.318146 6
-1.0896843302541099 0.26722452948303144 1.9891689067365519 106 121 255 173.187103 340.402252 6
-1.1982393738051806 0.42504711027673886 2.3917123542070318 24 255 42 194.088989 358.318146 6
-1.0687877653219608 0.39606482531573961 1.8486504254764564 93 94 96 164.229156 370.262085 6
-0.071621353116708697 0.47494231220677174 1.5872839721842493 255 236 236 367.276093 400.121918 6
-0.74407168314537264 -1.4558821069266084 4.3920817010515272 255 201 216 315.319977 161.243179 7
-0.94455395724990643 0.27000930587116878 2.0293830050211388 46 67 85 200.658173 340.402252 7
-1.3647457219057588 0.25565710558641774 1.9371169817487104 255 132 94 107.495445 333.235901 7
-0.6713615582787531 -0.47980003364065393 2.1616055784130728 232 233 255 261.572266 200.658173 7
-0.71353386713878075 -0.099513157367940086 2.0976474858338809 220 255 218 254.405899 268.738617 7
-1.0911754264440794 0.37867275672257555 1.6450550694512085 231 232 233 132.577713 376.23407 7
0.97729071801761269 -0.58358283891783747 2.9096640215565355 229 235 241 512.394958 211.407715 7
0.87056361287485573 -0.50436698960758319 3.3668881779323678 255 243 244 483.729523 229.323624 7
-1.0254661919387158 -0.11775791312191902 1.9249458359412808 255 92 113 175.575897 265.155426 7
-1.3992343204849398 -0.45106716662042678 3.0827831015355285 255 86 103 211.407715 236.48999 7
-0.42107954856804986 0.40936375393659041 1.9424539250199686 200 204 209 300.987244 369.067719 7
-0.45160757042646216 0.21697900394470343 1.9932628805265598 232 232 255 297.404083 329.65271 7
-1.1154585124084377 0.18701526251001976 2.7372392028320922 77 104 255 225.740448 315.319977 7
-1.0687877653219608 0.39606482531573961 1.8486504254764564 124 129 255 161.243179 369.067719 7
0.86438009960529194 0.72889679759502046 2.2182938134930525 186 192 255 533.894043 415.649078 7
-0.07950171490875646 0.49790003596295912 1.7041010729723238 236 236 255 365.484528 401.316345 7
27.517217423405235 -28.782171907522372 72.825677124715497 228 255 200 526.727722 136.160904 7
1.4427373805151382 -0.66769615638446977 1.7992096608983701 255 226 229 687.970886 143.327271 7
0.27817055076557762 -0.52209558983727955 4.4533503972968855 126 135 146 404.899536 243.656357 7
-1.3453235138620077 -1.0123176385441273 2.0382416636086691 204 211 224 128.994537 96.745903 7
