ply
format ascii 1.0
comment Written with hapPLY (https://github.com/nmwsharp/happly)
element vertex 139
property double x
property double y
property double z
property uchar red
property uchar green
property uchar blue
property float ix
property float iy
property uchar octave
end_header
-1.1219211657371551 0.27019032780368241 3.64233400467434 160 164 255 265 316 0
-1.9337685224008165 -0.57041118934836688 4.1732931207928008 129 149 255 205 235 0
-1.7871842828568529 -0.87112569791497019 3.3524900489669247 234 255 224 178 190 0
-2.0993086233727327 -0.90132708523378668 3.5442546336727769 230 235 255 157 190 0
-2.0296488784411042 -2.3023144023071187 3.493411333807511 255 109 143 163 34 0
-1.8162422173657879 -1.5364822750275027 3.3822925826488293 213 255 175 178 115 0
-1.8554289882361124 -1.3460254906275038 3.4362049453269243 220 255 194 178 136 0
-1.8493006402097687 -0.25577215522742314 3.3680661578602886 240 241 244 172 259 0
-1.8403414371422961 0.27781519787677361 3.1222886389286235 180 178 172 160 322 0
-1.8163671261258467 -0.77602326460630644 3.7941308532476743 228 233 255 201 208 0
-0.27471387040918538 0.36690759769949943 0.70772892423740741 255 92 108 235 487 0
-1.9075412345917413 -2.0581902472355189 3.3189729167670463 113 149 191 164.400009 51.6000023 1
-1.903320260535283 -2.3611894095882442 3.4521731340600663 255 108 141 171.600006 25.2000008 1
-0.059151197155060897 -0.65744893435402252 4.8333452525544462 255 125 143 379.200012 235.200012 1
-0.56611731357012518 0.29668291659342005 1.0832584080601033 255 144 158 183.600006 392.400024 1
-2.0004694591757608 -0.86014739117686301 3.3789947200120372 230 235 255 157.200012 189.600006 1
0.80384953345886712 -0.65136727878401957 3.2496768530248277 230 237 255 477.600006 211.200012 1
-1.9225177443495727 -1.7559673221360159 3.3503530881718193 150 174 203 164.400009 87.6000061 1
-1.7480926315440981 -0.92547165948984289 3.2851110604601326 215 222 231 180 178.800003 1
-1.9893798935365115 -0.94858672452752912 3.3782566349525989 226 233 255 157.200012 180 1
-2.0239141022106941 -1.1032429780303565 3.4271653195256366 215 226 255 157.200012 163.200012 1
-1.3942250769423232 -1.5573876668729529 5.8888609043067532 224 228 234 292.800018 187.200012 1
-0.6137080173974061 -0.080382450996234631 6.7620756901219945 84 105 125 348 282 1
-1.9662741274608342 -0.34403661121773133 3.3520065562848922 255 237 239 159.600006 249.600006 1
-2.0004278740336749 -2.0704302594870878 3.4164955808658179 255 118 151 159.600006 55.2000008 1
-0.3303726555711215 0.32982057270545345 0.51143024239422341 255 76 106 135.600006 535.200012 1
-0.26824740033247796 0.41124418412253683 1.301445997540241 255 191 193 303.600006 409.200012 1
-0.63724576866625449 0.15423477251543538 2.2397882245043563 137 141 152 272.160004 313.920013 2
-1.2368323885217443 -0.16295127921304761 3.2170840940986722 97 255 56 234.720016 267.839996 2
-2.4292390940855308 -0.29282501080224366 5.4680983230080029 106 127 255 213.12001 266.400024 2
-1.1623093869815979 0.3399775939202867 3.5727158593224093 113 109 255 257.76001 324 2
-1.2215726888901468 0.075858158421175242 3.0073673626621553 80 99 117 228.960007 298.080017 2
-1.8130109220658834 0.10431577486819552 4.2625904887760742 129 255 91 218.880005 298.080017 2
-1.4014496795851548 -2.1741419635732839 6.4667421533313147 255 188 205 299.52002 161.279999 2
-1.1785730470564739 -0.44448984282931292 3.6000081139548259 255 219 221 259.200012 240.480011 2
-1.9102445527873964 -0.90085476900455885 3.509678759510519 227 233 255 177.12001 188.640015 2
-1.9662741274608342 -0.34403661121773133 3.3520065562848922 255 237 239 159.840012 250.560013 2
-1.9092839081469521 -1.4881938285721081 3.4212991279652125 190 202 218 168.480011 120.960007 2
-2.073239008076158 -1.5223882118062972 3.507540759294995 207 213 222 156.960007 120.960007 2
1.2404104174797568 -0.70071852041232652 2.7722921668577607 231 255 205 558.720032 191.520004 2
0.41030651156242492 -0.013396337593518159 0.89690003129560525 135 255 121 558.720032 282.240021 2
0.4105116279968779 -0.36264502681462873 0.89817711227750441 200 218 255 557.280029 132.480011 2
-0.2932180957926549 0.4298871000302884 0.7911251137361337 255 153 157 243.360016 493.920013 2
-0.31425431064295251 0.29124508845272196 0.48375818970274886 73 101 113 132.480011 518.400024 2
-1.7806882161337185 0.40474516877120681 2.0738960390664452 115 255 86 54.7200012 364.320007 2
-1.6897301788144259 0.29727800066421389 3.1649374023776047 159 165 177 176.256012 324.864044 3
-0.53983904823317719 0.30971991955668443 0.71793508571972997 20 40 36 96.7680054 456.192047 3
-1.5285663242882768 0.092721506653756391 3.6049086610628054 106 125 255 217.728027 298.944031 3
0.26382633764027985 -0.62413636276371343 4.2930083493069988 255 148 177 407.808044 235.008026 3
0.19579563942849032 -0.44021206044353833 3.6940773715691515 118 143 165 400.896027 240.192017 3
-0.13815754095575961 0.45109727305249447 1.1744452429504939 93 255 60 342.144043 435.456055 3
-1.2546700815074168 -0.56092324152464457 3.3652635310166445 103 120 255 241.920029 222.912018 3
-1.3495518621418552 -0.18076907070156656 3.4614134105078516 74 95 255 233.280029 266.11203 3
-1.7481444829195381 -0.21882223311168456 3.4079717791553374 244 255 242 186.624023 264.384033 3
0.42320119813500534 -0.22922320343893082 0.89799756311770107 232 255 206 566.784058 191.808014 3
0.42426793002893115 -0.2700156697143466 0.89788939050805361 255 206 216 563.328064 171.072021 3
0.40131413225206591 -0.016676279000975167 0.86046899439103197 91 124 255 565.05603 281.664032 3
0.40766933787451987 -0.22860902936939087 0.89658139991487684 231 255 205 558.144043 191.808014 3
0.40559339647841042 -0.26166368858607814 0.90005804645102061 228 255 206 558.144043 174.528015 3
-0.29950692444070892 0.40941697631537161 1.071791919582985 214 215 214 276.480042 432.000031 3
-0.34237286931835764 0.33165076789183401 0.52562786675122097 111 255 72 134.784012 533.952026 3
-0.56052639586142994 0.29316648761549791 1.0674978742635484 255 144 158 183.168015 392.256042 3
-1.3923294651735163 -2.1257035823303752 6.4054575510658056 188 205 223 300.672028 160.70401 3
0.41113079266798569 -0.22990013484863181 0.89779348723968511 218 231 255 557.798462 190.771225 4
0.40744248048529486 -0.2690862997079182 0.90437558951404728 216 229 255 557.798462 174.182419 4
-1.3351707450122623 -0.18093126216883876 3.4152702745072085 97 255 56 234.316833 267.494446 4
-1.9957957882777038 0.45532927857877731 4.7283842394953632 255 22 26 223.948837 325.555237 4
-0.14029722156177882 0.45728957571589485 1.2192246332793422 63 69 84 340.070435 435.456055 4
-0.15305316863102614 0.44067595884913485 1.3020401177344567 101 103 124 340.070435 416.793671 4
-2.1375033860746702 0.36946006642609197 3.6574140727180602 255 187 182 163.814423 325.555237 4
-1.5783225760452 -1.7285687116326447 6.4263626018253746 221 227 233 292.377655 184.55043 4
-1.2278305485560401 -1.873745048925908 5.7079226537317025 188 205 223 300.672028 161.740829 4
-1.1439392469018901 -0.43924755050681669 3.4908615552578945 255 219 221 259.200043 240.537628 4
-0.045171021697013813 -0.64368962136848529 4.7696183010019846 142 162 255 377.395264 234.316833 4
-1.8656853998948129 -1.0832147691782912 3.4173333111042554 203 213 226 176.256027 163.814423 4
-1.997321453380565 -1.1060321275495328 3.4120492863922212 215 226 255 157.593628 163.814423 4
-1.602043201493716 -0.19593316184914539 3.1932852346466318 244 255 241 186.624023 263.347229 4
-1.8339941624764755 -1.7063175264486929 3.3525907950813867 205 255 155 174.182419 91.2384109 4
-1.9362641041262578 -2.0970515029055954 3.3778162120313651 255 113 148 163.814423 49.766407 4
0.29827713042079906 -0.44250878140422029 0.95193392517345576 188 212 255 505.958466 111.974419 4
-0.34802916627061142 0.4412646137190544 1.0296509389154298 255 203 204 255.052841 456.192078 4
-0.2792651891806166 0.38133792852274734 1.0067297356690526 255 212 213 275.788849 433.382446 4
-0.27847657983153074 0.42323543831326838 0.66490018298060383 255 83 115 223.948837 532.915283 4
-0.13761258160164647 0.45219049626555552 0.74489529106505836 255 20 35 311.040039 522.547302 4
-0.28596507975542362 0.30134184265974323 0.51281077597654756 143 255 106 170.035217 516.326477 4
-1.2101694213573455 0.36285309616453976 1.8143419640787823 164 179 152 124.416016 364.953644 4
0.2993912339720719 0.38033825134976512 0.63440430688166316 7 255 0 566.092896 518.400085 4
0.11094443957020328 0.37997034174556027 0.92972059263933327 219 218 255 433.382446 447.897675 4
0.13292426732760809 0.45063168794756053 1.642870245454163 209 255 203 414.720062 393.98407 4
-1.6351547514725695 -1.9854371290618573 5.8396891979076138 255 188 205 275.788849 157.593628 4
-0.14029722156177882 0.45728957571589485 1.2192246332793422 71 76 92 340.899902 432.967743 5
-0.18990243123468287 0.46963611184189558 2.1864918775021192 184 102 255 353.341492 370.759735 5
-0.22674808501284915 0.49887832522542447 2.3508536258852488 255 205 207 343.388214 365.783081 5
-1.8836161976549977 -1.0894314441023447 3.4399141234153823 227 255 207 174.182419 166.717468 5
0.51110222597749899 -0.47391686100951452 0.92498913125411231 202 255 131 594.708557 89.5795288 5
-0.35265611021816889 0.31709086196043462 0.53570100397010523 126 255 87 134.369293 515.082336 5
-0.28726460157153055 0.30263479501909946 0.57550113050020024 200 255 200 194.088989 487.710785 5
0.42083627851485594 -0.27068384325473022 0.905932962199824 255 206 216 559.87207 171.694107 5
-1.597900610966422 -1.9289005483142503 5.7176289747757236 188 205 223 276.203552 159.252502 5
-0.13344958753348557 0.44484293061174263 0.72951199233911224 35 38 255 313.528351 522.547302 5
-1.9490697954916012 -0.33509982909347247 3.358348152329933 239 242 255 161.740829 248.832031 5
0.41481118627226998 -0.6157348199079048 1.0476345659065274 196 255 124 534.988892 57.231369 5
0.53581672845741146 -0.36232749139998588 0.91292872099506561 193 215 255 609.638489 131.880981 5
-1.0753470212474747 -0.41513047839799283 3.3381309667718417 221 255 220 258.785309 241.367081 5
0.22731903153780653 -0.5849878496536407 4.7450907405824667 119 143 166 400.619568 241.367081 5
-0.20119362180582323 0.44828762100292657 2.7751813346640382 255 215 215 355.829803 348.364838 5
-0.1970274847863962 0.40912403399992442 2.7168617212404103 255 213 213 355.332153 349.360199 6
-1.8749056403523991 -1.087065611513387 3.4194682940610894 216 227 255 173.187103 167.215134 6
0.41634600091421903 -0.23226362458570765 0.90292474715762028 231 255 205 558.379089 191.103012 6
0.51383212763606845 -0.48000941533394992 0.93695260439802741 202 255 131 594.210938 89.5795364 6
-0.14508544488147956 0.45915888453706427 0.76420607031137022 34 46 56 316.514374 516.575317 6
-1.4253885349635413 -0.34540509878267178 7.0484332678635715 255 75 70 307.556396 274.710571 6
-1.8980949137639831 -0.33039360457034284 3.3186816469408398 238 240 243 164.229156 250.822708 6
0.1355751516769953 0.45397802662887737 1.2198274748960387 217 255 219 426.995789 429.981781 6
0.023313374837470979 0.44826068163225286 1.1093208644322547 255 193 194 391.163971 435.953735 6
-1.1435691776294417 -0.16622804610986014 2.9397144870191787 62 81 103 232.906799 265.752625 6
-1.1389240196807995 -0.57111785381808966 3.420606180120858 223 225 225 256.794678 223.948837 6
-0.17173167884221163 0.51432599442629434 1.2559083257690939 61 255 35 334.430267 447.897675 6
-0.14384031743021342 0.45611342768333357 1.2287401099318402 76 81 98 340.402252 429.981781 6
-0.30561359592821757 0.30693429234033276 3.1693299823845118 199 208 255 349.360199 328.458313 6
-1.7739945058051392 0.11494587704008646 4.062075982146041 112 255 75 214.990891 301.584442 6
-0.28792881503222056 0.41423680121656326 0.77215888397477017 143 151 255 241.864746 492.687439 6
0.41159259899273137 -0.016598961136640653 0.89393555636799538 114 137 255 561.365112 280.682556 6
-1.9927563636308046 -1.8150251180427235 3.4613388999446606 139 167 201 164.229156 83.6075668 6
0.2579649558380529 -0.06573303167977923 1.1213601683305103 243 244 245 472.97998 265.155426 7
0.50845629204660181 -0.4817765946393826 0.92596819399871655 255 129 163 591.224976 89.5795441 7
-0.2574579882538508 0.38913239208143285 0.71916481677130384 255 105 123 243.656357 490.895874 7
-0.30583425653938523 0.38385796146391371 0.81058392712697702 255 201 202 243.656357 465.813599 7
-1.1751950845878731 -0.41177867229469695 3.5416471189318659 221 221 255 257.989075 243.656357 7
-0.27881271710096134 0.29647864671953084 0.55806779380000615 196 194 255 189.90863 490.895874 7
-0.3302811328605042 0.30656807227698907 0.60429448712749467 255 199 199 171.992722 487.312714 7
-0.29173447991497858 0.39035700764074321 0.89038684124886691 201 255 201 250.822708 455.064056 7
-0.31380665667053376 0.41526216236428748 1.1232577037609273 255 210 211 275.904999 429.981781 7
-0.43175545768217294 0.37683871625591481 1.0167842781377425 103 255 72 218.574081 437.148163 7
-0.15136916289870617 0.46663708708987406 1.293166146693667 76 81 98 340.402252 429.981781 7
-1.7465307036661106 -1.8871361138992402 6.9590332841116318 232 255 220 290.237701 182.742264 7
-0.23699549418114074 0.35977835383454937 1.3917065804822626 255 155 164 311.736786 383.400421 7
-0.30674596913273056 0.48888918240960477 3.2810665407810133 255 217 217 351.151794 347.568604 7
-1.7202744032635136 0.28795138759779648 3.0873304906832582 137 149 165 168.409531 326.069519 7
