ply
format ascii 1.0
comment Written with hapPLY (https://github.com/nmwsharp/happly)
element vertex 134
property double x
property double y
property double z
property uchar red
property uchar green
property uchar blue
property float ix
property float iy
property uchar octave
end_header
1.1966684460668189 -0.11620868456701283 1.3833282217651959 255 240 240 715 256 0
-2.1504503432672593 -1.2151502178170834 3.6704450509592963 194 205 219 160 160 0
0.11946613423611574 0.066455517771787903 1.1644822704216489 131 142 156 424 310 0
0.08144216626465306 0.015880246124990435 0.93254640196001604 242 255 237 418 295 0
0.55882504899312757 0.19967578285171916 0.65324069798805107 71 71 80 712 403 0
-2.1157823690183286 -0.42398289436164854 3.6185055803045807 233 235 238 160 244 0
-2.1259784434859066 -0.6597849256643582 3.6317562374780397 225 229 234 160 220 0
0.34594641426400685 0.28554198054619695 0.61607613716997223 123 255 90 598 466 0
-2.3765897863640153 0.1610202310630777 3.6549168500122904 215 224 255 133 304 0
-2.2524526312037056 -0.28781793859050164 3.7507539821490048 240 255 236 154 259 0
-2.3278027792663032 -0.97961803842732831 3.6717017357107209 255 222 225 139 187 0
-2.3243902265983518 -0.37338390554211487 3.6693919232060423 238 255 233 142 250 0
-2.3331504090846584 -2.3204425465046308 3.7456335624484636 133 178 255 145 49 0
-2.3908714335398944 -1.8847440252458478 3.8531153101853031 175 200 255 145 100 0
1.2200725832367125 -0.12647258303166661 1.3976387709365485 242 255 240 718 253 0
0.92098853561535177 -0.94799962868033338 3.3930895003189239 202 255 208 490 181 0
1.2016206390174164 0.039825255561938763 1.4545720289869759 255 235 239 703.200012 297.600006 1
-2.2142669468605227 -0.77934975058701539 3.9117266995878071 222 227 233 168 211.200012 1
-1.9283015589096508 -0.38857372860737072 3.3065202349964591 255 233 235 159.600006 243.600006 1
1.0849858266014101 -0.81117138897229646 3.5324317924817952 131 255 66 502.800018 199.200012 1
-2.2614307167643548 -2.2624532603249787 3.6665257503205289 133 178 255 145.200012 49.2000008 1
-2.2225690820747612 -1.0941728863931459 3.7589700743317374 208 215 224 156 174 1
-2.1399696161298039 -1.1188645444168206 3.6622832922605886 255 203 211 159.600006 169.200012 1
0.18635279874505739 0.28511775294048552 0.8273965869377774 210 214 212 472.800018 421.200012 1
0.79193619542234495 0.39732361530824439 1.0896411311873311 255 217 218 663.600037 430.800018 1
-1.1813690643765054 0.4177906751322073 1.7960590406911885 120 131 255 133.200012 378 1
1.1584516922076507 -0.083588099097566232 1.4371458119048408 241 243 255 693.600037 265.200012 1
0.23876859086509256 0.42621687944340725 0.73630480219674077 255 206 210 507.600006 510.000031 1
0.23411633497876638 0.40519472761711794 0.72657944067232716 255 208 211 507.600006 501.600006 1
-2.8511733614314752 0.52240087363187193 6.0896362182031556 59 69 255 205.200012 322.800018 1
-1.9823751089190766 -2.0317987214163353 6.1846714557502551 183 199 218 260.400024 160.800003 1
-2.4354388137580298 -1.1645432281177721 3.8300062891066253 217 226 255 141.600006 169.200012 1
-2.2295188564784301 -2.5119212279570928 3.7294204112203757 94 128 173 156 31.2000008 1
-2.1252395535841049 -1.34528827575365 3.755967781567612 217 255 189 166.800003 151.200012 1
-2.3379920103168703 -1.4307012136924468 3.6917729709018547 202 216 255 141.600006 139.200012 1
1.0530176683962984 -0.42568291194121566 3.3842169562781557 90 120 255 501.600006 241.200012 1
1.0519885188295177 0.086707698750263934 1.5639436828141566 83 255 58 642 309.600006 1
-1.4086551126492601 -0.57163750425844417 3.5997680683243982 218 218 255 233.280014 226.080002 2
-1.5393097228243007 -0.57019533559127988 3.5737021580398038 104 122 255 217.440002 226.080002 2
0.17964032702950838 0.42884739016499335 0.84284198250396258 208 211 210 468.000031 483.840027 2
0.50720557774723263 0.20730382776799261 0.62961356779110977 72 255 60 694.080017 414.720032 2
1.0874910719906332 -0.80806443632017388 3.5405850587523999 129 255 64 502.560028 198.720001 2
1.2630787470631826 -0.12176055901874086 1.4652783182858444 255 240 240 715.680054 256.320007 2
0.18154201818604632 0.38111923777225837 0.94591770540805431 210 213 211 456.480011 442.080017 2
0.18518010731043599 0.27589376907861762 0.80514473940639864 212 255 210 470.880005 420.480011 2
-2.317586661175342 -1.5143794095484731 3.6642611815059372 255 189 199 139.680008 129.600006 2
0.62960953617362792 0.37385255334250062 1.4852554886550378 255 82 96 547.200012 385.920013 2
-2.1453344809945771 0.089829787910028214 4.5437578378824179 91 109 255 201.600006 295.200012 2
-1.5991384244898792 -1.4996979640730788 5.7541444166397806 219 229 255 277.920013 190.080002 2
-2.2407504207235069 -0.93069558088775983 3.7935701723894022 232 255 223 158.400009 194.400009 2
-2.3250347632268631 -1.1290071318799715 3.6825269571102877 216 225 255 141.12001 168.480011 2
-2.2654716350815516 -1.8002761478760398 3.6535838483289207 173 199 255 145.440002 99.3600006 2
0.18377818841301041 -0.54011120250011924 1.271162445299016 255 157 178 439.200012 123.840004 2
0.22218064811251581 0.35690521469437431 0.74565263155925532 210 255 209 498.240021 473.76001 2
0.3003026958290147 0.42955234174760765 0.7804697711332762 210 209 255 529.920044 499.680023 2
1.1537964505315119 0.04417545519577757 1.4212404601449515 239 255 228 694.080017 298.080017 2
1.7003671897409554 0.18706070335215871 4.7623039386941572 255 99 111 519.840027 303.840027 2
0.016112114906155606 0.10159083531360802 0.4563994842691631 64 255 51 398.880005 372.960022 2
-2.3662436969918224 -2.2036856032076892 3.81059407303675 149 186 255 145.440002 66.2400055 2
0.2382858041834689 0.41832570568432131 0.72959127447695149 209 255 206 506.304047 509.76004 3
-2.402052113148434 0.15640324479388562 3.6741401142747088 255 221 214 131.328018 302.400024 3
-1.3266095719200424 0.34684321509346888 1.7913770037862002 138 152 131 100.224007 364.608032 3
0.47233309743995516 0.277987688085923 0.61973947840718868 113 126 144 680.832092 459.648041 3
-1.324484314465658 0.056849039595370965 2.8325677790342527 76 94 113 200.448013 295.488037 3
-2.2540296001180438 0.094809650594622707 4.1372344433239228 230 255 232 174.528015 297.216034 3
-1.477476894018388 -0.59832931413089607 3.7296140572545462 255 216 218 231.552017 226.368027 3
-2.2016811953348405 -1.1008607798351913 3.7184408794325226 213 223 255 157.248016 172.800018 3
-2.3435814712979077 -2.1106183673073278 3.7162714297511834 150 187 255 141.696014 69.1200104 3
-2.2641413009413753 -2.2632728991957642 3.6561802684743028 135 179 255 145.152008 51.840004 3
-2.3161317968142545 -1.8471302153014757 3.7351548725355257 172 198 255 145.152008 98.4960098 3
1.0270391083919437 -0.12849229956972436 1.5310526309732577 39 46 255 641.088074 255.744019 3
1.2685344653490482 -0.03572990021558882 1.4776793251287614 241 243 255 713.664062 278.208038 3
0.22491462236007254 0.35317623281516686 0.73760884013690031 212 210 255 497.664062 471.744049 3
1.252209110519265 0.32005664022800606 1.4358900398675343 255 160 161 715.39209 374.976044 3
0.00050596503148736538 0.041575034054315743 0.56846357079500531 104 122 255 385.344025 314.496033 3
1.4840900097031162 0.17692504365072845 4.271897493864337 99 112 133 520.128052 302.400024 3
0.087541113775422286 0.37512012649312931 0.98996138146316581 255 209 213 423.014465 433.382446 4
-1.5143834788492345 -0.8559984133673143 4.0676539891077015 205 255 198 242.611237 209.433624 4
-2.1476059977686646 -2.1673449790495836 6.648532358575153 255 187 202 259.200043 161.740829 4
-1.9628544103268966 -0.22976435186771771 4.2697570021791593 57 78 255 209.433624 267.494446 4
-2.2229009895785059 -0.35391531743635457 3.5624128336405527 255 233 235 143.078415 250.90564 4
-2.1806391181007925 -2.0719502030535604 3.5481566751119904 149 186 255 145.152023 64.2816086 4
-2.05311174699969 -1.2943722507229209 3.6500552968311184 255 189 201 167.961624 153.446426 4
-2.5209904692292993 -1.9053484921858761 3.9578469466412605 179 203 255 141.004822 103.680016 4
1.0928532671747793 -0.13836031683869476 1.6533889582556998 34 39 46 640.742493 255.052841 4
1.3138599572171632 -0.036624423684269991 1.5446281157567532 241 243 255 713.318481 279.936035 4
1.5148445211771504 -0.1633707536372849 4.408456623500725 53 92 116 516.326477 273.71524 4
0.21246095353961059 -0.41761964815266878 1.2269963624024196 198 216 255 449.971252 153.446426 4
0.18460730318697993 -0.51837778874574958 1.208147391320284 255 159 179 439.603271 122.342415 4
0.0952840938066708 -0.64095931257673633 1.3333665309066716 199 255 146 410.572845 103.680016 4
0.36824446812458622 0.28190719998246638 0.46768937357385287 202 203 202 688.435303 520.473694 4
1.3013477558916859 0.091419114963062681 1.4985415558196487 255 121 129 715.39209 315.187256 4
1.1233360553654224 0.34537751474993672 1.7051367014438006 101 255 81 638.668884 364.953644 4
0.080159178469607295 0.015454648076923705 0.92240115105784493 244 255 237 414.720062 294.451233 4
1.6398575629136309 0.16912663753722659 4.5502968735483682 99 112 133 520.473694 302.745636 4
-2.6187362099645424 0.16865814217773073 3.9781822405994909 255 224 219 131.880981 301.086761 5
-2.2519654710881012 -1.1375746444235098 3.780325879875106 205 213 223 156.764175 171.694107 5
0.99652340385437865 -0.056804810068301834 1.4808361746863032 255 41 57 639.498352 271.226929 5
0.086958763494500491 -0.27430885264634619 1.3030952398161963 255 216 223 415.5495 206.530594 5
0.19148136657383641 -0.52300032645386318 1.2448633530044266 176 206 255 445.409332 129.392654 5
1.2872011623931443 -0.054950420097336486 1.5048146603590273 243 255 240 714.147949 278.691895 5
1.2667428498448627 -0.12078163954739096 1.4762840990961488 240 240 242 716.63623 253.80867 5
1.2380072792207588 0.08316728726408304 1.412554499363919 255 122 133 719.124573 313.528351 5
1.3450523859736934 -0.14774182339501099 3.8821399749659777 92 117 255 517.570618 273.71524 5
1.0435244911473394 -0.75191819417050465 3.3789152982614152 99 130 255 505.129028 199.065628 5
0.91665330090793484 -0.86344953733464702 3.2366785351170821 202 255 208 490.199097 181.647385 5
-2.3025174917634583 -0.28573291308362836 4.071943581218056 239 241 255 169.20578 261.273651 5
1.0437246671139802 0.075516445063522314 1.5700727300966828 255 61 74 639.000671 307.556396 6
-2.0638271341498755 -1.4582534079092222 3.6450053280300327 255 187 198 167.215134 137.355286 6
1.1440745060849657 -0.19033442474786261 3.5167071980935831 255 55 91 507.617371 262.766632 6
0.88423932659126203 -0.28451117605296039 3.514407866473086 255 88 119 483.729492 256.794678 6
1.0729852715470416 -0.79583892115175203 3.4896278141331121 103 134 255 501.645416 203.046951 6
-2.5201450436515844 -1.9032369428440403 3.960340005307871 163 180 203 140.341278 104.50946 6
-1.5644518660941982 -0.71059968753864655 3.5784335310292397 110 255 57 214.990891 209.018921 6
-2.197559467792086 -1.1153292830488923 3.6932536230189101 255 208 215 155.271194 173.187103 6
0.22147035051407093 0.35705801822050814 0.7415658339814839 210 255 209 498.659424 471.785553 6
1.2691448358504247 0.38369198037154495 1.9854362344329148 89 98 108 636.014709 364.290131 6
1.1308578577657804 -0.071262086458785748 1.4502038796470356 162 166 171 680.804504 265.752625 6
1.0672293012754157 -0.11595170098058172 1.4714959247711477 62 255 38 662.88855 259.78067 6
1.3888332230532412 -0.14752637306561917 1.6496937683277511 255 239 240 707.678345 256.794678 6
1.0843014090030021 -0.13366965355394389 1.6205950504505497 38 46 255 641.986694 256.794678 6
1.0600501877411763 0.074080138120344294 1.5994051008537697 73 90 255 633.028748 307.556396 6
1.6108788759544739 0.13848097663528142 4.5609453546252654 255 109 119 519.56134 298.59845 6
-2.9186900078240723 0.1768164435321759 4.3646452908744076 255 224 219 131.383316 301.584442 6
1.0516064448202962 0.065886316334717768 1.6202015522463928 75 91 255 637.806335 308.153625 7
1.0453165065627144 -0.7687030621837937 3.4350715202422633 141 255 85 494.479065 200.658173 7
0.093147975343199185 -0.25636547209147187 1.1818587627159951 214 221 231 412.065887 204.241348 7
1.1467829872037629 -0.19124539833035384 3.523286628323083 53 92 119 508.811798 261.572266 7
-1.8995184833074421 -0.41213565055019957 3.8700237475343924 85 103 255 189.90863 243.656357 7
-2.4802018705292141 -0.39157680173933368 3.9513041828435576 255 233 235 143.327271 250.822708 7
1.5362055972589519 0.12378438456926347 4.1524045569711623 255 129 138 519.56134 297.404083 7
0.16538902255464527 0.42045808196512324 0.81044568685386809 209 255 208 462.230438 487.312714 7
-2.2099195610574158 -1.102683515640142 3.6989559229064435 223 255 207 154.076813 171.992722 7
-0.0084629655288193106 -0.51473317185794132 1.2457680189387859 255 146 173 379.817261 128.994537 7
