ply
format ascii 1.0
comment Written with hapPLY (https://github.com/nmwsharp/happly)
element vertex 175
property double x
property double y
property double z
property uchar red
property uchar green
property uchar blue
property float ix
property float iy
property uchar octave
end_header
0.27442420109992666 0.37028008339787577 1.1968722904776314 215 216 215 472 406 0
0.21952012872941098 0.45641792002604264 1.4768521807760144 113 255 69 442 406 0
-0.47346234989947222 0.37705383057091729 0.60498528179140942 131 255 117 82 527 0
0.75508769248268781 -1.1060597822704756 4.9270244705369706 222 228 255 445 202 0
0.52383745601461273 0.36879185651599511 1.0821021191536024 255 196 197 571 418 0
0.65654278183343917 0.0089759838821126953 0.91682110792982141 255 232 235 659 292 0
-0.024051346246169808 0.32591813226809319 1.5733089503597364 255 19 45 379 367 0
0.097982777739419435 0.40865568106688299 0.84201354402924133 255 33 43 427 475 0
0.56431455184959489 0.35163660084777787 0.98263699937895632 203 204 201 604 424 0
0.72093950674674789 0.33655479646140696 0.98430728980020377 255 194 195 667 418 0
0.71696953082643078 0.30390910630325513 0.97726926183392648 255 187 187 667 406 0
0.72514753190183179 -0.22353361003374156 4.2585395934864865 255 27 94 451 268 0
-0.58341594394115159 -0.68971304226646057 5.1573750089228634 35 78 109 340 236 0
0.54243776145987621 0.26534778488651428 2.9680221182764082 101 255 93 454 322 0
0.43929283146960901 0.33488967429762934 0.67196004647359475 113 255 69 634 478 0
0.017910350623830285 0.21340190647294813 0.53324741772970441 214 214 255 397 442 0
-0.25485101464338034 -0.37342886168369271 1.4245808346464244 47 85 115 316 189 0
-2.4065528330368844 -0.39543737818217728 3.4982111881280264 231 255 223 118 244 0
-0.51908836247430767 -0.55929735649308288 1.4670837722273342 196 255 137 250 142 0
0.68925745054187659 -0.071310669131642079 0.91578691074110063 174 177 185 672 259 0
0.59107071107800102 -0.15336259529814111 1.8241783547411079 86 255 77 506 256 0
0.094259264085479688 0.4064832766542526 0.78574075662984089 30 255 0 430 487 0
0.029175575207025434 0.30458992902582116 0.4438675550926684 56 88 255 409 553 0
0.4044072018861512 0.40633353179379955 1.460315369819273 66 255 51 490 395 0
-0.50242271403809868 0.030812577451136663 0.71908880805201958 255 198 182 115.200005 303.600006 1
-0.1961597307180093 0.36706475935179544 0.58454297933166288 153 143 255 253.200012 529.200012 1
0.49228468452411916 -0.072425363385295607 0.94275370957838234 255 24 37 583.200012 259.200012 1
0.27833261323361214 0.37289027262579943 1.2060587950503245 255 215 216 471.600006 405.600006 1
0.32361404456787751 0.44134815365298752 1.5916712747109414 255 68 87 463.200012 393.600006 1
0.71594372882910418 -0.22067851995431734 4.1870278832548182 255 31 96 451.200012 267.600006 1
-0.0045670955372226762 0.19371097222751482 0.7845669285810789 186 187 187 384 382.800018 1
0.58906065839148947 -0.84718561140199888 3.7593790459600238 223 228 255 445.200012 201.600006 1
0.74699088756985188 0.34912475429554091 2.5700578502545777 134 255 104 494.400024 339.600006 1
0.55368843024742542 -0.12240076907197923 0.98135594954271566 160 166 173 600 241.200012 1
0.24612054755545398 0.20129619562684073 2.3066528693818733 255 53 78 423.600006 321.600006 1
0.31849133722487227 0.42458613892953834 0.72007872216230395 255 140 142 555.600037 516 1
0.70612642093097344 0.32825202337220732 0.95968489741663143 153 255 154 666 417.600006 1
-0.016485473138947104 0.1836796639601648 0.52943854991324502 194 190 255 369.600006 421.200012 1
-0.031781679217779746 0.19221379856251417 0.717912940777373 255 65 69 367.200012 391.200012 1
-0.52061970021495418 -0.56082469271598678 1.467072831861022 163 196 255 249.600006 141.600006 1
0.49110526794976123 -0.14939134737744125 0.53283366677725097 215 255 185 738 180 1
0.64138875362963288 -0.1700976480902506 2.0188547244927584 87 96 255 505.200012 255.600006 1
0.45479628205033895 0.42716037354339687 0.8025378499349981 75 105 255 601.200012 493.200012 1
0.11759896510733084 0.42713935585315616 0.66170703836384315 53 81 255 453.600006 537.600037 1
0.63513222784054091 0.0056598758930392901 0.88412601023542348 239 255 233 658.800049 291.600006 1
0.54568141434954676 0.33426186267813512 1.0893343983342596 143 145 255 577.200012 405.600006 1
1.2208145764319598 0.16025903543526027 4.9320618834722572 43 62 255 477.600006 300 1
0.5530549818992242 0.41092367766881077 1.7655296755275913 112 124 255 505.200012 379.200012 1
0.54852495499338727 -0.070276354288126633 0.86735577878149261 255 234 235 623.52002 257.76001 2
0.31906079169497037 0.42743288069927932 0.72431565068630699 144 255 122 554.400024 515.52002 2
-0.248504249637095 -0.36317612004832928 1.4070719582516595 47 80 107 316.800018 187.200012 2
-0.16287217021962974 0.34129063050787511 0.60724371364987073 255 181 158 279.360016 505.440033 2
-0.20302792517622975 0.31570692272085871 0.59234181006288955 164 167 166 252.000015 489.600006 2
0.2011278729309551 0.3443822911185308 2.0415434881677132 255 136 141 423.360016 355.680023 2
0.65992938305205584 0.23438879921445366 0.92446393459317455 255 65 83 659.52002 385.920013 2
-0.25225495684496596 0.26207730421194669 0.9431086216924035 255 165 171 279.360016 394.560028 2
0.5538825467441767 0.37953579075766664 2.8009393571897343 94 120 255 457.920013 339.840027 2
-0.43259258818031265 -0.26569838220263475 1.3723548095466387 163 255 134 266.400024 213.12001 2
-0.51016792284622303 -0.62143385563325881 4.5506920326281293 114 255 32 338.400024 234.720016 2
-0.48347850053731456 -0.53196098406788617 1.3838430620492934 163 196 255 249.12001 141.12001 2
-2.7869903196065353 -1.8266377367377089 3.8567208219918516 182 199 255 105.120003 105.120003 2
0.53805021247015306 -0.15388295320394871 1.0919150876262498 77 90 255 573.119995 234.720016 2
0.69216316912716913 -0.063311797093555583 0.93927920453106772 238 255 236 666.720032 262.080017 2
-0.037705108618709182 0.25901666506065929 0.50943057957294369 110 131 255 357.120026 480.960022 2
-0.50686357694860507 0.078362058860313916 0.72449796125557064 255 188 184 115.200005 331.200012 2
-0.51254325111029553 0.028371977673220999 0.7306812421848814 255 198 182 115.200005 303.840027 2
0.50536230983553887 0.46730080194045437 0.91456458928786777 114 255 67 594.720032 486.720032 2
0.11703534241450653 0.43319806781342934 0.67233168552760614 53 81 255 453.600006 537.119995 2
0.30970022449656798 0.43294504954125174 0.716274071527085 102 104 114 552.960022 519.840027 2
-0.16785870666173064 0.3881853364393108 0.59426394377517888 167 255 165 278.208038 537.408081 3
-2.484333849283169 -0.23141414531973248 3.7154316382541559 185 255 214 126.144012 264.384033 3
-0.66536803866525152 0.30361932869456743 0.90084867839942118 255 149 156 103.680008 418.176025 3
-0.40145606931365929 -0.25984325685758403 1.3251452996441404 166 255 134 266.11203 212.544022 3
-0.59200628589076842 -0.50231409212495837 1.5196091842681623 159 180 204 236.736023 158.976013 3
-0.26641963248326606 -0.37516127877561378 1.4632400375129155 117 255 50 314.496033 191.808014 3
-0.51526713080138487 -0.52054253089052005 1.3951306361636746 170 198 255 241.920029 145.152008 3
0.63027778667973189 -0.061477737021967321 0.92267397735129997 235 236 238 644.544067 262.656036 3
0.66344608602721333 -0.071882615454837956 0.88139931345283284 211 255 233 670.46405 257.472015 3
0.45256190094794618 -1.0088840132087378 3.8017956336064938 216 255 185 430.272034 186.624023 3
0.65792385809935117 -0.2150686428338564 3.7857002203836068 255 31 96 451.008057 267.840027 3
-0.43829647866359689 0.42367378327158395 1.0254338286564246 148 155 255 221.184021 445.824036 3
-0.1567225878472821 0.33225744704851884 0.59078994698650145 255 175 160 279.936035 504.57605 3
-0.46824987892823855 0.41676203375457871 0.72057011097375012 8 255 4 138.240021 509.76004 3
0.41905328571714484 0.3701759934580488 0.77818250585343052 255 102 114 587.520081 471.744049 3
0.71995892022419827 0.336036507548236 0.980648326858654 255 194 195 667.008057 418.176025 3
0.099425746400566548 0.40371422732849283 0.83093161319621922 27 35 49 428.544037 475.200043 3
0.11674331295563803 0.44257605146122331 0.68588517469645927 38 55 84 452.736053 537.408081 3
0.31185469010530975 0.41102140923996744 0.69493156504107378 144 255 123 554.688049 513.216064 3
0.59344712864473981 0.0094143052514460701 0.90479390414436889 255 116 123 635.904053 292.032013 3
0.59623398327213573 0.29308110374141794 0.90348369770934578 255 64 65 635.904053 411.264038 3
0.5435941356963242 0.33515534552277804 1.0806293607781874 170 167 255 577.152039 406.080048 3
0.60636023530131045 0.23700226155068044 0.92534484446873577 255 13 32 635.904053 385.344025 3
0.29930848130846843 0.37484249951899734 3.1695669874575425 255 44 71 423.360046 333.504028 3
0.39660563544113103 0.39914859609322606 1.4326681098640819 43 61 255 489.024048 393.984039 3
0.56241160610962371 -0.12517715132851354 1.016304098097264 88 100 255 597.196899 242.611237 4
0.54066703069315847 -0.15458091788228676 1.0944108755209543 83 98 110 572.31366 234.316833 4
0.64807501366123077 0.079788276768151145 2.197294543941799 71 90 255 501.811279 302.745636 4
-0.49254360689694154 0.027528678192335343 0.70659987909389044 206 255 206 114.048019 302.745636 4
-0.43149361768575922 -0.63725330721103091 4.3928838248473534 28 79 113 344.217651 232.243225 4
0.50515856249638358 0.24608282715557372 2.7965396437237633 86 98 118 452.044861 321.408051 4
0.1662619590142799 0.34719088924345987 1.5881035476263754 153 156 154 420.940857 371.174438 4
-0.14518987565498331 0.26571532654463587 0.66780488204679289 87 93 105 304.819244 439.603271 4
-0.33634153895096575 -0.77918124083647988 4.392419265262502 17 60 95 356.659241 219.801636 4
-0.047314641012869973 -1.1016457411247937 4.2157137684211481 255 30 62 379.468842 186.624023 4
-2.8539686293814501 -1.1593825782958325 4.0926771178445245 216 218 223 116.121613 178.32962 4
-0.51526713080138487 -0.52054253089052005 1.3951306361636746 198 255 147 242.611237 145.152023 4
0.55718416501554535 -0.14592242842264752 0.92055629050667898 255 227 229 615.859314 228.096039 4
0.69717887974719261 -0.057161988398814839 0.95216301728082386 236 238 255 665.625671 265.420837 4
0.27282652181124922 -0.98842436390596844 3.9060583313499833 146 172 178 412.646454 192.844833 4
-0.21396591143678362 0.38112821894697035 0.61364329476506685 162 255 156 250.90564 522.547302 4
-0.46945648166366227 0.43588091957017189 0.88388244477065359 86 255 53 182.476822 479.001678 4
-0.25987209143119283 0.26516718523929605 0.95641135507009867 170 172 255 277.862427 393.98407 4
0.5057922185542636 0.38040681982170543 1.0478555441635546 202 255 203 570.240051 429.23526 4
0.099425746400566548 0.40371422732849283 0.83093161319621922 30 42 255 429.23526 476.92807 4
0.026430758042783664 0.26415073848897219 0.44512919977273191 68 255 42 406.425659 516.326477 4
0.41074873333144468 0.41659954377456659 1.5245842942440648 255 54 63 487.296082 393.98407 4
0.41306772095756816 0.33587900937638709 1.4239774146686495 138 145 255 493.516876 379.468842 4
-0.45050691639399754 0.17568992369477085 0.94164900214123359 169 174 255 201.139221 360.806458 4
-0.27957938195965548 -0.43657807368374141 1.3004878650614964 157 179 204 300.672028 159.667221 4
0.092517728572650906 0.41896795089803623 0.81677970484373785 255 37 43 427.991089 482.734161 5
-2.124789307951918 -0.22794682617399853 3.2077413647660826 185 255 215 126.904335 261.273651 5
-0.14501092216455957 0.29972524869956374 1.2032720004377913 255 0 4 335.923248 378.224701 5
0.497203058224856 0.45085598521518316 0.88195307602363726 65 83 113 604.661865 482.734161 5
-0.40002047662168849 -0.25894829694852761 1.3103718140099401 169 255 135 266.250275 211.507233 5
-0.59748672460283847 -0.46557256676755387 1.5026978294287376 255 173 188 231.413788 164.229141 5
-2.4202780840997713 -1.7932799455360511 3.8707887418448705 59 83 255 141.834259 109.486099 5
0.67101090657669715 0.41677855844406919 0.93033702695107268 255 71 86 659.404907 460.339264 5
0.7378090043651635 -0.062379919280683399 1.0114490765441755 237 255 236 666.869873 263.761963 5
-0.43141730062668759 0.39092305625250545 0.67376100152484941 0 0 0 136.85762 507.61734 5
0.10098529144928685 0.4071173408731541 0.83523170464733676 58 60 76 432.967743 472.780853 5
-0.34897993865384236 -0.82502011725691948 4.5954598204443604 255 14 54 355.829803 218.972198 5
-0.017023481868753243 -0.90670957613326664 3.4612756470000536 28 62 91 380.713013 186.624023 5
0.69879523242822039 0.13105961047024914 0.94706751777245124 95 121 255 669.358154 343.388214 5
-0.38762936784807711 -0.64761384519848308 1.6532524938528907 255 129 159 291.133484 136.85762 5
-0.54263031762524805 -0.46563278943943193 1.4127459731295104 203 255 158 238.878754 156.764175 5
-0.21396591143678362 0.38112821894697035 0.61364329476506685 255 160 162 251.320358 522.547302 5
-0.29210235629602266 0.25605712506895251 1.0767913463118528 152 165 171 276.203552 380.713013 5
0.24475817163058927 0.24816167281866613 2.0808737310224594 42 57 255 425.502777 333.434937 5
0.28505263996065838 0.38708798624020013 1.4314184435454402 75 91 121 460.339264 390.66629 5
0.42285871137818265 0.34916782698685456 1.5071735520269163 190 255 190 498.659424 376.23407 6
0.4211387389800052 0.25254554448110544 1.4937810769507094 132 255 98 486.715485 352.346191 6
0.31509780020288669 0.34638787308513691 2.7775761403939128 59 255 28 426.995789 334.430267 6
-0.41299997913596953 -0.26618218819440836 1.3336738603762224 149 163 255 265.752625 212.004898 6
0.69888110746353282 0.44188995717457064 0.98980335716446644 255 67 82 659.902588 462.827606 6
0.73322168818329425 0.34823783507734341 0.9954216980362931 203 204 202 668.860535 421.023834 6
-0.31776813090905343 0.42304773162805898 0.71916980279664344 157 255 155 214.990891 513.589355 6
-0.41485389393737948 0.39439329057814815 0.80864614876009122 87 255 53 182.145065 477.757538 6
-0.17420341266872041 0.35320547980837402 0.62448844169641926 176 161 152 280.682556 504.631378 6
0.01041604512100569 -0.81003916530335784 3.0581054652317441 255 29 65 379.220032 188.117035 6
0.56311572270999644 -0.14769569995194215 0.93203611635575079 255 228 230 615.112793 229.920807 6
-0.58732822076030089 -0.58116427975296026 1.55022011730952 171 198 255 241.864746 146.313248 6
-0.46514421397446015 -0.51796590399695719 1.3330701757069405 255 132 161 247.836716 137.355286 6
0.49045109416900806 -0.97860115883302745 3.9461654938783099 202 218 255 429.981781 188.117035 6
-0.34972615542850061 0.29247532993815128 1.4333420299860442 148 160 168 292.626495 373.248077 6
-0.4946610226388406 0.26866842235035743 0.68095937751936975 168 165 255 101.523476 438.939728 6
0.30408039109469009 0.41993155928506515 1.5575204018871625 255 68 87 459.841614 391.163971 6
0.15892285607406512 0.27504463566186776 1.4274193844129506 196 189 255 421.023834 358.318146 6
-0.40367156584507979 0.39065963928485287 0.79229926334965173 113 255 67 186.325439 476.563141 7
0.31125986928341559 0.44183868294754003 1.4388666713616673 215 216 215 472.97998 404.899536 7
0.59573829597167804 -0.14697810955314344 1.8382734222360793 48 62 71 508.811798 257.989075 7
-0.42718418832034877 -0.27086698989945868 1.3591355495745361 150 166 255 265.155426 211.407715 7
0.55347185020922407 0.4348472776402747 1.1236828160946633 204 204 202 576.892212 433.564972 7
0.49157644428956426 0.37516788754883817 1.039356726250656 192 255 208 566.1427 426.398621 7
0.10327866111932074 0.39529731751280645 0.81803026594558237 53 66 255 429.981781 472.97998 7
0.078461747514182362 0.38095948074883634 1.176350012887128 255 180 182 415.649078 412.065887 7
-0.081889423062765976 0.25810526703639391 0.6337717972529775 46 65 255 329.65271 444.314514 7
0.51642862272411905 -0.10969629625785476 0.91489198959350182 82 255 46 594.808167 243.656357 7
-0.58735821104025521 -0.45300214704937736 1.4742624232997772 195 212 255 229.323624 168.409531 7
-0.38564826294142529 -0.62400772240773683 1.5143133520245593 255 122 153 283.07135 128.994537 7
-0.4745237176737529 -0.5744017608823283 1.4014524685589893 189 255 122 254.405899 128.994537 7
0.8175289749378376 0.66075478473741678 2.8594773733181764 190 255 190 498.062256 376.23407 7
-0.4671669179763086 0.052794531697825914 0.64941334470033185 97 99 114 100.329086 315.319977 7
-0.35643029822567218 0.28806924386586286 1.0295302870125056 165 166 255 257.989075 394.149963 7
-0.030198319779835225 0.12300921930502454 2.5077834868020621 255 14 64 379.817261 311.736786 7
0.39562282302193397 0.10788481891520817 3.1523678637473749 64 83 255 433.564972 304.570435 7
