ply
format ascii 1.0
comment Written with hapPLY (https://github.com/nmwsharp/happly)
element vertex 145
property double x
property double y
property double z
property uchar red
property uchar green
property uchar blue
property float ix
property float iy
property uchar octave
end_header
0.25145977428268407 0.35124295651182708 4.7181695869819 173 255 145 406 316 0
0.34223058730111333 0.43524642436869709 1.1609202568266404 129 142 165 496 432 0
-1.7559236763098438 -0.5623282527422524 3.4707609610688452 228 255 227 190 226 0
2.3756392782982663 -0.046285895778839459 2.7603050195991079 255 77 147 715 280 0
-1.0108852049362995 0.21494854062068125 2.2677487757545203 151 155 255 213.600006 325.200012 1
-1.0685569570865949 -0.44672035600904247 1.5249901263375989 118 255 66 114.000008 172.800003 1
0.42743714411053779 0.40939051732859871 0.60560811677069992 255 115 129 651.600037 544.800049 1
-1.2676609087696487 -0.023083748984587427 1.4689388881729641 255 244 245 51.6000023 283.200012 1
-1.1945342067051108 -0.71481813900178715 1.3668896261019117 200 218 255 49.2000008 87.6000061 1
-0.41384552237849626 0.24912613447801524 1.3872727506650264 255 221 222 271.200012 355.200012 1
0.29938657424853332 0.33656460481719597 4.6155310240200871 174 255 145 406.080017 315.360016 2
0.21423701148090957 0.069290619123417163 4.2879548579069375 124 143 255 401.76001 295.200012 2
-0.4957900520331977 -0.95756022075824854 3.9328377755833852 81 103 126 332.640015 195.840012 2
-0.95948529300007168 -0.5468679894163101 1.3441887264824022 51 79 109 112.320007 132.480011 2
1.1127422352404686 0.43234575457631924 2.095736423767935 128 143 168 588.960022 368.640015 2
-1.012897860362254 -0.35473674204014982 1.4241478814643993 85 96 119 112.320007 192.960007 2
-1.2424089828935414 -0.17973996036532891 1.4683629331116177 238 239 241 56.1600037 240.480011 2
1.3538967707449048 -0.28326504673452169 2.2162462147742907 180 193 207 620.640015 237.600006 2
2.3117570213717729 -0.055038479854231492 2.6686087091003357 177 255 81 714.240051 280.800018 2
0.67483880482331737 -0.61439080684798175 3.405940893323911 255 204 213 459.360016 220.320007 2
1.0415735163807835 -0.58854897897377134 3.0468430327968914 242 255 232 514.080017 214.560013 2
0.9952100692001119 -0.49566069175297911 3.0879685718360532 243 255 234 506.880005 226.080002 2
-0.35647941873932831 0.275407530592092 1.6432498576742782 174 255 140 302.400024 350.784027 3
-1.0704959185049576 0.12351063887510483 1.403064011345597 255 108 126 91.5840073 321.40802 3
-1.0594558782043322 0.33222431876897152 1.386828052773927 255 81 92 91.5840073 380.160034 3
0.21026151062623244 0.52720426434007939 1.09896443564047 219 218 213 456.192047 473.472046 3
1.1055336759755288 0.43427904595159228 2.0835954561455123 146 171 255 589.248047 368.064026 3
-0.33186052677903 0.41985445028285973 1.6856470188822348 166 175 255 305.856018 385.344025 3
-0.99844838018146698 0.47596688821533861 1.6626479178642377 64 54 255 153.792007 399.16803 3
-1.2084895880581259 -0.21470117690278412 1.4210303935678836 236 239 255 57.0240059 229.82402 3
-1.2287963361430232 -0.37463300613856731 2.3149982892481935 255 225 227 183.168015 228.096024 3
-0.48626722171188774 -0.75068508476214935 1.813023979018789 255 172 199 279.936035 126.144012 3
-1.1018854718329321 -0.68775585059422817 1.4643428701180019 107 132 255 93.3120117 105.408012 3
2.411948939791273 -0.063598976909217647 2.822906424787254 150 177 255 713.664062 279.936035 3
0.48539787357849851 -0.63166309274339927 3.8331636375108431 139 160 180 432.000031 222.912018 3
0.44367600435344978 -0.52897438038817457 3.7919328798489653 173 255 133 426.81604 238.46402 3
-0.18064868176771531 0.5593794904708147 1.5195475397705298 233 234 234 340.416046 430.272034 3
-1.1234265432137485 0.45014997420316982 1.2776244669976613 111 123 144 48.3840027 423.360046 3
-1.0457985581543232 0.22726849264781812 2.325685423499797 146 150 156 212.544022 324.864044 3
0.35892004533321331 0.46862025099352173 1.1975111396901674 255 149 159 499.392059 437.184052 3
1.0878711243142769 0.41849963242986588 2.0147241549929102 128 143 167 588.902466 369.100861 4
-1.0508969854843144 0.43370388565080586 1.8565263574067608 255 126 124 163.814423 379.468842 4
1.3515036763915111 0.099841265790072034 2.0550325999073777 158 255 105 638.668884 308.966431 4
1.9516454875533 0.19429984528210315 2.2333137328077681 255 74 145 715.39209 321.408051 4
-0.50436227049665217 -0.08722715623289623 1.5245030120557215 255 101 111 255.052841 265.420837 4
-0.56722938866281769 -0.06452893532335946 1.4858438798288627 137 255 110 238.464035 271.641632 4
-1.2344004251172334 -0.021543296572386406 1.431222822373484 255 244 245 51.8400078 282.009644 4
-1.0449712312034105 -0.17484129416186189 1.4379232755051392 255 37 42 103.680016 242.611237 4
-1.2172786667828714 -0.1711820842722207 1.4381144469291915 255 239 240 55.9872093 240.537628 4
-1.2227016850464065 -0.81260736023446789 1.4156221519920602 255 150 177 51.8400078 68.4288101 4
-1.0384356068991627 -0.90441692334572843 1.414980699678055 53 79 255 101.606415 43.5456047 4
-1.2162510027158966 -0.90582294788020024 1.4285873391801798 183 255 151 58.0608063 41.4720078 4
0.99716640959166902 -0.42826575421712709 2.5405382623540955 233 237 243 532.915283 223.948837 4
0.065319716954638229 0.022563832521516447 5.5534153799315451 255 95 117 387.763245 286.15683 4
0.85775875274114299 -0.33870204870324844 2.9434888827573094 255 240 242 495.590485 240.537628 4
-0.44635572759833941 0.26210032040443887 1.4995066685270753 219 221 255 269.568024 356.659241 4
-0.19145265232020114 0.51318508438570853 2.2121711801788377 55 83 105 348.364838 377.395264 4
0.33248138528196192 0.32674092711707436 0.69728871109820156 179 255 170 566.092896 470.707275 4
0.34829697556301897 0.45850585766912749 1.1671745518427623 255 149 159 499.737671 437.529663 4
1.3180176216247306 0.10804574350418093 1.9933390943949183 255 104 127 639.498352 308.551727 5
-1.0699387518795827 0.34410453846571409 1.6133843585691134 13 20 23 124.416016 370.759735 5
-1.0645157144467934 0.32944951799805999 1.3725034414732926 100 101 255 89.5795288 378.224701 5
-1.4479783990768764 0.66252990460159589 2.1655695980066945 0 0 255 129.392654 408.084534 5
-0.26932960684135177 0.35761968282556877 1.7218143246785784 255 56 83 323.481659 368.271423 5
-1.2042976495380846 -0.72424091451405392 1.394597475324745 189 201 218 52.2547264 89.5795288 5
0.6524123723025681 -0.58127789150329956 3.2376424227615388 201 214 255 457.850952 218.972198 5
-1.1300533026323727 -0.38569549040243911 1.5841397534641497 255 93 105 111.974419 191.600662 5
0.037311271465580109 -0.000927984849548813 5.5988232145995713 95 117 137 388.177979 286.15683 5
0.36442569959495441 -0.47169827228684014 3.5271155606006683 255 145 160 423.014465 236.390427 5
-0.42823972617691153 0.44898900802833142 0.71625662903827969 255 163 184 151.787537 525.035583 5
-0.40977960113734868 -0.67055924641957687 2.7085680975359132 98 117 143 328.458282 194.088989 5
-0.54585356375978566 -0.53618819393838069 1.5263837542236938 255 200 214 243.855392 149.299225 5
-0.37758001852414402 -0.32823839757084705 1.6024037754313323 232 240 255 293.621796 206.530594 5
0.90031696422560481 -0.3742962345637767 3.2419441226906613 240 242 245 492.687439 241.367081 5
-1.0514628153300105 -0.17564386419662215 1.4327799974413629 31 37 66 104.509453 241.367081 5
-0.31154066232852706 0.44160987815967945 1.4021916029049573 187 255 180 298.59845 410.572845 5
0.26322043737239853 0.26806004369260389 3.7519210146769142 155 170 174 408.084534 313.528351 5
-0.57053691798197637 0.44720409691181251 1.2447364221863104 199 255 198 206.530594 425.502777 5
-1.0457985581543232 0.22726849264781812 2.325685423499797 255 137 143 211.507233 325.969971 5
-1.0142447152762997 0.40210597181055074 1.4759481044768901 255 22 32 119.439377 393.154602 5
-1.2914362973290472 0.40382292977018441 1.4937798350852618 165 164 255 49.766407 393.154602 5
2.4474206740692281 -0.064372659488898559 2.8690556151493283 178 255 88 714.147949 278.691895 5
-0.6296489374516927 0.13770738056230747 1.6240819690682855 255 151 154 235.892776 322.486328 6
-0.49231248962951124 -0.50844372210069144 1.3817702846060089 214 229 255 241.864746 149.299225 6
-1.425805291494564 -0.10957809090444093 3.0203451074935517 213 212 212 200.060959 271.724609 6
0.31646346698235073 0.50649900096195255 1.0154601102181431 143 161 255 501.645416 480.7435 6
0.015309400394109884 0.037299057193457774 5.8245530029415846 117 136 255 385.192017 286.65451 6
-0.97889906944745331 -0.48829298192547754 1.3347245226979028 255 52 82 107.495445 152.285217 6
-1.1956115794633266 -0.57999462610900021 1.3973954288083106 198 210 223 56.7337074 131.383316 6
1.0649280442436448 -0.37076894760938628 2.4968829352949005 241 245 255 549.421143 232.906799 6
0.93530175000397242 -0.43603673779265861 3.373353458934945 240 242 245 492.687439 241.864746 6
-0.34267651913533204 -0.43069024370670006 1.4223015727083497 255 216 224 295.612457 173.187103 6
-0.55488671342028839 -0.46292429621283626 1.5527976477624339 224 229 236 244.850739 173.187103 6
-0.31905299012340338 0.43848998268503392 1.3593222768424109 204 255 206 298.59845 412.065857 6
-1.1940241640088716 0.0064889103513183777 1.8139604096076791 42 63 85 128.397339 283.668549 6
-1.2172786667828714 -0.1711820842722207 1.4381144469291915 238 239 241 56.7337074 241.864746 6
-0.38158032376275131 0.28369956844007982 1.7769779181146808 135 255 127 298.59845 352.346191 6
1.1975401558807814 -0.45042927083952011 2.0750889189819128 232 240 255 609.140869 206.032928 6
0.76351939726183604 -0.47950198542369993 2.7423184008277 243 255 234 486.715485 220.96286 6
-0.58667588828141781 -0.058282442066875051 1.5225940683942065 137 255 110 238.878769 271.724609 6
-0.37400946659596057 -0.22078531233499721 1.5477899444056842 255 234 238 295.612457 235.892776 6
-0.25792327413884042 0.21396962744281456 2.760153855515262 117 138 255 349.360199 313.528381 6
-0.58797890364540972 0.46737500149836853 1.1303920852253477 184 255 153 182.145065 450.883667 6
0.2867884522392472 0.29803664345045128 4.1040819197709881 175 173 255 409.079895 313.528381 6
1.2069839348966152 0.51338852570819349 1.8839228421952638 104 108 255 633.028748 397.135956 6
1.0329653567561528 0.40583932978759296 1.9278115548773593 128 144 169 588.238953 367.276093 6
1.4039088568478055 0.51269875280230548 1.9104982491398186 255 177 176 659.902588 391.163971 6
-1.1222103075006697 0.33590884878578187 1.478577494928635 102 99 255 89.5795364 379.220032 6
-1.3664203272117383 0.36733050594321093 1.6644232382861546 54 64 79 68.6776428 376.23407 6
-0.17090772287172573 0.53734933150830444 1.4526235468085131 190 194 196 340.402252 426.995789 6
-1.1414575134360443 0.35103709091356006 2.2025201060610851 255 127 128 179.159073 352.346191 6
-1.0172556691151837 0.34729642836454377 1.5709190130286612 0 255 0 134.369308 376.23407 6
-1.2650774267103699 -0.85031822260350909 1.5001031444622361 152 176 206 56.7337074 68.6776428 6
-0.65902785475114589 -1.3569262903236665 2.8299112923495429 255 166 192 295.612457 104.50946 6
0.1717989199403136 0.37555924321780132 1.0520146707734597 255 196 207 447.897705 422.81543 7
-0.69703246211757275 -1.0767026252077803 4.5578415340150382 148 255 106 326.069519 197.074982 7
0.032995361600046458 0.016665257270093492 5.8433736670716634 136 255 95 386.983612 286.654541 7
0.376647311017408 -0.49812814891280111 4.0631106759480211 255 162 173 419.232239 243.656357 7
0.68692578322723463 -0.65552942572033956 3.665925951441352 255 144 170 455.064056 222.157257 7
-0.81994486317886395 0.22190504472395622 2.0695547128780811 133 135 147 236.48999 322.486359 7
1.2099965436292239 0.26118473767016182 1.9483423294311235 255 103 124 623.473572 340.402252 7
-0.35161304089189427 -0.30297900563632285 1.495453942718961 233 240 255 293.820892 211.407715 7
-0.52846552891036591 -0.444342644971367 1.5010134671234248 255 228 232 247.239532 175.575897 7
-0.55867045733910814 0.44690921263615391 1.4158933454295402 147 156 174 232.906799 412.065887 7
1.2975601935587597 0.16261724935374061 1.7798660051642825 162 255 90 662.888611 318.903168 7
1.0622738800050744 -0.69354100054857748 2.3136023058836663 235 255 215 562.559509 179.159088 7
-0.60290980339937938 -0.068367274991656957 1.5399208879195214 145 152 167 236.48999 268.738617 7
-0.35994749677512727 -0.21499049479044363 1.4976433461508911 237 243 255 293.820892 232.906799 7
-1.0115381067807654 0.27700855146418402 1.3118269866568468 115 128 255 93.1627197 369.067719 7
1.4951717006931571 0.5485517986728744 2.0103580706003967 112 124 255 673.638123 390.566803 7
1.1609341740811212 0.44328332903727169 1.7919822935685135 38 255 13 630.639954 379.817261 7
-0.26127070556045906 0.34849051671518538 1.3474926620950409 150 162 170 308.153625 386.983612 7
1.1004070925680249 0.53359881785005014 1.8382164899498115 24 32 46 612.72406 401.316345 7
0.88449483435478216 0.4142596753974892 1.9120472081773547 88 255 75 558.976318 369.067719 7
0.27430988494972808 0.25751672675561355 4.4486875851337615 157 171 175 408.482697 311.736786 7
-0.56078473852823052 0.42392103383259327 1.1890888852127994 255 199 201 207.824539 426.398621 7
0.044069043201909075 0.3996649611300705 2.3318140153253761 92 255 50 390.566803 351.151794 7
-0.99697604611457846 0.22568300969781707 2.1814519927260303 255 137 143 207.824539 326.069519 7
-0.94899779522558303 0.19084485174108656 1.728936528997103 255 140 145 179.159088 326.069519 7
-0.18632916469219785 0.52638636922801108 1.5408506636294854 190 194 196 340.402252 426.398621 7
-0.75930795402015461 0.44683669762795453 0.97248401160680231 156 176 255 85.9963608 462.230438 7
1.3955959847955373 -0.066530269089943084 2.2417259299988981 178 255 136 630.639954 279.488159 7
-1.0018926176077998 -0.57164571713340551 1.3633524597194904 255 59 88 103.91227 128.994537 7
-1.0044618000634729 -0.63652559470238113 1.3636719606096803 255 47 77 103.91227 111.078629 7
-1.073804620586587 -0.21883393784161265 1.4653333823821502 38 52 78 100.329086 229.323624 7
