ply
format ascii 1.0
comment Written with hapPLY (https://github.com/nmwsharp/happly)
element vertex 95
property double x
property double y
property double z
property uchar red
property uchar green
property uchar blue
property float ix
property float iy
property uchar octave
end_header
1.3638874134428844 -0.73553316071833008 2.1127691046725463 232 255 213 634 154 0
-0.94836483129473059 0.16949105367922329 1.0530808049196811 255 13 24 39.6000023 351.600006 1
1.3839054141971179 -0.25673558804958829 1.8001093524117335 208 222 255 681.600037 231.600006 1
0.68663122722956826 0.57145319761171676 3.1657028405997965 160 179 255 469.200012 358.800018 1
0.81273693336220254 -0.65824303796215189 3.3878939970841948 238 242 255 477.600006 213.600006 1
0.15523711222632608 -0.0018971867854515878 5.4150165852935963 185 255 152 394.800018 286.800018 1
-0.51630367865290072 0.49968389778568323 0.75830905305225471 255 133 147 123.600006 541.200012 1
-0.47972926286673356 -1.8456927331010915 3.7164832464292097 177 255 145 334.080017 97.9200058 2
0.1268532975652652 0.026240461925673142 5.3015749362467552 164 180 255 393.120026 288 2
1.1804505230184814 0.46240187184844794 1.7433319981038995 255 115 133 643.680054 390.240021 2
1.4014673742518404 -0.052851109574205857 1.7116584064648883 255 80 148 699.840027 276.480011 2
1.1423158619859834 0.39572623963417375 1.762252466780807 205 255 193 630.720032 373.248047 3
1.174797426826204 0.4603948956184537 1.733954329639527 159 255 113 642.81604 390.528046 3
-0.5480579491040527 -1.3987504905637089 3.542736477377864 255 106 126 323.136017 136.512009 3
-0.51510227367556638 -1.8994063640416901 3.8810377546363837 164 181 255 333.504028 98.4960098 3
-1.2944778536227277 -0.00091936456336028094 2.5481461371869303 255 244 245 191.808014 288.576019 3
-0.42935806592383585 -0.94285523034936647 3.5591538733610619 160 255 113 338.688019 188.35202 3
-1.003075664398156 -0.31712593549775436 1.8257677064274302 225 225 255 169.344009 222.912018 3
-0.94265259570346238 -0.48390994495324668 1.0555751089220884 255 29 43 39.7440033 114.048012 3
1.1015409437041921 -0.56221833304786595 2.6648756799780582 241 255 227 542.592041 210.816025 3
-0.52301255037803118 0.49927838841594574 0.7631604716200644 133 146 169 120.960014 539.136047 3
-0.3812054541422869 0.27946132611107993 1.104628815067751 227 228 229 252.288025 385.344025 3
0.54908051246084222 -0.61631190025170746 3.4565564150276353 100 129 255 445.824036 216.000015 3
19.206916682367236 -31.257448924316872 58.887092904307799 169 191 216 508.032043 84.6720047 3
-0.9046770619207587 0.49188285745892135 1.2461850585229564 136 132 255 101.606415 437.529663 4
1.17154434273589 0.46125778222853075 1.7349728703833689 165 255 120 642.816101 389.836853 4
1.304139841762872 -0.23098319351923602 1.6779308739196566 165 191 213 680.140869 232.243225 4
-0.13947355585213561 0.023450177003442318 2.627333660593953 92 114 135 364.953644 294.451233 4
1.2364983297350518 0.55350621028941283 1.4560164313652972 255 0 0 707.097717 433.382446 4
0.73665338513758138 -0.62389627058604835 3.2063056198112951 244 255 238 470.707275 217.728027 4
0.50507002668220657 -0.51580280429007208 3.4336788254877337 163 185 255 437.529663 228.096039 4
-0.96519092118718586 -0.40509767926760065 1.0843745296231462 255 54 67 39.398407 143.078415 4
1.2138283429339252 0.24773424895918561 2.2772118796381333 100 128 145 588.902466 325.555237 4
-0.91117840736820011 0.35795472580219662 1.0612081489253287 255 18 26 55.9872093 414.720062 4
-0.52682096176419257 -0.046467061100450291 1.1693074351305994 117 135 255 209.433624 271.641632 4
1.2248137069036722 0.42149343857210186 1.5105720230097806 43 50 69 692.58252 398.131256 4
1.4175777098252749 -0.059727729415480768 1.7483047461762693 82 151 181 696.729675 277.862427 4
0.1105324635248417 0.0084510282870619013 5.6302307425698039 255 118 136 391.910461 290.304047 4
0.051999446601571409 0.55790819481367881 0.9087950847645172 219 255 209 406.425659 522.547302 4
-0.2086285212014245 0.37633141242141066 1.3378586692310677 37 62 86 320.993317 395.642944 5
-0.30917769430891084 -0.30036594793773719 1.197642524193987 115 134 156 288.645172 189.11235 5
-0.38056158359694559 0.28175364650171913 1.1108919732383304 227 227 255 253.80867 383.201324 5
1.1325822368495588 -0.62434797775855611 1.9567679248485641 220 227 235 604.661865 161.740829 5
-0.526897371369353 -0.037847437660065042 1.1558063396669476 117 135 255 209.018906 271.226929 5
-0.53046776949946395 -1.3847238955592469 3.4338434588976012 255 106 126 323.481659 136.85762 5
1.4088974472318929 0.15543196702357731 1.6359015500274445 76 142 168 716.63623 325.969971 5
1.4078492112897942 0.12495855891325248 1.6838995981352323 138 165 255 709.171326 318.505005 5
-0.30622765643723149 0.51070358296824014 1.0585148125621493 118 140 255 273.71524 477.757507 5
1.2471991328968226 0.46482417284873623 1.5038087372730295 172 176 179 704.194641 403.10791 5
1.1379880188228404 0.36724710668293692 2.012741133940728 129 147 174 604.661865 358.318115 5
1.0643963852271585 0.48100067477358754 2.077553297617392 109 124 255 577.290344 375.736359 5
-0.90718674241493602 0.48413745339866454 1.2383007704656221 105 255 135 102.021133 437.944397 5
-0.264947776672527 0.25647874198280013 1.1040533785326367 48 76 99 292.626495 379.220032 6
-0.33357320328590934 -0.42573964767745753 1.1537254403971895 255 188 208 271.724609 146.313248 6
1.1665444511141034 -0.67856482240631388 2.0546390756562767 255 222 227 603.168884 161.243164 6
0.94661494957198156 -0.33134166456285163 2.724751803503886 239 242 245 516.575317 241.864746 6
-0.34248065413787732 -0.2124049291136495 1.3296062644225284 161 255 121 286.65451 226.93483 6
-0.30775232595725477 -0.29140434023777956 1.1708590794166094 229 235 255 277.696564 188.117035 6
-0.57827995185389103 -1.4170156457384957 3.5528998985864044 153 255 107 322.486328 134.369308 6
0.52080543730850426 0.50886600673649685 0.98271880364485886 255 94 111 591.224915 483.729492 6
1.3247076742025201 -0.29242784007613798 1.7425146067885615 255 118 157 671.846497 226.93483 6
0.35827441116795922 0.34553940487095602 4.5046464220262559 255 153 167 415.051849 319.500336 6
0.089408991494430934 0.039155558007807734 5.427718704938636 255 118 136 391.163971 289.640503 6
-0.526897371369353 -0.037847437660065042 1.1558063396669476 117 135 255 209.018921 271.724609 6
-0.92205492280209711 0.025031544372137615 1.1542926277973686 203 255 213 74.6496124 295.612457 6
0.71315164261132069 -0.59372803837915411 3.0438848948533561 255 237 239 471.785553 214.990891 6
1.0944141282980966 0.43711113478384089 1.5868144185768847 114 130 157 644.972656 391.163971 6
1.2818621788141578 0.29652921134263022 1.6016387143985762 160 182 255 689.762451 364.290131 6
1.1258288938049468 0.29851028591024614 1.457107826036431 156 255 118 674.83252 364.290131 6
1.3915654143671279 0.12573484406320545 1.6542854269044414 255 62 134 707.678345 319.500336 6
1.3522663615571697 0.084047178640526993 1.6602219091056289 255 67 147 695.734375 310.542389 6
1.3411215602099049 -0.08123463127099817 1.6641719750806665 150 179 255 689.762451 271.724609 6
-0.24604399995878845 0.4093355015324977 1.1527572609580745 66 90 255 301.584442 424.009796 6
1.1210420576094262 0.36425629086254052 1.9594317996377306 255 129 146 603.168884 358.318146 6
-0.62429167754896309 0.20865041733723966 1.3314482277466455 255 130 145 207.824539 351.151794 7
-0.50480938229254679 0.45026891130794044 0.83644176615722987 236 255 236 154.076813 494.479065 7
1.1098161221498632 -0.60117246512456979 2.6322809810381136 219 229 239 548.226807 200.658173 7
-0.11971771375868179 0.56471566332896084 1.1229306466949698 255 183 184 343.985443 483.729523 7
-0.52365845745763551 0.49364358361847566 1.1289676082515054 109 116 135 204.241348 447.897705 7
-0.90737396774854862 0.027318045865938279 1.1278450176942303 255 200 202 75.2468109 297.404083 7
0.33217996628439561 0.29040918810645877 3.5389829453481934 255 153 167 415.649078 318.903168 7
0.11181540616810337 0.019557731321940941 5.3635561327224064 156 255 102 390.566803 290.237701 7
1.351349005312446 -0.22898361017071317 1.7759679765918692 156 197 255 677.221313 240.073166 7
-0.98502319877381073 0.24487932687678038 1.9640590370254341 195 255 182 186.325439 340.402252 7
-0.89857447894701625 0.47846623349090689 1.2257376548040391 255 170 171 103.91227 433.564972 7
0.098946012677851414 0.44243375698357967 2.1144638359718622 150 146 255 401.316345 376.23407 7
-0.25436116087024541 0.41623481526644107 1.2034873198956428 38 67 91 300.987244 426.398621 7
1.2709339338701564 -0.66757106229560526 1.9803413589968946 233 255 214 630.639954 157.659988 7
1.1257248206650914 -0.66383050922045228 1.9563930901436368 228 236 255 601.974487 161.243179 7
0.94661349439380382 -0.35058035548825583 2.7844052128911683 255 239 242 515.978149 240.073166 7
0.45940392858732038 -0.51250888358154656 3.6908167970940209 173 255 133 426.398621 240.073166 7
0.76957875907399353 -0.6649913247538296 3.4557598242870515 239 243 255 469.39679 214.990891 7
-0.54144263878828847 -0.047452460218973147 1.1695527835111732 171 177 188 204.241348 268.738617 7
-0.45009211023440443 -0.068403979451402419 1.1596496543573722 105 131 255 229.323624 265.155426 7
-0.63943338166732833 -1.0668132354405968 4.179942723686505 103 255 56 322.486359 189.90863 7
