ply
format ascii 1.0
comment Written with hapPLY (https://github.com/nmwsharp/happly)
element vertex 197
property double x
property double y
property double z
property uchar red
property uchar green
property uchar blue
property float ix
property float iy
property uchar octave
end_header
-0.57531867358673239 0.3435391720576022 1.1819819444488409 44 51 77 196 400 0
0.23952068661881731 -0.7457046686980533 5.0618767695928097 255 140 158 403 232 0
-1.1136827328708061 -0.16872472048622464 3.2233449737344149 95 113 255 253 268 0
-1.5713934671466023 -1.3532112547665547 3.0793839298631149 255 185 203 187 118 0
-1.6903164307879739 -1.3084458015192415 2.962200737751516 207 215 226 164 118 0
-1.545119194555634 -1.9477853464538222 3.0118455091932117 255 126 160 187 40 0
-1.720524233241199 -0.32446568431142442 2.9977783440129961 255 241 242 163 247 0
-1.7521784104653162 -0.47979829477088942 3.0468587314055768 255 240 241 163 229 0
1.2310532928941129 -0.5061963204261053 2.6228913546029688 241 255 227 562 214 0
-1.8127766308687177 0.15583028484733369 4.608408098810691 255 103 121 235 301 0
0.010021908447123362 0.40540843410992755 2.8674327531219204 213 211 255 385 343 0
-0.33507862444020553 -0.07998885162592867 6.2925359128537393 96 117 138 364 283 0
-0.63358863186158199 0.32675420785343173 0.72737628730456261 182 163 255 49 460 0
-1.249558059015158 -1.7812716999786626 4.9430730889821284 228 255 221 286 148 0
-0.50395489281261252 0.44376624226251182 1.0739948141525617 122 146 255 201.600006 446.400024 1
-1.1037827046598037 -0.16512448903446825 3.1852815195432251 95 113 255 253.200012 267.600006 1
0.037699630413287277 -0.75628340977751929 5.4076976192151127 255 153 165 387.600006 235.200012 1
-1.6631326723954296 -0.061567565415290376 2.9814029897111443 245 247 255 169.200012 279.600006 1
-1.5486784354524472 -0.23005437368493431 2.9421277747098302 244 246 255 181.200012 258 1
-1.0270096550160832 -1.5371716213646065 5.4119359914621414 223 235 255 309.600006 180 1
-0.91712176942511725 -1.0567503764295625 5.3101829381068191 241 255 229 318 213.600006 1
-0.31424530954421903 0.46194195143837669 1.431240591703451 130 139 255 297.600006 412.800018 1
0.43468338451854083 0.44953052943349725 1.2369384550283815 137 158 255 517.200012 427.200012 1
-1.4906562789214739 -1.2897945483144566 2.9139953989286305 255 185 202 187.200012 117.600006 1
-1.4815558564116564 -0.83712728757715227 2.9075347057252285 255 222 228 187.200012 177.600006 1
-1.4549500215384041 -0.90189167696963113 2.8704735554835366 221 233 255 189.600006 165.600006 1
-1.4889976300796954 -0.75027600827348062 2.9149064453248741 230 233 238 188.400009 189.600006 1
0.1602952767864454 0.46686374968017386 2.2056719040984576 220 255 221 414.000031 369.600006 1
-1.6626102604040018 -0.31769556331403759 2.9221121913237429 255 241 242 163.200012 247.200012 1
-1.4779820125093663 -0.7452858705527422 3.2920979260441845 151 164 183 212.400009 201.600006 1
-1.3676491312672514 -1.9907094752159318 5.4402513493190252 224 228 255 285.600006 147.600006 1
1.0646093676643027 -0.70568448662334493 2.5997670063632401 236 255 223 538.800049 183.600006 1
-0.62168399185026857 0.32114903138636697 0.71475389195935191 185 169 255 49.2000008 459.600006 1
0.0037982588097293934 0.44284598231395295 0.66133759087582833 255 218 219 387.600006 543.600037 1
-0.8732640509929861 -1.7492446181853132 4.9397532768052548 255 190 210 315.600006 151.200012 1
-1.6507192216095676 -0.92061686471186688 3.22094618621386 255 222 228 187.200012 177.12001 2
-1.6724271266470319 -0.82711116790468697 2.9011574640939588 229 236 255 165.600006 177.12001 2
-1.7256556140154751 -0.93956274149913566 3.0021259718607913 233 255 217 162.720001 167.040009 2
0.45361558464238638 0.48186817769479529 1.3511866194302384 255 142 152 515.52002 426.240021 2
0.0011078320689459353 0.4458477158218413 0.66690602666728438 255 217 217 387.360016 542.880005 2
0.047057443003019284 0.46161291496478263 0.72377321359158442 214 255 214 406.080017 531.360046 2
0.35073332212066211 0.52916165861167852 2.2306076098017349 255 127 133 447.840027 378.720001 2
-1.4653702003685352 0.30042901258432464 2.5865290546091684 228 225 220 168.480011 334.080017 2
0.14962863140319094 0.48458112521917657 2.3093261985015912 255 221 220 411.840027 370.080017 2
0.51008264374725532 -0.4754261072476812 4.6522686746013724 202 255 149 426.240021 250.560013 2
0.19516399188787092 -0.61962480903897088 4.1441597399130012 157 177 255 401.76001 231.840012 2
-0.55814616640608294 0.36586014693140023 1.1063068984143931 46 255 128 190.080002 417.600006 2
-1.8963395861643924 -0.64030319052994689 3.6762437041308864 232 236 241 188.640015 220.320007 2
-1.730567291255166 -0.63083644048069032 3.0251183075574111 236 241 255 165.600006 207.360016 2
-1.4803130987056021 -0.67806419838894871 2.8918971255038723 255 230 234 187.200012 198.720001 2
-1.8045968449011895 -0.74667775669763725 3.1744597417548279 236 240 255 165.600006 197.280014 2
-1.3655267942328275 0.42599536268966154 2.127574623045029 130 255 86 138.240005 361.440002 2
-0.83655290923448078 0.25593156686248131 1.2679399890898289 69 97 113 132.480011 364.320007 2
-1.8655125302956441 -1.4439828604431146 3.2807448855340251 214 226 255 165.600006 118.080002 2
-1.7367203979836212 -1.4798467208644572 3.0254993884624408 180 197 218 164.160004 99.3600006 2
-1.4728996421225085 0.12677827371529282 3.7594983568742624 136 255 100 234.720016 300.960022 2
-1.5213946614231344 -1.0726785786666611 2.969186421733149 206 217 229 188.640015 148.320007 2
-1.6820124404757202 -1.0665720614499068 2.9440470855286573 219 230 255 165.600006 148.320007 2
-1.4797120755479143 -1.1424854856769475 2.9046744288594413 198 211 226 188.640015 136.800003 2
-0.98093240690430772 -1.4596067225891962 5.0759712783560476 223 235 255 309.600006 180 2
-1.020399072495429 -0.1509434483785301 2.9713338711728103 95 113 255 253.440002 267.839996 2
-0.79124991825153579 -0.40092145328195239 2.9618993560109925 228 255 228 282.240021 236.160004 2
-1.7149015535718806 -0.48497239789164348 3.954081160610623 116 131 151 216.000015 240.480011 2
-1.5220558959079264 -0.22732318533124574 2.8931222089487325 244 246 255 181.440002 257.76001 2
-1.140388560726898 -2.2160485471784437 6.2705563438034515 255 190 210 315.360016 151.200012 2
-1.660772340238386 -1.7598914926963676 2.9780133405006106 255 140 171 171.360001 60.4800034 2
1.5409786682524496 -0.83449670554078637 2.579736218196095 232 255 205 614.880005 164.160004 2
1.2244867732519429 -0.50635220535478243 2.6466632658726681 226 233 241 560.160034 213.12001 2
-0.41450186100311814 0.44489624898571956 1.2872804009567766 79 109 111 260.640015 420.480011 2
-0.0057321057060204517 0.3188062890052355 0.64789614327144407 219 218 255 381.600006 478.080017 2
-0.78260913382565933 0.29367610356511059 0.84142545212637332 60 84 64 28.8000011 420.480011 2
-0.54979732018245042 0.47329360387797348 1.1665925168875129 122 146 255 201.600006 446.400024 2
0.032503905287703194 0.41512102194991224 1.0891616745717918 218 255 220 394.560028 436.320007 2
0.60477196457621374 0.47784039203423312 1.8927933103614958 209 211 212 508.320007 385.920013 2
-0.86237264541041903 0.31330804032504167 0.95772731742100192 255 35 55 39.7440033 412.992035 3
0.49383479950369924 -0.48123020715565812 4.5269839959774894 202 255 149 426.81604 248.832031 3
0.2266232443061047 -0.71853444895937046 4.8651807011852775 144 157 177 400.896027 231.552017 3
1.3701093090019587 0.26857883598089627 1.5792297497493379 123 137 255 713.664062 354.240021 3
-1.3652524875564298 0.51110134788204264 2.1135253305097477 255 74 81 139.968018 381.888031 3
-1.389684762923205 0.33118960856161173 2.7443520645241408 216 255 217 190.080017 333.504028 3
0.61011247259986923 -0.63041459097152375 4.3098368634939357 235 239 244 440.640045 231.552017 3
-0.34072307284671721 0.45239304929486701 2.1816219492551894 147 169 255 321.40802 368.064026 3
0.86609234295161208 0.37801509140392947 2.5320500439775708 45 52 61 516.672058 342.144043 3
-1.1844823458384708 -0.18534191011616899 3.3976398002077186 74 93 112 252.288025 266.11203 3
-1.4584985415797651 -0.69101509508151626 3.0040604189430367 229 233 239 196.99202 198.720016 3
-1.7099906422215381 -0.25307705010434406 3.2231374638823862 244 246 255 181.440018 257.472015 3
-1.6721764822062264 -0.46550817543948897 2.9347060564985323 240 241 244 164.160019 228.096024 3
-1.0558341298861 -2.0709836384450226 5.858128067287339 227 255 190 314.496033 150.336014 3
-1.807480340985105 -1.1452580578493929 3.175988895835399 219 230 255 165.888016 148.608017 3
0.65431946061393653 -0.71048574147630983 3.9695237853284135 238 242 255 449.280029 216.000015 3
1.1035113494350854 -0.73206505238447539 2.6844059748200024 255 223 230 539.136047 184.896011 3
-0.42029825955827205 0.45124726610584354 1.320239962343583 80 112 114 260.92804 419.904053 3
-0.0062346332174987307 0.3202541037932562 0.65088564646300195 221 221 220 380.160034 478.656036 3
-0.8126771488687905 0.1382421130541639 3.1004581944415777 114 129 255 285.120026 307.584015 3
0.59265665668146106 0.28197546410914659 0.97288169423312598 9 13 26 620.352051 397.440033 3
0.62911133552532017 0.50983326327047496 2.0395599703043912 211 255 205 506.304047 385.344025 3
-1.3700726121088147 -2.0061931509710864 5.5194643297738786 202 215 227 288.576019 148.608017 3
-0.4609307578496713 0.467909563596838 1.2741976812102269 126 255 96 246.758438 431.308868 4
-0.42978603438613083 0.39859360417832457 1.0686690828027252 74 98 101 228.096039 431.308868 4
0.61405440096949437 0.33366746797774488 0.86674920395352339 117 114 255 657.331299 435.456055 4
-1.3478615637039812 0.50031019044509251 2.0936551633905749 83 255 52 138.931213 383.616058 4
-0.53326168093482051 0.31878419950167936 1.0932866089530984 30 35 58 196.992035 402.278442 4
-2.0073782715486219 0.39896685073543481 3.50750499566223 255 226 218 167.961624 333.84964 4
0.50330568674129839 0.34208615458855829 3.1193858921740083 255 128 155 443.750458 329.702454 4
-1.4573699806931919 0.12824495364900701 3.6847928232248899 140 255 108 230.169632 300.672028 4
0.014962416670532441 0.33146354128298294 2.6820190051348418 90 102 255 385.689667 331.776062 4
-1.0518164191781345 -0.16057298450053267 3.0257194991555876 74 94 113 252.979233 267.494446 4
-0.79962147030298025 -0.39861260217156769 2.976124487358037 228 255 228 282.009644 238.464035 4
-1.4951345981451101 -0.67640597208032394 2.8929649027056854 239 255 230 186.624023 199.065628 4
-1.5507171772494739 -0.85730664844850557 2.9994203672491051 236 255 223 186.624023 178.32962 4
-1.6623241049758524 -0.27304553892302064 2.9310416140869675 243 245 255 165.888031 248.832031 4
-0.97887564731369814 -1.9238212838661326 5.4823927980980915 255 190 210 315.187256 151.372818 4
-1.6821123455517988 -1.7118282216591736 2.9547069640196093 255 152 178 163.814423 64.2816086 4
1.1008306337506639 -0.70881666119789277 2.6452090805200243 255 223 230 539.136047 184.55043 4
-0.31470348761538558 0.44489261925796686 1.4017444846683791 136 255 96 294.451233 412.646454 4
-1.4070140011618095 0.20100233131681397 2.8779956760655425 146 255 189 194.918427 317.260834 4
0.43969064259384072 0.47458839238474604 1.1809664898872421 190 255 170 526.694458 439.603271 4
0.15505867994480127 0.44817423059371053 0.82314023963135319 203 206 204 456.192078 499.737671 4
-1.3515912361734439 -1.9585015469108478 5.3873150332417881 203 215 228 288.230438 149.299225 4
-1.1360551722770871 -1.5892313076761535 5.5273063128807758 209 222 234 308.966431 178.32962 4
0.50852643846711099 0.3980038587173611 1.5599242440854684 208 209 255 505.129028 385.689667 5
-1.4424013425220199 0.13676645041319668 3.6535180954640021 255 107 123 231.413788 301.086761 5
-1.6501304590109807 -0.31023833693765979 2.9345229912209678 245 255 241 166.717468 248.832031 5
-1.3631010317975703 -1.9729178470456148 5.4863811219451177 203 215 228 288.645172 149.299225 5
-1.6497871207067898 -1.7674445755704118 2.9719763650474613 255 136 169 171.694107 57.231369 5
-2.2074041629799801 -2.252023221906347 3.9005372278042838 149 176 208 164.229141 64.6963272 5
15.852814343676858 -19.022464100111097 33.436290036552776 138 173 209 564.848694 72.161293 5
1.1096523134700895 -0.73949009919127418 2.7853033249807941 255 223 230 539.965515 184.135712 5
-0.34792484315626826 -0.070684619715797981 6.4266338265153342 255 95 117 363.294769 283.668518 5
-0.092129081941615842 0.33689830057384063 0.58142349237797264 211 209 255 325.969971 512.593994 5
0.02862690346048824 0.40533878834998804 1.1022051833958277 255 226 220 395.642944 432.967743 5
1.4706977094170457 -0.15379375007199156 4.9461532429686912 247 249 255 497.664062 273.71524 5
-0.41182301848624725 0.43347229028003004 1.0357432506533872 255 50 79 231.413788 445.409332 5
-0.40674380096678187 0.42679391925759641 1.2653702607429236 117 118 255 261.273651 415.5495 5
-1.0552724545149803 -0.98824075945912337 3.9120425607910789 228 255 227 278.691895 189.11235 5
-0.56966797637917721 0.47011923742385148 1.1891198000710612 255 113 127 199.065628 442.921021 5
0.23647365495347628 -0.65149829183858532 4.4844396755826033 144 157 177 400.619568 231.413788 5
-0.57265091535824131 0.38159206641841642 1.9772505762524042 255 89 112 271.226929 360.806458 5
-1.626010939212299 0.35535268240876611 2.9040533019886943 213 255 207 174.182419 335.923248 5
0.050221952595647767 0.42300070108091126 1.322659649326841 153 255 114 398.131256 410.572845 5
-0.55569827010716222 0.38783858833040175 2.6858604167479196 182 200 255 301.086761 340.899902 5
-0.42972455136384458 0.32775653614488992 0.57135112718128811 204 205 204 92.0678558 505.129028 5
-1.5357152715669558 -1.0480548282078139 2.9495332571776971 208 218 230 184.135712 151.787537 5
-0.97887564731369814 -1.9238212838661326 5.4823927980980915 191 210 228 316.016693 151.787537 5
-0.10907652799551193 0.22086783007018121 3.3444338114811023 85 108 255 373.248077 319.500336 6
-1.0627912972267528 -2.0622218027943839 5.8787839599612477 210 228 255 313.528381 152.285217 6
-1.6038552106983235 -1.0178175540055001 2.8299663673021098 255 209 218 167.215134 149.299225 6
-0.9299338434694433 -1.4025286036671809 4.8072063345265539 255 208 221 307.556396 176.173096 6
1.107488137740092 -0.73490006777101513 2.8195532874261544 222 229 237 540.463196 185.131042 6
-1.2462610136338306 -0.18470194814665172 2.6939455362898692 244 245 247 200.060959 262.766632 6
-1.4539044803743821 -0.45526656238323349 3.3964035355138602 157 255 129 214.990891 241.864746 6
0.69987243050315839 -0.74500639739483987 4.5523476706064283 243 255 233 438.939728 226.93483 6
0.55618972936567612 0.29953722226906732 0.90929694287898188 104 104 255 621.084778 415.051849 6
-1.8939583587568483 -2.6769599385999188 7.5956677290723054 228 255 222 286.65451 149.299225 6
0.16021845819630798 0.46260491945141635 0.84441826791723962 206 203 255 453.869659 498.659424 6
-0.0023991899734241429 -0.50297014665144901 4.5968235901624537 255 29 44 379.220032 247.836716 6
-0.12575242860334712 0.37813702961549561 0.69617081100187184 219 219 218 316.514374 498.659424 6
1.5289772955252257 -0.7995447682036565 2.4899071062956359 255 203 217 615.112793 167.215134 6
1.2304032099374713 -0.84245206950349572 2.6395121807695903 221 227 235 564.351074 164.229156 6
-1.025178940616021 -0.65895130208898989 3.1097183911549764 107 124 146 256.794678 206.032928 6
-0.98326005126353078 -0.70905153835726886 3.0045810166498086 107 123 146 256.794678 197.074982 6
0.44463705183772451 0.47242212694403779 1.3204389146139506 165 184 255 513.589355 424.009796 6
0.44102516353172316 0.47946134198124557 1.3920927877831377 255 235 235 507.617371 418.037842 6
0.48202555461513497 -0.48462159560442331 3.5401899842205866 218 220 255 429.981781 235.892776 6
-0.52301394357570108 0.3810154081102981 1.091697183871176 123 139 41 200.060959 424.009796 6
-0.43848937474616734 0.45117628915852442 1.0934801569012211 61 92 90 232.906799 447.897675 6
-0.44736192185813972 0.47622873328803572 1.4251495267515466 94 255 61 262.766632 418.037842 6
-0.93714012193954543 -0.15353930990034062 2.7181245242271208 109 255 66 250.822708 265.752625 6
-0.79300598717522508 -0.38774306629795946 2.9479672563297106 227 229 229 280.682556 238.878769 6
0.58007299866599349 0.46484155764533064 1.8559483749680687 186 189 255 501.645416 385.192017 6
0.10823549477417727 0.50534241014554193 1.7849504649652341 199 115 255 409.079895 397.135956 6
0.35179965472034702 0.38903819844169318 1.9236473703159023 255 147 160 447.897675 364.290131 6
0.10058295225463221 0.44807532510726122 2.3577723217786826 255 223 223 403.10791 367.276093 6
-1.3718210427224178 0.11950847821513429 3.4708777412609679 119 138 255 229.920807 304.570435 6
-1.4817504212770261 0.3402973482673165 2.9235855236380295 204 200 194 188.117035 331.444275 6
-1.6075351200244641 0.34972165961189683 2.8634893522373863 184 194 255 173.187103 337.41626 6
-0.44509247072886859 0.46956636343274294 2.8273487413828757 231 255 228 322.486328 349.360199 6
-0.21487291040004086 0.024155634923825581 4.2526027753701667 119 138 255 361.901337 286.654541 7
1.3538758994992206 -0.14515578509521215 4.5731316123776358 247 255 247 498.062256 275.904999 7
-1.1849055277361833 -1.1140053457028112 4.3287283361762485 255 226 227 275.904999 186.325439 7
-0.47065295824061737 0.39707548208535215 0.99491662187338648 126 150 255 197.074982 444.314514 7
-0.905395726202046 -0.39639489870215039 3.2127868998736204 255 227 228 279.488159 240.073166 7
-0.76090380787168144 0.34432375211371463 0.99730230012047061 155 153 255 89.5795441 419.232239 7
0.58903905560267245 0.27085041975986185 0.88726006242054312 100 255 100 630.639954 404.899536 7
-0.49604774908305704 0.49649572441735179 1.2272235907812061 80 77 255 229.323624 447.897705 7
-0.35980251977345157 0.47488336225067451 1.5197054454172938 135 255 96 290.237701 412.065887 7
-2.0396500211524646 0.1822668963886804 3.3213197740645066 247 255 240 150.493622 300.987244 7
-0.12442535950499156 0.11837636349713512 5.1993957478142798 100 121 143 372.650879 293.820892 7
-1.3365109849532426 0.13624908686061266 3.3776509674947821 119 138 255 229.323624 304.570435 7
1.5589020533946341 -0.77632250435240024 2.584838020279292 203 218 232 612.72406 168.409531 7
1.1168878941826414 -0.7394267314752504 2.8095012553752796 229 237 255 541.060425 186.325439 7
1.2260054764476342 -0.87934702886929039 2.8070489057104853 255 220 227 551.809998 175.575897 7
-1.5677106846489548 -1.0623167394206667 2.9838473996600894 230 255 207 182.742264 150.493622 7
-1.1505888222353295 -2.1109069565305676 6.148684638874804 255 194 212 311.736786 154.076813 7
-1.9989747815684002 -2.792338666535199 7.9902607187242349 228 255 224 286.654541 154.076813 7
-1.6638081958999007 -0.31225174377569848 2.9879539887016637 241 243 245 168.409531 247.239532 7
-0.55142529864261891 -0.86504570783113155 2.8906253548672742 208 221 234 308.153625 175.575897 7
