ply
format ascii 1.0
comment Written with hapPLY (https://github.com/nmwsharp/happly)
element vertex 166
property double x
property double y
property double z
property uchar red
property uchar green
property uchar blue
property float ix
property float iy
property uchar octave
end_header
-1.3582353037044208 -0.83920261355886128 2.6178698926529997 213 222 233 184 163 0
-1.4328337434595384 -1.358593893679966 2.3890668027823452 210 255 158 154 70 0
-1.5173609306033287 -1.0609637576135253 2.5703231568844251 218 228 255 157 130 0
-0.76122034263611704 -1.0457361869042539 5.0598700888087427 233 236 241 328 208 0
-1.2890271638222512 -0.71928803443334199 2.8654189632329761 113 140 255 213 193 0
-1.551900341988075 -1.7440291083065147 2.5936190713704557 199 255 128 154 28 0
1.2679088081756351 0.50090072763825955 2.1587406096129156 112 255 108 610 376 0
-1.2649744039569253 -0.48446364770654071 2.4372685154774545 255 232 236 183.600006 211.200012 1
-1.5487984923226716 -0.29387768898690492 2.5913512585531691 240 242 245 156 243.600006 1
1.5349926147043977 -0.84238176999482062 2.069635098197534 219 229 255 669.600037 132 1
-0.8350581136154922 0.47752505763520592 1.0814714696019467 255 19 26 87.6000061 457.200012 1
-1.4180439550000954 -1.1312044605454137 2.7393255842791193 255 201 212 183.600006 129.600006 1
-1.4714333309192962 -1.0272437909944205 2.471402305078354 219 228 255 157.200012 129.600006 1
0.71063967664040717 -0.43239232740265188 4.155795140683443 255 240 243 451.200012 249.600006 1
-1.3144473696694772 -0.17485495191926487 2.4943857016739219 244 246 255 181.200012 259.200012 1
-0.77311075094850112 -0.58662760803965575 2.4981637182656193 255 230 231 267.600006 199.200012 1
-1.4166440216126679 -0.15798081000071459 3.4193836968536822 101 127 255 225.600006 271.200012 1
-1.5441516790836012 -0.82700618617219024 2.574512613644262 255 216 224 151.200012 163.200012 1
-1.135981055571218 -1.9446286746511037 4.9642478130148602 180 203 224 296.400024 136.800003 1
-1.5564062068101925 -0.91858079291773032 2.5860906520366909 220 231 255 153.600006 151.200012 1
0.15834944025375219 -0.45390822493533289 3.5010317262281481 255 101 114 399.600006 237.600006 1
1.5810682377534941 -0.7090924772305307 1.8305183720658906 255 213 221 715.200012 139.200012 1
-1.311815948906478 -0.28292081831143956 2.4795918283228175 245 255 240 182.880005 243.360016 2
1.6250467529527493 -0.58533839013683586 4.6826142795061356 245 255 238 514.080017 239.040009 2
1.200561097249043 -0.57760616660871622 3.7291766927563277 239 244 255 509.76001 230.400009 2
-1.5508767072390484 0.22496638774074496 2.5032590701309467 159 255 202 146.880005 324 2
1.0831810837237794 0.33999197520275687 2.1108941173979181 140 145 154 580.320007 347.040009 2
-1.2976229178703567 0.16331751841342038 3.3572557546175323 82 106 255 237.600006 306.720001 2
-1.2648699887430443 -1.1009934099112426 2.4244822775866872 190 204 222 184.320007 115.200005 2
-1.28662751704648 -1.2527681320158517 2.4508530139580946 217 255 176 182.880005 93.6000061 2
-1.1731566836091547 0.36110064743622561 2.2542985259083315 209 255 199 182.880005 351.360016 2
0.7695473208294733 0.41063385117741152 3.2192082504398121 255 134 153 475.200012 336.960022 2
-1.491448406227037 -0.58073643128193619 2.4989586567934214 240 255 234 154.080002 198.720001 2
-1.6049135934373737 -0.71380557791475352 2.720159747090678 255 233 236 155.520004 187.200012 2
-1.3103400116898229 -1.6604350792691605 2.4646459817811945 125 160 200 180 30.2400017 2
-1.3018358490277566 -1.0285587071370665 2.4820683505264993 200 212 226 184.320007 129.600006 2
1.2820865975174818 -0.8597933809976005 2.288628922792197 215 229 255 597.600037 145.440002 2
1.5250574115502373 -0.82798967951242841 2.0501759548513752 219 229 255 669.600037 132.480011 2
-0.57383541849866493 0.49555463827983459 0.76123903021828188 201 199 255 93.6000061 540 2
-0.32760598055299583 0.37341509463922767 0.59185227351098524 255 110 139 171.360001 528.480042 2
0.19868712236236519 0.42181535933155223 1.8897972730325487 217 215 255 425.088043 373.248047 3
1.1655797874222891 0.39513900318634304 1.7830429136156005 166 255 155 634.176086 373.248047 3
1.2533025536056916 0.49147760277109931 2.142710866570245 118 114 107 608.256042 376.704041 3
-1.3910031634160869 0.29486751755215845 2.2601689766761535 211 255 224 146.88002 338.688019 3
0.92044682498693409 0.34764709882584222 2.8599379411062085 93 106 119 504.57605 333.504028 3
0.22789860105926518 0.33920245291500539 1.993576698222026 132 255 88 426.81604 352.512024 3
-1.3704105829288658 0.44498979325480498 2.9589038630743225 255 27 33 207.360016 343.87204 3
-0.78560088588186217 -1.417565477145952 4.6478650650386877 218 233 255 317.952026 171.072021 3
-0.61530938686295666 -0.37547827273108481 2.5676632445835144 236 243 255 293.76004 231.552017 3
-1.2364401953790525 -0.40336148473331163 2.8583854413545167 93 112 134 216.000015 236.736023 3
-1.2106900726939869 -0.17888770028145556 2.2873854139804064 244 246 255 181.440018 260.92804 3
-1.4784364003771331 -0.28616831753129091 2.4837755437519191 242 245 255 157.248016 243.648026 3
-1.1913430164609129 -1.9803262353478663 5.1333923484746924 255 181 204 295.488037 138.240021 3
-1.2603911493170172 -0.87029853606319807 2.4192629540142909 207 218 230 184.896011 150.336014 3
-1.4924254097419261 -0.98197735556791632 2.4980023634057194 255 209 217 155.52002 134.784012 3
0.23352801194348549 -0.70770853864291516 4.8843861448538561 170 255 158 402.624023 231.552017 3
-0.22757148155320261 0.4692766946282983 0.73886000475898062 35 74 71 264.384033 532.22406 3
-0.12192313395760834 0.51110346134674367 0.98827201449712865 152 165 166 336.960022 485.568054 3
-1.0707310044749137 0.40548505385671885 2.2533049780001853 233 255 232 202.176025 357.696045 3
0.79708701464879561 0.49425179451913454 1.3895356631657805 217 218 217 608.256042 423.360046 3
0.71074674178118002 -0.61377825821708154 3.6044735292609982 255 236 239 459.648041 222.912018 3
-1.2818738286125071 -1.4578487949073342 2.4366195163852264 255 140 172 183.168015 60.4800072 3
-0.4121523081677656 0.39724784881693609 2.2593591653200598 203 212 255 313.113647 354.585663 4
-1.3219445044066882 0.2828137137681338 2.1364799516606725 223 220 255 145.152023 337.996857 4
1.0954055620529211 0.33841842525901145 2.1618323839036777 152 155 162 580.608093 346.29126 4
2.2947547461284761 1.1798166102517986 7.3275330369159093 255 157 167 503.884857 350.438446 4
0.83792591629537871 0.45405140548505563 3.5115466094978469 133 157 162 476.92807 337.996857 4
-0.53989758126633758 0.3144572891681765 2.5326253537219112 233 233 233 300.672028 335.923248 4
-0.84886394358989037 -0.9504516052649401 3.3121060240950122 230 255 225 286.15683 176.256027 4
-0.81639719633239771 -1.4242821050527688 4.671362432911617 218 232 255 317.260834 170.035217 4
-0.81725839616210427 -0.11991114088344954 2.5070019177968965 217 217 255 257.126434 267.494446 4
-1.7570911870659081 -0.19899631257943945 4.2320843315858498 122 255 76 226.02243 273.71524 4
-1.5011590402657347 -0.44516379552448582 3.4711189082439056 255 96 115 215.654434 236.390427 4
-1.2550409440772898 -0.63739711228883755 2.395668306975284 228 233 238 180.403229 186.624023 4
-1.5643985723941753 -0.69504490181642598 2.6259171657739415 255 233 235 155.52002 186.624023 4
-1.1913430164609129 -1.9803262353478663 5.1333923484746924 180 203 224 296.524841 136.85762 4
-1.5115298570332678 -1.4297987514720627 2.5329057126129992 255 158 182 155.52002 68.4288101 4
-1.2766221054365077 -0.89053922865885871 2.1417833260426717 222 230 255 157.593628 126.489616 4
1.2404648406653678 -0.67892532667747185 2.1721741522735778 218 232 255 601.344055 170.035217 4
1.5209609921703742 -0.75505084912946963 1.9568594088230582 235 255 227 682.214478 141.004822 4
-0.22757148155320261 0.4692766946282983 0.73886000475898062 90 88 255 265.420837 532.915283 4
-0.19725481185554683 0.42725839134333832 0.76851709127912704 171 183 185 284.083252 497.664062 4
-0.060745377518167221 0.47948383183473359 0.87453155310606201 124 255 94 354.585663 497.664062 4
-0.34305114060578079 0.38291730164334731 0.61848987673831668 109 138 151 172.108826 526.694458 4
-0.33946352241007149 0.34768613608939258 0.65318582187349672 205 207 205 184.55043 495.590485 4
-0.53777860837834934 0.53905804063801765 2.0815752507633118 95 255 59 286.15683 387.763245 4
-1.2021234789141499 0.36439600465921607 2.3062590510113741 191 198 205 184.55043 352.512054 4
0.18173467450479652 0.35702557632690862 0.86019245727919813 212 255 221 466.560059 449.971252 4
0.39198223450036251 0.50951770491681692 1.0652640017706072 159 255 124 526.694458 474.854462 4
-1.0573735641105326 -1.754542964192116 4.5034408084535968 224 255 180 294.451233 136.85762 4
0.72043926110256273 0.3226352529544978 2.7295242854112853 99 255 91 482.734161 333.434937 5
-0.87186922066184636 -0.13055082129965931 2.632287516868987 210 212 213 256.296997 266.250275 5
-1.5350938783242385 0.21822032679822828 2.4579051185385801 137 255 200 146.810898 323.481659 5
1.1631148800780955 0.45009106924504505 1.9674955687731077 120 121 120 612.126831 375.736359 5
-1.2645080931450803 0.16257201102028015 3.2457971248475799 67 87 110 236.390427 308.551727 5
-1.2962631315331286 0.16791532502589113 3.3214456189417954 99 118 137 228.925476 308.551727 5
-0.5616102493410251 0.30677135202357564 2.6027855116738632 255 236 236 303.575073 333.434937 5
-1.2275724820732572 -0.15517916891098543 2.4912295347854783 243 255 244 194.088989 263.761963 5
-1.4876931914046567 -1.0444379432720388 2.5156375689912758 209 217 228 156.764175 134.369293 5
-1.4876931914046567 -1.0444379432720388 2.5156375689912758 217 222 230 156.764175 126.904335 5
-0.20629174890768609 -0.047653275192215128 6.8005516816918483 139 255 98 370.759735 283.668518 5
-1.0693172526371715 -1.8687979462350803 5.037672542071622 207 227 255 301.086761 144.322586 5
-0.13481144273040968 0.49735425457715776 0.80192983374150595 113 255 81 318.505005 525.035583 5
-0.59933099092675768 -0.49521251583685766 2.4647893531489751 232 240 255 293.621796 211.507233 5
0.028618453804032828 0.38722642134430585 0.98357303861490353 172 60 255 393.154602 435.456055 5
0.73036185883801952 -0.54451929545499989 3.7797305162439478 243 243 245 452.874298 233.902115 5
0.79712254656141457 0.47964551573146075 1.3130026363972696 202 203 255 617.103455 427.991089 5
-0.61584597731906054 -0.37009709800782076 2.5642077450997491 236 243 255 293.621796 231.413788 5
-0.14023676231783377 0.48141443886051588 1.7245036912216429 142 255 104 350.85318 393.154602 5
0.40146298247860535 0.53695715155983226 1.110046870189588 255 123 138 527.523926 472.780853 5
-1.3399098628752717 0.37367723254585328 2.3083252456136818 164 173 187 164.229141 353.341492 5
0.14943135674947206 0.2767711663852761 1.7467076853782282 98 255 58 418.037811 345.876526 5
0.049974526281438836 0.18255329495277933 3.8897543250306921 114 133 161 388.177979 303.575073 5
-1.4681686115978492 0.18483625344829485 3.0600389212640176 108 119 139 204.042267 311.040039 5
-1.522220683449544 0.13729293413293572 2.4247945599862546 239 244 248 144.322586 306.063416 5
-1.0466053050654378 0.48158543474903637 3.1930542083072444 147 150 149 256.296997 345.876526 5
-1.2527942456492562 0.49981447470724472 1.4487145963861874 218 209 255 49.766407 420.526154 5
0.96188085407435675 0.19811321042135074 2.9909519528140507 255 122 147 507.61734 316.016693 5
16.062900271046935 -18.903671941302754 33.211132533699953 141 174 210 564.848694 72.161293 5
-1.152701646910252 -1.917942962570689 5.0069771368258342 182 204 225 296.110107 139.345947 5
-1.5093175335113971 -0.22466571684123704 3.6949826748205483 255 84 108 223.948837 265.752625 6
-1.4763101650447301 -1.4153407085500926 2.48215117346182 156 180 210 152.285217 68.6776428 6
0.64081577549260049 0.4979340803020702 0.95948360401152311 255 93 100 639.000671 489.701477 6
-0.17504069843868875 -0.022818816857878108 6.2702035698187943 117 136 255 373.248077 286.65451 6
0.37091950391269513 0.47792457790646331 1.0012921426768946 118 133 157 528.519287 474.771545 6
0.97268364126341456 -0.76109741711558154 3.4708483375301293 225 232 239 492.687439 200.060959 6
-1.1699204714727411 -0.14926446578592029 2.403959036002393 243 255 244 194.088989 262.766632 6
-1.5193885967173895 -0.47737936264008485 3.5143069388479837 146 255 109 214.990891 238.878769 6
-1.4511192636237071 -0.27685971611444959 2.4756494836854914 245 255 241 158.257187 247.836716 6
0.75230220185731578 0.46068196423753538 1.2447333900814455 255 150 172 615.112793 429.981781 6
-0.064878676877606178 0.4848084670321281 0.89227096396876959 255 88 117 355.332153 498.659424 6
-0.11129867361779855 0.47346554202229346 0.94046011558003384 139 255 119 334.430267 483.729492 6
-0.59351869591816619 -0.49789194570152229 2.4426947247825823 224 232 240 292.626495 212.004898 6
-1.0369068675849178 -1.1078922799485282 4.0051720083713525 255 226 227 283.668549 176.173096 6
0.7226797746172251 -0.53723243668710841 3.7318232035594612 245 245 247 456.855652 235.892776 6
0.12873643198266738 -0.63159768966130292 5.4799904674118194 55 255 13 394.149963 244.850739 6
1.7278295546418772 -0.12912265415565949 4.7173922392247754 255 245 245 519.56134 274.710571 6
1.2125053859892869 0.1986185564863121 2.0976681112384674 255 102 158 603.168884 325.472321 6
-1.0463183014132946 0.46455283527788277 3.1972551725265435 141 145 144 256.794678 346.374207 6
-0.5616102493410251 0.30677135202357564 2.6027855116738632 236 236 255 301.584442 334.430267 6
-1.3574699620171828 0.3744506904279874 2.3274019222731366 174 182 193 164.229156 352.346191 6
0.82740009128569625 0.35474522681103782 2.54145636098866 169 177 175 504.631378 337.41626 6
0.21751155061685012 0.35922417280978358 2.2077527993930923 132 255 88 426.995789 352.346191 6
1.302862654863097 -0.701955700502915 2.283473599760923 255 204 218 603.168884 170.201126 6
-0.329252754629622 0.33823773322483525 0.62355284580765491 206 255 206 186.325439 494.479065 7
-0.91137303050444407 -1.521184249173035 4.9693054373725918 255 202 218 315.319977 168.409531 7
-0.10819337570235898 0.46327431777962202 0.9103643358861504 138 138 255 333.235901 483.729523 7
-0.42728123589474687 0.43997314890457834 1.6985923390343984 255 74 99 283.07135 386.983612 7
0.82812351639083204 0.43729110665617965 1.0750942748833765 51 54 61 680.804504 437.148163 7
0.73129464081568474 -0.53723598536502348 3.8442699562649398 255 244 245 455.064056 236.48999 7
0.1573855321317621 -0.5266887256106878 4.6608607862860394 66 255 13 394.149963 247.239532 7
-1.9089738891767407 0.46907139739631981 2.3439087564057441 255 51 46 71.6636353 365.484528 7
1.672632058526359 -0.62880700521663768 4.9624674543699019 238 241 245 512.394958 240.073166 7
-1.3292337256561098 0.38079614294759578 2.5441445895547261 255 212 209 179.159088 347.568604 7
1.5905925755132524 -0.86242143636991708 2.1507036082688336 230 255 211 670.054993 132.577713 7
-0.95994504823146931 0.34372754259068439 3.9587211245765275 175 194 255 293.820892 315.319977 7
-1.0369068675849178 -1.1078922799485282 4.0051720083713525 255 226 227 283.07135 175.575897 7
-0.76567225448934018 -0.12828169324380589 2.3236988803543421 208 255 195 254.405899 265.155426 7
-0.59942917288324171 -0.35529146774956977 2.4964255070143389 238 255 228 290.237701 232.906799 7
0.055817981616245405 0.1640667394031155 5.0003864844125712 149 255 104 386.983612 300.987244 7
0.46843600455796808 0.36110426720372657 1.2343507271524041 156 255 114 526.727722 397.733154 7
0.97067498206625791 0.19630104030190165 3.0674515836100475 144 157 255 505.228607 315.319977 7
0.65657030878520251 0.51236412653104724 1.0965660044590639 57 79 83 612.72406 469.39679 7
1.310842937841229 -0.70652141570474358 2.3357645380035414 218 233 255 601.974487 171.992722 7
0.43218903462062741 -0.73552604735657623 4.7682648592866954 255 142 161 415.649078 229.323624 7
-0.77713647557815513 -1.292380941126634 3.3671440793282965 205 225 255 293.820892 139.74408 7
