ply
format ascii 1.0
comment Written with hapPLY (https://github.com/nmwsharp/happly)
element vertex 122
property double x
property double y
property double z
property uchar red
property uchar green
property uchar blue
property float ix
property float iy
property uchar octave
end_header
0.24647297275320579 0.43841179078188175 0.64682401151315716 156 173 255 529 550 0
-1.4339985232195001 -0.27192102305044957 2.270437836728207 255 241 243 139.200012 241.200012 1
1.4149337354393614 -0.68869109028885989 1.955733187608685 255 202 216 663.600037 153.600006 1
-0.70953594763214145 -0.88978347633052124 2.9240065248992684 224 234 255 289.200012 169.200012 1
-1.2349952634045356 -0.12454792907183576 2.9254133363941621 255 63 82 223.200012 273.600006 1
-1.416185130116967 -0.41689238183510258 2.2287863060565578 242 255 236 138 217.200012 1
1.4256277926175378 -0.70403608141438589 2.0308859107720973 255 203 217 655.200012 156 1
-1.157036378188939 -1.0750180842746109 2.1043039147876716 255 152 171 175.680008 93.6000061 2
-1.3862046898985292 -0.011151385892089638 2.2518249509439894 246 247 255 145.440002 286.559998 2
-0.34023428581029247 0.50697292800451343 2.2533691300928327 236 255 234 326.880005 374.400024 2
-1.1440727195886291 0.34956135461135157 1.7914262625886099 224 223 255 141.12001 361.440002 2
-1.1636482477483745 -0.53281553372253987 1.7977569222223422 241 255 236 138.240005 175.680008 2
0.98894458357004678 0.52607413299026495 1.0801356368020989 255 198 202 735.840027 475.200012 2
-0.69172499074745408 -0.86305858820559989 2.8213326063870046 214 224 234 288 168.480011 2
-1.1611935712911197 -0.46149681218722594 2.1235116066116526 255 194 201 175.680008 204.480011 2
-0.75638038458527346 -2.0443683651136735 5.1757081598948655 224 255 181 326.880005 135.360001 2
-1.3832819375054797 -1.3847042277852963 2.1670584145483653 255 132 165 139.680008 43.2000008 2
-1.4279018749733363 -0.88691561627691839 2.2329935000955974 255 211 219 135.360001 133.919998 2
-1.5370852681369924 -1.1148209780505292 2.4184529631036709 215 226 255 141.12001 110.880005 2
0.85630802262511752 -0.53327266093707826 3.6113138065302417 243 244 246 472.320007 230.400009 2
0.33770205040274703 -0.68379873547997971 4.5764767677324336 255 157 169 411.840027 228.960007 2
-0.79663079542271786 0.53283918641274697 0.86206702373030586 115 255 118 30.2400017 522.720032 2
0.18232810326092985 0.40065792938828781 0.6368266021029827 255 137 149 495.360016 528.480042 2
0.429161336976561 0.51467171593589189 1.5375486587636127 157 169 185 492.480011 417.600006 2
-1.1853156698640936 0.17992637408448492 3.0228640041524706 73 95 255 233.280029 309.312042 3
-0.90016594400436434 0.34143288150717882 1.8548363642146968 13 255 13 198.720016 355.968048 3
-1.0319431567857902 -1.9221419391777208 4.6359226690489361 201 223 255 297.216034 129.600006 3
-1.3800390075853586 -0.55733858633286082 2.1704791014048386 255 235 237 139.968018 188.35202 3
-1.3983957940672873 -0.64634547467692449 2.2093989747921476 241 255 236 138.240021 176.256012 3
-0.47817604560704563 0.39623705791645519 2.1069705424669283 255 192 195 295.488037 361.152039 3
0.87387936633548224 0.43296130762402862 2.9150477855007866 129 134 255 497.664062 345.600037 3
-0.69383418788251605 -0.50467340240096947 2.2463183781928273 231 232 231 264.384033 203.904022 3
-0.83390838874226381 -0.11392457960749575 2.5029808923706769 175 178 255 257.472015 271.296021 3
-1.5899559684815663 -0.17001221061525851 3.7768526686496307 103 255 66 222.912018 273.024017 3
-1.1676254805182262 -0.68960357540510298 2.1052576177818185 203 255 209 174.528015 162.432022 3
-1.2229643095998997 -0.15264241578863702 2.1963196167297023 245 246 255 169.344009 259.200012 3
-1.2092992278051358 -1.2439177090538744 2.1769893972901224 187 255 149 174.528015 69.1200104 3
-1.2023729614707657 -1.4492606393122562 2.1738295267548318 255 128 162 171.072021 32.8320045 3
-1.1898375855497032 -0.94934922854604475 2.1383049686509339 255 207 215 167.616013 117.504013 3
-1.3646950121038 -1.0027729168602066 2.1522257888111298 255 208 215 139.968018 110.59201 3
1.2906268569384141 0.51103258862016587 1.48699411168259 10 17 32 720.57605 419.904053 3
-0.47084966066644673 0.39842519866504944 2.1458545786876169 217 255 210 298.59845 360.806458 4
-1.2439389407202079 0.43702097998996442 2.2981111528765052 226 255 227 174.182419 362.880066 4
0.91856581257365866 0.4602481763434278 3.097790199843879 147 150 255 497.664062 346.29126 4
0.16379949842107888 0.39374920386958689 1.7075068165804237 221 255 214 418.867249 375.321655 4
1.131583435277971 0.24153485500349817 2.8942469779838227 120 140 255 537.0625 319.334442 4
-0.76384833002554942 -0.10900039529561462 2.3036586956503462 175 178 255 257.126434 271.641632 4
-1.2480112506568743 -0.4075766385011752 2.8136161545442588 255 87 107 215.654434 234.316833 4
-1.216150203179907 -0.26339820320131496 2.1736241302705905 255 241 243 167.961624 240.537628 4
-1.3736727500708796 -0.26564242308120684 2.1680692047978849 242 245 255 141.004822 240.537628 4
-0.70155573643937741 -1.8907334851203437 4.805399386080647 255 180 204 327.628845 134.784012 4
-1.153736289440205 -1.1341315857044028 2.0923156084669321 189 255 149 174.182419 80.8704147 4
-1.4021059932117832 -1.4023231309543751 2.2065215232379578 203 255 132 138.931213 43.5456047 4
-1.1632542157094736 -0.84992085223791691 2.1177666809182987 195 255 198 174.182419 134.784012 4
0.82355668241259605 -0.61038978555385393 3.3673947333158427 243 255 236 474.854462 219.801636 4
-0.44319064471420422 0.38041947205641818 1.8124057271103364 160 172 189 288.230438 367.027252 4
-1.3122917147121047 0.29843918043095369 2.5126637810107022 97 114 127 184.55043 333.84964 4
0.60478728322809938 0.50157368234669897 1.1337307202662799 86 96 103 588.902466 454.118469 4
1.3160995176871513 0.49587078292127745 1.7612634276204364 255 150 149 671.846497 396.057648 4
0.016151992167165785 0.50682886855640619 1.9591128584825737 220 219 255 385.689667 387.763245 4
-0.95813392247048279 -1.7378364888522873 4.1981349294350805 224 255 177 294.451233 130.636826 4
-0.34663988111020294 0.43439043375814956 2.1113359798049771 163 165 169 320.993317 363.294769 5
-1.0353006821277475 0.37634831706720984 1.8814942093217439 204 255 207 174.182419 360.806458 5
0.24665550860515473 0.29071198596640668 1.3798582399802974 165 255 166 450.385986 365.783081 5
-1.137437497748333 0.17850584415336762 2.8807322589794397 255 57 73 231.413788 311.040039 5
-0.46529926655487985 0.33975532753884985 2.2933973109652093 230 231 232 308.551727 343.388214 5
-0.52001974831199949 0.19231205684228142 2.3453621863580327 201 206 255 301.086761 320.993317 5
-1.0837245493264351 -1.956065336383054 4.7908774771980038 223 255 176 298.59845 129.392654 5
-1.3320760748709737 -0.84879246650406381 2.0767960052846681 255 210 218 139.345947 134.369293 5
-0.72235919757939548 -1.4130020522145723 4.3757906773234723 232 255 201 318.505005 164.229141 5
1.284378941067732 0.50561068311094548 1.4781032896418633 255 10 14 719.124573 420.526154 5
-0.73440903553732051 -0.92041217570385769 2.9607651750819359 233 255 209 286.15683 166.717468 5
0.33611175807475169 -0.68832053576138674 4.5414006371675679 168 163 255 413.061188 228.925476 5
-0.72116313284000544 -0.099998122628619346 2.205686971444663 174 175 178 256.296997 271.226929 5
-0.51278107384095417 -0.34860156332027675 2.2433544804781604 243 255 228 298.59845 226.437149 5
0.82088513602826074 0.71737373847066888 2.3860023351349975 193 193 186 512.593994 400.619568 5
1.3115010066451813 0.49444191106716801 1.7556493677024902 150 255 156 674.334839 395.642944 5
1.0645127145387125 0.44467658977879493 2.7275334679499803 64 255 44 534.988892 348.364838 5
-0.48032861488568646 0.34715661845854223 2.4105328947268827 255 227 228 307.556396 343.388214 6
-1.1768004473847338 0.13693740734254695 3.4433213997108831 189 193 255 253.808685 304.570435 6
-1.1580429836662556 0.1741203339156524 2.9069821543567498 58 74 98 232.906799 310.542389 6
16.203486255264473 -19.039601664926369 33.152128835159353 255 141 175 567.337097 71.6636276 6
-0.78376894843789957 -1.4725874778400443 4.5573808446885824 201 217 232 316.514374 164.229156 6
-0.73736649510318975 -1.9860355325763379 5.0176615870701848 205 225 255 325.472321 137.355286 6
-0.67876948304978812 -0.48840857345960065 2.2185147611768521 231 230 255 265.752625 206.032928 6
-0.66923869322794616 -0.65109378050156508 2.203649217219033 220 221 255 265.752625 173.187103 6
-1.1224588830581332 -0.13373008332499559 2.174239066447563 117 136 255 185.131042 262.766632 6
-1.4141967082227307 -0.42715291543536049 3.1840218433599352 121 255 73 214.990891 232.906799 6
0.13248841488973828 0.18692671459514695 5.0676574467320803 255 99 121 391.163971 304.570435 6
-1.3889748765407766 -1.0236040259688579 2.2055824042623491 207 215 226 140.341278 110.48143 6
1.0684206197129729 -0.74256745306087413 3.1312138070798046 222 231 239 516.575317 197.074982 6
0.23849862849588876 -0.53885960562572965 4.6191179344064475 4 13 16 400.121918 244.850739 6
-0.82801047580649412 0.46593185896922296 0.97394574513519805 164 158 156 56.7337074 471.785553 6
1.5092581616821834 -0.7749746377781358 1.804150056257098 201 212 225 704.692383 116.4534 6
-0.89153636512728074 0.4870595479511089 2.710622214124041 66 68 67 256.794678 361.304138 6
-0.7571607507578002 -0.11088677333525665 2.2660578947950194 216 217 217 256.794678 268.738617 6
1.0569988120476093 0.21625771319714249 2.666013682985688 137 255 108 534.491211 319.500336 6
0.72387804882183104 0.39054015497636352 2.6281601336291125 255 144 153 483.729492 346.374207 6
-1.1128686675756172 0.38523858910886444 2.0188052144561164 221 219 255 173.187103 361.304138 6
0.53078642286096911 -0.70887794279423832 4.4297469997156309 159 182 255 429.981781 226.93483 6
-0.92248321104989373 -1.0918308637698724 3.6443895907483395 255 220 224 283.668549 167.215134 6
-1.2675225472360352 -0.16674842239053761 2.4328975702650375 143 255 114 182.742264 261.572266 7
-1.4411916427067872 -0.464787447233319 3.2515139181279835 133 255 89 214.990891 236.48999 7
-1.3575149602852568 -0.25556038721738172 2.1755160186322402 255 240 242 143.327271 243.656357 7
27.593625912161642 -28.955474359040135 72.88012967171359 228 255 200 526.727722 136.160904 7
0.82863075401071618 -0.53084133688363666 3.5359620790512194 243 244 246 472.97998 232.906799 7
0.95733625926533805 -0.60378287181817691 3.1373284664851937 241 255 226 498.062256 207.824539 7
1.0767095556330877 0.21514891800078056 2.7773886668565444 125 140 255 533.894043 318.903168 7
-0.69700813644272586 -0.11149012762566179 2.0845794906308575 215 255 213 254.405899 268.738617 7
1.398656349332013 -0.67819248021151468 1.9627107631888352 231 255 205 662.888611 157.659988 7
-0.38107808725404935 0.50135680814413142 1.5773835893948576 112 255 66 286.654541 412.065887 7
1.256976366529579 0.466626742381332 1.6460451470610771 143 255 142 670.054993 394.149963 7
-0.78894855831682209 0.43799284561660601 2.4348854892160716 86 86 255 257.989075 358.318176 7
-0.11614518966360454 0.46480755105486127 1.7559630544184035 236 255 236 358.318176 386.983612 7
-0.45475477148958543 0.32623676995454026 2.2688463611982508 230 231 232 308.153625 343.985443 7
-0.98832395278153085 0.25877383384885211 2.1990372244095222 96 115 129 204.241348 333.235901 7
-1.2190532060473953 0.40031461272053903 2.2121675834849981 255 227 228 171.992722 361.901337 7
-0.49543412481845683 0.20586925640194192 2.1619733095605653 186 190 199 300.987244 326.069519 7
-1.1330397893248203 0.18708329372756255 2.8307369722985252 71 96 255 229.323624 311.736786 7
0.27980411280483009 0.42184909022845662 1.4425502760834541 222 255 223 458.647247 401.316345 7
-1.2156017461424211 -0.98313719317506587 2.1494721910454144 210 218 227 164.826355 118.244995 7
-0.81338085662630721 -2.0026113143586564 5.23191296252 225 255 182 326.069519 136.160904 7
