ply
format ascii 1.0
comment Written with hapPLY (https://github.com/nmwsharp/happly)
element vertex 166
property double x
property double y
property double z
property uchar red
property uchar green
property uchar blue
property float ix
property float iy
property uchar octave
end_header
-1.5218538778064366 -0.71349713557926142 4.0079728978660683 232 255 210 238 220 0
-0.022774504899531034 0.24886555378010622 1.0252147678054528 207 211 210 376 381 0
-2.8928562775699618 -1.2877119140233682 6.2777777144519424 156 162 171 208 208 0
-0.10587706727468704 -0.53112491299082876 1.3094284587731571 145 173 204 352 133 0
0.88684859167360597 -0.12708175268703195 1.5373128843259496 108 117 255 605 256 0
-0.020928010001312392 -0.2826606639215471 1.2040112237736125 105 154 172 376 196 0
-2.0225712973088892 -1.970897012099639 6.0741130988587022 194 205 219 256 163 0
-2.3191050726362819 -1.6040588231171697 3.8091936641023882 255 195 201 151 127 0
-2.2576764197849988 -1.2114393076401084 3.7221505890527675 255 196 206 151 163 0
0.9954695275038915 -0.89097413892812272 3.8825835598591043 56 101 132 484 199 0
-2.2306555233317145 -0.42289527103423136 3.6770163701705787 255 231 233 151 244 0
-2.3654853120696702 -0.64540585984541299 3.6191219107739627 230 235 255 133 220 0
-2.3513701747908584 -0.28801535309242426 3.7936778872407979 236 239 255 145 259 0
-2.3845943212871585 -2.271525365329635 3.7325362377929432 255 111 139 139 55 0
-0.10508852450328598 0.11835850534997064 0.28170484360498316 205 203 255 241 449 0
0.070440335380327901 0.4206081522814023 0.79275044219241386 91 255 66 418 493 0
0.52600959440723005 -0.98649483937669147 3.612558289501568 206 222 255 441.600006 181.200012 1
0.84595733532923068 -0.76885536178742764 3.2885778647378214 56 101 132 484.800018 199.200012 1
-2.4985309337246764 -2.2187330037793025 3.8983156746292495 182 255 115 138 69.6000061 1
0.51882109092522866 -0.91174281536078228 3.5169503281501568 255 201 211 439.200012 188.400009 1
1.0298057842603703 0.16176326163039456 1.4684652722749711 82 255 61 654 331.200012 1
-2.1764409559047824 -2.1264343646804615 6.8060251949972876 214 223 255 261.600006 169.200012 1
-2.6506106804756628 0.17073822716879983 3.9343143367464544 214 255 216 126.000008 303.600006 1
1.4275162139708126 -0.16673787877623675 4.5125524497640228 23 83 112 504.000031 273.600006 1
1.0257435727977153 -0.1800323098176517 3.5628412912958942 33 89 119 496.800018 267.600006 1
0.12778105200601125 0.27487205040691992 1.2956478941512319 89 107 255 421.200012 368.400024 1
0.059609372929488202 0.38958059845572895 0.79714658785460335 255 175 183 411.600006 477.600006 1
-0.010240137199651334 -0.29093294802835579 1.2166536888573352 210 223 255 381.600006 195.600006 1
-2.4250410979027541 -2.3501965640121281 3.7491207958405499 175 255 98 134.400009 49.2000008 1
-2.0518880647611892 -0.39229278722179528 3.3802344164953961 255 230 233 151.200012 243.600006 1
1.4142639490230673 0.18069610063895855 4.2088838156268285 255 28 81 511.200012 304.800018 1
-2.3798952253350096 -1.1064562382390841 3.6692762748766188 221 227 255 133.200012 171.600006 1
-2.4298059736899824 -2.8027376053274415 4.3371545347311287 125 172 255 169.200012 39.6000023 1
-2.419758262727858 -1.828908853530927 3.7741893598485672 160 176 200 136.800003 103.200005 1
1.0098871683938555 -0.084019078227938068 1.4384067900798168 53 65 76 652.800049 265.200012 1
0.92232018332816545 -0.13273916952801978 1.6040380680457487 86 98 105 604.800049 255.600006 1
0.9345666877042933 -0.4263508876340516 3.4160650601340827 255 43 101 487.200012 241.200012 1
-0.022608098349727213 0.35914268768390389 0.99990100887778821 255 194 199 375.600006 426.000031 1
0.93278801721702465 0.082722400456945913 1.619326659897169 255 59 71 607.200012 307.200012 1
0.27261536139917181 0.37935745926721126 1.8208314388013438 80 93 112 440.640015 365.76001 2
0.95842558937245037 -0.76692642817492085 3.5221121085420712 59 104 136 488.160034 205.920013 2
0.97612687925179409 -0.81638306558488882 3.618909643965992 58 99 130 488.160034 204.480011 2
-2.2793870754279775 -0.43603228782706777 3.7384569681595328 233 236 255 149.76001 243.360016 2
-2.4401628204012882 -0.37699154554332237 3.7358164786573012 233 236 255 133.919998 249.12001 2
-0.10778391668751441 0.14486919895115155 0.23736117158317566 186 255 185 210.240005 521.280029 2
-0.023329634906488872 -0.24768777367131389 1.2141636536949745 157 255 95 374.400024 210.240005 2
1.2355236183784826 0.16699572476371372 3.9496411156211559 111 255 28 506.880005 305.279999 2
1.6360189845932611 0.19458168828703226 5.0071421151489783 255 26 81 511.200012 303.840027 2
-2.5592981266807753 0.3786309263611386 4.2692058509000717 164 255 126 154.080002 325.440002 2
-1.7130442336320173 -1.4996697830539882 5.8275916521766122 209 217 227 272.160004 190.080002 2
-2.3344743046748366 -0.75423488797654148 3.8178936255689275 225 232 255 149.76001 211.680008 2
-2.2706923111723367 -1.068621545984767 3.7341621991269762 214 219 226 148.320007 177.12001 2
-2.3904970633594411 -1.6514454183044511 3.9058032505219922 202 214 255 149.76001 126.720001 2
0.97173085736334297 -0.14094255542558676 1.7038435596353849 86 98 104 604.800049 256.320007 2
0.92114641821055554 -0.062444636359307484 1.0023027073514927 255 240 240 735.840027 264.960022 2
0.93313716000021674 -0.1450853235032917 1.0043497053868491 236 255 228 738.720032 233.280014 2
1.0261608015450105 -0.18067565829771678 3.5659527224720553 255 34 88 495.360016 267.839996 2
0.067691122901422096 -0.51514733627709597 1.2505999349712269 255 147 173 403.200012 129.600006 2
-0.023485079801224273 0.25820438470178753 1.0521111203870022 255 208 212 375.840027 381.600006 2
0.36722430781438076 0.19811227168267695 0.44378282337913655 49 255 22 702.720032 459.360016 2
0.065744672358695744 0.42914824721530753 0.80735895125264789 83 97 255 417.600006 492.480011 2
1.0637313659991261 0.042521317400324304 1.5333655061420943 37 52 62 652.320007 298.080017 2
0.92208008189526802 0.082737550430280499 1.5865977094487616 91 255 64 606.240051 306.720001 2
0.94399372037973883 0.069014360498945493 1.0231679746272306 106 255 186 738.720032 316.800018 2
1.1533824234204642 0.094307937164218522 1.519928335244759 123 133 146 676.800049 312.480011 2
1.1281108913477138 0.41770774004231698 1.5205078233627776 255 200 201 671.040039 393.120026 2
-2.3585601085018277 -0.25979114040097262 4.8592154585336278 44 63 81 200.448013 266.11203 3
-0.018052929985908461 -0.25592573202451085 1.2412660586781747 190 255 90 378.432037 210.816025 3
0.57690404914667559 0.30517044447494995 1.7412030483273004 66 88 255 509.76004 354.240021 3
-2.5918293724697699 0.16905988473686892 3.8490320233569797 221 255 219 126.144012 302.400024 3
1.1713599685447345 0.37011038132160745 2.6421282797903918 255 35 68 551.232056 340.416046 3
0.38460704019171671 0.20059347978397485 0.67536399475676079 255 78 96 603.072083 400.896027 3
-0.034198540033230973 -0.038531121023216805 1.3274090366616782 138 255 96 374.976044 276.480042 3
-2.1977338191650424 -0.23809165278447766 3.7603023661829345 240 255 237 158.976013 264.384033 3
-2.3628933466909259 -2.7264346516397793 4.2130945765703469 255 89 125 167.616013 36.288002 3
-2.0160756497907215 -1.5179763667386927 3.155304982349278 199 255 156 138.240021 101.952011 3
0.94355107058909105 -0.13293630072243354 1.6322452177265345 86 98 105 604.800049 255.744019 3
0.96385288030543625 -0.14993420249792661 1.0527507444831101 227 231 236 732.672058 233.280029 3
1.216630860960521 -0.1366371283787528 1.6177006221208674 239 241 255 673.920044 254.016022 3
0.63482310208374737 -0.8044921922257583 3.1620051618558684 255 63 107 463.104034 186.624023 3
0.095882851486087772 -0.41061267210954933 1.2501861658146864 182 198 217 412.992035 162.432022 3
-0.10920988675688537 0.11926210320579927 0.23961467960958877 202 201 255 209.088013 480.384033 3
-0.034752333859405904 0.4150713963656168 0.87995997669642512 192 255 191 366.336029 468.288055 3
-0.026715070662908791 0.36288350258579261 1.0192011350602073 195 255 192 374.976044 425.088043 3
-0.092042024416836066 0.34032010252987954 0.51437907562403673 144 149 145 316.22403 540.864075 3
0.12010125574671926 0.40238451068569736 0.7601151601627758 77 90 110 440.640045 492.480042 3
0.92841957115172014 0.070354937977414517 1.6164942184039244 75 87 106 604.800049 305.856018 3
1.1095833663870107 0.30353561055566647 1.4502701442138046 207 207 255 677.376038 369.792023 3
1.5175050618936907 0.30764292887352307 3.8690618004015422 39 70 86 532.22406 319.680023 3
1.5259824762540877 0.16505945513451625 4.5793202676945493 24 81 108 512.17926 302.745636 4
-2.9159405011489108 0.17650948109294573 4.279700938773213 219 211 221 124.416016 302.745636 4
-0.029688373927697631 -0.25744222450180448 1.2558849733281758 163 176 255 377.395264 209.433624 4
-1.764654638039544 -0.30291368053498308 4.048875557720045 209 209 255 217.728027 259.200043 4
-1.7699376520407113 -0.76930640212863255 3.8561035652720652 255 117 126 207.360031 209.433624 4
-2.4603488084418252 -1.1456742925243131 3.7854409221697489 220 223 228 132.710419 172.108826 4
-2.3581302454953921 -0.35824895075250118 3.6542602134220252 238 255 233 134.784012 252.979233 4
-2.4734854189909092 -2.1241780379731989 3.8047503666955205 111 142 182 132.710419 72.5760117 4
-2.1560027197490621 -1.4445755913709606 3.921862201519378 109 124 145 172.108826 147.225616 4
1.0112814146613074 -0.18588034658883731 3.4502724325268059 255 34 88 495.590485 267.494446 4
-0.037613075663888718 0.41916045659070067 0.89219234225894839 255 190 196 367.027252 468.633667 4
-0.011570854613654369 0.34275322737223468 0.94872910927971521 198 194 255 377.395264 429.23526 4
0.38907631362115003 0.22275356791670647 0.44347553631574721 255 221 221 723.686523 481.075256 4
0.10761744070935197 0.34624553663853658 0.78462851846733406 255 80 92 435.456055 458.265656 4
0.060197687320515447 0.36453332435342251 0.73789567496623287 181 255 172 410.572845 476.92807 4
0.93291397349929017 0.082888531726123579 1.6130487063141103 255 86 98 603.417664 304.819244 4
1.1751769744679514 0.094873057916437881 1.5518808576120964 138 255 122 678.067322 311.040039 4
1.0290874960600136 0.40434017010783513 1.4874050462455015 255 63 61 651.110474 391.910461 4
1.1020557680686105 0.30723965602520642 1.4393248761413702 198 199 200 680.140869 371.174438 4
-1.6537221174479688 -0.72745015659821455 3.6247740203485495 199 201 255 209.018906 209.018906 5
-2.4478557150462255 -1.1725824916623475 3.9584088087467926 225 255 212 146.810898 174.182419 5
-0.026830898937932002 -0.27142238886128667 1.3279485613448654 192 255 94 378.224701 209.018906 5
0.96771452744681929 -0.13977166280458053 1.6911800790320173 255 103 118 607.150146 256.296997 5
-2.5349956695372375 -2.4484503019049431 3.9011038909980771 174 255 96 134.369293 47.2780876 5
1.1568584770043069 0.32198269005611491 1.5104437629677545 255 202 204 679.311462 370.759735 5
0.072536139397953781 0.39662969927388875 0.75308909416075276 107 255 77 418.037811 490.199097 5
1.148105126155381 0.085878081314587879 1.4978979639930916 255 113 123 679.311462 311.040039 5
1.0295635310218096 -0.18929352220293394 3.5728208163874622 91 122 255 497.664062 266.250275 5
-0.047806340791707203 0.0099892716285088917 1.0118818548550341 90 107 128 368.271423 291.133484 5
0.92090551566067413 0.066462367909354086 1.5958585227597784 76 89 108 604.661865 303.575073 5
0.047066325237895112 0.40142802268781314 0.81864336270666349 179 255 171 410.572845 472.780853 5
0.14679548283229349 0.28125887417339829 0.77909385457310543 120 255 86 450.385986 425.502777 5
-2.4290824765296422 -0.28733794532352175 4.1548051326025224 238 240 255 161.740829 261.273651 5
-0.0508763553024002 0.42758012489902242 0.74299683743078437 183 255 190 358.318115 510.105682 5
-0.099801724651619073 0.30784274884761148 0.53189427582093463 183 186 181 316.016693 510.105682 5
-0.017639750775257368 0.3530941589482432 0.97279344056259309 195 255 194 378.224701 427.991089 5
0.34467588612724021 0.37508645876172086 1.1822977568522883 186 255 174 490.199097 410.572845 5
0.65689862798609167 0.16512003291258703 2.3807226489751514 255 178 188 487.710785 313.528351 5
-2.9706337297913308 0.16669128109235032 4.3926685281573574 222 217 227 124.416016 301.086761 5
-0.0196995869730342 -0.25550787541897846 1.2146390284172837 103 154 171 376.23407 206.032928 6
-0.042934762899990986 0.4128202574810515 0.71579035754773668 183 255 191 358.318146 507.617371 6
0.07621786264287933 -0.53245738037223 1.3603865420966537 206 255 152 406.093903 137.355286 6
1.0731350447395134 0.07472431890787043 1.3823439894678977 132 146 255 677.818481 310.542389 6
-2.3499962762947599 -1.8101470818353358 3.6606159516918231 171 198 255 137.355286 98.5374908 6
1.2422423674313268 -0.14534822513587015 1.6581374528577575 255 240 241 671.846497 256.794678 6
1.0295635310218096 -0.18929352220293394 3.5728208163874622 255 35 90 495.673431 265.752625 6
-1.3726432980047181 -0.58813106631901846 3.0580284461667175 199 201 255 209.018921 209.018921 6
0.96665468486482542 -0.7917462373336499 3.5450388275243458 125 255 57 486.715485 203.046951 6
0.80059588183767905 -0.86510990155921541 3.286674484117778 138 255 53 474.771545 185.131042 6
0.049206978792293965 0.40597767091061698 0.841505221110736 179 177 255 409.079895 471.785553 6
0.92872082217848018 -0.10833158210304884 1.4773026652180126 90 103 116 624.070801 259.78067 6
0.95873153166020242 -0.13885367506883661 1.6664557922434722 127 255 93 606.154846 256.794678 6
-0.11142655472109031 0.1204700514210664 0.24186342023863233 202 201 255 209.018921 480.7435 6
1.1384384065617494 0.3298730248304087 1.4923924728246667 206 208 255 677.818481 373.248077 6
0.97860635656132033 0.34070874627320319 1.4911329956228931 88 90 108 636.014709 376.23407 6
-0.039101427614280371 0.013441160804193705 0.9632751450044017 255 90 111 367.276093 292.626495 6
0.91610225431851555 0.072000695478192628 1.599393635453354 255 86 98 603.168884 304.570435 6
-2.6076668489872015 -0.3946895056685108 4.0342778355936595 234 237 255 137.355286 250.822708 6
1.3726506207174622 0.11776223654118893 4.0360096372090659 83 110 255 513.589355 301.584442 6
-3.067810480460496 0.18562573992100267 4.4919702394758794 240 255 231 122.425369 298.59845 6
-2.4082274982615162 -2.0663443617397803 3.6854199020866676 255 110 141 131.383316 71.6636276 6
-2.6400572980299479 -1.908401377364749 4.0347097763297013 170 183 204 132.577713 107.495445 7
-2.7280459107971744 -2.3143344955858862 4.1611915394493399 110 141 182 132.577713 71.6636353 7
0.95873153166020242 -0.13885367506883661 1.6664557922434722 107 116 255 605.557678 257.989075 7
1.0421781472702514 -0.20835111562387304 3.6173712906151119 121 255 38 494.479065 265.155426 7
-0.015513776816034497 0.23799872019278218 1.0003670904392168 255 207 210 379.817261 379.817261 7
-2.0390948582578607 -0.88998377668418061 4.4179967437005887 255 116 126 207.824539 211.407715 7
-2.2672455191929544 -1.0977964770497142 3.6963516180809375 226 255 214 146.910446 175.575897 7
0.11536306317608913 0.40802062372020659 0.77186937127136002 90 110 255 437.148163 490.895874 7
0.91680705331558021 -0.74819149195184809 3.39153201475989 255 58 100 487.312714 204.241348 7
0.052742960149389839 0.31233836239704532 0.77116637968171708 193 197 193 408.482697 440.731354 7
0.070522058332585624 0.26977619060057234 0.84447178161835956 255 154 162 415.649078 412.065887 7
0.92636133272332133 0.063248823490763412 1.6570067697347419 106 125 255 601.974487 304.570435 7
0.89265880617475402 0.28400182497198256 1.561865425058607 99 118 255 601.974487 358.318176 7
-1.9534746166248462 -0.40201037978062532 3.8338499178643848 103 255 67 182.742264 243.656357 7
1.2781346695297215 0.11210444678046218 3.6247804348868349 25 82 109 512.394958 300.987244 7
-0.092092868951041962 -0.57407857136899698 1.3123497123827859 201 255 146 358.318176 118.244995 7
