ply
format ascii 1.0
comment Written with hapPLY (https://github.com/nmwsharp/happly)
element vertex 148
property double x
property double y
property double z
property uchar red
property uchar green
property uchar blue
property float ix
property float iy
property uchar octave
end_header
0.53712042117565817 -0.658558297343804 4.0788268135545573 88 127 154 436 226 0
-1.2034202147613171 -1.4763335484055102 2.2025772616633064 255 116 147 175 31 0
-0.74815389769342389 -2.0440191428734713 5.146371166853311 255 181 203 327.600006 133.200012 1
-0.70041077006957631 -0.88877792313479698 2.8950251422112583 224 234 255 289.200012 169.200012 1
-1.4065433869246213 -1.4114335129642401 2.1859479551021823 255 130 163 139.200012 39.6000023 1
-1.5272070051332238 -1.1146200203612577 2.3885989185277934 255 206 214 139.200012 108.000008 1
0.30117876779938624 -0.57520302063054796 4.6003431296904393 138 151 156 408.000031 241.200012 1
0.985062608235312 0.55359942779758153 1.2029403884810188 75 87 87 696 463.200012 1
0.41067486959904453 0.4821383685669185 1.3886061569420707 177 255 144 498.000031 421.200012 1
-1.0917278660095477 0.34045849310300441 1.6929881622655474 220 255 218 138.240005 364.320007 2
-0.33203848669831793 0.50857702222664658 2.2251238923956711 234 235 236 328.320007 374.400024 2
1.2717349301468492 0.49888607502350846 1.411651340993842 7 16 29 728.640015 423.360016 2
0.43805042013256967 0.51734203748207297 1.5100615878436763 255 159 167 495.360016 420.480011 2
-0.79527372402047192 -1.5098605324662575 4.7429394244159608 232 255 202 318.240021 165.600006 2
-0.82525146540466077 -0.11294796221332512 2.4740847929583145 184 186 255 257.76001 272.160004 2
-0.34997168229069864 -0.042695598206248742 3.7259659556151163 107 128 150 348.480011 285.120026 2
-0.50377396287233056 -0.35304667518922023 2.2207280195341164 255 229 236 295.200012 226.080002 2
-1.2139618389640563 -0.1520256074254267 2.1670312057286125 244 245 246 168.480011 259.200012 2
-1.4249330331783483 -0.2715638069961317 2.2409102460450563 255 241 243 139.680008 240.480011 2
-1.0233252594121325 -1.9219611526215341 4.6063479523213564 223 255 174 298.080017 126.720001 2
-1.2153592572379637 -1.4856707526437827 2.2163805997660027 128 161 200 172.800003 31.6800003 2
-1.3728502580914475 -1.38426089922649 2.1372834976946842 202 255 131 138.240005 40.3199997 2
-1.4181006516480656 -0.8865410113120239 2.2033076678242138 211 219 229 136.800003 132.480011 2
-1.189222150850676 -1.0172937414888283 2.1612384656440464 255 195 205 171.360001 108.000008 2
-1.3546828730266083 -1.0023047504670066 2.1225711413557589 225 255 207 138.240005 108.000008 2
0.34496937803661476 -0.68204653835508244 4.5485781116502393 255 159 170 411.840027 228.960007 2
1.5913207791675714 -0.84865667216034912 1.8771915975799174 255 181 200 711.360046 113.760002 2
-0.052161961856224792 0.43817701978698709 1.6682859027158172 236 255 236 370.080017 390.240021 2
0.19223147460227685 0.40328942165964421 0.60906713036804438 145 156 177 504.000031 542.880005 2
1.309975831158801 0.3705335749655414 1.4713106989489111 224 226 255 725.76001 385.920013 2
-1.2054567509396596 -0.26329873794992881 2.1447400300401953 243 245 255 165.888016 240.192017 3
0.83424684106432567 -0.50807764999378269 4.4783795092004191 245 247 255 457.920044 245.376022 3
0.52898288191257747 -0.44853290371436205 2.8810076779958251 245 255 238 454.46405 229.82402 3
1.3247893277481637 0.49948893597116101 1.7346423829852284 159 161 153 680.832092 399.16803 3
0.84269088044669693 0.40547090614742431 3.085540910823326 178 174 255 489.024048 340.416046 3
0.91141544381649497 0.26323837708006331 2.3139583226110183 153 180 255 533.952026 331.776031 3
1.0819112648700924 0.49221879528689783 2.6627488379499038 118 121 127 540.864075 359.424042 3
-0.87826158046375014 0.30907697558755032 1.8179651278511515 13 255 13 198.720016 352.512024 3
-1.0896916253905662 0.34621102739084741 2.0650348292677605 255 34 30 179.712021 352.512024 3
-1.3041124474827934 0.29886933868889853 2.4834079300729677 107 118 255 181.440018 335.232025 3
-0.46971048698559237 0.39772374899257357 2.0785603207858254 197 255 178 298.944031 359.424042 3
-1.1775028207323519 0.18036406271199443 2.9937009397764296 94 113 255 233.280029 309.312042 3
-0.49414380808248115 0.35968029796525824 2.4136930415378179 255 197 203 307.584015 347.328033 3
-0.68448129049968287 -0.50346851919346269 2.2174556440215945 231 231 232 264.384033 203.904022 3
-1.1579233713697219 -0.6888990981620069 2.0758802022762719 255 211 220 171.072021 162.432022 3
-1.3705510337687432 -0.55689305407150469 2.1409283376169634 240 255 235 138.240021 186.624023 3
-1.3600388434823012 -1.240147684026091 2.1381032769772315 255 152 179 143.424011 65.6640091 3
-1.3859580437333916 -0.78634637810698205 2.1546310252530207 230 255 211 134.784012 146.88002 3
1.7563172310996251 -0.14630647608162614 2.1334857462647356 255 114 120 699.840088 260.92804 3
0.9006455425521509 -0.50771155765868003 3.4647411467991329 255 241 243 483.840057 231.552017 3
-0.9348474187720619 0.53059632208859264 2.7716947001579557 255 70 75 255.744019 361.152039 3
1.2995687727435612 0.51469534396677719 1.4603522472108676 255 10 16 727.488098 423.360046 3
1.3338055587770432 0.48190736915004373 1.5754892004364489 168 255 178 710.208069 407.808044 3
0.27444600668336205 0.37810721405409831 1.3151938005477026 219 255 221 466.560059 400.896027 3
0.024636500104451509 0.50891683760382289 1.9312177944425102 213 223 222 388.800049 392.256042 3
1.3201979582769803 0.49805634550499911 1.7290234277727947 162 164 156 680.140869 400.204865 4
-1.3554488040914663 -0.48427828340008705 2.1288959795672682 236 238 241 136.85762 201.139221 4
1.1394500162026437 0.24463966052336134 2.8673761482729256 255 104 117 539.136047 321.408051 4
-0.46242477794358861 0.39990978473609484 2.1174521161912341 161 172 191 300.672028 360.806458 4
-0.6912546373123063 0.37995725832389227 1.8632144028457187 165 173 172 240.537628 364.953644 4
0.17265942191776218 0.39607249886580176 1.6797267124956412 208 220 217 420.940857 375.321655 4
-0.89139006019951283 0.34250772828312637 1.8259971562358603 10 14 10 196.992035 356.659241 4
-1.0265905092600036 0.37726243863356573 1.8525315794370414 225 226 223 172.108826 367.027252 4
-0.75500136196344902 -0.10789071617777224 2.2748328353813583 176 180 255 257.126434 271.641632 4
-1.2393251414778881 -0.40715367111210088 2.7842347160174281 99 121 255 213.580826 232.243225 4
-1.3521761938982264 -0.55440813197484107 2.1059678267867326 236 237 240 136.85762 186.624023 4
-1.095993634281895 -0.15689576840665337 1.9410187262876928 255 245 245 167.961624 261.273651 4
-1.3645139444611254 -0.26518920937463719 2.1386026005143175 245 255 242 138.931213 240.537628 4
-1.0752201924792906 -1.9559849229689155 4.7612427544056839 176 201 223 296.524841 128.563217 4
-1.3916930179327593 -1.4019117636395311 2.1767233897161904 202 255 131 138.931213 39.398407 4
-1.1917888827980168 -1.0064050035010399 2.1408365467484636 190 200 215 172.108826 107.827217 4
-1.1352435434560491 0.3503760535907523 1.7623496896901623 220 219 220 136.85762 364.953644 4
0.89663582051231949 0.50761687485980533 1.0132750695274768 220 220 255 725.760132 481.075256 4
-0.94929570680054365 -1.737454548052344 4.1686821737985253 223 255 176 294.451233 128.563217 4
-1.2341248189580991 0.28698423188824163 2.1111482348485797 156 160 170 156.764175 340.899902 5
0.73183699979974859 0.39325295063000421 2.6009287885076739 163 255 177 490.199097 340.899902 5
-1.1294835248369397 0.1790360557785701 2.8516159202745781 255 68 84 231.413788 311.040039 5
1.3686615640706603 0.51197647919272526 2.8800503167678455 98 107 120 564.848694 353.341492 5
-0.45695258349179024 0.34120669061691866 2.2649845498375361 214 218 220 308.551727 345.876526 5
-0.51155645375736913 0.19368740558628356 2.3168562704300348 228 230 255 301.086761 323.481659 5
-0.91762809873007001 0.31161947442470317 1.8846259733575828 255 27 34 199.065628 350.85318 5
-1.2357065805501621 0.43758625360886472 2.2689595692803342 255 217 217 171.694107 365.783081 5
-1.0636221006340256 -1.9189662833909393 4.7210164303950775 174 200 223 296.110107 126.904335 5
-0.69314031060229198 -1.8902227570314389 4.776157478610374 181 204 224 328.458282 134.369293 5
-1.2094750342229696 -0.78980887402927324 2.1539267538820268 219 230 255 169.20578 146.810898 5
-1.3789914270709573 -1.0231777441320373 2.1758983157884786 255 204 212 139.345947 106.997772 5
-1.206999575305117 -0.26276748982328263 2.1443128444660458 245 255 242 166.717468 246.343719 5
-0.80407173139472388 -1.110220335587351 5.1125864796898135 232 236 241 320.993317 206.530594 5
-0.71406487450671419 -1.4124000706621946 4.3466561628516311 232 255 201 318.505005 164.229141 5
-0.43441790841199968 0.38202492740914329 1.7840258061343244 255 137 146 291.133484 365.783081 5
-0.6309748039262697 0.3637831545389606 1.8831908457732234 79 84 82 256.296997 360.806458 5
-0.66940778710452342 -0.48717912677638286 2.1896711831115607 231 255 230 266.250275 206.530594 5
-0.72528511362938053 -0.91944472301492541 2.931751161110121 232 255 206 286.15683 164.229141 5
0.34341866859425685 -0.6865607354384794 4.5134992306624069 169 166 255 413.061188 228.925476 5
-1.1051279415456574 0.29303231287795095 1.6182259020733807 224 201 255 121.927696 353.341492 5
0.61408757668543357 0.50455187533078361 1.1064128766518877 90 96 255 597.196899 457.850952 5
1.4016929366819932 -0.64052474165913587 1.7674463025721479 234 255 223 686.776428 146.810898 5
1.0723121870240062 0.44774975648489801 2.7006511057596256 255 24 34 539.965515 350.85318 5
1.0865848537132319 -0.37493375224460113 2.7141914262236879 239 243 255 537.477173 236.390427 5
-1.292612145948882 0.30427487152543564 2.9138376801108121 255 79 101 211.507233 328.458282 5
-0.32080927439446993 0.47393732187008941 2.1697051434494097 178 193 210 328.458282 370.759735 5
1.0651183098468739 0.2193389967292444 2.6390629690137333 255 106 118 539.965515 320.993317 5
-0.37221209796086585 0.50309578996201132 1.5490971053059259 61 85 101 292.626495 415.051849 6
16.203539556085527 -19.027472627170269 33.134895814610857 255 141 175 567.337097 71.6636276 6
1.0771730702431692 -0.73959730075983621 3.1040179770116429 223 231 239 516.575317 197.074982 6
-1.4058518755771612 -0.42701810919724625 3.1544717420042083 74 98 121 212.004898 232.906799 6
-0.72905113849189451 -1.9856223579626273 4.9883589359994653 204 224 255 325.472321 134.369308 6
-0.50360284811438039 -0.34719026308035217 2.2147112654061023 255 229 236 295.612457 226.93483 6
-0.65967751095079619 -0.6498494064119551 2.1747715593254848 219 219 255 265.752625 173.187103 6
0.56109987237904946 -0.48410390291765304 3.0549054330744729 255 187 204 447.897675 229.920807 6
-0.78085210240673408 0.43903843689207572 2.4061809917511114 77 82 79 256.794678 361.304138 6
-1.5629188475221709 -1.1590817636084585 2.4638759858226242 204 212 225 140.341278 107.495445 6
-1.2092605219530199 -1.2432627271917323 2.1487597866948551 255 151 178 167.215134 65.691658 6
1.4154932553830968 -0.67520695187604551 1.9596325231103506 231 255 201 662.88855 152.285217 6
1.5300731803481116 -0.78652736168819448 1.8256391302564552 255 203 214 707.678345 122.425369 6
-1.2624399658225522 0.20057180262795721 2.5450440900802178 144 255 117 194.088989 316.514374 6
0.83674540008981202 -0.52825234957681533 3.5085870467689437 246 255 243 474.771545 229.920807 6
-0.7122302428781575 -0.098813671706967338 2.176905495622365 217 218 217 256.794678 268.738617 6
0.13828404432465646 0.18831340571327898 5.0397895055464197 143 255 101 394.149963 304.570435 6
0.82871029682410724 0.72026148425041114 2.3589536949892533 204 205 209 516.575317 403.10791 6
1.0020298060247903 0.40715462212375253 2.4574751700111452 34 50 255 537.477234 349.360199 6
-0.47210534484840716 0.34855948396668368 2.3821072838199759 221 255 225 310.542389 346.374207 6
-0.33822211635843136 0.43602539103142091 2.0830651433335952 178 194 255 325.472321 367.276093 6
-1.1043033421298474 0.38602773929223261 1.9897686945424007 212 255 214 170.201126 364.290131 6
14.290079618316286 -21.660311091132115 38.578283501689469 182 213 255 525.533264 77.6355972 6
0.53822611935958342 -0.70686697732427106 4.4020313779223903 162 184 255 429.981781 226.93483 6
0.24555946397869288 -0.53723166696242353 4.5911605248889211 13 19 255 401.316345 243.656357 7
1.9634822471222262 -0.071860488839077141 3.0635356170907837 177 255 74 630.639954 279.488159 7
-0.77558514288076363 -1.472103935928494 4.5281699986199202 232 255 201 318.903168 164.826355 7
-0.80525695481224568 -2.0023419632221882 5.2025311037941879 225 255 182 326.069519 136.160904 7
27.56592698602946 -28.941050827053264 72.871414188904495 228 255 200 526.727722 136.160904 7
1.4084826468848826 -0.67453374538564947 1.9358571327348861 230 255 200 662.888611 150.493622 7
-0.74827472515161908 -0.10975940967160536 2.2372381200578206 217 255 217 254.405899 268.738617 7
0.83718529875980852 -0.51596516458935049 3.5043438062212973 242 243 245 476.563141 229.323624 7
-1.4328702786109382 -0.46470139022360091 3.221927213394574 255 74 97 211.407715 232.906799 7
-1.3483749432867591 -0.25509081765538677 2.1460679734716597 255 240 242 143.327271 243.656357 7
-1.854897794474482 0.4807447827862959 2.7986921871089683 237 221 197 128.994537 354.734985 7
1.0847209309287273 0.21822272946193169 2.7504569559190717 118 136 255 537.477234 318.903168 7
-1.150109779070418 0.17462009474287499 2.8778443908039115 79 103 255 229.323624 311.736786 7
1.2658126136217287 0.4702086350801401 1.6193582832381574 153 154 148 680.804504 397.733154 7
-0.44636862842806924 0.32770670820327735 2.2404403601060889 217 220 221 308.153625 343.985443 7
-0.45654763705313028 0.39987457384744141 2.0831642007059692 159 170 189 300.987244 361.901337 7
-0.88376631450483156 0.48791458603447535 2.6818299057534078 88 86 255 257.989075 361.901337 7
-0.9797920032191807 0.25965625205134246 2.1700891603834473 90 108 123 204.241348 333.235901 7
-1.1249464182019948 0.2567984349974286 2.1299670549431222 255 103 119 179.159088 333.235901 7
-1.1710354129817131 0.38498807696035908 1.8715370633882 206 255 192 146.910446 369.067719 7
-0.33651343392353406 0.48769538362633269 2.2575734996584114 169 255 141 326.069519 365.484528 7
0.41629090515750855 0.51705099777424102 1.5221882357540775 255 223 223 487.312714 419.232239 7
