ply
format ascii 1.0
comment Written with hapPLY (https://github.com/nmwsharp/happly)
element vertex 107
property double x
property double y
property double z
property uchar red
property uchar green
property uchar blue
property float ix
property float iy
property uchar octave
end_header
-1.9831962942564734 -1.1942645707601836 3.5366970204879431 207 221 255 169 160 0
0.23070869145002604 -0.023203963175013158 1.093988851637155 138 255 114 466 280 0
-1.3418834169014078 -0.73010137856601087 4.0319994278074835 215 217 218 256 220 0
1.219142396845577 0.3326828720026212 1.5028654899246476 120 255 85 694 373 0
0.49039901320694618 0.29149623961079552 0.51883393752225437 209 211 210 748 505 0
-2.2787959775673245 0.16841281481779322 3.6229688806451592 220 255 219 142 304 0
-1.9766772022817252 0.094212500053652601 4.399126312843487 255 82 99 211 295 0
-1.4135000606045365 0.28174098678423226 4.0965648709019078 124 133 255 253 313 0
-2.2037289590419267 -1.1200869536635458 3.6010565218429131 211 217 226 148 169 0
-2.3398306681610839 -0.19432929325865497 3.7938943893143069 239 240 242 148 268 0
1.2327305694587836 -0.1336697952371545 1.5362530279156168 255 47 68 691 253 0
1.2078672425985659 -0.42365120244234739 3.352443415425193 255 61 76 523 241 0
-2.0640785601089977 -1.0788391300789146 3.6396773560312661 226 255 209 166.800003 175.200012 1
-1.4921754549215076 -1.5132724607448831 5.7615528805260006 227 233 255 285.600006 186 1
-1.9036759955319376 -2.0955387358842419 6.552180164343131 210 223 255 273.600006 165.600006 1
-0.49681370337436537 0.32886044100237533 0.66035395238962624 194 193 255 93.6000061 480.000031 1
-2.0710914513095418 -1.3812384864885823 3.6628324313457963 218 255 192 166.800003 142.800003 1
-0.90225120579217188 0.28782284838739236 1.290866864193565 255 118 129 115.200005 373.200012 1
-2.2009645892248231 -0.87909491013350383 3.5811191433516898 255 225 228 147.600006 193.200012 1
-2.0604474920711322 -0.27259305875030615 3.586638894407963 255 238 239 163.200012 259.200012 1
-2.1919041666125341 -0.36420597779137726 3.5874016727748375 239 255 234 150 249.600006 1
-2.1946113199459001 -2.3532623590757913 3.6148062528657503 255 101 135 151.200012 39.6000023 1
-2.3052345875526368 -1.5678761072184026 3.752694732991487 198 205 218 148.800003 127.200005 1
0.94023246402044713 0.40429249174215803 0.99909949630056705 210 213 212 744 441.600006 1
1.2062929138845706 0.09108964996635889 1.4916470957901942 114 135 255 693.600037 313.200012 1
0.84230007018046971 0.43258017935530246 1.2406757717019461 255 213 215 643.200012 421.200012 1
-1.5417894942723285 -0.69700244892419061 3.7384732986576799 113 255 64 226.080002 216.000015 2
-2.3176600771576621 0.16424219236666227 3.649849103360125 213 221 255 141.12001 303.840027 2
-0.50777335549828861 0.33435569648778718 0.67202162640315211 191 191 255 93.6000061 479.52002 2
0.24602660492205553 -0.28584081896435171 1.0916591713987081 228 255 207 470.880005 187.200012 2
0.22936803586495369 -0.24519861943442212 1.0935333593404588 230 236 255 465.120026 201.600006 2
-1.4642582148287691 -0.17993456561141805 3.4854463525182853 255 50 68 223.200012 267.839996 2
-1.816483503977949 -2.011110416519458 6.0196590098251299 255 201 210 267.839996 162.720001 2
-1.4015094418294276 0.070070682651534558 3.1721726584084311 100 255 71 214.560013 293.76001 2
1.6597833084917788 0.38239384363447831 2.7187425289913696 99 119 255 617.76001 342.720001 2
-2.0739501982585784 -1.0878738207113503 3.6493117396253671 215 226 255 165.600006 174.240005 2
-2.1880100012365378 -1.127469078104367 3.6008063375253729 216 225 255 149.76001 168.480011 2
-2.2220987593475705 -2.1912953848268497 3.7060238508615901 255 126 152 155.520004 60.4800034 2
-2.0619352076670587 -1.5958305555946517 3.6385390657674308 196 213 255 165.600006 120.960007 2
1.2161516463012654 -0.91261987262376809 3.2788259685767271 210 218 228 524.160034 181.440002 2
0.15166943819608003 -0.52987875795607209 1.1708132643826183 171 187 209 432.000031 115.200005 2
-0.48451652647367327 0.30092316694330007 0.76230028624294666 192 191 255 141.12001 439.200012 2
-0.53867968180098669 0.43546995212658235 1.3585815784636079 152 255 151 234.720016 411.840027 2
-1.5291285540668813 0.076981044710353774 3.4148767368931447 102 122 255 209.088013 295.488037 3
-1.2563049630985641 -1.7136515561316219 5.325819070805248 181 201 220 292.032013 164.160019 3
-2.0343542370130718 0.30429116687353691 3.5966222884566834 181 189 255 169.344009 321.40802 3
-2.5841713514592626 0.51823172576081111 5.7419309733621828 10 255 16 214.272018 321.40802 3
-1.4620778274140145 -0.18285158024158896 3.4863330810474311 64 85 255 221.184021 266.11203 3
-2.141249480250329 -1.7999331398972451 3.5783673257231814 165 197 255 153.792007 93.3120117 3
0.23370006528570386 -0.24398960594042074 1.087549114773382 228 231 235 464.832031 200.448013 3
0.22622153275515666 -0.28607647621259469 1.1043059113873555 209 218 228 464.832031 188.35202 3
1.1849852287010587 -0.77121162785482067 3.2760802060122654 218 230 255 521.856079 200.448013 3
0.23131268915840142 -0.029250859233338637 1.1227466685158858 138 255 114 466.560059 279.936035 3
0.33510762597143073 -0.4961187712670726 1.1266756653483236 255 166 184 499.392059 115.776009 3
1.7489650205884324 0.30633142112981515 3.6386562851940329 73 255 16 570.240051 317.952026 3
1.1967067885890961 0.078606342802932522 1.4952292665797531 255 102 114 691.200073 311.040039 3
0.14567457896231761 0.074529686136127329 0.47425918021371971 15 19 30 504.57605 349.05603 3
-2.2102263870960099 -2.1059080408799589 3.6271970889920615 189 255 126 150.336014 63.9360046 3
-2.1370651802057234 0.10861203421009182 4.0848255084098453 235 255 229 182.476822 300.672028 4
-1.5606937737024094 -0.19858804214264095 3.6771703558963411 64 85 255 221.875229 267.494446 4
-2.1398442103969484 -0.35103292008204123 3.5471702209274265 255 234 236 151.372818 250.90564 4
-1.8904044665750366 -1.8389823127212011 3.4992984170213872 132 160 195 176.256027 87.0912094 4
-2.0262142282744051 -1.3484808317872015 3.7298186832929017 218 255 189 178.32962 151.372818 4
-2.2834284244303591 -1.8300687629248851 3.7234324382375488 175 202 255 149.299225 99.532814 4
1.2236842051588779 -0.78534947535477051 3.4076004910861921 230 255 207 522.547302 201.139221 4
1.154609855286731 0.17047220878494074 1.433972187892967 99 112 133 692.58252 333.84964 4
1.7848507835292753 0.17462342656568228 4.4510224168461923 127 148 255 541.209656 300.672028 4
-2.1129942471819869 -1.1270386556141472 3.6878245013410651 213 224 255 165.888031 170.035217 4
-1.8941796137168438 -2.0538863827845515 6.2190564460042479 192 205 221 268.738586 161.740829 5
-2.0987184429602967 -1.1215411917404046 3.6645655087771312 205 214 224 164.229141 171.694107 5
15.228086372972147 -10.900354343619176 24.524502241906799 255 65 101 619.591797 116.951057 5
-2.2637146679795945 -1.8152671071727908 3.6997998462433141 175 202 255 149.299225 99.532814 5
1.1683431974240679 -0.045634284389309498 1.4405852131736026 255 88 102 691.753052 271.226929 5
1.234121097946024 -0.13324363765917871 1.5394846521023893 88 255 56 694.241394 253.80867 5
0.15098172082220107 -0.53382502906211826 1.1681111289111616 208 255 170 430.479431 109.486099 5
0.13665093606435619 -0.50627644935982141 1.1423290853269386 255 167 185 427.991089 119.439377 5
1.2102200738933544 0.32887356381074506 1.5051802144434892 255 89 104 691.753052 368.271423 5
-1.655079355287965 -0.21866922625902813 3.7922900000664388 64 85 255 221.46051 266.250275 5
-0.42607891674071086 0.27391759179911496 0.67465190050313051 189 189 189 136.85762 440.432709 5
-2.1845982606631269 -0.28136936268145551 4.2843430664583479 227 228 232 188.117035 262.766632 6
-2.1061860497268774 -1.1267503380194999 3.667591465384366 204 213 224 164.229156 170.201126 6
1.1972310787054936 -0.062444492483101341 1.4961021985091452 86 102 255 689.762451 268.738617 6
1.2306128230730895 -0.12942776399000458 1.5250768380686057 41 57 66 692.748413 256.794678 6
1.5931638376538051 0.12504090812001245 3.7160595305718389 255 107 129 543.449219 298.59845 6
0.33227528031654818 -0.50373992152598723 1.1212422069145085 208 255 166 498.659424 116.4534 6
1.2059369238783324 0.078832329782670407 1.5020780673684224 114 136 255 689.762451 310.542389 6
0.23571343996890326 -0.25197490868031852 1.0910465105369438 222 226 234 468.799591 200.060959 6
0.2365575609153262 -0.28396331504331196 1.1037042514450741 208 218 228 468.799591 188.117035 6
0.14528861320554498 0.099494249598088946 0.45848977142640901 98 110 136 504.631378 370.262085 6
-2.3584420263335057 -2.2222069705260625 3.837159035397212 154 189 255 149.299225 65.691658 6
-2.0014692066416249 -1.3132043792226815 3.7167712828744532 190 203 219 176.173096 152.285217 6
-2.0191307519371762 -1.5012102392684175 3.6951189757535348 185 198 215 176.173096 134.369308 6
1.1829695133411064 0.30435349505032283 1.4843407562974071 105 121 255 689.762451 367.276093 6
-2.0966718522699006 -0.48364213058345029 4.3583370411857825 104 124 255 197.074982 241.864746 6
-2.1263137665410095 -0.35122539394447921 3.5591132310621916 255 235 236 155.271194 250.822708 6
-1.016458106353096 -0.32875288004663744 2.8744325068638927 255 215 216 243.656357 243.656357 7
1.7156600111384697 0.13837068300054262 4.2727966555725017 131 153 255 541.060425 293.820892 7
1.2059369238783324 0.078832329782670407 1.5020780673684224 255 103 115 687.970886 308.153625 7
-2.2503567369689823 -0.29496454887997126 4.97497801241503 98 255 64 218.574081 265.155426 7
-1.4327579219118469 -0.7041200011930584 3.5043489707709958 112 255 64 222.157257 214.990891 7
-1.6692173282399776 -1.678506947691967 6.2604701670992986 255 219 224 279.488159 186.325439 7
1.178002905118761 0.31540457804942051 1.4626254621034329 255 90 104 687.970886 365.484528 7
1.1942069538543745 -0.77305760874350404 3.3621500252311254 255 208 219 519.56134 200.658173 7
-2.8195101204482547 0.1762442813293274 4.3297216826943092 234 238 242 136.160904 297.404083 7
-1.4397095544592164 0.21320149800157265 2.5212265876988895 161 172 255 157.659988 322.486359 7
1.5346798837631643 -0.14296666433053504 3.9758164810924059 175 186 255 537.477234 268.738617 7
-2.0745640159294831 -1.094877311458319 3.6115240536427424 212 224 255 161.243179 168.409531 7
