ply
format ascii 1.0
comment Written with hapPLY (https://github.com/nmwsharp/happly)
element vertex 184
property double x
property double y
property double z
property uchar red
property uchar green
property uchar blue
property float ix
property float iy
property uchar octave
end_header
0.4931405034231568 0.42769107117350763 1.5206228931400954 64 67 88 508 397 0
0.63325710972829929 -0.15968647730408594 1.0278802511824241 255 231 233 619 229 0
-0.14585110199392226 0.42057273606139939 0.65126893299035282 164 255 163 298 535 0
-0.27509087204776606 0.29187152412783857 1.2002401939502381 255 164 170 295 382 0
0.71838139521892819 0.06562396619237007 0.97623682109628951 255 179 119 667 313 0
0.78595882505099213 0.011628775478413364 0.99415787767546426 236 240 255 689 292 0
0.80899405673353131 0.46999814071830126 1.0160413040897069 255 67 82 691 465 0
-2.7570116357246857 -3.1136791721126453 4.4271665411335333 255 26 45 147 19 0
0.62540871058209246 0.42531902820112788 1.1366824131280986 128 255 83 594 433 0
1.2923951180836486 -0.19093943113818374 5.4731761777642092 255 28 38 475 274 0
0.74971294003928812 -0.20483836215570903 4.0228050556591954 155 155 255 457 268 0
0.69891642052062997 0.25082146334099187 0.96950878351727832 34 34 255 661 388 0
0.81634995777494113 -0.074854289757815815 0.98700358584654957 113 255 83 702 259 0
-0.18796702972292889 -0.3826987066111211 1.4466798796956535 116 255 53 334 187 0
-2.492793480263181 -0.883160759269633 3.4506204247435637 224 255 215 106 190 0
-2.4934494690268378 -1.019222493608281 3.451705375392442 226 255 219 106 175 0
-2.1785107171040994 -0.36852147386897194 3.2436588125606853 224 227 232 124 244 0
-0.44775462344894468 -0.56394918893924073 1.4651732279277234 167 198 255 265 142 0
-2.9185469316952228 -1.9386692751321779 4.0744516486812303 184 200 255 109 106 0
0.20140541178745319 -0.96656174817600893 3.6063698888969302 95 255 31 406 185 0
0.62168901990224223 -0.37766113877120161 3.6231661831668798 255 67 111 451 247 0
0.7010438498117324 -0.16286025670886556 1.9712185139807736 42 53 255 521 256 0
0.6623589904936481 -0.85164068597212739 3.8178555882787939 255 213 218 451.200012 201.600006 1
-0.080619032796738432 0.41499286893416776 0.64993114020039133 165 165 255 337.200012 534 1
0.41450718874840031 0.45855769306721933 0.76370790176052317 255 86 92 591.600037 519.600037 1
0.73126811241140388 0.13775544280602892 0.99627683444210868 255 104 109 667.200012 340.800018 1
-0.44187238934296547 0.39674114564193386 0.60119634810100397 135 144 140 100.800003 541.200012 1
-2.3002688518317638 -1.0039048144958755 3.4101212131728849 255 221 222 123.600006 175.200012 1
0.66328771945017284 -0.12884053201173365 1.0425485559258312 255 230 232 627.600037 241.200012 1
0.7786121478847472 0.010641524487488131 0.98449785748757446 233 236 240 688.800049 291.600006 1
0.79799081023767859 -0.15753047815188365 0.97004211216162706 221 225 231 700.800049 225.600006 1
-0.24573256456766157 -0.67173453184103393 4.6444572824590891 255 36 84 363.600006 231.600006 1
-0.46038372009680084 0.032683385516035002 0.74790489832328677 255 55 73 147.600006 303.600006 1
0.74294525679156376 -0.20339548154102494 3.9658055656733779 153 153 255 457.200012 267.600006 1
0.06915941536287637 0.20602778673994268 0.81995920637256003 255 85 99 415.200012 385.200012 1
0.32373110474117567 0.22823461849564836 2.5591374097992587 149 149 255 433.200012 321.600006 1
-0.19632996368959676 -0.38385085912516675 1.4759599996635877 86 117 255 333.600006 187.200012 1
-2.4630654340183904 -0.33802719695011779 3.4118802906194015 233 255 226 106.800003 249.600006 1
-0.44925556767477159 -0.5654570245529521 1.4650545730443638 166 197 255 265.200012 141.600006 1
-2.5820488383771032 -2.5929381953699031 4.1503005269922539 56 85 255 145.200012 45.6000023 1
-2.6564296422463771 -1.3711518325529151 3.6764909736183191 207 255 180 106.800003 145.200012 1
0.82078838915822327 -0.0773583448150644 0.99393075647414975 255 85 97 703.200012 259.200012 1
0.17576441329392306 -0.57574694829021733 3.5868352096536276 101 255 26 402.000031 225.600006 1
-0.4173239333561316 0.45960508727767874 0.91084238560532849 85 255 53 210.000015 481.200012 1
-0.10905334749358359 0.37620670653139032 0.65275606959503696 255 169 163 319.200012 510.000031 1
0.68039658280109316 0.37764915825528156 1.0537145669660959 255 206 207 631.200012 426.000031 1
0.61968515248210365 0.52195645778507294 0.98146365732868324 119 126 255 625.200012 493.200012 1
0.19970511876068128 0.45344553054109699 0.68988508525637027 255 41 61 495.600006 541.200012 1
0.71983312598115079 0.35560913611740769 1.6930818335346536 255 151 155 547.200012 369.600006 1
-0.11387019167558549 0.43287744926362176 0.65209191297461899 255 168 171 319.680023 542.880005 2
-0.12748119946143122 0.45127892011546034 0.67957072764752946 168 168 255 313.920013 542.880005 2
-0.468223056927904 0.030601851024520857 0.75677189067396655 92 255 61 146.880005 303.840027 2
0.71172974242423503 0.061487699543073621 0.96165184280222282 120 255 184 666.720032 312.480011 2
0.7399444402555353 -0.063239236843726343 0.97128153510122761 255 236 237 675.360046 262.080017 2
0.41498305025516924 0.46132389061359785 0.76829572037471472 255 89 94 591.840027 518.400024 2
-2.62563407279641 -1.3725462768717396 3.8379203646230473 183 193 209 120.960007 151.200012 2
-0.29931305856317669 0.31115493505690678 1.2800221775574134 255 162 169 295.200012 381.600006 2
-0.19387998052127098 0.27875097728173043 1.4166698102254092 255 157 167 331.200012 364.320007 2
-1.9775633316679135 -0.61035834295903557 3.984405980337562 205 206 207 192.960007 228.960007 2
-0.46647200953629753 0.08409767484920451 0.754729113926071 101 255 46 146.880005 331.200012 2
-2.4918777360841373 -1.0175033091993013 3.4520251389005274 220 221 226 108.000008 172.800003 2
-2.2010778414650076 -1.16836762144395 3.3739815653181844 178 190 206 132.480011 155.520004 2
-2.74090405486547 -0.37461977490316845 3.7961835581288028 233 255 226 106.560005 249.12001 2
-0.45029849866118665 -0.56741515184252411 1.4653088237789318 139 166 198 264.960022 141.12001 2
-2.3998899782013434 -1.330652225137994 3.3333290856082027 203 255 172 106.560005 135.360001 2
-2.4935972974656284 -1.6715389068424849 3.5190205606851501 200 255 174 110.880005 105.120003 2
0.64753551625569616 -0.16281849954835712 1.1611800536666033 32 44 53 596.160034 234.720016 2
0.6623589904936481 -0.85164068597212739 3.8178555882787939 223 255 208 450.720032 201.600006 2
0.69081153906385162 -0.19920785154934925 3.5934069896683458 116 121 125 456.480011 267.839996 2
0.69562964931669025 -0.16259508628107444 1.9549523152345261 42 53 255 521.280029 256.320007 2
-0.41743377024063444 0.4591089079403608 0.91010988850946217 86 255 54 210.240005 480.960022 2
-0.40338399396214653 0.42984409465148188 0.7247676305145121 13 22 28 172.800003 514.080017 2
0.71119351416574095 0.38846999865083637 1.034791220317189 203 255 203 650.880005 432.000031 2
0.40471611735371404 0.46591599266132711 0.75829867990068467 94 255 73 590.400024 524.160034 2
0.19931709736519004 0.4633327512434211 0.70377487806042549 59 86 255 493.920013 541.440002 2
0.27104060387579082 0.33253363341511005 1.9168969427307578 255 103 139 435.456055 354.240021 3
0.76268871921190051 -0.014226574980364219 0.96328165201806759 239 255 236 686.016052 281.664032 3
0.71674413948046789 -0.015417029347604749 0.97681678422369722 255 236 237 667.008057 281.664032 3
0.67313638660357422 -0.076393706016337035 0.95251522895019725 236 238 255 653.184082 257.472015 3
-2.4651300725403966 -0.20729817805322709 4.0142730755161935 49 70 91 148.608017 267.840027 3
-1.9742710759838182 -0.21321332652422983 3.0620191610831009 216 219 255 133.056015 262.656036 3
0.66792587459387887 0.079610483047555552 1.9646233793434085 64 76 95 516.672058 304.128021 3
-0.2018874060838774 0.2830007541680909 1.0013051559040007 167 173 255 305.856018 393.984039 3
0.96507961171560919 0.42280863489762427 3.1598766586842144 144 255 117 502.848053 336.960022 3
0.3382469103038232 0.30925023768319015 2.5447568274426979 82 120 127 432.000031 333.504028 3
-0.34928574981561278 -0.27004981341576828 1.3701465569392537 212 224 255 285.120026 212.544022 3
-2.5828479894793124 -1.0619221142033797 3.5819831253205292 255 219 221 107.136009 174.528015 3
-0.47662365631542492 -0.55027072891324147 1.4610507255151706 255 144 170 259.200012 145.152008 3
0.62269590605293312 -0.10921290017872039 1.0632475686436986 158 165 172 608.256042 248.832031 3
0.66072055380344263 -1.0009649810304666 3.8029703332888767 255 188 201 451.008057 186.624023 3
0.18373991832644232 -0.94813819175704483 3.6526200035234906 101 255 27 402.624023 188.35202 3
0.63462273419713422 -0.14102287370447744 1.7472105215888156 32 42 52 520.128052 255.744019 3
-0.40558598660456124 0.44919621262690346 0.89214344801297951 65 85 255 209.088013 480.384033 3
-0.38976033848578928 0.44644943476526816 1.0624468213044767 255 150 159 243.648026 447.552032 3
-0.27368443984115809 0.46253538871319128 0.76629339469248681 255 161 163 247.104019 518.400024 3
-0.077573809157540308 0.40348197949912523 0.64212969784528318 166 169 171 336.960022 530.496033 3
-0.10037459083092831 0.36355463070657551 0.63113973634670562 255 185 163 319.680023 508.032043 3
-0.42798154065347638 0.34577266894470726 1.3927062831492028 168 255 153 266.11203 381.888031 3
0.411992573042395 0.454305442163562 0.75762563904567859 86 91 111 592.704041 518.400024 3
0.59913493212614488 0.5168919345246048 0.97315204181480075 255 148 149 623.808044 492.480042 3
0.65091251575182318 0.35788876210731946 1.1521194028808786 255 167 170 603.072083 407.808044 3
0.48425932702489149 0.41462255491514211 1.4968431951661232 66 255 36 506.304047 395.712036 3
0.50358915154966155 0.35410600192105057 1.4888875288195753 255 130 130 511.488037 378.432037 3
-0.43054814555694509 0.25389867048110437 0.62807558185491252 141 255 126 118.195213 439.603271 4
0.7157648297677508 0.085020226996560685 0.97656146284993828 199 198 255 665.625671 321.408051 4
-0.083439520183848981 0.28818725826641162 0.71642254905240854 67 83 109 340.070435 443.750458 4
-2.6433563078105999 -0.51200586893515776 4.5988424582396279 255 47 65 159.667221 246.758438 4
-0.46467836389801764 -0.5455424627788541 1.439762010476245 255 144 170 259.200043 145.152023 4
-2.5486517638589108 -2.0217581982036243 3.5899186614317298 255 103 131 111.974419 72.5760117 4
0.61979491259439423 -0.10801932913612511 1.0527469210500087 255 117 127 607.56488 248.832031 4
0.7885995757331532 -0.070484722467944766 1.0110492771872099 238 255 236 686.361694 261.273651 4
0.80423546960687586 -0.15826337223585726 0.98133497031245476 232 255 220 698.803284 226.02243 4
0.67503547043880974 -0.15631100651232069 0.99496894533693436 233 255 228 646.963318 228.096039 4
0.17372506980698343 -0.90742763095257295 3.5174148372263949 101 255 27 402.278442 188.697632 4
0.6829380698136609 -0.1823201127956138 3.5295487927848961 116 121 125 456.192078 267.494446 4
0.48770047608427269 -0.10077000138727711 1.2320547786493901 28 42 50 532.915283 259.200043 4
-0.17055745299103675 0.36548624758057924 0.68800755770024735 165 255 167 290.304047 489.369659 4
-0.40040191172247463 0.44238895328192285 0.88842886627942275 64 85 255 209.433624 481.075256 4
-0.084509359239111181 0.43926767683218015 0.69734824300839138 255 167 169 335.923248 532.915283 4
0.60870156182692592 0.40493721771479618 1.0311219725974261 141 155 255 609.638489 439.603271 4
0.70532053397700434 0.39695738398712194 0.87670162890980086 145 255 145 690.508911 460.339264 4
0.79331995068678796 0.45324054860711077 0.99740889690786583 73 86 112 688.435303 464.48645 4
0.41272668053555606 0.45445933656649562 0.75729606917086678 89 108 255 593.049683 518.400085 4
0.10000854930322081 0.2934144511496381 0.48120299870002869 41 59 92 464.48645 522.547302 4
0.27340152435547427 0.35163911652135604 2.0182544747281317 255 106 144 435.456055 352.512054 4
0.50358915154966155 0.35410600192105057 1.4888875288195753 199 255 202 514.252869 377.395264 4
0.34966616536298739 0.30438601851022318 2.5116320607559661 255 109 148 435.456055 333.434937 5
-2.556841817716899 -1.0855421865302497 3.7355473229320273 255 220 221 119.439377 176.670746 5
-0.2582716273920227 0.44207729214229552 0.72530379357750285 157 255 156 246.343719 517.570618 5
-0.35437406939110572 -0.26988862048591206 1.3696694978990407 255 199 211 283.668518 211.507233 5
0.81661296012440654 -0.061191889203288025 1.0116530185532397 99 110 127 696.729675 263.761963 5
0.78095892441171832 0.45326179605010503 0.98214616954300915 107 128 255 689.264709 462.827576 5
0.38510124606417145 0.43636295748745491 1.6010837459886231 90 121 255 477.757507 390.66629 5
0.53484506607437143 0.28998362636813324 1.6938164026373161 126 255 89 502.640717 350.85318 5
0.58625620480810425 0.39269818302211279 1.0691001327135048 105 118 141 592.220215 430.479431 5
-0.39498210070208672 0.42300393605317466 0.71141446992480173 255 10 13 171.694107 512.593994 5
-1.2340570483474402 -0.43884309558892326 2.3319150151475041 204 205 255 181.647385 218.972198 5
0.54286592488810803 -0.15754504741709829 2.6753766653525952 150 150 255 457.850952 266.250275 5
0.1781293610420201 0.44786266849191397 0.90597755994872176 169 166 255 457.850952 480.245819 5
-0.079588306965360456 0.2801140342088011 0.62469641105472851 182 255 180 330.946594 457.850952 5
-2.7760141198273196 -0.38016786793950552 3.856276082193447 255 227 229 111.974419 251.320358 5
-0.19809400350972678 0.27862447951709651 0.9869965371898104 166 173 255 301.584442 397.135956 6
-0.25912216720319092 -0.7570300878243168 4.2336289270342089 120 255 38 358.318146 220.96286 6
0.84743226696822682 -0.16947592674275586 1.0388684274464186 232 255 222 698.720398 223.948837 6
-2.8254331994480131 -1.1936361759327814 4.1072741097155525 255 220 221 119.439384 176.173096 6
-0.39012597380522429 -0.29070550073799301 1.4477812116497131 255 198 210 283.668549 212.004898 6
-2.6938134069570259 -2.0379705182513947 3.7061340312027986 255 105 134 107.495445 77.6355972 6
-0.5498694712557608 -0.47663712457792823 1.5361797751639463 179 193 211 244.850739 164.229156 6
-0.66900637612652492 -0.023892572729696408 1.6402966117401929 27 32 44 220.96286 283.668549 6
0.8321076805342551 0.36249337945071997 1.0203758320488525 206 255 209 698.720398 421.023834 6
0.62984403264554378 0.42927728057790482 1.1025515015151537 99 115 138 600.182922 435.953735 6
0.61511256132395453 0.41449639929509741 1.1221703346918965 255 92 103 591.224915 432.967773 6
0.85692498456794652 -0.064919418205122509 1.0710724736713544 255 110 120 695.734375 265.752625 6
-0.1166828221814239 0.38197974414691033 0.66169595413108961 255 180 166 319.500336 507.617371 6
-0.047430746239710331 0.34131510474706278 0.62122810563380493 177 178 255 349.360199 495.673431 6
-0.27558118622840322 0.46097986645457784 0.76615715653574379 255 158 161 247.836716 516.575317 6
-1.3706862968123832 -0.47640362276969472 2.5685948859876215 255 187 190 179.159073 212.004898 6
-2.7078825060699687 -0.85901409695772935 4.3060928050025176 87 255 43 146.313248 212.004898 6
-0.2929515262784923 0.29801875934818756 1.04849854659932 170 172 255 277.696564 397.135956 6
-0.27777124920710605 0.20410352595384851 0.99226181882974807 173 181 255 277.696564 373.248077 6
0.05364792043360822 -0.98527950568561651 4.54597730424166 25 62 94 388.177979 206.032928 6
0.51665405451944979 -0.88989720777585057 3.6074188740471809 185 255 154 438.939728 194.088989 6
0.17702382955296142 -0.90675001863696247 3.5260757836576824 255 17 69 403.10791 191.103012 6
0.67997531990564886 0.056913745113655878 2.0413173309390107 70 80 103 516.575317 301.584442 6
0.98832483600431942 0.092956420246069718 3.8751105738362295 57 68 87 480.7435 295.612457 6
0.37807008603536241 0.34340879846537642 2.7296795127024382 255 108 147 435.953735 334.430267 6
0.37558320963074665 0.42208750317512078 1.5424242952694738 90 119 255 477.757538 391.163971 6
-0.54739892820178038 0.45367233059744638 0.78291211501595026 255 164 170 119.439384 510.603363 6
0.83521776235958145 0.06095652987100509 1.0280920349436604 108 255 91 698.720398 316.514374 6
-0.45624126876658899 0.41807395755551174 0.72964063277940761 255 167 174 143.327271 505.228607 7
0.69085556090277045 -0.15036598717281385 1.9207387443419577 255 30 41 519.56134 261.572266 7
0.78675311554628413 0.44750170003306061 0.9957612528758002 255 171 173 691.554077 458.647247 7
-0.55998410503882479 -0.48936784123257693 1.5644397768816942 255 180 194 247.239532 164.826355 7
0.82848855638364172 -0.060364172629194669 1.0288451197169739 255 110 120 695.137207 265.155426 7
0.30391756976779805 -0.92127547207994909 2.9859858601934413 255 52 86 415.649078 171.992722 7
-0.31904503767432946 0.30809933558260688 1.1057333206997764 255 166 172 279.488159 397.733154 7
0.51209264047818825 -0.14756759571793301 2.521243182732317 145 255 143 458.647247 265.155426 7
-0.46625156057481199 0.3900610378741447 0.67833075831466116 169 255 167 118.244995 505.228607 7
0.039788325928096224 0.12693240965332789 2.4557281599420198 97 255 13 390.566803 311.736786 7
0.036255579194898635 -0.79145659333036078 3.6336409524668531 91 255 22 386.983612 204.241348 7
0.17702382955296142 -0.90675001863696247 3.5260757836576824 71 105 255 401.316345 193.491806 7
1.0211522642666226 0.10084485573562846 4.0101584412072881 56 68 86 480.146332 293.820892 7
0.74291488632168057 0.25391946115125713 0.90271844562031467 255 174 176 695.137207 401.316345 7
0.59154737126767443 0.39913536537247518 1.0904682226901226 255 111 124 591.224976 426.398621 7
