ply
format ascii 1.0
comment Written with hapPLY (https://github.com/nmwsharp/happly)
element vertex 150
property double x
property double y
property double z
property uchar red
property uchar green
property uchar blue
property float ix
property float iy
property uchar octave
end_header
-1.5815463729655819 -0.38291388044653984 3.0779556786486366 255 239 241 187 241 0
-0.087781426605977764 0.44573854383316558 1.4244217235265317 219 219 255 361 409 0
0.71166653198010799 -0.62488256685537946 3.9069395904891211 244 255 236 454 228 0
0.036904033051985419 0.4769089006144035 2.5389771230679918 255 222 222 391 361 0
-0.11746648735678167 0.43763159016722003 0.87335335930007196 217 255 219 334 480 0
-1.6271959355056014 -1.9009246227501138 3.1034110159176578 128 162 200 184 52 0
-1.1569187236612013 0.36092179709747596 3.5230193023254213 255 129 133 259 328 0
-1.7711250593408678 -0.035282820967250439 3.107504219501465 255 244 245 163 283 0
-1.1172881784512971 -0.56262007252369217 3.2270446006611353 111 132 255 249.600006 219.600006 1
-1.8516801680672232 -1.4889092756026323 3.2189127849888455 255 198 207 163.200012 109.200005 1
-1.8166641491554114 -1.5326066967293808 3.1605877571160139 255 185 200 163.200012 102.000008 1
-1.5680535105964872 -1.1400177404663332 3.0574067025786813 227 255 202 186 145.200012 1
-1.8287324311131674 -1.3304568212154086 3.1876083655098886 217 227 255 165.600006 127.200005 1
-1.5576445934991057 -1.8552537503980431 3.1297164354438332 142 170 204 192 61.2000008 1
-0.68360678364120564 0.35495682466917744 1.3190020037476267 255 122 140 183.600006 393.600006 1
0.5161178060297672 0.45880974613279113 0.68040166496682275 255 0 0 675.600037 549.600037 1
-1.6616832805428099 -0.33316782426767344 3.1847999093951471 255 239 241 183.600006 249.600006 1
-1.7545314118954414 -0.32481492981896676 3.0841589947452408 255 240 242 163.200012 247.200012 1
-1.6966131416083141 -2.1645636912123569 3.2386860894130067 255 119 154 183.600006 30.0000019 1
-1.7131579050067285 -2.035507525070182 3.0759581771526934 196 255 120 170.400009 34.8000031 1
-2.280095750334314 -0.28143645368997289 5.319601828373238 104 122 143 220.800003 267.600006 1
-1.5938416178479566 0.28927990326096414 2.8005326865711178 206 187 255 165.600006 328.800018 1
-1.7470376579039444 -0.075266844401033137 3.287401070229981 245 246 255 181.200012 279.600006 1
-1.8240366627247431 -0.07499007755267148 3.2477536202358421 245 246 255 169.200012 279.600006 1
-1.1688166917816414 -0.16475768628309106 3.2555810603542676 255 69 88 247.200012 267.600006 1
-0.081915266101139306 -0.76738030461342976 5.6287209919594812 255 131 153 379.200012 235.200012 1
-1.9459203625574633 -0.90322402517863876 3.3652563198043666 255 227 231 163.200012 183.600006 1
0.60850458034180144 -0.3518633235424331 0.66952845247879211 196 215 255 733.200012 85.2000046 1
-0.075871955936257951 0.46536757398820083 0.95958146302904468 255 215 216 355.200012 475.200012 1
-0.11940707165121478 0.43873441922777889 0.87640486981143839 219 218 255 333.600006 480.000031 1
-0.11815817752260704 0.30254388567610391 0.83379656028830951 255 221 221 327.600006 427.200012 1
-1.58709357582643 -0.84414480698823713 3.0869042019246078 228 236 255 185.76001 182.880005 2
-1.7919548243148844 -0.84035218351030594 3.1175866962306444 231 237 255 165.600006 184.320007 2
-1.6100124133496854 -1.0715579910293094 3.1233939208224397 229 255 206 182.880005 156.960007 2
-1.7840180333296769 -1.0709818392510588 3.11955129137989 229 255 207 162.720001 155.520004 2
-1.2886158762631164 -1.6355565993965626 5.9492351724432657 234 255 211 302.400024 181.440002 2
0.5059584923109145 -0.097781010602606744 0.65306819525980386 142 150 255 681.120056 228.960007 2
0.50773026715044367 -0.11628350482396815 0.68410969640574182 255 234 237 671.040039 223.200012 2
-1.6047777981393692 -1.2993197733149708 3.105987093830993 202 221 255 185.76001 126.720001 2
-0.85758495759730602 0.27207315504056351 3.1957595691316274 175 255 139 282.240021 321.120026 2
-0.11124055000541344 0.32571879468667159 2.8553676472636527 255 169 179 371.52002 331.200012 2
-1.5817872004451554 0.11815305837015323 3.9431624410668906 104 121 139 228.960007 298.080017 2
-1.5453800965055393 0.32423175747367805 3.0091140453839356 255 152 162 187.200012 331.200012 2
-1.5431443100152507 0.28060501065888832 2.7151608149062989 206 187 255 165.600006 328.320007 2
-1.6518060683086722 -0.23950008280746748 3.1188887041060207 245 255 242 178.560013 259.200012 2
-1.1217967443446408 -0.65195430741960847 3.2299229744454752 105 129 255 249.12001 210.240005 2
-1.4452965393260264 -1.9815373325476315 5.882876084869566 210 227 255 289.440002 156.960007 2
-1.5342901611281956 -0.66933432235783652 2.985249590748194 229 233 238 184.320007 201.600006 2
-1.775773694277218 -1.7692521708142592 3.1702437945064004 173 206 255 169.920013 73.4400024 2
0.60376895265947761 -0.34859684667492175 0.66294988742048222 255 183 197 731.52002 84.9600067 2
0.50286402704861666 0.25107611509832273 0.6734524442433063 255 96 114 671.040039 432.000031 2
0.031988007087741854 0.4808603352601189 2.5680221854010874 223 223 221 388.800018 361.440002 2
-1.4816543123328927 -2.0094011324801633 5.705830036754838 255 212 219 283.680023 151.200012 2
-1.5443617640623035 -1.2669442734839738 3.140548362886626 255 188 205 195.264023 133.056015 3
0.39237475047753734 -0.49122400610799022 3.8578461967075732 215 218 255 421.63205 236.736023 3
-1.7486753621399442 0.38781881640782689 3.4123644760366618 188 255 168 186.624023 330.048035 3
-2.3475696976213758 0.42842842732461028 4.0619952016163188 206 187 255 165.888016 328.320038 3
0.52241011658350334 -0.24820229872026167 0.65079187470502164 255 222 226 691.200073 141.696014 3
-1.5672459801435465 0.12194192089060706 3.869650658315547 102 119 137 228.096024 297.216034 3
-1.8167668931180314 -0.49165092298989665 4.1262391786131696 147 255 121 214.272018 241.920029 3
-0.086272003482960935 -0.75967443605358664 5.527690782175811 157 255 151 378.432037 235.008026 3
-1.5761893049017552 -0.70301648490682755 3.201309218788754 255 231 234 195.264023 203.904022 3
-1.6562170009648463 -1.061097869830786 3.1500525938160382 255 207 217 183.168015 158.976013 3
-1.4641260145380373 -0.12266118091689421 1.6159434663973222 172 255 174 34.5600052 257.472015 3
-1.4816543123328927 -2.0094011324801633 5.705830036754838 255 212 219 283.392029 152.064011 3
-1.7669663961874069 -1.7784674787144161 3.1685760166226729 173 206 255 169.344009 72.576004 3
-1.7560688852607083 -2.0906234601967948 3.1521298434437472 255 120 155 171.072021 34.5600052 3
0.98594578869532934 -0.72700752542803593 2.8548157726279242 236 255 218 518.400024 191.808014 3
-0.11351609132327933 0.42949670957908698 0.85005842350583749 219 218 255 333.504028 480.384033 3
-0.42157654158761315 0.3220356333319887 0.51476338183492998 53 255 30 70.8480072 527.040039 3
-0.79384827592650464 0.25949433680540868 3.0168841162138178 129 142 255 281.664032 319.680023 3
0.33684400158791772 0.45356045575374293 0.89083451297225436 255 226 226 527.040039 483.840057 3
0.49725636493667791 0.18137020739928031 0.6821876818401349 138 166 255 661.824036 388.800049 3
-1.1498018720174659 -2.0541314299192455 5.9713068300300636 211 228 255 309.312042 157.248016 3
-0.88869329945379683 0.37905141219020255 1.233176022942658 255 117 140 107.827217 406.425659 4
-0.10668523333859126 0.32835478022239306 2.9340511798552869 255 112 128 371.174438 329.702454 4
-0.065512625904998512 0.41223833555368683 1.5269813718759075 255 90 102 367.027252 391.910461 4
-1.5136843288311326 0.13022778745081792 3.7524165373266376 104 121 139 228.096039 298.59845 4
0.35722101353038305 -0.47332694018105581 3.5111241397874657 154 199 209 420.940857 238.464035 4
0.13274605072265433 -0.65016912822854767 4.6051754914325498 255 138 151 391.910461 232.243225 4
-0.88607128365877363 0.25321517930062853 3.3078192130289779 175 255 139 282.009644 321.408051 4
-1.4816543123328927 -2.0094011324801633 5.705830036754838 203 214 226 284.083252 153.446426 4
-1.6071922237537493 -0.13517526256443135 1.7714022102366616 255 181 182 39.398407 257.126434 4
-1.7755487626686803 -2.0252670938930084 3.1241133484391232 155 197 255 165.888031 39.398407 4
-1.1111157515448671 -1.9526800083898239 5.7394794326181229 255 195 211 311.040039 157.593628 4
-1.5427351344969358 -0.19962353316524531 3.1465730259909992 243 244 245 196.992035 263.347229 4
-1.2960705163751225 -1.6406960049438271 5.8881899408111575 210 221 233 300.672028 180.403229 4
-0.11578523620523518 0.42891831238537426 0.85808879821953066 219 218 255 333.84964 481.075256 4
-0.45464990203582123 -0.079621106565757549 6.5658489940043179 91 112 133 356.659241 284.083252 4
-1.1813711982335802 -0.17019759890635339 3.2733367615118731 68 86 107 244.68483 265.420837 4
1.2420219553068697 -0.73494906581970598 2.4366006810230068 213 222 233 576.460876 172.108826 4
-1.6711119970940072 -0.87012512587636193 3.2000490859543587 226 230 236 184.55043 184.55043 4
0.32640990338869136 0.47702456218462763 1.4348250349490312 202 255 203 474.854462 416.793671 4
-1.8175449589945178 -1.0962350654126227 3.1868451155433171 217 229 255 165.888031 155.52002 4
0.59095279937347045 0.40495262345142724 0.67439809241947368 0 0 255 721.612915 520.473694 4
-1.9136346333128857 0.17240455501994115 3.2071983504273192 255 210 144 155.52002 313.113647 4
-0.43085838423005374 0.43318157584900907 1.6001297835523292 255 87 120 279.936035 391.910461 4
0.54732190290796012 0.36525915795589925 0.65747482638819799 0 13 255 701.70636 502.640717 5
-1.3685671474422376 0.1056221903258569 3.4077364586571415 139 255 108 226.437149 298.59845 5
-0.20449639667552422 0.18753290219300556 3.4117253412704196 102 255 50 358.318115 313.528351 5
-1.758070270937496 -0.31989831128573631 3.1183694889096958 245 255 240 166.717468 248.832031 5
-1.4672052756812377 -1.9710676739626005 5.6494518173737802 255 212 219 283.668518 154.275864 5
-0.11905620182013266 0.4301706510481923 0.87073726108831018 255 216 218 335.923248 477.757507 5
0.99292292138073635 -0.73319768287522735 2.8688698567499427 220 227 236 512.593994 191.600662 5
-1.1593643982190698 -0.16870253961130624 3.2063200514472374 255 67 86 243.855392 263.761963 5
0.47927457088732017 -0.57379490470313188 3.951975590222915 255 232 236 427.991089 231.413788 5
0.016433845229798294 0.48254069970969721 1.048148800819374 130 255 98 390.66629 465.315918 5
-2.4629712144658797 0.33428380997662804 4.2195435599986535 156 129 132 164.229141 318.505005 5
-0.51734049405017002 0.4901761112060023 1.851164467622779 82 115 123 276.203552 393.154602 5
-0.9269973469775854 0.24966045549960686 3.4876219494251446 125 139 255 281.180206 318.505005 5
-1.1111157515448671 -1.9526800083898239 5.7394794326181229 255 194 210 311.040039 156.764175 5
-1.4653087678986001 -0.44481317600811643 3.3737759931049602 147 255 121 214.990891 241.864746 6
0.98516600474436444 0.16679704693452649 1.8355475709393398 255 62 72 591.224915 322.486328 6
0.33395925370807245 0.46951295268152732 0.83898437365078138 220 218 255 537.477234 501.645416 6
0.50724610754268906 0.18678169121199309 0.70516905491069304 160 255 121 662.88855 388.177979 6
-0.89430433135251342 -0.53576049449683438 3.0725274859493172 229 230 230 268.738617 220.96286 6
-1.1078899456417548 -0.95798238836369576 3.9459680067738114 255 225 226 271.724609 194.088989 6
-0.13050759191757932 0.4413663706977925 0.7415085952207312 214 255 215 310.542389 516.575317 6
0.1100177912220679 0.6218675459190891 1.6872730546821115 223 255 222 406.093903 426.995789 6
-0.085096383208799198 -0.48385742785385077 4.4823387793825624 170 167 255 373.248077 247.836716 6
0.43270787516580878 0.39344007009008536 0.6752686116972304 255 1 0 627.056763 507.617371 6
-1.0513225857052442 -0.16425573698850743 2.912078604004054 68 86 107 244.850739 265.752625 6
0.57855556471136915 -0.72746882050489836 4.5203743990136012 242 255 231 426.995789 229.920807 6
0.42205093437852548 -0.58061248264244469 4.4606600882355787 199 255 155 418.037842 238.878769 6
0.48310839409582174 0.25989906816218294 1.1092970865224625 13 22 255 549.421143 376.23407 6
-0.56639792028981528 0.33517001371461935 0.69710301346012726 89 119 132 68.6776428 471.785553 6
0.3277993212148167 0.46986801876182488 1.5968429165558167 165 255 131 462.827606 400.121918 6
-0.46631491841602801 0.27489178148207571 1.4475132062902349 255 170 170 259.78067 355.332153 6
-1.0958326027279437 0.26856351919037524 4.0300298697343404 124 127 139 280.682556 316.514374 6
-1.4184226003168519 0.13243617800028279 3.505224247467754 139 255 108 226.93483 298.59845 6
-0.84606847841627886 0.33298913069998148 1.3397960905828135 4 255 28 146.313248 388.177979 6
0.66025180692501828 -0.83121817509808293 4.2568231408541548 230 235 241 444.911713 212.004898 6
-1.7057612347064937 -1.0825217919714372 3.2102587681033397 229 255 207 182.145065 158.257187 6
-0.97751548458951065 -1.3482762535476382 4.769198511893336 221 233 255 301.584442 179.159073 6
-0.12714878143781894 0.43805655269557137 0.89720727587808335 216 214 255 333.235901 476.563141 7
-1.5731664627699429 0.32822203213878987 2.0231114199424649 169 255 134 82.4131775 343.985443 7
0.54501042542713152 0.3706951295817898 0.66895067672040343 255 39 43 695.137207 501.645416 7
-1.4166959275472482 -1.7526517578481435 6.2736835506802029 209 221 233 300.987244 179.159088 7
0.31382243556545553 0.42640404350354638 0.82823676996160933 255 226 226 523.144531 483.729523 7
0.49826212979353324 0.31792106763471195 0.98009103176825585 163 136 88 580.475403 412.065887 7
-2.2012752838649869 0.18034546560885178 3.5807326318005162 246 255 239 150.493622 300.987244 7
-0.53078686094473615 0.29779501630390626 1.6166794096411259 170 175 255 257.989075 354.734985 7
0.3206033389013434 0.46571511154823819 1.3622658082076189 198 191 193 472.97998 419.232239 7
0.039122410889946391 0.46859778866156965 1.1316133080582316 156 255 135 394.149963 447.897705 7
0.49138243161146222 0.24731008843332547 0.6607718978677255 161 255 118 662.888611 429.981781 7
-0.20404170667806776 0.32106653981438454 0.76763046446232175 255 224 225 279.488159 447.897705 7
-1.7717755350316065 -1.8016915611481539 3.1681876565603804 146 173 205 168.409531 68.080452 7
-1.2910199867739087 -2.1405730203160283 6.4332134143416519 195 211 228 308.153625 157.659988 7
-1.7561413436793285 -0.47990777034936682 4.0009036811548819 153 255 126 214.990891 243.656357 7
-0.29667106596897397 0.020652326742631844 4.2089024683499909 133 255 91 354.734985 286.654541 7
