ply
format ascii 1.0
comment Written with hapPLY (https://github.com/nmwsharp/happly)
element vertex 97
property double x
property double y
property double z
property uchar red
property uchar green
property uchar blue
property float ix
property float iy
property uchar octave
end_header
-0.62562006210048882 0.41067494258764653 0.7897637285074075 255 9 9 79 487 0
1.1003901883955294 -0.51833503630119748 2.1030642420235983 255 217 228 583.200012 193.200012 1
1.0782890281747657 0.48411710363758625 1.7179808667020682 183 195 255 625.200012 396.000031 1
1.1792701674568753 -0.083265165392694462 1.4303325228088939 255 119 147 699.840027 264.960022 2
0.37288660587000777 0.64372013664364325 2.2895221754212116 255 122 135 447.840027 397.440002 2
0.20755854670610385 0.62704774994794754 1.922516996771523 150 255 131 426.240021 414.720032 2
0.69304936201601031 0.57522658254810355 2.592767685291669 151 167 255 489.600006 372.960022 2
0.2967743355239203 0.11960527619070158 3.8886320985735354 173 194 255 413.280029 300.960022 2
0.13800932187922177 0.39513683743885819 2.3932590780363832 179 194 205 408.960022 352.800018 2
1.1692003281633832 -0.43618566292664407 2.0335366468434675 255 225 233 603.360046 204.480011 2
-0.27253138334503557 -0.37958612542278514 0.69678854732694218 255 42 73 231.840012 79.2000046 2
-0.44983059932254266 -1.8254021472672046 3.3519395689404634 49 79 101 332.640015 76.3199997 2
-0.94308888153751846 -0.59255449883207889 1.0962099026830021 226 225 255 53.2800026 79.2000046 2
-0.4486048790959658 -0.47675270297611583 0.71886023875558891 164 203 255 145.440002 33.1200027 2
-0.9345107139580846 -0.007406999454971197 1.0808856597955803 255 144 140 51.840004 286.559998 2
0.1988269861935954 0.59856138495721201 1.8237096220743565 255 133 139 423.360046 412.992035 3
0.15428735348804512 0.0556103300138788 4.9769954467430253 255 152 161 395.712036 292.032013 3
-0.4917725395039243 -1.3603267063904165 3.1581327806957109 74 106 255 321.40802 122.688011 3
0.74232468727922374 0.56896738463717256 2.4659356239300658 255 112 124 499.392059 373.248047 3
-0.92870747626129813 0.45606873351602906 1.021596448257422 92 99 111 36.288002 459.648041 3
-0.22239283011879918 -0.036788427101533017 0.67049587745070616 101 123 255 257.472015 264.384033 3
-0.21613611778156239 -0.079308911061159004 0.74923373476865862 255 114 133 271.296021 245.376022 3
-0.30602983952296237 -0.40899343194095827 2.5853008797999193 70 255 39 338.688019 224.640015 3
-0.44713037273140044 -0.4746448094830038 0.71449510251822446 164 203 255 145.152008 32.8320045 3
-0.91961670085367553 -0.57993116824363256 1.0611908604452616 255 222 223 51.840004 77.7600098 3
-0.51935470156127073 -1.3759649947572778 3.1732992127275903 74 106 255 321.408051 122.342415 4
0.30081236491810537 0.44255735131058904 0.70850002548750934 158 172 255 549.504089 528.768066 4
1.0931296623057289 -0.42482928494287175 2.0529111296087388 229 236 242 588.902466 213.580826 4
0.74369189229591259 0.56321003141090609 2.4866994577722714 255 113 126 499.737671 375.321655 4
0.5389756324998729 -0.49542062789198071 3.098945461660791 80 131 152 452.044861 223.948837 4
0.75356584865089427 0.35016193575729565 2.7688704174359264 255 147 151 487.296082 335.923248 4
-0.47362754729898793 -1.8591290362957782 3.4567012029258333 255 47 79 331.776062 76.7232132 4
0.76335757234467372 -0.28421409719808577 2.5098060890447673 255 240 243 499.737671 244.68483 4
-0.26836617838651522 -0.052355528063219525 0.82846786005706807 102 124 255 257.126434 265.420837 4
-0.35156582586030583 -0.056579520422884111 0.90381126860672278 22 255 0 238.464035 265.420837 4
0.6134855078443322 -0.63436876407782716 4.4905870701935582 135 160 255 437.529663 234.316833 4
-0.20202698723968426 0.43952745357439765 0.73630714636478567 69 93 255 277.862427 518.400085 4
-0.14288838937424941 0.43371573679680681 0.72279376098983894 52 78 99 308.966431 518.400085 4
-0.36614221455985696 0.84768987068676116 4.9508908570841044 185 255 154 358.732849 356.659241 4
0.18505972561821893 0.5792006089674534 1.7652705246562368 255 133 139 423.014465 412.646454 4
-0.91377080816309242 -0.006903329979023265 1.0476023352820922 255 144 140 51.8400078 286.15683 4
0.28702193980198798 0.51372075089128932 1.7786203325761871 148 170 255 445.409332 395.642944 5
0.64837262254408867 0.64608097284337995 1.4540778896843092 101 103 101 552.407104 457.850952 5
-0.45282691299052047 -0.33147251862068028 0.74252200680647373 255 217 222 151.787537 114.462738 5
-0.29414420643579842 -0.17617568348738777 0.91650811332205073 126 152 255 261.273651 211.507233 5
1.1960347989111608 0.57487595198319941 1.5774697898256402 255 13 13 671.846497 430.479431 5
0.87518747868054092 -0.2628617345275055 2.0365569480784327 239 242 245 544.942139 238.878754 5
0.76335757234467372 -0.28421409719808577 2.5098060890447673 240 243 246 500.152405 243.855392 5
0.83507574582260169 -0.61348300999887162 2.9173356307430973 228 234 241 492.687439 206.530594 5
-0.51066984945134486 -1.3719223935283777 3.1059741787267932 0 65 99 320.993317 121.927696 5
-0.23271323909323671 -0.26750225212723261 0.74263197851795892 117 147 255 261.273651 146.810898 5
-0.19132247664499591 0.41201324810640039 0.7163772446500225 92 255 38 278.691895 505.129028 5
1.2158191801163183 0.43478122516851336 1.4448747548115319 255 121 139 711.659607 405.596222 5
1.1354926843448967 0.38043151520019569 1.5277071845905281 102 107 130 664.381531 380.713013 5
0.13940900435079362 0.046072613220166647 5.2521803515402183 255 151 161 395.642944 291.133484 5
1.3060244033091952 -0.60952295268023549 1.5439637944441778 255 221 226 711.659607 136.85762 5
1.1788644812440821 -0.66171331201241301 1.6031070697686776 228 234 255 669.358154 134.369293 5
0.96143819377597606 0.44017220726565121 2.0657891979367751 128 147 176 564.848694 368.271423 5
1.031983905920683 -0.47861331145614205 1.9676372568781639 218 229 238 584.75531 194.088989 5
1.0579011499667257 0.56170335806380178 1.7407043540236682 113 255 125 618.098816 406.093903 6
1.2204487857940518 0.51405899233843433 1.7630319839234492 255 120 139 647.958679 406.093903 6
0.94382580114802761 -0.48504037070229833 2.4039375266025473 255 228 234 531.505249 209.018921 6
0.76800849772963486 -0.59615246733113081 2.841623923205213 236 242 255 489.701477 209.018921 6
1.175834277018305 -0.42146663514195049 1.3916213157818591 225 231 237 704.692383 173.187103 6
-0.54093086757671971 -1.3854314843435773 3.1519524636655314 255 5 64 319.500336 122.425369 6
1.1983133281500482 -0.64604106907445724 1.6492213979863282 222 227 234 668.860535 137.355286 6
0.77400546117019231 -0.29022001341242554 2.5719987535759152 246 255 241 498.659424 241.864746 6
-0.2425995221693249 -0.073167960622658179 0.82238305682837742 115 135 161 268.738617 253.808685 6
-0.34608306271773204 0.30719186452633696 0.72825994937462646 255 45 72 203.046951 456.855652 6
-0.15551860826098207 0.44020560496771333 0.74614521486333496 63 89 110 304.570435 516.575317 6
-0.23907405731287446 0.30360206409509344 0.7957430651175752 41 66 89 268.738617 435.953735 6
-0.25756340131858657 -0.27089814741177443 0.76736905607953343 255 76 101 259.78067 149.299225 6
-0.2615637335437655 -0.2631603763499038 0.70512835481573699 85 255 60 238.878769 149.299225 6
1.1041743257916621 -0.53240284192813137 2.131264393250663 239 255 220 582.266968 197.074982 6
-0.22927509909989707 -0.38927889011482086 0.70688357645327926 255 41 74 259.78067 80.621582 6
-0.093558653421113247 0.055170063709450379 2.1662696994786703 189 255 170 370.262085 301.584442 6
1.0333231843703143 0.23827333500032977 2.0784305979593878 144 153 174 576.295044 334.430267 6
30.640831660045979 -30.700962452775126 60.477056354605345 255 156 186 579.281006 92.5655212 6
0.58421864809127788 -0.59019984052369467 3.0312127783955889 194 255 141 458.647247 214.990891 7
-0.26296027185121806 -0.25427688612493349 0.6986643923361795 59 67 85 236.48999 150.493622 7
27.661542642113261 -28.664245380961169 71.609106375483506 229 255 202 530.310852 136.160904 7
1.170712737683187 -0.60419116815815532 1.5742448412648127 233 255 215 666.471802 136.160904 7
1.0136540702922825 -0.30940660780304652 2.4542983243256993 239 242 245 544.643616 236.48999 7
0.72403550970640151 -0.28255070271953842 2.3507733647925857 246 255 241 498.062256 240.073166 7
0.95061207327635611 -0.51451714135348858 2.4980948184338558 242 255 229 530.310852 211.407715 7
0.66220463393808493 0.65468141502341726 1.6209312162128153 179 162 255 541.060425 444.314514 7
-0.37626088231024024 -0.066422307706652028 0.96062935105337566 44 60 78 236.48999 261.572266 7
-0.35408101830387029 0.31227003402034026 0.7646433312947134 42 72 94 204.241348 451.480896 7
0.38805148886172369 0.37818074076255426 4.1081569418596899 156 255 115 422.81543 318.903168 7
0.13684234775058868 0.055280762625143059 5.0492121977743878 157 255 157 394.149963 293.820892 7
-0.15343195788090158 0.062153007071972216 2.791576533115264 182 196 255 369.067719 300.987244 7
1.1768160227820734 0.3963510924528108 1.6095495860189892 173 255 128 662.888611 383.400421 7
-0.19402030178757146 0.39504100311716439 0.74609385872746792 97 255 38 290.237701 490.895874 7
-1.0866191983718378 0.40343514135757524 1.554834445478841 255 108 123 111.078629 394.149963 7
0.15960674381584838 0.5733286178224003 2.487237944468669 79 123 167 412.065887 376.23407 7
0.60334448027654553 0.68385698630290181 3.9258894770305055 63 118 151 440.731354 351.151794 7
1.1236438881681146 0.51974731536951446 1.7680234789195381 255 152 156 623.473572 401.316345 7
