ply
format ascii 1.0
comment Written with hapPLY (https://github.com/nmwsharp/happly)
element vertex 90
property double x
property double y
property double z
property uchar red
property uchar green
property uchar blue
property float ix
property float iy
property uchar octave
end_header
1.0701314362222196 -0.26012590485661446 1.8024073733080899 159 255 146 614.400024 231.600006 1
0.480023237357734 -0.34312697278120019 1.8084068946415499 255 240 242 483.600006 216.000015 1
1.0703746445253057 -0.21043802118834309 1.2439459344788713 131 166 192 712.800049 223.200012 1
-0.12562878661243104 0.54340883758846537 0.80878783646901553 35 44 53 324 544.320007 2
0.25692599029449248 0.6760954946403922 1.1533640475240103 129 144 165 472.320007 514.080017 2
1.0405782190150075 0.52134730209048796 1.17015022462021 120 138 168 724.320007 456.480011 2
0.74169304455667984 0.62385363038441533 1.8301020707912041 162 179 255 537.119995 419.040009 2
0.77230255099169565 0.49966822701223934 1.7329057587953764 255 90 101 555.840027 396.000031 2
-0.38365862898531722 0.49356232903227415 1.7401314897820788 187 255 144 298.080017 397.440002 2
0.85328286327626923 0.42252910127939602 2.1219904397800464 153 166 180 540.864075 364.608032 3
0.63467266415292389 -0.47027161769315973 2.5359781091163303 245 255 240 482.112061 214.272018 3
0.6304295812116627 -0.54987709570955623 2.3273762523250898 255 234 238 487.296051 195.264023 3
0.35267117166558348 0.64295153371654501 1.1701426400010471 255 114 129 499.392059 502.848053 3
0.37067276681946537 0.70510752329415205 1.7513445043388423 168 255 130 466.560059 444.096039 3
0.59575962486529876 -0.0017479266464618393 2.3667250035234515 251 255 249 482.112061 285.120026 3
0.60154095389316797 -0.17890076590033765 2.4189474122276406 249 255 247 478.656036 257.472015 3
0.99168238703624911 0.49341713011398469 1.3972899318253136 219 220 255 653.184082 425.088043 3
1.0973703881578083 -0.4179721272583683 1.3128660282925031 233 239 255 705.024048 165.888016 3
-0.23327095726679481 -0.31952914752530681 1.5872896491643331 234 239 244 324.864044 210.816025 3
1.0799922940374063 -0.066304555320252423 1.2405687998109896 255 132 165 715.39209 269.568024 3
0.54960035700514864 -0.22835813084410306 2.6096793755933669 246 247 249 464.832031 254.016022 3
0.84993725011991406 0.6614387057654747 1.854235758830554 255 127 142 563.328064 426.81604 3
1.0687414741541068 0.31254581749741406 1.270301329024913 135 155 178 708.480042 381.888031 3
-0.38459648017714532 0.30797839825400097 1.5524615515841438 157 255 128 290.304047 360.806458 4
0.36622056059682206 0.19337394752079029 3.6300961787164061 255 88 135 423.014465 308.966431 4
0.27814889438470036 0.15505254128486401 4.0733501815043525 152 173 196 412.646454 302.745636 4
-0.13316049265852525 -0.03629224817192056 0.72025987219626053 255 248 249 315.187256 269.568024 4
1.0766805417438396 -0.2131701621959653 1.2526233505485278 169 194 255 713.318481 223.948837 4
0.5722071290038262 -0.44648684502504321 2.3105657485138655 242 245 255 481.075256 213.580826 4
0.80751146282544428 -0.52257966320546356 2.0226060396354546 236 242 255 541.209656 186.624023 4
-0.062400663151009228 0.70821689894785367 1.127810810795153 16 24 34 360.806458 532.915283 4
0.25208328059914331 0.66013074373338154 1.1030348193699009 164 255 126 470.707275 514.252869 4
1.0231606436265515 0.398403203764569 1.4266144791823105 255 123 135 663.552124 393.98407 4
0.56029878645043718 0.01171073360203978 2.4495453236431111 249 250 251 472.780853 288.230438 4
0.57524125861394948 0.62987958473427408 2.4658987789129565 215 255 214 474.854462 383.616058 4
1.0630021639331673 -0.19866768130424456 1.2406399722082098 145 176 197 716.63623 223.948837 5
1.1173295302490485 -0.33620511990605395 1.3804795044981431 202 255 142 694.241394 196.577301 5
1.0420846476295138 0.39473618759034934 1.1976279565664383 255 52 33 719.124573 415.5495 5
-0.45871001992755778 -1.3103571896836708 2.4481138541248599 255 167 194 311.040039 79.6262512 5
-0.30923984180766251 -0.57268054245676381 1.4865627200572584 231 255 192 306.063416 139.345947 5
0.58299410803884988 -0.46272433406506785 2.3691217035969414 245 255 238 482.734161 211.507233 5
0.81492693749667411 -0.52319816237150929 1.9999543377520137 255 231 236 539.965515 186.624023 5
0.20753634815869382 0.68026213255948142 1.5529142898723416 165 177 255 437.944397 452.874298 5
0.27348133449079692 0.710967054283976 1.2224183120090526 130 145 167 472.780853 512.593994 5
0.97983855302976131 0.61842952340002932 1.6954725361888272 255 143 158 607.150146 427.991089 5
-0.4774072210987228 0.073669867806842593 2.1864325395694362 148 164 185 296.110107 301.086761 5
19.072097969254052 -31.675085011806885 59.172517400432746 223 255 180 510.105682 84.60289 5
0.17845094073904066 0.69431377968510621 1.3070395434766215 255 128 141 435.953735 495.673431 6
0.84950145476370009 -0.23799642322054715 1.9314564820254949 246 248 255 549.421143 244.850739 6
-0.48351693845400678 -1.321523389099958 2.4587719837748043 220 255 167 310.542389 80.621582 6
0.95356078152013546 -0.23389990567395386 1.5627034030080083 188 194 203 612.126831 229.920807 6
0.81074805145959017 -0.53332846748407736 2.0440662664020035 235 241 255 537.477234 188.117035 6
0.8738467950451374 0.44839333169781947 1.9432384943208634 147 161 255 561.365112 379.220032 6
0.81793659877493585 0.69610571063859517 2.0981885541473977 162 179 255 537.477234 418.037842 6
0.40673297138223763 0.65645535702278213 1.7456022461595104 139 154 177 468.799591 429.981781 6
0.81829179109861494 0.63366334557688875 1.8097533418046607 144 160 255 561.365112 424.009796 6
0.7954084762379301 0.49347585851714304 2.4865861163928482 140 153 168 504.631378 370.262085 6
0.26274640150873751 0.72768649373474592 1.2578475773563866 127 141 162 468.799591 513.589355 6
0.5318431777982342 0.75059690070647012 1.4328017721907047 116 130 148 528.519287 495.673431 6
0.41649474630744576 0.67019048461363873 1.4022503265221156 156 255 122 498.659424 471.785553 6
1.0640711201764879 -0.31693987502486631 1.3150312034850256 140 173 200 692.748413 197.074982 6
1.0490679596087999 -0.33351148624030147 1.4346728989470048 161 190 255 665.874573 197.074982 6
0.19707432825462989 0.11214454070941648 4.1948868215665502 150 171 189 400.121918 298.59845 6
0.74162027842163547 0.03650831174728697 1.9969368400099032 255 245 247 519.56134 295.612457 6
27.574981525449001 -29.011670633570091 71.788204568232302 255 208 219 531.505249 134.369308 6
1.0341081478727043 0.61491903939804338 1.3721067826668492 143 167 255 673.638123 458.647247 7
0.97566166016905553 0.46575126786024945 1.2445041757976893 138 153 179 680.804504 433.564972 7
0.19925584480624092 0.58337963326951092 1.5333850905748667 108 140 255 437.148163 426.398621 7
0.86234838696421079 -0.26201626721191262 1.9991023839946154 244 245 248 548.226807 243.656357 7
-0.37313941377742621 -0.83204431135003842 2.361318044954789 234 255 203 326.069519 154.076813 7
0.47339639682320955 0.66973051209313861 1.2443396830191533 145 255 114 526.727722 494.479065 7
0.55021258076628587 0.70022985430570683 1.4902110760046092 160 255 131 526.727722 469.39679 7
0.56549856606636251 -0.44982900136662984 2.275554655362348 238 241 245 480.146332 211.407715 7
0.8745985023099323 -0.55668672478482673 2.1495930762468243 236 241 255 533.894043 186.325439 7
0.6251454028813257 -0.53465527134027802 2.3161849653483726 255 234 238 487.312714 197.074982 7
1.1027098132687385 -0.34792659403454829 1.3909984969204645 255 140 173 691.554077 197.074982 7
0.99342206411108913 -0.31380059103228974 1.3429737239720714 193 255 132 666.471802 197.074982 7
0.41470948030759924 0.67575048193521003 2.8157089669937028 121 165 180 444.314514 379.817261 7
-0.29479992975233138 0.80355044609869863 3.3704171944079784 158 255 128 354.734985 383.400421 7
-0.27872432863758911 0.64530077093589644 2.5811499470445902 115 116 117 340.402252 379.817261 7
-0.35604934038192271 0.73029676922492426 3.7571206274043778 94 105 118 340.402252 365.484528 7
0.93686127401291375 0.58978212153222409 1.5943699579722068 155 181 255 609.140869 429.981781 7
0.80296521517572494 0.61505862619514751 1.7388625955022565 146 255 106 558.976318 422.81543 7
0.4296284263726533 0.43103151461258515 3.2277255776240459 126 156 255 437.148163 336.819061 7
0.17441023618045048 0.10005116992716523 4.6194183554852923 164 183 255 397.733154 297.404083 7
1.0160782592916719 0.62559366410860195 1.5081919361764484 149 177 255 641.389526 447.897705 7
1.0585123306559352 0.52176126475065798 1.516075650887565 255 224 224 655.722229 426.398621 7
0.5535678393039829 -0.45103672114579429 2.7573206359200046 246 255 241 462.230438 222.157257 7
-0.4831733403908034 -1.3254329160200768 2.4249784583639631 166 193 220 308.153625 78.8299942 7
-0.55477257254530254 -1.3556768323412831 2.5063422011840064 164 192 220 300.987244 78.8299942 7
