ply
format ascii 1.0
comment Written with hapPLY (https://github.com/nmwsharp/happly)
element vertex 105
property double x
property double y
property double z
property uchar red
property uchar green
property uchar blue
property float ix
property float iy
property uchar octave
end_header
-0.76999049990115331 0.6628031471820961 1.5215723341715455 208 208 207 188 454 0
1.0826500499812388 0.57034235493516627 1.2743039402775365 214 200 255 709 460 0
-0.5881101794070247 0.63988023514515824 1.0766800390758586 255 210 210 175.200012 517.200012 1
0.13326308170995005 0.14938714316939505 1.1497204867858901 255 242 246 427.200012 337.200012 1
0.055354651100487207 0.17666279205324908 1.3993055920234276 255 241 246 399.600006 337.200012 1
1.372771729450142 0.33242403102568979 1.5967839119696867 255 236 236 715.200012 367.200012 1
1.0183040619458603 0.55914814482082498 1.2457424467478821 187 185 255 697.200012 459.600006 1
-0.51010248509816414 0.68429569709099125 2.2217771298833835 199 196 255 297.600006 404.400024 1
-0.54988114059911686 0.6179459296762273 1.904281622418976 255 121 125 275.040009 410.400024 2
-0.34589158134194919 0.66342749028962644 1.4280786529231113 228 228 223 292.320007 463.680023 2
1.2003210994061215 0.68513289775369524 1.6070029729827162 81 103 114 672.480042 450.720032 2
1.5017222830888277 0.3756589787542664 1.6303161308650864 235 242 255 737.280029 378.720001 2
-0.88862126926315188 0.61344413258962538 1.5400386209390753 117 255 122 162.720001 440.640015 2
-0.77875520982888347 0.80673793623836509 2.2244721180638578 211 255 211 250.560013 427.680023 2
1.0804805621004228 0.52823439546637241 1.5802388591726091 193 255 168 646.559998 414.720032 2
-0.29518810568073484 0.8181256394283829 2.0546415503354858 69 76 80 328.320007 443.52002 2
0.0055072418449826355 0.28792470540630344 1.1722433836601303 255 235 233 387.360016 381.600006 2
-0.82180906424555156 0.54482180654031875 1.656206073609038 184 255 187 190.080017 414.720032 3
-0.73435652466889279 0.62556787068184239 1.5049868727093401 255 225 225 195.264023 449.280029 3
0.064731908422551276 0.20675827028808691 1.6924046394524686 246 250 255 397.440033 335.232025 3
0.47304688294137742 0.65164550213186667 1.0611288713366065 161 255 125 554.688049 521.856079 3
-0.221654462571097 0.76534775333028593 2.5476882928273898 100 255 102 350.784027 402.624023 3
-0.25396554680454386 0.7073346958351916 1.7544250258538723 66 74 79 328.320038 442.368042 3
-0.3720457115150797 0.75335159975652299 2.1197452835757638 52 53 65 316.22403 425.088043 3
-0.85372965095290221 0.59957746172275295 1.4717271817338586 117 255 122 162.432022 440.640045 3
-0.81599932462761116 0.73470332815143258 2.058369025829375 181 183 255 229.82402 426.81604 3
-0.69198266880770509 0.78959235787274706 2.4761899079540655 255 121 125 275.788849 410.572845 4
-0.43720798635759461 0.70746570392529939 2.0209212220317223 121 122 124 300.672028 425.088074 4
-0.3800514026802837 0.74890871421240068 2.1227171352382648 40 46 255 317.260834 423.014465 4
0.17124810110509214 0.20734040287501476 1.5513934483392422 246 251 255 425.088074 342.144043 4
0.07150663716889416 0.21852344301787108 1.8138171283727207 250 255 241 398.131256 335.923248 4
0.93915785998368673 0.69470686814136606 1.5445139989092187 130 143 255 617.932861 460.339264 4
-0.38746570924104917 0.75624714132581561 1.6472188546748123 227 227 222 292.377655 464.48645 4
0.48313044484033663 0.64469357521874715 1.0707623052190556 137 155 255 553.651306 522.547302 4
-0.66598092878626902 0.62928802183918631 1.2064787691075685 255 219 219 167.961624 489.369659 4
-0.81842677977903522 0.59033662790412267 2.0070129343558065 148 148 148 228.096039 402.278442 4
-0.59163383562572625 0.6997080471231234 2.0282804850054141 213 212 255 273.71524 418.867249 4
-0.66088535972776308 0.68257875580113803 2.4540021225333639 255 202 178 279.936035 393.98407 4
-0.26395858489343738 0.73559025127962618 1.8290336907977034 80 84 255 329.702454 443.750458 4
-0.72472448212725471 0.74119445768667425 1.8906731240410446 123 255 90 234.316833 439.603271 4
1.1052795499288297 0.62736528477428188 1.5586791401944913 255 110 132 655.25769 441.676849 4
0.0036877002396189518 0.27628270376745934 1.1442108889259197 236 243 255 385.689667 378.224701 5
0.48618970595803668 0.6600643351769715 1.0976237148723174 155 171 255 557.383789 517.570618 5
-0.21071663438139465 0.73929805186135789 2.4240058058666705 106 255 110 350.85318 403.10791 5
-0.39314069334013579 0.77852218029858644 1.7517989054869618 224 223 219 296.110107 452.874298 5
0.16849335599410376 0.20474339446562895 1.5723687697849797 246 250 255 425.502777 340.899902 5
-0.34001554398459488 0.72780267138508847 1.3787871449900893 196 194 191 288.645172 485.222473 5
1.0047648978475179 0.64842600910689763 2.4899362224079926 255 114 123 539.965515 385.689667 5
0.38213895275955445 0.70316915994152718 1.1354799032255745 165 187 255 517.570618 525.035583 5
-0.31038731672209208 0.81236304257189329 2.7819257351274942 70 73 76 340.899902 403.10791 5
-0.27658076199794035 0.77974802219260453 1.9589040813341914 84 255 69 330.946594 442.921021 5
-0.73859465821874881 0.7499834069171365 1.9359357227168044 108 138 146 236.390427 435.456055 5
-0.8739287924507213 0.79361281067649547 2.2067755775418618 170 180 182 228.925476 425.502777 5
-0.68389421787388649 0.77416783775830345 2.4683479636780046 125 128 128 276.203552 408.084534 5
-0.88072773059483467 0.58303026952571391 1.7979506099964713 185 255 197 194.088989 415.5495 5
-0.99451148522660127 0.71547625343431842 1.9792437449578362 151 171 255 189.11235 427.991089 5
-0.35749476746353182 0.47192584495718415 0.90181962955497141 111 110 131 236.390427 490.199097 5
19.908727626155684 -21.942339126803034 37.30027304269008 166 205 255 589.731934 64.6963272 5
-0.3103489925469316 0.8054058126665895 2.0121221900007811 72 76 84 328.458313 441.92572 6
-0.57000174757145583 0.60543372862112155 1.0352996126913414 214 214 209 176.173096 516.575317 6
-0.55721804947494391 0.62004490862823181 1.0925102101623585 211 210 205 188.117035 510.603363 6
0.69043990622749241 0.61753447079545509 1.9740113788456668 255 142 160 519.56134 406.093903 6
1.1411395079492992 0.74507245068271644 2.8292849235023372 255 147 154 543.449219 388.177979 6
-0.7427062207780275 0.68426415020937492 1.235341293900488 153 170 255 149.299225 504.631378 6
-0.52248087519328923 0.73301424783103242 2.4016743515334635 192 255 196 298.59845 403.10791 6
-0.664036799714677 0.65784932436232935 2.2061396496128953 255 182 171 271.724609 400.121918 6
-0.79474955232666034 0.67026421756313237 2.2102004711298253 255 169 167 247.836716 403.10791 6
-0.85732506503662265 0.6175527071694098 2.0956700110215625 172 255 172 226.93483 400.121918 6
0.12757218728245467 0.25566101272476149 0.73927281503053965 114 109 111 444.911713 424.009796 6
1.1837995309013438 0.65131971549815426 1.4887033299867598 176 183 181 692.748413 459.841614 6
2.3508484028428374 1.2843292021240631 4.8970963511741417 213 217 255 573.309021 388.177979 6
-0.27946525165166625 0.78918420543087353 2.1070392765217623 59 255 35 334.430267 432.967773 6
-0.30488484732438392 0.62561842246928334 1.7890698107893872 45 255 34 322.486328 421.023834 6
1.2416339161793111 0.69007620109497669 1.7508936133520407 118 140 158 656.916626 441.92572 6
-0.56445469602628773 0.6689062193659312 1.8935191403888529 212 255 212 274.710571 424.009796 6
-0.64134954648318043 0.71519943971921762 2.2133664019434605 152 152 255 277.696564 409.079895 6
-0.31217061362866749 0.6096872735870893 1.3125914093269131 226 225 221 292.626495 465.813599 6
-0.42540413451603598 0.7680290093523674 1.8399112063524594 199 205 197 292.626495 447.897675 6
-0.30916207139269636 0.82889098890797541 1.978788345986473 86 255 68 322.486328 453.869659 6
-0.95623403436119236 0.84288638637816038 2.646086934119781 150 255 160 238.878769 412.065857 6
0.17234375960579151 0.21954124736618885 1.693428549096919 250 255 242 426.995789 340.402252 6
0.072837061777694112 0.21277421481067837 1.7803084504475528 246 250 255 397.135956 334.430267 6
-0.36767443019189061 0.76679416095087749 2.2155448995559226 47 255 35 322.486359 422.81543 7
-0.42135538182700172 0.63861609546960296 1.9466982561190189 70 69 71 304.570435 419.232239 7
-0.78510699752081425 0.7131935624401935 2.0463508360028992 196 193 196 236.48999 419.232239 7
-0.72701235916412976 0.61312253260298655 1.7907462945202646 198 255 190 222.157257 419.232239 7
-0.71121152817815325 0.34353801692037922 1.2243179948387697 108 103 114 164.826355 394.149963 7
1.1900399489921054 0.42177753573453719 1.7118223142342801 236 235 242 652.139038 379.817261 7
0.073328917677338401 0.22476517670735741 1.8831557298480242 246 250 255 397.733154 336.819061 7
1.0128183417423879 0.73186327130148854 1.6370389944424408 255 109 132 623.473572 462.230438 7
1.0318589759226553 0.57706458119555082 1.4063135266926459 109 255 72 670.054993 447.897705 7
0.015330972747857219 0.33099985729733905 0.79595571045532942 60 255 73 390.566803 455.064056 7
-0.80652905477671766 0.56269988770451218 1.3651472090024175 145 139 255 157.659988 444.314514 7
0.36848648342077372 0.53331467782126951 1.0745979986658583 255 148 168 515.978149 480.146332 7
0.74910758979158576 0.6759211108059151 1.9547951359153526 214 255 203 530.310852 415.649078 7
-0.52745029928474585 0.76717565782423192 2.5339322728212963 198 198 196 300.987244 404.899536 7
-0.64545152542148498 0.71931817773245155 2.275019413230444 255 116 117 275.904999 408.482697 7
-0.66823352915572354 0.56366321855662105 1.7104709685349402 163 159 157 236.48999 412.065887 7
16.553347601336373 -25.631021236470243 46.36382422224905 255 155 181 519.56134 78.8299942 7
-0.38307921229980257 0.75466140686492178 1.6533766108571859 228 223 255 293.820892 465.813599 7
-0.6724693057469362 0.72285383079649601 1.2664375131269745 207 255 220 186.325439 505.228607 7
1.0593978268557578 0.52056065295467824 1.5611122644142537 163 180 255 641.389526 415.649078 7
0.15147208032830273 0.19611122630290145 1.4763609780475786 250 255 242 426.398621 340.402252 7
-0.0009124256851704704 0.2772012859243721 1.1878339430214835 255 236 236 383.400421 376.23407 7
27.744056084963447 -27.446638845785959 71.431740485971815 229 255 208 530.310852 143.327271 7
