ply
format ascii 1.0
comment Written with hapPLY (https://github.com/nmwsharp/happly)
element vertex 197
property double x
property double y
property double z
property uchar red
property uchar green
property uchar blue
property float ix
property float iy
property uchar octave
end_header
0.87892739989169788 0.34879363827801568 0.99699558941043565 194 194 255 721 424 0
0.78798757975187139 -0.095098755400973595 1.5893553044371125 48 255 22 574 265 0
-2.7730835388736161 -0.30548580280473014 4.0925255158331124 232 233 236 124 259 0
-1.9854588924294538 -0.67891394861825449 3.8308113928871221 255 204 206 187 220 0
0.67464336283851312 0.38217337323220041 1.0951187975959091 213 255 213 622 421 0
-2.4559938007166098 -1.0309573264115222 3.4891773225730041 221 223 227 112 175 0
0.76470178382872345 0.063582213744318994 0.93969799409928234 106 112 255 697 313 0
-0.3312709795725195 0.42184818474453456 0.70040465189327006 255 141 147 203 519 0
-0.41396200171827202 0.39515184707205847 0.76519143720772986 178 255 179 178 487 0
-0.3765943367028014 0.34798877371062653 0.68366957349743807 148 156 152 172 484 0
0.86221179411300386 -0.07307387333687948 0.95291154042370563 51 64 80 732 259 0
0.83253701966916438 -0.064230672641063136 0.93181400087076571 255 88 101 727 262 0
0.74703050780398661 0.24494753381340489 0.93536068267858719 255 16 34 691 388 0
0.7630231340535939 0.17499343258908817 0.92435784187183123 124 134 134 700 361 0
-0.37708153760588914 0.20801584012612814 0.5851381355154418 108 116 116 136 424 0
-0.052556584366890036 0.39337336615109286 0.61717022684207579 168 172 173 352 532 0
0.7591155883243712 -0.011523872873952734 0.93117670307239175 238 240 255 697 283 0
-0.075620419000463068 0.4054101953563396 0.61729178343680724 155 157 255 337 541 0
0.71921848080281248 -0.13456309730600702 0.90486174911368955 228 231 235 688 232 0
-0.29419871701494338 -0.039382369687772978 1.3943281417287705 168 177 188 304 277 0
0.24276463947621946 -0.58114459293239951 3.5997057490027702 59 93 255 409 226 0
0.74862925817316439 -0.15866456279973692 1.8993592149118801 132 147 155 536 256 0
1.3657447879994853 -0.19538457160554207 5.4618180742650155 66 95 255 481 274 0
0.44266266121636666 0.42803470471779476 0.68440620116913031 83 85 105 632 529 0
0.56418121099077978 0.37596070606868082 1.5015223165932876 73 90 255 529 382 0
-0.3694839160290645 -0.5481243325285422 1.4180074204956512 255 137 167 283 139 0
-0.37295501705584533 0.20412453095542391 0.5077206671229022 172 255 173 102.000008 444.000031 1
0.76516462688422604 0.15364774785659696 0.93307885840156857 255 200 201 699.600037 351.600006 1
0.11447424989524502 0.19879202482688713 0.54912162131085773 255 193 194 463.200012 427.200012 1
-0.28235843062381161 -0.26284416883124218 1.3465155347836917 255 211 219 303.600006 213.600006 1
-0.37979820546649179 0.39731989508513432 0.59206813286153925 255 113 118 139.200012 547.200012 1
-0.37101929689717661 0.16977051460772333 0.50737121168512833 255 174 180 103.200005 415.200012 1
0.18031664171662007 0.19674346967725545 0.5872521178834742 193 193 192 504.000031 417.600006 1
0.84962875141797278 -0.15522445528584289 0.94223062107400102 233 255 224 730.800049 223.200012 1
-2.680720056782496 -1.1152436578009288 3.7964246984934853 227 255 221 114.000008 174 1
0.80790686074794194 -0.012529449245945234 0.92673607838935734 125 255 110 718.800049 283.200012 1
0.78777982971520233 -0.064020441691799698 0.93972066291805911 237 239 255 705.600037 262.800018 1
0.013710538714114706 0.224967710729403 1.8417333468534647 255 26 75 387.600006 333.600006 1
0.77621289122408732 -0.19232088421695581 3.6983338810192423 108 126 255 465.600006 267.600006 1
1.37722023600795 0.17470890104108072 5.0855168428828872 57 70 88 488.400024 303.600006 1
-0.3047908575423165 -0.22966367406795751 1.351473145216296 216 229 255 297.600006 223.200012 1
-2.5320698371026982 -0.35573743289349924 3.5943387029501448 227 230 234 112.800003 249.600006 1
-0.3709458035280262 -0.54958892869289566 1.4178951678309766 255 137 167 283.200012 139.200012 1
0.68827639024233522 -0.15518188932710161 1.100546828952484 219 223 255 621.600037 235.200012 1
0.2417873229389656 -0.90009631188739037 3.517392126983601 71 104 255 409.200012 189.600006 1
0.26699625014420258 -1.0136267711432105 3.7662734275087737 255 24 61 411.600006 184.800003 1
0.7395219160337192 -0.15665219865966493 1.8673051377144256 255 132 146 535.200012 255.600006 1
1.141518803976171 -0.18138664119324729 4.4690599956528789 66 94 255 481.200012 273.600006 1
-0.19660010824848184 0.43811681734806657 0.70618210549741012 169 168 255 277.200012 525.600037 1
0.46611236094216701 0.4420219830263693 0.72394927534534359 255 98 101 631.200012 523.200012 1
0.61512649339416214 0.44495510975076358 0.84482117261951428 255 72 75 663.600037 490.800018 1
0.57228192233289732 0.36487519545283115 1.5137736513682605 74 92 255 529.200012 381.600006 1
-0.28430455564641943 -0.26758870796523071 1.3507516538064828 228 255 211 302.400024 213.12001 2
-2.7612407565904737 -2.2186913875252938 3.9797382451115331 174 255 105 118.080002 73.4400024 2
-0.3286495715484069 0.36137365250855336 0.56245022083542728 129 141 142 156.960007 532.800049 2
0.76362077273606133 -0.20182424726032694 3.5971399622134403 108 126 255 465.120026 267.839996 2
0.45854530311105141 0.43688231635074193 1.5523134555476188 121 255 71 498.240021 396.000031 2
0.13265886094415941 0.21865676751045604 0.85365696643045474 188 255 188 446.400024 384.480011 2
-0.023321527807873721 0.025020441070102761 2.3832362828250111 85 255 38 378.720001 292.320007 2
-0.21148521280520294 0.28602030442874848 0.98228725616837376 174 255 158 302.400024 398.880005 2
0.6587684558146929 0.17993176669719232 0.98897360080518726 104 127 255 637.920044 358.560028 2
-0.12616011750060291 0.2760821394847045 1.3848741595124476 156 167 173 348.480011 361.440002 2
-0.30277601888523131 0.42891335116368223 0.90715295963595 79 104 255 253.440002 469.440033 2
-0.20644101992276354 -0.071434466169743832 1.3482741958050048 103 125 255 325.440002 267.839996 2
-2.5584976556367138 -0.90696136821378259 3.8551698717570351 221 227 255 129.600006 197.280014 2
-2.7051463191574037 -0.38008736721935193 3.8311478848426304 230 234 255 113.760002 249.12001 2
-0.37674726595228658 -0.55552528784467858 1.4287253545908642 199 255 136 282.240021 138.240005 2
-2.4020410112907928 -2.1189698482631192 3.4411129790828925 124 166 255 113.760002 53.2800026 2
-2.6287935829999722 -1.6277618958509343 3.9376470686390257 189 205 255 129.600006 129.600006 2
-2.8374913129718671 -1.9260847751306085 4.0518923522603059 175 185 201 116.640007 105.120003 2
0.70670484021615776 -0.15815910047937867 1.1352605603639974 190 197 203 620.640015 234.720016 2
0.76163297216294301 -0.013952764776498913 0.93260897802570264 240 255 236 698.400024 282.240021 2
0.84962875141797278 -0.15522445528584289 0.94223062107400102 233 255 224 730.080017 223.200012 2
0.72796215281334831 -0.85122731150265896 3.7886881094854785 179 184 255 457.920013 201.600006 2
-0.39321597842796696 0.33813539857574026 0.7307295935015905 182 178 255 177.12001 465.120026 2
-0.33111227912999752 0.42158488956010204 0.70128563436012814 167 166 255 201.600006 518.400024 2
0.87092155035106833 0.34341514995292688 0.98450991476080585 255 197 198 727.200012 421.920013 2
0.4685775738495076 0.44904911873322761 0.73697235495750468 123 255 98 630.720032 522.720032 2
0.75936092790399856 -0.014843970462241896 0.93202876870949491 236 238 240 696.384094 281.664032 3
0.78705247037813031 -0.061776060628100246 0.93699797462624779 238 239 255 705.024048 264.384033 3
-2.2529021897342618 -0.55160677978756023 4.2191118321305785 255 104 112 179.712021 238.46402 3
-0.36847756532134457 0.25708698283630588 0.5736653348820302 106 117 112 136.512009 459.648041 3
-0.34124806243061478 0.23390965228643884 0.58196735803040289 180 175 255 157.248016 440.640045 3
0.81071854612334271 0.25802351164028314 0.90204847193431503 182 185 255 729.216064 400.896027 3
0.75878755132721232 0.2452677707324607 0.93028193578838592 37 255 13 698.112061 388.800049 3
-0.31300838112454232 -0.27327336299218896 1.3926767272212699 228 255 210 298.944031 212.544022 3
-2.5048172021345816 -1.0927877171953053 3.7550626233066597 255 220 222 127.872009 176.256012 3
-0.40837129221915025 -0.54327946199396626 1.436948828282703 200 255 141 274.752014 141.696014 3
-2.3439460959875755 -1.3241878385277841 3.8880177521479746 59 73 99 152.064011 157.248016 3
0.69711430908470984 -0.15892305255316952 1.1219047957877006 190 197 203 620.352051 235.008026 3
0.72084549966594436 -0.074321645656092797 0.91683219866686783 236 237 239 684.288086 257.472015 3
0.72796215281334831 -0.85122731150265896 3.7886881094854785 134 160 171 456.192047 202.176025 3
0.10679216003845932 -0.86707920337980204 3.8533099906385919 255 15 50 395.712036 202.176025 3
0.38900434252229049 -0.89532013313172176 3.5504003240927786 13 72 110 428.544037 190.080017 3
0.25089698614653988 -0.95286008884663853 3.6194632995128737 71 104 255 409.536041 188.35202 3
0.7814230063901495 -0.19394200003544079 3.7323770639199054 90 123 138 464.832031 266.11203 3
0.72899036841199094 -0.13784029800597949 1.7250174976495503 255 34 50 547.776062 257.472015 3
0.7005812908511253 -0.14403479211950973 1.7527073040848136 255 132 146 535.680054 255.744019 3
-0.19789405544768124 0.44814710000618618 0.73452220427442394 166 255 163 278.208038 523.584045 3
-0.30064244198917733 0.15453098415391042 1.1680451326491543 255 175 182 283.392029 336.960022 3
-0.30088606008792795 0.057070375867965567 1.4508760019135272 188 186 255 305.856018 304.128021 3
-0.35891914624831145 0.34134126144695476 1.3684282673028629 171 179 255 285.120026 383.616028 3
-0.14165890817774496 0.30871410155513856 1.7659617719630689 162 169 174 352.512024 354.240021 3
0.64561834159916565 0.39652883835721453 1.044165409328631 93 106 129 620.352051 430.272034 3
0.87774664034661498 0.34719682141840646 0.99205611195854293 133 131 255 725.760071 419.904053 3
0.46559350348874851 0.44214990846301183 0.72647176146418257 124 255 98 630.720032 521.856079 3
0.6854988084305178 0.33707063485587418 1.076696037401824 210 211 211 628.992065 407.808044 3
0.70028718123079048 0.071698257522109274 1.8251698986857012 128 139 255 533.952026 305.856018 3
0.54029896599356708 0.40636253371636266 1.4577093058405945 29 56 255 525.312073 392.256042 3
0.8483484855775234 -0.15475767819195396 0.94453462016781964 227 233 255 729.216064 222.912018 3
0.65911322667364647 0.39539689141622886 0.99565470708385528 80 90 108 636.595276 441.676849 4
-0.39041772229756178 -0.53366351873953199 1.4026707329928862 255 143 171 275.788849 143.078415 4
-2.4940875085511989 -2.0264695063666149 3.6037673106932888 105 134 174 116.121613 72.5760117 4
-2.5089393006950846 -1.7369446156884765 3.6231550180587706 173 183 201 116.121613 103.680016 4
0.86285761204614664 -0.060796379153181784 0.97748911475646461 105 121 255 725.760132 265.420837 4
0.8937998305296625 -0.16723821955284304 1.0050135640346003 229 234 255 725.760132 226.02243 4
0.72328570847466622 -0.15246071614509521 0.95930946410176854 255 225 228 675.993713 228.096039 4
0.68070085721178697 -0.88725907904700241 3.3778532216695027 140 167 175 460.339264 186.624023 4
-0.29944971156865674 0.40613797959724324 0.85902671172587808 66 78 99 248.832031 468.633667 4
-0.20624064275337262 0.4555643400621267 0.74524953950605621 170 255 168 282.009644 522.547302 4
-0.32400422581262833 0.43405584036754413 0.85241288053476905 58 255 23 238.464035 485.222473 4
-0.091317618755754948 0.40060303083029319 0.62422815777135221 255 169 171 327.628845 534.988892 4
-0.32987537491234309 0.4188669478483793 0.69650548775218557 167 166 255 201.139221 518.400085 4
-0.34312667458742907 0.36993283129036209 0.5831386285964959 155 153 255 157.593628 532.915283 4
0.84966090924989879 0.33123562093124026 0.94983797077772059 165 164 255 725.760132 420.940857 4
0.46627524781669066 0.44223000636677529 0.72603111188893033 123 255 98 630.374512 522.547302 4
0.17344289565742654 0.17948188002345822 0.53729145232003028 255 191 192 503.884857 416.793671 4
0.33362391132845148 0.33186913918749461 1.9212015251622951 255 28 58 447.897675 352.512054 4
0.56557116711784627 0.35459880403278521 1.4852857588500072 97 255 82 530.841675 377.395264 4
0.8483484855775234 -0.15475767819195396 0.94453462016781964 227 232 255 725.760132 221.875229 4
-2.507210373625643 -0.34615119751925794 3.5854545295093714 234 255 228 114.048019 250.90564 4
-2.652459455830467 -1.1189258127148813 3.7694070630630661 227 255 221 114.048019 174.182419 4
0.70176385602601044 -0.12346413929266957 0.99425900008401213 236 255 231 654.428223 241.367081 5
1.043356191002069 0.097204032491798487 3.8160370545645805 87 255 56 490.199097 301.086761 5
-0.21762656013152926 -0.55253609853710672 1.4151781392401475 165 198 255 325.969971 136.85762 5
-2.7744421086755882 -1.9197009002441299 3.9829966696087515 170 180 199 116.951057 102.021133 5
-0.18251753974887064 0.42656615940482284 0.69117694631913529 255 162 164 283.668518 520.05896 5
-0.3205853414827825 0.42883943672604813 0.85101519800234471 54 255 18 238.878754 482.734161 5
0.73195110421363552 -0.15859133965175973 1.8429448243727435 147 155 255 537.477173 256.296997 5
0.66847866904673658 0.40841783434675583 1.0881850199890051 135 255 96 622.080078 430.479431 5
-0.097589806665247969 0.33193340193691373 0.63420531105188827 77 90 111 328.458282 487.710785 5
-1.1824592255424142 -0.44507752377228393 2.3477535907478115 191 255 188 186.624023 211.507233 5
-2.7664789978173392 -1.1974198723989122 4.1192330980147664 226 255 220 126.904335 176.670746 5
-0.14687447368501161 -0.68472840555395353 3.823644344152644 88 117 255 365.783081 218.972198 5
0.75313354840296309 -0.18583350677814053 3.539917775492464 255 76 99 467.80423 263.761963 5
0.12502495803188726 -0.72819338520249444 3.41561919318915 255 20 54 395.642944 204.042267 5
0.71349542193797233 -0.90032136761782777 3.6102866581731972 140 167 175 460.339264 186.624023 5
0.24028030253378546 -0.91169162449792018 3.5197726496810406 21 67 101 408.084534 189.11235 5
-0.2286842970639904 0.4207640087344785 0.96099041821761322 169 173 255 293.621796 455.36261 5
-0.31803144388441007 0.39320522821888482 1.1837316612116648 255 158 169 283.668518 413.061188 5
0.79165769486312509 0.033761638404986208 1.5573951381103222 39 60 255 577.290344 296.110107 5
-0.38842699762797805 0.08593554081142725 0.72411015953425784 117 123 132 176.670746 333.434937 5
-0.38060389899108515 0.27067408234435264 0.70804087649382319 182 187 182 176.670746 435.456055 5
-2.6220625603845482 -0.52043124192291945 4.6787122729625104 89 255 49 166.717468 243.855392 5
0.71688129631435382 0.058416031095855026 1.9136328849882804 101 114 129 532.500549 301.086761 5
-0.010738928959984961 0.31956550902620073 0.78588638329488336 255 65 81 375.736359 445.409332 5
0.83647574246608358 0.44149065505313956 0.96708604655236685 255 87 100 719.124573 467.80423 5
-0.3661893315498842 0.33638221962074033 1.3874462835863268 255 163 171 283.668549 379.220032 6
-0.2957279315328849 -0.27407281416147178 1.3592150496482631 228 255 210 298.59845 212.004898 6
0.76622463414093933 -0.13249881545249959 1.7985809734154719 59 64 255 549.421143 259.78067 6
0.71191238349621777 -0.15305142742352806 1.7778908245691079 147 155 255 537.477234 256.794678 6
-0.19516310039896967 0.44147330185504086 0.72441303976543803 255 155 156 283.668549 516.575317 6
0.83395209923004066 0.2688859390781827 1.4517285876420729 255 168 170 603.168884 361.304138 6
0.65267434812811431 0.39875111435038824 1.0650594278422145 121 255 85 618.098816 429.981781 6
-0.043352008356416394 0.36551788673507746 0.62375858373255733 169 159 255 361.304138 513.589355 6
-0.54168108027733908 -0.51374472374726499 1.641691051432671 216 255 193 250.822708 167.215134 6
-0.37408205222401092 -0.60851901702502365 1.4636905284593285 195 255 129 286.65451 128.397339 6
-0.28551576826999181 0.40392560724776116 0.96233279410604522 81 92 111 268.738617 450.883667 6
-0.30744215464846469 0.38020635481147125 1.1607884952139094 255 169 175 283.668549 415.051849 6
0.13364511883435903 -0.82768180418550852 3.7809338278021984 90 255 30 394.149963 206.032928 6
0.5482935260214995 -0.77319706774169328 3.1498636449754178 255 39 74 447.897675 197.074982 6
0.23562607662821633 -1.0607625906584079 4.0898917827481265 71 104 255 409.079895 188.117035 6
-0.35048034088822477 0.43061539147957628 0.72296634456051889 166 171 168 200.060959 516.575317 6
-0.40310568069877306 0.38999523429439631 0.66807562152405597 163 255 152 158.257187 510.603363 6
0.69673339393672262 -0.11858985442061519 0.99514537285046334 233 236 255 653.930603 241.864746 6
0.44590408837351397 0.34582090568676926 2.7686583228531902 35 64 83 444.911713 334.430267 6
-2.2573760477900198 -0.57210888987598096 4.1681185498915001 255 104 113 179.159073 235.892776 6
1.0888871100812503 0.10474318579553718 3.9895712831721362 69 88 255 489.701477 301.584442 6
-0.15662698332527192 0.26063867654771994 1.341713181347608 159 165 255 337.41626 364.290131 6
-2.6437468018633341 -1.1330448569746143 3.930000769186762 223 227 255 125.411354 175.575897 7
-0.23409693487379957 -0.61679343825352384 1.5356314493241714 200 255 141 322.486359 139.74408 7
-0.30992598507242686 0.0067361972604622344 1.0844816255657364 94 107 126 272.321808 290.237701 7
0.63307948407443559 0.37886361907890792 1.0249884254055426 91 103 125 616.307251 429.981781 7
0.56820652565528063 -0.14549431252644812 2.4549745045892419 98 120 255 465.813599 265.155426 7
0.69626552571266287 -0.14516134739799996 1.7131030317784284 146 155 255 537.477234 257.989075 7
-0.40370072305421867 -0.53458039041878991 1.4263242590476874 148 174 202 272.321808 146.910446 7
-1.3207558335393681 -0.4789221187112917 2.5888071513684063 191 255 188 186.325439 211.407715 7
-0.088986771958967537 0.32387587318778899 0.61757322954456506 172 255 170 326.069519 490.895874 7
-0.02824549771918422 0.29305296142107362 0.62463037507894914 137 149 255 365.484528 465.813599 7
0.76940350964545046 -0.96831160837407737 4.4380227863699089 255 108 136 455.064056 204.241348 7
0.11856239594613638 -0.84047523888090669 3.8482756081793035 95 255 32 394.149963 207.824539 7
0.62029560146029583 -1.015951149555983 4.0098445113981818 255 39 74 447.897705 197.074982 7
0.10636801260360529 0.11375093164313363 2.4095800287921123 75 104 255 401.316345 308.153625 7
0.4331947657047977 0.41113720461880965 1.4962326258408873 122 255 75 494.479065 390.566803 7
-0.2172255106082901 0.28831988539918274 1.0074032451236898 152 164 173 304.570435 397.733154 7
-0.18405658448301732 0.28486919117477882 1.3368619721753388 172 173 255 333.235901 369.067719 7
-2.6409181756330384 -2.0394909261956622 3.7206327268176667 255 108 137 111.078629 78.8299942 7
