ply
format ascii 1.0
comment Written with hapPLY (https://github.com/nmwsharp/happly)
element vertex 74
property double x
property double y
property double z
property uchar red
property uchar green
property uchar blue
property float ix
property float iy
property uchar octave
end_header
0.52837322277891019 -0.30922347689613705 0.87175939717253126 255 226 231 619.200012 151.200012 1
0.073269907350973718 0.67577827542037694 1.089838179073916 95 255 92 410.400024 525.600037 1
0.5360686480923833 0.41023596892059744 0.61519448957765377 92 110 255 717.120056 545.76001 2
0.032886166267157568 0.68082725443550229 1.3886650296081164 34 255 0 394.560028 475.200012 2
0.51789021364260068 -0.31194493455275429 0.88096170104713867 222 229 237 612 149.76001 2
-0.18376084512204338 0.71663557767989872 3.0947869518959585 165 167 166 360 377.280029 2
-0.24571661965548808 0.74858494036958323 2.5575431127840442 226 229 255 345.600006 400.320007 2
-0.12040244089197483 0.71675027237128885 1.3823257263074771 222 220 255 349.920013 486.720032 2
-0.082152860398540639 0.7124655810722591 1.2996847346050906 39 255 16 362.880035 495.936035 3
0.50363088180589566 0.30829349662085814 0.71177999134824166 223 255 224 654.912048 454.46405 3
0.56344581458971854 -0.34991783668019538 0.67911105427643914 255 191 207 699.840088 91.5840073 3
0.40478104421746308 0.70345432225757731 1.1595807066678647 141 135 255 521.856079 520.128052 3
0.49131240428985934 0.60351404002210263 1.5630610820543369 154 170 182 504.57605 433.728027 3
0.54622668096535176 -0.20153952263181152 0.72395943524147555 224 232 240 672.192078 181.440018 3
0.53951589744008088 0.052363180236152385 0.91058517337935285 248 252 255 613.440063 312.768036 3
0.51129657160682362 -0.22186191247327702 0.7914289169686608 234 237 242 628.992065 179.712021 3
-0.37429152456073567 0.76096149461443341 1.1613507054093439 150 172 255 257.472015 540.864075 3
-0.16716839544317397 0.66872100186557049 2.850108031532848 255 170 172 359.424042 376.704041 3
0.53880834226575347 -0.32272950744886586 0.8938129241055961 230 237 255 617.932861 149.299225 4
0.52078554785855569 -0.13550706741611185 0.83484330205783142 245 246 248 624.153687 228.096039 4
-0.34954447302538316 0.71736517726730753 2.2186627314953276 225 225 255 321.408051 414.720062 4
0.51730829750445406 -0.22504335509081397 0.75631296252603697 214 227 238 644.889709 174.182419 4
-0.28187363501505747 0.77841567965105529 3.4478855670505357 190 184 173 352.512054 377.395264 4
0.038014013611627595 0.687807039181902 1.4157853394589468 13 34 255 393.98407 474.854462 4
0.55393822850726293 -0.20171980434646786 0.71827313261765191 240 255 225 682.214478 180.403229 4
0.5137277752598095 0.60999101775892361 1.6281738897107196 255 159 174 503.884857 435.456055 4
0.56340482820449522 -0.32106307345884977 0.67452932993906956 201 224 255 705.024109 101.606415 4
-0.091143060748264171 0.70178383841325376 2.4763035939161462 255 73 77 367.027252 393.98407 4
0.49314310746851886 0.30413869188687581 0.69721650309476235 255 224 224 655.25769 454.118469 4
0.20653482665049849 0.18030917194966989 2.3513877023081013 252 255 245 418.867249 321.408051 4
0.09692523364596406 0.1580206916744884 2.0253540673618149 245 249 252 400.204865 317.260834 4
20.014269021524068 -30.992424957938169 58.102681903555286 180 201 223 516.326477 82.9440155 4
0.54890083615273144 -0.32039269670020332 0.83972478590855459 234 255 214 634.521667 141.834259 5
-0.33809337022632313 0.68099675579340468 2.0672759098114719 255 172 226 323.481659 413.061188 5
0.40243388190002904 0.69726772810054483 1.1225965639965549 154 154 147 520.05896 525.035583 5
-0.17124350540450273 0.68097225490490576 2.9067124568993439 255 135 137 363.294769 378.224701 5
-0.27647797424044462 0.7204360763630544 2.4007787147772905 255 203 208 343.388214 405.596222 5
-0.19387731835485189 0.78305957265579362 2.9938954566235481 144 255 166 358.318115 390.66629 5
0.52980837486817278 -0.12974591508576605 0.67656855288836049 233 238 244 684.288086 213.995544 5
-0.45682386014588694 0.67404423346919096 2.8539383442381681 177 227 226 320.993317 375.736359 5
0.54069512427143018 0.051372518206205697 0.61739212490108919 255 244 248 719.124573 320.993317 5
0.026980679985142642 0.23801971189969962 1.6753322204056937 245 249 252 388.177979 343.388214 5
0.10562928966332596 0.17540716680631263 2.2653620050958887 245 249 252 400.619568 316.016693 5
-0.21050871268984395 0.69503927111699904 1.5422012235154527 255 220 223 331.444275 462.827606 6
-0.34235485564575718 0.75690577235687639 1.980556706709887 114 194 196 316.514374 441.92572 6
-0.26976847773716628 0.67267582807319437 2.1653454970182908 210 213 216 340.402252 406.093903 6
-0.34317012523980495 0.50580715911138485 2.0865820673156534 225 255 179 322.486328 379.220032 6
0.51218058401699085 0.73125445156765245 1.7655560877417829 255 166 177 495.673431 450.883667 6
0.070671770778594878 0.47988839821428186 1.8692622792340208 137 138 255 397.135956 382.206024 6
0.31337915430896524 0.34367609105347841 1.509208845307195 169 255 170 462.827606 376.23407 6
-0.33751957399323151 0.70924717403845516 1.9897898277732704 255 138 216 319.500336 424.009796 6
-0.13895164497620716 0.8058685545004689 1.5827108089454178 216 255 221 346.374207 483.729492 6
-0.32631961984793412 0.21380991322376808 0.93843928677209565 200 255 167 250.822708 370.262085 6
28.269771625381029 -27.975288488097739 70.664243952935237 233 255 210 534.491211 134.369308 6
0.45697017840760701 -0.26715117800319321 0.73988316864448667 237 255 224 618.098816 149.299225 6
0.3935919585721579 0.53733826324274103 1.6482189468104096 161 170 187 476.563141 412.065887 7
0.58263188301279212 0.73054393870483203 1.5345289028204814 81 95 255 537.477234 472.97998 7
0.1581981935431771 0.69040345369709355 3.7179357672364191 219 224 255 401.316345 365.484528 7
0.012911540093532237 0.21997588998563522 1.5696362524811995 252 255 245 386.983612 343.985443 7
0.11173964659956059 0.1877548649077152 2.3158612278542314 249 252 255 401.316345 318.903168 7
0.49185767505600131 0.72719166606590768 1.7062530356842087 191 255 175 494.479065 451.480896 7
0.37064293656850644 0.69956396718740654 1.6125983026907278 179 185 198 476.563141 451.480896 7
-0.10858033855906246 0.46184547188235747 1.6535066899882356 80 90 255 365.484528 390.566803 7
0.46792289621590499 0.76353846278319226 1.6048530345599925 179 255 142 498.062256 469.39679 7
-0.15706107842017936 0.69136456659453538 1.3900835564315681 227 227 225 340.402252 480.146332 7
-0.21997360033155999 0.71505145476178633 1.5913447598396191 231 228 255 333.235901 462.230438 7
0.5234819043294221 0.055287491452555404 0.8706427267875938 245 249 252 612.72406 315.319977 7
0.037861999947506719 0.47855176698034452 1.2091349280167991 102 104 255 397.733154 440.731354 7
0.50152972783137462 0.23509097886526975 0.71639533961400659 159 181 187 652.139038 415.649078 7
0.51514801025590318 0.45340036664046268 2.2657308076176559 241 241 247 476.563141 361.901337 7
0.06353056835183879 0.35592882617012533 1.4574576459461506 120 123 255 397.733154 383.400421 7
-0.27488912428045076 0.68335434651995408 1.5990287425350616 214 255 136 318.903168 455.064056 7
-0.16438138209448327 0.73995407000855185 1.4464858576647677 255 232 231 343.985443 487.312714 7
-0.1072005325100589 0.53690728793839382 2.8137560918939659 241 246 255 365.484528 361.901337 7
