ply
format ascii 1.0
comment Written with hapPLY (https://github.com/nmwsharp/happly)
element vertex 120
property double x
property double y
property double z
property uchar red
property uchar green
property uchar blue
property float ix
property float iy
property uchar octave
end_header
-0.053229267226169497 0.011744725804804054 0.98613319931311461 88 102 122 364 292 0
-1.7905684661138794 -0.60128159769807299 3.8572901190152091 194 196 255 205 226 0
-2.2923923994606139 -1.0674167691704901 3.7393687501764754 214 219 226 148 178 0
-2.3010391389778704 -0.37273513511946799 3.7508556771661254 232 234 237 148 250 0
-2.2863808309911269 -0.67035531587523545 3.7363087177415468 225 228 234 148 220 0
-2.3807442644232406 -2.5245649411103948 3.8188610852525193 126 170 255 145 34 0
-2.478791452216218 -2.6630011102213182 3.8928886829150184 255 93 125 139 25 0
0.41555492309342301 0.22782307690694772 0.67299549198717568 152 255 133 622 418 0
-2.2592779771057767 -1.3448742266499079 3.7025608822947178 189 200 215 148 148 0
-2.3418410281298248 -1.6028370608641116 3.8138439379901312 213 255 193 150 127 0
0.89646397023843805 0.40088240252792273 0.94947808555123392 44 46 65 748 451 0
0.8099745284835862 -0.89360426420164973 3.4181125798626639 255 48 101 475 186 0
0.053137880770514623 0.42036645175118925 0.80072960063483434 81 101 255 409 490 0
-2.3716537939957125 -0.28672121647810855 3.7996114338997797 236 239 255 145 259 0
1.0057827519006786 -0.18478293793503037 3.570754661644445 121 255 28 494 268 0
-2.6701201898425131 0.17244825741783196 3.9405354031173294 212 198 207 124 304 0
0.89057918150272886 0.26091906834344158 2.7562289132650371 24 78 103 508 322 0
-0.12523388251797851 -0.53154734801178383 1.3163685403621557 204 255 143 346 133 0
-2.0472492023179321 -1.9724621806825324 6.0785637127786138 219 255 194 254.400009 163.200012 1
1.4070509026463598 -0.17317276105640439 4.520701185590343 106 255 24 502.800018 272.400024 1
1.0061970540300593 -0.18543013297835523 3.5738656861813967 91 122 255 493.200012 267.600006 1
-0.039764971842120245 -0.28313730719532504 1.2112441374492044 121 146 255 369.600006 198.000015 1
-2.449128871243516 -2.3487170774595056 3.7529746586537081 131 175 255 133.200012 50.4000015 1
0.34844445472203767 -0.77776455130720112 3.4620214318311215 219 229 255 421.200012 202.800003 1
0.34970235466859612 0.19766448324837113 0.451706816178438 22 42 255 681.600037 457.200012 1
0.90370699730487536 0.08013073850466236 1.5947146309465572 67 78 94 600 307.200012 1
-2.6122151789473897 -2.284465896894655 4.0306508879214489 112 142 181 136.800003 69.1200027 2
-0.042107303399773754 -0.24817005985505997 1.22142980634948 59 108 137 368.640015 210.240005 2
0.3669608047162104 0.19988467721819475 0.68329993517421928 129 255 79 590.400024 400.320007 2
0.95495336764306094 -0.82109552241284989 3.6261663094168539 104 255 51 486.720032 203.040009 2
1.4841996186316346 -0.18449515104467396 4.8390657602470863 106 255 24 502.560028 272.160004 2
-2.306721923512729 -0.37443918137529453 3.7575209986445555 237 255 231 146.880005 250.560013 2
-2.4605792943101763 -0.37547514724423631 3.741612848423256 233 237 255 133.919998 250.560013 2
-2.2203106688061309 -1.3212539815632409 3.6339427347627322 215 255 190 146.880005 148.320007 2
-2.1947890585527983 -1.2962456292703397 3.3919489676465067 190 200 214 132.480011 141.12001 2
1.6159489931930471 0.18727026636499142 5.0157634057473581 23 79 107 508.320007 303.840027 2
-2.35563711053278 -0.75299503042468274 3.823375581421955 231 255 221 146.880005 211.680008 2
0.92475208183079194 -0.1356276044573248 1.6401607838572436 255 71 85 599.040039 256.320007 2
0.91466500922744753 -0.14713711303041493 1.0122478798529508 227 231 236 728.640015 233.280014 2
0.34916277588580485 -0.83745326971506773 3.6650859428579015 212 220 229 420.480011 203.040009 2
0.048396392680664979 -0.51583408245675255 1.2576521097990163 203 255 145 398.880005 132.480011 2
-0.047347498635833873 0.40852090807655345 0.86779637765911211 189 182 255 361.440002 469.440033 2
-0.040139777273945798 0.35886935233649303 1.0077676628619845 172 255 171 370.080017 423.360016 2
0.04844995508637695 0.42890082135390639 0.8153439398165867 63 78 98 408.960022 489.600006 2
1.0103533859669547 0.3679238633501894 1.6039293283370297 97 116 255 629.280029 375.840027 2
1.4982784772760653 0.30167541547655963 3.8777298632533346 91 255 42 534.240051 319.680023 2
0.25466389278724078 0.37772494596982231 1.8288812902062985 114 255 79 434.880005 367.200012 2
-2.9356309933803235 0.17837118829355764 4.2857803441023465 220 255 218 122.688011 302.400024 3
0.63573954363209817 0.31719713420497303 2.452138709259696 186 255 179 482.112061 335.232025 3
1.1529327023347737 0.36599743658240658 2.6506669071666153 255 41 80 547.776062 340.416046 3
-2.2179064482295456 -0.23705001979819934 3.7663704981766069 237 240 255 157.248016 262.656036 3
-0.13882847484390792 -0.507719187585429 1.2818738537728385 206 255 147 342.144043 138.240021 3
-2.497184384153345 -2.1226640100379166 3.8088007895942586 142 182 255 133.056015 72.576004 3
-2.4809123609078454 -2.3687701624936075 3.7960854931555388 130 174 255 133.056015 48.3840027 3
-2.4133746329110997 -1.6501863689169263 3.9103670196431866 213 255 192 146.88002 126.144012 3
-2.6772576972119921 -1.918439755341697 4.0558449438191015 255 168 181 131.328018 105.408012 3
0.92731991240672074 -0.12145221220688449 1.5302319609990618 34 38 45 616.896057 257.472015 3
0.95287711200265157 -0.14375689624927099 1.7117667932432936 255 70 84 599.616028 255.744019 3
0.94534473854817858 -0.15209083518615601 1.0606611291006542 231 236 255 729.216064 233.280029 3
0.34373728375673618 -0.79316556322432596 3.5728667776872003 255 211 219 419.904053 203.904022 3
-0.052113403298854166 0.41493895550893783 0.88787526719232002 189 182 255 361.152039 468.288055 3
-0.13406866949111462 0.037085816144655864 0.6243663449991218 109 255 61 302.400024 309.312042 3
1.0453129693182208 0.039704071136025441 1.5415212583583442 50 255 27 646.272034 297.216034 3
0.91452643149987289 0.080235472527207696 1.6211717688071319 101 118 255 597.888062 305.856018 3
0.99137239765171603 -0.19049292108774629 3.4581720712931245 91 122 255 493.516876 267.494446 4
-2.5593502486612945 -2.446916482412731 3.9047995359618266 96 129 174 132.710419 47.6928062 4
-2.3984355187645385 -1.1421198059850652 3.8659782389766821 255 213 218 147.225616 176.256027 4
0.35769470564989431 -0.76082148831985807 3.4443680114632023 217 222 231 420.940857 205.286423 4
-0.054973353689466098 0.41902123884097059 0.9001100813169054 184 190 183 360.806458 468.633667 4
0.94929852465479203 -0.15078749149515114 1.0636155947459756 232 236 255 725.760132 232.243225 4
-0.13322144617674714 0.03509011037796142 0.62339383881476396 112 255 76 302.745636 308.966431 4
-0.048507357847291543 -0.25795388523220558 1.2631379290985081 255 70 118 371.174438 209.433624 4
-2.5966190365773176 -1.9613636634082718 3.9956179918188051 156 174 198 136.85762 101.606415 4
0.91000684764685635 0.067706850925570911 1.6246023943534045 104 121 255 597.196899 304.819244 4
0.040827162141336415 0.38704411191617644 0.79798062010753412 100 255 75 402.278442 472.780853 4
0.94556804009234341 -0.79636819574772155 3.5523146444460063 255 42 77 487.710785 204.042267 5
0.92410834798364072 -0.89505743743242949 3.3583893314991276 115 255 26 490.199097 186.624023 5
1.0095799539784858 -0.19406108145186107 3.5807271425126506 255 28 90 495.175751 266.250275 5
-2.4317527974500397 -2.0648338101781882 3.6895637710678639 255 110 142 131.880981 72.161293 5
-2.559417936973766 -2.4450318309862529 3.9080826455595945 173 255 96 134.369293 47.2780876 5
0.060308025019135125 -0.48338525691687734 1.2377479243689562 255 153 178 403.10791 139.345947 5
-0.1171681061419626 0.30817513205439784 0.5396676939727999 255 180 184 303.575073 505.129028 5
-2.4698732932524345 -1.1712699099830215 3.9634141803807825 212 217 225 144.322586 174.182419 5
0.94887000981720426 -0.14256603924571706 1.6991022508420077 111 255 71 602.173523 256.296997 5
-1.7579906050332248 -0.6416956851382829 4.0815828039253743 216 216 255 221.46051 226.437149 5
1.0265076237948059 0.39744669260150001 1.4586303983189681 186 255 182 654.428223 390.66629 5
-0.065992952235361724 0.0097516690231130576 1.0193893226392579 255 90 103 363.294769 291.133484 5
0.029713891814075577 0.40120420473161184 0.82659057865735963 116 125 136 400.619568 470.292542 5
0.90249706031066379 0.063848626660161112 1.6039586959376679 101 119 255 597.196899 303.575073 5
0.9607652918896733 0.33809066696978562 1.4995363793299978 101 120 255 629.545044 373.248047 5
-2.5377644506847243 -0.63172954316383934 4.9892854412741166 114 255 77 186.624023 241.367081 5
-2.3784666872810529 -0.35680440786164969 3.6601206596556177 236 255 230 134.369293 248.832031 5
1.3529788331436652 0.11189929803828391 4.0444095271274039 255 22 84 515.082336 301.086761 5
-0.038492047039026533 -0.2559973563152354 1.2218994623201811 149 255 94 370.262085 206.032928 6
1.0095799539784858 -0.19406108145186107 3.5807271425126506 28 91 123 492.687439 265.752625 6
-2.6634832588033737 -1.9068055582991492 4.0388810110470992 255 166 180 131.383316 104.50946 6
-2.7522958302399312 -2.312699282903393 4.1649125554586295 255 109 141 131.383316 71.6636276 6
0.89588678744559125 -0.75256934856703828 3.398823345373398 104 255 51 486.715485 203.046951 6
0.77951707763972378 -0.86916809327662681 3.2937858352194058 125 255 63 474.771545 191.103012 6
-2.288978747299053 -1.0965606944949375 3.7015312595835224 226 255 214 146.313248 176.173096 6
-0.041615513614264188 0.35719965775575002 1.0035130607730851 172 255 173 370.262085 421.023834 6
-0.14801288431082193 -0.5108227643783948 1.3015427551393099 147 174 205 340.402252 137.355286 6
0.9399024921563528 -0.14160694975094509 1.6743739053382862 71 86 93 600.182922 256.794678 6
-0.057254599359352731 0.01323538923969934 0.97079088390588675 105 124 255 361.304138 292.626495 6
1.2528318348806198 0.47188287623255776 1.7647354586482327 255 203 204 659.902588 394.149963 6
0.89770212431386476 0.069392372025643273 1.6074966182401473 104 121 255 597.196899 304.570435 6
1.2586813672806574 0.10682322410524854 3.6331225722786464 114 255 28 510.603363 301.584442 6
0.9399024921563528 -0.14160694975094509 1.6743739053382862 89 96 255 601.974487 257.989075 7
-0.041828758247268949 0.40360890201361016 0.87409445768363958 189 182 255 361.901337 465.813599 7
0.59817133508651432 -0.84725777788480194 2.6972011541270131 87 121 255 465.813599 168.409531 7
1.0221343718582516 -0.21318606366068557 3.6252657426165067 121 255 28 494.479065 265.155426 7
0.74833373411404103 -0.27777505736483815 3.5672577581971057 105 135 255 465.813599 254.405899 7
0.93854566562366082 -0.80381662504394458 3.5629395326872952 255 56 95 483.729523 204.241348 7
0.81962454369831583 -0.85928163785662459 3.4336773169276777 57 96 128 472.97998 189.90863 7
-2.3456267339061521 -1.1032088463175198 3.7692970239874248 255 214 219 143.327271 175.575897 7
0.096295418944269962 0.40998352391562337 0.78597585239725498 88 109 255 429.981781 490.895874 7
-1.9739929803505625 -0.40149470535742104 3.8398914029423885 107 255 69 182.742264 247.239532 7
-0.033270669464512292 0.23771201271503214 1.0081179049390772 198 203 200 372.650879 379.817261 7
-0.11153109158619468 -0.574529399876891 1.3192549689394788 255 138 165 351.151794 118.244995 7
-2.6282819513553526 -0.3931567307724062 4.0399636234268792 231 233 237 132.577713 250.822708 7
