ply
format ascii 1.0
comment Written with hapPLY (https://github.com/nmwsharp/happly)
element vertex 151
property double x
property double y
property double z
property uchar red
property uchar green
property uchar blue
property float ix
property float iy
property uchar octave
end_header
-1.1931451327875462 -1.9577101713881513 5.1150132198520248 255 187 207 295 142 0
0.17483124116303728 0.57054971275911859 2.9146725434689822 218 215 255 409 364 0
-1.5755172564320961 -1.0689419798961208 2.7167742827033869 255 208 217 163 136 0
-1.4041963535476709 -0.8427759367938259 2.7453920218619516 255 217 224 187 169 0
-1.3468184723694838 -0.72926047429049601 3.0122317140886183 139 255 95 214 196 0
-0.9665512369196354 -1.5373714812175521 5.2251398143661127 255 208 221 315.600006 175.200012 1
-1.3113027228952587 -0.49406460327861657 2.5689587489406804 255 231 235 187.200012 213.600006 1
-0.71375120743535803 -0.41079854719733633 2.8883861420575894 231 255 222 290.400024 232.800003 1
-1.3496740727163457 -0.81451093407268704 2.6148080363591575 255 217 224 187.200012 169.200012 1
-1.5892553369404707 -0.91621565952783324 2.6968476344322672 219 231 255 157.200012 157.200012 1
-0.84639659392960409 -1.0824510672864334 5.344214806074147 235 241 255 321.600006 211.200012 1
-1.5753113475758007 -0.44569405565435161 2.6881235912788881 241 244 255 157.200012 225.600006 1
-1.4760160803902238 -1.688618592789199 2.6113876653773493 127 161 200 168 39.6000023 1
-0.85233677447427914 -0.95102539666778907 1.6265456958535305 174 207 255 181.200012 63.6000023 1
-1.3666850635765941 -1.3421350124677867 2.6466375492007295 255 173 193 187.200012 93.6000061 1
-1.5244331940269502 -0.037087536472626303 2.6790000659992073 245 247 255 165.600006 283.200012 1
-1.574243863066791 -0.1221774214548107 2.6769947891856556 255 245 245 159.600006 270 1
-1.5188016004696792 -0.1753948717108455 3.6718315338089296 104 129 255 225.600006 272.400024 1
-0.72569429565651911 -1.7159969147697756 4.6331707830999154 208 227 255 321.600006 145.200012 1
1.3306380093859986 -0.50094633752610884 1.8768050589639871 229 236 255 657.600037 186 1
-0.62170547188569891 0.48325011810268226 0.89162684778203571 206 204 255 113.760002 496.800018 2
-0.82266277805312571 -0.59437353546365945 2.6432345205395245 229 255 226 262.080017 201.600006 2
-1.5632462453704878 -1.4971152623557669 2.661006614815189 255 159 182 159.840012 72 2
-1.3076387744376068 -1.1629920526527846 2.5421676229223564 203 221 255 185.76001 112.320007 2
-1.3471959420343929 -1.2632915014482498 2.6008936983930409 197 218 255 185.76001 102.240005 2
-1.3389567539588407 -0.72337268315086489 2.5927433979334968 255 225 230 187.200012 181.440002 2
-1.4610533102237429 -0.23450176875381318 2.5241363312827017 255 242 243 159.840012 252.000015 2
-1.325728394931299 -0.34729744460728323 2.573505242288832 255 242 243 187.200012 237.600006 2
-1.3414751101714106 0.15628396313133835 3.4803600773035113 100 118 255 237.600006 305.279999 2
-1.2779774897478688 0.36171503557556373 2.4849239794841198 255 195 201 187.200012 345.600006 2
0.1566658728524386 0.42502039494726163 2.5727894106356168 185 203 201 408.960022 349.920013 2
-1.5335634899670971 -0.0044250336045330574 2.6335685918673555 255 245 246 159.840012 286.559998 2
-1.3945410441719122 -0.20387919435395052 2.6130745197452239 246 255 243 178.560013 257.76001 2
-0.59625504680948893 0.30666483767826003 2.6831724772734624 255 227 228 299.52002 331.200012 2
-0.86102982191365607 -0.12719108239747934 2.6266388994140364 194 196 255 257.76001 269.279999 2
-0.66935392486991052 -0.38338467486691791 2.708819749252831 231 255 222 290.880005 231.840012 2
-1.5293573248954089 -0.58279592267824076 2.6176528128688492 255 234 236 159.840012 201.600006 2
-1.6622254268069176 -0.72183130152402919 2.8673224025504815 239 255 233 158.400009 190.080002 2
-1.5695378963339612 -0.90820646932287874 2.6714419105816209 210 219 231 156.960007 156.960007 2
-1.5237528411142032 -0.29239114896568569 2.6149263188968326 245 255 241 158.400009 246.240005 2
-0.91555047484612961 -2.0795559388075344 5.6601722187869843 208 227 255 321.120026 145.440002 2
-1.5759797023156485 -1.4421698198980646 2.6882175503860504 161 185 213 156.960007 82.0800018 2
-1.520558549840044 -1.0319660162024764 2.606059043999382 228 255 208 162.720001 135.360001 2
0.91512869466307789 -0.76796048411984041 3.5445981882897106 229 234 240 480.960022 204.480011 2
0.18320475997950014 -0.71240276881415032 5.1038454516437737 125 140 146 396.000031 231.840012 2
-0.42665111675250444 0.40075634355087753 0.81766108976715568 113 141 152 184.320007 479.52002 2
-0.35709418626240019 0.45601317293064714 0.74848780808987625 48 76 73 200.160004 519.840027 2
-0.52991139188402459 0.50855045595227288 2.8468877666227161 206 215 255 313.920013 354.240021 2
0.3287293659797208 0.4908207260555536 1.1671945959253209 160 255 123 490.752045 449.280029 3
-1.5044709340229678 -0.35506749293531042 2.6094577566639958 245 255 242 162.432022 236.736023 3
-0.67278214165878403 0.37946262022880106 2.7312245996741891 189 191 193 292.032013 342.144043 3
-0.39845235172424665 0.37572441045324739 0.75935296966794597 255 113 143 183.168015 476.92804 3
-1.2724673329486791 0.35976815943597917 2.4771523161675142 208 255 193 186.624023 345.600037 3
-1.3067299529919083 0.32330287414716413 2.2543998131873635 219 255 228 162.432022 342.144043 3
-1.3878948529835911 0.27150393526217337 2.808681736972074 158 159 255 193.536011 323.136017 3
-0.94375254000164821 -0.1415597399563262 2.8152732870858168 194 196 255 257.472015 269.568024 3
-1.0867806244281031 -1.7376423200148001 4.5781403446791646 208 226 255 293.76004 143.424011 3
-0.89428633506666388 -2.0178853458741193 5.4973395819478945 208 227 255 321.40802 145.152008 3
-1.4949879242043855 -1.7157950582623225 2.6329163237869113 161 200 255 165.888016 36.288002 3
-1.515878105573877 -1.6649677186459901 2.597439701462418 128 162 201 160.70401 41.4720039 3
1.575462231033109 -0.7464027762109714 2.0618017964452786 219 225 233 680.832092 150.336014 3
-0.0011016784817452496 0.49742932294569653 0.90000210423747129 255 217 217 383.616028 502.848053 3
1.0077264033785924 0.39253860069819269 2.1888178998090719 140 255 142 558.144043 355.968048 3
-1.7478631795645772 0.40819512253227236 3.0134579340736032 225 219 255 161.740829 342.144043 4
1.0325494825623713 0.32622845297350178 2.2759474812731275 103 106 255 557.798462 344.217651 4
-1.4236335395998836 0.43796705134028224 3.0970947033764151 255 64 71 207.360031 337.996857 4
-1.2906725859272172 0.15613788155060276 3.3307327467894865 87 107 124 236.390427 304.819244 4
-0.45551239562888624 0.38314372031143706 2.3525323364301767 166 178 195 308.966431 348.364838 4
-1.428213175823613 0.27949740080940988 3.3332502878679655 128 143 255 221.875229 321.408051 4
-0.82084314581211171 -1.4109563261188183 4.7253073645423633 255 207 220 315.187256 174.182419 4
-0.67415379419832133 -0.37844562775404816 2.7172830655724165 229 255 222 290.304047 234.316833 4
-1.4977615607749541 -0.79174251487635994 2.559884991404493 255 219 225 159.667221 167.961624 4
-0.848618999445097 -1.9099824306432034 5.2400021253943203 208 227 255 321.408051 145.152023 4
-1.5106778418862383 -1.741921418191211 2.6662105628752317 161 200 255 165.888031 39.398407 4
-1.5267800951431281 -1.6754248181083258 2.6235435401607368 255 128 162 159.667221 41.4720078 4
0.18007183437201735 -0.72099713914923735 5.0391460091879408 125 140 145 396.057648 232.243225 4
-1.070777929876245 0.46919365872763152 1.2668789818559998 147 255 166 62.2080078 429.23526 4
-0.4177932475976216 0.36211506776650659 0.8443988099421067 198 206 197 192.844833 452.044861 4
-0.19557768021972177 0.47310051737746028 1.8686360702124434 104 116 137 340.070435 385.689667 4
0.12328939311381082 0.32590433538577035 0.92559950637645061 167 183 255 433.382446 418.867249 4
0.32940244606110758 0.49155262284624757 1.1688916829984377 134 158 255 493.516876 449.971252 4
1.4378656364439744 -0.54201611293655627 2.0287925231773114 255 217 227 655.25769 186.624023 4
-1.2279872874717896 -1.9741033526640726 5.2239360897877756 200 213 226 292.377655 143.078415 4
-1.0800937731861935 0.47102539872363541 3.2827532721931698 149 155 152 256.296997 343.388214 5
-1.3457700473366643 0.16508229168658034 3.453448130948229 90 109 128 236.390427 306.063416 5
-1.5288668216195909 0.3890912514930463 2.6736681995195233 187 197 255 169.20578 345.876526 5
-1.2602224770689161 0.22532268509552988 2.5620149310040619 165 255 166 194.088989 320.993317 5
-0.80379792334092803 -0.51076088621844207 2.6126040760739291 226 227 255 261.273651 216.483871 5
-0.87404422623655398 -0.63154144035823412 2.7793542602759045 255 227 229 263.761963 201.553955 5
-0.848618999445097 -1.9099824306432034 5.2400021253943203 187 208 227 320.993317 146.810898 5
-0.88128647577144781 -1.0692527129406646 5.2795856855641841 231 235 241 316.016693 209.018906 5
-0.85943322737343575 -1.4244490692097556 4.7723221482759515 220 233 255 313.528351 174.182419 5
-1.2857485197027017 -0.16298178251202194 2.6411439087698052 244 245 246 196.577301 263.761963 5
0.92015107081900016 -0.78960862441772428 3.6994871943827157 239 255 227 482.734161 204.042267 5
0.66629531107358964 -0.52035554093946035 3.7618280962837627 245 255 240 450.385986 233.902115 5
0.31349147132436084 0.45957980530477144 1.0804588121618499 255 119 132 495.175751 450.385986 5
0.57388561396820637 0.46849722818715861 0.94892783211849352 188 255 164 614.615112 477.757507 5
-0.92131120708016834 -0.13953912418861542 2.7398576382344264 205 255 194 258.785309 266.250275 5
-1.5449446458838212 -1.0528529387191914 2.6611614325603394 217 228 255 161.740829 136.85762 5
-1.2995148106812269 -1.2269589634862965 2.6614601702362868 173 195 218 196.577301 109.486099 5
1.8264519632136456 -0.85244205706901255 2.3386667351689203 225 233 255 681.799805 149.299225 5
-0.38784297980512727 0.47554881691137113 0.80964392898163129 255 60 90 199.065628 512.593994 5
-0.42234785071596437 0.42568088893045092 0.8676358943197795 115 144 156 196.577301 480.245819 5
-1.5364556477699201 -1.4254550138081594 2.6307059030847344 255 163 185 159.252502 79.6262512 5
-1.3427237530345302 -1.4689320305058311 2.5863479339088413 209 255 148 186.624023 69.6729736 5
-0.27907779286002032 0.46966051610322856 1.0077777226260332 152 255 107 278.691895 462.827576 5
-1.2219214997907937 0.52961553004025985 1.803147800863782 255 90 99 119.439377 400.619568 5
-0.40158635924478858 0.4053625980180825 2.3378988589661964 199 209 255 313.528351 350.85318 5
-0.65936584495366013 0.16195611351037875 2.7608629095989321 125 136 255 293.621796 311.040039 5
16.03801245135169 -18.950101104322904 33.22266667793307 139 173 209 564.848694 72.161293 5
-1.4709088346530499 0.37620869083409353 2.5646439939125218 184 255 159 170.201126 346.374207 6
-1.7783620338798647 0.37641293111909091 3.0058777708646991 236 224 206 152.285217 340.402252 6
-1.8144233542821806 0.32787358916105991 3.0755948848048833 193 255 196 158.257187 331.444275 6
-1.3805665094509183 -1.0162718735867373 2.6186211527140855 227 255 203 182.145065 137.355286 6
-0.20591737426314016 -0.036284565696448445 6.2410800704792413 137 255 96 370.262085 286.65451 6
-1.2233703941387941 -0.15602338016150658 2.5465818650957948 245 246 255 197.074982 262.766632 6
-1.4967277618555559 -0.28333322983932396 2.6070632356558252 243 245 255 161.243164 247.836716 6
-0.30357701203265952 0.47484540520431462 0.92367771018713452 27 255 13 262.766632 486.715485 6
0.34144287864910128 0.52624175542420226 1.2293621719279981 117 130 156 492.687439 450.883667 6
0.58571927536519919 0.47674038925495543 1.3153909056703466 133 140 255 549.421143 426.995789 6
0.58100431467872993 0.4960784112724963 0.87381099859568545 255 230 232 639.000671 501.645416 6
-1.054802658355992 -1.0799821473957611 4.0555300499297289 227 228 228 280.682556 182.145065 6
-0.19265032753996181 0.47268946700124637 1.1336560463929466 213 255 212 322.486328 453.869659 6
0.12742342831471243 -0.50810063575294784 4.5469988760890843 9 13 22 388.177979 247.836716 6
-1.2156972210582246 0.45498013358756395 1.4780128096476939 202 211 201 68.6776428 406.093903 6
-0.37659271495918611 0.3332887747972621 0.76506873433634581 206 255 206 194.088989 453.869659 6
-1.1662239035548261 0.46647884136840867 3.5199745710184906 149 155 152 256.794678 343.388214 6
1.2498295251411284 -0.71403332953571175 2.4324776788387759 255 208 221 579.281006 179.159073 6
-1.2279872874717896 -1.9741033526640726 5.2239360897877756 201 214 226 292.626495 146.313248 6
-1.001474847352283 -1.56782523749798 5.2391736324195426 219 233 255 313.528381 173.187103 6
-0.26189955239181395 0.44139929201802347 0.94528985857303161 255 112 148 283.07135 462.230438 7
-0.2873708429022015 0.45692984662731639 0.89098234877722371 34 28 255 261.572266 487.312714 7
-0.45320797194223639 0.40285369094896895 0.86261267519709106 144 255 99 182.742264 472.97998 7
-0.65134171660465334 -0.50618893135785215 2.5931482792470386 231 255 225 290.237701 214.990891 7
-1.041401893409601 -1.0871883044098618 4.0288300972295907 255 226 228 279.488159 179.159088 7
-0.4456684103644295 0.41168153639502636 1.7184466759124444 255 95 123 279.488159 376.23407 7
0.59750822287608585 0.47859668512914511 1.3286404110867798 255 90 120 551.809998 426.398621 7
1.6799927280940914 -0.80035031565440995 2.2288344149762445 219 225 233 680.804504 150.493622 7
1.6190077182978575 -0.12692345312986175 4.6158573504227514 244 244 246 512.394958 275.904999 7
-0.99572640824789893 0.44206662118858842 1.4596224973869218 101 121 255 121.828178 404.899536 7
-1.1167538023732573 0.42229925056490508 1.35764194193793 255 202 211 71.6636353 404.899536 7
-0.81645377474690362 -0.1350518374087637 2.4577343591794563 143 255 88 254.405899 265.155426 7
-0.65274854136005356 -0.37398619847067127 2.6591137863557668 224 255 222 290.237701 236.48999 7
-0.16887523868127552 0.45904119191278037 1.077921760567754 199 255 188 318.903168 455.064056 7
-0.4177932475976216 0.36211506776650659 0.8443988099421067 207 205 255 193.491806 455.064056 7
-1.3943420653628253 0.37446355418304489 2.7083075045586962 255 226 228 179.159088 343.985443 7
0.75726211717214043 0.41841537554561864 1.1806962797708831 59 255 47 634.223145 419.232239 7
0.67812786608120534 -0.55090956009149428 4.0012749263071425 255 241 242 447.897705 236.48999 7
0.72585049946922564 -0.62215828436162901 3.7271100399681449 245 255 243 458.647247 229.323624 7
-0.89966093862087382 -1.4832931052727996 4.9247224088109256 255 204 218 311.736786 171.992722 7
-1.5220119127473613 -0.28749537369956069 2.6779894006803113 241 243 245 164.826355 247.239532 7
