ply
format ascii 1.0
comment Written with hapPLY (https://github.com/nmwsharp/happly)
element vertex 173
property double x
property double y
property double z
property uchar red
property uchar green
property uchar blue
property float ix
property float iy
property uchar octave
end_header
-0.17046104390246175 0.19079332768770818 0.28676017092603956 112 255 56 154 544 0
-0.13822259451449881 0.36551202980069797 0.60956890081555437 172 255 178 298 517 0
0.81520588160802632 -0.1373312043814483 0.98529215375915657 224 229 236 700 235 0
-0.100911836463069 0.14070775180136399 1.0145828278271918 93 255 50 346 343 0
0.98671231438370366 -0.11974507445884722 1.4172689231022788 214 219 255 649 256 0
1.4909602997335756 -0.18122428586008318 5.1164452867435957 30 84 114 496 274 0
-2.3606251769934579 -0.68089365200393726 3.7907363727248913 228 233 255 145 220 0
0.75346652175888296 -0.42802384716419262 3.4603062059329859 88 125 255 469 241 0
-2.4778484372129412 -1.1162489323082612 3.7306550574108539 255 222 224 127 172 0
-2.3334328591302236 -1.3600984282731619 3.7573936343577174 188 199 214 144 148 0
-2.4217514885442042 -1.6218820042337538 3.8778848810637152 197 211 255 145 127 0
-2.4676339121024315 -2.2759653350491447 3.7730367140814911 131 174 255 133 55 0
0.94117641806313657 0.15556942385690131 1.4891235348748413 70 81 99 628 329 0
-2.5556022580356199 -0.30736297678550129 4.0061373158761331 255 234 235 139 259 0
-2.7208606451358972 0.16452768085742023 3.9603383443686218 197 206 255 121 304 0
-0.10124733710973688 -0.0335319646573577 1.222073212991863 55 87 111 352 277 0
-0.16233241151330646 0.26422105515486621 0.40624214834526251 182 175 255 229 538 0
-0.10369238258450775 0.3918602324293799 0.85816545856145632 170 178 178 336 463.200012 1
-0.0028685339362496953 0.39347749405679178 0.77515582809012784 76 88 109 380.400024 483.600006 1
0.81310841002049272 -0.068627749046602293 0.89697373031428385 239 241 255 729.600037 258 1
-2.2997443998632479 -1.3387781868830786 3.6953199463308359 214 255 189 142.800003 147.600006 1
0.93853990722478875 -0.18501936599766128 3.5457524996170973 106 255 24 486.000031 267.600006 1
-1.8451925580578061 -0.60620405558302226 3.8820714879317282 199 255 186 202.800003 229.200012 1
0.81579569188824674 0.31803519805169972 0.94695755933808479 255 78 88 715.200012 415.200012 1
0.81247965097361763 0.10370753804449417 0.8962586820829852 110 121 142 732 331.200012 1
-2.5506465692320712 -0.38645516604939567 3.8155948631216332 255 230 233 127.200005 249.600006 1
0.81599317180131981 0.38888889967149043 0.94589536708157573 255 22 28 715.200012 445.200012 1
-2.5412514698707032 -1.8632977819417469 3.8663837863457582 160 176 199 132 103.200005 1
0.90903009026231896 -0.96046301790736544 4.1588986889386135 13 22 255 469.200012 199.200012 1
-2.5192317923896272 -2.1743598038431835 3.8510797982969667 107 139 179 132 72 1
-2.6403459631346453 -1.1173437624314766 3.9331667987316292 255 223 225 127.200005 177.600006 1
-0.088909277622572724 -0.28968492507906801 1.2237509170156387 255 103 120 355.200012 199.200012 1
-2.4191581945886727 -0.76394336137651764 3.8639801566164564 224 231 255 145.200012 211.200012 1
1.5962107818698434 0.18598110553586786 5.1810245605284457 101 255 22 502.800018 303.600006 1
0.1947089793637008 0.20688238882101631 1.6382617914091711 185 194 255 429.600006 337.200012 1
0.045332550605307609 0.27107725933508714 1.3096326297568754 101 118 255 397.200012 367.200012 1
-2.2773319533899765 -0.80106278662734298 4.0464650226503167 67 84 107 168 213.600006 1
-0.1846193978163414 -0.52830052114945802 1.3139932260059692 255 144 172 331.200012 135.600006 1
0.28350508564862686 -0.75339386619883353 3.352607519255169 255 206 215 415.200012 201.600006 1
-0.0047560534497876894 0.40727236990650106 0.600408534544286 72 83 106 380.400024 547.200012 1
0.96365195060315245 0.37129448381618674 1.4041311377122472 189 190 255 645.600037 391.200012 1
-0.16801915543051116 0.23308638203347917 0.35965843238459944 123 133 130 204.480011 537.119995 2
-0.13067839500339051 0.39321818536734571 0.5980163901824288 172 177 171 300.960022 537.119995 2
-0.11609148080671705 0.40390756199312117 0.95206256318051019 255 187 193 339.840027 452.160004 2
1.4556033633310403 -0.1940355187161906 4.9873373097790408 255 34 82 495.360016 273.600006 2
0.94208798335746291 -0.18653172709553284 3.5688956492328043 78 108 255 485.280029 267.839996 2
-0.0076632297551659789 0.26638083444511917 1.0199544965018423 82 94 116 384.480011 388.800018 2
-2.2650054000031483 -1.3260778458838185 3.7782183240582086 187 199 214 152.639999 154.080002 2
-2.4136996322073996 -1.378635129884306 3.6365004977336772 190 199 213 128.160004 142.560013 2
-2.5285444529290557 -1.6876316218082972 4.0249628686852743 188 197 211 144 126.720001 2
-2.5422429215061437 -1.5385179643171529 3.8079771766977464 210 255 184 126.720001 133.919998 2
0.82007432885196696 0.10494808280161723 0.91012150275971981 255 112 123 731.52002 331.200012 2
-0.11527490750457348 -0.2540707977381611 1.2562209438423151 255 81 117 351.360016 210.240005 2
0.48961524907616943 -0.2445224078124825 3.5739444495566328 56 100 126 436.320007 262.080017 2
0.29736000044999555 0.19289831193166923 0.69115335695739044 255 82 100 551.52002 396.000031 2
0.81945737210443492 0.2246496906854456 1.5829120651679127 117 133 255 581.76001 339.840027 2
-2.689059048534487 0.15717090416528384 3.9023621639384327 255 214 204 119.520004 303.840027 2
0.34502382806806653 0.22014172016874073 0.67938234732658531 73 89 116 580.320007 414.720032 2
0.19042590766808881 0.36656486512988634 1.8107929824144025 255 178 188 423.360016 364.320007 2
-2.0796800779350493 -1.9718015560977478 6.0620827207988217 218 255 190 250.560013 164.160004 2
-2.4213211665052206 -0.25883309955020894 4.8726982237771841 255 51 69 195.840012 267.839996 2
-2.4078122477816897 -0.36066633824838967 3.6523392461473061 230 233 236 128.160004 249.12001 2
0.83920969977651583 -0.14659843608816508 1.0184518055035068 235 255 224 698.400024 233.280014 2
0.29388309400107893 -0.76560157563568254 3.4750123205605283 205 214 225 416.160004 201.600006 2
-0.16008812044791554 0.33740527758365341 0.51506133767936491 181 185 182 264.960022 541.440002 2
-0.12640462221041837 0.40694880539940792 0.74381377991887698 155 255 132 318.240021 499.680023 2
0.81247135089176736 0.39142135042168624 0.90301842406668209 255 150 160 731.52002 453.600006 2
0.8467023761691026 0.079933215991146306 1.6404584482535556 96 115 255 581.76001 303.840027 2
0.81960880325093499 0.27343818951571963 0.95714440294814618 255 90 104 715.680054 397.440002 2
0.8375374747171882 -0.10069597206959316 0.93746330718170023 236 239 255 729.216064 247.104019 3
0.22088509622827118 -0.25743462319623495 3.6207051101573455 255 236 237 411.264038 259.200012 3
1.450713403595975 0.15866241983273624 4.6382321960198531 106 255 22 502.848053 302.400024 3
0.56580147456359153 0.30404070850826614 2.382354817039118 79 104 255 473.472046 335.232025 3
-2.2914310783782228 -0.24470151262485457 3.8190883497957628 236 239 255 153.792007 264.384033 3
-0.1978319852784387 -0.50302587158549561 1.2846870356749587 147 174 204 324.864044 138.240021 3
-0.09219539764135698 -0.62334466643439745 1.360233402820443 162 196 255 357.696045 108.864014 3
0.86798113446744307 -0.14103534937123399 1.6690608398714371 162 160 255 585.792053 257.472015 3
0.87286213978276272 -0.14242060043421143 1.6856767660268572 145 153 155 584.064026 255.744019 3
0.29831380208945707 -0.76006740587409449 3.4468642587853524 205 214 225 416.448029 202.176025 3
1.332752348742873 -0.17129065254210252 4.5211658589663877 255 34 82 495.936035 273.024017 3
-0.11191321653003017 0.40268939970903989 0.88975776497034897 170 178 178 336.960022 463.104034 3
-0.098522848931152374 0.34486342135144354 1.0008657143120741 189 186 255 345.600037 419.904053 3
-0.13623949432303972 0.39709508732889842 0.60632832783541157 173 255 178 298.944031 535.680054 3
-0.13191223075141134 0.41215822274403752 0.75181461054106313 144 142 255 317.952026 499.392059 3
-0.17206718916724983 0.13991203990627327 0.31720852099912378 175 183 178 176.256012 457.920044 3
-0.19105781591467608 0.081397218256194045 0.63088642462856637 255 129 129 271.296021 338.688019 3
-0.10206394606336722 0.14164139144599655 1.0221873137853696 66 91 255 345.600037 342.144043 3
-0.16867490837586396 0.10896719977774187 0.3815272561085033 202 255 200 214.272018 397.440033 3
0.28028826733627166 0.18949510127260871 0.46063172752616266 72 82 103 620.352051 445.824036 3
0.79422247376141364 0.3761062101556123 0.88121960531739696 178 255 150 730.944092 452.736053 3
0.13912037369184166 0.32292369421528366 0.49343398201147626 174 255 171 490.752045 539.136047 3
0.84533621419081473 0.061481026018558163 1.6489323579238555 73 86 103 580.608032 302.400024 3
1.3370085003891021 0.059073279691730464 4.902473070508071 82 114 255 489.369659 288.230438 4
-0.12030968286990595 -0.26470254810771821 1.2974794928019815 96 116 140 352.512054 211.507233 4
-2.4795330444915109 -1.1600471697407111 3.9310945650206079 255 214 218 143.078415 176.256027 4
-2.4078122477816897 -0.36066633824838967 3.6523392461473061 230 233 236 128.563217 250.90564 4
-0.20374488686119729 -0.51071887440480257 1.3032744255840778 174 204 255 325.555237 138.931213 4
-2.7020498370476984 -2.2368575083444608 4.0364832541419577 179 255 109 126.489616 72.5760117 4
-2.668975579882829 -2.4965016309224408 4.0125809820303093 93 127 172 128.563217 47.6928062 4
-2.5454436031811585 -1.8830054552807269 3.8857474379843513 156 173 197 132.710419 101.606415 4
0.86351596879062786 -0.1421167201687567 1.6631446423285672 143 151 152 584.75531 257.126434 4
0.86342878247750499 -0.89912597495052116 3.3741348167824192 255 29 81 483.148865 188.697632 4
0.92809952252218086 -0.19241364537195121 3.460058383232719 78 108 255 485.222473 267.494446 4
-0.029523912867570501 0.39539919272885743 0.84369804572064822 88 110 255 373.248047 466.560059 4
-0.11774456425968094 0.40928945954304585 0.90877784689043073 255 172 179 335.923248 464.48645 4
-0.13646960073310788 0.3948857095732064 0.60346091466118712 172 255 177 298.59845 534.988892 4
-0.17465848091559821 0.11080820307225205 0.32158311755862118 188 193 189 176.256027 418.867249 4
0.30112443403927514 0.21448250299929844 0.46262623102648337 220 221 220 636.595276 466.560059 4
0.84311251016051902 0.063023817078099759 1.025161476516018 144 255 195 698.803284 315.187256 4
-0.00037978902025709305 -0.47652322812402964 1.2331426815321784 255 145 172 383.616058 138.931213 4
0.16276248561600692 0.26182163398949437 0.58115918888245799 78 97 128 492.687439 460.339264 5
-1.082649686817069 0.2432196958358763 1.9560521262578714 255 196 194 171.694107 333.434937 5
0.9399506253058012 -0.18908811551750643 3.5573140475568223 255 26 82 487.710785 266.250275 5
0.81951343069804206 -0.7313193601171063 3.2938003909357949 61 92 255 477.757507 204.042267 5
-0.19099914109314631 -0.010332229263710795 1.1327456331193271 109 125 144 316.016693 283.668518 5
-2.7194545588180294 -2.5408843474737894 4.0769141150646417 127 172 255 129.392654 47.2780876 5
-0.16710804407351298 0.11069030753844845 0.37932899476132931 205 202 255 213.995544 398.131256 5
0.84744204406042989 -0.13496779685115712 1.6017191476563168 255 139 145 587.243591 256.296997 5
-1.7728837138985076 -0.7321823339667568 3.7353555544506181 196 198 255 201.553955 209.018906 5
-2.6940751261154752 -1.2462281122590093 4.2354647015995264 217 225 255 141.834259 174.182419 5
-0.12030968286990595 -0.26470254810771821 1.2974794928019815 119 142 255 353.341492 209.018906 5
0.26081053922020181 0.23812799435650761 0.38153772904541727 106 128 255 641.986633 525.035583 5
0.41770776211090566 -0.87601123545191517 3.338102711570992 129 255 60 430.479431 189.11235 5
1.1673330446463968 0.46024713932026851 1.7467888304148278 189 192 192 644.474976 390.66629 5
-0.018653588820384481 0.35112900043297957 0.74690945992610425 89 111 255 373.248047 465.315918 5
-0.091683588782599634 0.33950344063177429 0.96934959497807593 189 186 255 345.876526 418.037811 5
-2.2590548823763337 -0.97450797522150956 5.4476924298048681 206 209 209 228.925476 218.972198 5
0.83647046464266472 0.064273160108961142 1.6226500186270272 255 64 74 579.778625 301.086761 5
0.29966815303589955 0.1821828054013781 1.6368958686289483 186 255 180 450.385986 328.458282 5
0.8834596761899931 0.32986307136780824 1.4930088434772668 98 99 119 612.126831 373.248047 5
-1.6923208743006262 -0.69712799485403243 4.2316804987146961 255 207 211 231.413788 226.437149 5
0.25013290879707661 0.37841215495447655 0.64569811891962126 182 255 178 534.988892 515.082336 5
-0.17016276091185478 0.11309049911721071 0.31515255743250453 187 192 189 176.670746 425.502777 5
0.26097710189843948 0.36054670725633697 1.1823234039560142 38 51 255 465.315918 405.596222 5
-0.18661596818526127 0.082183550780428688 0.62458177385203717 255 129 129 271.226929 338.41156 5
0.29916900833509208 -0.91106929296789396 4.1547871928722859 255 210 218 415.051849 206.032928 6
-0.1048789154809382 -0.25856851368015576 1.239333899045139 83 117 141 352.346191 209.018921 6
-0.19282861355537773 0.35158931284572659 0.62033757784052668 192 187 255 265.752625 507.617371 6
-0.20272277397266958 -0.50300764530248632 1.2947807284614343 176 205 255 325.472321 140.341278 6
-0.17068390757301743 -0.56923812450667621 1.3209870143094422 164 198 255 337.41626 122.425369 6
-0.15616358939196073 0.23218617688968177 0.51036751705286043 154 164 164 268.738617 465.813599 6
0.035324306020113605 0.3918020606255897 0.77692692680209385 147 153 157 400.121918 483.729492 6
1.1569395245039154 0.46100460086898265 1.7651518137567819 184 182 255 641.986694 391.163971 6
0.82941812101035972 0.18575213680503044 1.0078120191928361 255 181 184 695.734375 358.318146 6
0.9780056034639113 0.040087043574279661 1.5317323175830346 91 255 75 630.042725 298.59845 6
0.82250661239234646 0.06706011688900948 1.5995175876333827 255 64 74 579.281006 301.584442 6
0.67517864316461773 -0.27267370685211123 3.4936089926295821 255 41 90 459.841614 256.794678 6
0.84414896373553605 0.062019060691716831 1.0339808206047958 162 255 201 698.720398 313.528381 6
-0.028662133590569128 0.3839641472003531 0.81795895442522659 110 255 77 370.262085 465.813599 6
-0.1065610688757157 0.39706830320927244 0.88874173102503529 170 168 255 337.41626 459.841614 6
-0.11291471722156343 0.3597880576061418 1.0392863287523439 161 255 182 346.374207 418.037842 6
0.78447880975610151 0.37258971001263774 0.93452984621210611 57 80 255 701.70636 438.939728 6
-2.5213365742567517 -0.54390158297201563 4.7690554095396616 66 93 255 185.131042 244.850739 6
-0.11113974422071515 0.0074171028060057292 0.95939346184901386 121 255 88 334.430267 292.626495 6
0.9399506253058012 -0.18908811551750643 3.5573140475568223 115 255 28 486.715485 265.752625 6
0.86351596879062786 -0.1421167201687567 1.6631446423285672 162 160 255 585.252991 256.794678 6
-2.06037574687406 -1.7432672739203949 3.4511435453647228 255 140 162 155.271194 98.5374908 6
-2.8459658624376658 -2.3486663624917052 4.2502540336145795 141 180 255 125.411354 74.6496124 6
-2.6526021075754476 -0.39659761949997419 4.0245048807389123 255 230 233 131.383316 250.822708 6
-1.4436758912056042 -0.58959818318367185 3.0734598115786107 255 192 196 203.046951 209.018921 6
-2.494091035383621 -1.1338904700907266 3.761413219238309 222 224 229 128.397339 173.187103 6
-0.092621789933034715 0.33768418665422245 0.97132779128311642 255 187 192 343.985443 419.232239 7
-2.4540347822729855 -1.1290924726820539 3.8715873874415436 255 217 220 139.74408 175.575897 7
0.8414697781534537 0.057911707940421324 1.6897145067373143 46 56 70 576.892212 300.987244 7
0.033397976548718733 0.39554819976601674 0.78597500524494823 101 116 255 397.733154 483.729523 7
-1.7633910341163093 -0.35836322174622021 3.4129707167808587 104 255 61 182.742264 247.239532 7
0.91839868370283828 0.33271394658217052 1.5708248831568954 101 122 255 609.140869 372.650879 7
0.83531362484442617 0.060776676116162151 1.0160288106795403 255 144 129 695.137207 311.736786 7
-0.089249137860929917 0.22634959282346456 0.99972520005269616 255 142 149 347.568604 379.817261 7
-0.15579347678313216 0.017577972819996013 1.0958567853895167 97 119 255 333.235901 297.404083 7
0.90723749189327152 -0.19919695918975988 3.3469260582417037 255 28 86 487.312714 265.155426 7
0.84254227682732497 -0.13433742850713845 1.6075256387470029 143 151 152 584.058594 257.989075 7
-2.5161090139703344 -2.0916694418102271 3.757441352721508 142 181 255 125.411354 75.2468109 7
