ply
format ascii 1.0
comment Written with hapPLY (https://github.com/nmwsharp/happly)
element vertex 96
property double x
property double y
property double z
property uchar red
property uchar green
property uchar blue
property float ix
property float iy
property uchar octave
end_header
-2.1817474804979469 -1.4242630532900444 3.5782043660322556 192 203 217 148 136 0
-2.1783679691699582 -0.97544794472150054 3.5681063663641326 223 226 232 148 184 0
0.25396302887917799 -0.021473375935516376 1.0828494329789047 255 84 109 475 280 0
-2.047368152499276 -1.0811623822839096 3.6209347988652887 225 255 206 166 172 0
-1.9633627045386732 0.091424120970256928 4.3814843535673633 111 255 81 214 295 0
0.86467377603710915 0.43479496758545882 1.2316842878369654 212 215 214 652 424 0
0.62204306916799901 0.28854322575907743 1.2302327850173262 13 38 59 580 379 0
-2.0174583971172528 -1.5801074646953435 3.5939898008300188 194 212 255 169 121 0
1.2408305774625503 0.33507219532461652 1.4949227379506274 13 22 255 701 373 0
-1.8946509533959399 -2.099810246104469 6.533169791168163 211 224 255 273.600006 165.600006 1
-2.0443594395915619 -0.27487511612184856 3.5684874912611759 255 238 239 163.200012 259.200012 1
-1.4304981428077879 -0.2187495945788111 3.6152021794026563 255 102 110 231.600006 265.200012 1
-2.3624188501969847 -0.11167771302079549 3.9147068817238679 240 243 255 153.600006 277.200012 1
-2.2632417409316847 0.16589334710546155 3.6044845893120199 215 223 255 141.600006 303.600006 1
1.6778024354270578 0.38433026574968032 2.7121415544583667 127 255 73 622.800049 344.400024 1
-1.3994692800325659 0.27971479670944066 4.0807358400216005 151 154 255 253.200012 312 1
-2.1842725160853034 -0.88150818533807607 3.5621130728062944 255 226 228 147.600006 193.200012 1
-2.17572908830304 -0.36661544214423158 3.5687930068919496 255 235 236 151.200012 249.600006 1
-2.176593005870731 -2.3556926922508028 3.5947582748858151 255 101 134 151.200012 34.8000031 1
1.2547705968042608 -0.13129110890083451 1.5280150292389494 255 58 80 699.600037 253.200012 1
-2.3021816175756999 0.16166578533777956 3.631245986137039 215 223 255 141.12001 303.840027 2
0.25283855712403813 -0.24346882557941485 1.0822302269324782 216 224 233 472.320007 200.160004 2
-2.0541572971346866 -1.3835850022511309 3.6438513112360793 255 192 203 167.040009 142.560013 2
-1.8059556559046617 -2.014913123777085 6.0009714792670668 201 219 255 269.279999 159.840012 2
-1.4479615670709363 -0.18156794985144534 3.4691369400700429 255 50 70 223.200012 267.839996 2
-0.8539336998270437 0.37646557683398874 1.4536680400712145 255 161 174 159.840012 385.920013 2
-1.5257451860790465 -0.69889307270244738 3.7215598472894125 72 88 108 228.960007 217.440002 2
-2.0572596742138893 -1.090213557042863 3.6305332486468789 214 224 255 165.600006 171.360001 2
-2.220024400343318 -1.1431566451825825 3.6375885613787378 255 205 213 151.200012 165.600006 2
-1.9470694147640288 -0.23748161069679485 3.6173228976669769 239 242 255 177.12001 264.960022 2
-2.2883861360071118 -1.5705134677665402 3.7328818618765496 207 219 255 149.76001 126.720001 2
-2.1236584249355923 -1.802286056179381 3.5588764971987144 255 139 165 155.520004 93.6000061 2
0.26860526719108735 -0.24248582792469719 1.0793704901510972 255 213 221 479.52002 201.600006 2
0.2695419517410077 -0.28409355519381363 1.0803763980943486 229 255 209 478.080017 187.200012 2
-0.46058514418386398 0.30220252664283076 0.749266439634241 192 192 255 145.440002 442.080017 2
-0.51665293482945618 0.43626617160623948 1.3454804666374469 255 169 181 239.040009 411.840027 2
0.17067924688904812 0.076625771291068984 0.4629398760738288 56 73 255 525.600037 352.800018 2
0.17825244173526322 -0.52555825047050453 1.1502216984083167 168 184 208 444.096039 108.864014 3
-0.5240323860935221 0.30060472324033671 1.2094216037226857 90 87 255 217.728027 383.616028 3
-1.4457810067202015 -0.18448349751615958 3.4700280565726245 68 87 255 221.184021 266.11203 3
-1.4469461475588989 -0.58542667877600252 3.579893784374081 96 113 255 229.82402 226.368027 3
-2.1108781218680219 -0.93167705736725404 3.7185805039740356 255 223 227 167.616013 191.808014 3
-2.171136237394121 -1.1298838741773887 3.5816600342938822 207 215 225 152.064011 167.616013 3
-2.1924842370595634 -2.1083625935918833 3.6072805375446317 190 255 127 150.336014 63.9360046 3
-2.0093278061218554 -1.3566989021189182 3.5661738003813763 203 218 255 165.888016 141.696014 3
-2.173259428715296 -1.852890227509449 3.6381445240042165 255 139 165 155.52002 93.3120117 3
0.25718720619339031 -0.24225130739208695 1.0762597769996067 255 218 225 471.744049 200.448013 3
1.2327241660166117 -0.79106540305566764 3.3699316210218604 218 230 255 525.312073 200.448013 3
0.2496995642812343 -0.2843574705903622 1.0929639492452359 218 229 255 473.472046 188.35202 3
0.2544872837789387 -0.027540458071636034 1.1116045607829177 119 138 255 473.472046 279.936035 3
-1.3845226375290371 0.068723992569765108 3.1562314123399249 82 99 118 212.544022 295.488037 3
0.16969400947932312 0.050081573278750353 0.4612139998842324 84 94 255 525.312073 330.048035 3
-1.8842034545377451 -2.0579081156345702 6.2001058925461017 255 195 207 267.494446 161.740829 4
-0.99106416057902025 0.43893034849008106 1.8102556080550327 148 156 168 176.256027 381.54245 4
-1.5449492278794765 -0.20045302129629106 3.6605595260979253 67 87 255 221.875229 267.494446 4
-1.3282137352658134 -0.59546450073662882 3.6345445182933385 219 220 220 244.68483 226.02243 4
-2.0963802575382529 -1.1294438809554888 3.6689014152999007 213 224 255 165.888031 170.035217 4
-1.8725415201128199 -1.8410358798358601 3.4805266281419289 126 156 195 176.256027 85.0176086 4
-2.0095113628704384 -1.3508324313267686 3.7109944130251451 218 255 189 178.32962 149.299225 4
-2.1914182652487133 -1.5232875314575725 3.5900084664741869 210 220 255 149.299225 124.416016 4
1.2024642156959957 -0.77013535652861997 3.2672331061301039 206 218 230 524.62085 201.139221 4
0.25766422299234559 -0.24796881652193781 1.0970575681856798 217 224 233 472.780853 201.139221 4
-1.5128701679763807 0.075335804097961728 3.3985593919748118 99 117 255 209.433624 294.451233 4
-1.2440026408343621 -1.7164124047552816 5.3090164928813142 182 201 221 296.524841 165.888031 4
-1.4719132928332983 -0.7568580216409293 3.6368741204619046 75 92 113 228.925476 206.530594 5
-2.1228283840828879 0.10589582588351459 4.0667179290121052 234 238 243 184.135712 298.59845 5
15.192057197125214 -10.901060360446598 24.550072452180903 255 72 96 619.591797 116.951057 5
-2.2318934993495483 -1.9075393652151516 3.7120465670347706 197 255 135 154.275864 89.5795288 5
-2.1394745068568799 -2.151821306914818 3.5891796145339914 184 255 109 154.275864 54.7430496 5
1.1766603669249944 0.17284911577310325 1.4257209404162443 68 86 105 696.729675 333.434937 5
1.2561510878750124 -0.13086594348610189 1.5312510842883365 85 95 255 701.70636 253.80867 5
0.34417553758675912 -0.5192320011704219 1.117902469905306 183 208 255 505.129028 114.462738 5
1.240785242382219 -0.78433083464072506 3.3988578011368213 255 204 217 527.523926 199.065628 5
0.16714392930353794 0.048695447015481334 0.46437157487261027 255 74 82 527.523926 328.458282 5
1.2319050951257131 0.33125260310473259 1.497208149128344 255 80 95 699.218018 368.271423 5
-2.1235623941449306 -0.3533630663345953 3.5287262053012793 255 234 236 151.787537 248.832031 5
-2.0895121531900456 -1.1291343741280906 3.6486889506367191 205 213 225 164.229156 170.201126 6
1.2526820193079344 -0.12704305230620919 1.5168356400615202 85 95 255 701.70636 253.808685 6
0.26003528768617368 -0.28223389656287784 1.0923945827127282 229 255 209 474.771545 188.117035 6
-1.9847617662041763 -1.3155226886123819 3.698046121268582 255 189 203 179.159073 152.285217 6
1.2278731608715769 0.081209668204009863 1.4939133616466487 138 255 105 698.720398 313.528381 6
-1.4160104398014282 -0.70573621913779816 3.4877560937592538 114 255 71 226.93483 214.990891 6
0.98325570450484401 0.36295325434072034 1.2509846217632734 93 109 255 689.762451 403.10791 6
1.1998277727249826 0.3177832612663184 1.4545479979232898 88 255 59 698.720398 370.262085 6
-1.6396575437090615 -0.22070848274974814 3.7753831918454521 109 255 61 214.990891 265.752625 6
-2.1100673760129469 -0.35355110317422084 3.5407093001399965 255 235 237 155.271194 250.822708 6
1.4901559189764879 -0.14056548619791606 3.7188658488214648 157 174 255 537.477234 272.321808 7
0.35591301597300562 -0.50193058222294518 1.1100592757011318 182 208 255 505.228607 118.244995 7
-0.99820109108602262 -0.3295123974810853 2.8593520101453471 255 216 217 243.656357 247.239532 7
0.25919788907125085 -0.25023718637928444 1.0797574045324934 216 224 233 472.97998 200.658173 7
1.2047404198117406 0.30672129569954898 1.4762700233486721 255 81 94 695.137207 369.067719 7
-1.659728779131898 -1.6823416771376716 6.2424592100940925 255 218 222 279.488159 182.742264 7
1.914037384498928 0.15696466855978425 4.8648114296488902 101 124 255 533.894043 293.820892 7
-2.2383781946859158 -0.29843285679874576 4.9562385707028733 103 255 66 218.574081 265.155426 7
-2.8060643114057262 0.17269218415174181 4.3096299784831409 229 227 234 136.160904 300.987244 7
-1.4209236703660966 0.2122880408263294 2.5052776912696735 143 160 255 161.243179 322.486359 7
