ply
format ascii 1.0
comment Written with hapPLY (https://github.com/nmwsharp/happly)
element vertex 148
property double x
property double y
property double z
property uchar red
property uchar green
property uchar blue
property float ix
property float iy
property uchar octave
end_header
0.1661852714212359 0.43598188001775223 0.75075601316855656 180 176 255 469 511 0
0.56543642126253035 0.18236177382852711 1.0005877484920795 196 193 255 601 358 0
0.32637739059881166 0.01117687778408066 0.42920005935255989 13 22 34 676 298 0
0.4794629787947472 0.15891928498002825 1.0006215756114749 182 182 181 568 349 0
0.32207660518156445 0.16951564289409302 0.50071279056388285 255 173 174 631 418 0
0.2499896935761855 0.41399649620654427 1.4999452347431419 126 128 129 448 394 0
0.027337950222281197 0.41396043753632195 1.4997785080394794 255 48 57 391 394 0
0.14451958498541675 0.46085296022241384 1.4998761257864943 202 199 255 421 406 0
0.10134261498230418 0.38188290964921107 2.9937492307639149 61 71 255 397 337 0
-0.48819120649957815 -0.32416405491161643 1.4995643644353163 255 35 68 259 205 0
0.41690220623040652 -0.067784548997753491 1.000579931941749 121 132 142 544 262 0
-0.63031442871223686 0.45276896677743972 0.74935032231683651 130 129 255 61 520 0
-0.47409591237871118 0.31563929848058087 0.52920750345996648 64 72 86 40 517 0
0.27094065845092974 -0.0048870237447398625 0.37559260234008635 73 86 255 661 283 0
0.33384724936382815 0.32211187199769048 0.50076522853429539 199 199 197 640 535 0
-0.71074347880555555 -0.55842730894674597 1.4994265100902866 192 255 143 202 145 0
-0.68734064163091146 -0.57016477663521348 1.4994831593514775 143 163 191 208 142 0
-0.60702066729115722 0.35331000051929279 0.74949129754210875 53 73 255 73 469 0
-0.6000851362227495 0.35838372038706057 2.9925721426919911 255 9 52 307 334 0
-0.60010080211675654 0.31163126116241652 2.9926371010334947 255 13 46 307 328 0
-0.76877486131076533 0.13266727240866077 1.4984718418183136 255 146 156 187 322 0
0.33384091968962232 0.2947206181238109 0.50075568311343377 197 197 194 640 514 0
0.39351381153653031 0.42475518042844873 1.0007201594243513 255 192 195 535 451 0
0.37005656252916136 0.41693517084305498 1.0007129576859839 183 255 180 526 448 0
0.56547484298557116 0.33872620745742571 1.0006540791114389 194 192 255 601 418 0
0.54202262080396557 0.31527514639613674 1.0006558497120435 72 72 71 592 409 0
0.32640790211531168 0.13861632000881377 0.42924118661109795 122 121 113 676 412 0
0.48464582520985089 0.010385592611030441 1.0005653253157336 80 255 69 570 292 0
0.43862257073128591 0.16416443954399532 0.90070278937115933 255 69 101 571 358 0
0.015618942382331788 0.36709392922518863 1.4997823284226304 66 78 99 388 382 0
0.01561757847607502 0.33194560477140872 1.4997954548057699 181 183 182 388 373 0
0.33382340153685508 0.21646520596618138 0.50072924552575226 59 75 105 640 454 0
-0.50368422585249883 -0.0078334272352448362 1.49924488391572 255 19 33 255 286 0
-0.46467855867932861 -0.054692123186756945 1.4993582949181419 64 93 255 265 274 0
0.031123750381804823 -0.90844027062025523 2.9938233221262487 160 179 203 388 171 0
-0.43981060221079571 0.4452484554714658 0.69216003809218263 138 141 138 140 535 0
-0.47249704257664954 0.47252690765383221 0.7497498039166931 142 255 133 142 530 0
0.51954371217153295 -0.19734638923355885 1.5000799909925528 120 131 255 517 238 0
-0.38800770718380606 0.28384238817669499 0.99993670913545496 255 138 148 235 397 0
-0.67739346871219119 0.031256030594194975 0.74957288020794344 56 77 255 37 304 0
0.2182915750444295 0.24155765505108986 2.9938992294121221 136 141 150 412 319 0
-0.10358295425325081 0.39479399644432578 0.75048094796523734 255 170 170 331 490 0
-0.45986521355093629 0.33503905721180727 2.9929384204087395 53 83 255 325 331 0
-0.41311916602754523 0.3116678371158389 2.9930660326261211 255 16 47 331 328 0
-0.342967950021621 0.40520315659326123 2.9931006923964425 48 67 80 340 340 0
0.3654474769975693 0.21233323877698609 0.39198012688775935 181 255 182 742 496 0
0.32643769997903721 0.26607566288744788 0.42928139205503907 201 202 199 676 526 0
0.39686943933434127 0.26607261828410245 0.4292823622032641 255 198 195 739 526 0
0.10134308691466908 0.40526944965914202 2.993733799319799 56 69 255 397 340 0
0.49609497116902351 0.50774948793734376 1.5000001306699378 255 184 185 511 418 0
0.50780943208217666 0.47258990168715215 1.4999897437658092 53 255 50 514 409 0
-0.49986183562013398 -0.50180299346049884 1.4994016608790022 153 171 198 256 159 0
-0.3736935647779564 0.34898840659334285 0.4999823422047126 108 113 255 97 556 0
0.32640644991873025 0.1319085177978222 0.42923923216071641 179 179 174 676 406 0
0.32640214891218705 0.11513903477169016 0.42923342213941951 193 193 191 676 391 0
0.55762008674984587 0.17454522515212284 1.0005893719299956 179 255 163 598 355 0
1.0164191612147702 0.24346686768523537 1.7986459904676129 170 170 255 601 340 0
-0.48802669282087374 0.1327157034986915 1.4991498197933599 255 16 45 259 322 0
-0.46452737849652015 0.40204695601242174 1.4989640006074123 149 156 255 265 391 0
-0.1153211038008404 0.21890345727120611 0.75049789456828009 148 148 255 325 400 0
-0.097734783331185071 0.20131868414982143 0.7505211642462416 68 255 53 334 391 0
-0.4997617379222703 0.050731039331859497 1.4992019358986179 13 39 62 256 301 0
0.33202404511955635 0.3788459994317353 1.4999766441544267 182 180 255 469 385 0
0.33202202092672822 0.34368936203027028 1.4999721266663411 155 148 255 469 376 0
0.37331025270744767 -0.025711187354070787 0.42918365861429347 65 255 46 718 265 0
0.37665731670931935 -0.04583018445230156 0.42917637443348006 34 38 255 721 247 0
0.30042479472119993 -0.0058691709566903987 0.45063093082873118 49 62 77 640 283 0
0.33377157568977905 -0.014347605413296747 0.50065118140929821 38 48 66 640 277 0
0.35987057241015075 -0.12630016785785902 0.42915034374074601 211 255 189 706 175 0
0.49609793863181634 0.55071978750365269 1.500006420413555 255 190 192 511 429 0
-0.41088449113577347 0.39138751612213896 0.5999155271132719 140 142 255 121 539 0
0.46384706644870932 0.25273877482253138 1.0006602502511721 0 255 0 562 385 0
0.36222380850754349 0.26838402659435451 1.000680287070344 255 16 42 523 391 0
0.26170802934468496 0.36712498219971174 1.4999537674374059 255 151 152 451 382 0
0.12108271020620189 0.47256497572456763 1.4998546392954848 255 195 197 415 409 0
0.043000485667711738 0.23653586729038886 0.75065464152026007 207 255 208 406 409 0
0.30858746590716674 0.42572004528070895 1.4999731463001025 255 136 141 463 397 0
0.40448857052768439 0.19634681647986615 1.1255429931199477 142 255 135 522 355 0
0.28846272254908883 0.38188833520924026 2.9938560608952485 108 124 255 421 337 0
0.40541361667032888 0.40527495798606678 2.9938730060697938 89 103 123 436 340 0
0.3338000315421048 0.11083157832573756 0.50069409836643541 49 62 78 640 373 0
0.56547140953684971 0.30875711162041514 1.0006484360767072 179 178 255 601 406 0
0.32207298844032201 0.15386614599125481 0.50070715750116512 255 191 191 631 406 0
0.35018834268400101 0.012717849069289227 0.37560976198767798 70 255 38 742 301 0
0.47944260660216276 0.057289454441704711 1.00058124516087 140 143 139 568 310 0
0.47945454583718122 0.11201255455437988 1.0006049789139124 27 42 59 568 331 0
0.33378981756802661 0.067799090295250969 0.50067862271496577 35 46 66 640 340 0
0.3337880688668291 0.059975265689276344 0.50067601489893321 36 49 68 640 334 0
0.32644327068920526 0.29291107390887244 0.42928891226442689 204 192 182 676 550 0
0.36333448312099043 0.27613855013635513 0.42928675096506341 199 194 255 709 535 0
0.3338345304834181 0.26733022853446409 0.50074601857154066 53 72 99 640 493 0
0.32641439638071607 0.16544831846042241 0.42924995819593836 71 83 104 676 436 0
0.36330205440602664 0.15538458106965522 0.42924689023521445 46 66 255 709 427 0
0.32642575003529545 0.21576023985624085 0.42926524279697109 45 61 90 676 481 0
0.363318104664488 0.21575910694461345 0.42926662662118797 59 81 255 709 481 0
0.41842285871333545 0.33041964197399232 0.75081118541959768 102 255 61 598 457 0
0.33381744624058635 0.18777358724082427 0.50072033875576882 195 195 192 640 432 0
-0.63768978914484198 0.19001340030800928 0.99944399126933947 255 138 152 139 361 0
-0.60641397536834529 0.33835358368852791 0.99939421084790447 255 150 155 151 418 0
-0.60125543646267476 0.2440384994916415 0.74959081681786377 57 68 85 76 413 0
-0.59091860195555757 0.1744174548982845 0.9995751011827958 154 169 255 157 355 0
-0.038987828727193571 0.52615435125186427 2.9939513705963807 255 129 133 379 356 0
-0.10359445647669011 0.24235973226807908 0.75050777492329324 255 201 202 331 412 0
-0.1297979504355859 0.20329843007550474 0.6004576992609677 61 75 255 301 418 0
-0.066393739504319399 0.41393478131941519 1.4996703669284852 255 65 77 367 394 0
-0.76762702848959086 0.42591382447573273 1.7973577950076933 141 151 154 220 379 0
-0.45038323623272053 0.32933032260161199 0.99967700246118751 255 130 144 211 414 0
-0.19075828726160543 0.20327391488193622 0.60037698053394961 102 255 73 262 418 0
-0.17932228925776258 0.19477508559462828 2.9935984729953424 133 132 255 361 313 0
-0.00097770606036979429 0.0019782474981342541 0.18752066334615272 68 255 34 382 292 0
-0.61677920808577058 0.062437539921154903 1.4989359407676968 164 255 157 226 304 0
-0.46463225507090716 0.085870172975178391 1.4992374807794726 61 85 255 265 310 0
-0.44328188352927522 0.40034357719496821 0.74986185570619157 155 155 255 157 493 0
-0.34535201000830451 0.40476328360807068 0.60006338481161059 255 30 48 163 547 0
-0.33134676970857452 0.23602411655626676 0.60014655931362415 127 137 140 172 439 0
-0.6608863558607071 0.46316108931158967 0.99913423531078716 149 255 152 130 466 0
-0.35475605026079549 0.27038534736231684 0.60009245864378724 156 152 255 157 461 0
-0.60705505400564586 0.30648089413674684 0.74952817334875965 59 81 255 73 445 0
-0.19023348617522332 0.29058070916447559 0.50031769552676364 66 255 34 238 511 0
-0.18899992379647773 0.36560702320269728 0.5297413890506133 255 33 38 247 553 0
-0.13943459920273063 0.31341895976521933 0.50038056643723505 13 22 255 277 529 0
-0.055434159423444582 0.3923005525308218 0.81870797606990642 104 255 99 358 472 0
-0.21418944627396194 0.2829927622049857 0.60032995518841137 255 87 100 247 469 0
0.44201506446996663 -0.17921093613175701 1.2858951098303677 86 102 113 516 234 0
0.44033574592840224 -0.16158760026082 1.0005413201834232 34 46 255 553 226 0
0.43745971877230183 -0.10162046195047379 1.4999069867208559 7 18 20 496 262 0
0.46379776042062898 -0.03651642517451964 1.000561401169999 86 255 56 562 274 0
0.36219370337725276 -0.028696791332554077 1.0006125670174413 255 28 38 523 277 0
0.35543991232630645 -0.12505722767142916 1.4999447806436768 255 227 229 475 256 0
0.21828952605588811 -0.81115669368962384 2.9944479378512971 174 190 209 412 184 0
0.32635998306708536 -0.059241279995026222 0.42917649914592182 223 226 231 676 235 0
0.36323819833839338 -0.072654242140681807 0.42916840099996856 219 226 255 709 223 0
0.32636620994800225 -0.033533805087551785 0.42918494430121257 28 38 53 676 258 0
0.36325671656834829 -0.0089446533747022227 0.42919116906469612 64 81 255 709 280 0
0.57318139861515549 -0.075599057820259288 1.0004639854148556 231 232 235 604 259 0
0.50286587536713723 -0.067784266580842287 1.0005273170119919 192 196 255 577 262 0
0.32634673170246714 -0.11624200824270492 0.42915860641625375 188 198 213 676 184 0
0.3632332122712334 -0.089418926898327131 0.42916220402488164 213 222 255 709 208 0
-0.73410849807083556 -0.48809629505936203 1.4993050709036206 167 181 202 196 163 0
-0.50675685998657127 -0.17941220507565284 2.9935185928610029 255 13 56 319 265 0
-0.54663073573736853 -0.078110469891933001 1.4992272930060146 83 99 106 244 268 0
-0.039052225329239132 -0.76438093917638505 2.9945409664850953 255 174 191 379 190 0
-0.54676942207487311 -0.40616959029505884 1.4995473300360811 190 199 212 244 184 0
-0.69894840955493509 -0.40609156286314146 1.4992784116814404 206 215 255 205 184 0
-0.015658653935427556 -0.80338311812238616 2.9945716325871223 208 255 168 382 185 0
-0.61689026632321742 -0.16009389125836132 1.4991679708246999 92 255 50 226 247 0
-0.58964690544025933 0.11911959407838624 0.74970829232979397 149 255 150 82 349 0
0.3263887475653271 0.058125882714458565 0.42921531948624897 24 35 52 676 340 0
