ply
format ascii 1.0
comment Written with hapPLY (https://github.com/nmwsharp/happly)
element vertex 159
property double x
property double y
property double z
property uchar red
property uchar green
property uchar blue
property float ix
property float iy
property uchar octave
end_header
0.28850373860301226 -0.14018199826609315 1.0045806021943247 182 195 209 496 235 0
-1.8487198493460286 -0.78007804611506948 3.8275417996845746 255 184 193 199 210 0
-1.8193579362129904 -0.87474781944082691 3.3858198975776221 234 255 223 178 190 0
-1.9663165116372023 -0.5748684011616898 4.2068615553166282 112 133 255 205 235 0
-0.59792606237222579 0.29564162278554684 1.1181146922884042 181 255 177 178 388 0
-0.31588962775777563 0.38563623844726902 0.56448885500114732 59 59 255 169 550 0
-0.33402739080155208 0.40294832078146148 0.74765402556853711 168 255 153 214 496 0
-1.9842607352832657 -2.2514220193966663 3.4372278880739082 107 142 186 160 37 0
-1.915255875683834 -2.6548730308643407 3.8358844915231165 135 182 255 193 22 0
-1.8482028446777763 -1.5401423202581757 3.4149757615886633 212 255 173 178 115 0
-1.4342247677286242 -2.1806159806277434 6.4989518123727139 255 186 204 299 160 0
-0.34586144384855877 0.29086209653676032 0.51869358266760501 255 83 111 127.200005 501.600006 1
-2.0560348383949623 -1.107015729193108 3.4601939404309432 226 255 204 154.800003 163.200012 1
-1.4270142201926608 -1.5633062954482626 5.9216636805712515 223 227 234 292.800018 187.200012 1
0.29485935261508267 -0.46783231114288432 0.98442087649924859 255 168 185 499.200012 104.400002 1
-0.32398289626429944 0.29704995684718799 0.45264576191761752 192 190 255 109.200005 541.200012 1
-0.35718835468977028 0.37737432878903809 0.88825419314604614 255 200 200 231.600006 451.200012 1
-1.875268064735423 -1.9006174308836821 3.2611319094615832 255 129 157 163.200012 63.6000023 1
-2.0387225227358088 -1.046037552326093 3.4345913208307657 213 219 229 156 171.600006 1
-2.2145824242195031 -0.099274593129887595 3.7761492348271686 255 241 242 159.600006 277.200012 1
-1.8816856790311838 -0.25943029746284341 3.4019643667153208 255 240 241 171.600006 259.200012 1
-1.9543941659374711 -1.7596322541293226 3.3827907071258188 202 255 148 162 88.8000031 1
-0.62230395195948129 0.30293673499574303 1.1566062597723412 181 255 176 178.800003 387.600006 1
-2.0613898941685744 -2.306151890227075 3.5252901119400404 107 142 186 160.800003 37.2000008 1
-1.9350278165780566 -2.3649450932249927 3.4840377169481407 184 255 107 170.400009 27.6000004 1
-1.2691982753333533 -0.16625987493609856 3.2512755745136825 255 59 79 231.600006 267.600006 1
-2.462311621339567 -0.29868792498133362 5.5017665768937176 129 255 90 210.000015 267.600006 1
-1.4342247677286242 -2.1806159806277434 6.4989518123727139 222 255 185 298.800018 159.600006 1
-2.1315360391926084 -0.90523728441696116 3.577451343465031 230 235 255 153.600006 190.800003 1
0.89466237314480579 -0.5382649831678038 3.0978276645247811 255 228 233 495.600006 219.600006 1
0.37898539592030978 -0.36318183270711846 0.93272813177249914 204 220 255 537.600037 139.200012 1
0.19285461583928432 0.4516711739064812 0.69479595984809284 0 0 255 489.600006 538.559998 2
-2.2166354563895831 0.17583416195586998 3.5904341835188882 223 255 224 146.880005 303.840027 2
-1.1022763016394861 -0.54786639924823721 3.3263152064243564 224 224 255 257.76001 224.640015 2
-0.32497413897430816 0.42921679643369165 0.8262001044332874 181 255 183 234.720016 485.280029 2
0.37403269986616028 -0.2622039931565584 0.93470409586847181 230 255 210 538.559998 180 2
-0.6693922634434486 0.15206243795782615 2.2744838604776638 255 131 134 267.839996 313.920013 2
-1.2691982753333533 -0.16625987493609856 3.2512755745136825 255 59 79 231.840012 267.839996 2
-1.8458147852341922 0.099813150319842794 4.2968451011200512 126 255 85 218.880005 298.080017 2
0.099602350490876068 0.44645792161708142 1.1575400083236933 218 219 216 416.160004 436.320007 2
-1.2896051715574295 -0.72294700086616914 3.3996031882671156 88 113 255 237.600006 205.920013 2
-1.6677840416569167 -1.9913891183838239 5.8720018337091133 255 187 203 275.040009 156.960007 2
-1.4251003587031716 -2.1321158948161045 6.4377166531429468 255 185 203 299.52002 159.840012 2
-0.091890235597407388 -0.66191048576786116 4.8674554875224301 255 124 140 375.840027 234.720016 2
-1.7802256199874638 -0.92901615559443607 3.3184019567352223 222 230 255 177.12001 180 2
-1.998624223455109 -0.34771849224270956 3.3857812488374779 237 238 242 156.960007 250.560013 2
-1.8089995943847597 -1.3094238690037889 3.4761372503329735 188 203 219 184.320007 142.560013 2
-2.1052460763029908 -1.5262542168628452 3.5401516284395615 206 212 222 156.960007 120.960007 2
0.37609872345625872 -0.22914532710527957 0.93125978755509475 220 232 255 537.119995 192.960007 2
0.37866367436245141 -0.013932166899396449 0.93178532658492474 158 255 62 538.559998 282.240021 2
0.26770396494008608 0.3800164128324145 0.66962965250414097 0 0 255 537.119995 505.440033 2
0.88815729651391506 -0.53825599571187799 3.1216289074650123 238 255 228 494.208038 219.456024 3
0.37588283183430526 -0.26963011524528108 0.93901514796905827 255 211 219 539.136047 177.984024 3
-0.60313755584753004 0.31911826760796874 1.1467698591396946 200 191 255 181.440018 392.256042 3
0.10087732652881876 0.44928854516788047 1.6781068671468722 203 255 198 406.080048 390.528046 3
-1.5611471198044624 0.088943799650356259 3.6392473863794059 255 88 105 219.456024 297.216034 3
-1.3100144172469537 -0.73553485527511586 3.4552486580926205 68 88 113 236.736023 205.632019 3
-1.1763038129829226 -0.44278703155176852 3.5248193935273289 255 219 220 255.744019 240.192017 3
-2.021536155897202 -0.9523011662838462 3.4114448567619524 226 233 255 153.792007 181.440018 3
-1.7805552158550206 -0.22248473670406071 3.4419390912411654 244 255 241 186.624023 264.384033 3
-2.0322209587291393 -2.0741844410393915 3.448606132513746 151 191 255 157.248016 57.0240059 3
-2.0338552869071527 -1.7523909244706046 3.4289703443146746 172 203 255 157.248016 93.3120117 3
0.16336351149723105 -0.44349759871084504 3.7284811716603823 141 163 255 397.440033 240.192017 3
0.36968453811462765 -0.017180236732141273 0.8953481668316905 255 59 129 539.136047 281.664032 3
0.30273682759323406 -0.50666103161923826 1.0034372916569878 209 255 166 502.848053 93.3120117 3
-0.16231148318474875 0.44678149910053788 1.226010922489988 73 89 255 333.504028 432.000031 3
-0.16936070692916605 0.45161653598882923 0.78004357057393325 36 53 67 300.672028 513.216064 3
-0.33540553366823289 0.30331128291428755 0.46355462972661332 255 173 177 107.136009 540.864075 3
-0.37400749477127593 0.33121825462856264 0.56059253980584056 111 255 69 126.144012 514.944031 3
-0.30016729619816673 0.41009365086749899 1.3365112299878055 255 182 184 295.488037 406.080048 3
-1.2604533921061281 -1.8794345757607664 5.7404781747092271 222 255 186 298.944031 160.70401 3
-1.6677840416569167 -1.9913891183838239 5.8720018337091133 221 255 190 274.752014 157.248016 3
1.1236134359942913 0.0772187375952334 2.2478744220301321 105 114 136 572.31366 302.745636 4
-1.3675966540042057 -0.18446252008116265 3.4494116392273604 55 74 94 232.243225 267.494446 4
-0.0039186166656299815 0.3909137969734422 2.6842371333002104 255 166 177 383.616058 346.29126 4
-2.0288725086011343 0.4503193172285852 4.7629136807226011 255 27 38 223.948837 325.555237 4
0.093475781839817751 0.50988331621714356 1.3234669850531646 217 255 221 414.720062 437.529663 4
-1.6112334937775343 -1.7350635067378708 6.458939826440262 222 227 234 292.377655 186.624023 4
-0.077893431287050285 -0.64808548521575271 4.8037464025622496 255 124 140 375.321655 234.316833 4
-1.998624223455109 -0.34771849224270956 3.3857812488374779 255 237 238 159.667221 250.90564 4
-1.7209165688189834 -1.8069300934339465 3.3258534246787002 197 255 127 182.476822 78.796814 4
-1.9680353830640103 -2.1007471576349848 3.4099227041468816 148 190 255 161.740829 51.8400078 4
-1.7968065754696849 -1.290543646192718 3.4663764927170022 192 205 221 184.55043 145.152023 4
-2.0330627111704609 -1.4899398742016638 3.4308447975463876 212 222 255 157.593628 120.268814 4
0.42799551712517447 -0.86938082612769096 4.6993504327180515 237 255 225 418.867249 213.580826 4
0.37956020649616595 -0.2304364336181437 0.9324717931608606 220 232 255 541.209656 192.844833 4
-0.31107682943350401 0.38046589342489112 1.041762802058855 215 213 255 265.420837 427.161652 4
-0.37986851977340197 0.44034758225252163 1.0647184215730165 200 202 200 248.832031 447.897675 4
-0.17220515576904227 0.45626057496907846 1.2543766735862061 255 61 68 331.776062 431.308868 4
-0.31018832323132539 0.42269092523408675 0.69997378403755905 127 137 255 213.580826 520.473694 4
-1.2550831528240085 0.25148484595337628 3.9762909407905482 255 131 134 267.494446 313.113647 4
-0.23361715452250209 0.44574851216228872 2.8103037020674555 202 201 197 352.512054 350.438446 4
-0.18498313784201526 0.43956340581150677 1.3371719583505717 97 118 255 329.702454 414.720062 4
1.0540953078029778 0.33121308807737793 2.1457224751543249 105 124 153 576.460876 348.364838 4
-1.2422439512561532 0.36089619260368105 1.8490463698547677 73 71 255 129.392654 358.318115 5
-0.22213690063103986 0.46766440356408656 2.2216387286437023 203 207 190 348.364838 370.759735 5
1.7433947330991888 0.13144093758268369 3.6418440944037842 107 116 137 572.31366 301.086761 5
-1.9157458270923806 -1.09316944036978 3.4730027685636369 227 255 206 174.182419 166.717468 5
-2.0294362195433506 -1.109781502167472 3.4450841165722701 209 216 227 156.764175 166.717468 5
0.37995182292571794 -0.017131519977175283 0.92881821620278227 156 255 53 542.453857 281.180206 5
0.47960433221191801 -0.47444560601354691 0.9594671754804347 202 255 133 574.802002 94.5561752 5
-2.0246499805773124 -1.8188197956831649 3.4936964948866569 168 200 255 161.740829 84.60289 5
0.3847744958261694 -0.23280308908317759 0.93760252799566812 232 255 211 542.453857 191.600662 5
-0.31166147861196025 0.41193232592770074 0.78932181059352424 177 173 255 233.902115 482.734161 5
17.432325044978295 -12.450333220915667 27.891532662187984 255 163 185 619.591797 116.951057 5
-1.1712209804142666 -0.57458832398969084 3.4544394825585925 223 224 224 256.296997 223.948837 5
-0.31890613360717945 0.30217299493274541 0.61045638826657256 192 193 255 181.647385 477.757507 5
-0.38428921310863307 0.31664526917056807 0.57064830287944934 127 255 84 126.904335 500.152405 5
-0.16519012374433117 0.44428509622593215 0.76465463407233258 35 38 255 301.086761 510.105682 5
-1.9814250018126649 -0.33878202676191732 3.3921371372129405 255 236 238 159.252502 248.832031 5
-1.1076687692805711 -0.41850077933372454 3.3721348500191688 218 220 220 256.296997 241.367081 5
-0.4392439238891499 0.38098799378010301 1.0270664962122733 92 106 124 216.483871 427.991089 5
-0.0085549197761933815 0.44739168363119247 1.1445188994160738 219 217 213 380.713013 435.456055 5
-0.1757510287603028 0.45507413095597482 1.2638898376740717 86 106 255 333.434937 427.991089 5
-0.2294184557923522 0.40664217696524696 2.7519480140891606 204 255 209 350.85318 348.364838 5
-0.20291269444938376 0.47152517835684304 1.499211284933101 123 255 99 330.946594 410.572845 5
1.2172093917208697 -0.81324194547216988 3.0476194911175494 211 220 232 540.463196 191.103012 6
-1.9070292486647866 -1.0907811173809678 3.4525621199126335 216 227 255 173.187103 167.215134 6
0.47066090887655143 -0.48855246360855842 0.94738810129574991 165 202 255 573.309021 95.551506 6
-1.6305081659930716 -1.9347232300251629 5.7500082214713526 223 255 195 274.710571 161.243164 6
0.40549313347650373 -0.6347254600610257 1.0587066966942913 119 153 195 528.519287 62.705677 6
-0.27500270148677708 0.40205434216902214 0.69506795947553934 179 255 186 226.93483 507.617371 6
-0.31967329279495948 0.41358643520172456 0.80722066597045772 176 185 177 232.906799 483.729492 6
-0.32174876432392363 0.30400919437454965 0.55432942865783441 140 156 255 161.243164 498.659424 6
-0.31044637643121287 0.29603637050302811 0.59301998625477914 194 255 193 182.145065 480.7435 6
0.11341252811429126 0.46563676022550476 0.8065191365911959 12 255 0 438.939728 513.589355 6
-1.1758415257726194 -0.16923985494733601 2.9739340778788637 83 104 255 229.920807 265.752625 6
-2.0602976741835262 -1.862263857300732 3.5337236835220196 166 200 255 161.243164 83.6075668 6
-0.17684234097780593 0.45856393020064856 0.7993585184520311 35 38 255 301.584442 510.603363 6
-1.779566014164514 -1.8941971372203577 6.9914023359317019 221 226 234 292.626495 185.131042 6
0.1036680952386283 0.45304080520988566 1.2550683851918485 255 218 218 415.051849 429.981781 6
-0.33758136015029661 0.38316482716384187 0.84561063468107722 199 200 201 232.906799 459.841614 6
-0.46356892447752873 0.37590600714393591 1.0517621565725128 109 127 255 217.976868 426.995789 6
-1.4589703031430838 -0.35244499015354441 7.0823853550980624 255 77 92 307.556396 274.710571 6
-0.20367094920975326 0.51325131904461907 1.2911044633084656 42 58 255 325.472321 441.92572 6
-0.49710006401851814 0.32448317370989876 0.64726395780460688 195 192 255 89.5795364 483.729492 6
0.19458509617218489 -0.58926903729012214 4.7793659623393774 142 165 255 397.135956 241.864746 6
-1.8067351011755366 0.11064828820708675 4.0963538832471222 115 255 85 214.990891 301.584442 6
0.22760913427649598 -0.16854804638242896 1.0916779013048585 242 255 239 458.647247 229.323624 7
-1.5223075748063675 -2.1450299116652483 6.6430665803380515 205 223 255 297.404083 164.826355 7
0.47696070598522733 -0.48230715882692987 0.96043783068654354 166 203 255 573.309082 96.745903 7
0.28113600054627153 -0.49186901334342426 0.99764708402865243 208 255 163 498.062256 93.1627197 7
-0.17720905335698767 0.45914593603782089 0.80218828343714299 30 46 54 300.987244 505.228607 7
-0.28917639347025692 0.38854297798786347 0.75421275700108126 176 185 177 232.906799 483.729523 7
-0.38767252390909301 0.31682738722573578 0.57433941893079776 111 124 255 125.411354 501.645416 7
-1.4286393380182134 -0.21126719021973028 3.4676864835466743 83 104 255 229.323624 265.155426 7
-1.207585779319603 -0.41537725476663456 3.5756208016675353 220 255 220 254.405899 243.656357 7
-1.2905454097077897 -0.70688359075483764 3.384105753881141 65 86 111 236.48999 207.824539 7
-0.32038369228928376 0.30230651567313094 0.60236425973742602 255 192 192 179.159088 480.146332 7
0.36447967479322385 0.031695809542815506 0.68263289383667991 144 255 99 594.808167 300.987244 7
-2.0213184870818917 -0.49528520248564456 4.3482039527439831 255 93 109 207.824539 240.073166 7
-1.9304384814377329 -0.33402076150970855 3.3524921629831361 239 242 255 161.243179 250.822708 7
-0.32351036230670105 0.38959218423434616 0.92542443680454656 255 200 202 247.239532 447.897705 7
-0.34566850120072612 0.41426697859057626 1.158311667093108 209 210 209 268.738617 426.398621 7
-0.18330487387590311 0.46553358086461138 1.3283234065326497 86 106 255 333.235901 426.398621 7
0.22626485774428973 -0.0665347401544788 1.1561444276896877 255 242 243 451.480896 265.155426 7
-0.2689282328103173 0.35855189048021319 1.4267329274310796 132 148 60 308.153625 379.817261 7
-0.33935171382047447 0.48583036498835896 3.3161923211405222 255 213 213 347.568604 347.568604 7
-2.5457322503232929 0.17256958531721212 4.0188750681227772 255 234 236 143.327271 300.987244 7
