ply
format ascii 1.0
comment Written with hapPLY (https://github.com/nmwsharp/happly)
element vertex 153
property double x
property double y
property double z
property uchar red
property uchar green
property uchar blue
property float ix
property float iy
property uchar octave
end_header
-1.3983747428454052 -0.84547519745617428 2.7208164614961561 255 217 224 187 169 0
-0.87557792259329492 -1.508493084467152 5.0615072724520491 208 221 233 316 175 0
0.70878540671940204 -0.57361583190547361 4.0614870681045794 255 239 241 451.200012 231.600006 1
0.37865591888932748 -0.72926260365507733 4.7503015754284128 255 135 156 415.200012 229.200012 1
0.18392336628800354 -0.72389551968306887 5.0831655288869948 255 160 172 399.600006 231.600006 1
-1.3050635171362353 -0.49613156201765185 2.5458605831221646 255 231 235 187.200012 213.600006 1
-1.5232321603820616 -0.58501641065480947 2.593757311396558 236 240 255 157.200012 201.600006 1
-1.6049026568689637 -0.30708202143703422 2.7205315225230624 242 245 255 157.200012 244.800003 1
-1.3456919778575398 -0.98320008961746708 2.5774853390207411 215 227 255 181.200012 141.600006 1
-1.5833355069888504 -0.91871679394081041 2.6716030176525618 219 231 255 157.200012 156 1
-1.5366723483900184 -1.2808325737508803 2.6169939789195702 198 218 255 157.200012 99.6000061 1
-0.59018392343968307 0.30409697014270809 2.6645495394898044 229 255 229 298.800018 332.400024 1
-0.96617650852818837 -1.5491763275453989 5.1989517801396854 234 255 208 314.400024 175.200012 1
-0.73294002048932594 -0.3144387167757422 2.8864621694302537 220 219 255 289.200012 247.200012 1
-0.18152975026280749 -0.057878791984856487 5.989722713859126 138 255 96 370.800018 283.200012 1
-0.25636623974199813 0.45875033703170981 0.7156653246496707 60 87 81 244.800003 534 1
-1.3327922889418264 -0.72552200865839911 2.568747007913383 236 255 222 182.880005 177.12001 2
-1.3435666522940783 -0.81673911544864042 2.5904551274588568 255 216 224 187.200012 168.480011 2
1.5725346786739138 -0.61006715733052064 4.8052215129324152 238 241 245 508.320007 240.480011 2
-1.4546902772853763 -0.23639028909384235 2.5016626561756024 255 242 243 159.840012 252.000015 2
-1.5693249387774291 -0.44816797755450222 2.6646289333408388 255 239 241 159.840012 223.200012 2
0.33810323739465797 0.49369076533832051 1.151263173055173 255 122 135 495.360016 452.160004 2
-0.91825027203346421 0.3359158162365381 1.9495791115244621 255 224 226 203.040009 351.360016 2
-1.3194825275343511 -1.1133355159899794 2.5496052543658716 255 188 204 187.200012 120.960007 2
-1.5274141833990065 -0.0067070941815439711 2.6117776555222596 255 245 245 159.840012 286.559998 2
-1.3883678570430464 -0.20610021939540807 2.5908561158053049 246 255 243 178.560013 257.76001 2
-0.66340818216747843 -0.38603366858365007 2.6875161614345688 223 224 225 288 234.720016 2
-1.3147791996525751 -0.651377641702235 2.530766380786778 234 239 255 185.76001 190.080002 2
-1.6566552646764716 -0.72494877098379862 2.8426285280547647 239 255 233 158.400009 190.080002 2
-1.5635622276085099 -0.91061696554081184 2.6462695298992474 210 219 231 156.960007 155.520004 2
-1.1250369323705485 -1.8961801972671997 5.1690549026149535 189 209 227 300.960022 148.320007 2
-1.5700945152615575 -1.4446373494938087 2.6610795316247722 163 186 213 156.960007 79.2000046 2
-1.4699895643226313 -1.6908146207547941 2.5835662782139872 160 200 255 165.600006 34.5600014 2
-1.5448837085069749 -0.99280402655020783 2.6198035674314397 255 210 218 159.840012 141.12001 2
-0.83637340545860006 0.45646234730711466 1.14082530703763 255 39 57 103.680008 439.200012 2
-0.61173278634664907 0.48723116894776697 0.87361031798227851 196 199 193 116.640007 502.560028 2
-0.52417484895148725 0.50537567937775618 2.8291449897593788 255 224 227 315.360016 357.120026 2
-1.6006675096957559 0.21589560917531769 2.6288268736355587 152 153 255 149.76001 316.800018 2
1.4475637377659141 -0.74932464655682607 2.0341367796056025 193 211 228 656.640076 148.608017 3
0.18092982815712055 -0.73225304190577745 5.0184284701653743 255 160 172 399.16803 231.552017 3
-1.4077737328029469 -1.1808265213423474 2.5457800677561488 255 199 209 171.072021 110.59201 3
-1.3411038607585106 -1.2654661022121583 2.5749060866637543 179 197 218 184.896011 100.224007 3
-1.3371455825203036 0.15088517974756294 3.4595651718653269 90 109 127 236.736023 304.128021 3
-1.382097513665431 0.26856414628861774 2.7882133968176626 163 163 255 193.536011 324.864044 3
-0.81937243701008633 -1.4209512739011307 4.6999016679153973 233 255 207 314.496033 174.528015 3
-0.85487951225289072 -0.1295205040498445 2.6058569590072969 192 195 255 257.472015 269.568024 3
-1.3315663499937349 -0.57696428104348385 2.5641151951952637 239 255 230 186.624023 202.176025 3
-1.2264852451917334 -0.17766484398252574 2.348871930242896 255 243 244 183.168015 260.92804 3
-1.36059732258795 -0.2926536302239709 2.6013797176079074 242 245 255 181.440018 243.648026 3
-1.5175923390485808 -0.29460422706203382 2.5921043579245802 245 255 240 158.976013 243.648026 3
-1.2276536127615145 -1.985872305262629 5.195585278254633 205 225 255 293.76004 139.968018 3
-0.91617386686162039 -2.0929525878614732 5.6321092196398528 208 227 255 321.40802 145.152008 3
-1.4890107873127199 -1.7180675087773016 2.6049542991248091 160 200 255 165.888016 34.5600052 3
-1.5098188630917058 -1.6671085741661646 2.5696184842622203 201 255 128 158.976013 39.7440033 3
-0.40837795594355586 0.42367937811331252 2.2840295200097249 218 255 192 314.496033 355.968048 3
0.61322337634557078 0.49387467044144373 1.1969131280632226 84 103 115 580.608032 447.552032 3
1.5423968674919355 13.842442117444524 32.544987690032904 255 156 174 399.16803 452.736053 3
1.0395015365126841 0.32497065838557204 2.2609299174082302 186 194 255 561.600037 343.87204 3
-1.4184444448310285 0.43397603202902857 3.0771546872591395 255 55 57 207.360031 337.996857 4
-1.5227645580043356 0.38665949988481679 2.6533253003108994 159 176 255 165.888031 348.364838 4
0.13317074110851146 0.32968085622135268 0.90862227023117681 255 167 176 439.603271 427.161652 4
-1.2997260144845586 0.32237952615462012 2.2343017079594132 204 194 255 161.740829 344.217651 4
-1.2860188391069847 0.15128036909384207 3.3100487662412617 90 109 127 236.390427 304.819244 4
-0.65089315818939486 -0.50716096337295657 2.5929633984486187 229 255 227 286.15683 213.580826 4
-0.93801240337741554 -0.14456940042790956 2.7942578387143158 192 195 255 257.126434 269.568024 4
-0.66822588581365228 -0.38112505960316029 2.6959870494717104 223 224 225 288.230438 234.316833 4
-1.5471199784971339 -0.4472847283805752 2.6373630642511356 255 239 241 159.667221 223.948837 4
-1.3791620622065826 -0.8252007039304875 2.6290916906287261 215 223 233 184.55043 167.961624 4
-0.89455054640102816 -2.0306896491874165 5.4695495339679825 208 227 255 321.408051 145.152023 4
-1.5304441885000988 -1.4277167951114695 2.6037151556115461 185 212 255 157.593628 78.796814 4
-1.520778473544989 -1.6776598102769158 2.5956602401493494 255 128 161 159.667221 39.398407 4
-1.3493380640832711 -1.0381198232899003 2.5967214138098731 227 255 202 182.476822 134.784012 4
-1.5389614131124509 -1.055227585147074 2.6355137942798854 255 209 217 159.667221 134.784012 4
-1.3649421465284566 -1.2741774542483875 2.5992928864686289 218 255 178 182.476822 99.532814 4
0.78910499111739751 -0.67097042246637462 3.4998739794389593 235 237 243 472.780853 215.654434 4
0.37783936295403686 -0.64073210993126262 4.1973223010194181 176 255 133 414.720062 230.169632 4
-0.37688955642907951 0.33627209354790288 0.75155261178560195 198 203 202 192.844833 462.412872 4
-0.38820435391576047 0.38016518230210505 0.74142851907527607 111 141 153 180.403229 485.222473 4
-0.36354761339317765 0.39126067646305929 2.0530066633292159 255 215 219 315.187256 356.659241 4
-1.4785485586768594 0.18479565018227756 1.897691922969607 183 101 105 80.8704147 327.628845 4
0.33877271125957664 0.49441638155619722 1.1529643785283734 132 158 255 497.664062 454.118469 4
1.4452644895507247 -0.54240915921048327 2.0114824022008393 231 238 255 661.478516 186.624023 4
-1.0850233925325754 -1.7470681857171155 4.5509656280258071 198 212 225 292.377655 141.004822 4
-1.2538954091513301 0.22327071002121329 2.5416567475638909 157 255 166 194.088989 320.993317 5
-1.3413812796523561 0.15978227032404174 3.4326763160592586 89 109 126 236.390427 303.575073 5
0.55853200620947874 -0.36822465870682364 3.2854197268829903 243 245 255 445.409332 246.343719 5
0.66994139820556908 -0.5269978892199092 3.7429092181438097 245 255 238 450.385986 231.413788 5
-1.075304589661668 0.46631810895975395 3.2636769719790877 136 140 132 256.296997 340.899902 5
0.29296415458908998 0.49382608832230379 1.2837883274553339 219 255 219 470.292542 435.456055 5
0.23863644938018691 0.46167466859840023 1.2674530983078651 225 220 255 457.850952 427.991089 5
-1.7424950420491654 0.40454539598160794 2.992707143374405 219 199 255 161.740829 343.388214 5
-1.7729806152040055 0.37279445273741652 2.9849447895817276 176 177 182 156.764175 333.434937 5
-1.279632288053115 -0.16531755322663527 2.6193105145367359 244 245 246 196.577301 263.761963 5
-0.88098251474461087 -1.0812689844095771 5.2552928348800139 232 236 241 316.016693 206.530594 5
-0.85806571188216552 -1.4346115274546114 4.7467830754123304 218 233 255 313.528351 171.694107 5
-1.3744877365084736 -1.0185092647285645 2.5934638603380078 214 227 255 181.647385 134.369293 5
0.1997397117949431 0.43544796913424277 0.68907365999633297 255 219 220 495.175751 525.035583 5
-0.84831453862740647 -1.9218519906965041 5.2127077422229453 187 207 226 320.993317 144.322586 5
0.59398279505932028 0.48911960818423161 0.84244256062064338 233 255 233 654.428223 505.129028 5
-0.64669413521941932 -0.37645541637016566 2.6378809868000905 223 224 225 288.645172 233.902115 5
0.32305023169905223 0.46276870038398804 1.0643809679483152 122 136 162 500.152405 455.36261 5
1.833146711409573 -0.85400795467580759 2.3210614761037043 224 233 255 689.264709 146.810898 5
-0.40773094129763288 0.36624723911214463 0.82638193315140418 208 209 208 196.577301 460.339264 5
0.7474486618096513 0.46198123367671728 3.9763584096239004 155 161 169 460.339264 330.946594 5
-1.2276536127615145 -1.985872305262629 5.195585278254633 206 225 255 293.621796 141.834259 5
-1.2069971430740192 0.45688331108538449 1.458600271640599 255 205 213 59.7196922 409.079895 6
-1.4905493596345099 -0.28552058616161141 2.5843330234093935 243 245 255 161.243164 247.836716 6
-0.37045743361289518 0.029462010271070926 5.6167519599893456 139 255 98 358.318146 283.668549 6
0.58372979397747637 0.47213829128245827 0.93344813349073918 150 156 255 621.084778 483.729492 6
0.35068554820493469 0.52888297294941888 1.213587198561501 140 167 255 501.645416 456.855652 6
0.59101410772340746 0.49999303113376681 0.85844821082221756 233 255 233 650.944641 507.617371 6
1.3663855144411725 -0.80799029133914235 2.2385712351664369 230 255 209 618.098816 149.299225 6
-0.64515772014281847 -0.5084163439491618 2.5714359512789291 228 255 227 286.65451 212.004898 6
-1.0518459476726925 -1.0875059929486153 4.0308329732781942 227 228 228 280.682556 182.145065 6
-0.27740021051707231 0.46087688654714748 0.8735942507570571 255 21 45 259.78067 495.673431 6
-0.15930990501693643 0.46229208436298219 1.0607965119532219 213 255 212 322.486328 459.841614 6
-0.91540743675731084 -0.14227563969219115 2.7188988944146169 157 162 168 256.794678 265.752625 6
-0.64322642442629352 -0.36438438922127564 2.6094998632102842 225 255 224 286.65451 235.892776 6
-1.3883166882314155 0.37189060548375524 2.688202393812555 228 227 255 185.131042 343.388214 6
-1.4645716767136783 0.37416912652955431 2.5443806120003361 219 199 255 161.243164 343.388214 6
-0.29172569993855024 0.49417655895747081 1.0841115609513459 191 180 255 277.696564 459.841614 6
0.4190239522530006 0.35042606599240439 1.3358509730306025 162 255 135 510.603363 391.163971 6
1.4329660267230586 -0.81329229204509601 2.0863433405202709 191 207 225 644.972656 134.369308 6
-0.40773094129763288 0.36624723911214463 0.82638193315140418 205 204 255 197.074982 462.827606 6
-1.1619492130411921 0.46091405558288556 3.5006928365509458 138 144 140 256.794678 343.388214 6
-1.336481506750435 0.14908969888252421 3.3997153920191323 100 118 137 232.906799 304.570435 6
-0.28950962627399646 0.48829516526595518 2.4852226330385299 234 235 235 340.402252 364.290131 6
1.2641887830423089 -0.72180001618121681 2.4674805586513791 221 233 255 585.252991 173.187103 6
-1.1974445026449243 -1.9306859565646715 5.0963970233462481 200 213 225 292.626495 143.327255 6
-1.0011335462201494 -1.579677350588135 5.212798477485781 219 233 255 313.528381 173.187103 6
1.6208401506161421 -0.13679366619362593 4.6004335327930015 247 247 248 512.394958 272.321808 7
-1.0383880661142597 -1.0946159897901491 4.0041359689781615 255 227 228 279.488159 179.159088 7
0.68125177014891891 -0.55842807102143877 3.9822678616430167 255 241 242 451.480896 232.906799 7
0.12936997391651595 -0.5175536246079937 4.5269497680586781 104 255 50 390.566803 247.239532 7
-0.8099382255093821 -0.13676880621957438 2.4370218273244455 138 255 85 254.405899 265.155426 7
0.5050549692928048 0.40408973974498014 1.5734313382759386 128 146 160 512.394958 390.566803 7
-0.43749572046702312 0.4126221595629756 1.7005426424037711 255 64 88 283.07135 379.817261 7
1.6869311874093067 -0.80149916458855119 2.2111031038295104 218 225 233 684.387695 150.493622 7
0.5407597029557597 0.55408424099014297 1.401886709014502 126 131 255 537.477234 437.148163 7
-0.98698828852282716 0.44401305111587225 1.4406396836671442 118 255 88 118.244995 408.482697 7
-1.1077963364333177 0.42463173519391462 1.3383254948794989 205 214 206 68.080452 412.065887 7
-0.29367540048528351 0.4786746093706562 0.90631966993393842 28 24 255 261.572266 494.479065 7
-0.2520482784577307 0.44514518155832461 0.92789971424294393 255 116 149 279.488159 465.813599 7
0.030454001261750019 0.13444244370527117 4.8534321740563344 255 109 128 383.400421 300.987244 7
-0.90454809247583423 0.31609378270673238 3.746376325889063 160 255 163 290.237701 315.319977 7
-1.2384843678922945 0.15920229608176167 3.1633354373688913 100 118 137 232.906799 304.570435 7
-1.8091979004441296 0.32400459114687075 3.0544057148790795 177 181 255 157.659988 333.235901 7
-0.36636146055109986 0.33770655252858528 0.74703651623661838 171 177 255 193.491806 465.813599 7
1.3765600208693531 -0.82332428440654959 2.2847874758268323 210 219 230 616.307251 150.493622 7
1.2563362959571782 -0.7158799666645258 2.4141276831109062 208 221 234 584.058594 175.575897 7
-0.97816460369502733 -2.0543722179999584 5.7121848054904509 227 255 190 318.903168 150.493622 7
-1.2811623960124874 -0.17905951751528831 2.6280050832705877 245 246 255 197.074982 261.572266 7
-0.20759454138599942 -0.051895402959126202 6.222017579771161 118 137 255 369.067719 286.654541 7
