ply
format ascii 1.0
comment Written with hapPLY (https://github.com/nmwsharp/happly)
element vertex 95
property double x
property double y
property double z
property uchar red
property uchar green
property uchar blue
property float ix
property float iy
property uchar octave
end_header
-1.6926881240278489 -0.51610110416614163 3.1666880564316715 244 255 240 178 226 0
-0.93081770287755106 0.25436740896558113 1.7148389557671582 255 222 223 175 346 0
1.2252510857667436 0.60285974153902866 1.6589218808920547 104 104 255 669.600037 427.200012 1
-0.93261676155552253 0.25253626664841783 1.7081124318509078 255 190 194 175.200012 345.600006 1
-0.63362466102590886 -1.5901257834651386 4.0602867022163247 160 255 108 326.400024 138 1
1.1693776601432944 -0.69733898985611464 1.7884388801434872 209 226 255 637.200012 136.800003 1
0.17101342396588448 0.66947207396282882 3.3030663491408045 160 155 255 405.600006 367.200012 1
0.92434127266217803 -0.4245145821789591 1.9680496360250492 224 232 240 564 205.200012 1
1.3890371573743185 -0.24068247200329329 1.5503829643090814 159 179 255 725.76001 228.960007 2
1.2312193067330499 0.48733163341452401 1.5727416176874716 85 106 255 685.440002 407.52002 2
-0.47907006824201748 -0.030505351592732377 0.90527878428408481 245 245 247 180 276.480011 2
-0.3886614861711859 -0.046777409021165312 0.81881316348300359 109 134 255 201.600006 264.960022 2
0.155927131456296 0.035893738836649397 5.0887407188192579 174 255 140 394.560028 288 2
1.3593784515312208 -0.10714012745255413 1.5350825136915454 104 160 187 724.320007 262.080017 2
0.68360964737277419 0.55874237965805595 2.7739461151670461 185 255 151 478.080017 365.76001 2
-0.2837645266937554 -0.3849613002313037 0.85862675694907775 79 102 255 257.76001 115.200005 2
-0.27332885080142466 -0.14921883003819814 0.86383305540003263 66 90 115 260.640015 221.76001 2
0.84019106392806231 -0.64665418013528508 3.1737890636005561 237 242 255 485.280029 211.680008 2
-0.91551625316657548 0.21810893475884857 1.1248943554077098 136 142 153 72 362.880005 2
-0.95697041525479287 -0.60505082224070006 1.2791455659143418 228 228 255 93.6000061 105.120003 2
-0.91152351146385113 0.24764650402966998 1.6628324987164245 202 255 193 174.528015 345.600037 3
0.2743212771578194 0.5358596366138132 1.9251274358678874 125 141 255 437.184052 392.256042 3
-0.41468982078772632 -0.10333553696956743 0.87741112036607039 102 113 137 200.448013 240.192017 3
0.3906715673696195 0.3392730751433316 3.5690211775970031 146 255 103 426.81604 321.40802 3
-0.45144993452280069 -1.8349285118969849 3.5026419455553857 255 68 97 331.776031 84.6720047 3
-0.30117608993309952 -0.40187256038281483 0.90900450600612626 79 102 255 257.472015 115.776009 3
-0.90233771548622954 0.42418184993470248 1.0208613114274394 255 78 82 43.2000046 447.552032 3
1.2057973844928318 0.47556037536973311 1.5298277005024978 73 85 106 684.288086 407.808044 3
1.2630251606810559 0.3476564834443458 1.4246342375471057 122 145 255 725.760071 381.888031 3
0.53599065902571352 0.58784389743373278 3.5846645254988152 255 59 109 443.750458 352.512054 4
-0.87983639830755589 0.50459455519863139 1.0347824591739747 255 26 26 55.9872093 472.780853 4
-0.89527706407322105 0.21527776689970884 1.086677965594661 163 255 155 70.5024109 364.953644 4
1.4199518651906675 -0.24276287624365583 1.6129351822295854 255 163 188 723.686523 230.169632 4
-0.52013874473044197 -1.3878655408802301 3.3293483258968299 97 121 255 321.408051 128.563217 4
0.15145526526293951 0.54200360627085287 3.5071973580635749 160 255 159 402.278442 348.364838 4
0.53782280036206842 -0.57090618700348505 3.4800043857326113 105 137 255 445.824066 223.948837 4
0.76276367796608024 -0.3043286758565007 2.7197908333202054 243 246 255 489.369659 248.832031 4
-0.085459435352274848 0.5657918291514733 0.86394023542661058 148 255 99 346.29126 534.988892 4
1.1968833636079323 0.4744197462923202 1.5214764613497147 47 56 76 684.288086 408.499268 4
-0.47453860585566421 -0.062087837590634409 1.0590430569196778 104 132 255 213.580826 267.494446 4
1.2116651340652811 0.59145925415626976 1.6480267207206873 104 104 255 669.772888 427.161652 4
-0.16739290118873829 0.42272157349542661 0.90689318538272712 255 39 72 315.187256 468.633667 4
1.1636430553919912 0.38015589423101631 1.7991969107021077 122 137 164 632.448059 369.100861 4
-0.91157701688685089 0.42983627762844068 1.0335797141587544 255 78 82 43.5456047 447.897675 4
0.28581542749373101 0.47655344426459606 2.8390726807949953 109 134 157 420.526154 348.364838 5
0.27397968097000724 0.30970216985087068 3.2858245644280313 193 255 154 418.037811 320.993317 5
1.0429469655518679 0.5464652505256723 1.9087442610069107 163 163 158 592.220215 395.642944 5
1.2081904625352844 0.4989754728953919 1.9376930094084592 255 183 189 619.591797 390.66629 5
1.1005562936786599 -0.40817650796957872 2.0474214019025521 227 234 241 584.75531 211.507233 5
0.97327169492007481 -0.31912586068927024 2.5107957482468102 245 255 238 530.012207 238.878754 5
1.1677095058547513 0.40885248293630627 1.5487286871165971 255 127 145 671.846497 390.66629 5
1.1585966973085393 -0.61139285299057089 1.7423750300162224 216 230 255 637.01001 149.299225 5
0.53251030410015066 -0.50438250294850229 3.2200028413914747 255 41 104 447.897675 223.948837 5
-0.28158213960396639 0.52382791782543148 0.84653279970529649 255 28 52 251.320358 525.035583 5
-0.25762857153018315 -0.04233593527641083 0.71834277775917332 255 111 129 251.320358 266.250275 5
-0.48663655195617039 -1.8887986298816308 3.6671852580243112 118 140 255 333.434937 87.0912094 5
0.76391233410842085 -0.61218301346265269 2.9923061770783983 237 242 255 485.222473 211.507233 5
-0.35576800058226166 0.29480179844811272 0.89878671338615002 255 221 222 231.413788 418.037811 5
0.13994106987576238 0.017814517326876389 5.4173971595255512 182 255 177 390.66629 288.645172 5
0.12488208499248254 0.47643812005374786 2.2197888449413172 160 155 255 405.596222 368.271423 5
-0.95936412595268372 0.25693938394477489 1.7525230362986468 226 255 220 170.201126 346.374207 6
1.192679062438458 -0.66567968601360394 1.8401655835102604 206 217 230 636.014709 149.299225 6
0.99334348228159297 -0.33437409914490202 2.5670765939927334 238 241 245 528.519287 238.878769 6
0.72107671000556017 -0.30216306089573719 2.553785091718292 243 246 255 489.701477 244.850739 6
0.938628581114483 -0.52904180830212288 2.6556253698820189 255 229 235 519.56134 212.004898 6
0.74023621703957931 -0.58188482181468515 2.8299349785248342 255 234 237 483.729492 212.004898 6
-0.28405403367663773 -0.28736228867959068 0.98496471639489336 90 255 59 274.710571 170.201126 6
1.200135792620963 0.47355910173914301 1.520453939634729 255 22 28 683.790466 409.079895 6
-0.91534436768579042 0.22036947266964829 1.1154053429572715 164 170 175 68.6776428 364.290131 6
-0.28158165867295848 -0.38467514800637903 0.85096511164309785 45 78 102 256.794678 116.4534 6
-0.87374856564872605 0.4911981008428542 1.0143174417884779 17 17 9 56.7337074 468.799591 6
-0.11306171885987326 0.035294041283297939 2.4147645525794195 255 99 120 367.276093 298.59845 6
-0.40184525177576269 -0.10355453138879378 0.84530768778132925 255 91 108 203.046951 244.850739 6
1.1466452648978041 0.37720386546309859 1.7459019181890687 144 174 255 633.028748 370.262085 6
-0.18364860023868945 0.38925625653942481 1.125663502890224 40 63 83 316.514374 421.023834 6
0.15036255887764272 0.55320810021992406 2.6445270847273008 155 255 150 406.093903 370.262085 6
-0.24662741245081321 0.46415392440920533 1.047685054051128 60 81 255 293.820892 465.813599 7
-0.5503429598961036 -1.4061521177452807 3.3395260932925321 255 70 97 315.319977 128.994537 7
-0.24126805586808864 -0.39113376511167042 0.85526713865723103 255 46 77 275.904999 118.244995 7
-0.3031672465309736 -0.40761606247213733 0.9273457635302691 101 255 42 254.405899 118.244995 7
-0.6110184933582179 -1.0565153479381104 3.9669308888687151 162 255 115 326.069519 182.742264 7
0.27595423901993121 0.29459142913954162 3.2203753772487804 255 152 171 419.232239 318.903168 7
0.14095377534777209 0.029151340831805539 5.1507310753538817 182 255 177 390.566803 290.237701 7
1.1517554426928096 -0.65087792214452356 1.7419730146154597 231 255 210 634.223145 150.493622 7
1.2969898845626249 -0.65457816991660467 1.7657734763200237 232 255 214 666.471802 143.327271 7
-0.15950268544038959 0.043613064986051081 2.960893098180982 119 141 255 365.484528 297.404083 7
0.33725431288948493 0.51985562527453266 0.93753036252365973 255 183 188 523.144531 498.062256 7
1.1135846069614823 0.51684146758002281 1.962333140398985 174 255 130 598.391357 386.983612 7
-0.21219780178573133 0.25928643778795035 0.82562236774810138 255 40 67 279.488159 404.899536 7
-0.34918675242296482 0.28581342036652385 0.86575905682280219 231 232 255 229.323624 415.649078 7
-0.95936412595268372 0.25693938394477489 1.7525230362986468 217 218 223 168.409531 347.568604 7
30.859325110729859 -30.908148978775429 60.523740896689695 156 185 215 576.892212 93.1627197 7
0.97333770461916269 -0.33841590126767307 2.5704325351351747 245 255 239 530.310852 236.48999 7
0.79710333002477451 -0.65347899818211608 3.2416919845442287 235 238 243 480.146332 214.990891 7
-0.31726237609740071 -0.19952888971017196 1.1170372592930358 72 87 103 272.321808 218.574081 7
