ply
format ascii 1.0
comment Written with hapPLY (https://github.com/nmwsharp/happly)
element vertex 151
property double x
property double y
property double z
property uchar red
property uchar green
property uchar blue
property float ix
property float iy
property uchar octave
end_header
-0.018162077912379893 0.43518499671875399 0.69995328194766926 218 255 220 374 526 0
-1.7964057622128142 -1.5686828571924256 3.1240734592153001 255 166 189 163 94 0
-1.575315775743408 -0.32301134218535221 3.0364921490174828 255 239 241 187 247 0
-1.7449545538052131 -0.32653216760314796 3.0364004364156831 255 241 243 163 247 0
0.5243910243292097 -0.58641399139862938 4.3625214697324308 242 255 232 430 238 0
-0.014381914042393529 0.4032943439895586 2.90614118745418 214 255 203 382 340 0
-1.7379269563350905 -0.029208979086913334 3.0367921447456228 247 255 245 166 283 0
0.74312632257976663 -0.79567275456176412 3.9151604211748063 240 243 255 457.200012 211.200012 1
0.15545096135710734 0.47519844815629841 0.69185125390348179 255 79 85 471.600006 552 1
-1.5058039122627052 -0.83937999674811903 2.9477112116295698 255 225 230 187.200012 181.200012 1
-1.7849441667140669 -0.86809790565120526 3.0984126844719895 255 228 232 163.200012 180 1
-1.4791465577761191 -0.90423300344488411 2.9108425495256802 255 217 224 187.200012 169.200012 1
-1.7499921033148524 -0.94161716898071512 3.0422887157827896 255 219 226 163.200012 169.200012 1
-1.921472449605222 -0.64069180466720965 3.7154621284962461 255 231 236 187.200012 219.600006 1
-1.007488633156298 -1.4563246595380939 5.1182602170471023 223 235 255 309.600006 181.200012 1
-1.1681497340038325 -2.2097870986352528 6.3145655199094071 255 193 211 315.600006 153.600006 1
-1.4982482620277708 0.1266655959185905 3.7972579985860033 255 106 123 231.600006 301.200012 1
-1.5456733640692977 -1.0747820543843141 3.0099106577811847 206 217 229 188.400009 151.200012 1
-1.7062641016370397 -1.068764962469692 2.9845777912705516 218 230 255 165.600006 151.200012 1
-1.7145494488426221 -1.3105936500176107 3.0033302327961819 212 218 228 164.400009 121.200005 1
-0.74565604026096377 0.27702995385705942 2.9786335883475168 143 154 255 285.600006 324 1
-1.503327898466829 -1.8626937472089242 2.897535195304235 201 255 126 186 43.2000008 1
-1.5935936586556689 -1.8994615914083908 2.8916486184619261 255 125 160 171.600006 37.2000008 1
-1.6353844502771007 -2.0390627647785697 2.9468298828606332 255 124 157 171.600006 24 1
-1.6869576916342663 -0.31994283006739388 2.960781827490659 255 241 243 163.200012 247.200012 1
-1.7766382912815857 -0.48174606742037662 3.0858360144602766 240 241 244 164.400009 229.200012 1
-1.6875870156633495 -0.063666687886385437 3.0194279137851887 245 247 255 169.200012 279.600006 1
-1.5730622238737495 -0.23223301295824922 2.9807034596193303 244 246 255 181.200012 258 1
-1.5026717919398331 -0.74657156110090239 3.3320460640337073 255 187 196 211.200012 201.600006 1
-0.94400270395716523 -1.0528704174255303 5.3515290351783369 241 255 229 314.400024 213.600006 1
-0.9381168091032368 -0.34496893866754658 3.3482235492941745 228 228 255 277.200012 248.400009 1
-0.48481401415393521 0.34652757160323966 0.55465317689219451 130 146 255 49.2000008 529.200012 1
0.010072971584207391 0.40854028844659035 1.1278773212535766 224 221 218 388.800018 426.000031 1
-1.2759149525122195 -1.7783665284790799 4.98587304437961 225 228 255 285.600006 148.800003 1
1.5170921209031669 -0.83708023666376818 2.6232621118001118 232 255 203 606.240051 167.040009 2
-1.618265930569172 -0.260089089470598 2.8589936522700232 243 245 255 165.600006 253.440002 2
-1.4857111562093275 -0.37195819800688312 2.9160266951054328 243 245 255 185.76001 237.600006 2
-0.98125188434222421 -0.70972530979263504 2.9825256582519089 168 255 103 254.880005 195.840012 2
0.010661588778078102 -0.75200346626831349 5.4493477466491829 160 171 171 384.480011 234.720016 2
-0.11862442317371324 0.33052153285438096 0.62981516156069972 255 223 223 311.040009 491.040009 2
-1.5583217151494262 -1.0210263396070849 3.0086415944047986 218 230 255 185.76001 156.960007 2
-1.747064171715544 -1.0298118502985334 3.038557570238297 209 220 230 164.160004 156.960007 2
-1.5045693046179838 -0.68035652293968396 2.9316751824813458 234 239 255 185.76001 198.720001 2
-1.618456498668384 0.25388056563124495 3.7183413977397901 112 129 255 217.440002 313.920013 2
-1.5148388990623816 -1.2920310560640049 2.9552997921474593 203 221 255 185.76001 120.960007 2
-1.7361683499969138 -1.5305399991862068 3.0238676726326523 214 255 164 162.720001 93.6000061 2
-1.4894442980576201 0.2973683571103356 2.6238648968782297 212 203 192 168.480011 331.200012 2
0.00068199061673879235 0.31274620140802589 2.5075904578498687 159 170 173 384.480011 334.080017 2
-1.0448283331056296 -0.15296271616452106 3.0102969079781516 118 255 80 250.560013 267.839996 2
-0.81562876375138194 -0.4029262471230679 3.0017452138415521 228 228 255 277.920013 239.040009 2
-1.6849505281762664 -1.7619933284901701 3.0203105090045024 255 143 173 171.360001 63.3600006 2
-1.7012435286130581 -2.0383441864287981 2.9996230630078062 125 158 199 164.160004 27.3600006 2
-0.028163695671165279 0.3125655979799305 0.68979843890299164 220 222 220 368.640015 463.680023 2
-0.77228830823137162 0.37757029051926339 1.0466941626406567 105 131 142 100.800003 426.240021 2
0.01244843513225069 0.43668485590230177 1.2100113832409609 224 221 218 388.800018 426.240021 2
-1.351980140572385 -1.965299015093648 5.7124681544505078 255 194 212 295.200012 154.080002 2
-1.5769334316006853 -0.32649352699519396 3.0349006235622444 245 255 239 186.624023 248.832031 3
-1.6965141827171739 -0.46772487235835125 2.9737366307757713 240 241 244 164.160019 228.096024 3
-0.72082365676811611 0.26925027943187763 2.9072734071046011 137 150 255 285.120026 323.136017 3
-1.4139390802827903 0.32853794632826838 2.7816939863755401 197 255 177 186.624023 333.504028 3
-2.0324903932123757 0.39813261765966712 3.5439880690342784 255 202 197 167.616013 330.048035 3
2.1087756649432574 -0.1264011907037976 3.700072449604046 157 255 136 606.528076 273.024017 3
-1.6647909929768945 -1.3662267666512742 3.1678924194819382 186 203 222 184.896011 120.960014 3
-1.5443001317983294 -1.5200115578523419 2.9916788086867396 170 192 215 188.35202 93.3120117 3
-1.7609961760981476 -1.4818424719155503 3.0670080456646533 186 201 219 164.160019 101.952011 3
-0.0033173713569827346 0.30897631920775642 2.5257374388638665 255 140 151 383.616028 333.504028 3
-1.005759264646664 -1.0603082580469276 5.4366990968480486 255 230 235 311.040039 212.544022 3
-1.740367942796393 -0.48463346321314693 3.9931094194760774 118 133 154 216.000015 243.648026 3
-1.0831606968290126 -2.0657456323115659 5.9018679451589522 228 255 193 314.496033 153.792007 3
-1.6622931532090508 -1.74303212253733 2.995071925823475 255 142 172 171.072021 62.2080078 3
-0.027657616958465692 0.31111035469787596 0.68681314452918651 220 222 220 368.064026 463.104034 3
-0.45095521060444876 0.3608146291447426 0.82376996915820522 208 255 208 174.528015 452.736053 3
-0.50205679833823114 0.37652032534090307 0.57853968481416551 94 123 136 48.3840027 540.864075 3
0.58143829284355264 0.47337303886392534 1.931983433797317 161 172 255 497.664062 381.888031 3
-1.3970333320461963 -2.0018579741488183 5.562693815492656 227 255 223 286.848022 150.336014 3
0.36489374915009254 -0.35229503354824954 3.2672027810100364 255 172 197 423.014465 248.832031 4
0.20018139203630247 -0.71558759567133889 4.9069476541276345 179 255 144 398.131256 232.243225 4
-0.73163281412337167 0.31775515935377241 1.5785403344558278 178 185 255 205.286423 360.806458 4
-1.482635898741604 0.12794700787981245 3.7225662948474803 107 125 144 232.243225 302.745636 4
-1.467633912234295 0.13639230050065512 3.6912868753248151 141 255 107 230.169632 300.672028 4
0.073257328023494495 0.48024274545903101 2.4604089931814377 217 255 222 398.131256 362.880066 4
1.0855225715419412 -0.7416275557057258 2.828110861151043 222 229 237 532.915283 186.624023 4
0.61954228161735814 -0.64956792854525569 3.8910923399217836 255 233 237 443.750458 219.801636 4
-1.7250124048178623 -1.0875582418736374 3.0318791260999891 218 230 255 165.888031 151.372818 4
-1.0058086804443542 -1.9195157261630897 5.5258495360648654 213 228 255 313.113647 155.52002 4
-0.8070318357546955 -0.52518109699772619 2.9352145109758712 255 230 231 275.788849 219.801636 4
0.020097145822818074 0.45413658012958469 0.77486475070390104 221 219 255 393.98407 516.326477 4
-1.5750639731205158 -0.85933959351148703 3.0395704958702385 236 255 224 186.624023 180.403229 4
-1.0763044999907407 -0.1624606317079165 3.0646716698339604 111 255 73 246.758438 265.420837 4
-0.82401647502945208 -0.40058300981611733 3.0159551955425981 228 228 255 277.862427 240.537628 4
0.056619872314493058 0.45132824604841171 1.7097425604819603 176 255 203 398.131256 391.910461 4
-0.75399455259902837 0.26133486087058205 3.0238085670021229 171 255 137 286.15683 323.481659 4
-0.5682080353749579 0.38037864500485263 2.2429786491599781 255 196 205 283.668518 350.85318 5
-1.0058086804443542 -1.9195157261630897 5.5258495360648654 212 228 255 313.528351 154.275864 5
-1.3900303602668016 -1.968664804585825 5.5295348151572261 204 216 227 288.645172 151.787537 5
-1.5599760925400448 -1.0502101242097481 2.9901797678108442 208 218 230 184.135712 154.275864 5
-1.6739574015837775 -1.7695597706406203 3.0143047374922709 255 138 169 171.694107 59.7196884 5
-1.7062723502895465 -1.7139922815772521 2.9968597025532144 156 180 209 164.229141 67.1846466 5
1.5051848899784794 -0.8023561849224301 2.5333321469185233 255 203 218 607.150146 166.717468 5
-0.014307623347364462 0.42186661004155668 0.68064336775492507 255 222 223 375.736359 522.547302 5
-0.11398363049827887 0.32902110891063541 0.62019936592984282 255 223 223 311.040039 490.199097 5
-0.82020185219724651 -0.53192248691815192 2.9520511896344441 230 231 231 276.203552 218.972198 5
-1.0076367373749182 -0.71097938596352139 3.0449882420931482 180 187 195 256.296997 196.577301 5
0.41714796374481944 0.46830469604632874 1.2199842345464056 255 207 208 515.082336 432.967743 5
0.42193985716291704 0.4664898554129252 1.3594670717475195 174 255 143 502.640717 418.037811 5
0.5567823383346151 0.46027759348828934 1.8951439021420309 255 159 170 495.175751 380.713013 5
-1.0912048622534041 -0.16283757486170042 3.1168439114732478 106 255 70 246.343719 263.761963 5
-0.90039465570877431 -0.48182235415850339 3.0026029505329954 229 230 230 268.738586 226.437149 5
0.10416664304279766 0.48956466584524105 2.383766301834195 217 214 255 405.596222 368.271423 5
-0.83617487184815165 0.26622225416155221 3.3241399296855487 163 255 136 286.15683 320.993317 5
-1.396848101463966 0.11868677290725746 3.5087689321259701 108 124 143 228.925476 301.086761 5
-1.85603011931296 0.34017756918736081 3.201537207940949 211 212 255 161.740829 323.481659 5
0.41889989191692356 0.47769078963046252 1.2450216305401876 203 205 255 513.589355 432.967773 6
-0.57565072737873835 -0.867189056255807 2.9319044817108502 211 222 234 304.570435 179.159073 6
-1.6744928747373109 -0.31245239233442978 2.9731876847866263 255 241 243 167.215134 247.836716 6
0.67378185258623391 -0.74276864544870269 4.5947076175351169 234 238 242 444.911713 220.96286 6
-1.5920072965468637 -1.0643909507954665 3.0244941237805865 230 255 208 182.145065 152.285217 6
-0.025009091521217108 0.43446627758159717 0.71625822649072379 217 214 255 373.248077 516.575317 6
-0.96501074978582491 -0.5928950592873512 3.3674055078231726 231 255 230 274.710571 220.96286 6
-0.92899058296078607 -0.4400048033795575 2.7547089840165278 180 185 192 256.794678 220.96286 6
-1.0806118918784047 -0.98789825759370831 3.9530683369895137 228 255 226 274.710571 188.117035 6
-0.37620394024453852 -0.063908353511324165 6.4661285103942179 117 137 255 361.304138 283.668549 6
0.0061830587771030121 0.39879024266571828 1.1409410706264871 219 213 255 385.192017 426.995789 6
0.50724372094076242 -0.57474697150846721 3.5449548707819707 255 234 238 435.953735 229.920807 6
-0.81737147598757698 -0.38978321177874764 2.9877780867114274 228 228 255 277.696564 241.864746 6
0.085017486760115002 0.50052284504694655 1.8235207372701643 181 192 146 400.121918 391.163971 6
-1.5062051451783485 0.33808119709204026 2.9608016900637995 224 225 255 185.131042 331.444275 6
-2.1815253880773717 0.32075288178230477 3.748856701906675 210 210 255 161.243164 322.486328 6
-0.38272081906855981 0.46932073749597558 1.5578338035630073 114 145 155 292.626495 403.10791 6
-0.56528962954969919 0.29496392967263785 2.348717198570903 186 193 205 292.626495 337.41626 6
-1.3614372402940322 0.13519873323125528 3.4155396135733938 122 141 255 229.920807 301.584442 6
-0.15137229521352813 0.12210342208834107 5.2386678038019943 129 155 255 373.248077 295.612457 6
1.5350004987932409 -0.77889047138476264 2.6282375374264757 218 232 255 605.557678 168.409531 7
0.41189324728745524 0.47446591912334984 1.2148072773334366 213 213 212 512.394958 433.564972 7
0.41824728306787162 0.47370858463701071 1.4310989702854493 174 255 145 498.062256 419.232239 7
0.84849775701830465 -0.40444745369996848 3.1204693197011353 255 240 242 483.729523 240.073166 7
-0.24075342382445442 0.025488153298667077 4.292014869028332 137 255 95 358.318176 286.654541 7
-0.02857749840723578 -0.50073595920661651 4.6377954222971676 255 160 172 379.817261 243.656357 7
-0.95620084188340604 -1.3999140317618863 4.8494093913819354 211 222 234 300.987244 179.159088 7
-0.96128787712436781 -0.1561815098307259 2.7571874485122141 255 74 91 247.239532 265.155426 7
-0.49297601641437416 0.39017578437817491 1.0331195255116175 124 148 255 197.074982 433.564972 7
0.50721376491950876 -0.5719693886579359 4.3475831854127245 218 255 150 426.398621 236.48999 7
-0.66619765935745612 0.33060885285136354 0.89431712163236798 109 135 146 100.329086 422.81543 7
-0.78322085888116533 0.33738285683403968 1.0353156583423841 128 126 255 93.1627197 412.065887 7
-0.4544180595177929 0.30761948548704121 1.5050250320468552 186 190 255 265.155426 361.901337 7
-2.064520638309526 0.18096005007492591 3.358312514392475 247 255 240 150.493622 300.987244 7
-0.96706963618951391 0.27934574425696612 3.7532131645691091 255 178 179 279.488159 311.736786 7
0.050158514815566768 0.3876340795590229 1.308745361432464 205 203 255 397.733154 394.149963 7
1.092731269618199 -0.7415021778714137 2.8523165722968291 237 255 220 530.310852 189.90863 7
-1.1782315348596959 -2.1049538735925744 6.1924186235507825 255 197 214 311.736786 157.659988 7
-1.6882296053557475 -0.31433370794139431 3.0266083622012672 241 243 245 168.409531 247.239532 7
