ply
format ascii 1.0
comment Written with hapPLY (https://github.com/nmwsharp/happly)
element vertex 166
property double x
property double y
property double z
property uchar red
property uchar green
property uchar blue
property float ix
property float iy
property uchar octave
end_header
-0.2711611058919956 -0.038089123530284943 1.3875209143583416 195 255 170 310 277 0
0.74512157065825169 0.36731195754079643 0.99737832385182879 142 255 110 670 430 0
0.7556721433693343 0.25778953647477182 1.8651924490229581 120 141 255 541 340 0
-1.9605933753301437 -0.67584101721497025 3.8257381953625265 255 202 204 187 220 0
-0.17391747984683881 0.43911368883879992 0.69911908344602747 171 172 255 289 529 0
0.81116839633506799 -0.094324058352096354 1.5816023220565081 26 39 51 580 265 0
0.70004695291999575 0.18654253412518168 1.0223069582681843 105 127 255 649 358 0
-2.772131514829554 -1.7864405868007385 4.1724870537577399 205 255 179 130 124 0
0.80122273540682287 -0.19079418706322523 3.6906248655214888 166 255 127 466 268 0
0.1904788879188814 0.31515007919860583 0.46134057412831819 46 63 91 544 550 0
0.88483664338408186 -0.072564478460593052 0.94508483557772782 50 59 75 744 259 0
0.81039786129953006 -0.063475303775617178 0.93195715788437605 203 255 233 718 262 0
0.71256169728826824 0.40046923756757491 0.82318317054758183 255 70 86 715 475 0
-0.053034915198049704 0.40630997019038662 0.61013245728819299 170 170 255 349 544 0
-0.26010100262019209 -0.2617894556068831 1.3483160196893105 227 255 210 310 214 0
-2.7477814673973304 -0.30189283880327678 4.088022621346636 255 232 234 127 259 0
0.77205221280703584 -0.15775888845212696 1.8916637058619186 52 255 28 542 256 0
1.3923261521735744 -0.19355448248249485 5.4535834383521404 46 59 90 484 274 0
0.48881260579337282 0.44266535390681383 0.71629367372755726 66 86 255 645 526 0
0.76958097176334272 0.26761072508111911 0.92690378252342065 255 30 53 703 400 0
-0.34670116738572432 -0.54678172667246305 1.4114474438004894 167 200 255 289 139 0
-0.259484732427814 -0.2615742025580805 1.3397768750707713 219 228 255 309.600006 213.600006 1
0.87251322384485852 0.44330115884576282 0.96654191776284404 165 172 255 733.200012 464.400024 1
0.83054123359078613 -0.011999840362678298 0.91893639592803156 121 255 98 730.800049 283.200012 1
0.78427183776248643 -0.013395957627434785 0.92485107654391296 238 241 255 709.200012 283.200012 1
0.85514785832868034 -0.063712628207596461 0.92401064708396385 255 54 65 739.200012 261.600006 1
-0.34865956553159705 0.17079185288660687 0.50055887273904809 255 178 182 115.200005 420.000031 1
-0.3505763331854066 0.2051470357829358 0.50089789305008237 255 175 179 115.200005 446.400024 1
1.0236806424438578 0.15362676959724827 4.1298862425715752 160 160 255 477.600006 301.200012 1
0.69764220569038282 0.38283476739419708 1.0872981898770211 255 213 214 631.200012 422.400024 1
-0.18346193897200946 -0.070205136975770077 1.3414000497299285 255 83 106 331.200012 267.600006 1
-0.34816394891439906 -0.54824556853925421 1.411337013785912 167 200 255 289.200012 139.200012 1
0.87219950428733695 -0.15471198635651595 0.93444422846964503 229 234 255 741.600037 223.200012 1
0.26747580082109135 -0.57936307002290799 3.5926103025923481 255 17 61 411.600006 225.600006 1
-0.3256971770339091 0.45503733126326762 0.88287695252310705 38 45 68 244.800003 487.200012 1
-0.029977732288679171 0.39426057961387806 0.60999458728116729 179 255 175 366 535.200012 1
-0.3364741141443629 0.36005832878733168 0.60058102100497834 152 255 163 166.800003 519.600037 1
-0.18695678935449711 0.29116086473889413 1.1702616833225219 170 178 255 325.200012 382.800018 1
0.76660744685724624 0.24500062943556064 0.92433392584298524 28 255 13 702 391.200012 1
0.71926519001253386 0.071341333193404063 1.757239983900563 46 255 27 542.400024 303.600006 1
0.59564498636030028 0.3657401714317432 1.5060502919210945 255 59 67 535.200012 381.600006 1
0.13688671973567065 0.19956454614515512 0.54186589294197418 181 255 193 478.080017 427.680023 2
0.75269513625350148 -0.84964232544454332 3.7812553579176984 255 60 93 459.360016 201.600006 2
-0.18888639946844166 0.29281388184290691 1.1783114083123525 170 178 255 325.440002 383.040009 2
-2.7370773869261913 -2.215144287615936 3.9759021370942254 255 105 134 119.520004 72 2
0.6792152242828513 -0.074376856686276582 0.97986252806978547 236 237 239 648 257.76001 2
-0.370565589160607 0.33924771232562145 0.72387735112558693 255 131 139 187.200012 466.560028 2
0.78853517539890983 -0.20032648677463089 3.5894455899625046 161 166 255 465.120026 267.839996 2
1.4036666366892905 0.1763996418926623 5.077141122423134 255 68 80 491.040009 303.840027 2
-0.18863874084040333 0.28712290302481497 0.97529123189764966 148 162 174 308.160004 403.200012 2
-0.3726236454943338 0.084464403049037892 0.72645171295394839 255 142 140 187.200012 334.080017 2
1.0303915564822428 0.4093857354926051 3.0442117712711005 255 42 58 515.52002 338.400024 2
-0.29009913701616419 -0.27197043540340526 1.3859690807252829 255 212 219 303.840027 213.12001 2
-1.8958322195502459 -0.61197420509110823 3.9971710925009578 208 209 209 204.480011 228.960007 2
-0.28189472086828316 -0.22837978437315798 1.344742748326194 255 203 216 303.840027 223.200012 2
-2.5337338299356609 -0.90356867522968398 3.8506885883965634 221 227 255 129.600006 195.840012 2
-2.5651271638941342 -1.13235419142358 3.8750428396365115 219 221 226 128.160004 177.12001 2
-2.2276209877863549 -0.54825140937989147 4.2142319697708386 142 148 156 180 239.040009 2
-2.6409029961266759 -0.38935229564269547 3.9866262184116676 230 235 255 129.600006 250.560013 2
-0.35395896573540742 -0.55417494797824918 1.4221744725294572 137 166 200 288 138.240005 2
0.7198434542970209 -0.15826426392989382 1.1142556854585428 232 236 255 629.280029 234.720016 2
0.13157453576082939 -0.86513414009390477 3.8464369516375845 31 75 105 400.320007 201.600006 2
0.73258752772072699 -0.39766407890842886 3.7791642660892837 255 39 76 459.360016 247.680008 2
0.76291736662225473 -0.15575291252656656 1.8596170552046349 38 50 255 541.440002 256.320007 2
1.1672220782367999 -0.1797857938441316 4.4610208801367444 255 52 63 483.840027 273.600006 2
-0.17518069723248531 0.44915469072042391 0.72745677283580923 162 255 159 290.880005 525.600037 2
-0.030051474099267284 0.39615538674522172 0.61273854898594937 175 178 255 365.76001 535.679993 2
-0.1457470283421809 0.35369673885568564 2.1940718686552381 167 177 186 360 348.480011 2
-0.27774565666833928 0.05838722172045592 1.444040569002311 184 186 182 312.480011 303.840027 2
0.49129325019464831 0.44969575369724296 0.72931206058995091 64 84 255 645.119995 525.600037 2
0.84195260740608202 0.05872088459682738 0.93651147594507367 112 255 91 730.080017 312.480011 2
0.70845673578585011 0.33771963305187502 1.0688817211211785 217 216 255 637.920044 408.960022 2
0.84629179842286661 0.42070415155318786 1.6664040574211954 112 255 92 578.880005 384.480011 2
0.42250764602793012 0.30274712083758837 2.4358504142467434 255 34 71 447.552032 335.232025 3
0.78199879347398094 -0.014286134756288784 0.92427320982225436 237 238 241 708.480042 281.664032 3
0.80966929073502447 -0.061231490899272656 0.92923432514372473 234 236 255 717.120056 262.656036 3
0.25981750841846285 0.43721988798039174 0.86313557998746904 255 88 102 499.392059 485.568054 3
-0.35360093946452564 0.15050395813536613 0.55213617691189909 178 255 178 138.240021 390.528046 3
-0.11810091377128262 0.31005583863679975 1.7588950686625859 178 182 255 357.696045 354.240021 3
-2.4802435524910811 -1.089459515077521 3.7505992832806401 221 226 255 129.600006 176.256012 3
-2.6801179797206349 -0.37662367325583229 3.8266109135696516 255 228 230 115.776009 250.560028 3
-0.38556899321814386 -0.54190904928549055 1.4304218183080684 255 141 169 279.936035 141.696014 3
0.72944631169230867 -0.15750079699635214 1.1276026180678935 230 232 236 628.992065 235.008026 3
0.75269513625350148 -0.84964232544454332 3.7812553579176984 255 60 93 459.648041 202.176025 3
0.4135009677773348 -0.89363536134668287 3.5432856655561116 110 255 22 430.272034 190.080017 3
0.27542408829119114 -0.95107591078591169 3.612492181690528 22 66 100 412.992035 188.35202 3
0.80646234380351167 -0.19240609577890436 3.7246639590919153 168 255 126 466.560059 266.11203 3
0.72388135637841311 -0.1431548820244076 1.7450495446832455 45 255 23 542.592041 255.744019 3
-0.2901547850943883 0.4356677339400154 1.0176600224303902 106 255 71 274.752014 451.008057 3
-0.30844291736415719 0.42265305930376512 0.69434846195398936 145 255 167 214.272018 518.400024 3
-0.068728525688378228 0.40151378085297534 0.61708453335680791 255 175 177 343.87204 537.408081 3
-0.33569803856878955 0.34266040008201348 1.3615440059247135 165 171 176 292.032013 383.616028 3
0.48121974384493493 0.45406408216713634 0.71946463853661546 86 255 64 642.81604 530.496033 3
0.85301529692481126 0.034347709731522486 0.95630866915281953 108 122 255 729.216064 302.400024 3
0.10053726625352363 0.19038614895846748 0.62415934103188653 196 198 201 444.096039 404.352051 3
0.56363453284597065 0.40722504307130741 1.4499998159002949 76 255 50 530.496033 397.440033 3
0.78079982124364844 0.06055776861050341 0.92272243349653116 255 170 93 707.097717 313.113647 4
-0.12201949244123206 -0.68265615832170412 3.8169330535848216 80 112 255 369.100861 219.801636 4
-0.36764080075572914 -0.5323149733824285 1.3961243184424297 201 255 143 282.009644 143.078415 4
-0.20893333774741629 -0.60517918902767254 1.4354695624506879 255 127 157 327.628845 124.416016 4
-2.4701554536304524 -2.0232004024489743 3.5996250031700168 173 255 105 118.195213 70.5024109 4
0.74343755534934441 -0.073748259041757538 0.90913206118307288 236 237 239 696.729675 257.126434 4
0.70562862937025528 -0.10805709758340414 1.0429320108861062 237 255 230 646.963318 246.758438 4
0.2647407967251208 -0.90993693572536338 3.5127964736931614 22 66 100 412.646454 188.697632 4
0.7780055754201205 -0.18435028624766447 3.5322271236058898 167 255 127 466.560059 267.494446 4
0.75226907298822909 -0.13698560153082764 1.7173322148331323 62 67 255 553.651306 257.126434 4
0.75532377083190361 -0.15769655502607252 1.8352641931045701 33 43 255 541.209656 255.052841 4
-0.20578370965874937 0.42186838460603659 0.95396204540731278 171 175 176 300.672028 458.265656 4
-0.18351368400057744 0.4565802527916647 0.73818892318874751 163 255 160 290.304047 524.62085 4
-0.30721175366576314 0.41993275678953845 0.68956817628675626 172 168 255 213.580826 520.473694 4
-0.30119325559153698 0.43517357623792541 0.84546488390285235 64 255 40 246.758438 485.222473 4
-0.32059075019227468 0.37096576698236516 0.57623051293615368 170 162 255 165.888031 532.915283 4
-0.13767206780206453 0.30352280429949863 1.0594698309792578 173 174 255 337.996857 398.131256 4
-0.1782748802561771 0.28429123482613722 1.1526720352309978 170 178 255 325.555237 383.616058 4
0.66857952492849237 0.3971879731534117 1.0363656351447026 122 132 157 628.300903 435.456055 4
0.48829606875823373 0.44279445276978513 0.71881657627654905 62 64 83 644.889709 524.62085 4
0.64382969383425492 0.4414154373435199 0.82582013104352381 156 156 143 684.288086 493.516876 4
0.71081021856738025 0.34349779189731433 1.0685786841071965 218 255 218 638.668884 410.572845 4
0.46687925512309303 0.42885170404299394 1.5533878058673911 91 120 255 501.811279 396.057648 4
0.58890324022101359 0.35545735427967307 1.4775720367754215 75 95 255 537.0625 379.468842 4
-2.482382951444233 -0.34288182883629137 3.5807290819795861 228 230 235 116.121613 250.90564 4
-2.6278871098278676 -1.1155123797080868 3.765084677695306 227 255 221 114.048019 176.256027 4
1.0686280037613807 0.098627244928943342 3.8079871783421031 62 75 95 492.687439 301.086761 5
-2.3077817613599634 -0.86129135397629386 4.4488359806585009 197 199 201 184.135712 218.972198 5
0.68203050410647226 0.3960315502665992 0.98784331714369888 128 255 91 646.963318 440.432709 5
0.4889774630026929 0.44287402475954102 0.71837529037822379 93 255 64 646.963318 522.547302 5
-0.29777845049580554 0.42995482358837128 0.84406599877879351 62 255 39 246.343719 482.734161 5
0.73523002115785963 -0.15216876370457372 1.7702261375912189 30 255 13 542.453857 253.80867 5
0.74587326753344096 -0.15187361942404431 0.95163479279884911 228 234 255 689.264709 226.437149 5
0.72439834378246726 -0.12285300951310088 0.98659324688542482 230 232 236 664.381531 241.367081 5
-0.21342881299343364 -0.61301318082714151 1.4595265479513111 128 157 194 328.458282 124.416016 5
-0.26262308873460483 0.40506131486993746 0.95536107962328598 75 87 109 276.203552 447.897675 5
-0.29494701665861878 0.39443686173778031 1.1767926480484403 255 167 172 291.133484 413.061188 5
-0.27284898720150808 -0.27279109747628905 1.3524922858676052 229 255 217 306.063416 211.507233 5
0.15703310102666121 0.22856986920136946 0.54827163994810169 255 127 134 495.175751 445.409332 5
-2.7416370414659847 -1.1938208474494392 4.1150400561322238 227 255 221 126.904335 176.670746 5
0.94359739542047449 -1.1114730210642079 4.9169425472595218 72 102 124 460.339264 204.042267 5
0.14949214307645753 -0.72641298866398019 3.4086809199405339 32 71 101 400.619568 204.042267 5
-2.659620157412137 -0.61967721841672818 4.8957803047773298 255 107 116 179.159058 236.390427 5
-2.5963541591030417 -0.51671298250239717 4.6741504845801876 93 255 49 166.717468 246.343719 5
0.45656735370637741 0.41207147794916676 1.4886169731104499 65 83 114 500.152405 393.154602 5
0.42582959323336794 0.27882468416659933 2.2884995787467277 92 255 61 450.385986 333.434937 5
-2.4784658852135859 -1.0858821513536834 3.7269012022946897 219 221 226 128.397339 176.173096 6
0.71952964473398495 -0.14429309531770279 1.7054495391099429 255 30 41 543.449219 256.794678 6
-0.020782396352799382 0.36640243867797612 0.61658459122651177 172 164 255 373.248077 513.589355 6
0.81487990901678209 0.034523014571593805 1.5495932779028627 68 255 28 582.266968 298.59845 6
0.78957185515585437 -0.13163832753284632 1.7908605505872173 255 65 84 555.393127 259.78067 6
0.15838427738001318 -0.82577691526202113 3.7740229195274169 33 72 102 400.121918 206.032928 6
0.57249894126445178 -0.77174040209914285 3.1425638367680047 255 47 83 447.897675 194.088989 6
0.26051438941238858 -1.0588037872144183 4.0829722736208485 16 55 88 412.065857 191.103012 6
-0.35129130828812938 -0.60715775071627487 1.4571560134761017 130 160 195 292.626495 128.397339 6
-0.38048305229519097 0.39109075517747249 0.66121387080411087 255 144 152 167.215134 516.575317 6
-2.2321514670070788 -0.56876911355867732 4.1632499596547463 66 77 95 176.173096 235.892776 6
0.47037657377562425 0.34719813380575815 2.761053879140658 255 35 73 447.897675 334.430267 6
-0.1943553777032957 0.28943447906083108 1.0004115161730764 172 255 159 310.542389 400.121918 6
0.69148556803566152 0.40908011795583343 1.0803606238913328 147 255 114 630.042725 429.981781 6
1.1143178278205288 0.10620302756738398 3.9814780424322791 98 255 79 490.895874 304.570435 7
-2.6168888319290531 -2.0361007908463131 3.7166259600592375 176 255 109 114.661812 78.8299942 7
0.67565537646608975 0.39941380463613602 1.0572525629974494 255 115 124 627.056763 429.981781 7
0.68073719932667009 0.3978627725935715 0.99679984012576206 107 131 255 641.389526 440.731354 7
1.3372375301012482 0.6311004920977713 2.5079342984266648 171 255 169 594.808167 383.400421 7
0.130394370904197 0.11518559957455984 2.4023607950548778 16 75 101 404.899536 311.736786 7
0.7946523235515931 -0.96651953487405828 4.4305942213867295 116 255 43 458.647247 204.241348 7
0.14335470801106456 -0.83853835145864064 3.8413826533731137 81 111 255 397.733154 204.241348 7
0.068822502062794222 0.27413145448688236 0.6412406643516062 63 255 29 426.398621 458.647247 7
-2.6190388287465542 -1.1295793761963262 3.925675537092622 223 228 255 125.411354 175.575897 7
